  0
SECTION
  2
TABLES
  0
TABLE
  2
DIMSTYLE
 70
     2
  0
DIMSTYLE
  2
BOARDERDIM
 70
     0
  3

  4

  5
_NONE
  6
_NONE
  7
_NONE
 40
1
 41
0.1
 42
0.0625
 43
0.38
 44
0.18
 45
0.00
 46
0.0
 47
0.0
 48
0.0
140
0.5
141
0.09
142
0.0
143
25.399999999999999
144
1.0
145
0.5
146
1.0
147
0.09
 71
     1
 72
     0
 73
     1
 74
     0
 75
     0
 76
     0
 77
     2
 78
     0
170
     0
171
     2
172
     0
173
     0
174
     1
175
      0
176
5
177
5
178
     1
271
3
272
3
  0
ENDTAB
  0
TABLE
  2
DIMSTYLE
 70
     2
  0
DIMSTYLE
  2
VDRILLDIM
 70
     0
  3

  4

  5
_NONE
  6
_NONE
  7
_NONE
 40
1
 41
0.1
 42
0.0625
 43
0.38
 44
0.18
 45
0.00
 46
0.0
 47
0.0
 48
0.0
140
0.5
141
0.09
142
0.0
143
25.399999999999999
144
1.0
145
0.5
146
1.0
147
0.09
 71
     1
 72
     0
 73
     1
 74
     0
 75
     0
 76
     0
 77
     2
 78
     0
170
     0
171
     2
172
     0
173
     0
174
     1
175
      0
176
5
177
5
178
     1
271
3
272
3
  0
ENDTAB
  0
TABLE
  2
DIMSTYLE
 70
     2
  0
DIMSTYLE
  2
HDRILLDIM
 70
     0
  3

  4

  5
_NONE
  6
_NONE
  7
_NONE
 40
1
 41
0.1
 42
0.0625
 43
0.38
 44
0.18
 45
0.00
 46
0.0
 47
0.0
 48
0.0
140
0.5
141
0.09
142
0.0
143
25.399999999999999
144
1.0
145
0.5
146
1.0
147
0.09
 71
     1
 72
     0
 73
     1
 74
     0
 75
     0
 76
     0
 77
     2
 78
     0
170
     0
171
     2
172
     0
173
     0
174
     1
175
      0
176
5
177
5
178
     1
271
3
272
3
  0
ENDTAB
  0
TABLE
  2
DIMSTYLE
 70
     2
  0
DIMSTYLE
  2
ROUTEDIM
 70
     0
  3

  4

  5
_NONE
  6
_NONE
  7
_NONE
 40
1
 41
0.1
 42
0.0625
 43
0.38
 44
0.18
 45
0.00
 46
0.0
 47
0.0
 48
0.0
140
0.5
141
0.09
142
0.0
143
25.399999999999999
144
1.0
145
0.5
146
1.0
147
0.09
 71
     1
 72
     0
 73
     1
 74
     0
 75
     0
 76
     0
 77
     2
 78
     0
170
     0
171
     2
172
     0
173
     0
174
     1
175
      0
176
5
177
5
178
     1
271
3
272
3
  0
ENDTAB
  0
TABLE
  2
DIMSTYLE
 70
     2
  0
DIMSTYLE
  2
SAWDIM
 70
     0
  3

  4

  5
_NONE
  6
_NONE
  7
_NONE
 40
1
 41
0.1
 42
0.0625
 43
0.38
 44
0.18
 45
0.00
 46
0.0
 47
0.0
 48
0.0
140
0.5
141
0.09
142
0.0
143
25.399999999999999
144
1.0
145
0.5
146
1.0
147
0.09
 71
     1
 72
     0
 73
     1
 74
     0
 75
     0
 76
     0
 77
     2
 78
     0
170
     0
171
     2
172
     0
173
     0
174
     1
175
      0
176
5
177
5
178
     1
271
3
272
3
  0
ENDTAB
  0
TABLE
  2
VPORT
 70
     1
  0
VPORT
  2
*ACTIVE
 70
     0
 10
0.0
 20
0.0
 11
1.0
 21
1.0
 12
0.0
 22
0.0
 13
0.0
 23
0.0
 14
1.0
 24
1.0
 15
0.0
 25
0.0
 16
0.0
 26
0.0
 36
1.0
 17
0.0
 27
0.0
 37
0.0
 40
84
 41
2.0
 42
50.0
 43
0.0
 44
0.0
 50
0.0
 51
0.0
 71
     0
 72
   100
 73
     1
 74
     0
 75
     1
 76
     0
 77
     0
 78
     0
  0
ENDTAB
  0
ENDSEC
  0
SECTION
  2
ENTITIES
  0
POLYLINE
  8
BORDER_Z0P75
 62
     7
 66
     1
 10
0.0
 20
0.0
 30
0.0
 70
     1
  0
VERTEX
  8
BORDER_Z0P75
 62
     7
 10
0.0
 20
0.0
 30
0.0
  0
VERTEX
  8
BORDER_Z0P75
 62
     7
 10
0.0
 20
26.75
 30
0.0
  0
VERTEX
  8
BORDER_Z0P75
 62
     7
 10
35.125
 20
26.75
 30
0.0
  0
VERTEX
  8
BORDER_Z0P75
 62
     7
 10
35.125
 20
0.0
 30
0.0
  0
SEQEND
  8
BORDER_Z0P75
 62
     7
  0
POLYLINE
  8
HBORE_Z0P375
 62
     4
 66
     1
 10
0.0
 20
0.0
 30
0.0
 70
     1
  0
VERTEX
  8
HBORE_Z0P375
 62
     4
 10
0
 20
25.64764
 30
0.0
  0
VERTEX
  8
HBORE_Z0P375
 62
     4
 10
0.8268
 20
25.64764
 30
0.0
  0
VERTEX
  8
HBORE_Z0P375
 62
     4
 10
0.8268
 20
25.33268
 30
0.0
  0
VERTEX
  8
HBORE_Z0P375
 62
     4
 10
0
 20
25.33268
 30
0.0
  0
SEQEND
  8
HBORE_Z0P375
 62
     4
  0
POLYLINE
  8
HBORE_Z0P375
 62
     4
 66
     1
 10
0.0
 20
0.0
 30
0.0
 70
     1
  0
VERTEX
  8
HBORE_Z0P375
 62
     4
 10
0
 20
22.2142871428571
 30
0.0
  0
VERTEX
  8
HBORE_Z0P375
 62
     4
 10
0.8268
 20
22.2142871428571
 30
0.0
  0
VERTEX
  8
HBORE_Z0P375
 62
     4
 10
0.8268
 20
21.8993271428571
 30
0.0
  0
VERTEX
  8
HBORE_Z0P375
 62
     4
 10
0
 20
21.8993271428571
 30
0.0
  0
SEQEND
  8
HBORE_Z0P375
 62
     4
  0
POLYLINE
  8
HBORE_Z0P375
 62
     4
 66
     1
 10
0.0
 20
0.0
 30
0.0
 70
     1
  0
VERTEX
  8
HBORE_Z0P375
 62
     4
 10
0
 20
18.7809342857143
 30
0.0
  0
VERTEX
  8
HBORE_Z0P375
 62
     4
 10
0.8268
 20
18.7809342857143
 30
0.0
  0
VERTEX
  8
HBORE_Z0P375
 62
     4
 10
0.8268
 20
18.4659742857143
 30
0.0
  0
VERTEX
  8
HBORE_Z0P375
 62
     4
 10
0
 20
18.4659742857143
 30
0.0
  0
SEQEND
  8
HBORE_Z0P375
 62
     4
  0
POLYLINE
  8
HBORE_Z0P375
 62
     4
 66
     1
 10
0.0
 20
0.0
 30
0.0
 70
     1
  0
VERTEX
  8
HBORE_Z0P375
 62
     4
 10
0
 20
15.3475814285714
 30
0.0
  0
VERTEX
  8
HBORE_Z0P375
 62
     4
 10
0.8268
 20
15.3475814285714
 30
0.0
  0
VERTEX
  8
HBORE_Z0P375
 62
     4
 10
0.8268
 20
15.0326214285714
 30
0.0
  0
VERTEX
  8
HBORE_Z0P375
 62
     4
 10
0
 20
15.0326214285714
 30
0.0
  0
SEQEND
  8
HBORE_Z0P375
 62
     4
  0
POLYLINE
  8
HBORE_Z0P375
 62
     4
 66
     1
 10
0.0
 20
0.0
 30
0.0
 70
     1
  0
VERTEX
  8
HBORE_Z0P375
 62
     4
 10
0
 20
11.9142285714286
 30
0.0
  0
VERTEX
  8
HBORE_Z0P375
 62
     4
 10
0.8268
 20
11.9142285714286
 30
0.0
  0
VERTEX
  8
HBORE_Z0P375
 62
     4
 10
0.8268
 20
11.5992685714286
 30
0.0
  0
VERTEX
  8
HBORE_Z0P375
 62
     4
 10
0
 20
11.5992685714286
 30
0.0
  0
SEQEND
  8
HBORE_Z0P375
 62
     4
  0
POLYLINE
  8
HBORE_Z0P375
 62
     4
 66
     1
 10
0.0
 20
0.0
 30
0.0
 70
     1
  0
VERTEX
  8
HBORE_Z0P375
 62
     4
 10
0
 20
8.4808757142857
 30
0.0
  0
VERTEX
  8
HBORE_Z0P375
 62
     4
 10
0.8268
 20
8.4808757142857
 30
0.0
  0
VERTEX
  8
HBORE_Z0P375
 62
     4
 10
0.8268
 20
8.1659157142857
 30
0.0
  0
VERTEX
  8
HBORE_Z0P375
 62
     4
 10
0
 20
8.1659157142857
 30
0.0
  0
SEQEND
  8
HBORE_Z0P375
 62
     4
  0
POLYLINE
  8
HBORE_Z0P375
 62
     4
 66
     1
 10
0.0
 20
0.0
 30
0.0
 70
     1
  0
VERTEX
  8
HBORE_Z0P375
 62
     4
 10
0
 20
5.0475228571429
 30
0.0
  0
VERTEX
  8
HBORE_Z0P375
 62
     4
 10
0.8268
 20
5.0475228571429
 30
0.0
  0
VERTEX
  8
HBORE_Z0P375
 62
     4
 10
0.8268
 20
4.7325628571429
 30
0.0
  0
VERTEX
  8
HBORE_Z0P375
 62
     4
 10
0
 20
4.7325628571429
 30
0.0
  0
SEQEND
  8
HBORE_Z0P375
 62
     4
  0
POLYLINE
  8
HBORE_Z0P375
 62
     4
 66
     1
 10
0.0
 20
0.0
 30
0.0
 70
     1
  0
VERTEX
  8
HBORE_Z0P375
 62
     4
 10
0
 20
1.61417
 30
0.0
  0
VERTEX
  8
HBORE_Z0P375
 62
     4
 10
0.8268
 20
1.61417
 30
0.0
  0
VERTEX
  8
HBORE_Z0P375
 62
     4
 10
0.8268
 20
1.29921
 30
0.0
  0
VERTEX
  8
HBORE_Z0P375
 62
     4
 10
0
 20
1.29921
 30
0.0
  0
SEQEND
  8
HBORE_Z0P375
 62
     4
  0
POLYLINE
  8
HBORE_Z0P375
 62
     4
 66
     1
 10
0.0
 20
0.0
 30
0.0
 70
     1
  0
VERTEX
  8
HBORE_Z0P375
 62
     4
 10
35.125
 20
25.64764
 30
0.0
  0
VERTEX
  8
HBORE_Z0P375
 62
     4
 10
34.2982
 20
25.64764
 30
0.0
  0
VERTEX
  8
HBORE_Z0P375
 62
     4
 10
34.2982
 20
25.33268
 30
0.0
  0
VERTEX
  8
HBORE_Z0P375
 62
     4
 10
35.125
 20
25.33268
 30
0.0
  0
SEQEND
  8
HBORE_Z0P375
 62
     4
  0
POLYLINE
  8
HBORE_Z0P375
 62
     4
 66
     1
 10
0.0
 20
0.0
 30
0.0
 70
     1
  0
VERTEX
  8
HBORE_Z0P375
 62
     4
 10
35.125
 20
22.2142871428571
 30
0.0
  0
VERTEX
  8
HBORE_Z0P375
 62
     4
 10
34.2982
 20
22.2142871428571
 30
0.0
  0
VERTEX
  8
HBORE_Z0P375
 62
     4
 10
34.2982
 20
21.8993271428571
 30
0.0
  0
VERTEX
  8
HBORE_Z0P375
 62
     4
 10
35.125
 20
21.8993271428571
 30
0.0
  0
SEQEND
  8
HBORE_Z0P375
 62
     4
  0
POLYLINE
  8
HBORE_Z0P375
 62
     4
 66
     1
 10
0.0
 20
0.0
 30
0.0
 70
     1
  0
VERTEX
  8
HBORE_Z0P375
 62
     4
 10
35.125
 20
18.7809342857143
 30
0.0
  0
VERTEX
  8
HBORE_Z0P375
 62
     4
 10
34.2982
 20
18.7809342857143
 30
0.0
  0
VERTEX
  8
HBORE_Z0P375
 62
     4
 10
34.2982
 20
18.4659742857143
 30
0.0
  0
VERTEX
  8
HBORE_Z0P375
 62
     4
 10
35.125
 20
18.4659742857143
 30
0.0
  0
SEQEND
  8
HBORE_Z0P375
 62
     4
  0
POLYLINE
  8
HBORE_Z0P375
 62
     4
 66
     1
 10
0.0
 20
0.0
 30
0.0
 70
     1
  0
VERTEX
  8
HBORE_Z0P375
 62
     4
 10
35.125
 20
15.3475814285714
 30
0.0
  0
VERTEX
  8
HBORE_Z0P375
 62
     4
 10
34.2982
 20
15.3475814285714
 30
0.0
  0
VERTEX
  8
HBORE_Z0P375
 62
     4
 10
34.2982
 20
15.0326214285714
 30
0.0
  0
VERTEX
  8
HBORE_Z0P375
 62
     4
 10
35.125
 20
15.0326214285714
 30
0.0
  0
SEQEND
  8
HBORE_Z0P375
 62
     4
  0
POLYLINE
  8
HBORE_Z0P375
 62
     4
 66
     1
 10
0.0
 20
0.0
 30
0.0
 70
     1
  0
VERTEX
  8
HBORE_Z0P375
 62
     4
 10
35.125
 20
11.9142285714286
 30
0.0
  0
VERTEX
  8
HBORE_Z0P375
 62
     4
 10
34.2982
 20
11.9142285714286
 30
0.0
  0
VERTEX
  8
HBORE_Z0P375
 62
     4
 10
34.2982
 20
11.5992685714286
 30
0.0
  0
VERTEX
  8
HBORE_Z0P375
 62
     4
 10
35.125
 20
11.5992685714286
 30
0.0
  0
SEQEND
  8
HBORE_Z0P375
 62
     4
  0
POLYLINE
  8
HBORE_Z0P375
 62
     4
 66
     1
 10
0.0
 20
0.0
 30
0.0
 70
     1
  0
VERTEX
  8
HBORE_Z0P375
 62
     4
 10
35.125
 20
8.4808757142857
 30
0.0
  0
VERTEX
  8
HBORE_Z0P375
 62
     4
 10
34.2982
 20
8.4808757142857
 30
0.0
  0
VERTEX
  8
HBORE_Z0P375
 62
     4
 10
34.2982
 20
8.1659157142857
 30
0.0
  0
VERTEX
  8
HBORE_Z0P375
 62
     4
 10
35.125
 20
8.1659157142857
 30
0.0
  0
SEQEND
  8
HBORE_Z0P375
 62
     4
  0
POLYLINE
  8
HBORE_Z0P375
 62
     4
 66
     1
 10
0.0
 20
0.0
 30
0.0
 70
     1
  0
VERTEX
  8
HBORE_Z0P375
 62
     4
 10
35.125
 20
5.0475228571429
 30
0.0
  0
VERTEX
  8
HBORE_Z0P375
 62
     4
 10
34.2982
 20
5.0475228571429
 30
0.0
  0
VERTEX
  8
HBORE_Z0P375
 62
     4
 10
34.2982
 20
4.7325628571429
 30
0.0
  0
VERTEX
  8
HBORE_Z0P375
 62
     4
 10
35.125
 20
4.7325628571429
 30
0.0
  0
SEQEND
  8
HBORE_Z0P375
 62
     4
  0
POLYLINE
  8
HBORE_Z0P375
 62
     4
 66
     1
 10
0.0
 20
0.0
 30
0.0
 70
     1
  0
VERTEX
  8
HBORE_Z0P375
 62
     4
 10
35.125
 20
1.61417
 30
0.0
  0
VERTEX
  8
HBORE_Z0P375
 62
     4
 10
34.2982
 20
1.61417
 30
0.0
  0
VERTEX
  8
HBORE_Z0P375
 62
     4
 10
34.2982
 20
1.29921
 30
0.0
  0
VERTEX
  8
HBORE_Z0P375
 62
     4
 10
35.125
 20
1.29921
 30
0.0
  0
SEQEND
  8
HBORE_Z0P375
 62
     4
  0
POLYLINE
  8
HBORE_Z0P375
 62
     4
 66
     1
 10
0.0
 20
0.0
 30
0.0
 70
     1
  0
VERTEX
  8
HBORE_Z0P375
 62
     4
 10
1.10236
 20
0
 30
0.0
  0
VERTEX
  8
HBORE_Z0P375
 62
     4
 10
1.10236
 20
0.8268
 30
0.0
  0
VERTEX
  8
HBORE_Z0P375
 62
     4
 10
1.41732
 20
0.8268
 30
0.0
  0
VERTEX
  8
HBORE_Z0P375
 62
     4
 10
1.41732
 20
0
 30
0.0
  0
SEQEND
  8
HBORE_Z0P375
 62
     4
  0
POLYLINE
  8
HBORE_Z0P375
 62
     4
 66
     1
 10
0.0
 20
0.0
 30
0.0
 70
     1
  0
VERTEX
  8
HBORE_Z0P375
 62
     4
 10
4.72517333333333
 20
0
 30
0.0
  0
VERTEX
  8
HBORE_Z0P375
 62
     4
 10
4.72517333333333
 20
0.8268
 30
0.0
  0
VERTEX
  8
HBORE_Z0P375
 62
     4
 10
5.04013333333333
 20
0.8268
 30
0.0
  0
VERTEX
  8
HBORE_Z0P375
 62
     4
 10
5.04013333333333
 20
0
 30
0.0
  0
SEQEND
  8
HBORE_Z0P375
 62
     4
  0
POLYLINE
  8
HBORE_Z0P375
 62
     4
 66
     1
 10
0.0
 20
0.0
 30
0.0
 70
     1
  0
VERTEX
  8
HBORE_Z0P375
 62
     4
 10
8.34798666666667
 20
0
 30
0.0
  0
VERTEX
  8
HBORE_Z0P375
 62
     4
 10
8.34798666666667
 20
0.8268
 30
0.0
  0
VERTEX
  8
HBORE_Z0P375
 62
     4
 10
8.66294666666667
 20
0.8268
 30
0.0
  0
VERTEX
  8
HBORE_Z0P375
 62
     4
 10
8.66294666666667
 20
0
 30
0.0
  0
SEQEND
  8
HBORE_Z0P375
 62
     4
  0
POLYLINE
  8
HBORE_Z0P375
 62
     4
 66
     1
 10
0.0
 20
0.0
 30
0.0
 70
     1
  0
VERTEX
  8
HBORE_Z0P375
 62
     4
 10
11.9708
 20
0
 30
0.0
  0
VERTEX
  8
HBORE_Z0P375
 62
     4
 10
11.9708
 20
0.8268
 30
0.0
  0
VERTEX
  8
HBORE_Z0P375
 62
     4
 10
12.28576
 20
0.8268
 30
0.0
  0
VERTEX
  8
HBORE_Z0P375
 62
     4
 10
12.28576
 20
0
 30
0.0
  0
SEQEND
  8
HBORE_Z0P375
 62
     4
  0
POLYLINE
  8
HBORE_Z0P375
 62
     4
 66
     1
 10
0.0
 20
0.0
 30
0.0
 70
     1
  0
VERTEX
  8
HBORE_Z0P375
 62
     4
 10
15.5936133333333
 20
0
 30
0.0
  0
VERTEX
  8
HBORE_Z0P375
 62
     4
 10
15.5936133333333
 20
0.8268
 30
0.0
  0
VERTEX
  8
HBORE_Z0P375
 62
     4
 10
15.9085733333333
 20
0.8268
 30
0.0
  0
VERTEX
  8
HBORE_Z0P375
 62
     4
 10
15.9085733333333
 20
0
 30
0.0
  0
SEQEND
  8
HBORE_Z0P375
 62
     4
  0
POLYLINE
  8
HBORE_Z0P375
 62
     4
 66
     1
 10
0.0
 20
0.0
 30
0.0
 70
     1
  0
VERTEX
  8
HBORE_Z0P375
 62
     4
 10
19.2164266666667
 20
0
 30
0.0
  0
VERTEX
  8
HBORE_Z0P375
 62
     4
 10
19.2164266666667
 20
0.8268
 30
0.0
  0
VERTEX
  8
HBORE_Z0P375
 62
     4
 10
19.5313866666667
 20
0.8268
 30
0.0
  0
VERTEX
  8
HBORE_Z0P375
 62
     4
 10
19.5313866666667
 20
0
 30
0.0
  0
SEQEND
  8
HBORE_Z0P375
 62
     4
  0
POLYLINE
  8
HBORE_Z0P375
 62
     4
 66
     1
 10
0.0
 20
0.0
 30
0.0
 70
     1
  0
VERTEX
  8
HBORE_Z0P375
 62
     4
 10
22.83924
 20
0
 30
0.0
  0
VERTEX
  8
HBORE_Z0P375
 62
     4
 10
22.83924
 20
0.8268
 30
0.0
  0
VERTEX
  8
HBORE_Z0P375
 62
     4
 10
23.1542
 20
0.8268
 30
0.0
  0
VERTEX
  8
HBORE_Z0P375
 62
     4
 10
23.1542
 20
0
 30
0.0
  0
SEQEND
  8
HBORE_Z0P375
 62
     4
  0
POLYLINE
  8
HBORE_Z0P375
 62
     4
 66
     1
 10
0.0
 20
0.0
 30
0.0
 70
     1
  0
VERTEX
  8
HBORE_Z0P375
 62
     4
 10
26.4620533333333
 20
0
 30
0.0
  0
VERTEX
  8
HBORE_Z0P375
 62
     4
 10
26.4620533333333
 20
0.8268
 30
0.0
  0
VERTEX
  8
HBORE_Z0P375
 62
     4
 10
26.7770133333333
 20
0.8268
 30
0.0
  0
VERTEX
  8
HBORE_Z0P375
 62
     4
 10
26.7770133333333
 20
0
 30
0.0
  0
SEQEND
  8
HBORE_Z0P375
 62
     4
  0
POLYLINE
  8
HBORE_Z0P375
 62
     4
 66
     1
 10
0.0
 20
0.0
 30
0.0
 70
     1
  0
VERTEX
  8
HBORE_Z0P375
 62
     4
 10
30.0848666666667
 20
0
 30
0.0
  0
VERTEX
  8
HBORE_Z0P375
 62
     4
 10
30.0848666666667
 20
0.8268
 30
0.0
  0
VERTEX
  8
HBORE_Z0P375
 62
     4
 10
30.3998266666667
 20
0.8268
 30
0.0
  0
VERTEX
  8
HBORE_Z0P375
 62
     4
 10
30.3998266666667
 20
0
 30
0.0
  0
SEQEND
  8
HBORE_Z0P375
 62
     4
  0
POLYLINE
  8
HBORE_Z0P375
 62
     4
 66
     1
 10
0.0
 20
0.0
 30
0.0
 70
     1
  0
VERTEX
  8
HBORE_Z0P375
 62
     4
 10
33.70768
 20
0
 30
0.0
  0
VERTEX
  8
HBORE_Z0P375
 62
     4
 10
33.70768
 20
0.8268
 30
0.0
  0
VERTEX
  8
HBORE_Z0P375
 62
     4
 10
34.02264
 20
0.8268
 30
0.0
  0
VERTEX
  8
HBORE_Z0P375
 62
     4
 10
34.02264
 20
0
 30
0.0
  0
SEQEND
  8
HBORE_Z0P375
 62
     4
  0
DIMENSION
  8
2D_DIM
  2
*D1
  3
BOARDERDIM
  1
35.125
 10
35.125
 20
31.75
 30
0.0
 11
17.5625
 21
31.75
 31
0.0
 13
0
 23
26.75
 14
35.125
 24
26.75
 33
0.0
 34
0.0
53
0
  0
DIMENSION
  8
2D_DIM
  2
*D1
  3
BOARDERDIM
  1
26.75
 10
-5
 20
26.75
 30
0.0
 11
-5
 21
13.375
 31
0
 13
0.0
 23
0
 14
0.0
 24
26.75
 50
90.0
53
0
 33
0.0
 34
0.0
  0
DIMENSION
  8
2D_DIM
  2
*D1
  3
HDRILLDIM
  1
1.26
 10
1.25984
 20
-2.5
 30
0.0
 11
0.62992
 21
-2.5
 31
0.0
 13
0
 23
0.0
 14
1.25984
 24
0.0
 33
0.0
 34
0.0
53
90
  0
DIMENSION
  8
2D_DIM
  2
*D1
  3
HDRILLDIM
  1
3.623
 10
4.88265333333333
 20
-2.5
 30
0.0
 11
2.44132666666667
 21
-2.5
 31
0.0
 13
1.25984
 23
0.0
 14
4.88265333333333
 24
0.0
 33
0.0
 34
0.0
53
90
  0
DIMENSION
  8
2D_DIM
  2
*D1
  3
HDRILLDIM
  1
3.623
 10
8.50546666666667
 20
-2.5
 30
0.0
 11
4.25273333333334
 21
-2.5
 31
0.0
 13
4.88265333333333
 23
0.0
 14
8.50546666666667
 24
0.0
 33
0.0
 34
0.0
53
90
  0
DIMENSION
  8
2D_DIM
  2
*D1
  3
HDRILLDIM
  1
3.623
 10
12.12828
 20
-2.5
 30
0.0
 11
6.06414
 21
-2.5
 31
0.0
 13
8.50546666666667
 23
0.0
 14
12.12828
 24
0.0
 33
0.0
 34
0.0
53
90
  0
DIMENSION
  8
2D_DIM
  2
*D1
  3
HDRILLDIM
  1
3.623
 10
15.7510933333333
 20
-2.5
 30
0.0
 11
7.87554666666665
 21
-2.5
 31
0.0
 13
12.12828
 23
0.0
 14
15.7510933333333
 24
0.0
 33
0.0
 34
0.0
53
90
  0
DIMENSION
  8
2D_DIM
  2
*D1
  3
HDRILLDIM
  1
3.623
 10
19.3739066666667
 20
-2.5
 30
0.0
 11
9.68695333333335
 21
-2.5
 31
0.0
 13
15.7510933333333
 23
0.0
 14
19.3739066666667
 24
0.0
 33
0.0
 34
0.0
53
90
  0
DIMENSION
  8
2D_DIM
  2
*D1
  3
HDRILLDIM
  1
3.623
 10
22.99672
 20
-2.5
 30
0.0
 11
11.49836
 21
-2.5
 31
0.0
 13
19.3739066666667
 23
0.0
 14
22.99672
 24
0.0
 33
0.0
 34
0.0
53
90
  0
DIMENSION
  8
2D_DIM
  2
*D1
  3
HDRILLDIM
  1
3.623
 10
26.6195333333333
 20
-2.5
 30
0.0
 11
13.3097666666667
 21
-2.5
 31
0.0
 13
22.99672
 23
0.0
 14
26.6195333333333
 24
0.0
 33
0.0
 34
0.0
53
90
  0
DIMENSION
  8
2D_DIM
  2
*D1
  3
HDRILLDIM
  1
3.623
 10
30.2423466666667
 20
-2.5
 30
0.0
 11
15.1211733333333
 21
-2.5
 31
0.0
 13
26.6195333333333
 23
0.0
 14
30.2423466666667
 24
0.0
 33
0.0
 34
0.0
53
90
  0
DIMENSION
  8
2D_DIM
  2
*D1
  3
HDRILLDIM
  1
3.623
 10
33.86516
 20
-2.5
 30
0.0
 11
16.93258
 21
-2.5
 31
0.0
 13
30.2423466666667
 23
0.0
 14
33.86516
 24
0.0
 33
0.0
 34
0.0
53
90
  0
DIMENSION
  8
2D_DIM
  2
*D1
  3
HDRILLDIM
  1
1.26
 10
35.125
 20
-2.5
 30
0.0
 11
17.5625
 21
-2.5
 31
0.0
 13
33.86516
 23
0.0
 14
35.125
 24
0.0
 33
0.0
 34
0.0
53
90
  0
DIMENSION
  8
2D_DIM
  2
*D1
  3
HDRILLDIM
  1
1.457
 10
-2.5
 20
1.45669
 30
0.0
 11
-2.5
 21
0.728345
 31
0
 13
0.0
 23
0
 14
0.0
 24
1.45669
 50
90.0
53
0
 33
0.0
 34
0.0
  0
DIMENSION
  8
2D_DIM
  2
*D1
  3
HDRILLDIM
  1
3.433
 10
-2.5
 20
4.8900428571429
 30
0.0
 11
-2.5
 21
2.44502142857145
 31
0
 13
0.0
 23
1.45669
 14
0.0
 24
4.8900428571429
 50
90.0
53
0
 33
0.0
 34
0.0
  0
DIMENSION
  8
2D_DIM
  2
*D1
  3
HDRILLDIM
  1
3.433
 10
-2.5
 20
8.3233957142857
 30
0.0
 11
-2.5
 21
4.16169785714285
 31
0
 13
0.0
 23
4.8900428571429
 14
0.0
 24
8.3233957142857
 50
90.0
53
0
 33
0.0
 34
0.0
  0
DIMENSION
  8
2D_DIM
  2
*D1
  3
HDRILLDIM
  1
3.433
 10
-2.5
 20
11.7567485714286
 30
0.0
 11
-2.5
 21
5.8783742857143
 31
0
 13
0.0
 23
8.3233957142857
 14
0.0
 24
11.7567485714286
 50
90.0
53
0
 33
0.0
 34
0.0
  0
DIMENSION
  8
2D_DIM
  2
*D1
  3
HDRILLDIM
  1
3.433
 10
-2.5
 20
15.1901014285714
 30
0.0
 11
-2.5
 21
7.5950507142857
 31
0
 13
0.0
 23
11.7567485714286
 14
0.0
 24
15.1901014285714
 50
90.0
53
0
 33
0.0
 34
0.0
  0
DIMENSION
  8
2D_DIM
  2
*D1
  3
HDRILLDIM
  1
3.433
 10
-2.5
 20
18.6234542857143
 30
0.0
 11
-2.5
 21
9.31172714285715
 31
0
 13
0.0
 23
15.1901014285714
 14
0.0
 24
18.6234542857143
 50
90.0
53
0
 33
0.0
 34
0.0
  0
DIMENSION
  8
2D_DIM
  2
*D1
  3
HDRILLDIM
  1
3.433
 10
-2.5
 20
22.0568071428571
 30
0.0
 11
-2.5
 21
11.0284035714285
 31
0
 13
0.0
 23
18.6234542857143
 14
0.0
 24
22.0568071428571
 50
90.0
53
0
 33
0.0
 34
0.0
  0
DIMENSION
  8
2D_DIM
  2
*D1
  3
HDRILLDIM
  1
3.433
 10
-2.5
 20
25.49016
 30
0.0
 11
-2.5
 21
12.74508
 31
0
 13
0.0
 23
22.0568071428571
 14
0.0
 24
25.49016
 50
90.0
53
0
 33
0.0
 34
0.0
  0
DIMENSION
  8
2D_DIM
  2
*D1
  3
HDRILLDIM
  1
1.26
 10
-2.5
 20
26.75
 30
0.0
 11
-2.5
 21
13.375
 31
0
 13
0.0
 23
25.49016
 14
0.0
 24
26.75
 50
90.0
53
0
 33
0.0
 34
0.0
  0
DIMENSION
  8
2D_DIM
  2
*D1
  3
HDRILLDIM
  1
1.457
 10
37.625
 20
1.45669
 30
0.0
 11
37.625
 21
0.728345
 31
0
 13
35.125
 23
0
 14
35.125
 24
1.45669
 50
90.0
53
0
 33
0.0
 34
0.0
  0
DIMENSION
  8
2D_DIM
  2
*D1
  3
HDRILLDIM
  1
3.433
 10
37.625
 20
4.8900428571429
 30
0.0
 11
37.625
 21
2.44502142857145
 31
0
 13
35.125
 23
1.45669
 14
35.125
 24
4.8900428571429
 50
90.0
53
0
 33
0.0
 34
0.0
  0
DIMENSION
  8
2D_DIM
  2
*D1
  3
HDRILLDIM
  1
3.433
 10
37.625
 20
8.3233957142857
 30
0.0
 11
37.625
 21
4.16169785714285
 31
0
 13
35.125
 23
4.8900428571429
 14
35.125
 24
8.3233957142857
 50
90.0
53
0
 33
0.0
 34
0.0
  0
DIMENSION
  8
2D_DIM
  2
*D1
  3
HDRILLDIM
  1
3.433
 10
37.625
 20
11.7567485714286
 30
0.0
 11
37.625
 21
5.8783742857143
 31
0
 13
35.125
 23
8.3233957142857
 14
35.125
 24
11.7567485714286
 50
90.0
53
0
 33
0.0
 34
0.0
  0
DIMENSION
  8
2D_DIM
  2
*D1
  3
HDRILLDIM
  1
3.433
 10
37.625
 20
15.1901014285714
 30
0.0
 11
37.625
 21
7.5950507142857
 31
0
 13
35.125
 23
11.7567485714286
 14
35.125
 24
15.1901014285714
 50
90.0
53
0
 33
0.0
 34
0.0
  0
DIMENSION
  8
2D_DIM
  2
*D1
  3
HDRILLDIM
  1
3.433
 10
37.625
 20
18.6234542857143
 30
0.0
 11
37.625
 21
9.31172714285715
 31
0
 13
35.125
 23
15.1901014285714
 14
35.125
 24
18.6234542857143
 50
90.0
53
0
 33
0.0
 34
0.0
  0
DIMENSION
  8
2D_DIM
  2
*D1
  3
HDRILLDIM
  1
3.433
 10
37.625
 20
22.0568071428571
 30
0.0
 11
37.625
 21
11.0284035714285
 31
0
 13
35.125
 23
18.6234542857143
 14
35.125
 24
22.0568071428571
 50
90.0
53
0
 33
0.0
 34
0.0
  0
DIMENSION
  8
2D_DIM
  2
*D1
  3
HDRILLDIM
  1
3.433
 10
37.625
 20
25.49016
 30
0.0
 11
37.625
 21
12.74508
 31
0
 13
35.125
 23
22.0568071428571
 14
35.125
 24
25.49016
 50
90.0
53
0
 33
0.0
 34
0.0
  0
DIMENSION
  8
2D_DIM
  2
*D1
  3
HDRILLDIM
  1
1.26
 10
37.625
 20
26.75
 30
0.0
 11
37.625
 21
13.375
 31
0
 13
35.125
 23
25.49016
 14
35.125
 24
26.75
 50
90.0
53
0
 33
0.0
 34
0.0
  0
TEXT
  8
ITEMNUMBER
 62
     1
 10
-7.5
 20
-5
 30
0.0
 40
0.5
  1
11.02
  0
TEXT
  8
DESCRIPTION
 62
     1
 10
-7.5
 20
-6
 30
0.0
 40
0.5
  1
Upper Open Fixed Shelf
  0
TEXT
  8
FILENAME
 62
     1
 10
-7.5
 20
-7
 30
0.0
 40
0.5
  1
00AA3K01
  0
TEXT
  8
MATERIALNAME
 62
     1
 10
-7.5
 20
-8
 30
0.0
 40
0.5
  1
AB425SEI-PF/11-16MDF/AB425SEI-PF/NAF/4x10
  0
TEXT
  8
BOTTOMEB
 62
     1
 10
-7.5
 20
-9
 30
0.0
 40
0.5
  1
ABS AB425 - .018 x 15/16 - &
  0
TEXT
  8
BOTTOMEBTHICKNESS
 62
     1
 10
-7.5
 20
-10
 30
0.0
 40
0.5
  1
0.018
  0
TEXT
  8
FORTHSYMBOL
 62
     1
 10
17.5625
 20
26.875
 30
0.0
 40
0.5
  1
&
  0
TEXT
  8
Qty
 62
     1
 10
-7.5
 20
-11
 30
0.0
 40
0.5
  1
1
  0
ENDSEC
  0
EOF
