  0
SECTION
  2
TABLES
  0
TABLE
  2
DIMSTYLE
 70
     2
  0
DIMSTYLE
  2
BOARDERDIM
 70
     0
  3

  4

  5
_NONE
  6
_NONE
  7
_NONE
 40
1
 41
0.1
 42
0.0625
 43
0.38
 44
0.18
 45
0.00
 46
0.0
 47
0.0
 48
0.0
140
0.5
141
0.09
142
0.0
143
25.399999999999999
144
1.0
145
0.5
146
1.0
147
0.09
 71
     1
 72
     0
 73
     1
 74
     0
 75
     0
 76
     0
 77
     2
 78
     0
170
     0
171
     2
172
     0
173
     0
174
     1
175
      0
176
5
177
5
178
     1
271
3
272
3
  0
ENDTAB
  0
TABLE
  2
DIMSTYLE
 70
     2
  0
DIMSTYLE
  2
VDRILLDIM
 70
     0
  3

  4

  5
_NONE
  6
_NONE
  7
_NONE
 40
1
 41
0.1
 42
0.0625
 43
0.38
 44
0.18
 45
0.00
 46
0.0
 47
0.0
 48
0.0
140
0.5
141
0.09
142
0.0
143
25.399999999999999
144
1.0
145
0.5
146
1.0
147
0.09
 71
     1
 72
     0
 73
     1
 74
     0
 75
     0
 76
     0
 77
     2
 78
     0
170
     0
171
     2
172
     0
173
     0
174
     1
175
      0
176
5
177
5
178
     1
271
3
272
3
  0
ENDTAB
  0
TABLE
  2
DIMSTYLE
 70
     2
  0
DIMSTYLE
  2
HDRILLDIM
 70
     0
  3

  4

  5
_NONE
  6
_NONE
  7
_NONE
 40
1
 41
0.1
 42
0.0625
 43
0.38
 44
0.18
 45
0.00
 46
0.0
 47
0.0
 48
0.0
140
0.5
141
0.09
142
0.0
143
25.399999999999999
144
1.0
145
0.5
146
1.0
147
0.09
 71
     1
 72
     0
 73
     1
 74
     0
 75
     0
 76
     0
 77
     2
 78
     0
170
     0
171
     2
172
     0
173
     0
174
     1
175
      0
176
5
177
5
178
     1
271
3
272
3
  0
ENDTAB
  0
TABLE
  2
DIMSTYLE
 70
     2
  0
DIMSTYLE
  2
ROUTEDIM
 70
     0
  3

  4

  5
_NONE
  6
_NONE
  7
_NONE
 40
1
 41
0.1
 42
0.0625
 43
0.38
 44
0.18
 45
0.00
 46
0.0
 47
0.0
 48
0.0
140
0.5
141
0.09
142
0.0
143
25.399999999999999
144
1.0
145
0.5
146
1.0
147
0.09
 71
     1
 72
     0
 73
     1
 74
     0
 75
     0
 76
     0
 77
     2
 78
     0
170
     0
171
     2
172
     0
173
     0
174
     1
175
      0
176
5
177
5
178
     1
271
3
272
3
  0
ENDTAB
  0
TABLE
  2
DIMSTYLE
 70
     2
  0
DIMSTYLE
  2
SAWDIM
 70
     0
  3

  4

  5
_NONE
  6
_NONE
  7
_NONE
 40
1
 41
0.1
 42
0.0625
 43
0.38
 44
0.18
 45
0.00
 46
0.0
 47
0.0
 48
0.0
140
0.5
141
0.09
142
0.0
143
25.399999999999999
144
1.0
145
0.5
146
1.0
147
0.09
 71
     1
 72
     0
 73
     1
 74
     0
 75
     0
 76
     0
 77
     2
 78
     0
170
     0
171
     2
172
     0
173
     0
174
     1
175
      0
176
5
177
5
178
     1
271
3
272
3
  0
ENDTAB
  0
TABLE
  2
VPORT
 70
     1
  0
VPORT
  2
*ACTIVE
 70
     0
 10
0.0
 20
0.0
 11
1.0
 21
1.0
 12
0.0
 22
0.0
 13
0.0
 23
0.0
 14
1.0
 24
1.0
 15
0.0
 25
0.0
 16
0.0
 26
0.0
 36
1.0
 17
0.0
 27
0.0
 37
0.0
 40
84
 41
2.0
 42
50.0
 43
0.0
 44
0.0
 50
0.0
 51
0.0
 71
     0
 72
   100
 73
     1
 74
     0
 75
     1
 76
     0
 77
     0
 78
     0
  0
ENDTAB
  0
ENDSEC
  0
SECTION
  2
ENTITIES
  0
POLYLINE
  8
BORDER_Z0P04
 62
     7
 66
     1
 10
0.0
 20
0.0
 30
0.0
 70
     1
  0
VERTEX
  8
BORDER_Z0P04
 62
     7
 10
0.0
 20
0.0
 30
0.0
  0
VERTEX
  8
BORDER_Z0P04
 62
     7
 10
0.0
 20
23.1852
 30
0.0
  0
VERTEX
  8
BORDER_Z0P04
 62
     7
 10
10.0489
 20
23.1852
 30
0.0
  0
VERTEX
  8
BORDER_Z0P04
 62
     7
 10
10.0489
 20
0.0
 30
0.0
  0
SEQEND
  8
BORDER_Z0P04
 62
     7
  0
POLYLINE
  8
ROUTE_Z0P25LT130RAMP
 62
     3
 66
     1
 10
0.0
 20
0.0
 30
0.0
 70
     0
  0
VERTEX
  8
ROUTE_Z0P25LT130RAMP
 62
     3
 10
9.568269
 20
10.529663
 30
0.0
 42
0.414213562373095
  0
VERTEX
  8
ROUTE_Z0P25LT130RAMP
 62
     3
 10
9.193251
 20
10.331264
 30
0.0
 42
-0.171430475879541
  0
VERTEX
  8
ROUTE_Z0P25LT130RAMP
 62
     3
 10
1.527557
 20
-3.30000000019481E-05
 30
0.0
  0
VERTEX
  8
ROUTE_Z0P25LT130RAMP
 62
     3
 10
0
 20
2.589353
 30
0.0
 42
0.342202662470075
  0
VERTEX
  8
ROUTE_Z0P25LT130RAMP
 62
     3
 10
6.048938
 20
21.63958
 30
0.0
  0
VERTEX
  8
ROUTE_Z0P25LT130RAMP
 62
     3
 10
8.668943
 20
23.1852
 30
0.0
 42
-0.171430475879541
  0
VERTEX
  8
ROUTE_Z0P25LT130RAMP
 62
     3
 10
9.193251
 20
10.331264
 30
0.0
  0
SEQEND
  8
ROUTE_Z0P25LT130RAMP
 62
     3
  0
DIMENSION
  8
2D_DIM
  2
*D1
  3
BOARDERDIM
  1
10.049
 10
10.0489
 20
28.1852
 30
0.0
 11
5.02445
 21
28.1852
 31
0.0
 13
0
 23
23.1852
 14
10.0489
 24
23.1852
 33
0.0
 34
0.0
53
0
  0
DIMENSION
  8
2D_DIM
  2
*D1
  3
BOARDERDIM
  1
23.185
 10
-5
 20
23.1852
 30
0.0
 11
-5
 21
11.5926
 31
0
 13
0.0
 23
0
 14
0.0
 24
23.1852
 50
90.0
53
0
 33
0.0
 34
0.0
  0
DIMENSION
  8
2D_DIM
  2
*D1
  3
ROUTEDIM
  1
0
 10
0
 20
25.6852
 30
0.0
 11
0
 21
25.6852
 31
0.0
 13
0
 23
23.1852
 14
0
 24
23.1852
 33
0.0
 34
0.0
53
90
  0
DIMENSION
  8
2D_DIM
  2
*D1
  3
ROUTEDIM
  1
1.528
 10
1.527557
 20
25.6852
 30
0.0
 11
0.7637785
 21
25.6852
 31
0.0
 13
0
 23
23.1852
 14
1.527557
 24
23.1852
 33
0.0
 34
0.0
53
90
  0
DIMENSION
  8
2D_DIM
  2
*D1
  3
ROUTEDIM
  1
4.521
 10
6.048938
 20
25.6852
 30
0.0
 11
3.024469
 21
25.6852
 31
0.0
 13
1.527557
 23
23.1852
 14
6.048938
 24
23.1852
 33
0.0
 34
0.0
53
90
  0
DIMENSION
  8
2D_DIM
  2
*D1
  3
ROUTEDIM
  1
2.62
 10
8.668943
 20
25.6852
 30
0.0
 11
4.3344715
 21
25.6852
 31
0.0
 13
6.048938
 23
23.1852
 14
8.668943
 24
23.1852
 33
0.0
 34
0.0
53
90
  0
DIMENSION
  8
2D_DIM
  2
*D1
  3
ROUTEDIM
  1
0.524
 10
9.193251
 20
25.6852
 30
0.0
 11
4.5966255
 21
25.6852
 31
0.0
 13
8.668943
 23
23.1852
 14
9.193251
 24
23.1852
 33
0.0
 34
0.0
53
90
  0
DIMENSION
  8
2D_DIM
  2
*D1
  3
ROUTEDIM
  1
0.375
 10
9.568269
 20
25.6852
 30
0.0
 11
4.7841345
 21
25.6852
 31
0.0
 13
9.193251
 23
23.1852
 14
9.568269
 24
23.1852
 33
0.0
 34
0.0
53
90
  0
DIMENSION
  8
2D_DIM
  2
*D1
  3
ROUTEDIM
  1
0.481
 10
10.0489
 20
25.6852
 30
0.0
 11
5.02445
 21
25.6852
 31
0.0
 13
9.568269
 23
23.1852
 14
10.0489
 24
23.1852
 33
0.0
 34
0.0
53
90
  0
DIMENSION
  8
2D_DIM
  2
*D1
  3
ROUTEDIM
  1
0
 10
-2.5
 20
-3.30000000019481E-05
 30
0.0
 11
-2.5
 21
-1.6500000000974E-05
 31
0
 13
0.0
 23
0
 14
0.0
 24
-3.30000000019481E-05
 50
90.0
53
0
 33
0.0
 34
0.0
  0
DIMENSION
  8
2D_DIM
  2
*D1
  3
ROUTEDIM
  1
2.589
 10
-2.5
 20
2.589353
 30
0.0
 11
-2.5
 21
1.2946765
 31
0
 13
0.0
 23
-3.30000000019481E-05
 14
0.0
 24
2.589353
 50
90.0
53
0
 33
0.0
 34
0.0
  0
DIMENSION
  8
2D_DIM
  2
*D1
  3
ROUTEDIM
  1
7.742
 10
-2.5
 20
10.331264
 30
0.0
 11
-2.5
 21
5.165632
 31
0
 13
0.0
 23
2.589353
 14
0.0
 24
10.331264
 50
90.0
53
0
 33
0.0
 34
0.0
  0
DIMENSION
  8
2D_DIM
  2
*D1
  3
ROUTEDIM
  1
0.198
 10
-2.5
 20
10.529663
 30
0.0
 11
-2.5
 21
5.2648315
 31
0
 13
0.0
 23
10.331264
 14
0.0
 24
10.529663
 50
90.0
53
0
 33
0.0
 34
0.0
  0
DIMENSION
  8
2D_DIM
  2
*D1
  3
ROUTEDIM
  1
11.11
 10
-2.5
 20
21.63958
 30
0.0
 11
-2.5
 21
10.81979
 31
0
 13
0.0
 23
10.529663
 14
0.0
 24
21.63958
 50
90.0
53
0
 33
0.0
 34
0.0
  0
DIMENSION
  8
2D_DIM
  2
*D1
  3
ROUTEDIM
  1
1.546
 10
-2.5
 20
23.1852
 30
0.0
 11
-2.5
 21
11.5926
 31
0
 13
0.0
 23
21.63958
 14
0.0
 24
23.1852
 50
90.0
53
0
 33
0.0
 34
0.0
  0
DIMENSION
  8
2D_DIM
  2
*D1
  3
ROUTEDIM
  1
0
 10
-2.5
 20
23.1852
 30
0.0
 11
-2.5
 21
11.5926
 31
0
 13
0.0
 23
23.1852
 14
0.0
 24
23.1852
 50
90.0
53
0
 33
0.0
 34
0.0
  0
DIMENSION
  8
2D_DIM
  2
*D1
  3
ROUTEDIM
  1
9.48
 10
9.4799595
 20
10.2429545
 30
0.0
 11
4.73997975
 21
10.2429545
 31
0.0
 13
0
 23
10.2429545
 14
9.4799595
 24
10.2429545
 33
0.0
 34
0.0
53
90
  0
DIMENSION
  8
2D_DIM
  2
*D1
  3
ROUTEDIM
  1
10.243
 10
9.4799595
 20
10.2429545
 30
0.0
 11
9.4799595
 21
5.12147725
 31
0
 13
9.4799595
 23
0
 14
9.4799595
 24
10.2429545
 50
90.0
53
0
 33
0.0
 34
0.0
  0
DIMENSION
  8
2D_DIM
  2
*D1
  3
ROUTEDIM
  1
-9.263
 10
-9.2631286252873
 20
16.0160949997636
 30
0.0
 11
-4.63156431264365
 21
16.0160949997636
 31
0.0
 13
0
 23
16.0160949997636
 14
-9.2631286252873
 24
16.0160949997636
 33
0.0
 34
0.0
53
90
  0
DIMENSION
  8
2D_DIM
  2
*D1
  3
ROUTEDIM
  1
16.016
 10
-9.2631286252873
 20
16.0160949997636
 30
0.0
 11
-9.2631286252873
 21
8.0080474998818
 31
0
 13
-9.2631286252873
 23
0
 14
-9.2631286252873
 24
16.0160949997636
 50
90.0
53
0
 33
0.0
 34
0.0
  0
DIMENSION
  8
2D_DIM
  2
*D1
  3
ROUTEDIM
  1
-9.263
 10
-9.26312878003323
 20
16.0160954485873
 30
0.0
 11
-4.63156439001662
 21
16.0160954485873
 31
0.0
 13
0
 23
16.0160954485873
 14
-9.26312878003323
 24
16.0160954485873
 33
0.0
 34
0.0
53
90
  0
DIMENSION
  8
2D_DIM
  2
*D1
  3
ROUTEDIM
  1
16.016
 10
-9.26312878003323
 20
16.0160954485873
 30
0.0
 11
-9.26312878003323
 21
8.00804772429363
 31
0
 13
-9.26312878003323
 23
0
 14
-9.26312878003323
 24
16.0160954485873
 50
90.0
53
0
 33
0.0
 34
0.0
  0
DIMENSION
  8
2D_DIM
  2
*D1
  3
ROUTEDIM
  1
-9.263
 10
-9.26312899692517
 20
16.0160952534038
 30
0.0
 11
-4.63156449846259
 21
16.0160952534038
 31
0.0
 13
0
 23
16.0160952534038
 14
-9.26312899692517
 24
16.0160952534038
 33
0.0
 34
0.0
53
90
  0
DIMENSION
  8
2D_DIM
  2
*D1
  3
ROUTEDIM
  1
16.016
 10
-9.26312899692517
 20
16.0160952534038
 30
0.0
 11
-9.26312899692517
 21
8.0080476267019
 31
0
 13
-9.26312899692517
 23
0
 14
-9.26312899692517
 24
16.0160952534038
 50
90.0
53
0
 33
0.0
 34
0.0
  0
TEXT
  8
ITEMNUMBER
 62
     1
 10
-7.5
 20
-5
 30
0.0
 40
0.5
  1
T31106.22
  0
TEXT
  8
DESCRIPTION
 62
     1
 10
-7.5
 20
-6
 30
0.0
 40
0.5
  1
P2B
  0
TEXT
  8
FILENAME
 62
     1
 10
-7.5
 20
-7
 30
0.0
 40
0.5
  1
5600AE2E
  0
TEXT
  8
MATERIALNAME
 62
     1
 10
-7.5
 20
-8
 30
0.0
 40
0.5
  1
AB1860SEI-PF/4x10
  0
TEXT
  8
Qty
 62
     1
 10
-7.5
 20
-9
 30
0.0
 40
0.5
  1
1
  0
TEXT
  8
RUNFIELD
 62
     1
 10
8
 20
-1
 30
0.0
 40
0.5
  1
Mirrored
  0
ENDSEC
  0
EOF
