  0
SECTION
  2
TABLES
  0
TABLE
  2
DIMSTYLE
 70
     2
  0
DIMSTYLE
  2
BOARDERDIM
 70
     0
  3

  4

  5
_NONE
  6
_NONE
  7
_NONE
 40
1
 41
0.1
 42
0.0625
 43
0.38
 44
0.18
 45
0.00
 46
0.0
 47
0.0
 48
0.0
140
0.5
141
0.09
142
0.0
143
25.399999999999999
144
1.0
145
0.5
146
1.0
147
0.09
 71
     1
 72
     0
 73
     1
 74
     0
 75
     0
 76
     0
 77
     2
 78
     0
170
     0
171
     2
172
     0
173
     0
174
     1
175
      0
176
5
177
5
178
     1
271
3
272
3
  0
ENDTAB
  0
TABLE
  2
DIMSTYLE
 70
     2
  0
DIMSTYLE
  2
VDRILLDIM
 70
     0
  3

  4

  5
_NONE
  6
_NONE
  7
_NONE
 40
1
 41
0.1
 42
0.0625
 43
0.38
 44
0.18
 45
0.00
 46
0.0
 47
0.0
 48
0.0
140
0.5
141
0.09
142
0.0
143
25.399999999999999
144
1.0
145
0.5
146
1.0
147
0.09
 71
     1
 72
     0
 73
     1
 74
     0
 75
     0
 76
     0
 77
     2
 78
     0
170
     0
171
     2
172
     0
173
     0
174
     1
175
      0
176
5
177
5
178
     1
271
3
272
3
  0
ENDTAB
  0
TABLE
  2
DIMSTYLE
 70
     2
  0
DIMSTYLE
  2
HDRILLDIM
 70
     0
  3

  4

  5
_NONE
  6
_NONE
  7
_NONE
 40
1
 41
0.1
 42
0.0625
 43
0.38
 44
0.18
 45
0.00
 46
0.0
 47
0.0
 48
0.0
140
0.5
141
0.09
142
0.0
143
25.399999999999999
144
1.0
145
0.5
146
1.0
147
0.09
 71
     1
 72
     0
 73
     1
 74
     0
 75
     0
 76
     0
 77
     2
 78
     0
170
     0
171
     2
172
     0
173
     0
174
     1
175
      0
176
5
177
5
178
     1
271
3
272
3
  0
ENDTAB
  0
TABLE
  2
DIMSTYLE
 70
     2
  0
DIMSTYLE
  2
ROUTEDIM
 70
     0
  3

  4

  5
_NONE
  6
_NONE
  7
_NONE
 40
1
 41
0.1
 42
0.0625
 43
0.38
 44
0.18
 45
0.00
 46
0.0
 47
0.0
 48
0.0
140
0.5
141
0.09
142
0.0
143
25.399999999999999
144
1.0
145
0.5
146
1.0
147
0.09
 71
     1
 72
     0
 73
     1
 74
     0
 75
     0
 76
     0
 77
     2
 78
     0
170
     0
171
     2
172
     0
173
     0
174
     1
175
      0
176
5
177
5
178
     1
271
3
272
3
  0
ENDTAB
  0
TABLE
  2
DIMSTYLE
 70
     2
  0
DIMSTYLE
  2
SAWDIM
 70
     0
  3

  4

  5
_NONE
  6
_NONE
  7
_NONE
 40
1
 41
0.1
 42
0.0625
 43
0.38
 44
0.18
 45
0.00
 46
0.0
 47
0.0
 48
0.0
140
0.5
141
0.09
142
0.0
143
25.399999999999999
144
1.0
145
0.5
146
1.0
147
0.09
 71
     1
 72
     0
 73
     1
 74
     0
 75
     0
 76
     0
 77
     2
 78
     0
170
     0
171
     2
172
     0
173
     0
174
     1
175
      0
176
5
177
5
178
     1
271
3
272
3
  0
ENDTAB
  0
TABLE
  2
VPORT
 70
     1
  0
VPORT
  2
*ACTIVE
 70
     0
 10
0.0
 20
0.0
 11
1.0
 21
1.0
 12
0.0
 22
0.0
 13
0.0
 23
0.0
 14
1.0
 24
1.0
 15
0.0
 25
0.0
 16
0.0
 26
0.0
 36
1.0
 17
0.0
 27
0.0
 37
0.0
 40
84
 41
2.0
 42
50.0
 43
0.0
 44
0.0
 50
0.0
 51
0.0
 71
     0
 72
   100
 73
     1
 74
     0
 75
     1
 76
     0
 77
     0
 78
     0
  0
ENDTAB
  0
ENDSEC
  0
SECTION
  2
ENTITIES
  0
POLYLINE
  8
BORDER_Z0P04
 62
     7
 66
     1
 10
0.0
 20
0.0
 30
0.0
 70
     1
  0
VERTEX
  8
BORDER_Z0P04
 62
     7
 10
0.0
 20
0.0
 30
0.0
  0
VERTEX
  8
BORDER_Z0P04
 62
     7
 10
0.0
 20
62.2075
 30
0.0
  0
VERTEX
  8
BORDER_Z0P04
 62
     7
 10
30.1875
 20
62.2075
 30
0.0
  0
VERTEX
  8
BORDER_Z0P04
 62
     7
 10
30.1875
 20
0.0
 30
0.0
  0
SEQEND
  8
BORDER_Z0P04
 62
     7
  0
POLYLINE
  8
ROUTE_Z0P25LT130RAMP
 62
     3
 66
     1
 10
0.0
 20
0.0
 30
0.0
 70
     0
  0
VERTEX
  8
ROUTE_Z0P25LT130RAMP
 62
     3
 10
18.624186
 20
39.422882
 30
0.0
 42
0.414213562373095
  0
VERTEX
  8
ROUTE_Z0P25LT130RAMP
 62
     3
 10
18.505204
 20
39.015641
 30
0.0
 42
-0.0852380668051682
  0
VERTEX
  8
ROUTE_Z0P25LT130RAMP
 62
     3
 10
28.132273
 20
11.00755
 30
0.0
 42
0.383796528313897
  0
VERTEX
  8
ROUTE_Z0P25LT130RAMP
 62
     3
 10
29.799737
 20
1.79067300000001
 30
0.0
 42
-0.715845572189504
  0
VERTEX
  8
ROUTE_Z0P25LT130RAMP
 62
     3
 10
29.185061
 20
8.00000000111822E-06
 30
0.0
  0
VERTEX
  8
ROUTE_Z0P25LT130RAMP
 62
     3
 10
24.900714
 20
0.0104240000000004
 30
0.0
 42
0.415404115207248
  0
VERTEX
  8
ROUTE_Z0P25LT130RAMP
 62
     3
 10
3.304239
 20
19.306339
 30
0.0
 42
0.0315726619721223
  0
VERTEX
  8
ROUTE_Z0P25LT130RAMP
 62
     3
 10
0
 20
26.88128
 30
0.0
  0
VERTEX
  8
ROUTE_Z0P25LT130RAMP
 62
     3
 10
0.085885
 20
62.2075
 30
0.0
 42
-0.0852380668051682
  0
VERTEX
  8
ROUTE_Z0P25LT130RAMP
 62
     3
 10
18.505204
 20
39.015641
 30
0.0
  0
SEQEND
  8
ROUTE_Z0P25LT130RAMP
 62
     3
  0
DIMENSION
  8
2D_DIM
  2
*D1
  3
BOARDERDIM
  1
30.188
 10
30.1875
 20
67.2075
 30
0.0
 11
15.09375
 21
67.2075
 31
0.0
 13
0
 23
62.2075
 14
30.1875
 24
62.2075
 33
0.0
 34
0.0
53
0
  0
DIMENSION
  8
2D_DIM
  2
*D1
  3
BOARDERDIM
  1
62.208
 10
-5
 20
62.2075
 30
0.0
 11
-5
 21
31.10375
 31
0
 13
0.0
 23
0
 14
0.0
 24
62.2075
 50
90.0
53
0
 33
0.0
 34
0.0
  0
DIMENSION
  8
2D_DIM
  2
*D1
  3
ROUTEDIM
  1
0
 10
0
 20
64.7075
 30
0.0
 11
0
 21
64.7075
 31
0.0
 13
0
 23
62.2075
 14
0
 24
62.2075
 33
0.0
 34
0.0
53
90
  0
DIMENSION
  8
2D_DIM
  2
*D1
  3
ROUTEDIM
  1
0.086
 10
0.085885
 20
64.7075
 30
0.0
 11
0.0429425
 21
64.7075
 31
0.0
 13
0
 23
62.2075
 14
0.085885
 24
62.2075
 33
0.0
 34
0.0
53
90
  0
DIMENSION
  8
2D_DIM
  2
*D1
  3
ROUTEDIM
  1
3.218
 10
3.304239
 20
64.7075
 30
0.0
 11
1.6521195
 21
64.7075
 31
0.0
 13
0.085885
 23
62.2075
 14
3.304239
 24
62.2075
 33
0.0
 34
0.0
53
90
  0
DIMENSION
  8
2D_DIM
  2
*D1
  3
ROUTEDIM
  1
15.201
 10
18.505204
 20
64.7075
 30
0.0
 11
9.252602
 21
64.7075
 31
0.0
 13
3.304239
 23
62.2075
 14
18.505204
 24
62.2075
 33
0.0
 34
0.0
53
90
  0
DIMENSION
  8
2D_DIM
  2
*D1
  3
ROUTEDIM
  1
0.119
 10
18.624186
 20
64.7075
 30
0.0
 11
9.312093
 21
64.7075
 31
0.0
 13
18.505204
 23
62.2075
 14
18.624186
 24
62.2075
 33
0.0
 34
0.0
53
90
  0
DIMENSION
  8
2D_DIM
  2
*D1
  3
ROUTEDIM
  1
6.277
 10
24.900714
 20
64.7075
 30
0.0
 11
12.450357
 21
64.7075
 31
0.0
 13
18.624186
 23
62.2075
 14
24.900714
 24
62.2075
 33
0.0
 34
0.0
53
90
  0
DIMENSION
  8
2D_DIM
  2
*D1
  3
ROUTEDIM
  1
3.232
 10
28.132273
 20
64.7075
 30
0.0
 11
14.0661365
 21
64.7075
 31
0.0
 13
24.900714
 23
62.2075
 14
28.132273
 24
62.2075
 33
0.0
 34
0.0
53
90
  0
DIMENSION
  8
2D_DIM
  2
*D1
  3
ROUTEDIM
  1
1.053
 10
29.185061
 20
64.7075
 30
0.0
 11
14.5925305
 21
64.7075
 31
0.0
 13
28.132273
 23
62.2075
 14
29.185061
 24
62.2075
 33
0.0
 34
0.0
53
90
  0
DIMENSION
  8
2D_DIM
  2
*D1
  3
ROUTEDIM
  1
0.615
 10
29.799737
 20
64.7075
 30
0.0
 11
14.8998685
 21
64.7075
 31
0.0
 13
29.185061
 23
62.2075
 14
29.799737
 24
62.2075
 33
0.0
 34
0.0
53
90
  0
DIMENSION
  8
2D_DIM
  2
*D1
  3
ROUTEDIM
  1
0.388
 10
30.1875
 20
64.7075
 30
0.0
 11
15.09375
 21
64.7075
 31
0.0
 13
29.799737
 23
62.2075
 14
30.1875
 24
62.2075
 33
0.0
 34
0.0
53
90
  0
DIMENSION
  8
2D_DIM
  2
*D1
  3
ROUTEDIM
  1
-0
 10
-2.5
 20
8.00000000111822E-06
 30
0.0
 11
-2.5
 21
4.00000000055911E-06
 31
0
 13
0.0
 23
0
 14
0.0
 24
8.00000000111822E-06
 50
90.0
53
0
 33
0.0
 34
0.0
  0
DIMENSION
  8
2D_DIM
  2
*D1
  3
ROUTEDIM
  1
0.01
 10
-2.5
 20
0.0104240000000004
 30
0.0
 11
-2.5
 21
0.0052120000000002
 31
0
 13
0.0
 23
8.00000000111822E-06
 14
0.0
 24
0.0104240000000004
 50
90.0
53
0
 33
0.0
 34
0.0
  0
DIMENSION
  8
2D_DIM
  2
*D1
  3
ROUTEDIM
  1
1.78
 10
-2.5
 20
1.79067300000001
 30
0.0
 11
-2.5
 21
0.895336500000005
 31
0
 13
0.0
 23
0.0104240000000004
 14
0.0
 24
1.79067300000001
 50
90.0
53
0
 33
0.0
 34
0.0
  0
DIMENSION
  8
2D_DIM
  2
*D1
  3
ROUTEDIM
  1
9.217
 10
-2.5
 20
11.00755
 30
0.0
 11
-2.5
 21
5.503775
 31
0
 13
0.0
 23
1.79067300000001
 14
0.0
 24
11.00755
 50
90.0
53
0
 33
0.0
 34
0.0
  0
DIMENSION
  8
2D_DIM
  2
*D1
  3
ROUTEDIM
  1
8.299
 10
-2.5
 20
19.306339
 30
0.0
 11
-2.5
 21
9.6531695
 31
0
 13
0.0
 23
11.00755
 14
0.0
 24
19.306339
 50
90.0
53
0
 33
0.0
 34
0.0
  0
DIMENSION
  8
2D_DIM
  2
*D1
  3
ROUTEDIM
  1
7.575
 10
-2.5
 20
26.88128
 30
0.0
 11
-2.5
 21
13.44064
 31
0
 13
0.0
 23
19.306339
 14
0.0
 24
26.88128
 50
90.0
53
0
 33
0.0
 34
0.0
  0
DIMENSION
  8
2D_DIM
  2
*D1
  3
ROUTEDIM
  1
12.134
 10
-2.5
 20
39.015641
 30
0.0
 11
-2.5
 21
19.5078205
 31
0
 13
0.0
 23
26.88128
 14
0.0
 24
39.015641
 50
90.0
53
0
 33
0.0
 34
0.0
  0
DIMENSION
  8
2D_DIM
  2
*D1
  3
ROUTEDIM
  1
0.407
 10
-2.5
 20
39.422882
 30
0.0
 11
-2.5
 21
19.711441
 31
0
 13
0.0
 23
39.015641
 14
0.0
 24
39.422882
 50
90.0
53
0
 33
0.0
 34
0.0
  0
DIMENSION
  8
2D_DIM
  2
*D1
  3
ROUTEDIM
  1
22.785
 10
-2.5
 20
62.2075
 30
0.0
 11
-2.5
 21
31.10375
 31
0
 13
0.0
 23
39.422882
 14
0.0
 24
62.2075
 50
90.0
53
0
 33
0.0
 34
0.0
  0
DIMENSION
  8
2D_DIM
  2
*D1
  3
ROUTEDIM
  1
0
 10
-2.5
 20
62.2075
 30
0.0
 11
-2.5
 21
31.10375
 31
0
 13
0.0
 23
62.2075
 14
0.0
 24
62.2075
 50
90.0
53
0
 33
0.0
 34
0.0
  0
DIMENSION
  8
2D_DIM
  2
*D1
  3
ROUTEDIM
  1
18.768
 10
18.7683155
 20
39.1597705
 30
0.0
 11
9.38415775
 21
39.1597705
 31
0.0
 13
0
 23
39.1597705
 14
18.7683155
 24
39.1597705
 33
0.0
 34
0.0
53
90
  0
DIMENSION
  8
2D_DIM
  2
*D1
  3
ROUTEDIM
  1
39.16
 10
18.7683155
 20
39.1597705
 30
0.0
 11
18.7683155
 21
19.57988525
 31
0
 13
18.7683155
 23
0
 14
18.7683155
 24
39.1597705
 50
90.0
53
0
 33
0.0
 34
0.0
  0
DIMENSION
  8
2D_DIM
  2
*D1
  3
ROUTEDIM
  1
-58.231
 10
-58.2310856333054
 20
-3.01908263044433
 30
0.0
 11
-29.1155428166527
 21
-3.01908263044433
 31
0.0
 13
0
 23
-3.01908263044433
 14
-58.2310856333054
 24
-3.01908263044433
 33
0.0
 34
0.0
53
90
  0
DIMENSION
  8
2D_DIM
  2
*D1
  3
ROUTEDIM
  1
3.019
 10
-58.2310856333054
 20
-3.01908263044433
 30
0.0
 11
-58.2310856333054
 21
-1.50954131522217
 31
0
 13
-58.2310856333054
 23
0
 14
-58.2310856333054
 24
-3.01908263044433
 50
90.0
53
0
 33
0.0
 34
0.0
  0
DIMENSION
  8
2D_DIM
  2
*D1
  3
ROUTEDIM
  1
34.085
 10
34.0854058482052
 20
7.32528384839433
 30
0.0
 11
17.0427029241026
 21
7.32528384839433
 31
0.0
 13
0
 23
7.32528384839433
 14
34.0854058482052
 24
7.32528384839433
 33
0.0
 34
0.0
53
90
  0
DIMENSION
  8
2D_DIM
  2
*D1
  3
ROUTEDIM
  1
7.325
 10
34.0854058482052
 20
7.32528384839433
 30
0.0
 11
34.0854058482052
 21
3.66264192419716
 31
0
 13
34.0854058482052
 23
0
 14
34.0854058482052
 24
7.32528384839433
 50
90.0
53
0
 33
0.0
 34
0.0
  0
DIMENSION
  8
2D_DIM
  2
*D1
  3
ROUTEDIM
  1
29.187
 10
29.1874918301608
 20
1.00000503497895
 30
0.0
 11
14.5937459150804
 21
1.00000503497895
 31
0.0
 13
0
 23
1.00000503497895
 14
29.1874918301608
 24
1.00000503497895
 33
0.0
 34
0.0
53
90
  0
DIMENSION
  8
2D_DIM
  2
*D1
  3
ROUTEDIM
  1
1
 10
29.1874918301608
 20
1.00000503497895
 30
0.0
 11
29.1874918301608
 21
0.500002517489477
 31
0
 13
29.1874918301608
 23
0
 14
29.1874918301608
 24
1.00000503497895
 50
90.0
53
0
 33
0.0
 34
0.0
  0
DIMENSION
  8
2D_DIM
  2
*D1
  3
ROUTEDIM
  1
4.494
 10
4.49364009702602
 20
-1.09607068098844
 30
0.0
 11
2.24682004851301
 21
-1.09607068098844
 31
0.0
 13
0
 23
-1.09607068098844
 14
4.49364009702602
 24
-1.09607068098844
 33
0.0
 34
0.0
53
90
  0
DIMENSION
  8
2D_DIM
  2
*D1
  3
ROUTEDIM
  1
1.096
 10
4.49364009702602
 20
-1.09607068098844
 30
0.0
 11
4.49364009702602
 21
-0.548035340494218
 31
0
 13
4.49364009702602
 23
0
 14
4.49364009702602
 24
-1.09607068098844
 50
90.0
53
0
 33
0.0
 34
0.0
  0
DIMENSION
  8
2D_DIM
  2
*D1
  3
ROUTEDIM
  1
-58.268
 10
-58.268311470004
 20
-3.04387591667785
 30
0.0
 11
-29.134155735002
 21
-3.04387591667785
 31
0.0
 13
0
 23
-3.04387591667785
 14
-58.268311470004
 24
-3.04387591667785
 33
0.0
 34
0.0
53
90
  0
DIMENSION
  8
2D_DIM
  2
*D1
  3
ROUTEDIM
  1
3.044
 10
-58.268311470004
 20
-3.04387591667785
 30
0.0
 11
-58.268311470004
 21
-1.52193795833893
 31
0
 13
-58.268311470004
 23
0
 14
-58.268311470004
 24
-3.04387591667785
 50
90.0
53
0
 33
0.0
 34
0.0
  0
DIMENSION
  8
2D_DIM
  2
*D1
  3
ROUTEDIM
  1
-58.231
 10
-58.2310863858542
 20
-3.01908305311969
 30
0.0
 11
-29.1155431929271
 21
-3.01908305311969
 31
0.0
 13
0
 23
-3.01908305311969
 14
-58.2310863858542
 24
-3.01908305311969
 33
0.0
 34
0.0
53
90
  0
DIMENSION
  8
2D_DIM
  2
*D1
  3
ROUTEDIM
  1
3.019
 10
-58.2310863858542
 20
-3.01908305311969
 30
0.0
 11
-58.2310863858542
 21
-1.50954152655984
 31
0
 13
-58.2310863858542
 23
0
 14
-58.2310863858542
 24
-3.01908305311969
 50
90.0
53
0
 33
0.0
 34
0.0
  0
TEXT
  8
ITEMNUMBER
 62
     1
 10
-7.5
 20
-5
 30
0.0
 40
0.5
  1
T31106.22
  0
TEXT
  8
DESCRIPTION
 62
     1
 10
-7.5
 20
-6
 30
0.0
 40
0.5
  1
P3B
  0
TEXT
  8
FILENAME
 62
     1
 10
-7.5
 20
-7
 30
0.0
 40
0.5
  1
5600AE3W
  0
TEXT
  8
MATERIALNAME
 62
     1
 10
-7.5
 20
-8
 30
0.0
 40
0.5
  1
AB1860SEI-PF/4x10
  0
TEXT
  8
Qty
 62
     1
 10
-7.5
 20
-9
 30
0.0
 40
0.5
  1
1
  0
TEXT
  8
RUNFIELD
 62
     1
 10
8
 20
-1
 30
0.0
 40
0.5
  1
Mirrored
  0
ENDSEC
  0
EOF
