  0
SECTION
  2
TABLES
  0
TABLE
  2
DIMSTYLE
 70
     2
  0
DIMSTYLE
  2
BOARDERDIM
 70
     0
  3

  4

  5
_NONE
  6
_NONE
  7
_NONE
 40
1
 41
0.1
 42
0.0625
 43
0.38
 44
0.18
 45
0.00
 46
0.0
 47
0.0
 48
0.0
140
0.5
141
0.09
142
0.0
143
25.399999999999999
144
1.0
145
0.5
146
1.0
147
0.09
 71
     1
 72
     0
 73
     1
 74
     0
 75
     0
 76
     0
 77
     2
 78
     0
170
     0
171
     2
172
     0
173
     0
174
     1
175
      0
176
5
177
5
178
     1
271
3
272
3
  0
ENDTAB
  0
TABLE
  2
DIMSTYLE
 70
     2
  0
DIMSTYLE
  2
VDRILLDIM
 70
     0
  3

  4

  5
_NONE
  6
_NONE
  7
_NONE
 40
1
 41
0.1
 42
0.0625
 43
0.38
 44
0.18
 45
0.00
 46
0.0
 47
0.0
 48
0.0
140
0.5
141
0.09
142
0.0
143
25.399999999999999
144
1.0
145
0.5
146
1.0
147
0.09
 71
     1
 72
     0
 73
     1
 74
     0
 75
     0
 76
     0
 77
     2
 78
     0
170
     0
171
     2
172
     0
173
     0
174
     1
175
      0
176
5
177
5
178
     1
271
3
272
3
  0
ENDTAB
  0
TABLE
  2
DIMSTYLE
 70
     2
  0
DIMSTYLE
  2
HDRILLDIM
 70
     0
  3

  4

  5
_NONE
  6
_NONE
  7
_NONE
 40
1
 41
0.1
 42
0.0625
 43
0.38
 44
0.18
 45
0.00
 46
0.0
 47
0.0
 48
0.0
140
0.5
141
0.09
142
0.0
143
25.399999999999999
144
1.0
145
0.5
146
1.0
147
0.09
 71
     1
 72
     0
 73
     1
 74
     0
 75
     0
 76
     0
 77
     2
 78
     0
170
     0
171
     2
172
     0
173
     0
174
     1
175
      0
176
5
177
5
178
     1
271
3
272
3
  0
ENDTAB
  0
TABLE
  2
DIMSTYLE
 70
     2
  0
DIMSTYLE
  2
ROUTEDIM
 70
     0
  3

  4

  5
_NONE
  6
_NONE
  7
_NONE
 40
1
 41
0.1
 42
0.0625
 43
0.38
 44
0.18
 45
0.00
 46
0.0
 47
0.0
 48
0.0
140
0.5
141
0.09
142
0.0
143
25.399999999999999
144
1.0
145
0.5
146
1.0
147
0.09
 71
     1
 72
     0
 73
     1
 74
     0
 75
     0
 76
     0
 77
     2
 78
     0
170
     0
171
     2
172
     0
173
     0
174
     1
175
      0
176
5
177
5
178
     1
271
3
272
3
  0
ENDTAB
  0
TABLE
  2
DIMSTYLE
 70
     2
  0
DIMSTYLE
  2
SAWDIM
 70
     0
  3

  4

  5
_NONE
  6
_NONE
  7
_NONE
 40
1
 41
0.1
 42
0.0625
 43
0.38
 44
0.18
 45
0.00
 46
0.0
 47
0.0
 48
0.0
140
0.5
141
0.09
142
0.0
143
25.399999999999999
144
1.0
145
0.5
146
1.0
147
0.09
 71
     1
 72
     0
 73
     1
 74
     0
 75
     0
 76
     0
 77
     2
 78
     0
170
     0
171
     2
172
     0
173
     0
174
     1
175
      0
176
5
177
5
178
     1
271
3
272
3
  0
ENDTAB
  0
TABLE
  2
VPORT
 70
     1
  0
VPORT
  2
*ACTIVE
 70
     0
 10
0.0
 20
0.0
 11
1.0
 21
1.0
 12
0.0
 22
0.0
 13
0.0
 23
0.0
 14
1.0
 24
1.0
 15
0.0
 25
0.0
 16
0.0
 26
0.0
 36
1.0
 17
0.0
 27
0.0
 37
0.0
 40
84
 41
2.0
 42
50.0
 43
0.0
 44
0.0
 50
0.0
 51
0.0
 71
     0
 72
   100
 73
     1
 74
     0
 75
     1
 76
     0
 77
     0
 78
     0
  0
ENDTAB
  0
ENDSEC
  0
SECTION
  2
ENTITIES
  0
POLYLINE
  8
BORDER_Z0P04
 62
     7
 66
     1
 10
0.0
 20
0.0
 30
0.0
 70
     1
  0
VERTEX
  8
BORDER_Z0P04
 62
     7
 10
0.0
 20
0.0
 30
0.0
  0
VERTEX
  8
BORDER_Z0P04
 62
     7
 10
0.0
 20
47.9692
 30
0.0
  0
VERTEX
  8
BORDER_Z0P04
 62
     7
 10
5.3718
 20
47.9692
 30
0.0
  0
VERTEX
  8
BORDER_Z0P04
 62
     7
 10
5.3718
 20
0.0
 30
0.0
  0
SEQEND
  8
BORDER_Z0P04
 62
     7
  0
POLYLINE
  8
ROUTE_Z0P25LT130RAMP
 62
     3
 66
     1
 10
0.0
 20
0.0
 30
0.0
 70
     0
  0
VERTEX
  8
ROUTE_Z0P25LT130RAMP
 62
     3
 10
2.87447
 20
23.769084
 30
0.0
 42
0.414213562373095
  0
VERTEX
  8
ROUTE_Z0P25LT130RAMP
 62
     3
 10
3.158215
 20
24.084506
 30
0.0
 42
0.0393463315502644
  0
VERTEX
  8
ROUTE_Z0P25LT130RAMP
 62
     3
 10
0
 20
47.9692
 30
0.0
  0
VERTEX
  8
ROUTE_Z0P25LT130RAMP
 62
     3
 10
2.262061
 20
46.916499
 30
0.0
 42
-0.0674312718710273
  0
VERTEX
  8
ROUTE_Z0P25LT130RAMP
 62
     3
 10
5.003819
 20
5.303383
 30
0.0
  0
VERTEX
  8
ROUTE_Z0P25LT130RAMP
 62
     3
 10
2.535749
 20
-4.20000000005416E-05
 30
0.0
 42
0.0393463315502644
  0
VERTEX
  8
ROUTE_Z0P25LT130RAMP
 62
     3
 10
3.158215
 20
24.084506
 30
0.0
  0
SEQEND
  8
ROUTE_Z0P25LT130RAMP
 62
     3
  0
DIMENSION
  8
2D_DIM
  2
*D1
  3
BOARDERDIM
  1
5.372
 10
5.3718
 20
52.9692
 30
0.0
 11
2.6859
 21
52.9692
 31
0.0
 13
0
 23
47.9692
 14
5.3718
 24
47.9692
 33
0.0
 34
0.0
53
0
  0
DIMENSION
  8
2D_DIM
  2
*D1
  3
BOARDERDIM
  1
47.969
 10
-5
 20
47.9692
 30
0.0
 11
-5
 21
23.9846
 31
0
 13
0.0
 23
0
 14
0.0
 24
47.9692
 50
90.0
53
0
 33
0.0
 34
0.0
  0
DIMENSION
  8
2D_DIM
  2
*D1
  3
ROUTEDIM
  1
0
 10
0
 20
50.4692
 30
0.0
 11
0
 21
50.4692
 31
0.0
 13
0
 23
47.9692
 14
0
 24
47.9692
 33
0.0
 34
0.0
53
90
  0
DIMENSION
  8
2D_DIM
  2
*D1
  3
ROUTEDIM
  1
2.262
 10
2.262061
 20
50.4692
 30
0.0
 11
1.1310305
 21
50.4692
 31
0.0
 13
0
 23
47.9692
 14
2.262061
 24
47.9692
 33
0.0
 34
0.0
53
90
  0
DIMENSION
  8
2D_DIM
  2
*D1
  3
ROUTEDIM
  1
0.274
 10
2.535749
 20
50.4692
 30
0.0
 11
1.2678745
 21
50.4692
 31
0.0
 13
2.262061
 23
47.9692
 14
2.535749
 24
47.9692
 33
0.0
 34
0.0
53
90
  0
DIMENSION
  8
2D_DIM
  2
*D1
  3
ROUTEDIM
  1
0.339
 10
2.87447
 20
50.4692
 30
0.0
 11
1.437235
 21
50.4692
 31
0.0
 13
2.535749
 23
47.9692
 14
2.87447
 24
47.9692
 33
0.0
 34
0.0
53
90
  0
DIMENSION
  8
2D_DIM
  2
*D1
  3
ROUTEDIM
  1
0.284
 10
3.158215
 20
50.4692
 30
0.0
 11
1.5791075
 21
50.4692
 31
0.0
 13
2.87447
 23
47.9692
 14
3.158215
 24
47.9692
 33
0.0
 34
0.0
53
90
  0
DIMENSION
  8
2D_DIM
  2
*D1
  3
ROUTEDIM
  1
1.846
 10
5.003819
 20
50.4692
 30
0.0
 11
2.5019095
 21
50.4692
 31
0.0
 13
3.158215
 23
47.9692
 14
5.003819
 24
47.9692
 33
0.0
 34
0.0
53
90
  0
DIMENSION
  8
2D_DIM
  2
*D1
  3
ROUTEDIM
  1
0.368
 10
5.3718
 20
50.4692
 30
0.0
 11
2.6859
 21
50.4692
 31
0.0
 13
5.003819
 23
47.9692
 14
5.3718
 24
47.9692
 33
0.0
 34
0.0
53
90
  0
DIMENSION
  8
2D_DIM
  2
*D1
  3
ROUTEDIM
  1
0
 10
-2.5
 20
-4.20000000005416E-05
 30
0.0
 11
-2.5
 21
-2.10000000002708E-05
 31
0
 13
0.0
 23
0
 14
0.0
 24
-4.20000000005416E-05
 50
90.0
53
0
 33
0.0
 34
0.0
  0
DIMENSION
  8
2D_DIM
  2
*D1
  3
ROUTEDIM
  1
5.303
 10
-2.5
 20
5.303383
 30
0.0
 11
-2.5
 21
2.6516915
 31
0
 13
0.0
 23
-4.20000000005416E-05
 14
0.0
 24
5.303383
 50
90.0
53
0
 33
0.0
 34
0.0
  0
DIMENSION
  8
2D_DIM
  2
*D1
  3
ROUTEDIM
  1
18.466
 10
-2.5
 20
23.769084
 30
0.0
 11
-2.5
 21
11.884542
 31
0
 13
0.0
 23
5.303383
 14
0.0
 24
23.769084
 50
90.0
53
0
 33
0.0
 34
0.0
  0
DIMENSION
  8
2D_DIM
  2
*D1
  3
ROUTEDIM
  1
0.315
 10
-2.5
 20
24.084506
 30
0.0
 11
-2.5
 21
12.042253
 31
0
 13
0.0
 23
23.769084
 14
0.0
 24
24.084506
 50
90.0
53
0
 33
0.0
 34
0.0
  0
DIMENSION
  8
2D_DIM
  2
*D1
  3
ROUTEDIM
  1
22.832
 10
-2.5
 20
46.916499
 30
0.0
 11
-2.5
 21
23.4582495
 31
0
 13
0.0
 23
24.084506
 14
0.0
 24
46.916499
 50
90.0
53
0
 33
0.0
 34
0.0
  0
DIMENSION
  8
2D_DIM
  2
*D1
  3
ROUTEDIM
  1
1.053
 10
-2.5
 20
47.9692
 30
0.0
 11
-2.5
 21
23.9846
 31
0
 13
0.0
 23
46.916499
 14
0.0
 24
47.9692
 50
90.0
53
0
 33
0.0
 34
0.0
  0
DIMENSION
  8
2D_DIM
  2
*D1
  3
ROUTEDIM
  1
0
 10
-2.5
 20
47.9692
 30
0.0
 11
-2.5
 21
23.9846
 31
0
 13
0.0
 23
47.9692
 14
0.0
 24
47.9692
 50
90.0
53
0
 33
0.0
 34
0.0
  0
DIMENSION
  8
2D_DIM
  2
*D1
  3
ROUTEDIM
  1
2.859
 10
2.8586315
 20
24.0686675
 30
0.0
 11
1.42931575
 21
24.0686675
 31
0.0
 13
0
 23
24.0686675
 14
2.8586315
 24
24.0686675
 33
0.0
 34
0.0
53
90
  0
DIMENSION
  8
2D_DIM
  2
*D1
  3
ROUTEDIM
  1
24.069
 10
2.8586315
 20
24.0686675
 30
0.0
 11
2.8586315
 21
12.03433375
 31
0
 13
2.8586315
 23
0
 14
2.8586315
 24
24.0686675
 50
90.0
53
0
 33
0.0
 34
0.0
  0
DIMENSION
  8
2D_DIM
  2
*D1
  3
ROUTEDIM
  1
-149.945
 10
-149.945293620448
 20
15.9911499474671
 30
0.0
 11
-74.9726468102238
 21
15.9911499474671
 31
0.0
 13
0
 23
15.9911499474671
 14
-149.945293620448
 24
15.9911499474671
 33
0.0
 34
0.0
53
90
  0
DIMENSION
  8
2D_DIM
  2
*D1
  3
ROUTEDIM
  1
15.991
 10
-149.945293620448
 20
15.9911499474671
 30
0.0
 11
-149.945293620448
 21
7.99557497373353
 31
0
 13
-149.945293620448
 23
0
 14
-149.945293620448
 24
15.9911499474671
 50
90.0
53
0
 33
0.0
 34
0.0
  0
DIMENSION
  8
2D_DIM
  2
*D1
  3
ROUTEDIM
  1
-149.945
 10
-149.9452922991
 20
15.9911518415069
 30
0.0
 11
-74.9726461495499
 21
15.9911518415069
 31
0.0
 13
0
 23
15.9911518415069
 14
-149.9452922991
 24
15.9911518415069
 33
0.0
 34
0.0
53
90
  0
DIMENSION
  8
2D_DIM
  2
*D1
  3
ROUTEDIM
  1
15.991
 10
-149.9452922991
 20
15.9911518415069
 30
0.0
 11
-149.9452922991
 21
7.99557592075346
 31
0
 13
-149.9452922991
 23
0
 14
-149.9452922991
 24
15.9911518415069
 50
90.0
53
0
 33
0.0
 34
0.0
  0
DIMENSION
  8
2D_DIM
  2
*D1
  3
ROUTEDIM
  1
-149.945
 10
-149.945292079654
 20
15.9911537600125
 30
0.0
 11
-74.9726460398272
 21
15.9911537600125
 31
0.0
 13
0
 23
15.9911537600125
 14
-149.945292079654
 24
15.9911537600125
 33
0.0
 34
0.0
53
90
  0
DIMENSION
  8
2D_DIM
  2
*D1
  3
ROUTEDIM
  1
15.991
 10
-149.945292079654
 20
15.9911537600125
 30
0.0
 11
-149.945292079654
 21
7.99557688000627
 31
0
 13
-149.945292079654
 23
0
 14
-149.945292079654
 24
15.9911537600125
 50
90.0
53
0
 33
0.0
 34
0.0
  0
TEXT
  8
ITEMNUMBER
 62
     1
 10
-7.5
 20
-5
 30
0.0
 40
0.5
  1
T31106.24
  0
TEXT
  8
DESCRIPTION
 62
     1
 10
-7.5
 20
-6
 30
0.0
 40
0.5
  1
P4B
  0
TEXT
  8
FILENAME
 62
     1
 10
-7.5
 20
-7
 30
0.0
 40
0.5
  1
5600AE7K
  0
TEXT
  8
MATERIALNAME
 62
     1
 10
-7.5
 20
-8
 30
0.0
 40
0.5
  1
AB1826SEI-PF/4x10
  0
TEXT
  8
Qty
 62
     1
 10
-7.5
 20
-9
 30
0.0
 40
0.5
  1
1
  0
TEXT
  8
RUNFIELD
 62
     1
 10
8
 20
-1
 30
0.0
 40
0.5
  1
Mirrored
  0
ENDSEC
  0
EOF
