  0
SECTION
  2
TABLES
  0
TABLE
  2
DIMSTYLE
 70
     2
  0
DIMSTYLE
  2
BOARDERDIM
 70
     0
  3

  4

  5
_NONE
  6
_NONE
  7
_NONE
 40
1
 41
0.1
 42
0.0625
 43
0.38
 44
0.18
 45
0.00
 46
0.0
 47
0.0
 48
0.0
140
0.5
141
0.09
142
0.0
143
25.399999999999999
144
1.0
145
0.5
146
1.0
147
0.09
 71
     1
 72
     0
 73
     1
 74
     0
 75
     0
 76
     0
 77
     2
 78
     0
170
     0
171
     2
172
     0
173
     0
174
     1
175
      0
176
5
177
5
178
     1
271
3
272
3
  0
ENDTAB
  0
TABLE
  2
DIMSTYLE
 70
     2
  0
DIMSTYLE
  2
VDRILLDIM
 70
     0
  3

  4

  5
_NONE
  6
_NONE
  7
_NONE
 40
1
 41
0.1
 42
0.0625
 43
0.38
 44
0.18
 45
0.00
 46
0.0
 47
0.0
 48
0.0
140
0.5
141
0.09
142
0.0
143
25.399999999999999
144
1.0
145
0.5
146
1.0
147
0.09
 71
     1
 72
     0
 73
     1
 74
     0
 75
     0
 76
     0
 77
     2
 78
     0
170
     0
171
     2
172
     0
173
     0
174
     1
175
      0
176
5
177
5
178
     1
271
3
272
3
  0
ENDTAB
  0
TABLE
  2
DIMSTYLE
 70
     2
  0
DIMSTYLE
  2
HDRILLDIM
 70
     0
  3

  4

  5
_NONE
  6
_NONE
  7
_NONE
 40
1
 41
0.1
 42
0.0625
 43
0.38
 44
0.18
 45
0.00
 46
0.0
 47
0.0
 48
0.0
140
0.5
141
0.09
142
0.0
143
25.399999999999999
144
1.0
145
0.5
146
1.0
147
0.09
 71
     1
 72
     0
 73
     1
 74
     0
 75
     0
 76
     0
 77
     2
 78
     0
170
     0
171
     2
172
     0
173
     0
174
     1
175
      0
176
5
177
5
178
     1
271
3
272
3
  0
ENDTAB
  0
TABLE
  2
DIMSTYLE
 70
     2
  0
DIMSTYLE
  2
ROUTEDIM
 70
     0
  3

  4

  5
_NONE
  6
_NONE
  7
_NONE
 40
1
 41
0.1
 42
0.0625
 43
0.38
 44
0.18
 45
0.00
 46
0.0
 47
0.0
 48
0.0
140
0.5
141
0.09
142
0.0
143
25.399999999999999
144
1.0
145
0.5
146
1.0
147
0.09
 71
     1
 72
     0
 73
     1
 74
     0
 75
     0
 76
     0
 77
     2
 78
     0
170
     0
171
     2
172
     0
173
     0
174
     1
175
      0
176
5
177
5
178
     1
271
3
272
3
  0
ENDTAB
  0
TABLE
  2
DIMSTYLE
 70
     2
  0
DIMSTYLE
  2
SAWDIM
 70
     0
  3

  4

  5
_NONE
  6
_NONE
  7
_NONE
 40
1
 41
0.1
 42
0.0625
 43
0.38
 44
0.18
 45
0.00
 46
0.0
 47
0.0
 48
0.0
140
0.5
141
0.09
142
0.0
143
25.399999999999999
144
1.0
145
0.5
146
1.0
147
0.09
 71
     1
 72
     0
 73
     1
 74
     0
 75
     0
 76
     0
 77
     2
 78
     0
170
     0
171
     2
172
     0
173
     0
174
     1
175
      0
176
5
177
5
178
     1
271
3
272
3
  0
ENDTAB
  0
TABLE
  2
VPORT
 70
     1
  0
VPORT
  2
*ACTIVE
 70
     0
 10
0.0
 20
0.0
 11
1.0
 21
1.0
 12
0.0
 22
0.0
 13
0.0
 23
0.0
 14
1.0
 24
1.0
 15
0.0
 25
0.0
 16
0.0
 26
0.0
 36
1.0
 17
0.0
 27
0.0
 37
0.0
 40
84
 41
2.0
 42
50.0
 43
0.0
 44
0.0
 50
0.0
 51
0.0
 71
     0
 72
   100
 73
     1
 74
     0
 75
     1
 76
     0
 77
     0
 78
     0
  0
ENDTAB
  0
ENDSEC
  0
SECTION
  2
ENTITIES
  0
POLYLINE
  8
BORDER_Z0P04
 62
     7
 66
     1
 10
0.0
 20
0.0
 30
0.0
 70
     1
  0
VERTEX
  8
BORDER_Z0P04
 62
     7
 10
0.0
 20
0.0
 30
0.0
  0
VERTEX
  8
BORDER_Z0P04
 62
     7
 10
0.0
 20
78.3161
 30
0.0
  0
VERTEX
  8
BORDER_Z0P04
 62
     7
 10
38.2863
 20
78.3161
 30
0.0
  0
VERTEX
  8
BORDER_Z0P04
 62
     7
 10
38.2863
 20
0.0
 30
0.0
  0
SEQEND
  8
BORDER_Z0P04
 62
     7
  0
POLYLINE
  8
ROUTE_Z0P25LT130RAMP
 62
     3
 66
     1
 10
0.0
 20
0.0
 30
0.0
 70
     0
  0
VERTEX
  8
ROUTE_Z0P25LT130RAMP
 62
     3
 10
23.430707
 20
32.651587
 30
0.0
 42
0.414213562373095
  0
VERTEX
  8
ROUTE_Z0P25LT130RAMP
 62
     3
 10
23.068385
 20
32.430849
 30
0.0
 42
0.125740997727379
  0
VERTEX
  8
ROUTE_Z0P25LT130RAMP
 62
     3
 10
23.455719
 20
4.40000000025975E-05
 30
0.0
  0
VERTEX
  8
ROUTE_Z0P25LT130RAMP
 62
     3
 10
0
 20
28.902468
 30
0.0
 42
-0.161428390151948
  0
VERTEX
  8
ROUTE_Z0P25LT130RAMP
 62
     3
 10
24.291977
 20
78.3161
 30
0.0
  0
VERTEX
  8
ROUTE_Z0P25LT130RAMP
 62
     3
 10
38.286309
 20
61.072112
 30
0.0
 42
0.125740997727379
  0
VERTEX
  8
ROUTE_Z0P25LT130RAMP
 62
     3
 10
23.068385
 20
32.430849
 30
0.0
  0
SEQEND
  8
ROUTE_Z0P25LT130RAMP
 62
     3
  0
DIMENSION
  8
2D_DIM
  2
*D1
  3
BOARDERDIM
  1
38.286
 10
38.2863
 20
83.3161
 30
0.0
 11
19.14315
 21
83.3161
 31
0.0
 13
0
 23
78.3161
 14
38.2863
 24
78.3161
 33
0.0
 34
0.0
53
0
  0
DIMENSION
  8
2D_DIM
  2
*D1
  3
BOARDERDIM
  1
78.316
 10
-5
 20
78.3161
 30
0.0
 11
-5
 21
39.15805
 31
0
 13
0.0
 23
0
 14
0.0
 24
78.3161
 50
90.0
53
0
 33
0.0
 34
0.0
  0
DIMENSION
  8
2D_DIM
  2
*D1
  3
ROUTEDIM
  1
0
 10
0
 20
80.8161
 30
0.0
 11
0
 21
80.8161
 31
0.0
 13
0
 23
78.3161
 14
0
 24
78.3161
 33
0.0
 34
0.0
53
90
  0
DIMENSION
  8
2D_DIM
  2
*D1
  3
ROUTEDIM
  1
23.068
 10
23.068385
 20
80.8161
 30
0.0
 11
11.5341925
 21
80.8161
 31
0.0
 13
0
 23
78.3161
 14
23.068385
 24
78.3161
 33
0.0
 34
0.0
53
90
  0
DIMENSION
  8
2D_DIM
  2
*D1
  3
ROUTEDIM
  1
0.362
 10
23.430707
 20
80.8161
 30
0.0
 11
11.7153535
 21
80.8161
 31
0.0
 13
23.068385
 23
78.3161
 14
23.430707
 24
78.3161
 33
0.0
 34
0.0
53
90
  0
DIMENSION
  8
2D_DIM
  2
*D1
  3
ROUTEDIM
  1
0.025
 10
23.455719
 20
80.8161
 30
0.0
 11
11.7278595
 21
80.8161
 31
0.0
 13
23.430707
 23
78.3161
 14
23.455719
 24
78.3161
 33
0.0
 34
0.0
53
90
  0
DIMENSION
  8
2D_DIM
  2
*D1
  3
ROUTEDIM
  1
0.836
 10
24.291977
 20
80.8161
 30
0.0
 11
12.1459885
 21
80.8161
 31
0.0
 13
23.455719
 23
78.3161
 14
24.291977
 24
78.3161
 33
0.0
 34
0.0
53
90
  0
DIMENSION
  8
2D_DIM
  2
*D1
  3
ROUTEDIM
  1
13.994
 10
38.286309
 20
80.8161
 30
0.0
 11
19.1431545
 21
80.8161
 31
0.0
 13
24.291977
 23
78.3161
 14
38.286309
 24
78.3161
 33
0.0
 34
0.0
53
90
  0
DIMENSION
  8
2D_DIM
  2
*D1
  3
ROUTEDIM
  1
-0
 10
38.2863
 20
80.8161
 30
0.0
 11
19.14315
 21
80.8161
 31
0.0
 13
38.286309
 23
78.3161
 14
38.2863
 24
78.3161
 33
0.0
 34
0.0
53
90
  0
DIMENSION
  8
2D_DIM
  2
*D1
  3
ROUTEDIM
  1
-0
 10
-2.5
 20
4.40000000025975E-05
 30
0.0
 11
-2.5
 21
2.20000000012988E-05
 31
0
 13
0.0
 23
0
 14
0.0
 24
4.40000000025975E-05
 50
90.0
53
0
 33
0.0
 34
0.0
  0
DIMENSION
  8
2D_DIM
  2
*D1
  3
ROUTEDIM
  1
28.902
 10
-2.5
 20
28.902468
 30
0.0
 11
-2.5
 21
14.451234
 31
0
 13
0.0
 23
4.40000000025975E-05
 14
0.0
 24
28.902468
 50
90.0
53
0
 33
0.0
 34
0.0
  0
DIMENSION
  8
2D_DIM
  2
*D1
  3
ROUTEDIM
  1
3.528
 10
-2.5
 20
32.430849
 30
0.0
 11
-2.5
 21
16.2154245
 31
0
 13
0.0
 23
28.902468
 14
0.0
 24
32.430849
 50
90.0
53
0
 33
0.0
 34
0.0
  0
DIMENSION
  8
2D_DIM
  2
*D1
  3
ROUTEDIM
  1
0.221
 10
-2.5
 20
32.651587
 30
0.0
 11
-2.5
 21
16.3257935
 31
0
 13
0.0
 23
32.430849
 14
0.0
 24
32.651587
 50
90.0
53
0
 33
0.0
 34
0.0
  0
DIMENSION
  8
2D_DIM
  2
*D1
  3
ROUTEDIM
  1
28.421
 10
-2.5
 20
61.072112
 30
0.0
 11
-2.5
 21
30.536056
 31
0
 13
0.0
 23
32.651587
 14
0.0
 24
61.072112
 50
90.0
53
0
 33
0.0
 34
0.0
  0
DIMENSION
  8
2D_DIM
  2
*D1
  3
ROUTEDIM
  1
17.244
 10
-2.5
 20
78.3161
 30
0.0
 11
-2.5
 21
39.15805
 31
0
 13
0.0
 23
61.072112
 14
0.0
 24
78.3161
 50
90.0
53
0
 33
0.0
 34
0.0
  0
DIMENSION
  8
2D_DIM
  2
*D1
  3
ROUTEDIM
  1
0
 10
-2.5
 20
78.3161
 30
0.0
 11
-2.5
 21
39.15805
 31
0
 13
0.0
 23
78.3161
 14
0.0
 24
78.3161
 50
90.0
53
0
 33
0.0
 34
0.0
  0
DIMENSION
  8
2D_DIM
  2
*D1
  3
ROUTEDIM
  1
23.36
 10
23.359915
 20
32.360057
 30
0.0
 11
11.6799575
 21
32.360057
 31
0.0
 13
0
 23
32.360057
 14
23.359915
 24
32.360057
 33
0.0
 34
0.0
53
90
  0
DIMENSION
  8
2D_DIM
  2
*D1
  3
ROUTEDIM
  1
32.36
 10
23.359915
 20
32.360057
 30
0.0
 11
23.359915
 21
16.1800285
 31
0
 13
23.359915
 23
0
 14
23.359915
 24
32.360057
 50
90.0
53
0
 33
0.0
 34
0.0
  0
DIMENSION
  8
2D_DIM
  2
*D1
  3
ROUTEDIM
  1
86.722
 10
86.7219589784838
 20
16.9733734034365
 30
0.0
 11
43.3609794892419
 21
16.9733734034365
 31
0.0
 13
0
 23
16.9733734034365
 14
86.7219589784838
 24
16.9733734034365
 33
0.0
 34
0.0
53
90
  0
DIMENSION
  8
2D_DIM
  2
*D1
  3
ROUTEDIM
  1
16.973
 10
86.7219589784838
 20
16.9733734034365
 30
0.0
 11
86.7219589784838
 21
8.48668670171826
 31
0
 13
86.7219589784838
 23
0
 14
86.7219589784838
 24
16.9733734034365
 50
90.0
53
0
 33
0.0
 34
0.0
  0
DIMENSION
  8
2D_DIM
  2
*D1
  3
ROUTEDIM
  1
86.677
 10
86.6774199514972
 20
16.9692770764683
 30
0.0
 11
43.3387099757486
 21
16.9692770764683
 31
0.0
 13
0
 23
16.9692770764683
 14
86.6774199514972
 24
16.9692770764683
 33
0.0
 34
0.0
53
90
  0
DIMENSION
  8
2D_DIM
  2
*D1
  3
ROUTEDIM
  1
16.969
 10
86.6774199514972
 20
16.9692770764683
 30
0.0
 11
86.6774199514972
 21
8.48463853823415
 31
0
 13
86.6774199514972
 23
0
 14
86.6774199514972
 24
16.9692770764683
 50
90.0
53
0
 33
0.0
 34
0.0
  0
DIMENSION
  8
2D_DIM
  2
*D1
  3
ROUTEDIM
  1
86.722
 10
86.7219590818243
 20
16.9733716480725
 30
0.0
 11
43.3609795409122
 21
16.9733716480725
 31
0.0
 13
0
 23
16.9733716480725
 14
86.7219590818243
 24
16.9733716480725
 33
0.0
 34
0.0
53
90
  0
DIMENSION
  8
2D_DIM
  2
*D1
  3
ROUTEDIM
  1
16.973
 10
86.7219590818243
 20
16.9733716480725
 30
0.0
 11
86.7219590818243
 21
8.48668582403623
 31
0
 13
86.7219590818243
 23
0
 14
86.7219590818243
 24
16.9733716480725
 50
90.0
53
0
 33
0.0
 34
0.0
  0
TEXT
  8
ITEMNUMBER
 62
     1
 10
-7.5
 20
-5
 30
0.0
 40
0.5
  1
T31106.22
  0
TEXT
  8
DESCRIPTION
 62
     1
 10
-7.5
 20
-6
 30
0.0
 40
0.5
  1
P2B
  0
TEXT
  8
FILENAME
 62
     1
 10
-7.5
 20
-7
 30
0.0
 40
0.5
  1
5600AE22
  0
TEXT
  8
MATERIALNAME
 62
     1
 10
-7.5
 20
-8
 30
0.0
 40
0.5
  1
AB1860SEI-PF/4x10
  0
TEXT
  8
Qty
 62
     1
 10
-7.5
 20
-9
 30
0.0
 40
0.5
  1
1
  0
TEXT
  8
RUNFIELD
 62
     1
 10
8
 20
-1
 30
0.0
 40
0.5
  1
Mirrored
  0
ENDSEC
  0
EOF
