  0
SECTION
  2
TABLES
  0
TABLE
  2
DIMSTYLE
 70
     2
  0
DIMSTYLE
  2
BOARDERDIM
 70
     0
  3

  4

  5
_NONE
  6
_NONE
  7
_NONE
 40
1
 41
0.1
 42
0.0625
 43
0.38
 44
0.18
 45
0.00
 46
0.0
 47
0.0
 48
0.0
140
0.5
141
0.09
142
0.0
143
25.399999999999999
144
1.0
145
0.5
146
1.0
147
0.09
 71
     1
 72
     0
 73
     1
 74
     0
 75
     0
 76
     0
 77
     2
 78
     0
170
     0
171
     2
172
     0
173
     0
174
     1
175
      0
176
5
177
5
178
     1
271
3
272
3
  0
ENDTAB
  0
TABLE
  2
DIMSTYLE
 70
     2
  0
DIMSTYLE
  2
VDRILLDIM
 70
     0
  3

  4

  5
_NONE
  6
_NONE
  7
_NONE
 40
1
 41
0.1
 42
0.0625
 43
0.38
 44
0.18
 45
0.00
 46
0.0
 47
0.0
 48
0.0
140
0.5
141
0.09
142
0.0
143
25.399999999999999
144
1.0
145
0.5
146
1.0
147
0.09
 71
     1
 72
     0
 73
     1
 74
     0
 75
     0
 76
     0
 77
     2
 78
     0
170
     0
171
     2
172
     0
173
     0
174
     1
175
      0
176
5
177
5
178
     1
271
3
272
3
  0
ENDTAB
  0
TABLE
  2
DIMSTYLE
 70
     2
  0
DIMSTYLE
  2
HDRILLDIM
 70
     0
  3

  4

  5
_NONE
  6
_NONE
  7
_NONE
 40
1
 41
0.1
 42
0.0625
 43
0.38
 44
0.18
 45
0.00
 46
0.0
 47
0.0
 48
0.0
140
0.5
141
0.09
142
0.0
143
25.399999999999999
144
1.0
145
0.5
146
1.0
147
0.09
 71
     1
 72
     0
 73
     1
 74
     0
 75
     0
 76
     0
 77
     2
 78
     0
170
     0
171
     2
172
     0
173
     0
174
     1
175
      0
176
5
177
5
178
     1
271
3
272
3
  0
ENDTAB
  0
TABLE
  2
DIMSTYLE
 70
     2
  0
DIMSTYLE
  2
ROUTEDIM
 70
     0
  3

  4

  5
_NONE
  6
_NONE
  7
_NONE
 40
1
 41
0.1
 42
0.0625
 43
0.38
 44
0.18
 45
0.00
 46
0.0
 47
0.0
 48
0.0
140
0.5
141
0.09
142
0.0
143
25.399999999999999
144
1.0
145
0.5
146
1.0
147
0.09
 71
     1
 72
     0
 73
     1
 74
     0
 75
     0
 76
     0
 77
     2
 78
     0
170
     0
171
     2
172
     0
173
     0
174
     1
175
      0
176
5
177
5
178
     1
271
3
272
3
  0
ENDTAB
  0
TABLE
  2
DIMSTYLE
 70
     2
  0
DIMSTYLE
  2
SAWDIM
 70
     0
  3

  4

  5
_NONE
  6
_NONE
  7
_NONE
 40
1
 41
0.1
 42
0.0625
 43
0.38
 44
0.18
 45
0.00
 46
0.0
 47
0.0
 48
0.0
140
0.5
141
0.09
142
0.0
143
25.399999999999999
144
1.0
145
0.5
146
1.0
147
0.09
 71
     1
 72
     0
 73
     1
 74
     0
 75
     0
 76
     0
 77
     2
 78
     0
170
     0
171
     2
172
     0
173
     0
174
     1
175
      0
176
5
177
5
178
     1
271
3
272
3
  0
ENDTAB
  0
TABLE
  2
VPORT
 70
     1
  0
VPORT
  2
*ACTIVE
 70
     0
 10
0.0
 20
0.0
 11
1.0
 21
1.0
 12
0.0
 22
0.0
 13
0.0
 23
0.0
 14
1.0
 24
1.0
 15
0.0
 25
0.0
 16
0.0
 26
0.0
 36
1.0
 17
0.0
 27
0.0
 37
0.0
 40
84
 41
2.0
 42
50.0
 43
0.0
 44
0.0
 50
0.0
 51
0.0
 71
     0
 72
   100
 73
     1
 74
     0
 75
     1
 76
     0
 77
     0
 78
     0
  0
ENDTAB
  0
ENDSEC
  0
SECTION
  2
ENTITIES
  0
POLYLINE
  8
BORDER_Z0P04
 62
     7
 66
     1
 10
0.0
 20
0.0
 30
0.0
 70
     1
  0
VERTEX
  8
BORDER_Z0P04
 62
     7
 10
0.0
 20
0.0
 30
0.0
  0
VERTEX
  8
BORDER_Z0P04
 62
     7
 10
0.0
 20
37.2425
 30
0.0
  0
VERTEX
  8
BORDER_Z0P04
 62
     7
 10
15.3583
 20
37.2425
 30
0.0
  0
VERTEX
  8
BORDER_Z0P04
 62
     7
 10
15.3583
 20
0.0
 30
0.0
  0
SEQEND
  8
BORDER_Z0P04
 62
     7
  0
POLYLINE
  8
ROUTE_Z0P25LT130RAMP
 62
     3
 66
     1
 10
0.0
 20
0.0
 30
0.0
 70
     0
  0
VERTEX
  8
ROUTE_Z0P25LT130RAMP
 62
     3
 10
12.795008
 20
11.590688
 30
0.0
 42
0.414213562373095
  0
VERTEX
  8
ROUTE_Z0P25LT130RAMP
 62
     3
 10
12.395524
 20
11.447819
 30
0.0
 42
-0.121440286753017
  0
VERTEX
  8
ROUTE_Z0P25LT130RAMP
 62
     3
 10
3.069134
 20
-2.99999999953116E-06
 30
0.0
  0
VERTEX
  8
ROUTE_Z0P25LT130RAMP
 62
     3
 10
0.519457
 20
2.482679
 30
0.0
 42
0.177621680056286
  0
VERTEX
  8
ROUTE_Z0P25LT130RAMP
 62
     3
 10
10.908338
 20
17.958606
 30
0.0
 42
0.213304902262369
  0
VERTEX
  8
ROUTE_Z0P25LT130RAMP
 62
     3
 10
8.826196
 20
24.845071
 30
0.0
  0
VERTEX
  8
ROUTE_Z0P25LT130RAMP
 62
     3
 10
0
 20
33.439354
 30
0.0
  0
VERTEX
  8
ROUTE_Z0P25LT130RAMP
 62
     3
 10
3.703216
 20
37.2425
 30
0.0
  0
VERTEX
  8
ROUTE_Z0P25LT130RAMP
 62
     3
 10
15.332519
 20
25.918764
 30
0.0
 42
-0.121440286753017
  0
VERTEX
  8
ROUTE_Z0P25LT130RAMP
 62
     3
 10
12.395524
 20
11.447819
 30
0.0
  0
SEQEND
  8
ROUTE_Z0P25LT130RAMP
 62
     3
  0
DIMENSION
  8
2D_DIM
  2
*D1
  3
BOARDERDIM
  1
15.358
 10
15.3583
 20
42.2425
 30
0.0
 11
7.67915
 21
42.2425
 31
0.0
 13
0
 23
37.2425
 14
15.3583
 24
37.2425
 33
0.0
 34
0.0
53
0
  0
DIMENSION
  8
2D_DIM
  2
*D1
  3
BOARDERDIM
  1
37.242
 10
-5
 20
37.2425
 30
0.0
 11
-5
 21
18.62125
 31
0
 13
0.0
 23
0
 14
0.0
 24
37.2425
 50
90.0
53
0
 33
0.0
 34
0.0
  0
DIMENSION
  8
2D_DIM
  2
*D1
  3
ROUTEDIM
  1
0
 10
0
 20
39.7425
 30
0.0
 11
0
 21
39.7425
 31
0.0
 13
0
 23
37.2425
 14
0
 24
37.2425
 33
0.0
 34
0.0
53
90
  0
DIMENSION
  8
2D_DIM
  2
*D1
  3
ROUTEDIM
  1
0.519
 10
0.519457
 20
39.7425
 30
0.0
 11
0.2597285
 21
39.7425
 31
0.0
 13
0
 23
37.2425
 14
0.519457
 24
37.2425
 33
0.0
 34
0.0
53
90
  0
DIMENSION
  8
2D_DIM
  2
*D1
  3
ROUTEDIM
  1
2.55
 10
3.069134
 20
39.7425
 30
0.0
 11
1.534567
 21
39.7425
 31
0.0
 13
0.519457
 23
37.2425
 14
3.069134
 24
37.2425
 33
0.0
 34
0.0
53
90
  0
DIMENSION
  8
2D_DIM
  2
*D1
  3
ROUTEDIM
  1
0.634
 10
3.703216
 20
39.7425
 30
0.0
 11
1.851608
 21
39.7425
 31
0.0
 13
3.069134
 23
37.2425
 14
3.703216
 24
37.2425
 33
0.0
 34
0.0
53
90
  0
DIMENSION
  8
2D_DIM
  2
*D1
  3
ROUTEDIM
  1
5.123
 10
8.826196
 20
39.7425
 30
0.0
 11
4.413098
 21
39.7425
 31
0.0
 13
3.703216
 23
37.2425
 14
8.826196
 24
37.2425
 33
0.0
 34
0.0
53
90
  0
DIMENSION
  8
2D_DIM
  2
*D1
  3
ROUTEDIM
  1
2.082
 10
10.908338
 20
39.7425
 30
0.0
 11
5.454169
 21
39.7425
 31
0.0
 13
8.826196
 23
37.2425
 14
10.908338
 24
37.2425
 33
0.0
 34
0.0
53
90
  0
DIMENSION
  8
2D_DIM
  2
*D1
  3
ROUTEDIM
  1
1.487
 10
12.395524
 20
39.7425
 30
0.0
 11
6.197762
 21
39.7425
 31
0.0
 13
10.908338
 23
37.2425
 14
12.395524
 24
37.2425
 33
0.0
 34
0.0
53
90
  0
DIMENSION
  8
2D_DIM
  2
*D1
  3
ROUTEDIM
  1
0.399
 10
12.795008
 20
39.7425
 30
0.0
 11
6.397504
 21
39.7425
 31
0.0
 13
12.395524
 23
37.2425
 14
12.795008
 24
37.2425
 33
0.0
 34
0.0
53
90
  0
DIMENSION
  8
2D_DIM
  2
*D1
  3
ROUTEDIM
  1
2.538
 10
15.332519
 20
39.7425
 30
0.0
 11
7.6662595
 21
39.7425
 31
0.0
 13
12.795008
 23
37.2425
 14
15.332519
 24
37.2425
 33
0.0
 34
0.0
53
90
  0
DIMENSION
  8
2D_DIM
  2
*D1
  3
ROUTEDIM
  1
0.026
 10
15.3583
 20
39.7425
 30
0.0
 11
7.67915
 21
39.7425
 31
0.0
 13
15.332519
 23
37.2425
 14
15.3583
 24
37.2425
 33
0.0
 34
0.0
53
90
  0
DIMENSION
  8
2D_DIM
  2
*D1
  3
ROUTEDIM
  1
0
 10
-2.5
 20
-2.99999999953116E-06
 30
0.0
 11
-2.5
 21
-1.49999999976558E-06
 31
0
 13
0.0
 23
0
 14
0.0
 24
-2.99999999953116E-06
 50
90.0
53
0
 33
0.0
 34
0.0
  0
DIMENSION
  8
2D_DIM
  2
*D1
  3
ROUTEDIM
  1
2.483
 10
-2.5
 20
2.482679
 30
0.0
 11
-2.5
 21
1.2413395
 31
0
 13
0.0
 23
-2.99999999953116E-06
 14
0.0
 24
2.482679
 50
90.0
53
0
 33
0.0
 34
0.0
  0
DIMENSION
  8
2D_DIM
  2
*D1
  3
ROUTEDIM
  1
8.965
 10
-2.5
 20
11.447819
 30
0.0
 11
-2.5
 21
5.7239095
 31
0
 13
0.0
 23
2.482679
 14
0.0
 24
11.447819
 50
90.0
53
0
 33
0.0
 34
0.0
  0
DIMENSION
  8
2D_DIM
  2
*D1
  3
ROUTEDIM
  1
0.143
 10
-2.5
 20
11.590688
 30
0.0
 11
-2.5
 21
5.795344
 31
0
 13
0.0
 23
11.447819
 14
0.0
 24
11.590688
 50
90.0
53
0
 33
0.0
 34
0.0
  0
DIMENSION
  8
2D_DIM
  2
*D1
  3
ROUTEDIM
  1
6.368
 10
-2.5
 20
17.958606
 30
0.0
 11
-2.5
 21
8.979303
 31
0
 13
0.0
 23
11.590688
 14
0.0
 24
17.958606
 50
90.0
53
0
 33
0.0
 34
0.0
  0
DIMENSION
  8
2D_DIM
  2
*D1
  3
ROUTEDIM
  1
6.886
 10
-2.5
 20
24.845071
 30
0.0
 11
-2.5
 21
12.4225355
 31
0
 13
0.0
 23
17.958606
 14
0.0
 24
24.845071
 50
90.0
53
0
 33
0.0
 34
0.0
  0
DIMENSION
  8
2D_DIM
  2
*D1
  3
ROUTEDIM
  1
1.074
 10
-2.5
 20
25.918764
 30
0.0
 11
-2.5
 21
12.959382
 31
0
 13
0.0
 23
24.845071
 14
0.0
 24
25.918764
 50
90.0
53
0
 33
0.0
 34
0.0
  0
DIMENSION
  8
2D_DIM
  2
*D1
  3
ROUTEDIM
  1
7.521
 10
-2.5
 20
33.439354
 30
0.0
 11
-2.5
 21
16.719677
 31
0
 13
0.0
 23
25.918764
 14
0.0
 24
33.439354
 50
90.0
53
0
 33
0.0
 34
0.0
  0
DIMENSION
  8
2D_DIM
  2
*D1
  3
ROUTEDIM
  1
3.803
 10
-2.5
 20
37.2425
 30
0.0
 11
-2.5
 21
18.62125
 31
0
 13
0.0
 23
33.439354
 14
0.0
 24
37.2425
 50
90.0
53
0
 33
0.0
 34
0.0
  0
DIMENSION
  8
2D_DIM
  2
*D1
  3
ROUTEDIM
  1
0
 10
-2.5
 20
37.2425
 30
0.0
 11
-2.5
 21
18.62125
 31
0
 13
0.0
 23
37.2425
 14
0.0
 24
37.2425
 50
90.0
53
0
 33
0.0
 34
0.0
  0
DIMENSION
  8
2D_DIM
  2
*D1
  3
ROUTEDIM
  1
12.667
 10
12.6667005
 20
11.3195115
 30
0.0
 11
6.33335025
 21
11.3195115
 31
0.0
 13
0
 23
11.3195115
 14
12.6667005
 24
11.3195115
 33
0.0
 34
0.0
53
90
  0
DIMENSION
  8
2D_DIM
  2
*D1
  3
ROUTEDIM
  1
11.32
 10
12.6667005
 20
11.3195115
 30
0.0
 11
12.6667005
 21
5.65975575
 31
0
 13
12.6667005
 23
0
 14
12.6667005
 24
11.3195115
 50
90.0
53
0
 33
0.0
 34
0.0
  0
DIMENSION
  8
2D_DIM
  2
*D1
  3
ROUTEDIM
  1
-15.487
 10
-15.4868858956086
 20
24.6402969524362
 30
0.0
 11
-7.74344294780431
 21
24.6402969524362
 31
0.0
 13
0
 23
24.6402969524362
 14
-15.4868858956086
 24
24.6402969524362
 33
0.0
 34
0.0
53
90
  0
DIMENSION
  8
2D_DIM
  2
*D1
  3
ROUTEDIM
  1
24.64
 10
-15.4868858956086
 20
24.6402969524362
 30
0.0
 11
-15.4868858956086
 21
12.3201484762181
 31
0
 13
-15.4868858956086
 23
0
 14
-15.4868858956086
 24
24.6402969524362
 50
90.0
53
0
 33
0.0
 34
0.0
  0
DIMENSION
  8
2D_DIM
  2
*D1
  3
ROUTEDIM
  1
-15.381
 10
-15.3810356134964
 20
24.3815228026193
 30
0.0
 11
-7.69051780674821
 21
24.3815228026193
 31
0.0
 13
0
 23
24.3815228026193
 14
-15.3810356134964
 24
24.3815228026193
 33
0.0
 34
0.0
53
90
  0
DIMENSION
  8
2D_DIM
  2
*D1
  3
ROUTEDIM
  1
24.382
 10
-15.3810356134964
 20
24.3815228026193
 30
0.0
 11
-15.3810356134964
 21
12.1907614013096
 31
0
 13
-15.3810356134964
 23
0
 14
-15.3810356134964
 24
24.3815228026193
 50
90.0
53
0
 33
0.0
 34
0.0
  0
DIMENSION
  8
2D_DIM
  2
*D1
  3
ROUTEDIM
  1
2.163
 10
2.16334436645451
 20
19.0725358926309
 30
0.0
 11
1.08167218322725
 21
19.0725358926309
 31
0.0
 13
0
 23
19.0725358926309
 14
2.16334436645451
 24
19.0725358926309
 33
0.0
 34
0.0
53
90
  0
DIMENSION
  8
2D_DIM
  2
*D1
  3
ROUTEDIM
  1
19.073
 10
2.16334436645451
 20
19.0725358926309
 30
0.0
 11
2.16334436645451
 21
9.53626794631547
 31
0
 13
2.16334436645451
 23
0
 14
2.16334436645451
 24
19.0725358926309
 50
90.0
53
0
 33
0.0
 34
0.0
  0
DIMENSION
  8
2D_DIM
  2
*D1
  3
ROUTEDIM
  1
-15.487
 10
-15.4868874936525
 20
24.6402952036152
 30
0.0
 11
-7.74344374682627
 21
24.6402952036152
 31
0.0
 13
0
 23
24.6402952036152
 14
-15.4868874936525
 24
24.6402952036152
 33
0.0
 34
0.0
53
90
  0
DIMENSION
  8
2D_DIM
  2
*D1
  3
ROUTEDIM
  1
24.64
 10
-15.4868874936525
 20
24.6402952036152
 30
0.0
 11
-15.4868874936525
 21
12.3201476018076
 31
0
 13
-15.4868874936525
 23
0
 14
-15.4868874936525
 24
24.6402952036152
 50
90.0
53
0
 33
0.0
 34
0.0
  0
TEXT
  8
ITEMNUMBER
 62
     1
 10
-7.5
 20
-5
 30
0.0
 40
0.5
  1
T31106.22
  0
TEXT
  8
DESCRIPTION
 62
     1
 10
-7.5
 20
-6
 30
0.0
 40
0.5
  1
P2A
  0
TEXT
  8
FILENAME
 62
     1
 10
-7.5
 20
-7
 30
0.0
 40
0.5
  1
5600AE0W
  0
TEXT
  8
MATERIALNAME
 62
     1
 10
-7.5
 20
-8
 30
0.0
 40
0.5
  1
AB1860SEI-PF/4x10
  0
TEXT
  8
Qty
 62
     1
 10
-7.5
 20
-9
 30
0.0
 40
0.5
  1
1
  0
TEXT
  8
RUNFIELD
 62
     1
 10
8
 20
-1
 30
0.0
 40
0.5
  1
Mirrored
  0
ENDSEC
  0
EOF
