  0
SECTION
  2
TABLES
  0
TABLE
  2
DIMSTYLE
 70
     2
  0
DIMSTYLE
  2
BOARDERDIM
 70
     0
  3

  4

  5
_NONE
  6
_NONE
  7
_NONE
 40
1
 41
0.1
 42
0.0625
 43
0.38
 44
0.18
 45
0.00
 46
0.0
 47
0.0
 48
0.0
140
0.5
141
0.09
142
0.0
143
25.399999999999999
144
1.0
145
0.5
146
1.0
147
0.09
 71
     1
 72
     0
 73
     1
 74
     0
 75
     0
 76
     0
 77
     2
 78
     0
170
     0
171
     2
172
     0
173
     0
174
     1
175
      0
176
5
177
5
178
     1
271
3
272
3
  0
ENDTAB
  0
TABLE
  2
DIMSTYLE
 70
     2
  0
DIMSTYLE
  2
VDRILLDIM
 70
     0
  3

  4

  5
_NONE
  6
_NONE
  7
_NONE
 40
1
 41
0.1
 42
0.0625
 43
0.38
 44
0.18
 45
0.00
 46
0.0
 47
0.0
 48
0.0
140
0.5
141
0.09
142
0.0
143
25.399999999999999
144
1.0
145
0.5
146
1.0
147
0.09
 71
     1
 72
     0
 73
     1
 74
     0
 75
     0
 76
     0
 77
     2
 78
     0
170
     0
171
     2
172
     0
173
     0
174
     1
175
      0
176
5
177
5
178
     1
271
3
272
3
  0
ENDTAB
  0
TABLE
  2
DIMSTYLE
 70
     2
  0
DIMSTYLE
  2
HDRILLDIM
 70
     0
  3

  4

  5
_NONE
  6
_NONE
  7
_NONE
 40
1
 41
0.1
 42
0.0625
 43
0.38
 44
0.18
 45
0.00
 46
0.0
 47
0.0
 48
0.0
140
0.5
141
0.09
142
0.0
143
25.399999999999999
144
1.0
145
0.5
146
1.0
147
0.09
 71
     1
 72
     0
 73
     1
 74
     0
 75
     0
 76
     0
 77
     2
 78
     0
170
     0
171
     2
172
     0
173
     0
174
     1
175
      0
176
5
177
5
178
     1
271
3
272
3
  0
ENDTAB
  0
TABLE
  2
DIMSTYLE
 70
     2
  0
DIMSTYLE
  2
ROUTEDIM
 70
     0
  3

  4

  5
_NONE
  6
_NONE
  7
_NONE
 40
1
 41
0.1
 42
0.0625
 43
0.38
 44
0.18
 45
0.00
 46
0.0
 47
0.0
 48
0.0
140
0.5
141
0.09
142
0.0
143
25.399999999999999
144
1.0
145
0.5
146
1.0
147
0.09
 71
     1
 72
     0
 73
     1
 74
     0
 75
     0
 76
     0
 77
     2
 78
     0
170
     0
171
     2
172
     0
173
     0
174
     1
175
      0
176
5
177
5
178
     1
271
3
272
3
  0
ENDTAB
  0
TABLE
  2
DIMSTYLE
 70
     2
  0
DIMSTYLE
  2
SAWDIM
 70
     0
  3

  4

  5
_NONE
  6
_NONE
  7
_NONE
 40
1
 41
0.1
 42
0.0625
 43
0.38
 44
0.18
 45
0.00
 46
0.0
 47
0.0
 48
0.0
140
0.5
141
0.09
142
0.0
143
25.399999999999999
144
1.0
145
0.5
146
1.0
147
0.09
 71
     1
 72
     0
 73
     1
 74
     0
 75
     0
 76
     0
 77
     2
 78
     0
170
     0
171
     2
172
     0
173
     0
174
     1
175
      0
176
5
177
5
178
     1
271
3
272
3
  0
ENDTAB
  0
TABLE
  2
VPORT
 70
     1
  0
VPORT
  2
*ACTIVE
 70
     0
 10
0.0
 20
0.0
 11
1.0
 21
1.0
 12
0.0
 22
0.0
 13
0.0
 23
0.0
 14
1.0
 24
1.0
 15
0.0
 25
0.0
 16
0.0
 26
0.0
 36
1.0
 17
0.0
 27
0.0
 37
0.0
 40
84
 41
2.0
 42
50.0
 43
0.0
 44
0.0
 50
0.0
 51
0.0
 71
     0
 72
   100
 73
     1
 74
     0
 75
     1
 76
     0
 77
     0
 78
     0
  0
ENDTAB
  0
ENDSEC
  0
SECTION
  2
ENTITIES
  0
POLYLINE
  8
BORDER_Z0P04
 62
     7
 66
     1
 10
0.0
 20
0.0
 30
0.0
 70
     1
  0
VERTEX
  8
BORDER_Z0P04
 62
     7
 10
0.0
 20
0.0
 30
0.0
  0
VERTEX
  8
BORDER_Z0P04
 62
     7
 10
0.0
 20
86.2513
 30
0.0
  0
VERTEX
  8
BORDER_Z0P04
 62
     7
 10
33.2982
 20
86.2513
 30
0.0
  0
VERTEX
  8
BORDER_Z0P04
 62
     7
 10
33.2982
 20
0.0
 30
0.0
  0
SEQEND
  8
BORDER_Z0P04
 62
     7
  0
POLYLINE
  8
ROUTE_Z0P25LT130RAMP
 62
     3
 66
     1
 10
0.0
 20
0.0
 30
0.0
 70
     0
  0
VERTEX
  8
ROUTE_Z0P25LT130RAMP
 62
     3
 10
24.273418
 20
20.629741
 30
0.0
 42
0.414213562373095
  0
VERTEX
  8
ROUTE_Z0P25LT130RAMP
 62
     3
 10
23.868683
 20
20.502492
 30
0.0
 42
-0.0393463315502637
  0
VERTEX
  8
ROUTE_Z0P25LT130RAMP
 62
     3
 10
11.08241
 20
0.0827919999999978
 30
0.0
  0
VERTEX
  8
ROUTE_Z0P25LT130RAMP
 62
     3
 10
0.174571
 20
3.90000000010104E-05
 30
0.0
  0
VERTEX
  8
ROUTE_Z0P25LT130RAMP
 62
     3
 10
0
 20
23.010645
 30
0.0
 42
0.0947828913420726
  0
VERTEX
  8
ROUTE_Z0P25LT130RAMP
 62
     3
 10
16.755374
 20
67.627773
 30
0.0
  0
VERTEX
  8
ROUTE_Z0P25LT130RAMP
 62
     3
 10
24.286785
 20
67.68491
 30
0.0
  0
VERTEX
  8
ROUTE_Z0P25LT130RAMP
 62
     3
 10
24.146438
 20
86.184378
 30
0.0
  0
VERTEX
  8
ROUTE_Z0P25LT130RAMP
 62
     3
 10
32.967604
 20
86.2513
 30
0.0
  0
VERTEX
  8
ROUTE_Z0P25LT130RAMP
 62
     3
 10
33.298212
 20
42.673124
 30
0.0
 42
-0.0393463315502637
  0
VERTEX
  8
ROUTE_Z0P25LT130RAMP
 62
     3
 10
23.868683
 20
20.502492
 30
0.0
  0
SEQEND
  8
ROUTE_Z0P25LT130RAMP
 62
     3
  0
DIMENSION
  8
2D_DIM
  2
*D1
  3
BOARDERDIM
  1
33.298
 10
33.2982
 20
91.2513
 30
0.0
 11
16.6491
 21
91.2513
 31
0.0
 13
0
 23
86.2513
 14
33.2982
 24
86.2513
 33
0.0
 34
0.0
53
0
  0
DIMENSION
  8
2D_DIM
  2
*D1
  3
BOARDERDIM
  1
86.251
 10
-5
 20
86.2513
 30
0.0
 11
-5
 21
43.12565
 31
0
 13
0.0
 23
0
 14
0.0
 24
86.2513
 50
90.0
53
0
 33
0.0
 34
0.0
  0
DIMENSION
  8
2D_DIM
  2
*D1
  3
ROUTEDIM
  1
0
 10
0
 20
88.7513
 30
0.0
 11
0
 21
88.7513
 31
0.0
 13
0
 23
86.2513
 14
0
 24
86.2513
 33
0.0
 34
0.0
53
90
  0
DIMENSION
  8
2D_DIM
  2
*D1
  3
ROUTEDIM
  1
0.175
 10
0.174571
 20
88.7513
 30
0.0
 11
0.0872855
 21
88.7513
 31
0.0
 13
0
 23
86.2513
 14
0.174571
 24
86.2513
 33
0.0
 34
0.0
53
90
  0
DIMENSION
  8
2D_DIM
  2
*D1
  3
ROUTEDIM
  1
10.908
 10
11.08241
 20
88.7513
 30
0.0
 11
5.541205
 21
88.7513
 31
0.0
 13
0.174571
 23
86.2513
 14
11.08241
 24
86.2513
 33
0.0
 34
0.0
53
90
  0
DIMENSION
  8
2D_DIM
  2
*D1
  3
ROUTEDIM
  1
5.673
 10
16.755374
 20
88.7513
 30
0.0
 11
8.377687
 21
88.7513
 31
0.0
 13
11.08241
 23
86.2513
 14
16.755374
 24
86.2513
 33
0.0
 34
0.0
53
90
  0
DIMENSION
  8
2D_DIM
  2
*D1
  3
ROUTEDIM
  1
7.113
 10
23.868683
 20
88.7513
 30
0.0
 11
11.9343415
 21
88.7513
 31
0.0
 13
16.755374
 23
86.2513
 14
23.868683
 24
86.2513
 33
0.0
 34
0.0
53
90
  0
DIMENSION
  8
2D_DIM
  2
*D1
  3
ROUTEDIM
  1
0.278
 10
24.146438
 20
88.7513
 30
0.0
 11
12.073219
 21
88.7513
 31
0.0
 13
23.868683
 23
86.2513
 14
24.146438
 24
86.2513
 33
0.0
 34
0.0
53
90
  0
DIMENSION
  8
2D_DIM
  2
*D1
  3
ROUTEDIM
  1
0.127
 10
24.273418
 20
88.7513
 30
0.0
 11
12.136709
 21
88.7513
 31
0.0
 13
24.146438
 23
86.2513
 14
24.273418
 24
86.2513
 33
0.0
 34
0.0
53
90
  0
DIMENSION
  8
2D_DIM
  2
*D1
  3
ROUTEDIM
  1
0.013
 10
24.286785
 20
88.7513
 30
0.0
 11
12.1433925
 21
88.7513
 31
0.0
 13
24.273418
 23
86.2513
 14
24.286785
 24
86.2513
 33
0.0
 34
0.0
53
90
  0
DIMENSION
  8
2D_DIM
  2
*D1
  3
ROUTEDIM
  1
8.681
 10
32.967604
 20
88.7513
 30
0.0
 11
16.483802
 21
88.7513
 31
0.0
 13
24.286785
 23
86.2513
 14
32.967604
 24
86.2513
 33
0.0
 34
0.0
53
90
  0
DIMENSION
  8
2D_DIM
  2
*D1
  3
ROUTEDIM
  1
0.331
 10
33.298212
 20
88.7513
 30
0.0
 11
16.649106
 21
88.7513
 31
0.0
 13
32.967604
 23
86.2513
 14
33.298212
 24
86.2513
 33
0.0
 34
0.0
53
90
  0
DIMENSION
  8
2D_DIM
  2
*D1
  3
ROUTEDIM
  1
-0
 10
33.2982
 20
88.7513
 30
0.0
 11
16.6491
 21
88.7513
 31
0.0
 13
33.298212
 23
86.2513
 14
33.2982
 24
86.2513
 33
0.0
 34
0.0
53
90
  0
DIMENSION
  8
2D_DIM
  2
*D1
  3
ROUTEDIM
  1
-0
 10
-2.5
 20
3.90000000010104E-05
 30
0.0
 11
-2.5
 21
1.95000000005052E-05
 31
0
 13
0.0
 23
0
 14
0.0
 24
3.90000000010104E-05
 50
90.0
53
0
 33
0.0
 34
0.0
  0
DIMENSION
  8
2D_DIM
  2
*D1
  3
ROUTEDIM
  1
0.083
 10
-2.5
 20
0.0827919999999978
 30
0.0
 11
-2.5
 21
0.0413959999999989
 31
0
 13
0.0
 23
3.90000000010104E-05
 14
0.0
 24
0.0827919999999978
 50
90.0
53
0
 33
0.0
 34
0.0
  0
DIMENSION
  8
2D_DIM
  2
*D1
  3
ROUTEDIM
  1
20.42
 10
-2.5
 20
20.502492
 30
0.0
 11
-2.5
 21
10.251246
 31
0
 13
0.0
 23
0.0827919999999978
 14
0.0
 24
20.502492
 50
90.0
53
0
 33
0.0
 34
0.0
  0
DIMENSION
  8
2D_DIM
  2
*D1
  3
ROUTEDIM
  1
0.127
 10
-2.5
 20
20.629741
 30
0.0
 11
-2.5
 21
10.3148705
 31
0
 13
0.0
 23
20.502492
 14
0.0
 24
20.629741
 50
90.0
53
0
 33
0.0
 34
0.0
  0
DIMENSION
  8
2D_DIM
  2
*D1
  3
ROUTEDIM
  1
2.381
 10
-2.5
 20
23.010645
 30
0.0
 11
-2.5
 21
11.5053225
 31
0
 13
0.0
 23
20.629741
 14
0.0
 24
23.010645
 50
90.0
53
0
 33
0.0
 34
0.0
  0
DIMENSION
  8
2D_DIM
  2
*D1
  3
ROUTEDIM
  1
19.662
 10
-2.5
 20
42.673124
 30
0.0
 11
-2.5
 21
21.336562
 31
0
 13
0.0
 23
23.010645
 14
0.0
 24
42.673124
 50
90.0
53
0
 33
0.0
 34
0.0
  0
DIMENSION
  8
2D_DIM
  2
*D1
  3
ROUTEDIM
  1
24.955
 10
-2.5
 20
67.627773
 30
0.0
 11
-2.5
 21
33.8138865
 31
0
 13
0.0
 23
42.673124
 14
0.0
 24
67.627773
 50
90.0
53
0
 33
0.0
 34
0.0
  0
DIMENSION
  8
2D_DIM
  2
*D1
  3
ROUTEDIM
  1
0.057
 10
-2.5
 20
67.68491
 30
0.0
 11
-2.5
 21
33.842455
 31
0
 13
0.0
 23
67.627773
 14
0.0
 24
67.68491
 50
90.0
53
0
 33
0.0
 34
0.0
  0
DIMENSION
  8
2D_DIM
  2
*D1
  3
ROUTEDIM
  1
18.499
 10
-2.5
 20
86.184378
 30
0.0
 11
-2.5
 21
43.092189
 31
0
 13
0.0
 23
67.68491
 14
0.0
 24
86.184378
 50
90.0
53
0
 33
0.0
 34
0.0
  0
DIMENSION
  8
2D_DIM
  2
*D1
  3
ROUTEDIM
  1
0.067
 10
-2.5
 20
86.2513
 30
0.0
 11
-2.5
 21
43.12565
 31
0
 13
0.0
 23
86.184378
 14
0.0
 24
86.2513
 50
90.0
53
0
 33
0.0
 34
0.0
  0
DIMENSION
  8
2D_DIM
  2
*D1
  3
ROUTEDIM
  1
0
 10
-2.5
 20
86.2513
 30
0.0
 11
-2.5
 21
43.12565
 31
0
 13
0.0
 23
86.2513
 14
0.0
 24
86.2513
 50
90.0
53
0
 33
0.0
 34
0.0
  0
DIMENSION
  8
2D_DIM
  2
*D1
  3
ROUTEDIM
  1
24.135
 10
24.134675
 20
20.363749
 30
0.0
 11
12.0673375
 21
20.363749
 31
0.0
 13
0
 23
20.363749
 14
24.134675
 24
20.363749
 33
0.0
 34
0.0
53
90
  0
DIMENSION
  8
2D_DIM
  2
*D1
  3
ROUTEDIM
  1
20.364
 10
24.134675
 20
20.363749
 30
0.0
 11
24.134675
 21
10.1818745
 31
0
 13
24.134675
 23
0
 14
24.134675
 24
20.363749
 50
90.0
53
0
 33
0.0
 34
0.0
  0
DIMENSION
  8
2D_DIM
  2
*D1
  3
ROUTEDIM
  1
-112.067
 10
-112.066946845707
 20
91.4087056551418
 30
0.0
 11
-56.0334734228537
 21
91.4087056551418
 31
0.0
 13
0
 23
91.4087056551418
 14
-112.066946845707
 24
91.4087056551418
 33
0.0
 34
0.0
53
90
  0
DIMENSION
  8
2D_DIM
  2
*D1
  3
ROUTEDIM
  1
91.409
 10
-112.066946845707
 20
91.4087056551418
 30
0.0
 11
-112.066946845707
 21
45.7043528275709
 31
0
 13
-112.066946845707
 23
0
 14
-112.066946845707
 24
91.4087056551418
 50
90.0
53
0
 33
0.0
 34
0.0
  0
DIMENSION
  8
2D_DIM
  2
*D1
  3
ROUTEDIM
  1
-108.248
 10
-108.247518709464
 20
89.1162669255796
 30
0.0
 11
-54.1237593547318
 21
89.1162669255796
 31
0.0
 13
0
 23
89.1162669255796
 14
-108.247518709464
 24
89.1162669255796
 33
0.0
 34
0.0
53
90
  0
DIMENSION
  8
2D_DIM
  2
*D1
  3
ROUTEDIM
  1
89.116
 10
-108.247518709464
 20
89.1162669255796
 30
0.0
 11
-108.247518709464
 21
44.5581334627898
 31
0
 13
-108.247518709464
 23
0
 14
-108.247518709464
 24
89.1162669255796
 50
90.0
53
0
 33
0.0
 34
0.0
  0
DIMENSION
  8
2D_DIM
  2
*D1
  3
ROUTEDIM
  1
-112.067
 10
-112.066951297736
 20
91.4087014379866
 30
0.0
 11
-56.033475648868
 21
91.4087014379866
 31
0.0
 13
0
 23
91.4087014379866
 14
-112.066951297736
 24
91.4087014379866
 33
0.0
 34
0.0
53
90
  0
DIMENSION
  8
2D_DIM
  2
*D1
  3
ROUTEDIM
  1
91.409
 10
-112.066951297736
 20
91.4087014379866
 30
0.0
 11
-112.066951297736
 21
45.7043507189933
 31
0
 13
-112.066951297736
 23
0
 14
-112.066951297736
 24
91.4087014379866
 50
90.0
53
0
 33
0.0
 34
0.0
  0
TEXT
  8
ITEMNUMBER
 62
     1
 10
-7.5
 20
-5
 30
0.0
 40
0.5
  1
T31106.22
  0
TEXT
  8
DESCRIPTION
 62
     1
 10
-7.5
 20
-6
 30
0.0
 40
0.5
  1
P4B
  0
TEXT
  8
FILENAME
 62
     1
 10
-7.5
 20
-7
 30
0.0
 40
0.5
  1
5600AE38
  0
TEXT
  8
MATERIALNAME
 62
     1
 10
-7.5
 20
-8
 30
0.0
 40
0.5
  1
AB1860SEI-PF/4x10
  0
TEXT
  8
Qty
 62
     1
 10
-7.5
 20
-9
 30
0.0
 40
0.5
  1
1
  0
TEXT
  8
RUNFIELD
 62
     1
 10
8
 20
-1
 30
0.0
 40
0.5
  1
Mirrored
  0
ENDSEC
  0
EOF
