  0
SECTION
  2
TABLES
  0
TABLE
  2
DIMSTYLE
 70
     2
  0
DIMSTYLE
  2
BOARDERDIM
 70
     0
  3

  4

  5
_NONE
  6
_NONE
  7
_NONE
 40
1
 41
0.1
 42
0.0625
 43
0.38
 44
0.18
 45
0.00
 46
0.0
 47
0.0
 48
0.0
140
0.5
141
0.09
142
0.0
143
25.399999999999999
144
1.0
145
0.5
146
1.0
147
0.09
 71
     1
 72
     0
 73
     1
 74
     0
 75
     0
 76
     0
 77
     2
 78
     0
170
     0
171
     2
172
     0
173
     0
174
     1
175
      0
176
5
177
5
178
     1
271
3
272
3
  0
ENDTAB
  0
TABLE
  2
DIMSTYLE
 70
     2
  0
DIMSTYLE
  2
VDRILLDIM
 70
     0
  3

  4

  5
_NONE
  6
_NONE
  7
_NONE
 40
1
 41
0.1
 42
0.0625
 43
0.38
 44
0.18
 45
0.00
 46
0.0
 47
0.0
 48
0.0
140
0.5
141
0.09
142
0.0
143
25.399999999999999
144
1.0
145
0.5
146
1.0
147
0.09
 71
     1
 72
     0
 73
     1
 74
     0
 75
     0
 76
     0
 77
     2
 78
     0
170
     0
171
     2
172
     0
173
     0
174
     1
175
      0
176
5
177
5
178
     1
271
3
272
3
  0
ENDTAB
  0
TABLE
  2
DIMSTYLE
 70
     2
  0
DIMSTYLE
  2
HDRILLDIM
 70
     0
  3

  4

  5
_NONE
  6
_NONE
  7
_NONE
 40
1
 41
0.1
 42
0.0625
 43
0.38
 44
0.18
 45
0.00
 46
0.0
 47
0.0
 48
0.0
140
0.5
141
0.09
142
0.0
143
25.399999999999999
144
1.0
145
0.5
146
1.0
147
0.09
 71
     1
 72
     0
 73
     1
 74
     0
 75
     0
 76
     0
 77
     2
 78
     0
170
     0
171
     2
172
     0
173
     0
174
     1
175
      0
176
5
177
5
178
     1
271
3
272
3
  0
ENDTAB
  0
TABLE
  2
DIMSTYLE
 70
     2
  0
DIMSTYLE
  2
ROUTEDIM
 70
     0
  3

  4

  5
_NONE
  6
_NONE
  7
_NONE
 40
1
 41
0.1
 42
0.0625
 43
0.38
 44
0.18
 45
0.00
 46
0.0
 47
0.0
 48
0.0
140
0.5
141
0.09
142
0.0
143
25.399999999999999
144
1.0
145
0.5
146
1.0
147
0.09
 71
     1
 72
     0
 73
     1
 74
     0
 75
     0
 76
     0
 77
     2
 78
     0
170
     0
171
     2
172
     0
173
     0
174
     1
175
      0
176
5
177
5
178
     1
271
3
272
3
  0
ENDTAB
  0
TABLE
  2
DIMSTYLE
 70
     2
  0
DIMSTYLE
  2
SAWDIM
 70
     0
  3

  4

  5
_NONE
  6
_NONE
  7
_NONE
 40
1
 41
0.1
 42
0.0625
 43
0.38
 44
0.18
 45
0.00
 46
0.0
 47
0.0
 48
0.0
140
0.5
141
0.09
142
0.0
143
25.399999999999999
144
1.0
145
0.5
146
1.0
147
0.09
 71
     1
 72
     0
 73
     1
 74
     0
 75
     0
 76
     0
 77
     2
 78
     0
170
     0
171
     2
172
     0
173
     0
174
     1
175
      0
176
5
177
5
178
     1
271
3
272
3
  0
ENDTAB
  0
TABLE
  2
VPORT
 70
     1
  0
VPORT
  2
*ACTIVE
 70
     0
 10
0.0
 20
0.0
 11
1.0
 21
1.0
 12
0.0
 22
0.0
 13
0.0
 23
0.0
 14
1.0
 24
1.0
 15
0.0
 25
0.0
 16
0.0
 26
0.0
 36
1.0
 17
0.0
 27
0.0
 37
0.0
 40
84
 41
2.0
 42
50.0
 43
0.0
 44
0.0
 50
0.0
 51
0.0
 71
     0
 72
   100
 73
     1
 74
     0
 75
     1
 76
     0
 77
     0
 78
     0
  0
ENDTAB
  0
ENDSEC
  0
SECTION
  2
ENTITIES
  0
POLYLINE
  8
BORDER_Z0P04
 62
     7
 66
     1
 10
0.0
 20
0.0
 30
0.0
 70
     1
  0
VERTEX
  8
BORDER_Z0P04
 62
     7
 10
0.0
 20
0.0
 30
0.0
  0
VERTEX
  8
BORDER_Z0P04
 62
     7
 10
0.0
 20
27.187
 30
0.0
  0
VERTEX
  8
BORDER_Z0P04
 62
     7
 10
7.7596
 20
27.187
 30
0.0
  0
VERTEX
  8
BORDER_Z0P04
 62
     7
 10
7.7596
 20
0.0
 30
0.0
  0
SEQEND
  8
BORDER_Z0P04
 62
     7
  0
POLYLINE
  8
ROUTE_Z0P25LT130RAMP
 62
     3
 66
     1
 10
0.0
 20
0.0
 30
0.0
 70
     0
  0
VERTEX
  8
ROUTE_Z0P25LT130RAMP
 62
     3
 10
-0.281543
 20
13.111515
 30
0.0
 42
0.414213562373095
  0
VERTEX
  8
ROUTE_Z0P25LT130RAMP
 62
     3
 10
0.009053
 20
13.420632
 30
0.0
 42
-0.197854325650066
  0
VERTEX
  8
ROUTE_Z0P25LT130RAMP
 62
     3
 10
5.187464
 20
27.187
 30
0.0
  0
VERTEX
  8
ROUTE_Z0P25LT130RAMP
 62
     3
 10
7.684207
 20
25.457015
 30
0.0
 42
0.411379648351018
  0
VERTEX
  8
ROUTE_Z0P25LT130RAMP
 62
     3
 10
7.759554
 20
2.500401
 30
0.0
  0
VERTEX
  8
ROUTE_Z0P25LT130RAMP
 62
     3
 10
6.027059
 20
3.50000000004513E-05
 30
0.0
 42
-0.197854325650066
  0
VERTEX
  8
ROUTE_Z0P25LT130RAMP
 62
     3
 10
0.009053
 20
13.420632
 30
0.0
  0
SEQEND
  8
ROUTE_Z0P25LT130RAMP
 62
     3
  0
DIMENSION
  8
2D_DIM
  2
*D1
  3
BOARDERDIM
  1
7.76
 10
7.7596
 20
32.187
 30
0.0
 11
3.8798
 21
32.187
 31
0.0
 13
0
 23
27.187
 14
7.7596
 24
27.187
 33
0.0
 34
0.0
53
0
  0
DIMENSION
  8
2D_DIM
  2
*D1
  3
BOARDERDIM
  1
27.187
 10
-5
 20
27.187
 30
0.0
 11
-5
 21
13.5935
 31
0
 13
0.0
 23
0
 14
0.0
 24
27.187
 50
90.0
53
0
 33
0.0
 34
0.0
  0
DIMENSION
  8
2D_DIM
  2
*D1
  3
ROUTEDIM
  1
-0.282
 10
-0.281543
 20
29.687
 30
0.0
 11
-0.1407715
 21
29.687
 31
0.0
 13
0
 23
27.187
 14
-0.281543
 24
27.187
 33
0.0
 34
0.0
53
90
  0
DIMENSION
  8
2D_DIM
  2
*D1
  3
ROUTEDIM
  1
0.291
 10
0.009053
 20
29.687
 30
0.0
 11
0.0045265
 21
29.687
 31
0.0
 13
-0.281543
 23
27.187
 14
0.009053
 24
27.187
 33
0.0
 34
0.0
53
90
  0
DIMENSION
  8
2D_DIM
  2
*D1
  3
ROUTEDIM
  1
5.178
 10
5.187464
 20
29.687
 30
0.0
 11
2.593732
 21
29.687
 31
0.0
 13
0.009053
 23
27.187
 14
5.187464
 24
27.187
 33
0.0
 34
0.0
53
90
  0
DIMENSION
  8
2D_DIM
  2
*D1
  3
ROUTEDIM
  1
0.84
 10
6.027059
 20
29.687
 30
0.0
 11
3.0135295
 21
29.687
 31
0.0
 13
5.187464
 23
27.187
 14
6.027059
 24
27.187
 33
0.0
 34
0.0
53
90
  0
DIMENSION
  8
2D_DIM
  2
*D1
  3
ROUTEDIM
  1
1.657
 10
7.684207
 20
29.687
 30
0.0
 11
3.8421035
 21
29.687
 31
0.0
 13
6.027059
 23
27.187
 14
7.684207
 24
27.187
 33
0.0
 34
0.0
53
90
  0
DIMENSION
  8
2D_DIM
  2
*D1
  3
ROUTEDIM
  1
0.075
 10
7.759554
 20
29.687
 30
0.0
 11
3.879777
 21
29.687
 31
0.0
 13
7.684207
 23
27.187
 14
7.759554
 24
27.187
 33
0.0
 34
0.0
53
90
  0
DIMENSION
  8
2D_DIM
  2
*D1
  3
ROUTEDIM
  1
0
 10
7.7596
 20
29.687
 30
0.0
 11
3.8798
 21
29.687
 31
0.0
 13
7.759554
 23
27.187
 14
7.7596
 24
27.187
 33
0.0
 34
0.0
53
90
  0
DIMENSION
  8
2D_DIM
  2
*D1
  3
ROUTEDIM
  1
-0
 10
-2.5
 20
3.50000000004513E-05
 30
0.0
 11
-2.5
 21
1.75000000002257E-05
 31
0
 13
0.0
 23
0
 14
0.0
 24
3.50000000004513E-05
 50
90.0
53
0
 33
0.0
 34
0.0
  0
DIMENSION
  8
2D_DIM
  2
*D1
  3
ROUTEDIM
  1
2.5
 10
-2.5
 20
2.500401
 30
0.0
 11
-2.5
 21
1.2502005
 31
0
 13
0.0
 23
3.50000000004513E-05
 14
0.0
 24
2.500401
 50
90.0
53
0
 33
0.0
 34
0.0
  0
DIMENSION
  8
2D_DIM
  2
*D1
  3
ROUTEDIM
  1
10.611
 10
-2.5
 20
13.111515
 30
0.0
 11
-2.5
 21
6.5557575
 31
0
 13
0.0
 23
2.500401
 14
0.0
 24
13.111515
 50
90.0
53
0
 33
0.0
 34
0.0
  0
DIMENSION
  8
2D_DIM
  2
*D1
  3
ROUTEDIM
  1
0.309
 10
-2.5
 20
13.420632
 30
0.0
 11
-2.5
 21
6.710316
 31
0
 13
0.0
 23
13.111515
 14
0.0
 24
13.420632
 50
90.0
53
0
 33
0.0
 34
0.0
  0
DIMENSION
  8
2D_DIM
  2
*D1
  3
ROUTEDIM
  1
12.036
 10
-2.5
 20
25.457015
 30
0.0
 11
-2.5
 21
12.7285075
 31
0
 13
0.0
 23
13.420632
 14
0.0
 24
25.457015
 50
90.0
53
0
 33
0.0
 34
0.0
  0
DIMENSION
  8
2D_DIM
  2
*D1
  3
ROUTEDIM
  1
1.73
 10
-2.5
 20
27.187
 30
0.0
 11
-2.5
 21
13.5935
 31
0
 13
0.0
 23
25.457015
 14
0.0
 24
27.187
 50
90.0
53
0
 33
0.0
 34
0.0
  0
DIMENSION
  8
2D_DIM
  2
*D1
  3
ROUTEDIM
  1
0
 10
-2.5
 20
27.187
 30
0.0
 11
-2.5
 21
13.5935
 31
0
 13
0.0
 23
27.187
 14
0.0
 24
27.187
 50
90.0
53
0
 33
0.0
 34
0.0
  0
DIMENSION
  8
2D_DIM
  2
*D1
  3
ROUTEDIM
  1
-0.291
 10
-0.2908035
 20
13.4113715
 30
0.0
 11
-0.14540175
 21
13.4113715
 31
0.0
 13
0
 23
13.4113715
 14
-0.2908035
 24
13.4113715
 33
0.0
 34
0.0
53
90
  0
DIMENSION
  8
2D_DIM
  2
*D1
  3
ROUTEDIM
  1
13.411
 10
-0.2908035
 20
13.4113715
 30
0.0
 11
-0.2908035
 21
6.70568575
 31
0
 13
-0.2908035
 23
0
 14
-0.2908035
 24
13.4113715
 50
90.0
53
0
 33
0.0
 34
0.0
  0
DIMENSION
  8
2D_DIM
  2
*D1
  3
ROUTEDIM
  1
19.312
 10
19.3119001077696
 20
14.0167469959074
 30
0.0
 11
9.65595005388482
 21
14.0167469959074
 31
0.0
 13
0
 23
14.0167469959074
 14
19.3119001077696
 24
14.0167469959074
 33
0.0
 34
0.0
53
90
  0
DIMENSION
  8
2D_DIM
  2
*D1
  3
ROUTEDIM
  1
14.017
 10
19.3119001077696
 20
14.0167469959074
 30
0.0
 11
19.3119001077696
 21
7.00837349795371
 31
0
 13
19.3119001077696
 23
0
 14
19.3119001077696
 24
14.0167469959074
 50
90.0
53
0
 33
0.0
 34
0.0
  0
DIMENSION
  8
2D_DIM
  2
*D1
  3
ROUTEDIM
  1
19.312
 10
19.3118998908084
 20
14.0167481565771
 30
0.0
 11
9.65594994540421
 21
14.0167481565771
 31
0.0
 13
0
 23
14.0167481565771
 14
19.3118998908084
 24
14.0167481565771
 33
0.0
 34
0.0
53
90
  0
DIMENSION
  8
2D_DIM
  2
*D1
  3
ROUTEDIM
  1
14.017
 10
19.3118998908084
 20
14.0167481565771
 30
0.0
 11
19.3118998908084
 21
7.00837407828853
 31
0
 13
19.3118998908084
 23
0
 14
19.3118998908084
 24
14.0167481565771
 50
90.0
53
0
 33
0.0
 34
0.0
  0
DIMENSION
  8
2D_DIM
  2
*D1
  3
ROUTEDIM
  1
19.312
 10
19.3118996935805
 20
14.0167483421288
 30
0.0
 11
9.65594984679025
 21
14.0167483421288
 31
0.0
 13
0
 23
14.0167483421288
 14
19.3118996935805
 24
14.0167483421288
 33
0.0
 34
0.0
53
90
  0
DIMENSION
  8
2D_DIM
  2
*D1
  3
ROUTEDIM
  1
14.017
 10
19.3118996935805
 20
14.0167483421288
 30
0.0
 11
19.3118996935805
 21
7.00837417106442
 31
0
 13
19.3118996935805
 23
0
 14
19.3118996935805
 24
14.0167483421288
 50
90.0
53
0
 33
0.0
 34
0.0
  0
TEXT
  8
ITEMNUMBER
 62
     1
 10
-7.5
 20
-5
 30
0.0
 40
0.5
  1
T31106.22
  0
TEXT
  8
DESCRIPTION
 62
     1
 10
-7.5
 20
-6
 30
0.0
 40
0.5
  1
P2A
  0
TEXT
  8
FILENAME
 62
     1
 10
-7.5
 20
-7
 30
0.0
 40
0.5
  1
5600AE0K
  0
TEXT
  8
MATERIALNAME
 62
     1
 10
-7.5
 20
-8
 30
0.0
 40
0.5
  1
AB1860SEI-PF/4x10
  0
TEXT
  8
Qty
 62
     1
 10
-7.5
 20
-9
 30
0.0
 40
0.5
  1
1
  0
TEXT
  8
RUNFIELD
 62
     1
 10
8
 20
-1
 30
0.0
 40
0.5
  1
Mirrored
  0
ENDSEC
  0
EOF
