  0
SECTION
  2
TABLES
  0
TABLE
  2
DIMSTYLE
 70
     2
  0
DIMSTYLE
  2
BOARDERDIM
 70
     0
  3

  4

  5
_NONE
  6
_NONE
  7
_NONE
 40
1
 41
0.1
 42
0.0625
 43
0.38
 44
0.18
 45
0.00
 46
0.0
 47
0.0
 48
0.0
140
0.5
141
0.09
142
0.0
143
25.399999999999999
144
1.0
145
0.5
146
1.0
147
0.09
 71
     1
 72
     0
 73
     1
 74
     0
 75
     0
 76
     0
 77
     2
 78
     0
170
     0
171
     2
172
     0
173
     0
174
     1
175
      0
176
5
177
5
178
     1
271
3
272
3
  0
ENDTAB
  0
TABLE
  2
DIMSTYLE
 70
     2
  0
DIMSTYLE
  2
VDRILLDIM
 70
     0
  3

  4

  5
_NONE
  6
_NONE
  7
_NONE
 40
1
 41
0.1
 42
0.0625
 43
0.38
 44
0.18
 45
0.00
 46
0.0
 47
0.0
 48
0.0
140
0.5
141
0.09
142
0.0
143
25.399999999999999
144
1.0
145
0.5
146
1.0
147
0.09
 71
     1
 72
     0
 73
     1
 74
     0
 75
     0
 76
     0
 77
     2
 78
     0
170
     0
171
     2
172
     0
173
     0
174
     1
175
      0
176
5
177
5
178
     1
271
3
272
3
  0
ENDTAB
  0
TABLE
  2
DIMSTYLE
 70
     2
  0
DIMSTYLE
  2
HDRILLDIM
 70
     0
  3

  4

  5
_NONE
  6
_NONE
  7
_NONE
 40
1
 41
0.1
 42
0.0625
 43
0.38
 44
0.18
 45
0.00
 46
0.0
 47
0.0
 48
0.0
140
0.5
141
0.09
142
0.0
143
25.399999999999999
144
1.0
145
0.5
146
1.0
147
0.09
 71
     1
 72
     0
 73
     1
 74
     0
 75
     0
 76
     0
 77
     2
 78
     0
170
     0
171
     2
172
     0
173
     0
174
     1
175
      0
176
5
177
5
178
     1
271
3
272
3
  0
ENDTAB
  0
TABLE
  2
DIMSTYLE
 70
     2
  0
DIMSTYLE
  2
ROUTEDIM
 70
     0
  3

  4

  5
_NONE
  6
_NONE
  7
_NONE
 40
1
 41
0.1
 42
0.0625
 43
0.38
 44
0.18
 45
0.00
 46
0.0
 47
0.0
 48
0.0
140
0.5
141
0.09
142
0.0
143
25.399999999999999
144
1.0
145
0.5
146
1.0
147
0.09
 71
     1
 72
     0
 73
     1
 74
     0
 75
     0
 76
     0
 77
     2
 78
     0
170
     0
171
     2
172
     0
173
     0
174
     1
175
      0
176
5
177
5
178
     1
271
3
272
3
  0
ENDTAB
  0
TABLE
  2
DIMSTYLE
 70
     2
  0
DIMSTYLE
  2
SAWDIM
 70
     0
  3

  4

  5
_NONE
  6
_NONE
  7
_NONE
 40
1
 41
0.1
 42
0.0625
 43
0.38
 44
0.18
 45
0.00
 46
0.0
 47
0.0
 48
0.0
140
0.5
141
0.09
142
0.0
143
25.399999999999999
144
1.0
145
0.5
146
1.0
147
0.09
 71
     1
 72
     0
 73
     1
 74
     0
 75
     0
 76
     0
 77
     2
 78
     0
170
     0
171
     2
172
     0
173
     0
174
     1
175
      0
176
5
177
5
178
     1
271
3
272
3
  0
ENDTAB
  0
TABLE
  2
VPORT
 70
     1
  0
VPORT
  2
*ACTIVE
 70
     0
 10
0.0
 20
0.0
 11
1.0
 21
1.0
 12
0.0
 22
0.0
 13
0.0
 23
0.0
 14
1.0
 24
1.0
 15
0.0
 25
0.0
 16
0.0
 26
0.0
 36
1.0
 17
0.0
 27
0.0
 37
0.0
 40
84
 41
2.0
 42
50.0
 43
0.0
 44
0.0
 50
0.0
 51
0.0
 71
     0
 72
   100
 73
     1
 74
     0
 75
     1
 76
     0
 77
     0
 78
     0
  0
ENDTAB
  0
ENDSEC
  0
SECTION
  2
ENTITIES
  0
POLYLINE
  8
BORDER_Z0P74
 62
     7
 66
     1
 10
0.0
 20
0.0
 30
0.0
 70
     1
  0
VERTEX
  8
BORDER_Z0P74
 62
     7
 10
0.0
 20
0.0
 30
0.0
  0
VERTEX
  8
BORDER_Z0P74
 62
     7
 10
0.0
 20
28.3567
 30
0.0
  0
VERTEX
  8
BORDER_Z0P74
 62
     7
 10
30.9065
 20
28.3567
 30
0.0
  0
VERTEX
  8
BORDER_Z0P74
 62
     7
 10
30.9065
 20
0.0
 30
0.0
  0
SEQEND
  8
BORDER_Z0P74
 62
     7
  0
POLYLINE
  8
ROUTE_Z0P75LT130
 62
     3
 66
     1
 10
0.0
 20
0.0
 30
0.0
 70
     0
  0
VERTEX
  8
ROUTE_Z0P75LT130
 62
     3
 10
2.682055
 20
-3.90000000010104E-05
 30
0.0
  0
VERTEX
  8
ROUTE_Z0P75LT130
 62
     3
 10
2.682055
 20
20.817099
 30
0.0
  0
VERTEX
  8
ROUTE_Z0P75LT130
 62
     3
 10
-0.100000000000001
 20
20.817099
 30
0.0
  0
SEQEND
  8
ROUTE_Z0P75LT130
 62
     3
  0
POLYLINE
  8
ROUTE_Z0P75RT130
 62
     3
 66
     1
 10
0.0
 20
0.0
 30
0.0
 70
     0
  0
VERTEX
  8
ROUTE_Z0P75RT130
 62
     3
 10
2.682055
 20
-3.89999999903523E-05
 30
0.0
 42
-0.414074461227423
  0
VERTEX
  8
ROUTE_Z0P75RT130
 62
     3
 10
31.006475
 20
28.356958
 30
0.0
  0
SEQEND
  8
ROUTE_Z0P75RT130
 62
     3
  0
POLYLINE
  8
ROUTE_Z0P75LT130
 62
     3
 66
     1
 10
0.0
 20
0.0
 30
0.0
 70
     0
  0
VERTEX
  8
ROUTE_Z0P75LT130
 62
     3
 10
-0.475000000000001
 20
21.567099
 30
0.0
  0
VERTEX
  8
ROUTE_Z0P75LT130
 62
     3
 10
-0.100000000000001
 20
21.567099
 30
0.0
  0
VERTEX
  8
ROUTE_Z0P75LT130
 62
     3
 10
6.166225
 20
21.567099
 30
0.0
  0
VERTEX
  8
ROUTE_Z0P75LT130
 62
     3
 10
6.166225
 20
28.4567
 30
0.0
  0
VERTEX
  8
ROUTE_Z0P75LT130
 62
     3
 10
6.166225
 20
28.8317
 30
0.0
  0
SEQEND
  8
ROUTE_Z0P75LT130
 62
     3
  0
DIMENSION
  8
2D_DIM
  2
*D1
  3
BOARDERDIM
  1
30.906
 10
30.9065
 20
33.3567
 30
0.0
 11
15.45325
 21
33.3567
 31
0.0
 13
0
 23
28.3567
 14
30.9065
 24
28.3567
 33
0.0
 34
0.0
53
0
  0
DIMENSION
  8
2D_DIM
  2
*D1
  3
BOARDERDIM
  1
28.357
 10
-5
 20
28.3567
 30
0.0
 11
-5
 21
14.17835
 31
0
 13
0.0
 23
0
 14
0.0
 24
28.3567
 50
90.0
53
0
 33
0.0
 34
0.0
  0
DIMENSION
  8
2D_DIM
  2
*D1
  3
ROUTEDIM
  1
-0.475
 10
-0.475000000000001
 20
30.8567
 30
0.0
 11
-0.2375
 21
30.8567
 31
0.0
 13
0
 23
28.3567
 14
-0.475000000000001
 24
28.3567
 33
0.0
 34
0.0
53
90
  0
DIMENSION
  8
2D_DIM
  2
*D1
  3
ROUTEDIM
  1
0.375
 10
-0.100000000000001
 20
30.8567
 30
0.0
 11
-0.0500000000000005
 21
30.8567
 31
0.0
 13
-0.475000000000001
 23
28.3567
 14
-0.100000000000001
 24
28.3567
 33
0.0
 34
0.0
53
90
  0
DIMENSION
  8
2D_DIM
  2
*D1
  3
ROUTEDIM
  1
2.782
 10
2.682055
 20
30.8567
 30
0.0
 11
1.3410275
 21
30.8567
 31
0.0
 13
-0.100000000000001
 23
28.3567
 14
2.682055
 24
28.3567
 33
0.0
 34
0.0
53
90
  0
DIMENSION
  8
2D_DIM
  2
*D1
  3
ROUTEDIM
  1
3.484
 10
6.166225
 20
30.8567
 30
0.0
 11
3.0831125
 21
30.8567
 31
0.0
 13
2.682055
 23
28.3567
 14
6.166225
 24
28.3567
 33
0.0
 34
0.0
53
90
  0
DIMENSION
  8
2D_DIM
  2
*D1
  3
ROUTEDIM
  1
24.84
 10
31.006475
 20
30.8567
 30
0.0
 11
15.5032375
 21
30.8567
 31
0.0
 13
6.166225
 23
28.3567
 14
31.006475
 24
28.3567
 33
0.0
 34
0.0
53
90
  0
DIMENSION
  8
2D_DIM
  2
*D1
  3
ROUTEDIM
  1
-0.1
 10
30.9065
 20
30.8567
 30
0.0
 11
15.45325
 21
30.8567
 31
0.0
 13
31.006475
 23
28.3567
 14
30.9065
 24
28.3567
 33
0.0
 34
0.0
53
90
  0
DIMENSION
  8
2D_DIM
  2
*D1
  3
ROUTEDIM
  1
0
 10
-2.5
 20
-3.90000000010104E-05
 30
0.0
 11
-2.5
 21
-1.95000000005052E-05
 31
0
 13
0.0
 23
0
 14
0.0
 24
-3.90000000010104E-05
 50
90.0
53
0
 33
0.0
 34
0.0
  0
DIMENSION
  8
2D_DIM
  2
*D1
  3
ROUTEDIM
  1
20.817
 10
-2.5
 20
20.817099
 30
0.0
 11
-2.5
 21
10.4085495
 31
0
 13
0.0
 23
-3.90000000010104E-05
 14
0.0
 24
20.817099
 50
90.0
53
0
 33
0.0
 34
0.0
  0
DIMENSION
  8
2D_DIM
  2
*D1
  3
ROUTEDIM
  1
0.75
 10
-2.5
 20
21.567099
 30
0.0
 11
-2.5
 21
10.7835495
 31
0
 13
0.0
 23
20.817099
 14
0.0
 24
21.567099
 50
90.0
53
0
 33
0.0
 34
0.0
  0
DIMENSION
  8
2D_DIM
  2
*D1
  3
ROUTEDIM
  1
6.79
 10
-2.5
 20
28.356958
 30
0.0
 11
-2.5
 21
14.178479
 31
0
 13
0.0
 23
21.567099
 14
0.0
 24
28.356958
 50
90.0
53
0
 33
0.0
 34
0.0
  0
DIMENSION
  8
2D_DIM
  2
*D1
  3
ROUTEDIM
  1
0.1
 10
-2.5
 20
28.4567
 30
0.0
 11
-2.5
 21
14.22835
 31
0
 13
0.0
 23
28.356958
 14
0.0
 24
28.4567
 50
90.0
53
0
 33
0.0
 34
0.0
  0
DIMENSION
  8
2D_DIM
  2
*D1
  3
ROUTEDIM
  1
0.375
 10
-2.5
 20
28.8317
 30
0.0
 11
-2.5
 21
14.41585
 31
0
 13
0.0
 23
28.4567
 14
0.0
 24
28.8317
 50
90.0
53
0
 33
0.0
 34
0.0
  0
DIMENSION
  8
2D_DIM
  2
*D1
  3
ROUTEDIM
  1
0.475
 10
-2.5
 20
28.3567
 30
0.0
 11
-2.5
 21
14.17835
 31
0
 13
0.0
 23
28.8317
 14
0.0
 24
28.3567
 50
90.0
53
0
 33
0.0
 34
0.0
  0
DIMENSION
  8
2D_DIM
  2
*D1
  3
ROUTEDIM
  1
31.029
 10
31.0294990977307
 20
0.00952164023846969
 30
0.0
 11
15.5147495488653
 21
0.00952164023846969
 31
0.0
 13
0
 23
0.00952164023846969
 14
31.0294990977307
 24
0.00952164023846969
 33
0.0
 34
0.0
53
90
  0
DIMENSION
  8
2D_DIM
  2
*D1
  3
ROUTEDIM
  1
0.01
 10
31.0294990977307
 20
0.00952164023846969
 30
0.0
 11
31.0294990977307
 21
0.00476082011923484
 31
0
 13
31.0294990977307
 23
0
 14
31.0294990977307
 24
0.00952164023846969
 50
90.0
53
0
 33
0.0
 34
0.0
  0
TEXT
  8
ITEMNUMBER
 62
     1
 10
-7.5
 20
-5
 30
0.0
 40
0.5
  1
M3100.02
  0
TEXT
  8
DESCRIPTION
 62
     1
 10
-7.5
 20
-6
 30
0.0
 40
0.5
  1
subpanel
  0
TEXT
  8
FILENAME
 62
     1
 10
-7.5
 20
-7
 30
0.0
 40
0.5
  1
5600AD5K
  0
TEXT
  8
MATERIALNAME
 62
     1
 10
-7.5
 20
-8
 30
0.0
 40
0.5
  1
PLY/3-4OSB/NAF/4x8
  0
TEXT
  8
Qty
 62
     1
 10
-7.5
 20
-9
 30
0.0
 40
0.5
  1
1
  0
TEXT
  8
RUNFIELD
 62
     1
 10
8
 20
-1
 30
0.0
 40
0.5
  1
Mirrored
  0
ENDSEC
  0
EOF
