  0
SECTION
  2
TABLES
  0
TABLE
  2
DIMSTYLE
 70
     2
  0
DIMSTYLE
  2
BOARDERDIM
 70
     0
  3

  4

  5
_NONE
  6
_NONE
  7
_NONE
 40
1
 41
0.1
 42
0.0625
 43
0.38
 44
0.18
 45
0.00
 46
0.0
 47
0.0
 48
0.0
140
0.5
141
0.09
142
0.0
143
25.399999999999999
144
1.0
145
0.5
146
1.0
147
0.09
 71
     1
 72
     0
 73
     1
 74
     0
 75
     0
 76
     0
 77
     2
 78
     0
170
     0
171
     2
172
     0
173
     0
174
     1
175
      0
176
5
177
5
178
     1
271
3
272
3
  0
ENDTAB
  0
TABLE
  2
DIMSTYLE
 70
     2
  0
DIMSTYLE
  2
VDRILLDIM
 70
     0
  3

  4

  5
_NONE
  6
_NONE
  7
_NONE
 40
1
 41
0.1
 42
0.0625
 43
0.38
 44
0.18
 45
0.00
 46
0.0
 47
0.0
 48
0.0
140
0.5
141
0.09
142
0.0
143
25.399999999999999
144
1.0
145
0.5
146
1.0
147
0.09
 71
     1
 72
     0
 73
     1
 74
     0
 75
     0
 76
     0
 77
     2
 78
     0
170
     0
171
     2
172
     0
173
     0
174
     1
175
      0
176
5
177
5
178
     1
271
3
272
3
  0
ENDTAB
  0
TABLE
  2
DIMSTYLE
 70
     2
  0
DIMSTYLE
  2
HDRILLDIM
 70
     0
  3

  4

  5
_NONE
  6
_NONE
  7
_NONE
 40
1
 41
0.1
 42
0.0625
 43
0.38
 44
0.18
 45
0.00
 46
0.0
 47
0.0
 48
0.0
140
0.5
141
0.09
142
0.0
143
25.399999999999999
144
1.0
145
0.5
146
1.0
147
0.09
 71
     1
 72
     0
 73
     1
 74
     0
 75
     0
 76
     0
 77
     2
 78
     0
170
     0
171
     2
172
     0
173
     0
174
     1
175
      0
176
5
177
5
178
     1
271
3
272
3
  0
ENDTAB
  0
TABLE
  2
DIMSTYLE
 70
     2
  0
DIMSTYLE
  2
ROUTEDIM
 70
     0
  3

  4

  5
_NONE
  6
_NONE
  7
_NONE
 40
1
 41
0.1
 42
0.0625
 43
0.38
 44
0.18
 45
0.00
 46
0.0
 47
0.0
 48
0.0
140
0.5
141
0.09
142
0.0
143
25.399999999999999
144
1.0
145
0.5
146
1.0
147
0.09
 71
     1
 72
     0
 73
     1
 74
     0
 75
     0
 76
     0
 77
     2
 78
     0
170
     0
171
     2
172
     0
173
     0
174
     1
175
      0
176
5
177
5
178
     1
271
3
272
3
  0
ENDTAB
  0
TABLE
  2
DIMSTYLE
 70
     2
  0
DIMSTYLE
  2
SAWDIM
 70
     0
  3

  4

  5
_NONE
  6
_NONE
  7
_NONE
 40
1
 41
0.1
 42
0.0625
 43
0.38
 44
0.18
 45
0.00
 46
0.0
 47
0.0
 48
0.0
140
0.5
141
0.09
142
0.0
143
25.399999999999999
144
1.0
145
0.5
146
1.0
147
0.09
 71
     1
 72
     0
 73
     1
 74
     0
 75
     0
 76
     0
 77
     2
 78
     0
170
     0
171
     2
172
     0
173
     0
174
     1
175
      0
176
5
177
5
178
     1
271
3
272
3
  0
ENDTAB
  0
TABLE
  2
VPORT
 70
     1
  0
VPORT
  2
*ACTIVE
 70
     0
 10
0.0
 20
0.0
 11
1.0
 21
1.0
 12
0.0
 22
0.0
 13
0.0
 23
0.0
 14
1.0
 24
1.0
 15
0.0
 25
0.0
 16
0.0
 26
0.0
 36
1.0
 17
0.0
 27
0.0
 37
0.0
 40
84
 41
2.0
 42
50.0
 43
0.0
 44
0.0
 50
0.0
 51
0.0
 71
     0
 72
   100
 73
     1
 74
     0
 75
     1
 76
     0
 77
     0
 78
     0
  0
ENDTAB
  0
ENDSEC
  0
SECTION
  2
ENTITIES
  0
POLYLINE
  8
BORDER_Z0P5
 62
     7
 66
     1
 10
0.0
 20
0.0
 30
0.0
 70
     1
  0
VERTEX
  8
BORDER_Z0P5
 62
     7
 10
0.0
 20
0.0
 30
0.0
  0
VERTEX
  8
BORDER_Z0P5
 62
     7
 10
0.0
 20
6.7498
 30
0.0
  0
VERTEX
  8
BORDER_Z0P5
 62
     7
 10
6.7496
 20
6.7498
 30
0.0
  0
VERTEX
  8
BORDER_Z0P5
 62
     7
 10
6.7496
 20
0.0
 30
0.0
  0
SEQEND
  8
BORDER_Z0P5
 62
     7
  0
POLYLINE
  8
ROUTE_Z0P5LT130RAMP
 62
     3
 66
     1
 10
0.0
 20
0.0
 30
0.0
 70
     0
  0
VERTEX
  8
ROUTE_Z0P5LT130RAMP
 62
     3
 10
6.185749
 20
0.988314999999999
 30
0.0
 42
0.414213562373095
  0
VERTEX
  8
ROUTE_Z0P5LT130RAMP
 62
     3
 10
5.761485
 20
0.988314999999999
 30
0.0
 42
-0.198912366853231
  0
VERTEX
  8
ROUTE_Z0P5LT130RAMP
 62
     3
 10
3.375
 20
-0.000200000000000422
 30
0.0
 42
-0.41421356
  0
VERTEX
  8
ROUTE_Z0P5LT130RAMP
 62
     3
 10
0
 20
3.3748
 30
0.0
 42
-0.41421356
  0
VERTEX
  8
ROUTE_Z0P5LT130RAMP
 62
     3
 10
3.375
 20
6.7498
 30
0.0
 42
-0.41421356
  0
VERTEX
  8
ROUTE_Z0P5LT130RAMP
 62
     3
 10
6.75
 20
3.3748
 30
0.0
 42
-0.198912366853231
  0
VERTEX
  8
ROUTE_Z0P5LT130RAMP
 62
     3
 10
5.761485
 20
0.988314999999999
 30
0.0
  0
SEQEND
  8
ROUTE_Z0P5LT130RAMP
 62
     3
  0
DIMENSION
  8
2D_DIM
  2
*D1
  3
BOARDERDIM
  1
6.75
 10
6.7496
 20
11.7498
 30
0.0
 11
3.3748
 21
11.7498
 31
0.0
 13
0
 23
6.7498
 14
6.7496
 24
6.7498
 33
0.0
 34
0.0
53
0
  0
DIMENSION
  8
2D_DIM
  2
*D1
  3
BOARDERDIM
  1
6.75
 10
-5
 20
6.7498
 30
0.0
 11
-5
 21
3.3749
 31
0
 13
0.0
 23
0
 14
0.0
 24
6.7498
 50
90.0
53
0
 33
0.0
 34
0.0
  0
DIMENSION
  8
2D_DIM
  2
*D1
  3
ROUTEDIM
  1
0
 10
0
 20
9.2498
 30
0.0
 11
0
 21
9.2498
 31
0.0
 13
0
 23
6.7498
 14
0
 24
6.7498
 33
0.0
 34
0.0
53
90
  0
DIMENSION
  8
2D_DIM
  2
*D1
  3
ROUTEDIM
  1
3.375
 10
3.375
 20
9.2498
 30
0.0
 11
1.6875
 21
9.2498
 31
0.0
 13
0
 23
6.7498
 14
3.375
 24
6.7498
 33
0.0
 34
0.0
53
90
  0
DIMENSION
  8
2D_DIM
  2
*D1
  3
ROUTEDIM
  1
2.386
 10
5.761485
 20
9.2498
 30
0.0
 11
2.8807425
 21
9.2498
 31
0.0
 13
3.375
 23
6.7498
 14
5.761485
 24
6.7498
 33
0.0
 34
0.0
53
90
  0
DIMENSION
  8
2D_DIM
  2
*D1
  3
ROUTEDIM
  1
0.424
 10
6.185749
 20
9.2498
 30
0.0
 11
3.0928745
 21
9.2498
 31
0.0
 13
5.761485
 23
6.7498
 14
6.185749
 24
6.7498
 33
0.0
 34
0.0
53
90
  0
DIMENSION
  8
2D_DIM
  2
*D1
  3
ROUTEDIM
  1
0.564
 10
6.75
 20
9.2498
 30
0.0
 11
3.375
 21
9.2498
 31
0.0
 13
6.185749
 23
6.7498
 14
6.75
 24
6.7498
 33
0.0
 34
0.0
53
90
  0
DIMENSION
  8
2D_DIM
  2
*D1
  3
ROUTEDIM
  1
-0
 10
6.7496
 20
9.2498
 30
0.0
 11
3.3748
 21
9.2498
 31
0.0
 13
6.75
 23
6.7498
 14
6.7496
 24
6.7498
 33
0.0
 34
0.0
53
90
  0
DIMENSION
  8
2D_DIM
  2
*D1
  3
ROUTEDIM
  1
0
 10
-2.5
 20
-0.000200000000000422
 30
0.0
 11
-2.5
 21
-0.000100000000000211
 31
0
 13
0.0
 23
0
 14
0.0
 24
-0.000200000000000422
 50
90.0
53
0
 33
0.0
 34
0.0
  0
DIMENSION
  8
2D_DIM
  2
*D1
  3
ROUTEDIM
  1
0.989
 10
-2.5
 20
0.988314999999999
 30
0.0
 11
-2.5
 21
0.4941575
 31
0
 13
0.0
 23
-0.000200000000000422
 14
0.0
 24
0.988314999999999
 50
90.0
53
0
 33
0.0
 34
0.0
  0
DIMENSION
  8
2D_DIM
  2
*D1
  3
ROUTEDIM
  1
2.386
 10
-2.5
 20
3.3748
 30
0.0
 11
-2.5
 21
1.6874
 31
0
 13
0.0
 23
0.988314999999999
 14
0.0
 24
3.3748
 50
90.0
53
0
 33
0.0
 34
0.0
  0
DIMENSION
  8
2D_DIM
  2
*D1
  3
ROUTEDIM
  1
3.375
 10
-2.5
 20
6.7498
 30
0.0
 11
-2.5
 21
3.3749
 31
0
 13
0.0
 23
3.3748
 14
0.0
 24
6.7498
 50
90.0
53
0
 33
0.0
 34
0.0
  0
DIMENSION
  8
2D_DIM
  2
*D1
  3
ROUTEDIM
  1
0
 10
-2.5
 20
6.7498
 30
0.0
 11
-2.5
 21
3.3749
 31
0
 13
0.0
 23
6.7498
 14
0.0
 24
6.7498
 50
90.0
53
0
 33
0.0
 34
0.0
  0
DIMENSION
  8
2D_DIM
  2
*D1
  3
ROUTEDIM
  1
5.974
 10
5.973617
 20
0.776182999999999
 30
0.0
 11
2.9868085
 21
0.776182999999999
 31
0.0
 13
0
 23
0.776182999999999
 14
5.973617
 24
0.776182999999999
 33
0.0
 34
0.0
53
90
  0
DIMENSION
  8
2D_DIM
  2
*D1
  3
ROUTEDIM
  1
0.776
 10
5.973617
 20
0.776182999999999
 30
0.0
 11
5.973617
 21
0.3880915
 31
0
 13
5.973617
 23
0
 14
5.973617
 24
0.776182999999999
 50
90.0
53
0
 33
0.0
 34
0.0
  0
DIMENSION
  8
2D_DIM
  2
*D1
  3
ROUTEDIM
  1
3.375
 10
3.37499933677724
 20
3.37479973495209
 30
0.0
 11
1.68749966838862
 21
3.37479973495209
 31
0.0
 13
0
 23
3.37479973495209
 14
3.37499933677724
 24
3.37479973495209
 33
0.0
 34
0.0
53
90
  0
DIMENSION
  8
2D_DIM
  2
*D1
  3
ROUTEDIM
  1
3.375
 10
3.37499933677724
 20
3.37479973495209
 30
0.0
 11
3.37499933677724
 21
1.68739986747605
 31
0
 13
3.37499933677724
 23
0
 14
3.37499933677724
 24
3.37479973495209
 50
90.0
53
0
 33
0.0
 34
0.0
  0
DIMENSION
  8
2D_DIM
  2
*D1
  3
ROUTEDIM
  1
3.375
 10
3.37500001367255
 20
3.37480001367255
 30
0.0
 11
1.68750000683628
 21
3.37480001367255
 31
0.0
 13
0
 23
3.37480001367255
 14
3.37500001367255
 24
3.37480001367255
 33
0.0
 34
0.0
53
90
  0
DIMENSION
  8
2D_DIM
  2
*D1
  3
ROUTEDIM
  1
3.375
 10
3.37500001367255
 20
3.37480001367255
 30
0.0
 11
3.37500001367255
 21
1.68740000683628
 31
0
 13
3.37500001367255
 23
0
 14
3.37500001367255
 24
3.37480001367255
 50
90.0
53
0
 33
0.0
 34
0.0
  0
DIMENSION
  8
2D_DIM
  2
*D1
  3
ROUTEDIM
  1
3.375
 10
3.37500001367255
 20
3.37479998632745
 30
0.0
 11
1.68750000683628
 21
3.37479998632745
 31
0.0
 13
0
 23
3.37479998632745
 14
3.37500001367255
 24
3.37479998632745
 33
0.0
 34
0.0
53
90
  0
DIMENSION
  8
2D_DIM
  2
*D1
  3
ROUTEDIM
  1
3.375
 10
3.37500001367255
 20
3.37479998632745
 30
0.0
 11
3.37500001367255
 21
1.68739999316372
 31
0
 13
3.37500001367255
 23
0
 14
3.37500001367255
 24
3.37479998632745
 50
90.0
53
0
 33
0.0
 34
0.0
  0
DIMENSION
  8
2D_DIM
  2
*D1
  3
ROUTEDIM
  1
3.375
 10
3.37499998632745
 20
3.37479998632745
 30
0.0
 11
1.68749999316372
 21
3.37479998632745
 31
0.0
 13
0
 23
3.37479998632745
 14
3.37499998632745
 24
3.37479998632745
 33
0.0
 34
0.0
53
90
  0
DIMENSION
  8
2D_DIM
  2
*D1
  3
ROUTEDIM
  1
3.375
 10
3.37499998632745
 20
3.37479998632745
 30
0.0
 11
3.37499998632745
 21
1.68739999316372
 31
0
 13
3.37499998632745
 23
0
 14
3.37499998632745
 24
3.37479998632745
 50
90.0
53
0
 33
0.0
 34
0.0
  0
DIMENSION
  8
2D_DIM
  2
*D1
  3
ROUTEDIM
  1
3.375
 10
3.37500026504791
 20
3.37480066322276
 30
0.0
 11
1.68750013252395
 21
3.37480066322276
 31
0.0
 13
0
 23
3.37480066322276
 14
3.37500026504791
 24
3.37480066322276
 33
0.0
 34
0.0
53
90
  0
DIMENSION
  8
2D_DIM
  2
*D1
  3
ROUTEDIM
  1
3.375
 10
3.37500026504791
 20
3.37480066322276
 30
0.0
 11
3.37500026504791
 21
1.68740033161138
 31
0
 13
3.37500026504791
 23
0
 14
3.37500026504791
 24
3.37480066322276
 50
90.0
53
0
 33
0.0
 34
0.0
  0
TEXT
  8
ITEMNUMBER
 62
     1
 10
-7.5
 20
-5
 30
0.0
 40
0.5
  1
M3100.00
  0
TEXT
  8
DESCRIPTION
 62
     1
 10
-7.5
 20
-6
 30
0.0
 40
0.5
  1
pl4.3
  0
TEXT
  8
FILENAME
 62
     1
 10
-7.5
 20
-7
 30
0.0
 40
0.5
  1
5600AE58
  0
TEXT
  8
MATERIALNAME
 62
     1
 10
-7.5
 20
-8
 30
0.0
 40
0.5
  1
AB484SEI-PF/1-2PB/WHCL/NAF/4x8
  0
TEXT
  8
Qty
 62
     1
 10
-7.5
 20
-9
 30
0.0
 40
0.5
  1
3
  0
TEXT
  8
RUNFIELD
 62
     1
 10
8
 20
-1
 30
0.0
 40
0.5
  1
Mirrored
  0
ENDSEC
  0
EOF
