  0
SECTION
  2
TABLES
  0
TABLE
  2
DIMSTYLE
 70
     2
  0
DIMSTYLE
  2
BOARDERDIM
 70
     0
  3

  4

  5
_NONE
  6
_NONE
  7
_NONE
 40
1
 41
0.1
 42
0.0625
 43
0.38
 44
0.18
 45
0.00
 46
0.0
 47
0.0
 48
0.0
140
0.5
141
0.09
142
0.0
143
25.399999999999999
144
1.0
145
0.5
146
1.0
147
0.09
 71
     1
 72
     0
 73
     1
 74
     0
 75
     0
 76
     0
 77
     2
 78
     0
170
     0
171
     2
172
     0
173
     0
174
     1
175
      0
176
5
177
5
178
     1
271
3
272
3
  0
ENDTAB
  0
TABLE
  2
DIMSTYLE
 70
     2
  0
DIMSTYLE
  2
VDRILLDIM
 70
     0
  3

  4

  5
_NONE
  6
_NONE
  7
_NONE
 40
1
 41
0.1
 42
0.0625
 43
0.38
 44
0.18
 45
0.00
 46
0.0
 47
0.0
 48
0.0
140
0.5
141
0.09
142
0.0
143
25.399999999999999
144
1.0
145
0.5
146
1.0
147
0.09
 71
     1
 72
     0
 73
     1
 74
     0
 75
     0
 76
     0
 77
     2
 78
     0
170
     0
171
     2
172
     0
173
     0
174
     1
175
      0
176
5
177
5
178
     1
271
3
272
3
  0
ENDTAB
  0
TABLE
  2
DIMSTYLE
 70
     2
  0
DIMSTYLE
  2
HDRILLDIM
 70
     0
  3

  4

  5
_NONE
  6
_NONE
  7
_NONE
 40
1
 41
0.1
 42
0.0625
 43
0.38
 44
0.18
 45
0.00
 46
0.0
 47
0.0
 48
0.0
140
0.5
141
0.09
142
0.0
143
25.399999999999999
144
1.0
145
0.5
146
1.0
147
0.09
 71
     1
 72
     0
 73
     1
 74
     0
 75
     0
 76
     0
 77
     2
 78
     0
170
     0
171
     2
172
     0
173
     0
174
     1
175
      0
176
5
177
5
178
     1
271
3
272
3
  0
ENDTAB
  0
TABLE
  2
DIMSTYLE
 70
     2
  0
DIMSTYLE
  2
ROUTEDIM
 70
     0
  3

  4

  5
_NONE
  6
_NONE
  7
_NONE
 40
1
 41
0.1
 42
0.0625
 43
0.38
 44
0.18
 45
0.00
 46
0.0
 47
0.0
 48
0.0
140
0.5
141
0.09
142
0.0
143
25.399999999999999
144
1.0
145
0.5
146
1.0
147
0.09
 71
     1
 72
     0
 73
     1
 74
     0
 75
     0
 76
     0
 77
     2
 78
     0
170
     0
171
     2
172
     0
173
     0
174
     1
175
      0
176
5
177
5
178
     1
271
3
272
3
  0
ENDTAB
  0
TABLE
  2
DIMSTYLE
 70
     2
  0
DIMSTYLE
  2
SAWDIM
 70
     0
  3

  4

  5
_NONE
  6
_NONE
  7
_NONE
 40
1
 41
0.1
 42
0.0625
 43
0.38
 44
0.18
 45
0.00
 46
0.0
 47
0.0
 48
0.0
140
0.5
141
0.09
142
0.0
143
25.399999999999999
144
1.0
145
0.5
146
1.0
147
0.09
 71
     1
 72
     0
 73
     1
 74
     0
 75
     0
 76
     0
 77
     2
 78
     0
170
     0
171
     2
172
     0
173
     0
174
     1
175
      0
176
5
177
5
178
     1
271
3
272
3
  0
ENDTAB
  0
TABLE
  2
VPORT
 70
     1
  0
VPORT
  2
*ACTIVE
 70
     0
 10
0.0
 20
0.0
 11
1.0
 21
1.0
 12
0.0
 22
0.0
 13
0.0
 23
0.0
 14
1.0
 24
1.0
 15
0.0
 25
0.0
 16
0.0
 26
0.0
 36
1.0
 17
0.0
 27
0.0
 37
0.0
 40
84
 41
2.0
 42
50.0
 43
0.0
 44
0.0
 50
0.0
 51
0.0
 71
     0
 72
   100
 73
     1
 74
     0
 75
     1
 76
     0
 77
     0
 78
     0
  0
ENDTAB
  0
ENDSEC
  0
SECTION
  2
ENTITIES
  0
POLYLINE
  8
BORDER_Z0P04
 62
     7
 66
     1
 10
0.0
 20
0.0
 30
0.0
 70
     1
  0
VERTEX
  8
BORDER_Z0P04
 62
     7
 10
0.0
 20
0.0
 30
0.0
  0
VERTEX
  8
BORDER_Z0P04
 62
     7
 10
0.0
 20
4.789
 30
0.0
  0
VERTEX
  8
BORDER_Z0P04
 62
     7
 10
2.035
 20
4.789
 30
0.0
  0
VERTEX
  8
BORDER_Z0P04
 62
     7
 10
2.035
 20
0.0
 30
0.0
  0
SEQEND
  8
BORDER_Z0P04
 62
     7
  0
POLYLINE
  8
ROUTE_Z0P25LT130RAMP
 62
     3
 66
     1
 10
0.0
 20
0.0
 30
0.0
 70
     0
  0
VERTEX
  8
ROUTE_Z0P25LT130RAMP
 62
     3
 10
-0.264959
 20
1.809299
 30
0.0
 42
0.414213562373095
  0
VERTEX
  8
ROUTE_Z0P25LT130RAMP
 62
     3
 10
0.035041
 20
2.109299
 30
0.0
 42
0.00830564955736796
  0
VERTEX
  8
ROUTE_Z0P25LT130RAMP
 62
     3
 10
0
 20
4.218614
 30
0.0
 42
0.0252241409195642
  0
VERTEX
  8
ROUTE_Z0P25LT130RAMP
 62
     3
 10
1.980206
 20
4.789
 30
0.0
 42
-0.0156883958733367
  0
VERTEX
  8
ROUTE_Z0P25LT130RAMP
 62
     3
 10
2.019437
 20
0.679618
 30
0.0
  0
VERTEX
  8
ROUTE_Z0P25LT130RAMP
 62
     3
 10
0
 20
-1.60000000004601E-05
 30
0.0
 42
0.00830564955736796
  0
VERTEX
  8
ROUTE_Z0P25LT130RAMP
 62
     3
 10
0.035041
 20
2.109299
 30
0.0
  0
SEQEND
  8
ROUTE_Z0P25LT130RAMP
 62
     3
  0
DIMENSION
  8
2D_DIM
  2
*D1
  3
BOARDERDIM
  1
2.035
 10
2.035
 20
9.789
 30
0.0
 11
1.0175
 21
9.789
 31
0.0
 13
0
 23
4.789
 14
2.035
 24
4.789
 33
0.0
 34
0.0
53
0
  0
DIMENSION
  8
2D_DIM
  2
*D1
  3
BOARDERDIM
  1
4.789
 10
-5
 20
4.789
 30
0.0
 11
-5
 21
2.3945
 31
0
 13
0.0
 23
0
 14
0.0
 24
4.789
 50
90.0
53
0
 33
0.0
 34
0.0
  0
DIMENSION
  8
2D_DIM
  2
*D1
  3
ROUTEDIM
  1
-0.265
 10
-0.264959
 20
7.289
 30
0.0
 11
-0.1324795
 21
7.289
 31
0.0
 13
0
 23
4.789
 14
-0.264959
 24
4.789
 33
0.0
 34
0.0
53
90
  0
DIMENSION
  8
2D_DIM
  2
*D1
  3
ROUTEDIM
  1
0.265
 10
0
 20
7.289
 30
0.0
 11
0
 21
7.289
 31
0.0
 13
-0.264959
 23
4.789
 14
0
 24
4.789
 33
0.0
 34
0.0
53
90
  0
DIMENSION
  8
2D_DIM
  2
*D1
  3
ROUTEDIM
  1
0.035
 10
0.035041
 20
7.289
 30
0.0
 11
0.0175205
 21
7.289
 31
0.0
 13
0
 23
4.789
 14
0.035041
 24
4.789
 33
0.0
 34
0.0
53
90
  0
DIMENSION
  8
2D_DIM
  2
*D1
  3
ROUTEDIM
  1
1.945
 10
1.980206
 20
7.289
 30
0.0
 11
0.990103
 21
7.289
 31
0.0
 13
0.035041
 23
4.789
 14
1.980206
 24
4.789
 33
0.0
 34
0.0
53
90
  0
DIMENSION
  8
2D_DIM
  2
*D1
  3
ROUTEDIM
  1
0.039
 10
2.019437
 20
7.289
 30
0.0
 11
1.0097185
 21
7.289
 31
0.0
 13
1.980206
 23
4.789
 14
2.019437
 24
4.789
 33
0.0
 34
0.0
53
90
  0
DIMENSION
  8
2D_DIM
  2
*D1
  3
ROUTEDIM
  1
0.016
 10
2.035
 20
7.289
 30
0.0
 11
1.0175
 21
7.289
 31
0.0
 13
2.019437
 23
4.789
 14
2.035
 24
4.789
 33
0.0
 34
0.0
53
90
  0
DIMENSION
  8
2D_DIM
  2
*D1
  3
ROUTEDIM
  1
0
 10
-2.5
 20
-1.60000000004601E-05
 30
0.0
 11
-2.5
 21
-8.00000000023005E-06
 31
0
 13
0.0
 23
0
 14
0.0
 24
-1.60000000004601E-05
 50
90.0
53
0
 33
0.0
 34
0.0
  0
DIMENSION
  8
2D_DIM
  2
*D1
  3
ROUTEDIM
  1
0.68
 10
-2.5
 20
0.679618
 30
0.0
 11
-2.5
 21
0.339809
 31
0
 13
0.0
 23
-1.60000000004601E-05
 14
0.0
 24
0.679618
 50
90.0
53
0
 33
0.0
 34
0.0
  0
DIMENSION
  8
2D_DIM
  2
*D1
  3
ROUTEDIM
  1
1.13
 10
-2.5
 20
1.809299
 30
0.0
 11
-2.5
 21
0.9046495
 31
0
 13
0.0
 23
0.679618
 14
0.0
 24
1.809299
 50
90.0
53
0
 33
0.0
 34
0.0
  0
DIMENSION
  8
2D_DIM
  2
*D1
  3
ROUTEDIM
  1
0.3
 10
-2.5
 20
2.109299
 30
0.0
 11
-2.5
 21
1.0546495
 31
0
 13
0.0
 23
1.809299
 14
0.0
 24
2.109299
 50
90.0
53
0
 33
0.0
 34
0.0
  0
DIMENSION
  8
2D_DIM
  2
*D1
  3
ROUTEDIM
  1
2.109
 10
-2.5
 20
4.218614
 30
0.0
 11
-2.5
 21
2.109307
 31
0
 13
0.0
 23
2.109299
 14
0.0
 24
4.218614
 50
90.0
53
0
 33
0.0
 34
0.0
  0
DIMENSION
  8
2D_DIM
  2
*D1
  3
ROUTEDIM
  1
0.57
 10
-2.5
 20
4.789
 30
0.0
 11
-2.5
 21
2.3945
 31
0
 13
0.0
 23
4.218614
 14
0.0
 24
4.789
 50
90.0
53
0
 33
0.0
 34
0.0
  0
DIMENSION
  8
2D_DIM
  2
*D1
  3
ROUTEDIM
  1
0
 10
-2.5
 20
4.789
 30
0.0
 11
-2.5
 21
2.3945
 31
0
 13
0.0
 23
4.789
 14
0.0
 24
4.789
 50
90.0
53
0
 33
0.0
 34
0.0
  0
DIMENSION
  8
2D_DIM
  2
*D1
  3
ROUTEDIM
  1
-0.265
 10
-0.264959
 20
2.109299
 30
0.0
 11
-0.1324795
 21
2.109299
 31
0.0
 13
0
 23
2.109299
 14
-0.264959
 24
2.109299
 33
0.0
 34
0.0
53
90
  0
DIMENSION
  8
2D_DIM
  2
*D1
  3
ROUTEDIM
  1
2.109
 10
-0.264959
 20
2.109299
 30
0.0
 11
-0.264959
 21
1.0546495
 31
0
 13
-0.264959
 23
0
 14
-0.264959
 24
2.109299
 50
90.0
53
0
 33
0.0
 34
0.0
  0
DIMENSION
  8
2D_DIM
  2
*D1
  3
ROUTEDIM
  1
-63.468
 10
-63.4684680682909
 20
2.10929537758753
 30
0.0
 11
-31.7342340341455
 21
2.10929537758753
 31
0.0
 13
0
 23
2.10929537758753
 14
-63.4684680682909
 24
2.10929537758753
 33
0.0
 34
0.0
53
90
  0
DIMENSION
  8
2D_DIM
  2
*D1
  3
ROUTEDIM
  1
2.109
 10
-63.4684680682909
 20
2.10929537758753
 30
0.0
 11
-63.4684680682909
 21
1.05464768879377
 31
0
 13
-63.4684680682909
 23
0
 14
-63.4684680682909
 24
2.10929537758753
 50
90.0
53
0
 33
0.0
 34
0.0
  0
DIMENSION
  8
2D_DIM
  2
*D1
  3
ROUTEDIM
  1
-4.659
 10
-4.65947580597279
 20
24.1174192714445
 30
0.0
 11
-2.32973790298639
 21
24.1174192714445
 31
0.0
 13
0
 23
24.1174192714445
 14
-4.65947580597279
 24
24.1174192714445
 33
0.0
 34
0.0
53
90
  0
DIMENSION
  8
2D_DIM
  2
*D1
  3
ROUTEDIM
  1
24.117
 10
-4.65947580597279
 20
24.1174192714445
 30
0.0
 11
-4.65947580597279
 21
12.0587096357223
 31
0
 13
-4.65947580597279
 23
0
 14
-4.65947580597279
 24
24.1174192714445
 50
90.0
53
0
 33
0.0
 34
0.0
  0
DIMENSION
  8
2D_DIM
  2
*D1
  3
ROUTEDIM
  1
-63.468
 10
-63.4684808105258
 20
2.10930335001559
 30
0.0
 11
-31.7342404052629
 21
2.10930335001559
 31
0.0
 13
0
 23
2.10930335001559
 14
-63.4684808105258
 24
2.10930335001559
 33
0.0
 34
0.0
53
90
  0
DIMENSION
  8
2D_DIM
  2
*D1
  3
ROUTEDIM
  1
2.109
 10
-63.4684808105258
 20
2.10930335001559
 30
0.0
 11
-63.4684808105258
 21
1.05465167500779
 31
0
 13
-63.4684808105258
 23
0
 14
-63.4684808105258
 24
2.10930335001559
 50
90.0
53
0
 33
0.0
 34
0.0
  0
DIMENSION
  8
2D_DIM
  2
*D1
  3
ROUTEDIM
  1
-63.468
 10
-63.4684680682909
 20
2.10930262241248
 30
0.0
 11
-31.7342340341455
 21
2.10930262241248
 31
0.0
 13
0
 23
2.10930262241248
 14
-63.4684680682909
 24
2.10930262241248
 33
0.0
 34
0.0
53
90
  0
DIMENSION
  8
2D_DIM
  2
*D1
  3
ROUTEDIM
  1
2.109
 10
-63.4684680682909
 20
2.10930262241248
 30
0.0
 11
-63.4684680682909
 21
1.05465131120624
 31
0
 13
-63.4684680682909
 23
0
 14
-63.4684680682909
 24
2.10930262241248
 50
90.0
53
0
 33
0.0
 34
0.0
  0
TEXT
  8
ITEMNUMBER
 62
     1
 10
-7.5
 20
-5
 30
0.0
 40
0.5
  1
T31106.24
  0
TEXT
  8
DESCRIPTION
 62
     1
 10
-7.5
 20
-6
 30
0.0
 40
0.5
  1
P3A
  0
TEXT
  8
FILENAME
 62
     1
 10
-7.5
 20
-7
 30
0.0
 40
0.5
  1
5600AE7E
  0
TEXT
  8
MATERIALNAME
 62
     1
 10
-7.5
 20
-8
 30
0.0
 40
0.5
  1
AB1826SEI-PF/4x10
  0
TEXT
  8
Qty
 62
     1
 10
-7.5
 20
-9
 30
0.0
 40
0.5
  1
2
  0
TEXT
  8
RUNFIELD
 62
     1
 10
8
 20
-1
 30
0.0
 40
0.5
  1
Mirrored
  0
ENDSEC
  0
EOF
