  0
SECTION
  2
TABLES
  0
TABLE
  2
DIMSTYLE
 70
     2
  0
DIMSTYLE
  2
BOARDERDIM
 70
     0
  3

  4

  5
_NONE
  6
_NONE
  7
_NONE
 40
1
 41
0.1
 42
0.0625
 43
0.38
 44
0.18
 45
0.00
 46
0.0
 47
0.0
 48
0.0
140
0.5
141
0.09
142
0.0
143
25.399999999999999
144
1.0
145
0.5
146
1.0
147
0.09
 71
     1
 72
     0
 73
     1
 74
     0
 75
     0
 76
     0
 77
     2
 78
     0
170
     0
171
     2
172
     0
173
     0
174
     1
175
      0
176
5
177
5
178
     1
271
3
272
3
  0
ENDTAB
  0
TABLE
  2
DIMSTYLE
 70
     2
  0
DIMSTYLE
  2
VDRILLDIM
 70
     0
  3

  4

  5
_NONE
  6
_NONE
  7
_NONE
 40
1
 41
0.1
 42
0.0625
 43
0.38
 44
0.18
 45
0.00
 46
0.0
 47
0.0
 48
0.0
140
0.5
141
0.09
142
0.0
143
25.399999999999999
144
1.0
145
0.5
146
1.0
147
0.09
 71
     1
 72
     0
 73
     1
 74
     0
 75
     0
 76
     0
 77
     2
 78
     0
170
     0
171
     2
172
     0
173
     0
174
     1
175
      0
176
5
177
5
178
     1
271
3
272
3
  0
ENDTAB
  0
TABLE
  2
DIMSTYLE
 70
     2
  0
DIMSTYLE
  2
HDRILLDIM
 70
     0
  3

  4

  5
_NONE
  6
_NONE
  7
_NONE
 40
1
 41
0.1
 42
0.0625
 43
0.38
 44
0.18
 45
0.00
 46
0.0
 47
0.0
 48
0.0
140
0.5
141
0.09
142
0.0
143
25.399999999999999
144
1.0
145
0.5
146
1.0
147
0.09
 71
     1
 72
     0
 73
     1
 74
     0
 75
     0
 76
     0
 77
     2
 78
     0
170
     0
171
     2
172
     0
173
     0
174
     1
175
      0
176
5
177
5
178
     1
271
3
272
3
  0
ENDTAB
  0
TABLE
  2
DIMSTYLE
 70
     2
  0
DIMSTYLE
  2
ROUTEDIM
 70
     0
  3

  4

  5
_NONE
  6
_NONE
  7
_NONE
 40
1
 41
0.1
 42
0.0625
 43
0.38
 44
0.18
 45
0.00
 46
0.0
 47
0.0
 48
0.0
140
0.5
141
0.09
142
0.0
143
25.399999999999999
144
1.0
145
0.5
146
1.0
147
0.09
 71
     1
 72
     0
 73
     1
 74
     0
 75
     0
 76
     0
 77
     2
 78
     0
170
     0
171
     2
172
     0
173
     0
174
     1
175
      0
176
5
177
5
178
     1
271
3
272
3
  0
ENDTAB
  0
TABLE
  2
DIMSTYLE
 70
     2
  0
DIMSTYLE
  2
SAWDIM
 70
     0
  3

  4

  5
_NONE
  6
_NONE
  7
_NONE
 40
1
 41
0.1
 42
0.0625
 43
0.38
 44
0.18
 45
0.00
 46
0.0
 47
0.0
 48
0.0
140
0.5
141
0.09
142
0.0
143
25.399999999999999
144
1.0
145
0.5
146
1.0
147
0.09
 71
     1
 72
     0
 73
     1
 74
     0
 75
     0
 76
     0
 77
     2
 78
     0
170
     0
171
     2
172
     0
173
     0
174
     1
175
      0
176
5
177
5
178
     1
271
3
272
3
  0
ENDTAB
  0
TABLE
  2
VPORT
 70
     1
  0
VPORT
  2
*ACTIVE
 70
     0
 10
0.0
 20
0.0
 11
1.0
 21
1.0
 12
0.0
 22
0.0
 13
0.0
 23
0.0
 14
1.0
 24
1.0
 15
0.0
 25
0.0
 16
0.0
 26
0.0
 36
1.0
 17
0.0
 27
0.0
 37
0.0
 40
84
 41
2.0
 42
50.0
 43
0.0
 44
0.0
 50
0.0
 51
0.0
 71
     0
 72
   100
 73
     1
 74
     0
 75
     1
 76
     0
 77
     0
 78
     0
  0
ENDTAB
  0
ENDSEC
  0
SECTION
  2
ENTITIES
  0
POLYLINE
  8
BORDER_Z0P75
 62
     7
 66
     1
 10
0.0
 20
0.0
 30
0.0
 70
     1
  0
VERTEX
  8
BORDER_Z0P75
 62
     7
 10
0.0
 20
0.0
 30
0.0
  0
VERTEX
  8
BORDER_Z0P75
 62
     7
 10
0.0
 20
48
 30
0.0
  0
VERTEX
  8
BORDER_Z0P75
 62
     7
 10
84
 20
48
 30
0.0
  0
VERTEX
  8
BORDER_Z0P75
 62
     7
 10
84
 20
0.0
 30
0.0
  0
SEQEND
  8
BORDER_Z0P75
 62
     7
  0
POLYLINE
  8
ROUTE_Z0P75LT130RAMP
 62
     3
 66
     1
 10
0.0
 20
0.0
 30
0.0
 70
     0
  0
VERTEX
  8
ROUTE_Z0P75LT130RAMP
 62
     3
 10
84.46773
 20
22.161729
 30
0.0
  0
VERTEX
  8
ROUTE_Z0P75LT130RAMP
 62
     3
 10
84.098968
 20
22.093614
 30
0.0
 42
0.314752211399595
  0
VERTEX
  8
ROUTE_Z0P75LT130RAMP
 62
     3
 10
60.36715
 20
-0.0977859999999993
 30
0.0
  0
VERTEX
  8
ROUTE_Z0P75LT130RAMP
 62
     3
 10
60.274476
 20
-0.461154000000001
 30
0.0
  0
SEQEND
  8
ROUTE_Z0P75LT130RAMP
 62
     3
  0
POLYLINE
  8
ROUTE_Z0P75LT130RAMP
 62
     3
 66
     1
 10
0.0
 20
0.0
 30
0.0
 70
     0
  0
VERTEX
  8
ROUTE_Z0P75LT130RAMP
 62
     3
 10
69.173366
 20
48.458376
 30
0.0
  0
VERTEX
  8
ROUTE_Z0P75LT130RAMP
 62
     3
 10
69.275122
 20
48.097445
 30
0.0
 42
0.317045132816358
  0
VERTEX
  8
ROUTE_Z0P75LT130RAMP
 62
     3
 10
84.099257
 20
34.747218
 30
0.0
  0
VERTEX
  8
ROUTE_Z0P75LT130RAMP
 62
     3
 10
84.468835
 20
34.683678
 30
0.0
  0
SEQEND
  8
ROUTE_Z0P75LT130RAMP
 62
     3
  0
POLYLINE
  8
ROUTE_Z0P375LT130RAMP
 62
     3
 66
     1
 10
0.0
 20
0.0
 30
0.0
 70
     0
  0
VERTEX
  8
ROUTE_Z0P375LT130RAMP
 62
     3
 10
35.14879
 20
48
 30
0.0
  0
VERTEX
  8
ROUTE_Z0P375LT130RAMP
 62
     3
 10
34.64879
 20
48
 30
0.0
  0
VERTEX
  8
ROUTE_Z0P375LT130RAMP
 62
     3
 10
0
 20
48
 30
0.0
  0
VERTEX
  8
ROUTE_Z0P375LT130RAMP
 62
     3
 10
0
 20
0
 30
0.0
  0
VERTEX
  8
ROUTE_Z0P375LT130RAMP
 62
     3
 10
60.388076
 20
0
 30
0.0
  0
VERTEX
  8
ROUTE_Z0P375LT130RAMP
 62
     3
 10
0.8125
 20
0.3125
 30
0.0
  0
VERTEX
  8
ROUTE_Z0P375LT130RAMP
 62
     3
 10
0.8125
 20
47.6875
 30
0.0
  0
VERTEX
  8
ROUTE_Z0P375LT130RAMP
 62
     3
 10
69.37362
 20
47.6875
 30
0.0
  0
VERTEX
  8
ROUTE_Z0P375LT130RAMP
 62
     3
 10
69.29758
 20
48
 30
0.0
  0
VERTEX
  8
ROUTE_Z0P375LT130RAMP
 62
     3
 10
34.64879
 20
48
 30
0.0
  0
SEQEND
  8
ROUTE_Z0P375LT130RAMP
 62
     3
  0
POLYLINE
  8
ROUTE_Z0P375LT130RAMP
 62
     3
 66
     1
 10
0.0
 20
0.0
 30
0.0
 70
     0
  0
VERTEX
  8
ROUTE_Z0P375LT130RAMP
 62
     3
 10
28.765464
 20
3.311918
 30
0.0
  0
VERTEX
  8
ROUTE_Z0P375LT130RAMP
 62
     3
 10
29.020332
 20
2.915336
 30
0.0
  0
VERTEX
  8
ROUTE_Z0P375LT130RAMP
 62
     3
 10
29.2752
 20
2.518754
 30
0.0
  0
VERTEX
  8
ROUTE_Z0P375LT130RAMP
 62
     3
 10
29.987747
 20
1.901328
 30
0.0
  0
VERTEX
  8
ROUTE_Z0P375LT130RAMP
 62
     3
 10
30.845381
 20
1.50966
 30
0.0
  0
VERTEX
  8
ROUTE_Z0P375LT130RAMP
 62
     3
 10
31.77862
 20
1.37548
 30
0.0
 42
1.1841267966578
  0
VERTEX
  8
ROUTE_Z0P375LT130RAMP
 62
     3
 10
31.77862
 20
8.00048
 30
0.0
  0
VERTEX
  8
ROUTE_Z0P375LT130RAMP
 62
     3
 10
30.845381
 20
7.8663
 30
0.0
  0
VERTEX
  8
ROUTE_Z0P375LT130RAMP
 62
     3
 10
29.987747
 20
7.474632
 30
0.0
  0
VERTEX
  8
ROUTE_Z0P375LT130RAMP
 62
     3
 10
29.2752
 20
6.857206
 30
0.0
  0
VERTEX
  8
ROUTE_Z0P375LT130RAMP
 62
     3
 10
28.765464
 20
6.064042
 30
0.0
  0
VERTEX
  8
ROUTE_Z0P375LT130RAMP
 62
     3
 10
28.499836
 20
5.159398
 30
0.0
  0
VERTEX
  8
ROUTE_Z0P375LT130RAMP
 62
     3
 10
28.499836
 20
4.216562
 30
0.0
  0
VERTEX
  8
ROUTE_Z0P375LT130RAMP
 62
     3
 10
28.765464
 20
3.311918
 30
0.0
  0
VERTEX
  8
ROUTE_Z0P375LT130RAMP
 62
     3
 10
29.020332
 20
2.915336
 30
0.0
  0
SEQEND
  8
ROUTE_Z0P375LT130RAMP
 62
     3
  0
POLYLINE
  8
ROUTE_Z0P375LT130RAMP
 62
     3
 66
     1
 10
0.0
 20
0.0
 30
0.0
 70
     0
  0
VERTEX
  8
ROUTE_Z0P375LT130RAMP
 62
     3
 10
2.977623
 20
40.418024
 30
0.0
  0
VERTEX
  8
ROUTE_Z0P375LT130RAMP
 62
     3
 10
3.232491
 20
40.021442
 30
0.0
  0
VERTEX
  8
ROUTE_Z0P375LT130RAMP
 62
     3
 10
3.487359
 20
39.62486
 30
0.0
  0
VERTEX
  8
ROUTE_Z0P375LT130RAMP
 62
     3
 10
4.199907
 20
39.007434
 30
0.0
  0
VERTEX
  8
ROUTE_Z0P375LT130RAMP
 62
     3
 10
5.05754
 20
38.615766
 30
0.0
  0
VERTEX
  8
ROUTE_Z0P375LT130RAMP
 62
     3
 10
5.990779
 20
38.481586
 30
0.0
 42
1.1841267966578
  0
VERTEX
  8
ROUTE_Z0P375LT130RAMP
 62
     3
 10
5.990779
 20
45.106586
 30
0.0
  0
VERTEX
  8
ROUTE_Z0P375LT130RAMP
 62
     3
 10
5.05754
 20
44.972407
 30
0.0
  0
VERTEX
  8
ROUTE_Z0P375LT130RAMP
 62
     3
 10
4.199907
 20
44.580738
 30
0.0
  0
VERTEX
  8
ROUTE_Z0P375LT130RAMP
 62
     3
 10
3.487359
 20
43.963312
 30
0.0
  0
VERTEX
  8
ROUTE_Z0P375LT130RAMP
 62
     3
 10
2.977623
 20
43.170148
 30
0.0
  0
VERTEX
  8
ROUTE_Z0P375LT130RAMP
 62
     3
 10
2.711996
 20
42.265504
 30
0.0
  0
VERTEX
  8
ROUTE_Z0P375LT130RAMP
 62
     3
 10
2.711996
 20
41.322668
 30
0.0
  0
VERTEX
  8
ROUTE_Z0P375LT130RAMP
 62
     3
 10
2.977623
 20
40.418024
 30
0.0
  0
VERTEX
  8
ROUTE_Z0P375LT130RAMP
 62
     3
 10
3.232491
 20
40.021442
 30
0.0
  0
SEQEND
  8
ROUTE_Z0P375LT130RAMP
 62
     3
  0
POLYLINE
  8
ROUTE_Z0P75LT130RAMP
 62
     3
 66
     1
 10
0.0
 20
0.0
 30
0.0
 70
     0
  0
VERTEX
  8
ROUTE_Z0P75LT130RAMP
 62
     3
 10
53.98534
 20
33.8140047077713
 30
0.0
 42
0.41421356
  0
VERTEX
  8
ROUTE_Z0P75LT130RAMP
 62
     3
 10
53.48534
 20
34.3140047077713
 30
0.0
 42
0.41421356
  0
VERTEX
  8
ROUTE_Z0P75LT130RAMP
 62
     3
 10
44.2390352547707
 20
25.067699962542
 30
0.0
 42
0.41421356
  0
VERTEX
  8
ROUTE_Z0P75LT130RAMP
 62
     3
 10
53.48534
 20
15.8213952173127
 30
0.0
 42
0.41421356
  0
VERTEX
  8
ROUTE_Z0P75LT130RAMP
 62
     3
 10
62.7316447452293
 20
25.067699962542
 30
0.0
 42
0.41421356
  0
VERTEX
  8
ROUTE_Z0P75LT130RAMP
 62
     3
 10
53.48534
 20
34.3140047077713
 30
0.0
 42
0.41421356
  0
VERTEX
  8
ROUTE_Z0P75LT130RAMP
 62
     3
 10
52.98534
 20
33.8140047077713
 30
0.0
  0
SEQEND
  8
ROUTE_Z0P75LT130RAMP
 62
     3
  0
POLYLINE
  8
ROUTE_Z0P75LT130RAMP
 62
     3
 66
     1
 10
0.0
 20
0.0
 30
0.0
 70
     0
  0
VERTEX
  8
ROUTE_Z0P75LT130RAMP
 62
     3
 10
32.7696914285714
 20
3.68798
 30
0.0
  0
VERTEX
  8
ROUTE_Z0P75LT130RAMP
 62
     3
 10
32.7696914285714
 20
4.68798
 30
0.0
 42
0.41421356
  0
VERTEX
  8
ROUTE_Z0P75LT130RAMP
 62
     3
 10
32.34112
 20
5.11655142857143
 30
0.0
 42
0.41421356
  0
VERTEX
  8
ROUTE_Z0P75LT130RAMP
 62
     3
 10
31.9125485714286
 20
4.68798
 30
0.0
 42
0.41421356
  0
VERTEX
  8
ROUTE_Z0P75LT130RAMP
 62
     3
 10
32.34112
 20
4.25940857142857
 30
0.0
 42
0.41421356
  0
VERTEX
  8
ROUTE_Z0P75LT130RAMP
 62
     3
 10
32.8339771428571
 20
4.68798
 30
0.0
 42
0.4
  0
VERTEX
  8
ROUTE_Z0P75LT130RAMP
 62
     3
 10
32.34112
 20
5.22369428571429
 30
0.0
 42
0.4
  0
VERTEX
  8
ROUTE_Z0P75LT130RAMP
 62
     3
 10
31.6982628571429
 20
4.68798
 30
0.0
 42
0.4
  0
VERTEX
  8
ROUTE_Z0P75LT130RAMP
 62
     3
 10
32.34112
 20
3.93798
 30
0.0
 42
0.4
  0
VERTEX
  8
ROUTE_Z0P75LT130RAMP
 62
     3
 10
33.1982628571429
 20
4.68798
 30
0.0
 42
0.4
  0
VERTEX
  8
ROUTE_Z0P75LT130RAMP
 62
     3
 10
32.34112
 20
5.65226571428571
 30
0.0
 42
0.4
  0
VERTEX
  8
ROUTE_Z0P75LT130RAMP
 62
     3
 10
31.2696914285714
 20
4.68798
 30
0.0
 42
0.4
  0
VERTEX
  8
ROUTE_Z0P75LT130RAMP
 62
     3
 10
32.34112
 20
3.50940857142858
 30
0.0
 42
0.4
  0
VERTEX
  8
ROUTE_Z0P75LT130RAMP
 62
     3
 10
33.6268342857143
 20
4.68798
 30
0.0
 42
0.4
  0
VERTEX
  8
ROUTE_Z0P75LT130RAMP
 62
     3
 10
32.34112
 20
6.08083714285714
 30
0.0
 42
0.4
  0
VERTEX
  8
ROUTE_Z0P75LT130RAMP
 62
     3
 10
30.84112
 20
4.68798
 30
0.0
 42
0.4
  0
VERTEX
  8
ROUTE_Z0P75LT130RAMP
 62
     3
 10
32.34112
 20
3.08083714285715
 30
0.0
 42
0.4
  0
VERTEX
  8
ROUTE_Z0P75LT130RAMP
 62
     3
 10
34.0554057142857
 20
4.68798
 30
0.0
 42
0.4
  0
VERTEX
  8
ROUTE_Z0P75LT130RAMP
 62
     3
 10
32.34112
 20
6.50940857142857
 30
0.0
 42
0.4
  0
VERTEX
  8
ROUTE_Z0P75LT130RAMP
 62
     3
 10
30.4125485714286
 20
4.68798
 30
0.0
 42
0.4
  0
VERTEX
  8
ROUTE_Z0P75LT130RAMP
 62
     3
 10
32.34112
 20
2.65226571428572
 30
0.0
 42
0.4
  0
VERTEX
  8
ROUTE_Z0P75LT130RAMP
 62
     3
 10
34.4839771428571
 20
4.68798
 30
0.0
 42
0.4
  0
VERTEX
  8
ROUTE_Z0P75LT130RAMP
 62
     3
 10
32.34112
 20
6.93798
 30
0.0
 42
0.4
  0
VERTEX
  8
ROUTE_Z0P75LT130RAMP
 62
     3
 10
29.9839771428571
 20
4.68798
 30
0.0
 42
0.4
  0
VERTEX
  8
ROUTE_Z0P75LT130RAMP
 62
     3
 10
32.34112
 20
2.22369428571429
 30
0.0
 42
0.4
  0
VERTEX
  8
ROUTE_Z0P75LT130RAMP
 62
     3
 10
34.9125485714286
 20
4.68798
 30
0.0
 42
0.4
  0
VERTEX
  8
ROUTE_Z0P75LT130RAMP
 62
     3
 10
32.34112
 20
7.36655142857143
 30
0.0
 42
0.4
  0
VERTEX
  8
ROUTE_Z0P75LT130RAMP
 62
     3
 10
29.5554057142857
 20
4.68798
 30
0.0
 42
0.4
  0
VERTEX
  8
ROUTE_Z0P75LT130RAMP
 62
     3
 10
32.34112
 20
1.79512285714286
 30
0.0
 42
0.4
  0
VERTEX
  8
ROUTE_Z0P75LT130RAMP
 62
     3
 10
35.34112
 20
4.68798
 30
0.0
 42
0.41421356
  0
VERTEX
  8
ROUTE_Z0P75LT130RAMP
 62
     3
 10
32.34112
 20
7.68798
 30
0.0
 42
0.41421356
  0
VERTEX
  8
ROUTE_Z0P75LT130RAMP
 62
     3
 10
29.34112
 20
4.68798
 30
0.0
 42
0.41421356
  0
VERTEX
  8
ROUTE_Z0P75LT130RAMP
 62
     3
 10
32.34112
 20
1.68798
 30
0.0
 42
0.41421356
  0
VERTEX
  8
ROUTE_Z0P75LT130RAMP
 62
     3
 10
35.34112
 20
4.68798
 30
0.0
 42
0.41421356
  0
VERTEX
  8
ROUTE_Z0P75LT130RAMP
 62
     3
 10
32.34112
 20
7.68798
 30
0.0
 42
0.41421356
  0
VERTEX
  8
ROUTE_Z0P75LT130RAMP
 62
     3
 10
29.4482628571429
 20
4.68798
 30
0.0
  0
SEQEND
  8
ROUTE_Z0P75LT130RAMP
 62
     3
  0
POLYLINE
  8
ROUTE_Z0P75LT130RAMP
 62
     3
 66
     1
 10
0.0
 20
0.0
 30
0.0
 70
     0
  0
VERTEX
  8
ROUTE_Z0P75LT130RAMP
 62
     3
 10
6.98185142857143
 20
40.79409
 30
0.0
  0
VERTEX
  8
ROUTE_Z0P75LT130RAMP
 62
     3
 10
6.98185142857143
 20
41.79409
 30
0.0
 42
0.41421356
  0
VERTEX
  8
ROUTE_Z0P75LT130RAMP
 62
     3
 10
6.55328
 20
42.2226614285714
 30
0.0
 42
0.41421356
  0
VERTEX
  8
ROUTE_Z0P75LT130RAMP
 62
     3
 10
6.12470857142857
 20
41.79409
 30
0.0
 42
0.41421356
  0
VERTEX
  8
ROUTE_Z0P75LT130RAMP
 62
     3
 10
6.55328
 20
41.3655185714286
 30
0.0
 42
0.41421356
  0
VERTEX
  8
ROUTE_Z0P75LT130RAMP
 62
     3
 10
7.04613714285714
 20
41.79409
 30
0.0
 42
0.4
  0
VERTEX
  8
ROUTE_Z0P75LT130RAMP
 62
     3
 10
6.55328
 20
42.3298042857143
 30
0.0
 42
0.4
  0
VERTEX
  8
ROUTE_Z0P75LT130RAMP
 62
     3
 10
5.91042285714286
 20
41.79409
 30
0.0
 42
0.4
  0
VERTEX
  8
ROUTE_Z0P75LT130RAMP
 62
     3
 10
6.55328
 20
41.04409
 30
0.0
 42
0.4
  0
VERTEX
  8
ROUTE_Z0P75LT130RAMP
 62
     3
 10
7.41042285714286
 20
41.79409
 30
0.0
 42
0.4
  0
VERTEX
  8
ROUTE_Z0P75LT130RAMP
 62
     3
 10
6.55328
 20
42.7583757142857
 30
0.0
 42
0.4
  0
VERTEX
  8
ROUTE_Z0P75LT130RAMP
 62
     3
 10
5.48185142857143
 20
41.79409
 30
0.0
 42
0.4
  0
VERTEX
  8
ROUTE_Z0P75LT130RAMP
 62
     3
 10
6.55328
 20
40.6155185714286
 30
0.0
 42
0.4
  0
VERTEX
  8
ROUTE_Z0P75LT130RAMP
 62
     3
 10
7.83899428571429
 20
41.79409
 30
0.0
 42
0.4
  0
VERTEX
  8
ROUTE_Z0P75LT130RAMP
 62
     3
 10
6.55328
 20
43.1869471428571
 30
0.0
 42
0.4
  0
VERTEX
  8
ROUTE_Z0P75LT130RAMP
 62
     3
 10
5.05328
 20
41.79409
 30
0.0
 42
0.4
  0
VERTEX
  8
ROUTE_Z0P75LT130RAMP
 62
     3
 10
6.55328
 20
40.1869471428571
 30
0.0
 42
0.4
  0
VERTEX
  8
ROUTE_Z0P75LT130RAMP
 62
     3
 10
8.26756571428571
 20
41.79409
 30
0.0
 42
0.4
  0
VERTEX
  8
ROUTE_Z0P75LT130RAMP
 62
     3
 10
6.55328
 20
43.6155185714286
 30
0.0
 42
0.4
  0
VERTEX
  8
ROUTE_Z0P75LT130RAMP
 62
     3
 10
4.62470857142857
 20
41.79409
 30
0.0
 42
0.4
  0
VERTEX
  8
ROUTE_Z0P75LT130RAMP
 62
     3
 10
6.55328
 20
39.7583757142857
 30
0.0
 42
0.4
  0
VERTEX
  8
ROUTE_Z0P75LT130RAMP
 62
     3
 10
8.69613714285714
 20
41.79409
 30
0.0
 42
0.4
  0
VERTEX
  8
ROUTE_Z0P75LT130RAMP
 62
     3
 10
6.55328
 20
44.04409
 30
0.0
 42
0.4
  0
VERTEX
  8
ROUTE_Z0P75LT130RAMP
 62
     3
 10
4.19613714285714
 20
41.79409
 30
0.0
 42
0.4
  0
VERTEX
  8
ROUTE_Z0P75LT130RAMP
 62
     3
 10
6.55328
 20
39.3298042857143
 30
0.0
 42
0.4
  0
VERTEX
  8
ROUTE_Z0P75LT130RAMP
 62
     3
 10
9.12470857142857
 20
41.79409
 30
0.0
 42
0.4
  0
VERTEX
  8
ROUTE_Z0P75LT130RAMP
 62
     3
 10
6.55328
 20
44.4726614285714
 30
0.0
 42
0.4
  0
VERTEX
  8
ROUTE_Z0P75LT130RAMP
 62
     3
 10
3.76756571428571
 20
41.79409
 30
0.0
 42
0.4
  0
VERTEX
  8
ROUTE_Z0P75LT130RAMP
 62
     3
 10
6.55328
 20
38.9012328571429
 30
0.0
 42
0.4
  0
VERTEX
  8
ROUTE_Z0P75LT130RAMP
 62
     3
 10
9.55328
 20
41.79409
 30
0.0
 42
0.41421356
  0
VERTEX
  8
ROUTE_Z0P75LT130RAMP
 62
     3
 10
6.55328
 20
44.79409
 30
0.0
 42
0.41421356
  0
VERTEX
  8
ROUTE_Z0P75LT130RAMP
 62
     3
 10
3.55328
 20
41.79409
 30
0.0
 42
0.41421356
  0
VERTEX
  8
ROUTE_Z0P75LT130RAMP
 62
     3
 10
6.55328
 20
38.79409
 30
0.0
 42
0.41421356
  0
VERTEX
  8
ROUTE_Z0P75LT130RAMP
 62
     3
 10
9.55328
 20
41.79409
 30
0.0
 42
0.41421356
  0
VERTEX
  8
ROUTE_Z0P75LT130RAMP
 62
     3
 10
6.55328
 20
44.79409
 30
0.0
 42
0.41421356
  0
VERTEX
  8
ROUTE_Z0P75LT130RAMP
 62
     3
 10
3.66042285714286
 20
41.79409
 30
0.0
  0
SEQEND
  8
ROUTE_Z0P75LT130RAMP
 62
     3
  0
POLYLINE
  8
ROUTE_Z0P375LT130RAMP
 62
     3
 66
     1
 10
0.0
 20
0.0
 30
0.0
 70
     1
  0
VERTEX
  8
ROUTE_Z0P375LT130RAMP
 62
     3
 10
3.43711600731808
 20
40.6278674106363
 30
0.0
  0
VERTEX
  8
ROUTE_Z0P375LT130RAMP
 62
     3
 10
3.65311765818979
 20
40.2917625771304
 30
0.0
  0
VERTEX
  8
ROUTE_Z0P375LT130RAMP
 62
     3
 10
3.86911944256876
 20
39.9556575358832
 30
0.0
  0
VERTEX
  8
ROUTE_Z0P375LT130RAMP
 62
     3
 10
4.47300713301755
 20
39.4323861756899
 30
0.0
  0
VERTEX
  8
ROUTE_Z0P375LT130RAMP
 62
     3
 10
5.19985498963835
 20
39.1004457695873
 30
0.0
  0
VERTEX
  8
ROUTE_Z0P375LT130RAMP
 62
     3
 10
6.06847717513423
 20
38.9755562987767
 30
0.0
 42
1.18669034668302
  0
VERTEX
  8
ROUTE_Z0P375LT130RAMP
 62
     3
 10
6.06847692684219
 20
44.6126156585158
 30
0.0
  0
VERTEX
  8
ROUTE_Z0P375LT130RAMP
 62
     3
 10
5.19985498963841
 20
44.4877271541647
 30
0.0
  0
VERTEX
  8
ROUTE_Z0P375LT130RAMP
 62
     3
 10
4.4730073190694
 20
44.1557859855249
 30
0.0
  0
VERTEX
  8
ROUTE_Z0P375LT130RAMP
 62
     3
 10
3.86911944256876
 20
43.6325144641168
 30
0.0
  0
VERTEX
  8
ROUTE_Z0P375LT130RAMP
 62
     3
 10
3.43711600731808
 20
42.9603045893637
 30
0.0
  0
VERTEX
  8
ROUTE_Z0P375LT130RAMP
 62
     3
 10
3.211996
 20
42.1936149685786
 30
0.0
  0
VERTEX
  8
ROUTE_Z0P375LT130RAMP
 62
     3
 10
3.211996
 20
41.3945570314214
 30
0.0
  0
SEQEND
  8
ROUTE_Z0P375LT130RAMP
 62
     3
  0
POLYLINE
  8
ROUTE_Z0P375LT130RAMP
 62
     3
 66
     1
 10
0.0
 20
0.0
 30
0.0
 70
     1
  0
VERTEX
  8
ROUTE_Z0P375LT130RAMP
 62
     3
 10
29.2249568669264
 20
3.52176162908982
 30
0.0
  0
VERTEX
  8
ROUTE_Z0P375LT130RAMP
 62
     3
 10
29.4409586581898
 20
3.18565657713037
 30
0.0
  0
VERTEX
  8
ROUTE_Z0P375LT130RAMP
 62
     3
 10
29.656960538387
 20
2.84955138678716
 30
0.0
  0
VERTEX
  8
ROUTE_Z0P375LT130RAMP
 62
     3
 10
30.2608472092654
 20
2.32628017568988
 30
0.0
  0
VERTEX
  8
ROUTE_Z0P375LT130RAMP
 62
     3
 10
30.9876958783553
 20
1.99433978558747
 30
0.0
  0
VERTEX
  8
ROUTE_Z0P375LT130RAMP
 62
     3
 10
31.8563181751343
 20
1.86945029877669
 30
0.0
 42
1.186690293646
  0
VERTEX
  8
ROUTE_Z0P375LT130RAMP
 62
     3
 10
31.8563181751343
 20
7.50650970122332
 30
0.0
  0
VERTEX
  8
ROUTE_Z0P375LT130RAMP
 62
     3
 10
30.9876958783553
 20
7.38162021441253
 30
0.0
  0
VERTEX
  8
ROUTE_Z0P375LT130RAMP
 62
     3
 10
30.2608472092654
 20
7.04967982431012
 30
0.0
  0
VERTEX
  8
ROUTE_Z0P375LT130RAMP
 62
     3
 10
29.6569605383871
 20
6.52640861321285
 30
0.0
  0
VERTEX
  8
ROUTE_Z0P375LT130RAMP
 62
     3
 10
29.2249568669264
 20
5.85419837091017
 30
0.0
  0
VERTEX
  8
ROUTE_Z0P375LT130RAMP
 62
     3
 10
28.999836
 20
5.08750870890243
 30
0.0
  0
VERTEX
  8
ROUTE_Z0P375LT130RAMP
 62
     3
 10
28.999836
 20
4.28845129109758
 30
0.0
  0
SEQEND
  8
ROUTE_Z0P375LT130RAMP
 62
     3
  0
DIMENSION
  8
2D_DIM
  2
*D1
  3
BOARDERDIM
  1
84
 10
84
 20
53
 30
0.0
 11
42
 21
53
 31
0.0
 13
0
 23
48
 14
84
 24
48
 33
0.0
 34
0.0
53
0
  0
DIMENSION
  8
2D_DIM
  2
*D1
  3
BOARDERDIM
  1
48
 10
-5
 20
48
 30
0.0
 11
-5
 21
24
 31
0
 13
0.0
 23
0
 14
0.0
 24
48
 50
90.0
53
0
 33
0.0
 34
0.0
  0
DIMENSION
  8
2D_DIM
  2
*D1
  3
ROUTEDIM
  1
0
 10
0
 20
50.5
 30
0.0
 11
0
 21
50.5
 31
0.0
 13
0
 23
48
 14
0
 24
48
 33
0.0
 34
0.0
53
90
  0
DIMENSION
  8
2D_DIM
  2
*D1
  3
ROUTEDIM
  1
0.812
 10
0.8125
 20
50.5
 30
0.0
 11
0.40625
 21
50.5
 31
0.0
 13
0
 23
48
 14
0.8125
 24
48
 33
0.0
 34
0.0
53
90
  0
DIMENSION
  8
2D_DIM
  2
*D1
  3
ROUTEDIM
  1
1.899
 10
2.711996
 20
50.5
 30
0.0
 11
1.355998
 21
50.5
 31
0.0
 13
0.8125
 23
48
 14
2.711996
 24
48
 33
0.0
 34
0.0
53
90
  0
DIMENSION
  8
2D_DIM
  2
*D1
  3
ROUTEDIM
  1
0.266
 10
2.977623
 20
50.5
 30
0.0
 11
1.4888115
 21
50.5
 31
0.0
 13
2.711996
 23
48
 14
2.977623
 24
48
 33
0.0
 34
0.0
53
90
  0
DIMENSION
  8
2D_DIM
  2
*D1
  3
ROUTEDIM
  1
0.234
 10
3.211996
 20
50.5
 30
0.0
 11
1.605998
 21
50.5
 31
0.0
 13
2.977623
 23
48
 14
3.211996
 24
48
 33
0.0
 34
0.0
53
90
  0
DIMENSION
  8
2D_DIM
  2
*D1
  3
ROUTEDIM
  1
0.02
 10
3.232491
 20
50.5
 30
0.0
 11
1.6162455
 21
50.5
 31
0.0
 13
3.211996
 23
48
 14
3.232491
 24
48
 33
0.0
 34
0.0
53
90
  0
DIMENSION
  8
2D_DIM
  2
*D1
  3
ROUTEDIM
  1
0.205
 10
3.43711600731808
 20
50.5
 30
0.0
 11
1.71855800365904
 21
50.5
 31
0.0
 13
3.232491
 23
48
 14
3.43711600731808
 24
48
 33
0.0
 34
0.0
53
90
  0
DIMENSION
  8
2D_DIM
  2
*D1
  3
ROUTEDIM
  1
0.05
 10
3.487359
 20
50.5
 30
0.0
 11
1.7436795
 21
50.5
 31
0.0
 13
3.43711600731808
 23
48
 14
3.487359
 24
48
 33
0.0
 34
0.0
53
90
  0
DIMENSION
  8
2D_DIM
  2
*D1
  3
ROUTEDIM
  1
0.066
 10
3.55328
 20
50.5
 30
0.0
 11
1.77664
 21
50.5
 31
0.0
 13
3.487359
 23
48
 14
3.55328
 24
48
 33
0.0
 34
0.0
53
90
  0
DIMENSION
  8
2D_DIM
  2
*D1
  3
ROUTEDIM
  1
0.1
 10
3.65311765818979
 20
50.5
 30
0.0
 11
1.8265588290949
 21
50.5
 31
0.0
 13
3.55328
 23
48
 14
3.65311765818979
 24
48
 33
0.0
 34
0.0
53
90
  0
DIMENSION
  8
2D_DIM
  2
*D1
  3
ROUTEDIM
  1
0.007
 10
3.66042285714286
 20
50.5
 30
0.0
 11
1.83021142857143
 21
50.5
 31
0.0
 13
3.65311765818979
 23
48
 14
3.66042285714286
 24
48
 33
0.0
 34
0.0
53
90
  0
DIMENSION
  8
2D_DIM
  2
*D1
  3
ROUTEDIM
  1
0.107
 10
3.76756571428571
 20
50.5
 30
0.0
 11
1.88378285714285
 21
50.5
 31
0.0
 13
3.66042285714286
 23
48
 14
3.76756571428571
 24
48
 33
0.0
 34
0.0
53
90
  0
DIMENSION
  8
2D_DIM
  2
*D1
  3
ROUTEDIM
  1
0.102
 10
3.86911944256876
 20
50.5
 30
0.0
 11
1.93455972128438
 21
50.5
 31
0.0
 13
3.76756571428571
 23
48
 14
3.86911944256876
 24
48
 33
0.0
 34
0.0
53
90
  0
DIMENSION
  8
2D_DIM
  2
*D1
  3
ROUTEDIM
  1
0.327
 10
4.19613714285714
 20
50.5
 30
0.0
 11
2.09806857142857
 21
50.5
 31
0.0
 13
3.86911944256876
 23
48
 14
4.19613714285714
 24
48
 33
0.0
 34
0.0
53
90
  0
DIMENSION
  8
2D_DIM
  2
*D1
  3
ROUTEDIM
  1
0.004
 10
4.199907
 20
50.5
 30
0.0
 11
2.0999535
 21
50.5
 31
0.0
 13
4.19613714285714
 23
48
 14
4.199907
 24
48
 33
0.0
 34
0.0
53
90
  0
DIMENSION
  8
2D_DIM
  2
*D1
  3
ROUTEDIM
  1
0.273
 10
4.47300713301755
 20
50.5
 30
0.0
 11
2.23650356650877
 21
50.5
 31
0.0
 13
4.199907
 23
48
 14
4.47300713301755
 24
48
 33
0.0
 34
0.0
53
90
  0
DIMENSION
  8
2D_DIM
  2
*D1
  3
ROUTEDIM
  1
0.152
 10
4.62470857142857
 20
50.5
 30
0.0
 11
2.31235428571429
 21
50.5
 31
0.0
 13
4.47300713301755
 23
48
 14
4.62470857142857
 24
48
 33
0.0
 34
0.0
53
90
  0
DIMENSION
  8
2D_DIM
  2
*D1
  3
ROUTEDIM
  1
0.429
 10
5.05328
 20
50.5
 30
0.0
 11
2.52664
 21
50.5
 31
0.0
 13
4.62470857142857
 23
48
 14
5.05328
 24
48
 33
0.0
 34
0.0
53
90
  0
DIMENSION
  8
2D_DIM
  2
*D1
  3
ROUTEDIM
  1
0.004
 10
5.05754
 20
50.5
 30
0.0
 11
2.52877
 21
50.5
 31
0.0
 13
5.05328
 23
48
 14
5.05754
 24
48
 33
0.0
 34
0.0
53
90
  0
DIMENSION
  8
2D_DIM
  2
*D1
  3
ROUTEDIM
  1
0.142
 10
5.19985498963835
 20
50.5
 30
0.0
 11
2.59992749481918
 21
50.5
 31
0.0
 13
5.05754
 23
48
 14
5.19985498963835
 24
48
 33
0.0
 34
0.0
53
90
  0
DIMENSION
  8
2D_DIM
  2
*D1
  3
ROUTEDIM
  1
0.282
 10
5.48185142857143
 20
50.5
 30
0.0
 11
2.74092571428571
 21
50.5
 31
0.0
 13
5.19985498963835
 23
48
 14
5.48185142857143
 24
48
 33
0.0
 34
0.0
53
90
  0
DIMENSION
  8
2D_DIM
  2
*D1
  3
ROUTEDIM
  1
0.429
 10
5.91042285714286
 20
50.5
 30
0.0
 11
2.95521142857143
 21
50.5
 31
0.0
 13
5.48185142857143
 23
48
 14
5.91042285714286
 24
48
 33
0.0
 34
0.0
53
90
  0
DIMENSION
  8
2D_DIM
  2
*D1
  3
ROUTEDIM
  1
0.08
 10
5.990779
 20
50.5
 30
0.0
 11
2.9953895
 21
50.5
 31
0.0
 13
5.91042285714286
 23
48
 14
5.990779
 24
48
 33
0.0
 34
0.0
53
90
  0
DIMENSION
  8
2D_DIM
  2
*D1
  3
ROUTEDIM
  1
0.078
 10
6.06847692684219
 20
50.5
 30
0.0
 11
3.0342384634211
 21
50.5
 31
0.0
 13
5.990779
 23
48
 14
6.06847692684219
 24
48
 33
0.0
 34
0.0
53
90
  0
DIMENSION
  8
2D_DIM
  2
*D1
  3
ROUTEDIM
  1
0.056
 10
6.12470857142857
 20
50.5
 30
0.0
 11
3.06235428571429
 21
50.5
 31
0.0
 13
6.06847692684219
 23
48
 14
6.12470857142857
 24
48
 33
0.0
 34
0.0
53
90
  0
DIMENSION
  8
2D_DIM
  2
*D1
  3
ROUTEDIM
  1
0.429
 10
6.55328
 20
50.5
 30
0.0
 11
3.27664
 21
50.5
 31
0.0
 13
6.12470857142857
 23
48
 14
6.55328
 24
48
 33
0.0
 34
0.0
53
90
  0
DIMENSION
  8
2D_DIM
  2
*D1
  3
ROUTEDIM
  1
0.429
 10
6.98185142857143
 20
50.5
 30
0.0
 11
3.49092571428571
 21
50.5
 31
0.0
 13
6.55328
 23
48
 14
6.98185142857143
 24
48
 33
0.0
 34
0.0
53
90
  0
DIMENSION
  8
2D_DIM
  2
*D1
  3
ROUTEDIM
  1
0.064
 10
7.04613714285714
 20
50.5
 30
0.0
 11
3.52306857142857
 21
50.5
 31
0.0
 13
6.98185142857143
 23
48
 14
7.04613714285714
 24
48
 33
0.0
 34
0.0
53
90
  0
DIMENSION
  8
2D_DIM
  2
*D1
  3
ROUTEDIM
  1
0.364
 10
7.41042285714286
 20
50.5
 30
0.0
 11
3.70521142857143
 21
50.5
 31
0.0
 13
7.04613714285714
 23
48
 14
7.41042285714286
 24
48
 33
0.0
 34
0.0
53
90
  0
DIMENSION
  8
2D_DIM
  2
*D1
  3
ROUTEDIM
  1
0.429
 10
7.83899428571429
 20
50.5
 30
0.0
 11
3.91949714285715
 21
50.5
 31
0.0
 13
7.41042285714286
 23
48
 14
7.83899428571429
 24
48
 33
0.0
 34
0.0
53
90
  0
DIMENSION
  8
2D_DIM
  2
*D1
  3
ROUTEDIM
  1
0.429
 10
8.26756571428571
 20
50.5
 30
0.0
 11
4.13378285714286
 21
50.5
 31
0.0
 13
7.83899428571429
 23
48
 14
8.26756571428571
 24
48
 33
0.0
 34
0.0
53
90
  0
DIMENSION
  8
2D_DIM
  2
*D1
  3
ROUTEDIM
  1
0.429
 10
8.69613714285714
 20
50.5
 30
0.0
 11
4.34806857142857
 21
50.5
 31
0.0
 13
8.26756571428571
 23
48
 14
8.69613714285714
 24
48
 33
0.0
 34
0.0
53
90
  0
DIMENSION
  8
2D_DIM
  2
*D1
  3
ROUTEDIM
  1
0.429
 10
9.12470857142857
 20
50.5
 30
0.0
 11
4.56235428571429
 21
50.5
 31
0.0
 13
8.69613714285714
 23
48
 14
9.12470857142857
 24
48
 33
0.0
 34
0.0
53
90
  0
DIMENSION
  8
2D_DIM
  2
*D1
  3
ROUTEDIM
  1
0.429
 10
9.55328
 20
50.5
 30
0.0
 11
4.77664
 21
50.5
 31
0.0
 13
9.12470857142857
 23
48
 14
9.55328
 24
48
 33
0.0
 34
0.0
53
90
  0
DIMENSION
  8
2D_DIM
  2
*D1
  3
ROUTEDIM
  1
18.947
 10
28.499836
 20
50.5
 30
0.0
 11
14.249918
 21
50.5
 31
0.0
 13
9.55328
 23
48
 14
28.499836
 24
48
 33
0.0
 34
0.0
53
90
  0
DIMENSION
  8
2D_DIM
  2
*D1
  3
ROUTEDIM
  1
0.266
 10
28.765464
 20
50.5
 30
0.0
 11
14.382732
 21
50.5
 31
0.0
 13
28.499836
 23
48
 14
28.765464
 24
48
 33
0.0
 34
0.0
53
90
  0
DIMENSION
  8
2D_DIM
  2
*D1
  3
ROUTEDIM
  1
0.234
 10
28.999836
 20
50.5
 30
0.0
 11
14.499918
 21
50.5
 31
0.0
 13
28.765464
 23
48
 14
28.999836
 24
48
 33
0.0
 34
0.0
53
90
  0
DIMENSION
  8
2D_DIM
  2
*D1
  3
ROUTEDIM
  1
0.02
 10
29.020332
 20
50.5
 30
0.0
 11
14.510166
 21
50.5
 31
0.0
 13
28.999836
 23
48
 14
29.020332
 24
48
 33
0.0
 34
0.0
53
90
  0
DIMENSION
  8
2D_DIM
  2
*D1
  3
ROUTEDIM
  1
0.205
 10
29.2249568669264
 20
50.5
 30
0.0
 11
14.6124784334632
 21
50.5
 31
0.0
 13
29.020332
 23
48
 14
29.2249568669264
 24
48
 33
0.0
 34
0.0
53
90
  0
DIMENSION
  8
2D_DIM
  2
*D1
  3
ROUTEDIM
  1
0.05
 10
29.2752
 20
50.5
 30
0.0
 11
14.6376
 21
50.5
 31
0.0
 13
29.2249568669264
 23
48
 14
29.2752
 24
48
 33
0.0
 34
0.0
53
90
  0
DIMENSION
  8
2D_DIM
  2
*D1
  3
ROUTEDIM
  1
0.066
 10
29.34112
 20
50.5
 30
0.0
 11
14.67056
 21
50.5
 31
0.0
 13
29.2752
 23
48
 14
29.34112
 24
48
 33
0.0
 34
0.0
53
90
  0
DIMENSION
  8
2D_DIM
  2
*D1
  3
ROUTEDIM
  1
0.1
 10
29.4409586581898
 20
50.5
 30
0.0
 11
14.7204793290949
 21
50.5
 31
0.0
 13
29.34112
 23
48
 14
29.4409586581898
 24
48
 33
0.0
 34
0.0
53
90
  0
DIMENSION
  8
2D_DIM
  2
*D1
  3
ROUTEDIM
  1
0.007
 10
29.4482628571429
 20
50.5
 30
0.0
 11
14.7241314285715
 21
50.5
 31
0.0
 13
29.4409586581898
 23
48
 14
29.4482628571429
 24
48
 33
0.0
 34
0.0
53
90
  0
DIMENSION
  8
2D_DIM
  2
*D1
  3
ROUTEDIM
  1
0.107
 10
29.5554057142857
 20
50.5
 30
0.0
 11
14.7777028571429
 21
50.5
 31
0.0
 13
29.4482628571429
 23
48
 14
29.5554057142857
 24
48
 33
0.0
 34
0.0
53
90
  0
DIMENSION
  8
2D_DIM
  2
*D1
  3
ROUTEDIM
  1
0.102
 10
29.656960538387
 20
50.5
 30
0.0
 11
14.8284802691935
 21
50.5
 31
0.0
 13
29.5554057142857
 23
48
 14
29.656960538387
 24
48
 33
0.0
 34
0.0
53
90
  0
DIMENSION
  8
2D_DIM
  2
*D1
  3
ROUTEDIM
  1
0.327
 10
29.9839771428571
 20
50.5
 30
0.0
 11
14.9919885714285
 21
50.5
 31
0.0
 13
29.656960538387
 23
48
 14
29.9839771428571
 24
48
 33
0.0
 34
0.0
53
90
  0
DIMENSION
  8
2D_DIM
  2
*D1
  3
ROUTEDIM
  1
0.004
 10
29.987747
 20
50.5
 30
0.0
 11
14.9938735
 21
50.5
 31
0.0
 13
29.9839771428571
 23
48
 14
29.987747
 24
48
 33
0.0
 34
0.0
53
90
  0
DIMENSION
  8
2D_DIM
  2
*D1
  3
ROUTEDIM
  1
0.273
 10
30.2608472092654
 20
50.5
 30
0.0
 11
15.1304236046327
 21
50.5
 31
0.0
 13
29.987747
 23
48
 14
30.2608472092654
 24
48
 33
0.0
 34
0.0
53
90
  0
DIMENSION
  8
2D_DIM
  2
*D1
  3
ROUTEDIM
  1
0.152
 10
30.4125485714286
 20
50.5
 30
0.0
 11
15.2062742857143
 21
50.5
 31
0.0
 13
30.2608472092654
 23
48
 14
30.4125485714286
 24
48
 33
0.0
 34
0.0
53
90
  0
DIMENSION
  8
2D_DIM
  2
*D1
  3
ROUTEDIM
  1
0.429
 10
30.84112
 20
50.5
 30
0.0
 11
15.42056
 21
50.5
 31
0.0
 13
30.4125485714286
 23
48
 14
30.84112
 24
48
 33
0.0
 34
0.0
53
90
  0
DIMENSION
  8
2D_DIM
  2
*D1
  3
ROUTEDIM
  1
0.004
 10
30.845381
 20
50.5
 30
0.0
 11
15.4226905
 21
50.5
 31
0.0
 13
30.84112
 23
48
 14
30.845381
 24
48
 33
0.0
 34
0.0
53
90
  0
DIMENSION
  8
2D_DIM
  2
*D1
  3
ROUTEDIM
  1
0.142
 10
30.9876958783553
 20
50.5
 30
0.0
 11
15.4938479391777
 21
50.5
 31
0.0
 13
30.845381
 23
48
 14
30.9876958783553
 24
48
 33
0.0
 34
0.0
53
90
  0
DIMENSION
  8
2D_DIM
  2
*D1
  3
ROUTEDIM
  1
0.282
 10
31.2696914285714
 20
50.5
 30
0.0
 11
15.6348457142857
 21
50.5
 31
0.0
 13
30.9876958783553
 23
48
 14
31.2696914285714
 24
48
 33
0.0
 34
0.0
53
90
  0
DIMENSION
  8
2D_DIM
  2
*D1
  3
ROUTEDIM
  1
0.429
 10
31.6982628571429
 20
50.5
 30
0.0
 11
15.8491314285715
 21
50.5
 31
0.0
 13
31.2696914285714
 23
48
 14
31.6982628571429
 24
48
 33
0.0
 34
0.0
53
90
  0
DIMENSION
  8
2D_DIM
  2
*D1
  3
ROUTEDIM
  1
0.08
 10
31.77862
 20
50.5
 30
0.0
 11
15.88931
 21
50.5
 31
0.0
 13
31.6982628571429
 23
48
 14
31.77862
 24
48
 33
0.0
 34
0.0
53
90
  0
DIMENSION
  8
2D_DIM
  2
*D1
  3
ROUTEDIM
  1
0.078
 10
31.8563181751343
 20
50.5
 30
0.0
 11
15.9281590875672
 21
50.5
 31
0.0
 13
31.77862
 23
48
 14
31.8563181751343
 24
48
 33
0.0
 34
0.0
53
90
  0
DIMENSION
  8
2D_DIM
  2
*D1
  3
ROUTEDIM
  1
0.056
 10
31.9125485714286
 20
50.5
 30
0.0
 11
15.9562742857143
 21
50.5
 31
0.0
 13
31.8563181751343
 23
48
 14
31.9125485714286
 24
48
 33
0.0
 34
0.0
53
90
  0
DIMENSION
  8
2D_DIM
  2
*D1
  3
ROUTEDIM
  1
0.429
 10
32.34112
 20
50.5
 30
0.0
 11
16.17056
 21
50.5
 31
0.0
 13
31.9125485714286
 23
48
 14
32.34112
 24
48
 33
0.0
 34
0.0
53
90
  0
DIMENSION
  8
2D_DIM
  2
*D1
  3
ROUTEDIM
  1
0.429
 10
32.7696914285714
 20
50.5
 30
0.0
 11
16.3848457142857
 21
50.5
 31
0.0
 13
32.34112
 23
48
 14
32.7696914285714
 24
48
 33
0.0
 34
0.0
53
90
  0
DIMENSION
  8
2D_DIM
  2
*D1
  3
ROUTEDIM
  1
0.064
 10
32.8339771428571
 20
50.5
 30
0.0
 11
16.4169885714286
 21
50.5
 31
0.0
 13
32.7696914285714
 23
48
 14
32.8339771428571
 24
48
 33
0.0
 34
0.0
53
90
  0
DIMENSION
  8
2D_DIM
  2
*D1
  3
ROUTEDIM
  1
0.364
 10
33.1982628571429
 20
50.5
 30
0.0
 11
16.5991314285715
 21
50.5
 31
0.0
 13
32.8339771428571
 23
48
 14
33.1982628571429
 24
48
 33
0.0
 34
0.0
53
90
  0
DIMENSION
  8
2D_DIM
  2
*D1
  3
ROUTEDIM
  1
0.429
 10
33.6268342857143
 20
50.5
 30
0.0
 11
16.8134171428572
 21
50.5
 31
0.0
 13
33.1982628571429
 23
48
 14
33.6268342857143
 24
48
 33
0.0
 34
0.0
53
90
  0
DIMENSION
  8
2D_DIM
  2
*D1
  3
ROUTEDIM
  1
0.429
 10
34.0554057142857
 20
50.5
 30
0.0
 11
17.0277028571428
 21
50.5
 31
0.0
 13
33.6268342857143
 23
48
 14
34.0554057142857
 24
48
 33
0.0
 34
0.0
53
90
  0
DIMENSION
  8
2D_DIM
  2
*D1
  3
ROUTEDIM
  1
0.429
 10
34.4839771428571
 20
50.5
 30
0.0
 11
17.2419885714285
 21
50.5
 31
0.0
 13
34.0554057142857
 23
48
 14
34.4839771428571
 24
48
 33
0.0
 34
0.0
53
90
  0
DIMENSION
  8
2D_DIM
  2
*D1
  3
ROUTEDIM
  1
0.165
 10
34.64879
 20
50.5
 30
0.0
 11
17.324395
 21
50.5
 31
0.0
 13
34.4839771428571
 23
48
 14
34.64879
 24
48
 33
0.0
 34
0.0
53
90
  0
DIMENSION
  8
2D_DIM
  2
*D1
  3
ROUTEDIM
  1
0.264
 10
34.9125485714286
 20
50.5
 30
0.0
 11
17.4562742857143
 21
50.5
 31
0.0
 13
34.64879
 23
48
 14
34.9125485714286
 24
48
 33
0.0
 34
0.0
53
90
  0
DIMENSION
  8
2D_DIM
  2
*D1
  3
ROUTEDIM
  1
0.236
 10
35.14879
 20
50.5
 30
0.0
 11
17.574395
 21
50.5
 31
0.0
 13
34.9125485714286
 23
48
 14
35.14879
 24
48
 33
0.0
 34
0.0
53
90
  0
DIMENSION
  8
2D_DIM
  2
*D1
  3
ROUTEDIM
  1
0.192
 10
35.34112
 20
50.5
 30
0.0
 11
17.67056
 21
50.5
 31
0.0
 13
35.14879
 23
48
 14
35.34112
 24
48
 33
0.0
 34
0.0
53
90
  0
DIMENSION
  8
2D_DIM
  2
*D1
  3
ROUTEDIM
  1
8.898
 10
44.2390352547707
 20
50.5
 30
0.0
 11
22.1195176273853
 21
50.5
 31
0.0
 13
35.34112
 23
48
 14
44.2390352547707
 24
48
 33
0.0
 34
0.0
53
90
  0
DIMENSION
  8
2D_DIM
  2
*D1
  3
ROUTEDIM
  1
8.746
 10
52.98534
 20
50.5
 30
0.0
 11
26.49267
 21
50.5
 31
0.0
 13
44.2390352547707
 23
48
 14
52.98534
 24
48
 33
0.0
 34
0.0
53
90
  0
DIMENSION
  8
2D_DIM
  2
*D1
  3
ROUTEDIM
  1
0.5
 10
53.48534
 20
50.5
 30
0.0
 11
26.74267
 21
50.5
 31
0.0
 13
52.98534
 23
48
 14
53.48534
 24
48
 33
0.0
 34
0.0
53
90
  0
DIMENSION
  8
2D_DIM
  2
*D1
  3
ROUTEDIM
  1
0.5
 10
53.98534
 20
50.5
 30
0.0
 11
26.99267
 21
50.5
 31
0.0
 13
53.48534
 23
48
 14
53.98534
 24
48
 33
0.0
 34
0.0
53
90
  0
DIMENSION
  8
2D_DIM
  2
*D1
  3
ROUTEDIM
  1
6.289
 10
60.274476
 20
50.5
 30
0.0
 11
30.137238
 21
50.5
 31
0.0
 13
53.98534
 23
48
 14
60.274476
 24
48
 33
0.0
 34
0.0
53
90
  0
DIMENSION
  8
2D_DIM
  2
*D1
  3
ROUTEDIM
  1
0.093
 10
60.36715
 20
50.5
 30
0.0
 11
30.183575
 21
50.5
 31
0.0
 13
60.274476
 23
48
 14
60.36715
 24
48
 33
0.0
 34
0.0
53
90
  0
DIMENSION
  8
2D_DIM
  2
*D1
  3
ROUTEDIM
  1
0.021
 10
60.388076
 20
50.5
 30
0.0
 11
30.194038
 21
50.5
 31
0.0
 13
60.36715
 23
48
 14
60.388076
 24
48
 33
0.0
 34
0.0
53
90
  0
DIMENSION
  8
2D_DIM
  2
*D1
  3
ROUTEDIM
  1
2.344
 10
62.7316447452293
 20
50.5
 30
0.0
 11
31.3658223726147
 21
50.5
 31
0.0
 13
60.388076
 23
48
 14
62.7316447452293
 24
48
 33
0.0
 34
0.0
53
90
  0
DIMENSION
  8
2D_DIM
  2
*D1
  3
ROUTEDIM
  1
6.442
 10
69.173366
 20
50.5
 30
0.0
 11
34.586683
 21
50.5
 31
0.0
 13
62.7316447452293
 23
48
 14
69.173366
 24
48
 33
0.0
 34
0.0
53
90
  0
DIMENSION
  8
2D_DIM
  2
*D1
  3
ROUTEDIM
  1
0.102
 10
69.275122
 20
50.5
 30
0.0
 11
34.637561
 21
50.5
 31
0.0
 13
69.173366
 23
48
 14
69.275122
 24
48
 33
0.0
 34
0.0
53
90
  0
DIMENSION
  8
2D_DIM
  2
*D1
  3
ROUTEDIM
  1
0.022
 10
69.29758
 20
50.5
 30
0.0
 11
34.64879
 21
50.5
 31
0.0
 13
69.275122
 23
48
 14
69.29758
 24
48
 33
0.0
 34
0.0
53
90
  0
DIMENSION
  8
2D_DIM
  2
*D1
  3
ROUTEDIM
  1
0.076
 10
69.37362
 20
50.5
 30
0.0
 11
34.68681
 21
50.5
 31
0.0
 13
69.29758
 23
48
 14
69.37362
 24
48
 33
0.0
 34
0.0
53
90
  0
DIMENSION
  8
2D_DIM
  2
*D1
  3
ROUTEDIM
  1
14.725
 10
84.098968
 20
50.5
 30
0.0
 11
42.049484
 21
50.5
 31
0.0
 13
69.37362
 23
48
 14
84.098968
 24
48
 33
0.0
 34
0.0
53
90
  0
DIMENSION
  8
2D_DIM
  2
*D1
  3
ROUTEDIM
  1
0
 10
84.099257
 20
50.5
 30
0.0
 11
42.0496285
 21
50.5
 31
0.0
 13
84.098968
 23
48
 14
84.099257
 24
48
 33
0.0
 34
0.0
53
90
  0
DIMENSION
  8
2D_DIM
  2
*D1
  3
ROUTEDIM
  1
0.368
 10
84.46773
 20
50.5
 30
0.0
 11
42.233865
 21
50.5
 31
0.0
 13
84.099257
 23
48
 14
84.46773
 24
48
 33
0.0
 34
0.0
53
90
  0
DIMENSION
  8
2D_DIM
  2
*D1
  3
ROUTEDIM
  1
0.001
 10
84.468835
 20
50.5
 30
0.0
 11
42.2344175
 21
50.5
 31
0.0
 13
84.46773
 23
48
 14
84.468835
 24
48
 33
0.0
 34
0.0
53
90
  0
DIMENSION
  8
2D_DIM
  2
*D1
  3
ROUTEDIM
  1
-0.469
 10
84
 20
50.5
 30
0.0
 11
42
 21
50.5
 31
0.0
 13
84.468835
 23
48
 14
84
 24
48
 33
0.0
 34
0.0
53
90
  0
DIMENSION
  8
2D_DIM
  2
*D1
  3
ROUTEDIM
  1
0.461
 10
-2.5
 20
-0.461154000000001
 30
0.0
 11
-2.5
 21
-0.230577000000001
 31
0
 13
0.0
 23
0
 14
0.0
 24
-0.461154000000001
 50
90.0
53
0
 33
0.0
 34
0.0
  0
DIMENSION
  8
2D_DIM
  2
*D1
  3
ROUTEDIM
  1
0.363
 10
-2.5
 20
-0.0977859999999993
 30
0.0
 11
-2.5
 21
-0.0488929999999997
 31
0
 13
0.0
 23
-0.461154000000001
 14
0.0
 24
-0.0977859999999993
 50
90.0
53
0
 33
0.0
 34
0.0
  0
DIMENSION
  8
2D_DIM
  2
*D1
  3
ROUTEDIM
  1
0.098
 10
-2.5
 20
0
 30
0.0
 11
-2.5
 21
0
 31
0
 13
0.0
 23
-0.0977859999999993
 14
0.0
 24
0
 50
90.0
53
0
 33
0.0
 34
0.0
  0
DIMENSION
  8
2D_DIM
  2
*D1
  3
ROUTEDIM
  1
0.312
 10
-2.5
 20
0.3125
 30
0.0
 11
-2.5
 21
0.15625
 31
0
 13
0.0
 23
0
 14
0.0
 24
0.3125
 50
90.0
53
0
 33
0.0
 34
0.0
  0
DIMENSION
  8
2D_DIM
  2
*D1
  3
ROUTEDIM
  1
1.063
 10
-2.5
 20
1.37548
 30
0.0
 11
-2.5
 21
0.68774
 31
0
 13
0.0
 23
0.3125
 14
0.0
 24
1.37548
 50
90.0
53
0
 33
0.0
 34
0.0
  0
DIMENSION
  8
2D_DIM
  2
*D1
  3
ROUTEDIM
  1
0.134
 10
-2.5
 20
1.50966
 30
0.0
 11
-2.5
 21
0.75483
 31
0
 13
0.0
 23
1.37548
 14
0.0
 24
1.50966
 50
90.0
53
0
 33
0.0
 34
0.0
  0
DIMENSION
  8
2D_DIM
  2
*D1
  3
ROUTEDIM
  1
0.178
 10
-2.5
 20
1.68798
 30
0.0
 11
-2.5
 21
0.84399
 31
0
 13
0.0
 23
1.50966
 14
0.0
 24
1.68798
 50
90.0
53
0
 33
0.0
 34
0.0
  0
DIMENSION
  8
2D_DIM
  2
*D1
  3
ROUTEDIM
  1
0.107
 10
-2.5
 20
1.79512285714286
 30
0.0
 11
-2.5
 21
0.89756142857143
 31
0
 13
0.0
 23
1.68798
 14
0.0
 24
1.79512285714286
 50
90.0
53
0
 33
0.0
 34
0.0
  0
DIMENSION
  8
2D_DIM
  2
*D1
  3
ROUTEDIM
  1
0.074
 10
-2.5
 20
1.86945029877669
 30
0.0
 11
-2.5
 21
0.934725149388345
 31
0
 13
0.0
 23
1.79512285714286
 14
0.0
 24
1.86945029877669
 50
90.0
53
0
 33
0.0
 34
0.0
  0
DIMENSION
  8
2D_DIM
  2
*D1
  3
ROUTEDIM
  1
0.032
 10
-2.5
 20
1.901328
 30
0.0
 11
-2.5
 21
0.950664
 31
0
 13
0.0
 23
1.86945029877669
 14
0.0
 24
1.901328
 50
90.0
53
0
 33
0.0
 34
0.0
  0
DIMENSION
  8
2D_DIM
  2
*D1
  3
ROUTEDIM
  1
0.093
 10
-2.5
 20
1.99433978558747
 30
0.0
 11
-2.5
 21
0.997169892793735
 31
0
 13
0.0
 23
1.901328
 14
0.0
 24
1.99433978558747
 50
90.0
53
0
 33
0.0
 34
0.0
  0
DIMENSION
  8
2D_DIM
  2
*D1
  3
ROUTEDIM
  1
0.229
 10
-2.5
 20
2.22369428571429
 30
0.0
 11
-2.5
 21
1.11184714285715
 31
0
 13
0.0
 23
1.99433978558747
 14
0.0
 24
2.22369428571429
 50
90.0
53
0
 33
0.0
 34
0.0
  0
DIMENSION
  8
2D_DIM
  2
*D1
  3
ROUTEDIM
  1
0.103
 10
-2.5
 20
2.32628017568988
 30
0.0
 11
-2.5
 21
1.16314008784494
 31
0
 13
0.0
 23
2.22369428571429
 14
0.0
 24
2.32628017568988
 50
90.0
53
0
 33
0.0
 34
0.0
  0
DIMENSION
  8
2D_DIM
  2
*D1
  3
ROUTEDIM
  1
0.192
 10
-2.5
 20
2.518754
 30
0.0
 11
-2.5
 21
1.259377
 31
0
 13
0.0
 23
2.32628017568988
 14
0.0
 24
2.518754
 50
90.0
53
0
 33
0.0
 34
0.0
  0
DIMENSION
  8
2D_DIM
  2
*D1
  3
ROUTEDIM
  1
0.134
 10
-2.5
 20
2.65226571428572
 30
0.0
 11
-2.5
 21
1.32613285714286
 31
0
 13
0.0
 23
2.518754
 14
0.0
 24
2.65226571428572
 50
90.0
53
0
 33
0.0
 34
0.0
  0
DIMENSION
  8
2D_DIM
  2
*D1
  3
ROUTEDIM
  1
0.197
 10
-2.5
 20
2.84955138678716
 30
0.0
 11
-2.5
 21
1.42477569339358
 31
0
 13
0.0
 23
2.65226571428572
 14
0.0
 24
2.84955138678716
 50
90.0
53
0
 33
0.0
 34
0.0
  0
DIMENSION
  8
2D_DIM
  2
*D1
  3
ROUTEDIM
  1
0.066
 10
-2.5
 20
2.915336
 30
0.0
 11
-2.5
 21
1.457668
 31
0
 13
0.0
 23
2.84955138678716
 14
0.0
 24
2.915336
 50
90.0
53
0
 33
0.0
 34
0.0
  0
DIMENSION
  8
2D_DIM
  2
*D1
  3
ROUTEDIM
  1
0.166
 10
-2.5
 20
3.08083714285715
 30
0.0
 11
-2.5
 21
1.54041857142857
 31
0
 13
0.0
 23
2.915336
 14
0.0
 24
3.08083714285715
 50
90.0
53
0
 33
0.0
 34
0.0
  0
DIMENSION
  8
2D_DIM
  2
*D1
  3
ROUTEDIM
  1
0.105
 10
-2.5
 20
3.18565657713037
 30
0.0
 11
-2.5
 21
1.59282828856518
 31
0
 13
0.0
 23
3.08083714285715
 14
0.0
 24
3.18565657713037
 50
90.0
53
0
 33
0.0
 34
0.0
  0
DIMENSION
  8
2D_DIM
  2
*D1
  3
ROUTEDIM
  1
0.126
 10
-2.5
 20
3.311918
 30
0.0
 11
-2.5
 21
1.655959
 31
0
 13
0.0
 23
3.18565657713037
 14
0.0
 24
3.311918
 50
90.0
53
0
 33
0.0
 34
0.0
  0
DIMENSION
  8
2D_DIM
  2
*D1
  3
ROUTEDIM
  1
0.197
 10
-2.5
 20
3.50940857142858
 30
0.0
 11
-2.5
 21
1.75470428571429
 31
0
 13
0.0
 23
3.311918
 14
0.0
 24
3.50940857142858
 50
90.0
53
0
 33
0.0
 34
0.0
  0
DIMENSION
  8
2D_DIM
  2
*D1
  3
ROUTEDIM
  1
0.012
 10
-2.5
 20
3.52176162908982
 30
0.0
 11
-2.5
 21
1.76088081454491
 31
0
 13
0.0
 23
3.50940857142858
 14
0.0
 24
3.52176162908982
 50
90.0
53
0
 33
0.0
 34
0.0
  0
DIMENSION
  8
2D_DIM
  2
*D1
  3
ROUTEDIM
  1
0.166
 10
-2.5
 20
3.68798
 30
0.0
 11
-2.5
 21
1.84399
 31
0
 13
0.0
 23
3.52176162908982
 14
0.0
 24
3.68798
 50
90.0
53
0
 33
0.0
 34
0.0
  0
DIMENSION
  8
2D_DIM
  2
*D1
  3
ROUTEDIM
  1
0.25
 10
-2.5
 20
3.93798
 30
0.0
 11
-2.5
 21
1.96899
 31
0
 13
0.0
 23
3.68798
 14
0.0
 24
3.93798
 50
90.0
53
0
 33
0.0
 34
0.0
  0
DIMENSION
  8
2D_DIM
  2
*D1
  3
ROUTEDIM
  1
0.279
 10
-2.5
 20
4.216562
 30
0.0
 11
-2.5
 21
2.108281
 31
0
 13
0.0
 23
3.93798
 14
0.0
 24
4.216562
 50
90.0
53
0
 33
0.0
 34
0.0
  0
DIMENSION
  8
2D_DIM
  2
*D1
  3
ROUTEDIM
  1
0.043
 10
-2.5
 20
4.25940857142857
 30
0.0
 11
-2.5
 21
2.12970428571428
 31
0
 13
0.0
 23
4.216562
 14
0.0
 24
4.25940857142857
 50
90.0
53
0
 33
0.0
 34
0.0
  0
DIMENSION
  8
2D_DIM
  2
*D1
  3
ROUTEDIM
  1
0.029
 10
-2.5
 20
4.28845129109758
 30
0.0
 11
-2.5
 21
2.14422564554879
 31
0
 13
0.0
 23
4.25940857142857
 14
0.0
 24
4.28845129109758
 50
90.0
53
0
 33
0.0
 34
0.0
  0
DIMENSION
  8
2D_DIM
  2
*D1
  3
ROUTEDIM
  1
0.4
 10
-2.5
 20
4.68798
 30
0.0
 11
-2.5
 21
2.34399
 31
0
 13
0.0
 23
4.28845129109758
 14
0.0
 24
4.68798
 50
90.0
53
0
 33
0.0
 34
0.0
  0
DIMENSION
  8
2D_DIM
  2
*D1
  3
ROUTEDIM
  1
0.4
 10
-2.5
 20
5.08750870890243
 30
0.0
 11
-2.5
 21
2.54375435445121
 31
0
 13
0.0
 23
4.68798
 14
0.0
 24
5.08750870890243
 50
90.0
53
0
 33
0.0
 34
0.0
  0
DIMENSION
  8
2D_DIM
  2
*D1
  3
ROUTEDIM
  1
0.029
 10
-2.5
 20
5.11655142857143
 30
0.0
 11
-2.5
 21
2.55827571428572
 31
0
 13
0.0
 23
5.08750870890243
 14
0.0
 24
5.11655142857143
 50
90.0
53
0
 33
0.0
 34
0.0
  0
DIMENSION
  8
2D_DIM
  2
*D1
  3
ROUTEDIM
  1
0.043
 10
-2.5
 20
5.159398
 30
0.0
 11
-2.5
 21
2.579699
 31
0
 13
0.0
 23
5.11655142857143
 14
0.0
 24
5.159398
 50
90.0
53
0
 33
0.0
 34
0.0
  0
DIMENSION
  8
2D_DIM
  2
*D1
  3
ROUTEDIM
  1
0.064
 10
-2.5
 20
5.22369428571429
 30
0.0
 11
-2.5
 21
2.61184714285714
 31
0
 13
0.0
 23
5.159398
 14
0.0
 24
5.22369428571429
 50
90.0
53
0
 33
0.0
 34
0.0
  0
DIMENSION
  8
2D_DIM
  2
*D1
  3
ROUTEDIM
  1
0.429
 10
-2.5
 20
5.65226571428571
 30
0.0
 11
-2.5
 21
2.82613285714285
 31
0
 13
0.0
 23
5.22369428571429
 14
0.0
 24
5.65226571428571
 50
90.0
53
0
 33
0.0
 34
0.0
  0
DIMENSION
  8
2D_DIM
  2
*D1
  3
ROUTEDIM
  1
0.202
 10
-2.5
 20
5.85419837091017
 30
0.0
 11
-2.5
 21
2.92709918545509
 31
0
 13
0.0
 23
5.65226571428571
 14
0.0
 24
5.85419837091017
 50
90.0
53
0
 33
0.0
 34
0.0
  0
DIMENSION
  8
2D_DIM
  2
*D1
  3
ROUTEDIM
  1
0.21
 10
-2.5
 20
6.064042
 30
0.0
 11
-2.5
 21
3.032021
 31
0
 13
0.0
 23
5.85419837091017
 14
0.0
 24
6.064042
 50
90.0
53
0
 33
0.0
 34
0.0
  0
DIMENSION
  8
2D_DIM
  2
*D1
  3
ROUTEDIM
  1
0.017
 10
-2.5
 20
6.08083714285714
 30
0.0
 11
-2.5
 21
3.04041857142857
 31
0
 13
0.0
 23
6.064042
 14
0.0
 24
6.08083714285714
 50
90.0
53
0
 33
0.0
 34
0.0
  0
DIMENSION
  8
2D_DIM
  2
*D1
  3
ROUTEDIM
  1
0.429
 10
-2.5
 20
6.50940857142857
 30
0.0
 11
-2.5
 21
3.25470428571428
 31
0
 13
0.0
 23
6.08083714285714
 14
0.0
 24
6.50940857142857
 50
90.0
53
0
 33
0.0
 34
0.0
  0
DIMENSION
  8
2D_DIM
  2
*D1
  3
ROUTEDIM
  1
0.017
 10
-2.5
 20
6.52640861321285
 30
0.0
 11
-2.5
 21
3.26320430660643
 31
0
 13
0.0
 23
6.50940857142857
 14
0.0
 24
6.52640861321285
 50
90.0
53
0
 33
0.0
 34
0.0
  0
DIMENSION
  8
2D_DIM
  2
*D1
  3
ROUTEDIM
  1
0.331
 10
-2.5
 20
6.857206
 30
0.0
 11
-2.5
 21
3.428603
 31
0
 13
0.0
 23
6.52640861321285
 14
0.0
 24
6.857206
 50
90.0
53
0
 33
0.0
 34
0.0
  0
DIMENSION
  8
2D_DIM
  2
*D1
  3
ROUTEDIM
  1
0.081
 10
-2.5
 20
6.93798
 30
0.0
 11
-2.5
 21
3.46899
 31
0
 13
0.0
 23
6.857206
 14
0.0
 24
6.93798
 50
90.0
53
0
 33
0.0
 34
0.0
  0
DIMENSION
  8
2D_DIM
  2
*D1
  3
ROUTEDIM
  1
0.112
 10
-2.5
 20
7.04967982431012
 30
0.0
 11
-2.5
 21
3.52483991215506
 31
0
 13
0.0
 23
6.93798
 14
0.0
 24
7.04967982431012
 50
90.0
53
0
 33
0.0
 34
0.0
  0
DIMENSION
  8
2D_DIM
  2
*D1
  3
ROUTEDIM
  1
0.317
 10
-2.5
 20
7.36655142857143
 30
0.0
 11
-2.5
 21
3.68327571428572
 31
0
 13
0.0
 23
7.04967982431012
 14
0.0
 24
7.36655142857143
 50
90.0
53
0
 33
0.0
 34
0.0
  0
DIMENSION
  8
2D_DIM
  2
*D1
  3
ROUTEDIM
  1
0.015
 10
-2.5
 20
7.38162021441253
 30
0.0
 11
-2.5
 21
3.69081010720627
 31
0
 13
0.0
 23
7.36655142857143
 14
0.0
 24
7.38162021441253
 50
90.0
53
0
 33
0.0
 34
0.0
  0
DIMENSION
  8
2D_DIM
  2
*D1
  3
ROUTEDIM
  1
0.093
 10
-2.5
 20
7.474632
 30
0.0
 11
-2.5
 21
3.737316
 31
0
 13
0.0
 23
7.38162021441253
 14
0.0
 24
7.474632
 50
90.0
53
0
 33
0.0
 34
0.0
  0
DIMENSION
  8
2D_DIM
  2
*D1
  3
ROUTEDIM
  1
0.032
 10
-2.5
 20
7.50650970122332
 30
0.0
 11
-2.5
 21
3.75325485061166
 31
0
 13
0.0
 23
7.474632
 14
0.0
 24
7.50650970122332
 50
90.0
53
0
 33
0.0
 34
0.0
  0
DIMENSION
  8
2D_DIM
  2
*D1
  3
ROUTEDIM
  1
0.181
 10
-2.5
 20
7.68798
 30
0.0
 11
-2.5
 21
3.84399
 31
0
 13
0.0
 23
7.50650970122332
 14
0.0
 24
7.68798
 50
90.0
53
0
 33
0.0
 34
0.0
  0
DIMENSION
  8
2D_DIM
  2
*D1
  3
ROUTEDIM
  1
0.178
 10
-2.5
 20
7.8663
 30
0.0
 11
-2.5
 21
3.93315
 31
0
 13
0.0
 23
7.68798
 14
0.0
 24
7.8663
 50
90.0
53
0
 33
0.0
 34
0.0
  0
DIMENSION
  8
2D_DIM
  2
*D1
  3
ROUTEDIM
  1
0.134
 10
-2.5
 20
8.00048
 30
0.0
 11
-2.5
 21
4.00024
 31
0
 13
0.0
 23
7.8663
 14
0.0
 24
8.00048
 50
90.0
53
0
 33
0.0
 34
0.0
  0
DIMENSION
  8
2D_DIM
  2
*D1
  3
ROUTEDIM
  1
7.821
 10
-2.5
 20
15.8213952173127
 30
0.0
 11
-2.5
 21
7.91069760865635
 31
0
 13
0.0
 23
8.00048
 14
0.0
 24
15.8213952173127
 50
90.0
53
0
 33
0.0
 34
0.0
  0
DIMENSION
  8
2D_DIM
  2
*D1
  3
ROUTEDIM
  1
6.272
 10
-2.5
 20
22.093614
 30
0.0
 11
-2.5
 21
11.046807
 31
0
 13
0.0
 23
15.8213952173127
 14
0.0
 24
22.093614
 50
90.0
53
0
 33
0.0
 34
0.0
  0
DIMENSION
  8
2D_DIM
  2
*D1
  3
ROUTEDIM
  1
0.068
 10
-2.5
 20
22.161729
 30
0.0
 11
-2.5
 21
11.0808645
 31
0
 13
0.0
 23
22.093614
 14
0.0
 24
22.161729
 50
90.0
53
0
 33
0.0
 34
0.0
  0
DIMENSION
  8
2D_DIM
  2
*D1
  3
ROUTEDIM
  1
2.906
 10
-2.5
 20
25.067699962542
 30
0.0
 11
-2.5
 21
12.533849981271
 31
0
 13
0.0
 23
22.161729
 14
0.0
 24
25.067699962542
 50
90.0
53
0
 33
0.0
 34
0.0
  0
DIMENSION
  8
2D_DIM
  2
*D1
  3
ROUTEDIM
  1
8.746
 10
-2.5
 20
33.8140047077713
 30
0.0
 11
-2.5
 21
16.9070023538857
 31
0
 13
0.0
 23
25.067699962542
 14
0.0
 24
33.8140047077713
 50
90.0
53
0
 33
0.0
 34
0.0
  0
DIMENSION
  8
2D_DIM
  2
*D1
  3
ROUTEDIM
  1
0.5
 10
-2.5
 20
34.3140047077713
 30
0.0
 11
-2.5
 21
17.1570023538857
 31
0
 13
0.0
 23
33.8140047077713
 14
0.0
 24
34.3140047077713
 50
90.0
53
0
 33
0.0
 34
0.0
  0
DIMENSION
  8
2D_DIM
  2
*D1
  3
ROUTEDIM
  1
0.37
 10
-2.5
 20
34.683678
 30
0.0
 11
-2.5
 21
17.341839
 31
0
 13
0.0
 23
34.3140047077713
 14
0.0
 24
34.683678
 50
90.0
53
0
 33
0.0
 34
0.0
  0
DIMENSION
  8
2D_DIM
  2
*D1
  3
ROUTEDIM
  1
0.064
 10
-2.5
 20
34.747218
 30
0.0
 11
-2.5
 21
17.373609
 31
0
 13
0.0
 23
34.683678
 14
0.0
 24
34.747218
 50
90.0
53
0
 33
0.0
 34
0.0
  0
DIMENSION
  8
2D_DIM
  2
*D1
  3
ROUTEDIM
  1
3.734
 10
-2.5
 20
38.481586
 30
0.0
 11
-2.5
 21
19.240793
 31
0
 13
0.0
 23
34.747218
 14
0.0
 24
38.481586
 50
90.0
53
0
 33
0.0
 34
0.0
  0
DIMENSION
  8
2D_DIM
  2
*D1
  3
ROUTEDIM
  1
0.134
 10
-2.5
 20
38.615766
 30
0.0
 11
-2.5
 21
19.307883
 31
0
 13
0.0
 23
38.481586
 14
0.0
 24
38.615766
 50
90.0
53
0
 33
0.0
 34
0.0
  0
DIMENSION
  8
2D_DIM
  2
*D1
  3
ROUTEDIM
  1
0.178
 10
-2.5
 20
38.79409
 30
0.0
 11
-2.5
 21
19.397045
 31
0
 13
0.0
 23
38.615766
 14
0.0
 24
38.79409
 50
90.0
53
0
 33
0.0
 34
0.0
  0
DIMENSION
  8
2D_DIM
  2
*D1
  3
ROUTEDIM
  1
0.107
 10
-2.5
 20
38.9012328571429
 30
0.0
 11
-2.5
 21
19.4506164285715
 31
0
 13
0.0
 23
38.79409
 14
0.0
 24
38.9012328571429
 50
90.0
53
0
 33
0.0
 34
0.0
  0
DIMENSION
  8
2D_DIM
  2
*D1
  3
ROUTEDIM
  1
0.074
 10
-2.5
 20
38.9755562987767
 30
0.0
 11
-2.5
 21
19.4877781493884
 31
0
 13
0.0
 23
38.9012328571429
 14
0.0
 24
38.9755562987767
 50
90.0
53
0
 33
0.0
 34
0.0
  0
DIMENSION
  8
2D_DIM
  2
*D1
  3
ROUTEDIM
  1
0.032
 10
-2.5
 20
39.007434
 30
0.0
 11
-2.5
 21
19.503717
 31
0
 13
0.0
 23
38.9755562987767
 14
0.0
 24
39.007434
 50
90.0
53
0
 33
0.0
 34
0.0
  0
DIMENSION
  8
2D_DIM
  2
*D1
  3
ROUTEDIM
  1
0.093
 10
-2.5
 20
39.1004457695873
 30
0.0
 11
-2.5
 21
19.5502228847937
 31
0
 13
0.0
 23
39.007434
 14
0.0
 24
39.1004457695873
 50
90.0
53
0
 33
0.0
 34
0.0
  0
DIMENSION
  8
2D_DIM
  2
*D1
  3
ROUTEDIM
  1
0.229
 10
-2.5
 20
39.3298042857143
 30
0.0
 11
-2.5
 21
19.6649021428572
 31
0
 13
0.0
 23
39.1004457695873
 14
0.0
 24
39.3298042857143
 50
90.0
53
0
 33
0.0
 34
0.0
  0
DIMENSION
  8
2D_DIM
  2
*D1
  3
ROUTEDIM
  1
0.103
 10
-2.5
 20
39.4323861756899
 30
0.0
 11
-2.5
 21
19.7161930878449
 31
0
 13
0.0
 23
39.3298042857143
 14
0.0
 24
39.4323861756899
 50
90.0
53
0
 33
0.0
 34
0.0
  0
DIMENSION
  8
2D_DIM
  2
*D1
  3
ROUTEDIM
  1
0.192
 10
-2.5
 20
39.62486
 30
0.0
 11
-2.5
 21
19.81243
 31
0
 13
0.0
 23
39.4323861756899
 14
0.0
 24
39.62486
 50
90.0
53
0
 33
0.0
 34
0.0
  0
DIMENSION
  8
2D_DIM
  2
*D1
  3
ROUTEDIM
  1
0.134
 10
-2.5
 20
39.7583757142857
 30
0.0
 11
-2.5
 21
19.8791878571428
 31
0
 13
0.0
 23
39.62486
 14
0.0
 24
39.7583757142857
 50
90.0
53
0
 33
0.0
 34
0.0
  0
DIMENSION
  8
2D_DIM
  2
*D1
  3
ROUTEDIM
  1
0.197
 10
-2.5
 20
39.9556575358832
 30
0.0
 11
-2.5
 21
19.9778287679416
 31
0
 13
0.0
 23
39.7583757142857
 14
0.0
 24
39.9556575358832
 50
90.0
53
0
 33
0.0
 34
0.0
  0
DIMENSION
  8
2D_DIM
  2
*D1
  3
ROUTEDIM
  1
0.066
 10
-2.5
 20
40.021442
 30
0.0
 11
-2.5
 21
20.010721
 31
0
 13
0.0
 23
39.9556575358832
 14
0.0
 24
40.021442
 50
90.0
53
0
 33
0.0
 34
0.0
  0
DIMENSION
  8
2D_DIM
  2
*D1
  3
ROUTEDIM
  1
0.166
 10
-2.5
 20
40.1869471428571
 30
0.0
 11
-2.5
 21
20.0934735714286
 31
0
 13
0.0
 23
40.021442
 14
0.0
 24
40.1869471428571
 50
90.0
53
0
 33
0.0
 34
0.0
  0
DIMENSION
  8
2D_DIM
  2
*D1
  3
ROUTEDIM
  1
0.105
 10
-2.5
 20
40.2917625771304
 30
0.0
 11
-2.5
 21
20.1458812885652
 31
0
 13
0.0
 23
40.1869471428571
 14
0.0
 24
40.2917625771304
 50
90.0
53
0
 33
0.0
 34
0.0
  0
DIMENSION
  8
2D_DIM
  2
*D1
  3
ROUTEDIM
  1
0.126
 10
-2.5
 20
40.418024
 30
0.0
 11
-2.5
 21
20.209012
 31
0
 13
0.0
 23
40.2917625771304
 14
0.0
 24
40.418024
 50
90.0
53
0
 33
0.0
 34
0.0
  0
DIMENSION
  8
2D_DIM
  2
*D1
  3
ROUTEDIM
  1
0.197
 10
-2.5
 20
40.6155185714286
 30
0.0
 11
-2.5
 21
20.3077592857143
 31
0
 13
0.0
 23
40.418024
 14
0.0
 24
40.6155185714286
 50
90.0
53
0
 33
0.0
 34
0.0
  0
DIMENSION
  8
2D_DIM
  2
*D1
  3
ROUTEDIM
  1
0.012
 10
-2.5
 20
40.6278674106363
 30
0.0
 11
-2.5
 21
20.3139337053181
 31
0
 13
0.0
 23
40.6155185714286
 14
0.0
 24
40.6278674106363
 50
90.0
53
0
 33
0.0
 34
0.0
  0
DIMENSION
  8
2D_DIM
  2
*D1
  3
ROUTEDIM
  1
0.166
 10
-2.5
 20
40.79409
 30
0.0
 11
-2.5
 21
20.397045
 31
0
 13
0.0
 23
40.6278674106363
 14
0.0
 24
40.79409
 50
90.0
53
0
 33
0.0
 34
0.0
  0
DIMENSION
  8
2D_DIM
  2
*D1
  3
ROUTEDIM
  1
0.25
 10
-2.5
 20
41.04409
 30
0.0
 11
-2.5
 21
20.522045
 31
0
 13
0.0
 23
40.79409
 14
0.0
 24
41.04409
 50
90.0
53
0
 33
0.0
 34
0.0
  0
DIMENSION
  8
2D_DIM
  2
*D1
  3
ROUTEDIM
  1
0.279
 10
-2.5
 20
41.322668
 30
0.0
 11
-2.5
 21
20.661334
 31
0
 13
0.0
 23
41.04409
 14
0.0
 24
41.322668
 50
90.0
53
0
 33
0.0
 34
0.0
  0
DIMENSION
  8
2D_DIM
  2
*D1
  3
ROUTEDIM
  1
0.043
 10
-2.5
 20
41.3655185714286
 30
0.0
 11
-2.5
 21
20.6827592857143
 31
0
 13
0.0
 23
41.322668
 14
0.0
 24
41.3655185714286
 50
90.0
53
0
 33
0.0
 34
0.0
  0
DIMENSION
  8
2D_DIM
  2
*D1
  3
ROUTEDIM
  1
0.029
 10
-2.5
 20
41.3945570314214
 30
0.0
 11
-2.5
 21
20.6972785157107
 31
0
 13
0.0
 23
41.3655185714286
 14
0.0
 24
41.3945570314214
 50
90.0
53
0
 33
0.0
 34
0.0
  0
DIMENSION
  8
2D_DIM
  2
*D1
  3
ROUTEDIM
  1
0.4
 10
-2.5
 20
41.79409
 30
0.0
 11
-2.5
 21
20.897045
 31
0
 13
0.0
 23
41.3945570314214
 14
0.0
 24
41.79409
 50
90.0
53
0
 33
0.0
 34
0.0
  0
DIMENSION
  8
2D_DIM
  2
*D1
  3
ROUTEDIM
  1
0.4
 10
-2.5
 20
42.1936149685786
 30
0.0
 11
-2.5
 21
21.0968074842893
 31
0
 13
0.0
 23
41.79409
 14
0.0
 24
42.1936149685786
 50
90.0
53
0
 33
0.0
 34
0.0
  0
DIMENSION
  8
2D_DIM
  2
*D1
  3
ROUTEDIM
  1
0.029
 10
-2.5
 20
42.2226614285714
 30
0.0
 11
-2.5
 21
21.1113307142857
 31
0
 13
0.0
 23
42.1936149685786
 14
0.0
 24
42.2226614285714
 50
90.0
53
0
 33
0.0
 34
0.0
  0
DIMENSION
  8
2D_DIM
  2
*D1
  3
ROUTEDIM
  1
0.043
 10
-2.5
 20
42.265504
 30
0.0
 11
-2.5
 21
21.132752
 31
0
 13
0.0
 23
42.2226614285714
 14
0.0
 24
42.265504
 50
90.0
53
0
 33
0.0
 34
0.0
  0
DIMENSION
  8
2D_DIM
  2
*D1
  3
ROUTEDIM
  1
0.064
 10
-2.5
 20
42.3298042857143
 30
0.0
 11
-2.5
 21
21.1649021428572
 31
0
 13
0.0
 23
42.265504
 14
0.0
 24
42.3298042857143
 50
90.0
53
0
 33
0.0
 34
0.0
  0
DIMENSION
  8
2D_DIM
  2
*D1
  3
ROUTEDIM
  1
0.429
 10
-2.5
 20
42.7583757142857
 30
0.0
 11
-2.5
 21
21.3791878571428
 31
0
 13
0.0
 23
42.3298042857143
 14
0.0
 24
42.7583757142857
 50
90.0
53
0
 33
0.0
 34
0.0
  0
DIMENSION
  8
2D_DIM
  2
*D1
  3
ROUTEDIM
  1
0.202
 10
-2.5
 20
42.9603045893637
 30
0.0
 11
-2.5
 21
21.4801522946819
 31
0
 13
0.0
 23
42.7583757142857
 14
0.0
 24
42.9603045893637
 50
90.0
53
0
 33
0.0
 34
0.0
  0
DIMENSION
  8
2D_DIM
  2
*D1
  3
ROUTEDIM
  1
0.21
 10
-2.5
 20
43.170148
 30
0.0
 11
-2.5
 21
21.585074
 31
0
 13
0.0
 23
42.9603045893637
 14
0.0
 24
43.170148
 50
90.0
53
0
 33
0.0
 34
0.0
  0
DIMENSION
  8
2D_DIM
  2
*D1
  3
ROUTEDIM
  1
0.017
 10
-2.5
 20
43.1869471428571
 30
0.0
 11
-2.5
 21
21.5934735714286
 31
0
 13
0.0
 23
43.170148
 14
0.0
 24
43.1869471428571
 50
90.0
53
0
 33
0.0
 34
0.0
  0
DIMENSION
  8
2D_DIM
  2
*D1
  3
ROUTEDIM
  1
0.429
 10
-2.5
 20
43.6155185714286
 30
0.0
 11
-2.5
 21
21.8077592857143
 31
0
 13
0.0
 23
43.1869471428571
 14
0.0
 24
43.6155185714286
 50
90.0
53
0
 33
0.0
 34
0.0
  0
DIMENSION
  8
2D_DIM
  2
*D1
  3
ROUTEDIM
  1
0.017
 10
-2.5
 20
43.6325144641168
 30
0.0
 11
-2.5
 21
21.8162572320584
 31
0
 13
0.0
 23
43.6155185714286
 14
0.0
 24
43.6325144641168
 50
90.0
53
0
 33
0.0
 34
0.0
  0
DIMENSION
  8
2D_DIM
  2
*D1
  3
ROUTEDIM
  1
0.331
 10
-2.5
 20
43.963312
 30
0.0
 11
-2.5
 21
21.981656
 31
0
 13
0.0
 23
43.6325144641168
 14
0.0
 24
43.963312
 50
90.0
53
0
 33
0.0
 34
0.0
  0
DIMENSION
  8
2D_DIM
  2
*D1
  3
ROUTEDIM
  1
0.081
 10
-2.5
 20
44.04409
 30
0.0
 11
-2.5
 21
22.022045
 31
0
 13
0.0
 23
43.963312
 14
0.0
 24
44.04409
 50
90.0
53
0
 33
0.0
 34
0.0
  0
DIMENSION
  8
2D_DIM
  2
*D1
  3
ROUTEDIM
  1
0.112
 10
-2.5
 20
44.1557859855249
 30
0.0
 11
-2.5
 21
22.0778929927625
 31
0
 13
0.0
 23
44.04409
 14
0.0
 24
44.1557859855249
 50
90.0
53
0
 33
0.0
 34
0.0
  0
DIMENSION
  8
2D_DIM
  2
*D1
  3
ROUTEDIM
  1
0.317
 10
-2.5
 20
44.4726614285714
 30
0.0
 11
-2.5
 21
22.2363307142857
 31
0
 13
0.0
 23
44.1557859855249
 14
0.0
 24
44.4726614285714
 50
90.0
53
0
 33
0.0
 34
0.0
  0
DIMENSION
  8
2D_DIM
  2
*D1
  3
ROUTEDIM
  1
0.015
 10
-2.5
 20
44.4877271541647
 30
0.0
 11
-2.5
 21
22.2438635770824
 31
0
 13
0.0
 23
44.4726614285714
 14
0.0
 24
44.4877271541647
 50
90.0
53
0
 33
0.0
 34
0.0
  0
DIMENSION
  8
2D_DIM
  2
*D1
  3
ROUTEDIM
  1
0.093
 10
-2.5
 20
44.580738
 30
0.0
 11
-2.5
 21
22.290369
 31
0
 13
0.0
 23
44.4877271541647
 14
0.0
 24
44.580738
 50
90.0
53
0
 33
0.0
 34
0.0
  0
DIMENSION
  8
2D_DIM
  2
*D1
  3
ROUTEDIM
  1
0.032
 10
-2.5
 20
44.6126156585158
 30
0.0
 11
-2.5
 21
22.3063078292579
 31
0
 13
0.0
 23
44.580738
 14
0.0
 24
44.6126156585158
 50
90.0
53
0
 33
0.0
 34
0.0
  0
DIMENSION
  8
2D_DIM
  2
*D1
  3
ROUTEDIM
  1
0.181
 10
-2.5
 20
44.79409
 30
0.0
 11
-2.5
 21
22.397045
 31
0
 13
0.0
 23
44.6126156585158
 14
0.0
 24
44.79409
 50
90.0
53
0
 33
0.0
 34
0.0
  0
DIMENSION
  8
2D_DIM
  2
*D1
  3
ROUTEDIM
  1
0.178
 10
-2.5
 20
44.972407
 30
0.0
 11
-2.5
 21
22.4862035
 31
0
 13
0.0
 23
44.79409
 14
0.0
 24
44.972407
 50
90.0
53
0
 33
0.0
 34
0.0
  0
DIMENSION
  8
2D_DIM
  2
*D1
  3
ROUTEDIM
  1
0.134
 10
-2.5
 20
45.106586
 30
0.0
 11
-2.5
 21
22.553293
 31
0
 13
0.0
 23
44.972407
 14
0.0
 24
45.106586
 50
90.0
53
0
 33
0.0
 34
0.0
  0
DIMENSION
  8
2D_DIM
  2
*D1
  3
ROUTEDIM
  1
2.581
 10
-2.5
 20
47.6875
 30
0.0
 11
-2.5
 21
23.84375
 31
0
 13
0.0
 23
45.106586
 14
0.0
 24
47.6875
 50
90.0
53
0
 33
0.0
 34
0.0
  0
DIMENSION
  8
2D_DIM
  2
*D1
  3
ROUTEDIM
  1
0.312
 10
-2.5
 20
48
 30
0.0
 11
-2.5
 21
24
 31
0
 13
0.0
 23
47.6875
 14
0.0
 24
48
 50
90.0
53
0
 33
0.0
 34
0.0
  0
DIMENSION
  8
2D_DIM
  2
*D1
  3
ROUTEDIM
  1
0.097
 10
-2.5
 20
48.097445
 30
0.0
 11
-2.5
 21
24.0487225
 31
0
 13
0.0
 23
48
 14
0.0
 24
48.097445
 50
90.0
53
0
 33
0.0
 34
0.0
  0
DIMENSION
  8
2D_DIM
  2
*D1
  3
ROUTEDIM
  1
0.361
 10
-2.5
 20
48.458376
 30
0.0
 11
-2.5
 21
24.229188
 31
0
 13
0.0
 23
48.097445
 14
0.0
 24
48.458376
 50
90.0
53
0
 33
0.0
 34
0.0
  0
DIMENSION
  8
2D_DIM
  2
*D1
  3
ROUTEDIM
  1
0.458
 10
-2.5
 20
48
 30
0.0
 11
-2.5
 21
24
 31
0
 13
0.0
 23
48.458376
 14
0.0
 24
48
 50
90.0
53
0
 33
0.0
 34
0.0
  0
DIMENSION
  8
2D_DIM
  2
*D1
  3
ROUTEDIM
  1
88.113
 10
88.1129483837878
 20
-5.98427931435529
 30
0.0
 11
44.0564741918939
 21
-5.98427931435529
 31
0.0
 13
0
 23
-5.98427931435529
 14
88.1129483837878
 24
-5.98427931435529
 33
0.0
 34
0.0
53
90
  0
DIMENSION
  8
2D_DIM
  2
*D1
  3
ROUTEDIM
  1
5.984
 10
88.1129483837878
 20
-5.98427931435529
 30
0.0
 11
88.1129483837878
 21
-2.99213965717764
 31
0
 13
88.1129483837878
 23
0
 14
88.1129483837878
 24
-5.98427931435529
 50
90.0
53
0
 33
0.0
 34
0.0
  0
DIMENSION
  8
2D_DIM
  2
*D1
  3
ROUTEDIM
  1
86.156
 10
86.1561047763455
 20
51.9366454783397
 30
0.0
 11
43.0780523881727
 21
51.9366454783397
 31
0.0
 13
0
 23
51.9366454783397
 14
86.1561047763455
 24
51.9366454783397
 33
0.0
 34
0.0
53
90
  0
DIMENSION
  8
2D_DIM
  2
*D1
  3
ROUTEDIM
  1
51.937
 10
86.1561047763455
 20
51.9366454783397
 30
0.0
 11
86.1561047763455
 21
25.9683227391698
 31
0
 13
86.1561047763455
 23
0
 14
86.1561047763455
 24
51.9366454783397
 50
90.0
53
0
 33
0.0
 34
0.0
  0
DIMENSION
  8
2D_DIM
  2
*D1
  3
ROUTEDIM
  1
32.341
 10
32.3411200000001
 20
4.68798
 30
0.0
 11
16.17056
 21
4.68798
 31
0.0
 13
0
 23
4.68798
 14
32.3411200000001
 24
4.68798
 33
0.0
 34
0.0
53
90
  0
DIMENSION
  8
2D_DIM
  2
*D1
  3
ROUTEDIM
  1
4.688
 10
32.3411200000001
 20
4.68798
 30
0.0
 11
32.3411200000001
 21
2.34399
 31
0
 13
32.3411200000001
 23
0
 14
32.3411200000001
 24
4.68798
 50
90.0
53
0
 33
0.0
 34
0.0
  0
DIMENSION
  8
2D_DIM
  2
*D1
  3
ROUTEDIM
  1
6.553
 10
6.55327900000006
 20
41.794086
 30
0.0
 11
3.27663950000003
 21
41.794086
 31
0.0
 13
0
 23
41.794086
 14
6.55327900000006
 24
41.794086
 33
0.0
 34
0.0
53
90
  0
DIMENSION
  8
2D_DIM
  2
*D1
  3
ROUTEDIM
  1
41.794
 10
6.55327900000006
 20
41.794086
 30
0.0
 11
6.55327900000006
 21
20.897043
 31
0
 13
6.55327900000006
 23
0
 14
6.55327900000006
 24
41.794086
 50
90.0
53
0
 33
0.0
 34
0.0
  0
DIMENSION
  8
2D_DIM
  2
*D1
  3
ROUTEDIM
  1
53.485
 10
53.4853399979744
 20
33.8140047057457
 30
0.0
 11
26.7426699989872
 21
33.8140047057457
 31
0.0
 13
0
 23
33.8140047057457
 14
53.4853399979744
 24
33.8140047057457
 33
0.0
 34
0.0
53
90
  0
DIMENSION
  8
2D_DIM
  2
*D1
  3
ROUTEDIM
  1
33.814
 10
53.4853399979744
 20
33.8140047057457
 30
0.0
 11
53.4853399979744
 21
16.9070023528729
 31
0
 13
53.4853399979744
 23
0
 14
53.4853399979744
 24
33.8140047057457
 50
90.0
53
0
 33
0.0
 34
0.0
  0
DIMENSION
  8
2D_DIM
  2
*D1
  3
ROUTEDIM
  1
53.485
 10
53.485340037458
 20
25.067699925084
 30
0.0
 11
26.742670018729
 21
25.067699925084
 31
0.0
 13
0
 23
25.067699925084
 14
53.485340037458
 24
25.067699925084
 33
0.0
 34
0.0
53
90
  0
DIMENSION
  8
2D_DIM
  2
*D1
  3
ROUTEDIM
  1
25.068
 10
53.485340037458
 20
25.067699925084
 30
0.0
 11
53.485340037458
 21
12.533849962542
 31
0
 13
53.485340037458
 23
0
 14
53.485340037458
 24
25.067699925084
 50
90.0
53
0
 33
0.0
 34
0.0
  0
DIMENSION
  8
2D_DIM
  2
*D1
  3
ROUTEDIM
  1
53.485
 10
53.485340037458
 20
25.0677
 30
0.0
 11
26.742670018729
 21
25.0677
 31
0.0
 13
0
 23
25.0677
 14
53.485340037458
 24
25.0677
 33
0.0
 34
0.0
53
90
  0
DIMENSION
  8
2D_DIM
  2
*D1
  3
ROUTEDIM
  1
25.068
 10
53.485340037458
 20
25.0677
 30
0.0
 11
53.485340037458
 21
12.53385
 31
0
 13
53.485340037458
 23
0
 14
53.485340037458
 24
25.0677
 50
90.0
53
0
 33
0.0
 34
0.0
  0
DIMENSION
  8
2D_DIM
  2
*D1
  3
ROUTEDIM
  1
53.485
 10
53.485339962542
 20
25.0677
 30
0.0
 11
26.742669981271
 21
25.0677
 31
0.0
 13
0
 23
25.0677
 14
53.485339962542
 24
25.0677
 33
0.0
 34
0.0
53
90
  0
DIMENSION
  8
2D_DIM
  2
*D1
  3
ROUTEDIM
  1
25.068
 10
53.485339962542
 20
25.0677
 30
0.0
 11
53.485339962542
 21
12.53385
 31
0
 13
53.485339962542
 23
0
 14
53.485339962542
 24
25.0677
 50
90.0
53
0
 33
0.0
 34
0.0
  0
DIMENSION
  8
2D_DIM
  2
*D1
  3
ROUTEDIM
  1
53.485
 10
53.485339962542
 20
25.067699925084
 30
0.0
 11
26.742669981271
 21
25.067699925084
 31
0.0
 13
0
 23
25.067699925084
 14
53.485339962542
 24
25.067699925084
 33
0.0
 34
0.0
53
90
  0
DIMENSION
  8
2D_DIM
  2
*D1
  3
ROUTEDIM
  1
25.068
 10
53.485339962542
 20
25.067699925084
 30
0.0
 11
53.485339962542
 21
12.533849962542
 31
0
 13
53.485339962542
 23
0
 14
53.485339962542
 24
25.067699925084
 50
90.0
53
0
 33
0.0
 34
0.0
  0
DIMENSION
  8
2D_DIM
  2
*D1
  3
ROUTEDIM
  1
53.485
 10
53.4853400020256
 20
33.8140047057457
 30
0.0
 11
26.7426700010128
 21
33.8140047057457
 31
0.0
 13
0
 23
33.8140047057457
 14
53.4853400020256
 24
33.8140047057457
 33
0.0
 34
0.0
53
90
  0
DIMENSION
  8
2D_DIM
  2
*D1
  3
ROUTEDIM
  1
33.814
 10
53.4853400020256
 20
33.8140047057457
 30
0.0
 11
53.4853400020256
 21
16.9070023528729
 31
0
 13
53.4853400020256
 23
0
 14
53.4853400020256
 24
33.8140047057457
 50
90.0
53
0
 33
0.0
 34
0.0
  0
DIMENSION
  8
2D_DIM
  2
*D1
  3
ROUTEDIM
  1
32.341
 10
32.3411199982638
 20
4.68797999826381
 30
0.0
 11
16.1705599991319
 21
4.68797999826381
 31
0.0
 13
0
 23
4.68797999826381
 14
32.3411199982638
 24
4.68797999826381
 33
0.0
 34
0.0
53
90
  0
DIMENSION
  8
2D_DIM
  2
*D1
  3
ROUTEDIM
  1
4.688
 10
32.3411199982638
 20
4.68797999826381
 30
0.0
 11
32.3411199982638
 21
2.3439899991319
 31
0
 13
32.3411199982638
 23
0
 14
32.3411199982638
 24
4.68797999826381
 50
90.0
53
0
 33
0.0
 34
0.0
  0
DIMENSION
  8
2D_DIM
  2
*D1
  3
ROUTEDIM
  1
32.341
 10
32.3411200017362
 20
4.68797999826381
 30
0.0
 11
16.1705600008681
 21
4.68797999826381
 31
0.0
 13
0
 23
4.68797999826381
 14
32.3411200017362
 24
4.68797999826381
 33
0.0
 34
0.0
53
90
  0
DIMENSION
  8
2D_DIM
  2
*D1
  3
ROUTEDIM
  1
4.688
 10
32.3411200017362
 20
4.68797999826381
 30
0.0
 11
32.3411200017362
 21
2.3439899991319
 31
0
 13
32.3411200017362
 23
0
 14
32.3411200017362
 24
4.68797999826381
 50
90.0
53
0
 33
0.0
 34
0.0
  0
DIMENSION
  8
2D_DIM
  2
*D1
  3
ROUTEDIM
  1
32.341
 10
32.3411200017362
 20
4.6879800017362
 30
0.0
 11
16.1705600008681
 21
4.6879800017362
 31
0.0
 13
0
 23
4.6879800017362
 14
32.3411200017362
 24
4.6879800017362
 33
0.0
 34
0.0
53
90
  0
DIMENSION
  8
2D_DIM
  2
*D1
  3
ROUTEDIM
  1
4.688
 10
32.3411200017362
 20
4.6879800017362
 30
0.0
 11
32.3411200017362
 21
2.3439900008681
 31
0
 13
32.3411200017362
 23
0
 14
32.3411200017362
 24
4.6879800017362
 50
90.0
53
0
 33
0.0
 34
0.0
  0
DIMENSION
  8
2D_DIM
  2
*D1
  3
ROUTEDIM
  1
32.373
 10
32.3732628554067
 20
4.72012285913949
 30
0.0
 11
16.1866314277033
 21
4.72012285913949
 31
0.0
 13
0
 23
4.72012285913949
 14
32.3732628554067
 24
4.72012285913949
 33
0.0
 34
0.0
53
90
  0
DIMENSION
  8
2D_DIM
  2
*D1
  3
ROUTEDIM
  1
4.72
 10
32.3732628554067
 20
4.72012285913949
 30
0.0
 11
32.3732628554067
 21
2.36006142956974
 31
0
 13
32.3732628554067
 23
0
 14
32.3732628554067
 24
4.72012285913949
 50
90.0
53
0
 33
0.0
 34
0.0
  0
DIMENSION
  8
2D_DIM
  2
*D1
  3
ROUTEDIM
  1
32.306
 10
32.3062985714286
 20
4.69708714285714
 30
0.0
 11
16.1531492857143
 21
4.69708714285714
 31
0.0
 13
0
 23
4.69708714285714
 14
32.3062985714286
 24
4.69708714285714
 33
0.0
 34
0.0
53
90
  0
DIMENSION
  8
2D_DIM
  2
*D1
  3
ROUTEDIM
  1
4.697
 10
32.3062985714286
 20
4.69708714285714
 30
0.0
 11
32.3062985714286
 21
2.34854357142857
 31
0
 13
32.3062985714286
 23
0
 14
32.3062985714286
 24
4.69708714285714
 50
90.0
53
0
 33
0.0
 34
0.0
  0
DIMENSION
  8
2D_DIM
  2
*D1
  3
ROUTEDIM
  1
32.301
 10
32.3009414285714
 20
4.61833714285715
 30
0.0
 11
16.1504707142857
 21
4.61833714285715
 31
0.0
 13
0
 23
4.61833714285715
 14
32.3009414285714
 24
4.61833714285715
 33
0.0
 34
0.0
53
90
  0
DIMENSION
  8
2D_DIM
  2
*D1
  3
ROUTEDIM
  1
4.618
 10
32.3009414285714
 20
4.61833714285715
 30
0.0
 11
32.3009414285714
 21
2.30916857142857
 31
0
 13
32.3009414285714
 23
0
 14
32.3009414285714
 24
4.61833714285715
 50
90.0
53
0
 33
0.0
 34
0.0
  0
DIMENSION
  8
2D_DIM
  2
*D1
  3
ROUTEDIM
  1
32.413
 10
32.4134414285714
 20
4.65048
 30
0.0
 11
16.2067207142857
 21
4.65048
 31
0.0
 13
0
 23
4.65048
 14
32.4134414285714
 24
4.65048
 33
0.0
 34
0.0
53
90
  0
DIMENSION
  8
2D_DIM
  2
*D1
  3
ROUTEDIM
  1
4.65
 10
32.4134414285714
 20
4.65048
 30
0.0
 11
32.4134414285714
 21
2.32524
 31
0
 13
32.4134414285714
 23
0
 14
32.4134414285714
 24
4.65048
 50
90.0
53
0
 33
0.0
 34
0.0
  0
DIMENSION
  8
2D_DIM
  2
*D1
  3
ROUTEDIM
  1
32.376
 10
32.3759414285714
 20
4.76298000000001
 30
0.0
 11
16.1879707142857
 21
4.76298000000001
 31
0.0
 13
0
 23
4.76298000000001
 14
32.3759414285714
 24
4.76298000000001
 33
0.0
 34
0.0
53
90
  0
DIMENSION
  8
2D_DIM
  2
*D1
  3
ROUTEDIM
  1
4.763
 10
32.3759414285714
 20
4.76298000000001
 30
0.0
 11
32.3759414285714
 21
2.38149
 31
0
 13
32.3759414285714
 23
0
 14
32.3759414285714
 24
4.76298000000001
 50
90.0
53
0
 33
0.0
 34
0.0
  0
DIMENSION
  8
2D_DIM
  2
*D1
  3
ROUTEDIM
  1
32.263
 10
32.2634414285714
 20
4.72012285714286
 30
0.0
 11
16.1317207142857
 21
4.72012285714286
 31
0.0
 13
0
 23
4.72012285714286
 14
32.2634414285714
 24
4.72012285714286
 33
0.0
 34
0.0
53
90
  0
DIMENSION
  8
2D_DIM
  2
*D1
  3
ROUTEDIM
  1
4.72
 10
32.2634414285714
 20
4.72012285714286
 30
0.0
 11
32.2634414285714
 21
2.36006142857143
 31
0
 13
32.2634414285714
 23
0
 14
32.2634414285714
 24
4.72012285714286
 50
90.0
53
0
 33
0.0
 34
0.0
  0
DIMENSION
  8
2D_DIM
  2
*D1
  3
ROUTEDIM
  1
32.312
 10
32.3116557142857
 20
4.60762285714286
 30
0.0
 11
16.1558278571429
 21
4.60762285714286
 31
0.0
 13
0
 23
4.60762285714286
 14
32.3116557142857
 24
4.60762285714286
 33
0.0
 34
0.0
53
90
  0
DIMENSION
  8
2D_DIM
  2
*D1
  3
ROUTEDIM
  1
4.608
 10
32.3116557142857
 20
4.60762285714286
 30
0.0
 11
32.3116557142857
 21
2.30381142857143
 31
0
 13
32.3116557142857
 23
0
 14
32.3116557142857
 24
4.60762285714286
 50
90.0
53
0
 33
0.0
 34
0.0
  0
DIMENSION
  8
2D_DIM
  2
*D1
  3
ROUTEDIM
  1
32.424
 10
32.4241557142857
 20
4.66119428571429
 30
0.0
 11
16.2120778571429
 21
4.66119428571429
 31
0.0
 13
0
 23
4.66119428571429
 14
32.4241557142857
 24
4.66119428571429
 33
0.0
 34
0.0
53
90
  0
DIMENSION
  8
2D_DIM
  2
*D1
  3
ROUTEDIM
  1
4.661
 10
32.4241557142857
 20
4.66119428571429
 30
0.0
 11
32.4241557142857
 21
2.33059714285715
 31
0
 13
32.4241557142857
 23
0
 14
32.4241557142857
 24
4.66119428571429
 50
90.0
53
0
 33
0.0
 34
0.0
  0
DIMENSION
  8
2D_DIM
  2
*D1
  3
ROUTEDIM
  1
32.365
 10
32.3652271428571
 20
4.77369428571429
 30
0.0
 11
16.1826135714286
 21
4.77369428571429
 31
0.0
 13
0
 23
4.77369428571429
 14
32.3652271428571
 24
4.77369428571429
 33
0.0
 34
0.0
53
90
  0
DIMENSION
  8
2D_DIM
  2
*D1
  3
ROUTEDIM
  1
4.774
 10
32.3652271428571
 20
4.77369428571429
 30
0.0
 11
32.3652271428571
 21
2.38684714285715
 31
0
 13
32.3652271428571
 23
0
 14
32.3652271428571
 24
4.77369428571429
 50
90.0
53
0
 33
0.0
 34
0.0
  0
DIMENSION
  8
2D_DIM
  2
*D1
  3
ROUTEDIM
  1
32.253
 10
32.2527271428571
 20
4.70940857142857
 30
0.0
 11
16.1263635714286
 21
4.70940857142857
 31
0.0
 13
0
 23
4.70940857142857
 14
32.2527271428571
 24
4.70940857142857
 33
0.0
 34
0.0
53
90
  0
DIMENSION
  8
2D_DIM
  2
*D1
  3
ROUTEDIM
  1
4.709
 10
32.2527271428571
 20
4.70940857142857
 30
0.0
 11
32.2527271428571
 21
2.35470428571429
 31
0
 13
32.2527271428571
 23
0
 14
32.2527271428571
 24
4.70940857142857
 50
90.0
53
0
 33
0.0
 34
0.0
  0
DIMENSION
  8
2D_DIM
  2
*D1
  3
ROUTEDIM
  1
32.322
 10
32.32237
 20
4.59690857142857
 30
0.0
 11
16.161185
 21
4.59690857142857
 31
0.0
 13
0
 23
4.59690857142857
 14
32.32237
 24
4.59690857142857
 33
0.0
 34
0.0
53
90
  0
DIMENSION
  8
2D_DIM
  2
*D1
  3
ROUTEDIM
  1
4.597
 10
32.32237
 20
4.59690857142857
 30
0.0
 11
32.32237
 21
2.29845428571429
 31
0
 13
32.32237
 23
0
 14
32.32237
 24
4.59690857142857
 50
90.0
53
0
 33
0.0
 34
0.0
  0
DIMENSION
  8
2D_DIM
  2
*D1
  3
ROUTEDIM
  1
32.435
 10
32.43487
 20
4.67190857142858
 30
0.0
 11
16.217435
 21
4.67190857142858
 31
0.0
 13
0
 23
4.67190857142858
 14
32.43487
 24
4.67190857142858
 33
0.0
 34
0.0
53
90
  0
DIMENSION
  8
2D_DIM
  2
*D1
  3
ROUTEDIM
  1
4.672
 10
32.43487
 20
4.67190857142858
 30
0.0
 11
32.43487
 21
2.33595428571429
 31
0
 13
32.43487
 23
0
 14
32.43487
 24
4.67190857142858
 50
90.0
53
0
 33
0.0
 34
0.0
  0
DIMENSION
  8
2D_DIM
  2
*D1
  3
ROUTEDIM
  1
32.355
 10
32.3545128571429
 20
4.78440857142858
 30
0.0
 11
16.1772564285714
 21
4.78440857142858
 31
0.0
 13
0
 23
4.78440857142858
 14
32.3545128571429
 24
4.78440857142858
 33
0.0
 34
0.0
53
90
  0
DIMENSION
  8
2D_DIM
  2
*D1
  3
ROUTEDIM
  1
4.784
 10
32.3545128571429
 20
4.78440857142858
 30
0.0
 11
32.3545128571429
 21
2.39220428571429
 31
0
 13
32.3545128571429
 23
0
 14
32.3545128571429
 24
4.78440857142858
 50
90.0
53
0
 33
0.0
 34
0.0
  0
DIMENSION
  8
2D_DIM
  2
*D1
  3
ROUTEDIM
  1
32.242
 10
32.2420128571429
 20
4.69869428571429
 30
0.0
 11
16.1210064285714
 21
4.69869428571429
 31
0.0
 13
0
 23
4.69869428571429
 14
32.2420128571429
 24
4.69869428571429
 33
0.0
 34
0.0
53
90
  0
DIMENSION
  8
2D_DIM
  2
*D1
  3
ROUTEDIM
  1
4.699
 10
32.2420128571429
 20
4.69869428571429
 30
0.0
 11
32.2420128571429
 21
2.34934714285714
 31
0
 13
32.2420128571429
 23
0
 14
32.2420128571429
 24
4.69869428571429
 50
90.0
53
0
 33
0.0
 34
0.0
  0
DIMENSION
  8
2D_DIM
  2
*D1
  3
ROUTEDIM
  1
32.333
 10
32.3330842857143
 20
4.58619428571429
 30
0.0
 11
16.1665421428571
 21
4.58619428571429
 31
0.0
 13
0
 23
4.58619428571429
 14
32.3330842857143
 24
4.58619428571429
 33
0.0
 34
0.0
53
90
  0
DIMENSION
  8
2D_DIM
  2
*D1
  3
ROUTEDIM
  1
4.586
 10
32.3330842857143
 20
4.58619428571429
 30
0.0
 11
32.3330842857143
 21
2.29309714285714
 31
0
 13
32.3330842857143
 23
0
 14
32.3330842857143
 24
4.58619428571429
 50
90.0
53
0
 33
0.0
 34
0.0
  0
DIMENSION
  8
2D_DIM
  2
*D1
  3
ROUTEDIM
  1
32.446
 10
32.4455842857143
 20
4.68262285714286
 30
0.0
 11
16.2227921428571
 21
4.68262285714286
 31
0.0
 13
0
 23
4.68262285714286
 14
32.4455842857143
 24
4.68262285714286
 33
0.0
 34
0.0
53
90
  0
DIMENSION
  8
2D_DIM
  2
*D1
  3
ROUTEDIM
  1
4.683
 10
32.4455842857143
 20
4.68262285714286
 30
0.0
 11
32.4455842857143
 21
2.34131142857143
 31
0
 13
32.4455842857143
 23
0
 14
32.4455842857143
 24
4.68262285714286
 50
90.0
53
0
 33
0.0
 34
0.0
  0
DIMENSION
  8
2D_DIM
  2
*D1
  3
ROUTEDIM
  1
32.344
 10
32.3437985714286
 20
4.79512285714286
 30
0.0
 11
16.1718992857143
 21
4.79512285714286
 31
0.0
 13
0
 23
4.79512285714286
 14
32.3437985714286
 24
4.79512285714286
 33
0.0
 34
0.0
53
90
  0
DIMENSION
  8
2D_DIM
  2
*D1
  3
ROUTEDIM
  1
4.795
 10
32.3437985714286
 20
4.79512285714286
 30
0.0
 11
32.3437985714286
 21
2.39756142857143
 31
0
 13
32.3437985714286
 23
0
 14
32.3437985714286
 24
4.79512285714286
 50
90.0
53
0
 33
0.0
 34
0.0
  0
DIMENSION
  8
2D_DIM
  2
*D1
  3
ROUTEDIM
  1
32.231
 10
32.2312985714286
 20
4.68798
 30
0.0
 11
16.1156492857143
 21
4.68798
 31
0.0
 13
0
 23
4.68798
 14
32.2312985714286
 24
4.68798
 33
0.0
 34
0.0
53
90
  0
DIMENSION
  8
2D_DIM
  2
*D1
  3
ROUTEDIM
  1
4.688
 10
32.2312985714286
 20
4.68798
 30
0.0
 11
32.2312985714286
 21
2.34399
 31
0
 13
32.2312985714286
 23
0
 14
32.2312985714286
 24
4.68798
 50
90.0
53
0
 33
0.0
 34
0.0
  0
DIMENSION
  8
2D_DIM
  2
*D1
  3
ROUTEDIM
  1
32.344
 10
32.3437985714286
 20
4.57548
 30
0.0
 11
16.1718992857143
 21
4.57548
 31
0.0
 13
0
 23
4.57548
 14
32.3437985714286
 24
4.57548
 33
0.0
 34
0.0
53
90
  0
DIMENSION
  8
2D_DIM
  2
*D1
  3
ROUTEDIM
  1
4.575
 10
32.3437985714286
 20
4.57548
 30
0.0
 11
32.3437985714286
 21
2.28774
 31
0
 13
32.3437985714286
 23
0
 14
32.3437985714286
 24
4.57548
 50
90.0
53
0
 33
0.0
 34
0.0
  0
DIMENSION
  8
2D_DIM
  2
*D1
  3
ROUTEDIM
  1
32.456
 10
32.4562985714286
 20
4.69333714285714
 30
0.0
 11
16.2281492857143
 21
4.69333714285714
 31
0.0
 13
0
 23
4.69333714285714
 14
32.4562985714286
 24
4.69333714285714
 33
0.0
 34
0.0
53
90
  0
DIMENSION
  8
2D_DIM
  2
*D1
  3
ROUTEDIM
  1
4.693
 10
32.4562985714286
 20
4.69333714285714
 30
0.0
 11
32.4562985714286
 21
2.34666857142857
 31
0
 13
32.4562985714286
 23
0
 14
32.4562985714286
 24
4.69333714285714
 50
90.0
53
0
 33
0.0
 34
0.0
  0
DIMENSION
  8
2D_DIM
  2
*D1
  3
ROUTEDIM
  1
32.333
 10
32.3330842857143
 20
4.80583714285715
 30
0.0
 11
16.1665421428571
 21
4.80583714285715
 31
0.0
 13
0
 23
4.80583714285715
 14
32.3330842857143
 24
4.80583714285715
 33
0.0
 34
0.0
53
90
  0
DIMENSION
  8
2D_DIM
  2
*D1
  3
ROUTEDIM
  1
4.806
 10
32.3330842857143
 20
4.80583714285715
 30
0.0
 11
32.3330842857143
 21
2.40291857142857
 31
0
 13
32.3330842857143
 23
0
 14
32.3330842857143
 24
4.80583714285715
 50
90.0
53
0
 33
0.0
 34
0.0
  0
DIMENSION
  8
2D_DIM
  2
*D1
  3
ROUTEDIM
  1
32.221
 10
32.2205842857143
 20
4.67726571428571
 30
0.0
 11
16.1102921428571
 21
4.67726571428571
 31
0.0
 13
0
 23
4.67726571428571
 14
32.2205842857143
 24
4.67726571428571
 33
0.0
 34
0.0
53
90
  0
DIMENSION
  8
2D_DIM
  2
*D1
  3
ROUTEDIM
  1
4.677
 10
32.2205842857143
 20
4.67726571428571
 30
0.0
 11
32.2205842857143
 21
2.33863285714286
 31
0
 13
32.2205842857143
 23
0
 14
32.2205842857143
 24
4.67726571428571
 50
90.0
53
0
 33
0.0
 34
0.0
  0
DIMENSION
  8
2D_DIM
  2
*D1
  3
ROUTEDIM
  1
32.355
 10
32.3545128571429
 20
4.56476571428571
 30
0.0
 11
16.1772564285714
 21
4.56476571428571
 31
0.0
 13
0
 23
4.56476571428571
 14
32.3545128571429
 24
4.56476571428571
 33
0.0
 34
0.0
53
90
  0
DIMENSION
  8
2D_DIM
  2
*D1
  3
ROUTEDIM
  1
4.565
 10
32.3545128571429
 20
4.56476571428571
 30
0.0
 11
32.3545128571429
 21
2.28238285714286
 31
0
 13
32.3545128571429
 23
0
 14
32.3545128571429
 24
4.56476571428571
 50
90.0
53
0
 33
0.0
 34
0.0
  0
DIMENSION
  8
2D_DIM
  2
*D1
  3
ROUTEDIM
  1
32.467
 10
32.4670128571429
 20
4.70405142857143
 30
0.0
 11
16.2335064285714
 21
4.70405142857143
 31
0.0
 13
0
 23
4.70405142857143
 14
32.4670128571429
 24
4.70405142857143
 33
0.0
 34
0.0
53
90
  0
DIMENSION
  8
2D_DIM
  2
*D1
  3
ROUTEDIM
  1
4.704
 10
32.4670128571429
 20
4.70405142857143
 30
0.0
 11
32.4670128571429
 21
2.35202571428572
 31
0
 13
32.4670128571429
 23
0
 14
32.4670128571429
 24
4.70405142857143
 50
90.0
53
0
 33
0.0
 34
0.0
  0
DIMENSION
  8
2D_DIM
  2
*D1
  3
ROUTEDIM
  1
32.322
 10
32.32237
 20
4.81655142857143
 30
0.0
 11
16.161185
 21
4.81655142857143
 31
0.0
 13
0
 23
4.81655142857143
 14
32.32237
 24
4.81655142857143
 33
0.0
 34
0.0
53
90
  0
DIMENSION
  8
2D_DIM
  2
*D1
  3
ROUTEDIM
  1
4.817
 10
32.32237
 20
4.81655142857143
 30
0.0
 11
32.32237
 21
2.40827571428572
 31
0
 13
32.32237
 23
0
 14
32.32237
 24
4.81655142857143
 50
90.0
53
0
 33
0.0
 34
0.0
  0
DIMENSION
  8
2D_DIM
  2
*D1
  3
ROUTEDIM
  1
32.341
 10
32.3411199878466
 20
4.68797998784662
 30
0.0
 11
16.1705599939233
 21
4.68797998784662
 31
0.0
 13
0
 23
4.68797998784662
 14
32.3411199878466
 24
4.68797998784662
 33
0.0
 34
0.0
53
90
  0
DIMENSION
  8
2D_DIM
  2
*D1
  3
ROUTEDIM
  1
4.688
 10
32.3411199878466
 20
4.68797998784662
 30
0.0
 11
32.3411199878466
 21
2.34398999392331
 31
0
 13
32.3411199878466
 23
0
 14
32.3411199878466
 24
4.68797998784662
 50
90.0
53
0
 33
0.0
 34
0.0
  0
DIMENSION
  8
2D_DIM
  2
*D1
  3
ROUTEDIM
  1
32.341
 10
32.3411200121534
 20
4.68797998784662
 30
0.0
 11
16.1705600060767
 21
4.68797998784662
 31
0.0
 13
0
 23
4.68797998784662
 14
32.3411200121534
 24
4.68797998784662
 33
0.0
 34
0.0
53
90
  0
DIMENSION
  8
2D_DIM
  2
*D1
  3
ROUTEDIM
  1
4.688
 10
32.3411200121534
 20
4.68797998784662
 30
0.0
 11
32.3411200121534
 21
2.34398999392331
 31
0
 13
32.3411200121534
 23
0
 14
32.3411200121534
 24
4.68797998784662
 50
90.0
53
0
 33
0.0
 34
0.0
  0
DIMENSION
  8
2D_DIM
  2
*D1
  3
ROUTEDIM
  1
32.341
 10
32.3411200121534
 20
4.68798001215338
 30
0.0
 11
16.1705600060767
 21
4.68798001215338
 31
0.0
 13
0
 23
4.68798001215338
 14
32.3411200121534
 24
4.68798001215338
 33
0.0
 34
0.0
53
90
  0
DIMENSION
  8
2D_DIM
  2
*D1
  3
ROUTEDIM
  1
4.688
 10
32.3411200121534
 20
4.68798001215338
 30
0.0
 11
32.3411200121534
 21
2.34399000607669
 31
0
 13
32.3411200121534
 23
0
 14
32.3411200121534
 24
4.68798001215338
 50
90.0
53
0
 33
0.0
 34
0.0
  0
DIMENSION
  8
2D_DIM
  2
*D1
  3
ROUTEDIM
  1
32.341
 10
32.3411199878466
 20
4.68798001215338
 30
0.0
 11
16.1705599939233
 21
4.68798001215338
 31
0.0
 13
0
 23
4.68798001215338
 14
32.3411199878466
 24
4.68798001215338
 33
0.0
 34
0.0
53
90
  0
DIMENSION
  8
2D_DIM
  2
*D1
  3
ROUTEDIM
  1
4.688
 10
32.3411199878466
 20
4.68798001215338
 30
0.0
 11
32.3411199878466
 21
2.34399000607669
 31
0
 13
32.3411199878466
 23
0
 14
32.3411199878466
 24
4.68798001215338
 50
90.0
53
0
 33
0.0
 34
0.0
  0
DIMENSION
  8
2D_DIM
  2
*D1
  3
ROUTEDIM
  1
32.341
 10
32.3411199878466
 20
4.68797998784662
 30
0.0
 11
16.1705599939233
 21
4.68797998784662
 31
0.0
 13
0
 23
4.68797998784662
 14
32.3411199878466
 24
4.68797998784662
 33
0.0
 34
0.0
53
90
  0
DIMENSION
  8
2D_DIM
  2
*D1
  3
ROUTEDIM
  1
4.688
 10
32.3411199878466
 20
4.68797998784662
 30
0.0
 11
32.3411199878466
 21
2.34398999392331
 31
0
 13
32.3411199878466
 23
0
 14
32.3411199878466
 24
4.68797998784662
 50
90.0
53
0
 33
0.0
 34
0.0
  0
DIMENSION
  8
2D_DIM
  2
*D1
  3
ROUTEDIM
  1
32.395
 10
32.3946914407248
 20
4.7415514168521
 30
0.0
 11
16.1973457203624
 21
4.7415514168521
 31
0.0
 13
0
 23
4.7415514168521
 14
32.3946914407248
 24
4.7415514168521
 33
0.0
 34
0.0
53
90
  0
DIMENSION
  8
2D_DIM
  2
*D1
  3
ROUTEDIM
  1
4.742
 10
32.3946914407248
 20
4.7415514168521
 30
0.0
 11
32.3946914407248
 21
2.37077570842605
 31
0
 13
32.3946914407248
 23
0
 14
32.3946914407248
 24
4.7415514168521
 50
90.0
53
0
 33
0.0
 34
0.0
  0
DIMENSION
  8
2D_DIM
  2
*D1
  3
ROUTEDIM
  1
6.553
 10
6.5532799982638
 20
41.7940899982638
 30
0.0
 11
3.2766399991319
 21
41.7940899982638
 31
0.0
 13
0
 23
41.7940899982638
 14
6.5532799982638
 24
41.7940899982638
 33
0.0
 34
0.0
53
90
  0
DIMENSION
  8
2D_DIM
  2
*D1
  3
ROUTEDIM
  1
41.794
 10
6.5532799982638
 20
41.7940899982638
 30
0.0
 11
6.5532799982638
 21
20.8970449991319
 31
0
 13
6.5532799982638
 23
0
 14
6.5532799982638
 24
41.7940899982638
 50
90.0
53
0
 33
0.0
 34
0.0
  0
DIMENSION
  8
2D_DIM
  2
*D1
  3
ROUTEDIM
  1
6.553
 10
6.5532800017362
 20
41.7940899982638
 30
0.0
 11
3.2766400008681
 21
41.7940899982638
 31
0.0
 13
0
 23
41.7940899982638
 14
6.5532800017362
 24
41.7940899982638
 33
0.0
 34
0.0
53
90
  0
DIMENSION
  8
2D_DIM
  2
*D1
  3
ROUTEDIM
  1
41.794
 10
6.5532800017362
 20
41.7940899982638
 30
0.0
 11
6.5532800017362
 21
20.8970449991319
 31
0
 13
6.5532800017362
 23
0
 14
6.5532800017362
 24
41.7940899982638
 50
90.0
53
0
 33
0.0
 34
0.0
  0
DIMENSION
  8
2D_DIM
  2
*D1
  3
ROUTEDIM
  1
6.553
 10
6.55328000173619
 20
41.7940900017362
 30
0.0
 11
3.2766400008681
 21
41.7940900017362
 31
0.0
 13
0
 23
41.7940900017362
 14
6.55328000173619
 24
41.7940900017362
 33
0.0
 34
0.0
53
90
  0
DIMENSION
  8
2D_DIM
  2
*D1
  3
ROUTEDIM
  1
41.794
 10
6.55328000173619
 20
41.7940900017362
 30
0.0
 11
6.55328000173619
 21
20.8970450008681
 31
0
 13
6.55328000173619
 23
0
 14
6.55328000173619
 24
41.7940900017362
 50
90.0
53
0
 33
0.0
 34
0.0
  0
DIMENSION
  8
2D_DIM
  2
*D1
  3
ROUTEDIM
  1
6.585
 10
6.58542285540666
 20
41.8262328591395
 30
0.0
 11
3.29271142770333
 21
41.8262328591395
 31
0.0
 13
0
 23
41.8262328591395
 14
6.58542285540666
 24
41.8262328591395
 33
0.0
 34
0.0
53
90
  0
DIMENSION
  8
2D_DIM
  2
*D1
  3
ROUTEDIM
  1
41.826
 10
6.58542285540666
 20
41.8262328591395
 30
0.0
 11
6.58542285540666
 21
20.9131164295697
 31
0
 13
6.58542285540666
 23
0
 14
6.58542285540666
 24
41.8262328591395
 50
90.0
53
0
 33
0.0
 34
0.0
  0
DIMENSION
  8
2D_DIM
  2
*D1
  3
ROUTEDIM
  1
6.518
 10
6.51845857142857
 20
41.8031971428571
 30
0.0
 11
3.25922928571428
 21
41.8031971428571
 31
0.0
 13
0
 23
41.8031971428571
 14
6.51845857142857
 24
41.8031971428571
 33
0.0
 34
0.0
53
90
  0
DIMENSION
  8
2D_DIM
  2
*D1
  3
ROUTEDIM
  1
41.803
 10
6.51845857142857
 20
41.8031971428571
 30
0.0
 11
6.51845857142857
 21
20.9015985714286
 31
0
 13
6.51845857142857
 23
0
 14
6.51845857142857
 24
41.8031971428571
 50
90.0
53
0
 33
0.0
 34
0.0
  0
DIMENSION
  8
2D_DIM
  2
*D1
  3
ROUTEDIM
  1
6.513
 10
6.51310142857143
 20
41.7244471428571
 30
0.0
 11
3.25655071428572
 21
41.7244471428571
 31
0.0
 13
0
 23
41.7244471428571
 14
6.51310142857143
 24
41.7244471428571
 33
0.0
 34
0.0
53
90
  0
DIMENSION
  8
2D_DIM
  2
*D1
  3
ROUTEDIM
  1
41.724
 10
6.51310142857143
 20
41.7244471428571
 30
0.0
 11
6.51310142857143
 21
20.8622235714286
 31
0
 13
6.51310142857143
 23
0
 14
6.51310142857143
 24
41.7244471428571
 50
90.0
53
0
 33
0.0
 34
0.0
  0
DIMENSION
  8
2D_DIM
  2
*D1
  3
ROUTEDIM
  1
6.626
 10
6.62560142857143
 20
41.75659
 30
0.0
 11
3.31280071428571
 21
41.75659
 31
0.0
 13
0
 23
41.75659
 14
6.62560142857143
 24
41.75659
 33
0.0
 34
0.0
53
90
  0
DIMENSION
  8
2D_DIM
  2
*D1
  3
ROUTEDIM
  1
41.757
 10
6.62560142857143
 20
41.75659
 30
0.0
 11
6.62560142857143
 21
20.878295
 31
0
 13
6.62560142857143
 23
0
 14
6.62560142857143
 24
41.75659
 50
90.0
53
0
 33
0.0
 34
0.0
  0
DIMENSION
  8
2D_DIM
  2
*D1
  3
ROUTEDIM
  1
6.588
 10
6.58810142857143
 20
41.86909
 30
0.0
 11
3.29405071428571
 21
41.86909
 31
0.0
 13
0
 23
41.86909
 14
6.58810142857143
 24
41.86909
 33
0.0
 34
0.0
53
90
  0
DIMENSION
  8
2D_DIM
  2
*D1
  3
ROUTEDIM
  1
41.869
 10
6.58810142857143
 20
41.86909
 30
0.0
 11
6.58810142857143
 21
20.934545
 31
0
 13
6.58810142857143
 23
0
 14
6.58810142857143
 24
41.86909
 50
90.0
53
0
 33
0.0
 34
0.0
  0
DIMENSION
  8
2D_DIM
  2
*D1
  3
ROUTEDIM
  1
6.476
 10
6.47560142857143
 20
41.8262328571428
 30
0.0
 11
3.23780071428571
 21
41.8262328571428
 31
0.0
 13
0
 23
41.8262328571428
 14
6.47560142857143
 24
41.8262328571428
 33
0.0
 34
0.0
53
90
  0
DIMENSION
  8
2D_DIM
  2
*D1
  3
ROUTEDIM
  1
41.826
 10
6.47560142857143
 20
41.8262328571428
 30
0.0
 11
6.47560142857143
 21
20.9131164285714
 31
0
 13
6.47560142857143
 23
0
 14
6.47560142857143
 24
41.8262328571428
 50
90.0
53
0
 33
0.0
 34
0.0
  0
DIMENSION
  8
2D_DIM
  2
*D1
  3
ROUTEDIM
  1
6.524
 10
6.52381571428571
 20
41.7137328571429
 30
0.0
 11
3.26190785714286
 21
41.7137328571429
 31
0.0
 13
0
 23
41.7137328571429
 14
6.52381571428571
 24
41.7137328571429
 33
0.0
 34
0.0
53
90
  0
DIMENSION
  8
2D_DIM
  2
*D1
  3
ROUTEDIM
  1
41.714
 10
6.52381571428571
 20
41.7137328571429
 30
0.0
 11
6.52381571428571
 21
20.8568664285714
 31
0
 13
6.52381571428571
 23
0
 14
6.52381571428571
 24
41.7137328571429
 50
90.0
53
0
 33
0.0
 34
0.0
  0
DIMENSION
  8
2D_DIM
  2
*D1
  3
ROUTEDIM
  1
6.636
 10
6.63631571428571
 20
41.7673042857143
 30
0.0
 11
3.31815785714286
 21
41.7673042857143
 31
0.0
 13
0
 23
41.7673042857143
 14
6.63631571428571
 24
41.7673042857143
 33
0.0
 34
0.0
53
90
  0
DIMENSION
  8
2D_DIM
  2
*D1
  3
ROUTEDIM
  1
41.767
 10
6.63631571428571
 20
41.7673042857143
 30
0.0
 11
6.63631571428571
 21
20.8836521428571
 31
0
 13
6.63631571428571
 23
0
 14
6.63631571428571
 24
41.7673042857143
 50
90.0
53
0
 33
0.0
 34
0.0
  0
DIMENSION
  8
2D_DIM
  2
*D1
  3
ROUTEDIM
  1
6.577
 10
6.57738714285715
 20
41.8798042857143
 30
0.0
 11
3.28869357142857
 21
41.8798042857143
 31
0.0
 13
0
 23
41.8798042857143
 14
6.57738714285715
 24
41.8798042857143
 33
0.0
 34
0.0
53
90
  0
DIMENSION
  8
2D_DIM
  2
*D1
  3
ROUTEDIM
  1
41.88
 10
6.57738714285715
 20
41.8798042857143
 30
0.0
 11
6.57738714285715
 21
20.9399021428571
 31
0
 13
6.57738714285715
 23
0
 14
6.57738714285715
 24
41.8798042857143
 50
90.0
53
0
 33
0.0
 34
0.0
  0
DIMENSION
  8
2D_DIM
  2
*D1
  3
ROUTEDIM
  1
6.465
 10
6.46488714285714
 20
41.8155185714286
 30
0.0
 11
3.23244357142857
 21
41.8155185714286
 31
0.0
 13
0
 23
41.8155185714286
 14
6.46488714285714
 24
41.8155185714286
 33
0.0
 34
0.0
53
90
  0
DIMENSION
  8
2D_DIM
  2
*D1
  3
ROUTEDIM
  1
41.816
 10
6.46488714285714
 20
41.8155185714286
 30
0.0
 11
6.46488714285714
 21
20.9077592857143
 31
0
 13
6.46488714285714
 23
0
 14
6.46488714285714
 24
41.8155185714286
 50
90.0
53
0
 33
0.0
 34
0.0
  0
DIMENSION
  8
2D_DIM
  2
*D1
  3
ROUTEDIM
  1
6.535
 10
6.53453
 20
41.7030185714286
 30
0.0
 11
3.267265
 21
41.7030185714286
 31
0.0
 13
0
 23
41.7030185714286
 14
6.53453
 24
41.7030185714286
 33
0.0
 34
0.0
53
90
  0
DIMENSION
  8
2D_DIM
  2
*D1
  3
ROUTEDIM
  1
41.703
 10
6.53453
 20
41.7030185714286
 30
0.0
 11
6.53453
 21
20.8515092857143
 31
0
 13
6.53453
 23
0
 14
6.53453
 24
41.7030185714286
 50
90.0
53
0
 33
0.0
 34
0.0
  0
DIMENSION
  8
2D_DIM
  2
*D1
  3
ROUTEDIM
  1
6.647
 10
6.64703
 20
41.7780185714286
 30
0.0
 11
3.323515
 21
41.7780185714286
 31
0.0
 13
0
 23
41.7780185714286
 14
6.64703
 24
41.7780185714286
 33
0.0
 34
0.0
53
90
  0
DIMENSION
  8
2D_DIM
  2
*D1
  3
ROUTEDIM
  1
41.778
 10
6.64703
 20
41.7780185714286
 30
0.0
 11
6.64703
 21
20.8890092857143
 31
0
 13
6.64703
 23
0
 14
6.64703
 24
41.7780185714286
 50
90.0
53
0
 33
0.0
 34
0.0
  0
DIMENSION
  8
2D_DIM
  2
*D1
  3
ROUTEDIM
  1
6.567
 10
6.56667285714286
 20
41.8905185714286
 30
0.0
 11
3.28333642857143
 21
41.8905185714286
 31
0.0
 13
0
 23
41.8905185714286
 14
6.56667285714286
 24
41.8905185714286
 33
0.0
 34
0.0
53
90
  0
DIMENSION
  8
2D_DIM
  2
*D1
  3
ROUTEDIM
  1
41.891
 10
6.56667285714286
 20
41.8905185714286
 30
0.0
 11
6.56667285714286
 21
20.9452592857143
 31
0
 13
6.56667285714286
 23
0
 14
6.56667285714286
 24
41.8905185714286
 50
90.0
53
0
 33
0.0
 34
0.0
  0
DIMENSION
  8
2D_DIM
  2
*D1
  3
ROUTEDIM
  1
6.454
 10
6.45417285714285
 20
41.8048042857143
 30
0.0
 11
3.22708642857143
 21
41.8048042857143
 31
0.0
 13
0
 23
41.8048042857143
 14
6.45417285714285
 24
41.8048042857143
 33
0.0
 34
0.0
53
90
  0
DIMENSION
  8
2D_DIM
  2
*D1
  3
ROUTEDIM
  1
41.805
 10
6.45417285714285
 20
41.8048042857143
 30
0.0
 11
6.45417285714285
 21
20.9024021428571
 31
0
 13
6.45417285714285
 23
0
 14
6.45417285714285
 24
41.8048042857143
 50
90.0
53
0
 33
0.0
 34
0.0
  0
DIMENSION
  8
2D_DIM
  2
*D1
  3
ROUTEDIM
  1
6.545
 10
6.54524428571429
 20
41.6923042857143
 30
0.0
 11
3.27262214285714
 21
41.6923042857143
 31
0.0
 13
0
 23
41.6923042857143
 14
6.54524428571429
 24
41.6923042857143
 33
0.0
 34
0.0
53
90
  0
DIMENSION
  8
2D_DIM
  2
*D1
  3
ROUTEDIM
  1
41.692
 10
6.54524428571429
 20
41.6923042857143
 30
0.0
 11
6.54524428571429
 21
20.8461521428571
 31
0
 13
6.54524428571429
 23
0
 14
6.54524428571429
 24
41.6923042857143
 50
90.0
53
0
 33
0.0
 34
0.0
  0
DIMENSION
  8
2D_DIM
  2
*D1
  3
ROUTEDIM
  1
6.658
 10
6.65774428571429
 20
41.7887328571429
 30
0.0
 11
3.32887214285714
 21
41.7887328571429
 31
0.0
 13
0
 23
41.7887328571429
 14
6.65774428571429
 24
41.7887328571429
 33
0.0
 34
0.0
53
90
  0
DIMENSION
  8
2D_DIM
  2
*D1
  3
ROUTEDIM
  1
41.789
 10
6.65774428571429
 20
41.7887328571429
 30
0.0
 11
6.65774428571429
 21
20.8943664285714
 31
0
 13
6.65774428571429
 23
0
 14
6.65774428571429
 24
41.7887328571429
 50
90.0
53
0
 33
0.0
 34
0.0
  0
DIMENSION
  8
2D_DIM
  2
*D1
  3
ROUTEDIM
  1
6.556
 10
6.55595857142857
 20
41.9012328571429
 30
0.0
 11
3.27797928571429
 21
41.9012328571429
 31
0.0
 13
0
 23
41.9012328571429
 14
6.55595857142857
 24
41.9012328571429
 33
0.0
 34
0.0
53
90
  0
DIMENSION
  8
2D_DIM
  2
*D1
  3
ROUTEDIM
  1
41.901
 10
6.55595857142857
 20
41.9012328571429
 30
0.0
 11
6.55595857142857
 21
20.9506164285714
 31
0
 13
6.55595857142857
 23
0
 14
6.55595857142857
 24
41.9012328571429
 50
90.0
53
0
 33
0.0
 34
0.0
  0
DIMENSION
  8
2D_DIM
  2
*D1
  3
ROUTEDIM
  1
6.443
 10
6.44345857142857
 20
41.79409
 30
0.0
 11
3.22172928571429
 21
41.79409
 31
0.0
 13
0
 23
41.79409
 14
6.44345857142857
 24
41.79409
 33
0.0
 34
0.0
53
90
  0
DIMENSION
  8
2D_DIM
  2
*D1
  3
ROUTEDIM
  1
41.794
 10
6.44345857142857
 20
41.79409
 30
0.0
 11
6.44345857142857
 21
20.897045
 31
0
 13
6.44345857142857
 23
0
 14
6.44345857142857
 24
41.79409
 50
90.0
53
0
 33
0.0
 34
0.0
  0
DIMENSION
  8
2D_DIM
  2
*D1
  3
ROUTEDIM
  1
6.556
 10
6.55595857142857
 20
41.68159
 30
0.0
 11
3.27797928571428
 21
41.68159
 31
0.0
 13
0
 23
41.68159
 14
6.55595857142857
 24
41.68159
 33
0.0
 34
0.0
53
90
  0
DIMENSION
  8
2D_DIM
  2
*D1
  3
ROUTEDIM
  1
41.682
 10
6.55595857142857
 20
41.68159
 30
0.0
 11
6.55595857142857
 21
20.840795
 31
0
 13
6.55595857142857
 23
0
 14
6.55595857142857
 24
41.68159
 50
90.0
53
0
 33
0.0
 34
0.0
  0
DIMENSION
  8
2D_DIM
  2
*D1
  3
ROUTEDIM
  1
6.668
 10
6.66845857142857
 20
41.7994471428571
 30
0.0
 11
3.33422928571428
 21
41.7994471428571
 31
0.0
 13
0
 23
41.7994471428571
 14
6.66845857142857
 24
41.7994471428571
 33
0.0
 34
0.0
53
90
  0
DIMENSION
  8
2D_DIM
  2
*D1
  3
ROUTEDIM
  1
41.799
 10
6.66845857142857
 20
41.7994471428571
 30
0.0
 11
6.66845857142857
 21
20.8997235714286
 31
0
 13
6.66845857142857
 23
0
 14
6.66845857142857
 24
41.7994471428571
 50
90.0
53
0
 33
0.0
 34
0.0
  0
DIMENSION
  8
2D_DIM
  2
*D1
  3
ROUTEDIM
  1
6.545
 10
6.54524428571429
 20
41.9119471428571
 30
0.0
 11
3.27262214285714
 21
41.9119471428571
 31
0.0
 13
0
 23
41.9119471428571
 14
6.54524428571429
 24
41.9119471428571
 33
0.0
 34
0.0
53
90
  0
DIMENSION
  8
2D_DIM
  2
*D1
  3
ROUTEDIM
  1
41.912
 10
6.54524428571429
 20
41.9119471428571
 30
0.0
 11
6.54524428571429
 21
20.9559735714286
 31
0
 13
6.54524428571429
 23
0
 14
6.54524428571429
 24
41.9119471428571
 50
90.0
53
0
 33
0.0
 34
0.0
  0
DIMENSION
  8
2D_DIM
  2
*D1
  3
ROUTEDIM
  1
6.433
 10
6.43274428571429
 20
41.7833757142857
 30
0.0
 11
3.21637214285714
 21
41.7833757142857
 31
0.0
 13
0
 23
41.7833757142857
 14
6.43274428571429
 24
41.7833757142857
 33
0.0
 34
0.0
53
90
  0
DIMENSION
  8
2D_DIM
  2
*D1
  3
ROUTEDIM
  1
41.783
 10
6.43274428571429
 20
41.7833757142857
 30
0.0
 11
6.43274428571429
 21
20.8916878571429
 31
0
 13
6.43274428571429
 23
0
 14
6.43274428571429
 24
41.7833757142857
 50
90.0
53
0
 33
0.0
 34
0.0
  0
DIMENSION
  8
2D_DIM
  2
*D1
  3
ROUTEDIM
  1
6.567
 10
6.56667285714286
 20
41.6708757142857
 30
0.0
 11
3.28333642857143
 21
41.6708757142857
 31
0.0
 13
0
 23
41.6708757142857
 14
6.56667285714286
 24
41.6708757142857
 33
0.0
 34
0.0
53
90
  0
DIMENSION
  8
2D_DIM
  2
*D1
  3
ROUTEDIM
  1
41.671
 10
6.56667285714286
 20
41.6708757142857
 30
0.0
 11
6.56667285714286
 21
20.8354378571429
 31
0
 13
6.56667285714286
 23
0
 14
6.56667285714286
 24
41.6708757142857
 50
90.0
53
0
 33
0.0
 34
0.0
  0
DIMENSION
  8
2D_DIM
  2
*D1
  3
ROUTEDIM
  1
6.679
 10
6.67917285714286
 20
41.8101614285714
 30
0.0
 11
3.33958642857143
 21
41.8101614285714
 31
0.0
 13
0
 23
41.8101614285714
 14
6.67917285714286
 24
41.8101614285714
 33
0.0
 34
0.0
53
90
  0
DIMENSION
  8
2D_DIM
  2
*D1
  3
ROUTEDIM
  1
41.81
 10
6.67917285714286
 20
41.8101614285714
 30
0.0
 11
6.67917285714286
 21
20.9050807142857
 31
0
 13
6.67917285714286
 23
0
 14
6.67917285714286
 24
41.8101614285714
 50
90.0
53
0
 33
0.0
 34
0.0
  0
DIMENSION
  8
2D_DIM
  2
*D1
  3
ROUTEDIM
  1
6.535
 10
6.53453
 20
41.9226614285714
 30
0.0
 11
3.267265
 21
41.9226614285714
 31
0.0
 13
0
 23
41.9226614285714
 14
6.53453
 24
41.9226614285714
 33
0.0
 34
0.0
53
90
  0
DIMENSION
  8
2D_DIM
  2
*D1
  3
ROUTEDIM
  1
41.923
 10
6.53453
 20
41.9226614285714
 30
0.0
 11
6.53453
 21
20.9613307142857
 31
0
 13
6.53453
 23
0
 14
6.53453
 24
41.9226614285714
 50
90.0
53
0
 33
0.0
 34
0.0
  0
DIMENSION
  8
2D_DIM
  2
*D1
  3
ROUTEDIM
  1
6.553
 10
6.55327998784662
 20
41.7940899878466
 30
0.0
 11
3.27663999392331
 21
41.7940899878466
 31
0.0
 13
0
 23
41.7940899878466
 14
6.55327998784662
 24
41.7940899878466
 33
0.0
 34
0.0
53
90
  0
DIMENSION
  8
2D_DIM
  2
*D1
  3
ROUTEDIM
  1
41.794
 10
6.55327998784662
 20
41.7940899878466
 30
0.0
 11
6.55327998784662
 21
20.8970449939233
 31
0
 13
6.55327998784662
 23
0
 14
6.55327998784662
 24
41.7940899878466
 50
90.0
53
0
 33
0.0
 34
0.0
  0
DIMENSION
  8
2D_DIM
  2
*D1
  3
ROUTEDIM
  1
6.553
 10
6.55328001215338
 20
41.7940899878466
 30
0.0
 11
3.27664000607669
 21
41.7940899878466
 31
0.0
 13
0
 23
41.7940899878466
 14
6.55328001215338
 24
41.7940899878466
 33
0.0
 34
0.0
53
90
  0
DIMENSION
  8
2D_DIM
  2
*D1
  3
ROUTEDIM
  1
41.794
 10
6.55328001215338
 20
41.7940899878466
 30
0.0
 11
6.55328001215338
 21
20.8970449939233
 31
0
 13
6.55328001215338
 23
0
 14
6.55328001215338
 24
41.7940899878466
 50
90.0
53
0
 33
0.0
 34
0.0
  0
DIMENSION
  8
2D_DIM
  2
*D1
  3
ROUTEDIM
  1
6.553
 10
6.55328001215338
 20
41.7940900121534
 30
0.0
 11
3.27664000607669
 21
41.7940900121534
 31
0.0
 13
0
 23
41.7940900121534
 14
6.55328001215338
 24
41.7940900121534
 33
0.0
 34
0.0
53
90
  0
DIMENSION
  8
2D_DIM
  2
*D1
  3
ROUTEDIM
  1
41.794
 10
6.55328001215338
 20
41.7940900121534
 30
0.0
 11
6.55328001215338
 21
20.8970450060767
 31
0
 13
6.55328001215338
 23
0
 14
6.55328001215338
 24
41.7940900121534
 50
90.0
53
0
 33
0.0
 34
0.0
  0
DIMENSION
  8
2D_DIM
  2
*D1
  3
ROUTEDIM
  1
6.553
 10
6.55327998784662
 20
41.7940900121534
 30
0.0
 11
3.27663999392331
 21
41.7940900121534
 31
0.0
 13
0
 23
41.7940900121534
 14
6.55327998784662
 24
41.7940900121534
 33
0.0
 34
0.0
53
90
  0
DIMENSION
  8
2D_DIM
  2
*D1
  3
ROUTEDIM
  1
41.794
 10
6.55327998784662
 20
41.7940900121534
 30
0.0
 11
6.55327998784662
 21
20.8970450060767
 31
0
 13
6.55327998784662
 23
0
 14
6.55327998784662
 24
41.7940900121534
 50
90.0
53
0
 33
0.0
 34
0.0
  0
DIMENSION
  8
2D_DIM
  2
*D1
  3
ROUTEDIM
  1
6.553
 10
6.55327998784662
 20
41.7940899878466
 30
0.0
 11
3.27663999392331
 21
41.7940899878466
 31
0.0
 13
0
 23
41.7940899878466
 14
6.55327998784662
 24
41.7940899878466
 33
0.0
 34
0.0
53
90
  0
DIMENSION
  8
2D_DIM
  2
*D1
  3
ROUTEDIM
  1
41.794
 10
6.55327998784662
 20
41.7940899878466
 30
0.0
 11
6.55327998784662
 21
20.8970449939233
 31
0
 13
6.55327998784662
 23
0
 14
6.55327998784662
 24
41.7940899878466
 50
90.0
53
0
 33
0.0
 34
0.0
  0
DIMENSION
  8
2D_DIM
  2
*D1
  3
ROUTEDIM
  1
6.607
 10
6.60685144072481
 20
41.8476614168521
 30
0.0
 11
3.3034257203624
 21
41.8476614168521
 31
0.0
 13
0
 23
41.8476614168521
 14
6.60685144072481
 24
41.8476614168521
 33
0.0
 34
0.0
53
90
  0
DIMENSION
  8
2D_DIM
  2
*D1
  3
ROUTEDIM
  1
41.848
 10
6.60685144072481
 20
41.8476614168521
 30
0.0
 11
6.60685144072481
 21
20.923830708426
 31
0
 13
6.60685144072481
 23
0
 14
6.60685144072481
 24
41.8476614168521
 50
90.0
53
0
 33
0.0
 34
0.0
  0
DIMENSION
  8
2D_DIM
  2
*D1
  3
ROUTEDIM
  1
6.553
 10
6.55327900000006
 20
41.794086
 30
0.0
 11
3.27663950000003
 21
41.794086
 31
0.0
 13
0
 23
41.794086
 14
6.55327900000006
 24
41.794086
 33
0.0
 34
0.0
53
90
  0
DIMENSION
  8
2D_DIM
  2
*D1
  3
ROUTEDIM
  1
41.794
 10
6.55327900000006
 20
41.794086
 30
0.0
 11
6.55327900000006
 21
20.897043
 31
0
 13
6.55327900000006
 23
0
 14
6.55327900000006
 24
41.794086
 50
90.0
53
0
 33
0.0
 34
0.0
  0
DIMENSION
  8
2D_DIM
  2
*D1
  3
ROUTEDIM
  1
32.341
 10
32.3411200000001
 20
4.68798
 30
0.0
 11
16.17056
 21
4.68798
 31
0.0
 13
0
 23
4.68798
 14
32.3411200000001
 24
4.68798
 33
0.0
 34
0.0
53
90
  0
DIMENSION
  8
2D_DIM
  2
*D1
  3
ROUTEDIM
  1
4.688
 10
32.3411200000001
 20
4.68798
 30
0.0
 11
32.3411200000001
 21
2.34399
 31
0
 13
32.3411200000001
 23
0
 14
32.3411200000001
 24
4.68798
 50
90.0
53
0
 33
0.0
 34
0.0
  0
TEXT
  8
ITEMNUMBER
 62
     1
 10
-7.5
 20
-5
 30
0.0
 40
0.5
  1
M3100.05
  0
TEXT
  8
DESCRIPTION
 62
     1
 10
-7.5
 20
-6
 30
0.0
 40
0.5
  1
P2B
  0
TEXT
  8
FILENAME
 62
     1
 10
-7.5
 20
-7
 30
0.0
 40
0.5
  1
5600ADLE
  0
TEXT
  8
MATERIALNAME
 62
     1
 10
-7.5
 20
-8
 30
0.0
 40
0.5
  1
MDF/3-4/5x8
  0
TEXT
  8
Qty
 62
     1
 10
-7.5
 20
-9
 30
0.0
 40
0.5
  1
1
  0
TEXT
  8
COMMENT
 62
     1
 10
-7.5
 20
-9
 30
0.0
 40
0.5
  1
A machining operation has been identified but none of the SMA Routers in your Primary ToolFile have a qualifying diameter   
  0
TEXT
  8
RUNFIELD
 62
     1
 10
8
 20
-1
 30
0.0
 40
0.5
  1
Mirrored
  0
ENDSEC
  0
EOF
