  0
SECTION
  2
TABLES
  0
TABLE
  2
DIMSTYLE
 70
     2
  0
DIMSTYLE
  2
BOARDERDIM
 70
     0
  3

  4

  5
_NONE
  6
_NONE
  7
_NONE
 40
1
 41
0.1
 42
0.0625
 43
0.38
 44
0.18
 45
0.00
 46
0.0
 47
0.0
 48
0.0
140
0.5
141
0.09
142
0.0
143
25.399999999999999
144
1.0
145
0.5
146
1.0
147
0.09
 71
     1
 72
     0
 73
     1
 74
     0
 75
     0
 76
     0
 77
     2
 78
     0
170
     0
171
     2
172
     0
173
     0
174
     1
175
      0
176
5
177
5
178
     1
271
3
272
3
  0
ENDTAB
  0
TABLE
  2
DIMSTYLE
 70
     2
  0
DIMSTYLE
  2
VDRILLDIM
 70
     0
  3

  4

  5
_NONE
  6
_NONE
  7
_NONE
 40
1
 41
0.1
 42
0.0625
 43
0.38
 44
0.18
 45
0.00
 46
0.0
 47
0.0
 48
0.0
140
0.5
141
0.09
142
0.0
143
25.399999999999999
144
1.0
145
0.5
146
1.0
147
0.09
 71
     1
 72
     0
 73
     1
 74
     0
 75
     0
 76
     0
 77
     2
 78
     0
170
     0
171
     2
172
     0
173
     0
174
     1
175
      0
176
5
177
5
178
     1
271
3
272
3
  0
ENDTAB
  0
TABLE
  2
DIMSTYLE
 70
     2
  0
DIMSTYLE
  2
HDRILLDIM
 70
     0
  3

  4

  5
_NONE
  6
_NONE
  7
_NONE
 40
1
 41
0.1
 42
0.0625
 43
0.38
 44
0.18
 45
0.00
 46
0.0
 47
0.0
 48
0.0
140
0.5
141
0.09
142
0.0
143
25.399999999999999
144
1.0
145
0.5
146
1.0
147
0.09
 71
     1
 72
     0
 73
     1
 74
     0
 75
     0
 76
     0
 77
     2
 78
     0
170
     0
171
     2
172
     0
173
     0
174
     1
175
      0
176
5
177
5
178
     1
271
3
272
3
  0
ENDTAB
  0
TABLE
  2
DIMSTYLE
 70
     2
  0
DIMSTYLE
  2
ROUTEDIM
 70
     0
  3

  4

  5
_NONE
  6
_NONE
  7
_NONE
 40
1
 41
0.1
 42
0.0625
 43
0.38
 44
0.18
 45
0.00
 46
0.0
 47
0.0
 48
0.0
140
0.5
141
0.09
142
0.0
143
25.399999999999999
144
1.0
145
0.5
146
1.0
147
0.09
 71
     1
 72
     0
 73
     1
 74
     0
 75
     0
 76
     0
 77
     2
 78
     0
170
     0
171
     2
172
     0
173
     0
174
     1
175
      0
176
5
177
5
178
     1
271
3
272
3
  0
ENDTAB
  0
TABLE
  2
DIMSTYLE
 70
     2
  0
DIMSTYLE
  2
SAWDIM
 70
     0
  3

  4

  5
_NONE
  6
_NONE
  7
_NONE
 40
1
 41
0.1
 42
0.0625
 43
0.38
 44
0.18
 45
0.00
 46
0.0
 47
0.0
 48
0.0
140
0.5
141
0.09
142
0.0
143
25.399999999999999
144
1.0
145
0.5
146
1.0
147
0.09
 71
     1
 72
     0
 73
     1
 74
     0
 75
     0
 76
     0
 77
     2
 78
     0
170
     0
171
     2
172
     0
173
     0
174
     1
175
      0
176
5
177
5
178
     1
271
3
272
3
  0
ENDTAB
  0
TABLE
  2
VPORT
 70
     1
  0
VPORT
  2
*ACTIVE
 70
     0
 10
0.0
 20
0.0
 11
1.0
 21
1.0
 12
0.0
 22
0.0
 13
0.0
 23
0.0
 14
1.0
 24
1.0
 15
0.0
 25
0.0
 16
0.0
 26
0.0
 36
1.0
 17
0.0
 27
0.0
 37
0.0
 40
84
 41
2.0
 42
50.0
 43
0.0
 44
0.0
 50
0.0
 51
0.0
 71
     0
 72
   100
 73
     1
 74
     0
 75
     1
 76
     0
 77
     0
 78
     0
  0
ENDTAB
  0
ENDSEC
  0
SECTION
  2
ENTITIES
  0
POLYLINE
  8
BORDER_Z0P75
 62
     7
 66
     1
 10
0.0
 20
0.0
 30
0.0
 70
     1
  0
VERTEX
  8
BORDER_Z0P75
 62
     7
 10
0.0
 20
0.0
 30
0.0
  0
VERTEX
  8
BORDER_Z0P75
 62
     7
 10
0.0
 20
25.125
 30
0.0
  0
VERTEX
  8
BORDER_Z0P75
 62
     7
 10
49
 20
25.125
 30
0.0
  0
VERTEX
  8
BORDER_Z0P75
 62
     7
 10
49
 20
0.0
 30
0.0
  0
SEQEND
  8
BORDER_Z0P75
 62
     7
  0
POLYLINE
  8
ROUTE_Z0P75LT130RAMP
 62
     3
 66
     1
 10
0.0
 20
0.0
 30
0.0
 70
     0
  0
VERTEX
  8
ROUTE_Z0P75LT130RAMP
 62
     3
 10
20.750164
 20
-0.473846000000002
 30
0.0
  0
VERTEX
  8
ROUTE_Z0P75LT130RAMP
 62
     3
 10
20.771254
 20
-0.0994390000000003
 30
0.0
 42
0.511943119913845
  0
VERTEX
  8
ROUTE_Z0P75LT130RAMP
 62
     3
 10
-0.097801
 20
18.701965
 30
0.0
  0
VERTEX
  8
ROUTE_Z0P75LT130RAMP
 62
     3
 10
-0.467986
 20
18.642067
 30
0.0
  0
SEQEND
  8
ROUTE_Z0P75LT130RAMP
 62
     3
  0
POLYLINE
  8
ROUTE_Z0P75LT130RAMP
 62
     3
 66
     1
 10
0.0
 20
0.0
 30
0.0
 70
     0
  0
VERTEX
  8
ROUTE_Z0P75LT130RAMP
 62
     3
 10
37.890925
 20
-0.247351999999999
 30
0.0
  0
VERTEX
  8
ROUTE_Z0P75LT130RAMP
 62
     3
 10
37.569056
 20
-0.0549320000000009
 30
0.0
 42
0.302664864184002
  0
VERTEX
  8
ROUTE_Z0P75LT130RAMP
 62
     3
 10
28.696644
 20
-0.0549320000000009
 30
0.0
  0
VERTEX
  8
ROUTE_Z0P75LT130RAMP
 62
     3
 10
28.374775
 20
-0.247351999999999
 30
0.0
  0
SEQEND
  8
ROUTE_Z0P75LT130RAMP
 62
     3
  0
DIMENSION
  8
2D_DIM
  2
*D1
  3
BOARDERDIM
  1
49
 10
49
 20
30.125
 30
0.0
 11
24.5
 21
30.125
 31
0.0
 13
0
 23
25.125
 14
49
 24
25.125
 33
0.0
 34
0.0
53
0
  0
DIMENSION
  8
2D_DIM
  2
*D1
  3
BOARDERDIM
  1
25.125
 10
-5
 20
25.125
 30
0.0
 11
-5
 21
12.5625
 31
0
 13
0.0
 23
0
 14
0.0
 24
25.125
 50
90.0
53
0
 33
0.0
 34
0.0
  0
DIMENSION
  8
2D_DIM
  2
*D1
  3
ROUTEDIM
  1
-0.468
 10
-0.467986
 20
27.625
 30
0.0
 11
-0.233993
 21
27.625
 31
0.0
 13
0
 23
25.125
 14
-0.467986
 24
25.125
 33
0.0
 34
0.0
53
90
  0
DIMENSION
  8
2D_DIM
  2
*D1
  3
ROUTEDIM
  1
0.37
 10
-0.097801
 20
27.625
 30
0.0
 11
-0.0489005
 21
27.625
 31
0.0
 13
-0.467986
 23
25.125
 14
-0.097801
 24
25.125
 33
0.0
 34
0.0
53
90
  0
DIMENSION
  8
2D_DIM
  2
*D1
  3
ROUTEDIM
  1
20.848
 10
20.750164
 20
27.625
 30
0.0
 11
10.375082
 21
27.625
 31
0.0
 13
-0.097801
 23
25.125
 14
20.750164
 24
25.125
 33
0.0
 34
0.0
53
90
  0
DIMENSION
  8
2D_DIM
  2
*D1
  3
ROUTEDIM
  1
0.021
 10
20.771254
 20
27.625
 30
0.0
 11
10.385627
 21
27.625
 31
0.0
 13
20.750164
 23
25.125
 14
20.771254
 24
25.125
 33
0.0
 34
0.0
53
90
  0
DIMENSION
  8
2D_DIM
  2
*D1
  3
ROUTEDIM
  1
7.604
 10
28.374775
 20
27.625
 30
0.0
 11
14.1873875
 21
27.625
 31
0.0
 13
20.771254
 23
25.125
 14
28.374775
 24
25.125
 33
0.0
 34
0.0
53
90
  0
DIMENSION
  8
2D_DIM
  2
*D1
  3
ROUTEDIM
  1
0.322
 10
28.696644
 20
27.625
 30
0.0
 11
14.348322
 21
27.625
 31
0.0
 13
28.374775
 23
25.125
 14
28.696644
 24
25.125
 33
0.0
 34
0.0
53
90
  0
DIMENSION
  8
2D_DIM
  2
*D1
  3
ROUTEDIM
  1
8.872
 10
37.569056
 20
27.625
 30
0.0
 11
18.784528
 21
27.625
 31
0.0
 13
28.696644
 23
25.125
 14
37.569056
 24
25.125
 33
0.0
 34
0.0
53
90
  0
DIMENSION
  8
2D_DIM
  2
*D1
  3
ROUTEDIM
  1
0.322
 10
37.890925
 20
27.625
 30
0.0
 11
18.9454625
 21
27.625
 31
0.0
 13
37.569056
 23
25.125
 14
37.890925
 24
25.125
 33
0.0
 34
0.0
53
90
  0
DIMENSION
  8
2D_DIM
  2
*D1
  3
ROUTEDIM
  1
11.109
 10
49
 20
27.625
 30
0.0
 11
24.5
 21
27.625
 31
0.0
 13
37.890925
 23
25.125
 14
49
 24
25.125
 33
0.0
 34
0.0
53
90
  0
DIMENSION
  8
2D_DIM
  2
*D1
  3
ROUTEDIM
  1
0.474
 10
-2.5
 20
-0.473846000000002
 30
0.0
 11
-2.5
 21
-0.236923000000001
 31
0
 13
0.0
 23
0
 14
0.0
 24
-0.473846000000002
 50
90.0
53
0
 33
0.0
 34
0.0
  0
DIMENSION
  8
2D_DIM
  2
*D1
  3
ROUTEDIM
  1
0.226
 10
-2.5
 20
-0.247351999999999
 30
0.0
 11
-2.5
 21
-0.123675999999999
 31
0
 13
0.0
 23
-0.473846000000002
 14
0.0
 24
-0.247351999999999
 50
90.0
53
0
 33
0.0
 34
0.0
  0
DIMENSION
  8
2D_DIM
  2
*D1
  3
ROUTEDIM
  1
0.148
 10
-2.5
 20
-0.0994390000000003
 30
0.0
 11
-2.5
 21
-0.0497195000000002
 31
0
 13
0.0
 23
-0.247351999999999
 14
0.0
 24
-0.0994390000000003
 50
90.0
53
0
 33
0.0
 34
0.0
  0
DIMENSION
  8
2D_DIM
  2
*D1
  3
ROUTEDIM
  1
0.045
 10
-2.5
 20
-0.0549320000000009
 30
0.0
 11
-2.5
 21
-0.0274660000000004
 31
0
 13
0.0
 23
-0.0994390000000003
 14
0.0
 24
-0.0549320000000009
 50
90.0
53
0
 33
0.0
 34
0.0
  0
DIMENSION
  8
2D_DIM
  2
*D1
  3
ROUTEDIM
  1
18.697
 10
-2.5
 20
18.642067
 30
0.0
 11
-2.5
 21
9.3210335
 31
0
 13
0.0
 23
-0.0549320000000009
 14
0.0
 24
18.642067
 50
90.0
53
0
 33
0.0
 34
0.0
  0
DIMENSION
  8
2D_DIM
  2
*D1
  3
ROUTEDIM
  1
0.06
 10
-2.5
 20
18.701965
 30
0.0
 11
-2.5
 21
9.3509825
 31
0
 13
0.0
 23
18.642067
 14
0.0
 24
18.701965
 50
90.0
53
0
 33
0.0
 34
0.0
  0
DIMENSION
  8
2D_DIM
  2
*D1
  3
ROUTEDIM
  1
6.423
 10
-2.5
 20
25.125
 30
0.0
 11
-2.5
 21
12.5625
 31
0
 13
0.0
 23
18.701965
 14
0.0
 24
25.125
 50
90.0
53
0
 33
0.0
 34
0.0
  0
DIMENSION
  8
2D_DIM
  2
*D1
  3
ROUTEDIM
  1
3.562
 10
3.56164581182674
 20
1.78110485059129
 30
0.0
 11
1.78082290591337
 21
1.78110485059129
 31
0.0
 13
0
 23
1.78110485059129
 14
3.56164581182674
 24
1.78110485059129
 33
0.0
 34
0.0
53
90
  0
DIMENSION
  8
2D_DIM
  2
*D1
  3
ROUTEDIM
  1
1.781
 10
3.56164581182674
 20
1.78110485059129
 30
0.0
 11
3.56164581182674
 21
0.890552425295644
 31
0
 13
3.56164581182674
 23
0
 14
3.56164581182674
 24
1.78110485059129
 50
90.0
53
0
 33
0.0
 34
0.0
  0
DIMENSION
  8
2D_DIM
  2
*D1
  3
ROUTEDIM
  1
33.133
 10
33.13285
 20
-6.71216794189459
 30
0.0
 11
16.566425
 21
-6.71216794189459
 31
0.0
 13
0
 23
-6.71216794189459
 14
33.13285
 24
-6.71216794189459
 33
0.0
 34
0.0
53
90
  0
DIMENSION
  8
2D_DIM
  2
*D1
  3
ROUTEDIM
  1
6.712
 10
33.13285
 20
-6.71216794189459
 30
0.0
 11
33.13285
 21
-3.3560839709473
 31
0
 13
33.13285
 23
0
 14
33.13285
 24
-6.71216794189459
 50
90.0
53
0
 33
0.0
 34
0.0
  0
TEXT
  8
ITEMNUMBER
 62
     1
 10
-7.5
 20
-5
 30
0.0
 40
0.5
  1
M3100.06
  0
TEXT
  8
DESCRIPTION
 62
     1
 10
-7.5
 20
-6
 30
0.0
 40
0.5
  1
P3A
  0
TEXT
  8
FILENAME
 62
     1
 10
-7.5
 20
-7
 30
0.0
 40
0.5
  1
5600ADSR
  0
TEXT
  8
MATERIALNAME
 62
     1
 10
-7.5
 20
-8
 30
0.0
 40
0.5
  1
MDF/3-4/4x8
  0
TEXT
  8
Qty
 62
     1
 10
-7.5
 20
-9
 30
0.0
 40
0.5
  1
1
  0
TEXT
  8
COMMENT
 62
     1
 10
-7.5
 20
-9
 30
0.0
 40
0.5
  1
A machining operation has been identified but none of the SMA Routers in your Primary ToolFile have a qualifying diameter   
  0
TEXT
  8
RUNFIELD
 62
     1
 10
8
 20
-1
 30
0.0
 40
0.5
  1
Normal
  0
ENDSEC
  0
EOF
