  0
SECTION
  2
TABLES
  0
TABLE
  2
DIMSTYLE
 70
     2
  0
DIMSTYLE
  2
BOARDERDIM
 70
     0
  3

  4

  5
_NONE
  6
_NONE
  7
_NONE
 40
1
 41
0.1
 42
0.0625
 43
0.38
 44
0.18
 45
0.00
 46
0.0
 47
0.0
 48
0.0
140
0.5
141
0.09
142
0.0
143
25.399999999999999
144
1.0
145
0.5
146
1.0
147
0.09
 71
     1
 72
     0
 73
     1
 74
     0
 75
     0
 76
     0
 77
     2
 78
     0
170
     0
171
     2
172
     0
173
     0
174
     1
175
      0
176
5
177
5
178
     1
271
3
272
3
  0
ENDTAB
  0
TABLE
  2
DIMSTYLE
 70
     2
  0
DIMSTYLE
  2
VDRILLDIM
 70
     0
  3

  4

  5
_NONE
  6
_NONE
  7
_NONE
 40
1
 41
0.1
 42
0.0625
 43
0.38
 44
0.18
 45
0.00
 46
0.0
 47
0.0
 48
0.0
140
0.5
141
0.09
142
0.0
143
25.399999999999999
144
1.0
145
0.5
146
1.0
147
0.09
 71
     1
 72
     0
 73
     1
 74
     0
 75
     0
 76
     0
 77
     2
 78
     0
170
     0
171
     2
172
     0
173
     0
174
     1
175
      0
176
5
177
5
178
     1
271
3
272
3
  0
ENDTAB
  0
TABLE
  2
DIMSTYLE
 70
     2
  0
DIMSTYLE
  2
HDRILLDIM
 70
     0
  3

  4

  5
_NONE
  6
_NONE
  7
_NONE
 40
1
 41
0.1
 42
0.0625
 43
0.38
 44
0.18
 45
0.00
 46
0.0
 47
0.0
 48
0.0
140
0.5
141
0.09
142
0.0
143
25.399999999999999
144
1.0
145
0.5
146
1.0
147
0.09
 71
     1
 72
     0
 73
     1
 74
     0
 75
     0
 76
     0
 77
     2
 78
     0
170
     0
171
     2
172
     0
173
     0
174
     1
175
      0
176
5
177
5
178
     1
271
3
272
3
  0
ENDTAB
  0
TABLE
  2
DIMSTYLE
 70
     2
  0
DIMSTYLE
  2
ROUTEDIM
 70
     0
  3

  4

  5
_NONE
  6
_NONE
  7
_NONE
 40
1
 41
0.1
 42
0.0625
 43
0.38
 44
0.18
 45
0.00
 46
0.0
 47
0.0
 48
0.0
140
0.5
141
0.09
142
0.0
143
25.399999999999999
144
1.0
145
0.5
146
1.0
147
0.09
 71
     1
 72
     0
 73
     1
 74
     0
 75
     0
 76
     0
 77
     2
 78
     0
170
     0
171
     2
172
     0
173
     0
174
     1
175
      0
176
5
177
5
178
     1
271
3
272
3
  0
ENDTAB
  0
TABLE
  2
DIMSTYLE
 70
     2
  0
DIMSTYLE
  2
SAWDIM
 70
     0
  3

  4

  5
_NONE
  6
_NONE
  7
_NONE
 40
1
 41
0.1
 42
0.0625
 43
0.38
 44
0.18
 45
0.00
 46
0.0
 47
0.0
 48
0.0
140
0.5
141
0.09
142
0.0
143
25.399999999999999
144
1.0
145
0.5
146
1.0
147
0.09
 71
     1
 72
     0
 73
     1
 74
     0
 75
     0
 76
     0
 77
     2
 78
     0
170
     0
171
     2
172
     0
173
     0
174
     1
175
      0
176
5
177
5
178
     1
271
3
272
3
  0
ENDTAB
  0
TABLE
  2
VPORT
 70
     1
  0
VPORT
  2
*ACTIVE
 70
     0
 10
0.0
 20
0.0
 11
1.0
 21
1.0
 12
0.0
 22
0.0
 13
0.0
 23
0.0
 14
1.0
 24
1.0
 15
0.0
 25
0.0
 16
0.0
 26
0.0
 36
1.0
 17
0.0
 27
0.0
 37
0.0
 40
84
 41
2.0
 42
50.0
 43
0.0
 44
0.0
 50
0.0
 51
0.0
 71
     0
 72
   100
 73
     1
 74
     0
 75
     1
 76
     0
 77
     0
 78
     0
  0
ENDTAB
  0
ENDSEC
  0
SECTION
  2
ENTITIES
  0
POLYLINE
  8
BORDER_Z0P04
 62
     7
 66
     1
 10
0.0
 20
0.0
 30
0.0
 70
     1
  0
VERTEX
  8
BORDER_Z0P04
 62
     7
 10
0.0
 20
0.0
 30
0.0
  0
VERTEX
  8
BORDER_Z0P04
 62
     7
 10
0.0
 20
36.2828
 30
0.0
  0
VERTEX
  8
BORDER_Z0P04
 62
     7
 10
13.9292
 20
36.2828
 30
0.0
  0
VERTEX
  8
BORDER_Z0P04
 62
     7
 10
13.9292
 20
0.0
 30
0.0
  0
SEQEND
  8
BORDER_Z0P04
 62
     7
  0
POLYLINE
  8
ROUTE_Z0P25LT130RAMP
 62
     3
 66
     1
 10
0.0
 20
0.0
 30
0.0
 70
     0
  0
VERTEX
  8
ROUTE_Z0P25LT130RAMP
 62
     3
 10
0.68151
 20
19.579149
 30
0.0
 42
0.414213562373095
  0
VERTEX
  8
ROUTE_Z0P25LT130RAMP
 62
     3
 10
1.048918
 20
19.791312
 30
0.0
 42
-0.165134222070381
  0
VERTEX
  8
ROUTE_Z0P25LT130RAMP
 62
     3
 10
12.067923
 20
36.2828
 30
0.0
  0
VERTEX
  8
ROUTE_Z0P25LT130RAMP
 62
     3
 10
13.929187
 20
33.276185
 30
0.0
 42
0.329659526530576
  0
VERTEX
  8
ROUTE_Z0P25LT130RAMP
 62
     3
 10
5.38318
 20
1.878336
 30
0.0
  0
VERTEX
  8
ROUTE_Z0P25LT130RAMP
 62
     3
 10
2.34892
 20
-4.09999999959609E-05
 30
0.0
 42
-0.165134222070381
  0
VERTEX
  8
ROUTE_Z0P25LT130RAMP
 62
     3
 10
1.048918
 20
19.791312
 30
0.0
  0
SEQEND
  8
ROUTE_Z0P25LT130RAMP
 62
     3
  0
DIMENSION
  8
2D_DIM
  2
*D1
  3
BOARDERDIM
  1
13.929
 10
13.9292
 20
41.2828
 30
0.0
 11
6.9646
 21
41.2828
 31
0.0
 13
0
 23
36.2828
 14
13.9292
 24
36.2828
 33
0.0
 34
0.0
53
0
  0
DIMENSION
  8
2D_DIM
  2
*D1
  3
BOARDERDIM
  1
36.283
 10
-5
 20
36.2828
 30
0.0
 11
-5
 21
18.1414
 31
0
 13
0.0
 23
0
 14
0.0
 24
36.2828
 50
90.0
53
0
 33
0.0
 34
0.0
  0
DIMENSION
  8
2D_DIM
  2
*D1
  3
ROUTEDIM
  1
0.682
 10
0.68151
 20
38.7828
 30
0.0
 11
0.340755
 21
38.7828
 31
0.0
 13
0
 23
36.2828
 14
0.68151
 24
36.2828
 33
0.0
 34
0.0
53
90
  0
DIMENSION
  8
2D_DIM
  2
*D1
  3
ROUTEDIM
  1
0.367
 10
1.048918
 20
38.7828
 30
0.0
 11
0.524459
 21
38.7828
 31
0.0
 13
0.68151
 23
36.2828
 14
1.048918
 24
36.2828
 33
0.0
 34
0.0
53
90
  0
DIMENSION
  8
2D_DIM
  2
*D1
  3
ROUTEDIM
  1
1.3
 10
2.34892
 20
38.7828
 30
0.0
 11
1.17446
 21
38.7828
 31
0.0
 13
1.048918
 23
36.2828
 14
2.34892
 24
36.2828
 33
0.0
 34
0.0
53
90
  0
DIMENSION
  8
2D_DIM
  2
*D1
  3
ROUTEDIM
  1
3.034
 10
5.38318
 20
38.7828
 30
0.0
 11
2.69159
 21
38.7828
 31
0.0
 13
2.34892
 23
36.2828
 14
5.38318
 24
36.2828
 33
0.0
 34
0.0
53
90
  0
DIMENSION
  8
2D_DIM
  2
*D1
  3
ROUTEDIM
  1
6.685
 10
12.067923
 20
38.7828
 30
0.0
 11
6.0339615
 21
38.7828
 31
0.0
 13
5.38318
 23
36.2828
 14
12.067923
 24
36.2828
 33
0.0
 34
0.0
53
90
  0
DIMENSION
  8
2D_DIM
  2
*D1
  3
ROUTEDIM
  1
1.861
 10
13.929187
 20
38.7828
 30
0.0
 11
6.9645935
 21
38.7828
 31
0.0
 13
12.067923
 23
36.2828
 14
13.929187
 24
36.2828
 33
0.0
 34
0.0
53
90
  0
DIMENSION
  8
2D_DIM
  2
*D1
  3
ROUTEDIM
  1
0
 10
13.9292
 20
38.7828
 30
0.0
 11
6.9646
 21
38.7828
 31
0.0
 13
13.929187
 23
36.2828
 14
13.9292
 24
36.2828
 33
0.0
 34
0.0
53
90
  0
DIMENSION
  8
2D_DIM
  2
*D1
  3
ROUTEDIM
  1
0
 10
-2.5
 20
-4.09999999959609E-05
 30
0.0
 11
-2.5
 21
-2.04999999979805E-05
 31
0
 13
0.0
 23
0
 14
0.0
 24
-4.09999999959609E-05
 50
90.0
53
0
 33
0.0
 34
0.0
  0
DIMENSION
  8
2D_DIM
  2
*D1
  3
ROUTEDIM
  1
1.878
 10
-2.5
 20
1.878336
 30
0.0
 11
-2.5
 21
0.939168
 31
0
 13
0.0
 23
-4.09999999959609E-05
 14
0.0
 24
1.878336
 50
90.0
53
0
 33
0.0
 34
0.0
  0
DIMENSION
  8
2D_DIM
  2
*D1
  3
ROUTEDIM
  1
17.701
 10
-2.5
 20
19.579149
 30
0.0
 11
-2.5
 21
9.7895745
 31
0
 13
0.0
 23
1.878336
 14
0.0
 24
19.579149
 50
90.0
53
0
 33
0.0
 34
0.0
  0
DIMENSION
  8
2D_DIM
  2
*D1
  3
ROUTEDIM
  1
0.212
 10
-2.5
 20
19.791312
 30
0.0
 11
-2.5
 21
9.895656
 31
0
 13
0.0
 23
19.579149
 14
0.0
 24
19.791312
 50
90.0
53
0
 33
0.0
 34
0.0
  0
DIMENSION
  8
2D_DIM
  2
*D1
  3
ROUTEDIM
  1
13.485
 10
-2.5
 20
33.276185
 30
0.0
 11
-2.5
 21
16.6380925
 31
0
 13
0.0
 23
19.791312
 14
0.0
 24
33.276185
 50
90.0
53
0
 33
0.0
 34
0.0
  0
DIMENSION
  8
2D_DIM
  2
*D1
  3
ROUTEDIM
  1
3.007
 10
-2.5
 20
36.2828
 30
0.0
 11
-2.5
 21
18.1414
 31
0
 13
0.0
 23
33.276185
 14
0.0
 24
36.2828
 50
90.0
53
0
 33
0.0
 34
0.0
  0
DIMENSION
  8
2D_DIM
  2
*D1
  3
ROUTEDIM
  1
0
 10
-2.5
 20
36.2828
 30
0.0
 11
-2.5
 21
18.1414
 31
0
 13
0.0
 23
36.2828
 14
0.0
 24
36.2828
 50
90.0
53
0
 33
0.0
 34
0.0
  0
DIMENSION
  8
2D_DIM
  2
*D1
  3
ROUTEDIM
  1
0.759
 10
0.7591325
 20
19.8689345
 30
0.0
 11
0.37956625
 21
19.8689345
 31
0.0
 13
0
 23
19.8689345
 14
0.7591325
 24
19.8689345
 33
0.0
 34
0.0
53
90
  0
DIMENSION
  8
2D_DIM
  2
*D1
  3
ROUTEDIM
  1
19.869
 10
0.7591325
 20
19.8689345
 30
0.0
 11
0.7591325
 21
9.93446725
 31
0
 13
0.7591325
 23
0
 14
0.7591325
 24
19.8689345
 50
90.0
53
0
 33
0.0
 34
0.0
  0
DIMENSION
  8
2D_DIM
  2
*D1
  3
ROUTEDIM
  1
30.844
 10
30.8443866050612
 20
11.8100677536088
 30
0.0
 11
15.4221933025306
 21
11.8100677536088
 31
0.0
 13
0
 23
11.8100677536088
 14
30.8443866050612
 24
11.8100677536088
 33
0.0
 34
0.0
53
90
  0
DIMENSION
  8
2D_DIM
  2
*D1
  3
ROUTEDIM
  1
11.81
 10
30.8443866050612
 20
11.8100677536088
 30
0.0
 11
30.8443866050612
 21
5.90503387680442
 31
0
 13
30.8443866050612
 23
0
 14
30.8443866050612
 24
11.8100677536088
 50
90.0
53
0
 33
0.0
 34
0.0
  0
DIMENSION
  8
2D_DIM
  2
*D1
  3
ROUTEDIM
  1
30.879
 10
30.8793492519087
 20
11.8006443032035
 30
0.0
 11
15.4396746259543
 21
11.8006443032035
 31
0.0
 13
0
 23
11.8006443032035
 14
30.8793492519087
 24
11.8006443032035
 33
0.0
 34
0.0
53
90
  0
DIMENSION
  8
2D_DIM
  2
*D1
  3
ROUTEDIM
  1
11.801
 10
30.8793492519087
 20
11.8006443032035
 30
0.0
 11
30.8793492519087
 21
5.90032215160173
 31
0
 13
30.8793492519087
 23
0
 14
30.8793492519087
 24
11.8006443032035
 50
90.0
53
0
 33
0.0
 34
0.0
  0
DIMENSION
  8
2D_DIM
  2
*D1
  3
ROUTEDIM
  1
30.844
 10
30.8443865364226
 20
11.8100658114741
 30
0.0
 11
15.4221932682113
 21
11.8100658114741
 31
0.0
 13
0
 23
11.8100658114741
 14
30.8443865364226
 24
11.8100658114741
 33
0.0
 34
0.0
53
90
  0
DIMENSION
  8
2D_DIM
  2
*D1
  3
ROUTEDIM
  1
11.81
 10
30.8443865364226
 20
11.8100658114741
 30
0.0
 11
30.8443865364226
 21
5.90503290573707
 31
0
 13
30.8443865364226
 23
0
 14
30.8443865364226
 24
11.8100658114741
 50
90.0
53
0
 33
0.0
 34
0.0
  0
TEXT
  8
ITEMNUMBER
 62
     1
 10
-7.5
 20
-5
 30
0.0
 40
0.5
  1
T31106.22
  0
TEXT
  8
DESCRIPTION
 62
     1
 10
-7.5
 20
-6
 30
0.0
 40
0.5
  1
P2B
  0
TEXT
  8
FILENAME
 62
     1
 10
-7.5
 20
-7
 30
0.0
 40
0.5
  1
5600AE2K
  0
TEXT
  8
MATERIALNAME
 62
     1
 10
-7.5
 20
-8
 30
0.0
 40
0.5
  1
AB1860SEI-PF/4x10
  0
TEXT
  8
Qty
 62
     1
 10
-7.5
 20
-9
 30
0.0
 40
0.5
  1
1
  0
TEXT
  8
RUNFIELD
 62
     1
 10
8
 20
-1
 30
0.0
 40
0.5
  1
Mirrored
  0
ENDSEC
  0
EOF
