  0
SECTION
  2
TABLES
  0
TABLE
  2
DIMSTYLE
 70
     2
  0
DIMSTYLE
  2
BOARDERDIM
 70
     0
  3

  4

  5
_NONE
  6
_NONE
  7
_NONE
 40
1
 41
0.1
 42
0.0625
 43
0.38
 44
0.18
 45
0.00
 46
0.0
 47
0.0
 48
0.0
140
0.5
141
0.09
142
0.0
143
25.399999999999999
144
1.0
145
0.5
146
1.0
147
0.09
 71
     1
 72
     0
 73
     1
 74
     0
 75
     0
 76
     0
 77
     2
 78
     0
170
     0
171
     2
172
     0
173
     0
174
     1
175
      0
176
5
177
5
178
     1
271
3
272
3
  0
ENDTAB
  0
TABLE
  2
DIMSTYLE
 70
     2
  0
DIMSTYLE
  2
VDRILLDIM
 70
     0
  3

  4

  5
_NONE
  6
_NONE
  7
_NONE
 40
1
 41
0.1
 42
0.0625
 43
0.38
 44
0.18
 45
0.00
 46
0.0
 47
0.0
 48
0.0
140
0.5
141
0.09
142
0.0
143
25.399999999999999
144
1.0
145
0.5
146
1.0
147
0.09
 71
     1
 72
     0
 73
     1
 74
     0
 75
     0
 76
     0
 77
     2
 78
     0
170
     0
171
     2
172
     0
173
     0
174
     1
175
      0
176
5
177
5
178
     1
271
3
272
3
  0
ENDTAB
  0
TABLE
  2
DIMSTYLE
 70
     2
  0
DIMSTYLE
  2
HDRILLDIM
 70
     0
  3

  4

  5
_NONE
  6
_NONE
  7
_NONE
 40
1
 41
0.1
 42
0.0625
 43
0.38
 44
0.18
 45
0.00
 46
0.0
 47
0.0
 48
0.0
140
0.5
141
0.09
142
0.0
143
25.399999999999999
144
1.0
145
0.5
146
1.0
147
0.09
 71
     1
 72
     0
 73
     1
 74
     0
 75
     0
 76
     0
 77
     2
 78
     0
170
     0
171
     2
172
     0
173
     0
174
     1
175
      0
176
5
177
5
178
     1
271
3
272
3
  0
ENDTAB
  0
TABLE
  2
DIMSTYLE
 70
     2
  0
DIMSTYLE
  2
ROUTEDIM
 70
     0
  3

  4

  5
_NONE
  6
_NONE
  7
_NONE
 40
1
 41
0.1
 42
0.0625
 43
0.38
 44
0.18
 45
0.00
 46
0.0
 47
0.0
 48
0.0
140
0.5
141
0.09
142
0.0
143
25.399999999999999
144
1.0
145
0.5
146
1.0
147
0.09
 71
     1
 72
     0
 73
     1
 74
     0
 75
     0
 76
     0
 77
     2
 78
     0
170
     0
171
     2
172
     0
173
     0
174
     1
175
      0
176
5
177
5
178
     1
271
3
272
3
  0
ENDTAB
  0
TABLE
  2
DIMSTYLE
 70
     2
  0
DIMSTYLE
  2
SAWDIM
 70
     0
  3

  4

  5
_NONE
  6
_NONE
  7
_NONE
 40
1
 41
0.1
 42
0.0625
 43
0.38
 44
0.18
 45
0.00
 46
0.0
 47
0.0
 48
0.0
140
0.5
141
0.09
142
0.0
143
25.399999999999999
144
1.0
145
0.5
146
1.0
147
0.09
 71
     1
 72
     0
 73
     1
 74
     0
 75
     0
 76
     0
 77
     2
 78
     0
170
     0
171
     2
172
     0
173
     0
174
     1
175
      0
176
5
177
5
178
     1
271
3
272
3
  0
ENDTAB
  0
TABLE
  2
VPORT
 70
     1
  0
VPORT
  2
*ACTIVE
 70
     0
 10
0.0
 20
0.0
 11
1.0
 21
1.0
 12
0.0
 22
0.0
 13
0.0
 23
0.0
 14
1.0
 24
1.0
 15
0.0
 25
0.0
 16
0.0
 26
0.0
 36
1.0
 17
0.0
 27
0.0
 37
0.0
 40
84
 41
2.0
 42
50.0
 43
0.0
 44
0.0
 50
0.0
 51
0.0
 71
     0
 72
   100
 73
     1
 74
     0
 75
     1
 76
     0
 77
     0
 78
     0
  0
ENDTAB
  0
ENDSEC
  0
SECTION
  2
ENTITIES
  0
POLYLINE
  8
BORDER_Z0P04
 62
     7
 66
     1
 10
0.0
 20
0.0
 30
0.0
 70
     1
  0
VERTEX
  8
BORDER_Z0P04
 62
     7
 10
0.0
 20
0.0
 30
0.0
  0
VERTEX
  8
BORDER_Z0P04
 62
     7
 10
0.0
 20
47.6562
 30
0.0
  0
VERTEX
  8
BORDER_Z0P04
 62
     7
 10
3.8954
 20
47.6562
 30
0.0
  0
VERTEX
  8
BORDER_Z0P04
 62
     7
 10
3.8954
 20
0.0
 30
0.0
  0
SEQEND
  8
BORDER_Z0P04
 62
     7
  0
POLYLINE
  8
ROUTE_Z0P25LT130RAMP
 62
     3
 66
     1
 10
0.0
 20
0.0
 30
0.0
 70
     0
  0
VERTEX
  8
ROUTE_Z0P25LT130RAMP
 62
     3
 10
-0.288328
 20
23.497765
 30
0.0
 42
0.414213562373095
  0
VERTEX
  8
ROUTE_Z0P25LT130RAMP
 62
     3
 10
0.00809
 20
23.801304
 30
0.0
 42
-0.0472854823395836
  0
VERTEX
  8
ROUTE_Z0P25LT130RAMP
 62
     3
 10
1.983719
 20
47.6562
 30
0.0
  0
VERTEX
  8
ROUTE_Z0P25LT130RAMP
 62
     3
 10
3.889582
 20
46.94978
 30
0.0
 42
0.087413585290912
  0
VERTEX
  8
ROUTE_Z0P25LT130RAMP
 62
     3
 10
3.895361
 20
3.631186
 30
0.0
  0
VERTEX
  8
ROUTE_Z0P25LT130RAMP
 62
     3
 10
2.54945
 20
2.89999999978363E-05
 30
0.0
 42
-0.0472854823395836
  0
VERTEX
  8
ROUTE_Z0P25LT130RAMP
 62
     3
 10
0.00809
 20
23.801304
 30
0.0
  0
SEQEND
  8
ROUTE_Z0P25LT130RAMP
 62
     3
  0
DIMENSION
  8
2D_DIM
  2
*D1
  3
BOARDERDIM
  1
3.895
 10
3.8954
 20
52.6562
 30
0.0
 11
1.9477
 21
52.6562
 31
0.0
 13
0
 23
47.6562
 14
3.8954
 24
47.6562
 33
0.0
 34
0.0
53
0
  0
DIMENSION
  8
2D_DIM
  2
*D1
  3
BOARDERDIM
  1
47.656
 10
-5
 20
47.6562
 30
0.0
 11
-5
 21
23.8281
 31
0
 13
0.0
 23
0
 14
0.0
 24
47.6562
 50
90.0
53
0
 33
0.0
 34
0.0
  0
DIMENSION
  8
2D_DIM
  2
*D1
  3
ROUTEDIM
  1
-0.288
 10
-0.288328
 20
50.1562
 30
0.0
 11
-0.144164
 21
50.1562
 31
0.0
 13
0
 23
47.6562
 14
-0.288328
 24
47.6562
 33
0.0
 34
0.0
53
90
  0
DIMENSION
  8
2D_DIM
  2
*D1
  3
ROUTEDIM
  1
0.296
 10
0.00809
 20
50.1562
 30
0.0
 11
0.004045
 21
50.1562
 31
0.0
 13
-0.288328
 23
47.6562
 14
0.00809
 24
47.6562
 33
0.0
 34
0.0
53
90
  0
DIMENSION
  8
2D_DIM
  2
*D1
  3
ROUTEDIM
  1
1.976
 10
1.983719
 20
50.1562
 30
0.0
 11
0.9918595
 21
50.1562
 31
0.0
 13
0.00809
 23
47.6562
 14
1.983719
 24
47.6562
 33
0.0
 34
0.0
53
90
  0
DIMENSION
  8
2D_DIM
  2
*D1
  3
ROUTEDIM
  1
0.566
 10
2.54945
 20
50.1562
 30
0.0
 11
1.274725
 21
50.1562
 31
0.0
 13
1.983719
 23
47.6562
 14
2.54945
 24
47.6562
 33
0.0
 34
0.0
53
90
  0
DIMENSION
  8
2D_DIM
  2
*D1
  3
ROUTEDIM
  1
1.34
 10
3.889582
 20
50.1562
 30
0.0
 11
1.944791
 21
50.1562
 31
0.0
 13
2.54945
 23
47.6562
 14
3.889582
 24
47.6562
 33
0.0
 34
0.0
53
90
  0
DIMENSION
  8
2D_DIM
  2
*D1
  3
ROUTEDIM
  1
0.006
 10
3.895361
 20
50.1562
 30
0.0
 11
1.9476805
 21
50.1562
 31
0.0
 13
3.889582
 23
47.6562
 14
3.895361
 24
47.6562
 33
0.0
 34
0.0
53
90
  0
DIMENSION
  8
2D_DIM
  2
*D1
  3
ROUTEDIM
  1
0
 10
3.8954
 20
50.1562
 30
0.0
 11
1.9477
 21
50.1562
 31
0.0
 13
3.895361
 23
47.6562
 14
3.8954
 24
47.6562
 33
0.0
 34
0.0
53
90
  0
DIMENSION
  8
2D_DIM
  2
*D1
  3
ROUTEDIM
  1
-0
 10
-2.5
 20
2.89999999978363E-05
 30
0.0
 11
-2.5
 21
1.44999999989181E-05
 31
0
 13
0.0
 23
0
 14
0.0
 24
2.89999999978363E-05
 50
90.0
53
0
 33
0.0
 34
0.0
  0
DIMENSION
  8
2D_DIM
  2
*D1
  3
ROUTEDIM
  1
3.631
 10
-2.5
 20
3.631186
 30
0.0
 11
-2.5
 21
1.815593
 31
0
 13
0.0
 23
2.89999999978363E-05
 14
0.0
 24
3.631186
 50
90.0
53
0
 33
0.0
 34
0.0
  0
DIMENSION
  8
2D_DIM
  2
*D1
  3
ROUTEDIM
  1
19.867
 10
-2.5
 20
23.497765
 30
0.0
 11
-2.5
 21
11.7488825
 31
0
 13
0.0
 23
3.631186
 14
0.0
 24
23.497765
 50
90.0
53
0
 33
0.0
 34
0.0
  0
DIMENSION
  8
2D_DIM
  2
*D1
  3
ROUTEDIM
  1
0.304
 10
-2.5
 20
23.801304
 30
0.0
 11
-2.5
 21
11.900652
 31
0
 13
0.0
 23
23.497765
 14
0.0
 24
23.801304
 50
90.0
53
0
 33
0.0
 34
0.0
  0
DIMENSION
  8
2D_DIM
  2
*D1
  3
ROUTEDIM
  1
23.148
 10
-2.5
 20
46.94978
 30
0.0
 11
-2.5
 21
23.47489
 31
0
 13
0.0
 23
23.801304
 14
0.0
 24
46.94978
 50
90.0
53
0
 33
0.0
 34
0.0
  0
DIMENSION
  8
2D_DIM
  2
*D1
  3
ROUTEDIM
  1
0.706
 10
-2.5
 20
47.6562
 30
0.0
 11
-2.5
 21
23.8281
 31
0
 13
0.0
 23
46.94978
 14
0.0
 24
47.6562
 50
90.0
53
0
 33
0.0
 34
0.0
  0
DIMENSION
  8
2D_DIM
  2
*D1
  3
ROUTEDIM
  1
0
 10
-2.5
 20
47.6562
 30
0.0
 11
-2.5
 21
23.8281
 31
0
 13
0.0
 23
47.6562
 14
0.0
 24
47.6562
 50
90.0
53
0
 33
0.0
 34
0.0
  0
DIMENSION
  8
2D_DIM
  2
*D1
  3
ROUTEDIM
  1
-0.292
 10
-0.2918885
 20
23.7977435
 30
0.0
 11
-0.14594425
 21
23.7977435
 31
0.0
 13
0
 23
23.7977435
 14
-0.2918885
 24
23.7977435
 33
0.0
 34
0.0
53
90
  0
DIMENSION
  8
2D_DIM
  2
*D1
  3
ROUTEDIM
  1
23.798
 10
-0.2918885
 20
23.7977435
 30
0.0
 11
-0.2918885
 21
11.89887175
 31
0
 13
-0.2918885
 23
0
 14
-0.2918885
 24
23.7977435
 50
90.0
53
0
 33
0.0
 34
0.0
  0
DIMENSION
  8
2D_DIM
  2
*D1
  3
ROUTEDIM
  1
126.836
 10
126.835576946306
 20
25.3068869775985
 30
0.0
 11
63.4177884731529
 21
25.3068869775985
 31
0.0
 13
0
 23
25.3068869775985
 14
126.835576946306
 24
25.3068869775985
 33
0.0
 34
0.0
53
90
  0
DIMENSION
  8
2D_DIM
  2
*D1
  3
ROUTEDIM
  1
25.307
 10
126.835576946306
 20
25.3068869775985
 30
0.0
 11
126.835576946306
 21
12.6534434887993
 31
0
 13
126.835576946306
 23
0
 14
126.835576946306
 24
25.3068869775985
 50
90.0
53
0
 33
0.0
 34
0.0
  0
DIMENSION
  8
2D_DIM
  2
*D1
  3
ROUTEDIM
  1
126.836
 10
126.835577645316
 20
25.3068844605463
 30
0.0
 11
63.4177888226582
 21
25.3068844605463
 31
0.0
 13
0
 23
25.3068844605463
 14
126.835577645316
 24
25.3068844605463
 33
0.0
 34
0.0
53
90
  0
DIMENSION
  8
2D_DIM
  2
*D1
  3
ROUTEDIM
  1
25.307
 10
126.835577645316
 20
25.3068844605463
 30
0.0
 11
126.835577645316
 21
12.6534422302732
 31
0
 13
126.835577645316
 23
0
 14
126.835577645316
 24
25.3068844605463
 50
90.0
53
0
 33
0.0
 34
0.0
  0
DIMENSION
  8
2D_DIM
  2
*D1
  3
ROUTEDIM
  1
126.836
 10
126.83558021642
 20
25.3068834027332
 30
0.0
 11
63.4177901082102
 21
25.3068834027332
 31
0.0
 13
0
 23
25.3068834027332
 14
126.83558021642
 24
25.3068834027332
 33
0.0
 34
0.0
53
90
  0
DIMENSION
  8
2D_DIM
  2
*D1
  3
ROUTEDIM
  1
25.307
 10
126.83558021642
 20
25.3068834027332
 30
0.0
 11
126.83558021642
 21
12.6534417013666
 31
0
 13
126.83558021642
 23
0
 14
126.83558021642
 24
25.3068834027332
 50
90.0
53
0
 33
0.0
 34
0.0
  0
TEXT
  8
ITEMNUMBER
 62
     1
 10
-7.5
 20
-5
 30
0.0
 40
0.5
  1
T31106.24
  0
TEXT
  8
DESCRIPTION
 62
     1
 10
-7.5
 20
-6
 30
0.0
 40
0.5
  1
P4B
  0
TEXT
  8
FILENAME
 62
     1
 10
-7.5
 20
-7
 30
0.0
 40
0.5
  1
5600AE7Q
  0
TEXT
  8
MATERIALNAME
 62
     1
 10
-7.5
 20
-8
 30
0.0
 40
0.5
  1
AB1826SEI-PF/4x10
  0
TEXT
  8
Qty
 62
     1
 10
-7.5
 20
-9
 30
0.0
 40
0.5
  1
1
  0
TEXT
  8
RUNFIELD
 62
     1
 10
8
 20
-1
 30
0.0
 40
0.5
  1
Mirrored
  0
ENDSEC
  0
EOF
