  0
SECTION
  2
TABLES
  0
TABLE
  2
DIMSTYLE
 70
     2
  0
DIMSTYLE
  2
BOARDERDIM
 70
     0
  3

  4

  5
_NONE
  6
_NONE
  7
_NONE
 40
1
 41
0.1
 42
0.0625
 43
0.38
 44
0.18
 45
0.00
 46
0.0
 47
0.0
 48
0.0
140
0.5
141
0.09
142
0.0
143
25.399999999999999
144
1.0
145
0.5
146
1.0
147
0.09
 71
     1
 72
     0
 73
     1
 74
     0
 75
     0
 76
     0
 77
     2
 78
     0
170
     0
171
     2
172
     0
173
     0
174
     1
175
      0
176
5
177
5
178
     1
271
3
272
3
  0
ENDTAB
  0
TABLE
  2
DIMSTYLE
 70
     2
  0
DIMSTYLE
  2
VDRILLDIM
 70
     0
  3

  4

  5
_NONE
  6
_NONE
  7
_NONE
 40
1
 41
0.1
 42
0.0625
 43
0.38
 44
0.18
 45
0.00
 46
0.0
 47
0.0
 48
0.0
140
0.5
141
0.09
142
0.0
143
25.399999999999999
144
1.0
145
0.5
146
1.0
147
0.09
 71
     1
 72
     0
 73
     1
 74
     0
 75
     0
 76
     0
 77
     2
 78
     0
170
     0
171
     2
172
     0
173
     0
174
     1
175
      0
176
5
177
5
178
     1
271
3
272
3
  0
ENDTAB
  0
TABLE
  2
DIMSTYLE
 70
     2
  0
DIMSTYLE
  2
HDRILLDIM
 70
     0
  3

  4

  5
_NONE
  6
_NONE
  7
_NONE
 40
1
 41
0.1
 42
0.0625
 43
0.38
 44
0.18
 45
0.00
 46
0.0
 47
0.0
 48
0.0
140
0.5
141
0.09
142
0.0
143
25.399999999999999
144
1.0
145
0.5
146
1.0
147
0.09
 71
     1
 72
     0
 73
     1
 74
     0
 75
     0
 76
     0
 77
     2
 78
     0
170
     0
171
     2
172
     0
173
     0
174
     1
175
      0
176
5
177
5
178
     1
271
3
272
3
  0
ENDTAB
  0
TABLE
  2
DIMSTYLE
 70
     2
  0
DIMSTYLE
  2
ROUTEDIM
 70
     0
  3

  4

  5
_NONE
  6
_NONE
  7
_NONE
 40
1
 41
0.1
 42
0.0625
 43
0.38
 44
0.18
 45
0.00
 46
0.0
 47
0.0
 48
0.0
140
0.5
141
0.09
142
0.0
143
25.399999999999999
144
1.0
145
0.5
146
1.0
147
0.09
 71
     1
 72
     0
 73
     1
 74
     0
 75
     0
 76
     0
 77
     2
 78
     0
170
     0
171
     2
172
     0
173
     0
174
     1
175
      0
176
5
177
5
178
     1
271
3
272
3
  0
ENDTAB
  0
TABLE
  2
DIMSTYLE
 70
     2
  0
DIMSTYLE
  2
SAWDIM
 70
     0
  3

  4

  5
_NONE
  6
_NONE
  7
_NONE
 40
1
 41
0.1
 42
0.0625
 43
0.38
 44
0.18
 45
0.00
 46
0.0
 47
0.0
 48
0.0
140
0.5
141
0.09
142
0.0
143
25.399999999999999
144
1.0
145
0.5
146
1.0
147
0.09
 71
     1
 72
     0
 73
     1
 74
     0
 75
     0
 76
     0
 77
     2
 78
     0
170
     0
171
     2
172
     0
173
     0
174
     1
175
      0
176
5
177
5
178
     1
271
3
272
3
  0
ENDTAB
  0
TABLE
  2
VPORT
 70
     1
  0
VPORT
  2
*ACTIVE
 70
     0
 10
0.0
 20
0.0
 11
1.0
 21
1.0
 12
0.0
 22
0.0
 13
0.0
 23
0.0
 14
1.0
 24
1.0
 15
0.0
 25
0.0
 16
0.0
 26
0.0
 36
1.0
 17
0.0
 27
0.0
 37
0.0
 40
84
 41
2.0
 42
50.0
 43
0.0
 44
0.0
 50
0.0
 51
0.0
 71
     0
 72
   100
 73
     1
 74
     0
 75
     1
 76
     0
 77
     0
 78
     0
  0
ENDTAB
  0
ENDSEC
  0
SECTION
  2
ENTITIES
  0
POLYLINE
  8
BORDER_Z0P04
 62
     7
 66
     1
 10
0.0
 20
0.0
 30
0.0
 70
     1
  0
VERTEX
  8
BORDER_Z0P04
 62
     7
 10
0.0
 20
0.0
 30
0.0
  0
VERTEX
  8
BORDER_Z0P04
 62
     7
 10
0.0
 20
26.4048
 30
0.0
  0
VERTEX
  8
BORDER_Z0P04
 62
     7
 10
13.1355
 20
26.4048
 30
0.0
  0
VERTEX
  8
BORDER_Z0P04
 62
     7
 10
13.1355
 20
0.0
 30
0.0
  0
SEQEND
  8
BORDER_Z0P04
 62
     7
  0
POLYLINE
  8
ROUTE_Z0P25LT130RAMP
 62
     3
 66
     1
 10
0.0
 20
0.0
 30
0.0
 70
     0
  0
VERTEX
  8
ROUTE_Z0P25LT130RAMP
 62
     3
 10
1.53815
 20
10.443716
 30
0.0
 42
0.414213562373095
  0
VERTEX
  8
ROUTE_Z0P25LT130RAMP
 62
     3
 10
1.693704
 20
10.83843
 30
0.0
 42
-0.197913753807237
  0
VERTEX
  8
ROUTE_Z0P25LT130RAMP
 62
     3
 10
1.394367
 20
26.4048
 30
0.0
  0
VERTEX
  8
ROUTE_Z0P25LT130RAMP
 62
     3
 10
2.499314
 20
26.140197
 30
0.0
 42
0.411830297761112
  0
VERTEX
  8
ROUTE_Z0P25LT130RAMP
 62
     3
 10
13.135789
 20
1.106192
 30
0.0
  0
VERTEX
  8
ROUTE_Z0P25LT130RAMP
 62
     3
 10
12.870881
 20
-2.69999999993331E-05
 30
0.0
 42
-0.197913753807237
  0
VERTEX
  8
ROUTE_Z0P25LT130RAMP
 62
     3
 10
1.693704
 20
10.83843
 30
0.0
  0
SEQEND
  8
ROUTE_Z0P25LT130RAMP
 62
     3
  0
DIMENSION
  8
2D_DIM
  2
*D1
  3
BOARDERDIM
  1
13.136
 10
13.1355
 20
31.4048
 30
0.0
 11
6.56775
 21
31.4048
 31
0.0
 13
0
 23
26.4048
 14
13.1355
 24
26.4048
 33
0.0
 34
0.0
53
0
  0
DIMENSION
  8
2D_DIM
  2
*D1
  3
BOARDERDIM
  1
26.405
 10
-5
 20
26.4048
 30
0.0
 11
-5
 21
13.2024
 31
0
 13
0.0
 23
0
 14
0.0
 24
26.4048
 50
90.0
53
0
 33
0.0
 34
0.0
  0
DIMENSION
  8
2D_DIM
  2
*D1
  3
ROUTEDIM
  1
1.394
 10
1.394367
 20
28.9048
 30
0.0
 11
0.6971835
 21
28.9048
 31
0.0
 13
0
 23
26.4048
 14
1.394367
 24
26.4048
 33
0.0
 34
0.0
53
90
  0
DIMENSION
  8
2D_DIM
  2
*D1
  3
ROUTEDIM
  1
0.144
 10
1.53815
 20
28.9048
 30
0.0
 11
0.769075
 21
28.9048
 31
0.0
 13
1.394367
 23
26.4048
 14
1.53815
 24
26.4048
 33
0.0
 34
0.0
53
90
  0
DIMENSION
  8
2D_DIM
  2
*D1
  3
ROUTEDIM
  1
0.156
 10
1.693704
 20
28.9048
 30
0.0
 11
0.846852
 21
28.9048
 31
0.0
 13
1.53815
 23
26.4048
 14
1.693704
 24
26.4048
 33
0.0
 34
0.0
53
90
  0
DIMENSION
  8
2D_DIM
  2
*D1
  3
ROUTEDIM
  1
0.806
 10
2.499314
 20
28.9048
 30
0.0
 11
1.249657
 21
28.9048
 31
0.0
 13
1.693704
 23
26.4048
 14
2.499314
 24
26.4048
 33
0.0
 34
0.0
53
90
  0
DIMENSION
  8
2D_DIM
  2
*D1
  3
ROUTEDIM
  1
10.372
 10
12.870881
 20
28.9048
 30
0.0
 11
6.4354405
 21
28.9048
 31
0.0
 13
2.499314
 23
26.4048
 14
12.870881
 24
26.4048
 33
0.0
 34
0.0
53
90
  0
DIMENSION
  8
2D_DIM
  2
*D1
  3
ROUTEDIM
  1
0.265
 10
13.135789
 20
28.9048
 30
0.0
 11
6.5678945
 21
28.9048
 31
0.0
 13
12.870881
 23
26.4048
 14
13.135789
 24
26.4048
 33
0.0
 34
0.0
53
90
  0
DIMENSION
  8
2D_DIM
  2
*D1
  3
ROUTEDIM
  1
-0
 10
13.1355
 20
28.9048
 30
0.0
 11
6.56775
 21
28.9048
 31
0.0
 13
13.135789
 23
26.4048
 14
13.1355
 24
26.4048
 33
0.0
 34
0.0
53
90
  0
DIMENSION
  8
2D_DIM
  2
*D1
  3
ROUTEDIM
  1
0
 10
-2.5
 20
-2.69999999993331E-05
 30
0.0
 11
-2.5
 21
-1.34999999996665E-05
 31
0
 13
0.0
 23
0
 14
0.0
 24
-2.69999999993331E-05
 50
90.0
53
0
 33
0.0
 34
0.0
  0
DIMENSION
  8
2D_DIM
  2
*D1
  3
ROUTEDIM
  1
1.106
 10
-2.5
 20
1.106192
 30
0.0
 11
-2.5
 21
0.553096
 31
0
 13
0.0
 23
-2.69999999993331E-05
 14
0.0
 24
1.106192
 50
90.0
53
0
 33
0.0
 34
0.0
  0
DIMENSION
  8
2D_DIM
  2
*D1
  3
ROUTEDIM
  1
9.338
 10
-2.5
 20
10.443716
 30
0.0
 11
-2.5
 21
5.221858
 31
0
 13
0.0
 23
1.106192
 14
0.0
 24
10.443716
 50
90.0
53
0
 33
0.0
 34
0.0
  0
DIMENSION
  8
2D_DIM
  2
*D1
  3
ROUTEDIM
  1
0.395
 10
-2.5
 20
10.83843
 30
0.0
 11
-2.5
 21
5.419215
 31
0
 13
0.0
 23
10.443716
 14
0.0
 24
10.83843
 50
90.0
53
0
 33
0.0
 34
0.0
  0
DIMENSION
  8
2D_DIM
  2
*D1
  3
ROUTEDIM
  1
15.302
 10
-2.5
 20
26.140197
 30
0.0
 11
-2.5
 21
13.0700985
 31
0
 13
0.0
 23
10.83843
 14
0.0
 24
26.140197
 50
90.0
53
0
 33
0.0
 34
0.0
  0
DIMENSION
  8
2D_DIM
  2
*D1
  3
ROUTEDIM
  1
0.265
 10
-2.5
 20
26.4048
 30
0.0
 11
-2.5
 21
13.2024
 31
0
 13
0.0
 23
26.140197
 14
0.0
 24
26.4048
 50
90.0
53
0
 33
0.0
 34
0.0
  0
DIMENSION
  8
2D_DIM
  2
*D1
  3
ROUTEDIM
  1
0
 10
-2.5
 20
26.4048
 30
0.0
 11
-2.5
 21
13.2024
 31
0
 13
0.0
 23
26.4048
 14
0.0
 24
26.4048
 50
90.0
53
0
 33
0.0
 34
0.0
  0
DIMENSION
  8
2D_DIM
  2
*D1
  3
ROUTEDIM
  1
1.419
 10
1.41857
 20
10.71885
 30
0.0
 11
0.709285
 21
10.71885
 31
0.0
 13
0
 23
10.71885
 14
1.41857
 24
10.71885
 33
0.0
 34
0.0
53
90
  0
DIMENSION
  8
2D_DIM
  2
*D1
  3
ROUTEDIM
  1
10.719
 10
1.41857
 20
10.71885
 30
0.0
 11
1.41857
 21
5.359425
 31
0
 13
1.41857
 23
0
 14
1.41857
 24
10.71885
 50
90.0
53
0
 33
0.0
 34
0.0
  0
DIMENSION
  8
2D_DIM
  2
*D1
  3
ROUTEDIM
  1
20.437
 10
20.4369083712771
 20
18.9849197323602
 30
0.0
 11
10.2184541856386
 21
18.9849197323602
 31
0.0
 13
0
 23
18.9849197323602
 14
20.4369083712771
 24
18.9849197323602
 33
0.0
 34
0.0
53
90
  0
DIMENSION
  8
2D_DIM
  2
*D1
  3
ROUTEDIM
  1
18.985
 10
20.4369083712771
 20
18.9849197323602
 30
0.0
 11
20.4369083712771
 21
9.49245986618009
 31
0
 13
20.4369083712771
 23
0
 14
20.4369083712771
 24
18.9849197323602
 50
90.0
53
0
 33
0.0
 34
0.0
  0
DIMENSION
  8
2D_DIM
  2
*D1
  3
ROUTEDIM
  1
20.437
 10
20.4369076210412
 20
18.9849201167182
 30
0.0
 11
10.2184538105206
 21
18.9849201167182
 31
0.0
 13
0
 23
18.9849201167182
 14
20.4369076210412
 24
18.9849201167182
 33
0.0
 34
0.0
53
90
  0
DIMENSION
  8
2D_DIM
  2
*D1
  3
ROUTEDIM
  1
18.985
 10
20.4369076210412
 20
18.9849201167182
 30
0.0
 11
20.4369076210412
 21
9.49246005835911
 31
0
 13
20.4369076210412
 23
0
 14
20.4369076210412
 24
18.9849201167182
 50
90.0
53
0
 33
0.0
 34
0.0
  0
DIMENSION
  8
2D_DIM
  2
*D1
  3
ROUTEDIM
  1
20.437
 10
20.4369065957593
 20
18.984919398313
 30
0.0
 11
10.2184532978796
 21
18.984919398313
 31
0.0
 13
0
 23
18.984919398313
 14
20.4369065957593
 24
18.984919398313
 33
0.0
 34
0.0
53
90
  0
DIMENSION
  8
2D_DIM
  2
*D1
  3
ROUTEDIM
  1
18.985
 10
20.4369065957593
 20
18.984919398313
 30
0.0
 11
20.4369065957593
 21
9.49245969915651
 31
0
 13
20.4369065957593
 23
0
 14
20.4369065957593
 24
18.984919398313
 50
90.0
53
0
 33
0.0
 34
0.0
  0
TEXT
  8
ITEMNUMBER
 62
     1
 10
-7.5
 20
-5
 30
0.0
 40
0.5
  1
T31106.24
  0
TEXT
  8
DESCRIPTION
 62
     1
 10
-7.5
 20
-6
 30
0.0
 40
0.5
  1
P2A 4.2
  0
TEXT
  8
FILENAME
 62
     1
 10
-7.5
 20
-7
 30
0.0
 40
0.5
  1
5600AE62
  0
TEXT
  8
MATERIALNAME
 62
     1
 10
-7.5
 20
-8
 30
0.0
 40
0.5
  1
AB425SEI-PF/4x10
  0
TEXT
  8
Qty
 62
     1
 10
-7.5
 20
-9
 30
0.0
 40
0.5
  1
1
  0
TEXT
  8
RUNFIELD
 62
     1
 10
8
 20
-1
 30
0.0
 40
0.5
  1
Mirrored
  0
ENDSEC
  0
EOF
