  0
SECTION
  2
TABLES
  0
TABLE
  2
DIMSTYLE
 70
     2
  0
DIMSTYLE
  2
BOARDERDIM
 70
     0
  3

  4

  5
_NONE
  6
_NONE
  7
_NONE
 40
1
 41
0.1
 42
0.0625
 43
0.38
 44
0.18
 45
0.00
 46
0.0
 47
0.0
 48
0.0
140
0.5
141
0.09
142
0.0
143
25.399999999999999
144
1.0
145
0.5
146
1.0
147
0.09
 71
     1
 72
     0
 73
     1
 74
     0
 75
     0
 76
     0
 77
     2
 78
     0
170
     0
171
     2
172
     0
173
     0
174
     1
175
      0
176
5
177
5
178
     1
271
3
272
3
  0
ENDTAB
  0
TABLE
  2
DIMSTYLE
 70
     2
  0
DIMSTYLE
  2
VDRILLDIM
 70
     0
  3

  4

  5
_NONE
  6
_NONE
  7
_NONE
 40
1
 41
0.1
 42
0.0625
 43
0.38
 44
0.18
 45
0.00
 46
0.0
 47
0.0
 48
0.0
140
0.5
141
0.09
142
0.0
143
25.399999999999999
144
1.0
145
0.5
146
1.0
147
0.09
 71
     1
 72
     0
 73
     1
 74
     0
 75
     0
 76
     0
 77
     2
 78
     0
170
     0
171
     2
172
     0
173
     0
174
     1
175
      0
176
5
177
5
178
     1
271
3
272
3
  0
ENDTAB
  0
TABLE
  2
DIMSTYLE
 70
     2
  0
DIMSTYLE
  2
HDRILLDIM
 70
     0
  3

  4

  5
_NONE
  6
_NONE
  7
_NONE
 40
1
 41
0.1
 42
0.0625
 43
0.38
 44
0.18
 45
0.00
 46
0.0
 47
0.0
 48
0.0
140
0.5
141
0.09
142
0.0
143
25.399999999999999
144
1.0
145
0.5
146
1.0
147
0.09
 71
     1
 72
     0
 73
     1
 74
     0
 75
     0
 76
     0
 77
     2
 78
     0
170
     0
171
     2
172
     0
173
     0
174
     1
175
      0
176
5
177
5
178
     1
271
3
272
3
  0
ENDTAB
  0
TABLE
  2
DIMSTYLE
 70
     2
  0
DIMSTYLE
  2
ROUTEDIM
 70
     0
  3

  4

  5
_NONE
  6
_NONE
  7
_NONE
 40
1
 41
0.1
 42
0.0625
 43
0.38
 44
0.18
 45
0.00
 46
0.0
 47
0.0
 48
0.0
140
0.5
141
0.09
142
0.0
143
25.399999999999999
144
1.0
145
0.5
146
1.0
147
0.09
 71
     1
 72
     0
 73
     1
 74
     0
 75
     0
 76
     0
 77
     2
 78
     0
170
     0
171
     2
172
     0
173
     0
174
     1
175
      0
176
5
177
5
178
     1
271
3
272
3
  0
ENDTAB
  0
TABLE
  2
DIMSTYLE
 70
     2
  0
DIMSTYLE
  2
SAWDIM
 70
     0
  3

  4

  5
_NONE
  6
_NONE
  7
_NONE
 40
1
 41
0.1
 42
0.0625
 43
0.38
 44
0.18
 45
0.00
 46
0.0
 47
0.0
 48
0.0
140
0.5
141
0.09
142
0.0
143
25.399999999999999
144
1.0
145
0.5
146
1.0
147
0.09
 71
     1
 72
     0
 73
     1
 74
     0
 75
     0
 76
     0
 77
     2
 78
     0
170
     0
171
     2
172
     0
173
     0
174
     1
175
      0
176
5
177
5
178
     1
271
3
272
3
  0
ENDTAB
  0
TABLE
  2
VPORT
 70
     1
  0
VPORT
  2
*ACTIVE
 70
     0
 10
0.0
 20
0.0
 11
1.0
 21
1.0
 12
0.0
 22
0.0
 13
0.0
 23
0.0
 14
1.0
 24
1.0
 15
0.0
 25
0.0
 16
0.0
 26
0.0
 36
1.0
 17
0.0
 27
0.0
 37
0.0
 40
84
 41
2.0
 42
50.0
 43
0.0
 44
0.0
 50
0.0
 51
0.0
 71
     0
 72
   100
 73
     1
 74
     0
 75
     1
 76
     0
 77
     0
 78
     0
  0
ENDTAB
  0
ENDSEC
  0
SECTION
  2
ENTITIES
  0
POLYLINE
  8
BORDER_Z0P04
 62
     7
 66
     1
 10
0.0
 20
0.0
 30
0.0
 70
     1
  0
VERTEX
  8
BORDER_Z0P04
 62
     7
 10
0.0
 20
0.0
 30
0.0
  0
VERTEX
  8
BORDER_Z0P04
 62
     7
 10
0.0
 20
7.8619
 30
0.0
  0
VERTEX
  8
BORDER_Z0P04
 62
     7
 10
3.1253
 20
7.8619
 30
0.0
  0
VERTEX
  8
BORDER_Z0P04
 62
     7
 10
3.1253
 20
0.0
 30
0.0
  0
SEQEND
  8
BORDER_Z0P04
 62
     7
  0
POLYLINE
  8
ROUTE_Z0P25LT130RAMP
 62
     3
 66
     1
 10
0.0
 20
0.0
 30
0.0
 70
     0
  0
VERTEX
  8
ROUTE_Z0P25LT130RAMP
 62
     3
 10
2.221361
 20
4.018732
 30
0.0
 42
0.414213562373095
  0
VERTEX
  8
ROUTE_Z0P25LT130RAMP
 62
     3
 10
1.836952
 20
3.839203
 30
0.0
 42
-0.015782398861795
  0
VERTEX
  8
ROUTE_Z0P25LT130RAMP
 62
     3
 10
0.303347
 20
-2.99999999953116E-06
 30
0.0
  0
VERTEX
  8
ROUTE_Z0P25LT130RAMP
 62
     3
 10
0
 20
4.640406
 30
0.0
 42
0.0133619755761923
  0
VERTEX
  8
ROUTE_Z0P25LT130RAMP
 62
     3
 10
1.066763
 20
7.8619
 30
0.0
 42
0.0252241409195437
  0
VERTEX
  8
ROUTE_Z0P25LT130RAMP
 62
     3
 10
3.125317
 20
7.767507
 30
0.0
 42
-0.015782398861795
  0
VERTEX
  8
ROUTE_Z0P25LT130RAMP
 62
     3
 10
1.836952
 20
3.839203
 30
0.0
  0
SEQEND
  8
ROUTE_Z0P25LT130RAMP
 62
     3
  0
DIMENSION
  8
2D_DIM
  2
*D1
  3
BOARDERDIM
  1
3.125
 10
3.1253
 20
12.8619
 30
0.0
 11
1.56265
 21
12.8619
 31
0.0
 13
0
 23
7.8619
 14
3.1253
 24
7.8619
 33
0.0
 34
0.0
53
0
  0
DIMENSION
  8
2D_DIM
  2
*D1
  3
BOARDERDIM
  1
7.862
 10
-5
 20
7.8619
 30
0.0
 11
-5
 21
3.93095
 31
0
 13
0.0
 23
0
 14
0.0
 24
7.8619
 50
90.0
53
0
 33
0.0
 34
0.0
  0
DIMENSION
  8
2D_DIM
  2
*D1
  3
ROUTEDIM
  1
0
 10
0
 20
10.3619
 30
0.0
 11
0
 21
10.3619
 31
0.0
 13
0
 23
7.8619
 14
0
 24
7.8619
 33
0.0
 34
0.0
53
90
  0
DIMENSION
  8
2D_DIM
  2
*D1
  3
ROUTEDIM
  1
0.303
 10
0.303347
 20
10.3619
 30
0.0
 11
0.1516735
 21
10.3619
 31
0.0
 13
0
 23
7.8619
 14
0.303347
 24
7.8619
 33
0.0
 34
0.0
53
90
  0
DIMENSION
  8
2D_DIM
  2
*D1
  3
ROUTEDIM
  1
0.763
 10
1.066763
 20
10.3619
 30
0.0
 11
0.5333815
 21
10.3619
 31
0.0
 13
0.303347
 23
7.8619
 14
1.066763
 24
7.8619
 33
0.0
 34
0.0
53
90
  0
DIMENSION
  8
2D_DIM
  2
*D1
  3
ROUTEDIM
  1
0.77
 10
1.836952
 20
10.3619
 30
0.0
 11
0.918476
 21
10.3619
 31
0.0
 13
1.066763
 23
7.8619
 14
1.836952
 24
7.8619
 33
0.0
 34
0.0
53
90
  0
DIMENSION
  8
2D_DIM
  2
*D1
  3
ROUTEDIM
  1
0.384
 10
2.221361
 20
10.3619
 30
0.0
 11
1.1106805
 21
10.3619
 31
0.0
 13
1.836952
 23
7.8619
 14
2.221361
 24
7.8619
 33
0.0
 34
0.0
53
90
  0
DIMENSION
  8
2D_DIM
  2
*D1
  3
ROUTEDIM
  1
0.904
 10
3.125317
 20
10.3619
 30
0.0
 11
1.5626585
 21
10.3619
 31
0.0
 13
2.221361
 23
7.8619
 14
3.125317
 24
7.8619
 33
0.0
 34
0.0
53
90
  0
DIMENSION
  8
2D_DIM
  2
*D1
  3
ROUTEDIM
  1
-0
 10
3.1253
 20
10.3619
 30
0.0
 11
1.56265
 21
10.3619
 31
0.0
 13
3.125317
 23
7.8619
 14
3.1253
 24
7.8619
 33
0.0
 34
0.0
53
90
  0
DIMENSION
  8
2D_DIM
  2
*D1
  3
ROUTEDIM
  1
0
 10
-2.5
 20
-2.99999999953116E-06
 30
0.0
 11
-2.5
 21
-1.49999999976558E-06
 31
0
 13
0.0
 23
0
 14
0.0
 24
-2.99999999953116E-06
 50
90.0
53
0
 33
0.0
 34
0.0
  0
DIMENSION
  8
2D_DIM
  2
*D1
  3
ROUTEDIM
  1
3.839
 10
-2.5
 20
3.839203
 30
0.0
 11
-2.5
 21
1.9196015
 31
0
 13
0.0
 23
-2.99999999953116E-06
 14
0.0
 24
3.839203
 50
90.0
53
0
 33
0.0
 34
0.0
  0
DIMENSION
  8
2D_DIM
  2
*D1
  3
ROUTEDIM
  1
0.18
 10
-2.5
 20
4.018732
 30
0.0
 11
-2.5
 21
2.009366
 31
0
 13
0.0
 23
3.839203
 14
0.0
 24
4.018732
 50
90.0
53
0
 33
0.0
 34
0.0
  0
DIMENSION
  8
2D_DIM
  2
*D1
  3
ROUTEDIM
  1
0.622
 10
-2.5
 20
4.640406
 30
0.0
 11
-2.5
 21
2.320203
 31
0
 13
0.0
 23
4.018732
 14
0.0
 24
4.640406
 50
90.0
53
0
 33
0.0
 34
0.0
  0
DIMENSION
  8
2D_DIM
  2
*D1
  3
ROUTEDIM
  1
3.127
 10
-2.5
 20
7.767507
 30
0.0
 11
-2.5
 21
3.8837535
 31
0
 13
0.0
 23
4.640406
 14
0.0
 24
7.767507
 50
90.0
53
0
 33
0.0
 34
0.0
  0
DIMENSION
  8
2D_DIM
  2
*D1
  3
ROUTEDIM
  1
0.094
 10
-2.5
 20
7.8619
 30
0.0
 11
-2.5
 21
3.93095
 31
0
 13
0.0
 23
7.767507
 14
0.0
 24
7.8619
 50
90.0
53
0
 33
0.0
 34
0.0
  0
DIMENSION
  8
2D_DIM
  2
*D1
  3
ROUTEDIM
  1
0
 10
-2.5
 20
7.8619
 30
0.0
 11
-2.5
 21
3.93095
 31
0
 13
0.0
 23
7.8619
 14
0.0
 24
7.8619
 50
90.0
53
0
 33
0.0
 34
0.0
  0
DIMENSION
  8
2D_DIM
  2
*D1
  3
ROUTEDIM
  1
2.119
 10
2.118921
 20
3.736763
 30
0.0
 11
1.0594605
 21
3.736763
 31
0.0
 13
0
 23
3.736763
 14
2.118921
 24
3.736763
 33
0.0
 34
0.0
53
90
  0
DIMENSION
  8
2D_DIM
  2
*D1
  3
ROUTEDIM
  1
3.737
 10
2.118921
 20
3.736763
 30
0.0
 11
2.118921
 21
1.8683815
 31
0
 13
2.118921
 23
0
 14
2.118921
 24
3.736763
 50
90.0
53
0
 33
0.0
 34
0.0
  0
DIMENSION
  8
2D_DIM
  2
*D1
  3
ROUTEDIM
  1
-59.729
 10
-59.7293802227447
 20
26.2065131743517
 30
0.0
 11
-29.8646901113723
 21
26.2065131743517
 31
0.0
 13
0
 23
26.2065131743517
 14
-59.7293802227447
 24
26.2065131743517
 33
0.0
 34
0.0
53
90
  0
DIMENSION
  8
2D_DIM
  2
*D1
  3
ROUTEDIM
  1
26.207
 10
-59.7293802227447
 20
26.2065131743517
 30
0.0
 11
-59.7293802227447
 21
13.1032565871758
 31
0
 13
-59.7293802227447
 23
0
 14
-59.7293802227447
 24
26.2065131743517
 50
90.0
53
0
 33
0.0
 34
0.0
  0
DIMENSION
  8
2D_DIM
  2
*D1
  3
ROUTEDIM
  1
-59.729
 10
-59.7293919273172
 20
26.2065205933108
 30
0.0
 11
-29.8646959636586
 21
26.2065205933108
 31
0.0
 13
0
 23
26.2065205933108
 14
-59.7293919273172
 24
26.2065205933108
 33
0.0
 34
0.0
53
90
  0
DIMENSION
  8
2D_DIM
  2
*D1
  3
ROUTEDIM
  1
26.207
 10
-59.7293919273172
 20
26.2065205933108
 30
0.0
 11
-59.7293919273172
 21
13.1032602966554
 31
0
 13
-59.7293919273172
 23
0
 14
-59.7293919273172
 24
26.2065205933108
 50
90.0
53
0
 33
0.0
 34
0.0
  0
DIMENSION
  8
2D_DIM
  2
*D1
  3
ROUTEDIM
  1
3.031
 10
3.0309870222492
 20
28.2043397276774
 30
0.0
 11
1.5154935111246
 21
28.2043397276774
 31
0.0
 13
0
 23
28.2043397276774
 14
3.0309870222492
 24
28.2043397276774
 33
0.0
 34
0.0
53
90
  0
DIMENSION
  8
2D_DIM
  2
*D1
  3
ROUTEDIM
  1
28.204
 10
3.0309870222492
 20
28.2043397276774
 30
0.0
 11
3.0309870222492
 21
14.1021698638387
 31
0
 13
3.0309870222492
 23
0
 14
3.0309870222492
 24
28.2043397276774
 50
90.0
53
0
 33
0.0
 34
0.0
  0
DIMENSION
  8
2D_DIM
  2
*D1
  3
ROUTEDIM
  1
-59.729
 10
-59.7293943978963
 20
26.2065284976566
 30
0.0
 11
-29.8646971989481
 21
26.2065284976566
 31
0.0
 13
0
 23
26.2065284976566
 14
-59.7293943978963
 24
26.2065284976566
 33
0.0
 34
0.0
53
90
  0
DIMENSION
  8
2D_DIM
  2
*D1
  3
ROUTEDIM
  1
26.207
 10
-59.7293943978963
 20
26.2065284976566
 30
0.0
 11
-59.7293943978963
 21
13.1032642488283
 31
0
 13
-59.7293943978963
 23
0
 14
-59.7293943978963
 24
26.2065284976566
 50
90.0
53
0
 33
0.0
 34
0.0
  0
TEXT
  8
ITEMNUMBER
 62
     1
 10
-7.5
 20
-5
 30
0.0
 40
0.5
  1
T31106.24
  0
TEXT
  8
DESCRIPTION
 62
     1
 10
-7.5
 20
-6
 30
0.0
 40
0.5
  1
P3B
  0
TEXT
  8
FILENAME
 62
     1
 10
-7.5
 20
-7
 30
0.0
 40
0.5
  1
5600AE8E
  0
TEXT
  8
MATERIALNAME
 62
     1
 10
-7.5
 20
-8
 30
0.0
 40
0.5
  1
AB1826SEI-PF/4x10
  0
TEXT
  8
Qty
 62
     1
 10
-7.5
 20
-9
 30
0.0
 40
0.5
  1
2
  0
TEXT
  8
RUNFIELD
 62
     1
 10
8
 20
-1
 30
0.0
 40
0.5
  1
Mirrored
  0
ENDSEC
  0
EOF
