  0
SECTION
  2
TABLES
  0
TABLE
  2
DIMSTYLE
 70
     2
  0
DIMSTYLE
  2
BOARDERDIM
 70
     0
  3

  4

  5
_NONE
  6
_NONE
  7
_NONE
 40
1
 41
0.1
 42
0.0625
 43
0.38
 44
0.18
 45
0.00
 46
0.0
 47
0.0
 48
0.0
140
0.5
141
0.09
142
0.0
143
25.399999999999999
144
1.0
145
0.5
146
1.0
147
0.09
 71
     1
 72
     0
 73
     1
 74
     0
 75
     0
 76
     0
 77
     2
 78
     0
170
     0
171
     2
172
     0
173
     0
174
     1
175
      0
176
5
177
5
178
     1
271
3
272
3
  0
ENDTAB
  0
TABLE
  2
DIMSTYLE
 70
     2
  0
DIMSTYLE
  2
VDRILLDIM
 70
     0
  3

  4

  5
_NONE
  6
_NONE
  7
_NONE
 40
1
 41
0.1
 42
0.0625
 43
0.38
 44
0.18
 45
0.00
 46
0.0
 47
0.0
 48
0.0
140
0.5
141
0.09
142
0.0
143
25.399999999999999
144
1.0
145
0.5
146
1.0
147
0.09
 71
     1
 72
     0
 73
     1
 74
     0
 75
     0
 76
     0
 77
     2
 78
     0
170
     0
171
     2
172
     0
173
     0
174
     1
175
      0
176
5
177
5
178
     1
271
3
272
3
  0
ENDTAB
  0
TABLE
  2
DIMSTYLE
 70
     2
  0
DIMSTYLE
  2
HDRILLDIM
 70
     0
  3

  4

  5
_NONE
  6
_NONE
  7
_NONE
 40
1
 41
0.1
 42
0.0625
 43
0.38
 44
0.18
 45
0.00
 46
0.0
 47
0.0
 48
0.0
140
0.5
141
0.09
142
0.0
143
25.399999999999999
144
1.0
145
0.5
146
1.0
147
0.09
 71
     1
 72
     0
 73
     1
 74
     0
 75
     0
 76
     0
 77
     2
 78
     0
170
     0
171
     2
172
     0
173
     0
174
     1
175
      0
176
5
177
5
178
     1
271
3
272
3
  0
ENDTAB
  0
TABLE
  2
DIMSTYLE
 70
     2
  0
DIMSTYLE
  2
ROUTEDIM
 70
     0
  3

  4

  5
_NONE
  6
_NONE
  7
_NONE
 40
1
 41
0.1
 42
0.0625
 43
0.38
 44
0.18
 45
0.00
 46
0.0
 47
0.0
 48
0.0
140
0.5
141
0.09
142
0.0
143
25.399999999999999
144
1.0
145
0.5
146
1.0
147
0.09
 71
     1
 72
     0
 73
     1
 74
     0
 75
     0
 76
     0
 77
     2
 78
     0
170
     0
171
     2
172
     0
173
     0
174
     1
175
      0
176
5
177
5
178
     1
271
3
272
3
  0
ENDTAB
  0
TABLE
  2
DIMSTYLE
 70
     2
  0
DIMSTYLE
  2
SAWDIM
 70
     0
  3

  4

  5
_NONE
  6
_NONE
  7
_NONE
 40
1
 41
0.1
 42
0.0625
 43
0.38
 44
0.18
 45
0.00
 46
0.0
 47
0.0
 48
0.0
140
0.5
141
0.09
142
0.0
143
25.399999999999999
144
1.0
145
0.5
146
1.0
147
0.09
 71
     1
 72
     0
 73
     1
 74
     0
 75
     0
 76
     0
 77
     2
 78
     0
170
     0
171
     2
172
     0
173
     0
174
     1
175
      0
176
5
177
5
178
     1
271
3
272
3
  0
ENDTAB
  0
TABLE
  2
VPORT
 70
     1
  0
VPORT
  2
*ACTIVE
 70
     0
 10
0.0
 20
0.0
 11
1.0
 21
1.0
 12
0.0
 22
0.0
 13
0.0
 23
0.0
 14
1.0
 24
1.0
 15
0.0
 25
0.0
 16
0.0
 26
0.0
 36
1.0
 17
0.0
 27
0.0
 37
0.0
 40
84
 41
2.0
 42
50.0
 43
0.0
 44
0.0
 50
0.0
 51
0.0
 71
     0
 72
   100
 73
     1
 74
     0
 75
     1
 76
     0
 77
     0
 78
     0
  0
ENDTAB
  0
ENDSEC
  0
SECTION
  2
ENTITIES
  0
POLYLINE
  8
BORDER_Z0P75
 62
     7
 66
     1
 10
0.0
 20
0.0
 30
0.0
 70
     1
  0
VERTEX
  8
BORDER_Z0P75
 62
     7
 10
0.0
 20
0.0
 30
0.0
  0
VERTEX
  8
BORDER_Z0P75
 62
     7
 10
0.0
 20
32.4464
 30
0.0
  0
VERTEX
  8
BORDER_Z0P75
 62
     7
 10
84
 20
32.4464
 30
0.0
  0
VERTEX
  8
BORDER_Z0P75
 62
     7
 10
84
 20
0.0
 30
0.0
  0
SEQEND
  8
BORDER_Z0P75
 62
     7
  0
POLYLINE
  8
ROUTE_Z0P75LT130RAMP
 62
     3
 66
     1
 10
0.0
 20
0.0
 30
0.0
 70
     0
  0
VERTEX
  8
ROUTE_Z0P75LT130RAMP
 62
     3
 10
23.609419
 20
-0.468018000000001
 30
0.0
  0
VERTEX
  8
ROUTE_Z0P75LT130RAMP
 62
     3
 10
23.670365
 20
-0.0980030000000056
 30
0.0
 42
0.242683543381432
  0
VERTEX
  8
ROUTE_Z0P75LT130RAMP
 62
     3
 10
16.651869
 20
24.9464
 30
0.0
  0
VERTEX
  8
ROUTE_Z0P75LT130RAMP
 62
     3
 10
-0.1
 20
24.9464
 30
0.0
  0
VERTEX
  8
ROUTE_Z0P75LT130RAMP
 62
     3
 10
-0.475
 20
24.9464
 30
0.0
  0
SEQEND
  8
ROUTE_Z0P75LT130RAMP
 62
     3
  0
POLYLINE
  8
ROUTE_Z0P375LT130RAMP
 62
     3
 66
     1
 10
0.0
 20
0.0
 30
0.0
 70
     0
  0
VERTEX
  8
ROUTE_Z0P375LT130RAMP
 62
     3
 10
53.345173
 20
-2.00000000063483E-05
 30
0.0
  0
VERTEX
  8
ROUTE_Z0P375LT130RAMP
 62
     3
 10
53.845173
 20
-2.00000000063483E-05
 30
0.0
  0
VERTEX
  8
ROUTE_Z0P375LT130RAMP
 62
     3
 10
84
 20
-2.00000000063483E-05
 30
0.0
  0
VERTEX
  8
ROUTE_Z0P375LT130RAMP
 62
     3
 10
84
 20
32.4464
 30
0.0
  0
VERTEX
  8
ROUTE_Z0P375LT130RAMP
 62
     3
 10
83.1875
 20
32.4464
 30
0.0
  0
VERTEX
  8
ROUTE_Z0P375LT130RAMP
 62
     3
 10
83.1875
 20
0.312479999999994
 30
0.0
  0
VERTEX
  8
ROUTE_Z0P375LT130RAMP
 62
     3
 10
23.751676
 20
0.312479999999994
 30
0.0
  0
VERTEX
  8
ROUTE_Z0P375LT130RAMP
 62
     3
 10
23.690347
 20
-2.00000000063483E-05
 30
0.0
  0
VERTEX
  8
ROUTE_Z0P375LT130RAMP
 62
     3
 10
53.845173
 20
-2.00000000063483E-05
 30
0.0
  0
SEQEND
  8
ROUTE_Z0P375LT130RAMP
 62
     3
  0
POLYLINE
  8
ROUTE_Z0P375LT130RAMP
 62
     3
 66
     1
 10
0.0
 20
0.0
 30
0.0
 70
     0
  0
VERTEX
  8
ROUTE_Z0P375LT130RAMP
 62
     3
 10
73.805284
 20
5.520978
 30
0.0
  0
VERTEX
  8
ROUTE_Z0P375LT130RAMP
 62
     3
 10
74.060152
 20
5.124396
 30
0.0
  0
VERTEX
  8
ROUTE_Z0P375LT130RAMP
 62
     3
 10
74.31502
 20
4.727814
 30
0.0
  0
VERTEX
  8
ROUTE_Z0P375LT130RAMP
 62
     3
 10
75.027567
 20
4.110388
 30
0.0
  0
VERTEX
  8
ROUTE_Z0P375LT130RAMP
 62
     3
 10
75.885201
 20
3.71872
 30
0.0
  0
VERTEX
  8
ROUTE_Z0P375LT130RAMP
 62
     3
 10
76.81844
 20
3.58454
 30
0.0
 42
1.1841267966578
  0
VERTEX
  8
ROUTE_Z0P375LT130RAMP
 62
     3
 10
76.81844
 20
10.20954
 30
0.0
  0
VERTEX
  8
ROUTE_Z0P375LT130RAMP
 62
     3
 10
75.885201
 20
10.07536
 30
0.0
  0
VERTEX
  8
ROUTE_Z0P375LT130RAMP
 62
     3
 10
75.027567
 20
9.683692
 30
0.0
  0
VERTEX
  8
ROUTE_Z0P375LT130RAMP
 62
     3
 10
74.31502
 20
9.066266
 30
0.0
  0
VERTEX
  8
ROUTE_Z0P375LT130RAMP
 62
     3
 10
73.805284
 20
8.273102
 30
0.0
  0
VERTEX
  8
ROUTE_Z0P375LT130RAMP
 62
     3
 10
73.539656
 20
7.368458
 30
0.0
  0
VERTEX
  8
ROUTE_Z0P375LT130RAMP
 62
     3
 10
73.539656
 20
6.425622
 30
0.0
  0
VERTEX
  8
ROUTE_Z0P375LT130RAMP
 62
     3
 10
73.805284
 20
5.520978
 30
0.0
  0
VERTEX
  8
ROUTE_Z0P375LT130RAMP
 62
     3
 10
74.060152
 20
5.124396
 30
0.0
  0
SEQEND
  8
ROUTE_Z0P375LT130RAMP
 62
     3
  0
POLYLINE
  8
ROUTE_Z0P75LT130RAMP
 62
     3
 66
     1
 10
0.0
 20
0.0
 30
0.0
 70
     0
  0
VERTEX
  8
ROUTE_Z0P75LT130RAMP
 62
     3
 10
77.3388481632654
 20
5.6827542857143
 30
0.0
  0
VERTEX
  8
ROUTE_Z0P75LT130RAMP
 62
     3
 10
77.3388481632654
 20
6.6827542857143
 30
0.0
 42
0.41421356
  0
VERTEX
  8
ROUTE_Z0P75LT130RAMP
 62
     3
 10
76.9255828571429
 20
7.09601959183675
 30
0.0
 42
0.41421356
  0
VERTEX
  8
ROUTE_Z0P75LT130RAMP
 62
     3
 10
76.5123175510204
 20
6.6827542857143
 30
0.0
 42
0.41421356
  0
VERTEX
  8
ROUTE_Z0P75LT130RAMP
 62
     3
 10
76.9255828571429
 20
6.26948897959184
 30
0.0
 42
0.41421356
  0
VERTEX
  8
ROUTE_Z0P75LT130RAMP
 62
     3
 10
77.4008379591837
 20
6.6827542857143
 30
0.0
 42
0.4
  0
VERTEX
  8
ROUTE_Z0P75LT130RAMP
 62
     3
 10
76.9255828571429
 20
7.19933591836736
 30
0.0
 42
0.4
  0
VERTEX
  8
ROUTE_Z0P75LT130RAMP
 62
     3
 10
76.3056848979592
 20
6.6827542857143
 30
0.0
 42
0.4
  0
VERTEX
  8
ROUTE_Z0P75LT130RAMP
 62
     3
 10
76.9255828571429
 20
5.95954000000001
 30
0.0
 42
0.4
  0
VERTEX
  8
ROUTE_Z0P75LT130RAMP
 62
     3
 10
77.7521134693878
 20
6.6827542857143
 30
0.0
 42
0.4
  0
VERTEX
  8
ROUTE_Z0P75LT130RAMP
 62
     3
 10
76.9255828571429
 20
7.61260122448981
 30
0.0
 42
0.4
  0
VERTEX
  8
ROUTE_Z0P75LT130RAMP
 62
     3
 10
75.8924195918368
 20
6.6827542857143
 30
0.0
 42
0.4
  0
VERTEX
  8
ROUTE_Z0P75LT130RAMP
 62
     3
 10
76.9255828571429
 20
5.54627469387756
 30
0.0
 42
0.4
  0
VERTEX
  8
ROUTE_Z0P75LT130RAMP
 62
     3
 10
78.1653787755102
 20
6.6827542857143
 30
0.0
 42
0.4
  0
VERTEX
  8
ROUTE_Z0P75LT130RAMP
 62
     3
 10
76.9255828571429
 20
8.02586653061226
 30
0.0
 42
0.4
  0
VERTEX
  8
ROUTE_Z0P75LT130RAMP
 62
     3
 10
75.4791542857143
 20
6.6827542857143
 30
0.0
 42
0.4
  0
VERTEX
  8
ROUTE_Z0P75LT130RAMP
 62
     3
 10
76.9255828571429
 20
5.13300938775511
 30
0.0
 42
0.4
  0
VERTEX
  8
ROUTE_Z0P75LT130RAMP
 62
     3
 10
78.5786440816327
 20
6.6827542857143
 30
0.0
 42
0.4
  0
VERTEX
  8
ROUTE_Z0P75LT130RAMP
 62
     3
 10
76.9255828571429
 20
8.43913183673471
 30
0.0
 42
0.4
  0
VERTEX
  8
ROUTE_Z0P75LT130RAMP
 62
     3
 10
75.0658889795919
 20
6.6827542857143
 30
0.0
 42
0.4
  0
VERTEX
  8
ROUTE_Z0P75LT130RAMP
 62
     3
 10
76.9255828571429
 20
4.71974408163266
 30
0.0
 42
0.4
  0
VERTEX
  8
ROUTE_Z0P75LT130RAMP
 62
     3
 10
78.9919093877552
 20
6.6827542857143
 30
0.0
 42
0.4
  0
VERTEX
  8
ROUTE_Z0P75LT130RAMP
 62
     3
 10
76.9255828571429
 20
8.85239714285716
 30
0.0
 42
0.4
  0
VERTEX
  8
ROUTE_Z0P75LT130RAMP
 62
     3
 10
74.6526236734694
 20
6.6827542857143
 30
0.0
 42
0.4
  0
VERTEX
  8
ROUTE_Z0P75LT130RAMP
 62
     3
 10
76.9255828571429
 20
4.30647877551021
 30
0.0
 42
0.4
  0
VERTEX
  8
ROUTE_Z0P75LT130RAMP
 62
     3
 10
79.4051746938776
 20
6.6827542857143
 30
0.0
 42
0.4
  0
VERTEX
  8
ROUTE_Z0P75LT130RAMP
 62
     3
 10
76.9255828571429
 20
9.26566244897961
 30
0.0
 42
0.4
  0
VERTEX
  8
ROUTE_Z0P75LT130RAMP
 62
     3
 10
74.239358367347
 20
6.6827542857143
 30
0.0
 42
0.4
  0
VERTEX
  8
ROUTE_Z0P75LT130RAMP
 62
     3
 10
76.9255828571429
 20
3.89321346938776
 30
0.0
 42
0.4
  0
VERTEX
  8
ROUTE_Z0P75LT130RAMP
 62
     3
 10
79.8184400000001
 20
6.6827542857143
 30
0.0
 42
0.41421356
  0
VERTEX
  8
ROUTE_Z0P75LT130RAMP
 62
     3
 10
76.9255828571429
 20
9.57561142857145
 30
0.0
 42
0.41421356
  0
VERTEX
  8
ROUTE_Z0P75LT130RAMP
 62
     3
 10
74.0327257142857
 20
6.6827542857143
 30
0.0
 42
0.41421356
  0
VERTEX
  8
ROUTE_Z0P75LT130RAMP
 62
     3
 10
76.9255828571429
 20
3.78989714285715
 30
0.0
 42
0.41421356
  0
VERTEX
  8
ROUTE_Z0P75LT130RAMP
 62
     3
 10
79.8184400000001
 20
6.6827542857143
 30
0.0
 42
0.41421356
  0
VERTEX
  8
ROUTE_Z0P75LT130RAMP
 62
     3
 10
76.9255828571429
 20
9.57561142857145
 30
0.0
 42
0.41421356
  0
VERTEX
  8
ROUTE_Z0P75LT130RAMP
 62
     3
 10
74.1360420408164
 20
6.6827542857143
 30
0.0
  0
SEQEND
  8
ROUTE_Z0P75LT130RAMP
 62
     3
  0
POLYLINE
  8
ROUTE_Z0P75LT130RAMP
 62
     3
 66
     1
 10
0.0
 20
0.0
 30
0.0
 70
     0
  0
VERTEX
  8
ROUTE_Z0P75LT130RAMP
 62
     3
 10
77.2470114285714
 20
5.89704
 30
0.0
  0
VERTEX
  8
ROUTE_Z0P75LT130RAMP
 62
     3
 10
77.2470114285714
 20
6.89704
 30
0.0
 42
0.41421356
  0
VERTEX
  8
ROUTE_Z0P75LT130RAMP
 62
     3
 10
76.81844
 20
7.32561142857142
 30
0.0
 42
0.41421356
  0
VERTEX
  8
ROUTE_Z0P75LT130RAMP
 62
     3
 10
76.3898685714286
 20
6.89704
 30
0.0
 42
0.41421356
  0
VERTEX
  8
ROUTE_Z0P75LT130RAMP
 62
     3
 10
76.81844
 20
6.46846857142857
 30
0.0
 42
0.41421356
  0
VERTEX
  8
ROUTE_Z0P75LT130RAMP
 62
     3
 10
77.3112971428571
 20
6.89704
 30
0.0
 42
0.4
  0
VERTEX
  8
ROUTE_Z0P75LT130RAMP
 62
     3
 10
76.81844
 20
7.43275428571428
 30
0.0
 42
0.4
  0
VERTEX
  8
ROUTE_Z0P75LT130RAMP
 62
     3
 10
76.1755828571429
 20
6.89704
 30
0.0
 42
0.4
  0
VERTEX
  8
ROUTE_Z0P75LT130RAMP
 62
     3
 10
76.81844
 20
6.14704
 30
0.0
 42
0.4
  0
VERTEX
  8
ROUTE_Z0P75LT130RAMP
 62
     3
 10
77.6755828571429
 20
6.89704
 30
0.0
 42
0.4
  0
VERTEX
  8
ROUTE_Z0P75LT130RAMP
 62
     3
 10
76.81844
 20
7.86132571428571
 30
0.0
 42
0.4
  0
VERTEX
  8
ROUTE_Z0P75LT130RAMP
 62
     3
 10
75.7470114285714
 20
6.89704
 30
0.0
 42
0.4
  0
VERTEX
  8
ROUTE_Z0P75LT130RAMP
 62
     3
 10
76.81844
 20
5.71846857142857
 30
0.0
 42
0.4
  0
VERTEX
  8
ROUTE_Z0P75LT130RAMP
 62
     3
 10
78.1041542857143
 20
6.89704
 30
0.0
 42
0.4
  0
VERTEX
  8
ROUTE_Z0P75LT130RAMP
 62
     3
 10
76.81844
 20
8.28989714285714
 30
0.0
 42
0.4
  0
VERTEX
  8
ROUTE_Z0P75LT130RAMP
 62
     3
 10
75.31844
 20
6.89704
 30
0.0
 42
0.4
  0
VERTEX
  8
ROUTE_Z0P75LT130RAMP
 62
     3
 10
76.81844
 20
5.28989714285714
 30
0.0
 42
0.4
  0
VERTEX
  8
ROUTE_Z0P75LT130RAMP
 62
     3
 10
78.5327257142857
 20
6.89704
 30
0.0
 42
0.4
  0
VERTEX
  8
ROUTE_Z0P75LT130RAMP
 62
     3
 10
76.81844
 20
8.71846857142857
 30
0.0
 42
0.4
  0
VERTEX
  8
ROUTE_Z0P75LT130RAMP
 62
     3
 10
74.8898685714286
 20
6.89704
 30
0.0
 42
0.4
  0
VERTEX
  8
ROUTE_Z0P75LT130RAMP
 62
     3
 10
76.81844
 20
4.86132571428571
 30
0.0
 42
0.4
  0
VERTEX
  8
ROUTE_Z0P75LT130RAMP
 62
     3
 10
78.9612971428571
 20
6.89704
 30
0.0
 42
0.4
  0
VERTEX
  8
ROUTE_Z0P75LT130RAMP
 62
     3
 10
76.81844
 20
9.14704
 30
0.0
 42
0.4
  0
VERTEX
  8
ROUTE_Z0P75LT130RAMP
 62
     3
 10
74.4612971428571
 20
6.89704
 30
0.0
 42
0.4
  0
VERTEX
  8
ROUTE_Z0P75LT130RAMP
 62
     3
 10
76.81844
 20
4.43275428571428
 30
0.0
 42
0.4
  0
VERTEX
  8
ROUTE_Z0P75LT130RAMP
 62
     3
 10
79.3898685714286
 20
6.89704
 30
0.0
 42
0.4
  0
VERTEX
  8
ROUTE_Z0P75LT130RAMP
 62
     3
 10
76.81844
 20
9.57561142857142
 30
0.0
 42
0.4
  0
VERTEX
  8
ROUTE_Z0P75LT130RAMP
 62
     3
 10
74.0327257142857
 20
6.89704
 30
0.0
 42
0.4
  0
VERTEX
  8
ROUTE_Z0P75LT130RAMP
 62
     3
 10
76.81844
 20
4.00418285714285
 30
0.0
 42
0.4
  0
VERTEX
  8
ROUTE_Z0P75LT130RAMP
 62
     3
 10
79.81844
 20
6.89704
 30
0.0
 42
0.41421356
  0
VERTEX
  8
ROUTE_Z0P75LT130RAMP
 62
     3
 10
76.81844
 20
9.89704
 30
0.0
 42
0.41421356
  0
VERTEX
  8
ROUTE_Z0P75LT130RAMP
 62
     3
 10
73.81844
 20
6.89704
 30
0.0
 42
0.41421356
  0
VERTEX
  8
ROUTE_Z0P75LT130RAMP
 62
     3
 10
76.81844
 20
3.89704
 30
0.0
 42
0.41421356
  0
VERTEX
  8
ROUTE_Z0P75LT130RAMP
 62
     3
 10
79.81844
 20
6.89704
 30
0.0
 42
0.41421356
  0
VERTEX
  8
ROUTE_Z0P75LT130RAMP
 62
     3
 10
76.81844
 20
9.89704
 30
0.0
 42
0.41421356
  0
VERTEX
  8
ROUTE_Z0P75LT130RAMP
 62
     3
 10
73.9255828571429
 20
6.89704
 30
0.0
  0
SEQEND
  8
ROUTE_Z0P75LT130RAMP
 62
     3
  0
POLYLINE
  8
ROUTE_Z0P375LT130RAMP
 62
     3
 66
     1
 10
0.0
 20
0.0
 30
0.0
 70
     1
  0
VERTEX
  8
ROUTE_Z0P375LT130RAMP
 62
     3
 10
74.2647768669264
 20
5.73082162908981
 30
0.0
  0
VERTEX
  8
ROUTE_Z0P375LT130RAMP
 62
     3
 10
74.4807786581898
 20
5.39471657713036
 30
0.0
  0
VERTEX
  8
ROUTE_Z0P375LT130RAMP
 62
     3
 10
74.6967805383871
 20
5.05861138678715
 30
0.0
  0
VERTEX
  8
ROUTE_Z0P375LT130RAMP
 62
     3
 10
75.3006672092654
 20
4.53534017568988
 30
0.0
  0
VERTEX
  8
ROUTE_Z0P375LT130RAMP
 62
     3
 10
76.0275158783552
 20
4.20339978558747
 30
0.0
  0
VERTEX
  8
ROUTE_Z0P375LT130RAMP
 62
     3
 10
76.8961381751343
 20
4.07851029877668
 30
0.0
 42
1.18669029364602
  0
VERTEX
  8
ROUTE_Z0P375LT130RAMP
 62
     3
 10
76.8961381751342
 20
9.71556970122329
 30
0.0
  0
VERTEX
  8
ROUTE_Z0P375LT130RAMP
 62
     3
 10
76.0275158783552
 20
9.59068021441252
 30
0.0
  0
VERTEX
  8
ROUTE_Z0P375LT130RAMP
 62
     3
 10
75.3006672092654
 20
9.25873982431012
 30
0.0
  0
VERTEX
  8
ROUTE_Z0P375LT130RAMP
 62
     3
 10
74.6967805383871
 20
8.73546861321284
 30
0.0
  0
VERTEX
  8
ROUTE_Z0P375LT130RAMP
 62
     3
 10
74.2647768669264
 20
8.06325837091018
 30
0.0
  0
VERTEX
  8
ROUTE_Z0P375LT130RAMP
 62
     3
 10
74.039656
 20
7.29656870890241
 30
0.0
  0
VERTEX
  8
ROUTE_Z0P375LT130RAMP
 62
     3
 10
74.039656
 20
6.49751129109758
 30
0.0
  0
SEQEND
  8
ROUTE_Z0P375LT130RAMP
 62
     3
  0
DIMENSION
  8
2D_DIM
  2
*D1
  3
BOARDERDIM
  1
84
 10
84
 20
37.4464
 30
0.0
 11
42
 21
37.4464
 31
0.0
 13
0
 23
32.4464
 14
84
 24
32.4464
 33
0.0
 34
0.0
53
0
  0
DIMENSION
  8
2D_DIM
  2
*D1
  3
BOARDERDIM
  1
32.446
 10
-5
 20
32.4464
 30
0.0
 11
-5
 21
16.2232
 31
0
 13
0.0
 23
0
 14
0.0
 24
32.4464
 50
90.0
53
0
 33
0.0
 34
0.0
  0
DIMENSION
  8
2D_DIM
  2
*D1
  3
ROUTEDIM
  1
-0.475
 10
-0.475
 20
34.9464
 30
0.0
 11
-0.2375
 21
34.9464
 31
0.0
 13
0
 23
32.4464
 14
-0.475
 24
32.4464
 33
0.0
 34
0.0
53
90
  0
DIMENSION
  8
2D_DIM
  2
*D1
  3
ROUTEDIM
  1
0.375
 10
-0.1
 20
34.9464
 30
0.0
 11
-0.05
 21
34.9464
 31
0.0
 13
-0.475
 23
32.4464
 14
-0.1
 24
32.4464
 33
0.0
 34
0.0
53
90
  0
DIMENSION
  8
2D_DIM
  2
*D1
  3
ROUTEDIM
  1
16.752
 10
16.651869
 20
34.9464
 30
0.0
 11
8.3259345
 21
34.9464
 31
0.0
 13
-0.1
 23
32.4464
 14
16.651869
 24
32.4464
 33
0.0
 34
0.0
53
90
  0
DIMENSION
  8
2D_DIM
  2
*D1
  3
ROUTEDIM
  1
6.958
 10
23.609419
 20
34.9464
 30
0.0
 11
11.8047095
 21
34.9464
 31
0.0
 13
16.651869
 23
32.4464
 14
23.609419
 24
32.4464
 33
0.0
 34
0.0
53
90
  0
DIMENSION
  8
2D_DIM
  2
*D1
  3
ROUTEDIM
  1
0.061
 10
23.670365
 20
34.9464
 30
0.0
 11
11.8351825
 21
34.9464
 31
0.0
 13
23.609419
 23
32.4464
 14
23.670365
 24
32.4464
 33
0.0
 34
0.0
53
90
  0
DIMENSION
  8
2D_DIM
  2
*D1
  3
ROUTEDIM
  1
0.02
 10
23.690347
 20
34.9464
 30
0.0
 11
11.8451735
 21
34.9464
 31
0.0
 13
23.670365
 23
32.4464
 14
23.690347
 24
32.4464
 33
0.0
 34
0.0
53
90
  0
DIMENSION
  8
2D_DIM
  2
*D1
  3
ROUTEDIM
  1
0.061
 10
23.751676
 20
34.9464
 30
0.0
 11
11.875838
 21
34.9464
 31
0.0
 13
23.690347
 23
32.4464
 14
23.751676
 24
32.4464
 33
0.0
 34
0.0
53
90
  0
DIMENSION
  8
2D_DIM
  2
*D1
  3
ROUTEDIM
  1
29.593
 10
53.345173
 20
34.9464
 30
0.0
 11
26.6725865
 21
34.9464
 31
0.0
 13
23.751676
 23
32.4464
 14
53.345173
 24
32.4464
 33
0.0
 34
0.0
53
90
  0
DIMENSION
  8
2D_DIM
  2
*D1
  3
ROUTEDIM
  1
0.5
 10
53.845173
 20
34.9464
 30
0.0
 11
26.9225865
 21
34.9464
 31
0.0
 13
53.345173
 23
32.4464
 14
53.845173
 24
32.4464
 33
0.0
 34
0.0
53
90
  0
DIMENSION
  8
2D_DIM
  2
*D1
  3
ROUTEDIM
  1
19.694
 10
73.539656
 20
34.9464
 30
0.0
 11
36.769828
 21
34.9464
 31
0.0
 13
53.845173
 23
32.4464
 14
73.539656
 24
32.4464
 33
0.0
 34
0.0
53
90
  0
DIMENSION
  8
2D_DIM
  2
*D1
  3
ROUTEDIM
  1
0.266
 10
73.805284
 20
34.9464
 30
0.0
 11
36.902642
 21
34.9464
 31
0.0
 13
73.539656
 23
32.4464
 14
73.805284
 24
32.4464
 33
0.0
 34
0.0
53
90
  0
DIMENSION
  8
2D_DIM
  2
*D1
  3
ROUTEDIM
  1
0.013
 10
73.81844
 20
34.9464
 30
0.0
 11
36.90922
 21
34.9464
 31
0.0
 13
73.805284
 23
32.4464
 14
73.81844
 24
32.4464
 33
0.0
 34
0.0
53
90
  0
DIMENSION
  8
2D_DIM
  2
*D1
  3
ROUTEDIM
  1
0.107
 10
73.9255828571429
 20
34.9464
 30
0.0
 11
36.9627914285714
 21
34.9464
 31
0.0
 13
73.81844
 23
32.4464
 14
73.9255828571429
 24
32.4464
 33
0.0
 34
0.0
53
90
  0
DIMENSION
  8
2D_DIM
  2
*D1
  3
ROUTEDIM
  1
0.107
 10
74.0327257142857
 20
34.9464
 30
0.0
 11
37.0163628571429
 21
34.9464
 31
0.0
 13
73.9255828571429
 23
32.4464
 14
74.0327257142857
 24
32.4464
 33
0.0
 34
0.0
53
90
  0
DIMENSION
  8
2D_DIM
  2
*D1
  3
ROUTEDIM
  1
0.007
 10
74.039656
 20
34.9464
 30
0.0
 11
37.019828
 21
34.9464
 31
0.0
 13
74.0327257142857
 23
32.4464
 14
74.039656
 24
32.4464
 33
0.0
 34
0.0
53
90
  0
DIMENSION
  8
2D_DIM
  2
*D1
  3
ROUTEDIM
  1
0.02
 10
74.060152
 20
34.9464
 30
0.0
 11
37.030076
 21
34.9464
 31
0.0
 13
74.039656
 23
32.4464
 14
74.060152
 24
32.4464
 33
0.0
 34
0.0
53
90
  0
DIMENSION
  8
2D_DIM
  2
*D1
  3
ROUTEDIM
  1
0.076
 10
74.1360420408164
 20
34.9464
 30
0.0
 11
37.0680210204082
 21
34.9464
 31
0.0
 13
74.060152
 23
32.4464
 14
74.1360420408164
 24
32.4464
 33
0.0
 34
0.0
53
90
  0
DIMENSION
  8
2D_DIM
  2
*D1
  3
ROUTEDIM
  1
0.103
 10
74.239358367347
 20
34.9464
 30
0.0
 11
37.1196791836735
 21
34.9464
 31
0.0
 13
74.1360420408164
 23
32.4464
 14
74.239358367347
 24
32.4464
 33
0.0
 34
0.0
53
90
  0
DIMENSION
  8
2D_DIM
  2
*D1
  3
ROUTEDIM
  1
0.025
 10
74.2647768669264
 20
34.9464
 30
0.0
 11
37.1323884334632
 21
34.9464
 31
0.0
 13
74.239358367347
 23
32.4464
 14
74.2647768669264
 24
32.4464
 33
0.0
 34
0.0
53
90
  0
DIMENSION
  8
2D_DIM
  2
*D1
  3
ROUTEDIM
  1
0.05
 10
74.31502
 20
34.9464
 30
0.0
 11
37.15751
 21
34.9464
 31
0.0
 13
74.2647768669264
 23
32.4464
 14
74.31502
 24
32.4464
 33
0.0
 34
0.0
53
90
  0
DIMENSION
  8
2D_DIM
  2
*D1
  3
ROUTEDIM
  1
0.146
 10
74.4612971428571
 20
34.9464
 30
0.0
 11
37.2306485714286
 21
34.9464
 31
0.0
 13
74.31502
 23
32.4464
 14
74.4612971428571
 24
32.4464
 33
0.0
 34
0.0
53
90
  0
DIMENSION
  8
2D_DIM
  2
*D1
  3
ROUTEDIM
  1
0.019
 10
74.4807786581898
 20
34.9464
 30
0.0
 11
37.2403893290949
 21
34.9464
 31
0.0
 13
74.4612971428571
 23
32.4464
 14
74.4807786581898
 24
32.4464
 33
0.0
 34
0.0
53
90
  0
DIMENSION
  8
2D_DIM
  2
*D1
  3
ROUTEDIM
  1
0.172
 10
74.6526236734694
 20
34.9464
 30
0.0
 11
37.3263118367347
 21
34.9464
 31
0.0
 13
74.4807786581898
 23
32.4464
 14
74.6526236734694
 24
32.4464
 33
0.0
 34
0.0
53
90
  0
DIMENSION
  8
2D_DIM
  2
*D1
  3
ROUTEDIM
  1
0.044
 10
74.6967805383871
 20
34.9464
 30
0.0
 11
37.3483902691936
 21
34.9464
 31
0.0
 13
74.6526236734694
 23
32.4464
 14
74.6967805383871
 24
32.4464
 33
0.0
 34
0.0
53
90
  0
DIMENSION
  8
2D_DIM
  2
*D1
  3
ROUTEDIM
  1
0.193
 10
74.8898685714286
 20
34.9464
 30
0.0
 11
37.4449342857143
 21
34.9464
 31
0.0
 13
74.6967805383871
 23
32.4464
 14
74.8898685714286
 24
32.4464
 33
0.0
 34
0.0
53
90
  0
DIMENSION
  8
2D_DIM
  2
*D1
  3
ROUTEDIM
  1
0.138
 10
75.027567
 20
34.9464
 30
0.0
 11
37.5137835
 21
34.9464
 31
0.0
 13
74.8898685714286
 23
32.4464
 14
75.027567
 24
32.4464
 33
0.0
 34
0.0
53
90
  0
DIMENSION
  8
2D_DIM
  2
*D1
  3
ROUTEDIM
  1
0.038
 10
75.0658889795919
 20
34.9464
 30
0.0
 11
37.532944489796
 21
34.9464
 31
0.0
 13
75.027567
 23
32.4464
 14
75.0658889795919
 24
32.4464
 33
0.0
 34
0.0
53
90
  0
DIMENSION
  8
2D_DIM
  2
*D1
  3
ROUTEDIM
  1
0.235
 10
75.3006672092654
 20
34.9464
 30
0.0
 11
37.6503336046327
 21
34.9464
 31
0.0
 13
75.0658889795919
 23
32.4464
 14
75.3006672092654
 24
32.4464
 33
0.0
 34
0.0
53
90
  0
DIMENSION
  8
2D_DIM
  2
*D1
  3
ROUTEDIM
  1
0.018
 10
75.31844
 20
34.9464
 30
0.0
 11
37.65922
 21
34.9464
 31
0.0
 13
75.3006672092654
 23
32.4464
 14
75.31844
 24
32.4464
 33
0.0
 34
0.0
53
90
  0
DIMENSION
  8
2D_DIM
  2
*D1
  3
ROUTEDIM
  1
0.161
 10
75.4791542857143
 20
34.9464
 30
0.0
 11
37.7395771428572
 21
34.9464
 31
0.0
 13
75.31844
 23
32.4464
 14
75.4791542857143
 24
32.4464
 33
0.0
 34
0.0
53
90
  0
DIMENSION
  8
2D_DIM
  2
*D1
  3
ROUTEDIM
  1
0.268
 10
75.7470114285714
 20
34.9464
 30
0.0
 11
37.8735057142857
 21
34.9464
 31
0.0
 13
75.4791542857143
 23
32.4464
 14
75.7470114285714
 24
32.4464
 33
0.0
 34
0.0
53
90
  0
DIMENSION
  8
2D_DIM
  2
*D1
  3
ROUTEDIM
  1
0.138
 10
75.885201
 20
34.9464
 30
0.0
 11
37.9426005
 21
34.9464
 31
0.0
 13
75.7470114285714
 23
32.4464
 14
75.885201
 24
32.4464
 33
0.0
 34
0.0
53
90
  0
DIMENSION
  8
2D_DIM
  2
*D1
  3
ROUTEDIM
  1
0.007
 10
75.8924195918368
 20
34.9464
 30
0.0
 11
37.9462097959184
 21
34.9464
 31
0.0
 13
75.885201
 23
32.4464
 14
75.8924195918368
 24
32.4464
 33
0.0
 34
0.0
53
90
  0
DIMENSION
  8
2D_DIM
  2
*D1
  3
ROUTEDIM
  1
0.135
 10
76.0275158783552
 20
34.9464
 30
0.0
 11
38.0137579391776
 21
34.9464
 31
0.0
 13
75.8924195918368
 23
32.4464
 14
76.0275158783552
 24
32.4464
 33
0.0
 34
0.0
53
90
  0
DIMENSION
  8
2D_DIM
  2
*D1
  3
ROUTEDIM
  1
0.148
 10
76.1755828571429
 20
34.9464
 30
0.0
 11
38.0877914285714
 21
34.9464
 31
0.0
 13
76.0275158783552
 23
32.4464
 14
76.1755828571429
 24
32.4464
 33
0.0
 34
0.0
53
90
  0
DIMENSION
  8
2D_DIM
  2
*D1
  3
ROUTEDIM
  1
0.13
 10
76.3056848979592
 20
34.9464
 30
0.0
 11
38.1528424489796
 21
34.9464
 31
0.0
 13
76.1755828571429
 23
32.4464
 14
76.3056848979592
 24
32.4464
 33
0.0
 34
0.0
53
90
  0
DIMENSION
  8
2D_DIM
  2
*D1
  3
ROUTEDIM
  1
0.084
 10
76.3898685714286
 20
34.9464
 30
0.0
 11
38.1949342857143
 21
34.9464
 31
0.0
 13
76.3056848979592
 23
32.4464
 14
76.3898685714286
 24
32.4464
 33
0.0
 34
0.0
53
90
  0
DIMENSION
  8
2D_DIM
  2
*D1
  3
ROUTEDIM
  1
0.122
 10
76.5123175510204
 20
34.9464
 30
0.0
 11
38.2561587755102
 21
34.9464
 31
0.0
 13
76.3898685714286
 23
32.4464
 14
76.5123175510204
 24
32.4464
 33
0.0
 34
0.0
53
90
  0
DIMENSION
  8
2D_DIM
  2
*D1
  3
ROUTEDIM
  1
0.306
 10
76.81844
 20
34.9464
 30
0.0
 11
38.40922
 21
34.9464
 31
0.0
 13
76.5123175510204
 23
32.4464
 14
76.81844
 24
32.4464
 33
0.0
 34
0.0
53
90
  0
DIMENSION
  8
2D_DIM
  2
*D1
  3
ROUTEDIM
  1
0.078
 10
76.8961381751342
 20
34.9464
 30
0.0
 11
38.4480690875671
 21
34.9464
 31
0.0
 13
76.81844
 23
32.4464
 14
76.8961381751342
 24
32.4464
 33
0.0
 34
0.0
53
90
  0
DIMENSION
  8
2D_DIM
  2
*D1
  3
ROUTEDIM
  1
0.029
 10
76.9255828571429
 20
34.9464
 30
0.0
 11
38.4627914285714
 21
34.9464
 31
0.0
 13
76.8961381751342
 23
32.4464
 14
76.9255828571429
 24
32.4464
 33
0.0
 34
0.0
53
90
  0
DIMENSION
  8
2D_DIM
  2
*D1
  3
ROUTEDIM
  1
0.321
 10
77.2470114285714
 20
34.9464
 30
0.0
 11
38.6235057142857
 21
34.9464
 31
0.0
 13
76.9255828571429
 23
32.4464
 14
77.2470114285714
 24
32.4464
 33
0.0
 34
0.0
53
90
  0
DIMENSION
  8
2D_DIM
  2
*D1
  3
ROUTEDIM
  1
0.064
 10
77.3112971428571
 20
34.9464
 30
0.0
 11
38.6556485714286
 21
34.9464
 31
0.0
 13
77.2470114285714
 23
32.4464
 14
77.3112971428571
 24
32.4464
 33
0.0
 34
0.0
53
90
  0
DIMENSION
  8
2D_DIM
  2
*D1
  3
ROUTEDIM
  1
0.028
 10
77.3388481632654
 20
34.9464
 30
0.0
 11
38.6694240816327
 21
34.9464
 31
0.0
 13
77.3112971428571
 23
32.4464
 14
77.3388481632654
 24
32.4464
 33
0.0
 34
0.0
53
90
  0
DIMENSION
  8
2D_DIM
  2
*D1
  3
ROUTEDIM
  1
0.062
 10
77.4008379591837
 20
34.9464
 30
0.0
 11
38.7004189795919
 21
34.9464
 31
0.0
 13
77.3388481632654
 23
32.4464
 14
77.4008379591837
 24
32.4464
 33
0.0
 34
0.0
53
90
  0
DIMENSION
  8
2D_DIM
  2
*D1
  3
ROUTEDIM
  1
0.275
 10
77.6755828571429
 20
34.9464
 30
0.0
 11
38.8377914285714
 21
34.9464
 31
0.0
 13
77.4008379591837
 23
32.4464
 14
77.6755828571429
 24
32.4464
 33
0.0
 34
0.0
53
90
  0
DIMENSION
  8
2D_DIM
  2
*D1
  3
ROUTEDIM
  1
0.077
 10
77.7521134693878
 20
34.9464
 30
0.0
 11
38.8760567346939
 21
34.9464
 31
0.0
 13
77.6755828571429
 23
32.4464
 14
77.7521134693878
 24
32.4464
 33
0.0
 34
0.0
53
90
  0
DIMENSION
  8
2D_DIM
  2
*D1
  3
ROUTEDIM
  1
0.352
 10
78.1041542857143
 20
34.9464
 30
0.0
 11
39.0520771428572
 21
34.9464
 31
0.0
 13
77.7521134693878
 23
32.4464
 14
78.1041542857143
 24
32.4464
 33
0.0
 34
0.0
53
90
  0
DIMENSION
  8
2D_DIM
  2
*D1
  3
ROUTEDIM
  1
0.061
 10
78.1653787755102
 20
34.9464
 30
0.0
 11
39.0826893877551
 21
34.9464
 31
0.0
 13
78.1041542857143
 23
32.4464
 14
78.1653787755102
 24
32.4464
 33
0.0
 34
0.0
53
90
  0
DIMENSION
  8
2D_DIM
  2
*D1
  3
ROUTEDIM
  1
0.367
 10
78.5327257142857
 20
34.9464
 30
0.0
 11
39.2663628571429
 21
34.9464
 31
0.0
 13
78.1653787755102
 23
32.4464
 14
78.5327257142857
 24
32.4464
 33
0.0
 34
0.0
53
90
  0
DIMENSION
  8
2D_DIM
  2
*D1
  3
ROUTEDIM
  1
0.046
 10
78.5786440816327
 20
34.9464
 30
0.0
 11
39.2893220408164
 21
34.9464
 31
0.0
 13
78.5327257142857
 23
32.4464
 14
78.5786440816327
 24
32.4464
 33
0.0
 34
0.0
53
90
  0
DIMENSION
  8
2D_DIM
  2
*D1
  3
ROUTEDIM
  1
0.383
 10
78.9612971428571
 20
34.9464
 30
0.0
 11
39.4806485714286
 21
34.9464
 31
0.0
 13
78.5786440816327
 23
32.4464
 14
78.9612971428571
 24
32.4464
 33
0.0
 34
0.0
53
90
  0
DIMENSION
  8
2D_DIM
  2
*D1
  3
ROUTEDIM
  1
0.031
 10
78.9919093877552
 20
34.9464
 30
0.0
 11
39.4959546938776
 21
34.9464
 31
0.0
 13
78.9612971428571
 23
32.4464
 14
78.9919093877552
 24
32.4464
 33
0.0
 34
0.0
53
90
  0
DIMENSION
  8
2D_DIM
  2
*D1
  3
ROUTEDIM
  1
0.398
 10
79.3898685714286
 20
34.9464
 30
0.0
 11
39.6949342857143
 21
34.9464
 31
0.0
 13
78.9919093877552
 23
32.4464
 14
79.3898685714286
 24
32.4464
 33
0.0
 34
0.0
53
90
  0
DIMENSION
  8
2D_DIM
  2
*D1
  3
ROUTEDIM
  1
0.015
 10
79.4051746938776
 20
34.9464
 30
0.0
 11
39.7025873469388
 21
34.9464
 31
0.0
 13
79.3898685714286
 23
32.4464
 14
79.4051746938776
 24
32.4464
 33
0.0
 34
0.0
53
90
  0
DIMENSION
  8
2D_DIM
  2
*D1
  3
ROUTEDIM
  1
0.413
 10
79.81844
 20
34.9464
 30
0.0
 11
39.90922
 21
34.9464
 31
0.0
 13
79.4051746938776
 23
32.4464
 14
79.81844
 24
32.4464
 33
0.0
 34
0.0
53
90
  0
DIMENSION
  8
2D_DIM
  2
*D1
  3
ROUTEDIM
  1
3.369
 10
83.1875
 20
34.9464
 30
0.0
 11
41.59375
 21
34.9464
 31
0.0
 13
79.81844
 23
32.4464
 14
83.1875
 24
32.4464
 33
0.0
 34
0.0
53
90
  0
DIMENSION
  8
2D_DIM
  2
*D1
  3
ROUTEDIM
  1
0.812
 10
84
 20
34.9464
 30
0.0
 11
42
 21
34.9464
 31
0.0
 13
83.1875
 23
32.4464
 14
84
 24
32.4464
 33
0.0
 34
0.0
53
90
  0
DIMENSION
  8
2D_DIM
  2
*D1
  3
ROUTEDIM
  1
0
 10
84
 20
34.9464
 30
0.0
 11
42
 21
34.9464
 31
0.0
 13
84
 23
32.4464
 14
84
 24
32.4464
 33
0.0
 34
0.0
53
90
  0
DIMENSION
  8
2D_DIM
  2
*D1
  3
ROUTEDIM
  1
0.468
 10
-2.5
 20
-0.468018000000001
 30
0.0
 11
-2.5
 21
-0.234009
 31
0
 13
0.0
 23
0
 14
0.0
 24
-0.468018000000001
 50
90.0
53
0
 33
0.0
 34
0.0
  0
DIMENSION
  8
2D_DIM
  2
*D1
  3
ROUTEDIM
  1
0.37
 10
-2.5
 20
-0.0980030000000056
 30
0.0
 11
-2.5
 21
-0.0490015000000028
 31
0
 13
0.0
 23
-0.468018000000001
 14
0.0
 24
-0.0980030000000056
 50
90.0
53
0
 33
0.0
 34
0.0
  0
DIMENSION
  8
2D_DIM
  2
*D1
  3
ROUTEDIM
  1
0.098
 10
-2.5
 20
-2.00000000063483E-05
 30
0.0
 11
-2.5
 21
-1.00000000031742E-05
 31
0
 13
0.0
 23
-0.0980030000000056
 14
0.0
 24
-2.00000000063483E-05
 50
90.0
53
0
 33
0.0
 34
0.0
  0
DIMENSION
  8
2D_DIM
  2
*D1
  3
ROUTEDIM
  1
0.313
 10
-2.5
 20
0.312479999999994
 30
0.0
 11
-2.5
 21
0.156239999999997
 31
0
 13
0.0
 23
-2.00000000063483E-05
 14
0.0
 24
0.312479999999994
 50
90.0
53
0
 33
0.0
 34
0.0
  0
DIMENSION
  8
2D_DIM
  2
*D1
  3
ROUTEDIM
  1
3.272
 10
-2.5
 20
3.58454
 30
0.0
 11
-2.5
 21
1.79227
 31
0
 13
0.0
 23
0.312479999999994
 14
0.0
 24
3.58454
 50
90.0
53
0
 33
0.0
 34
0.0
  0
DIMENSION
  8
2D_DIM
  2
*D1
  3
ROUTEDIM
  1
0.134
 10
-2.5
 20
3.71872
 30
0.0
 11
-2.5
 21
1.85936
 31
0
 13
0.0
 23
3.58454
 14
0.0
 24
3.71872
 50
90.0
53
0
 33
0.0
 34
0.0
  0
DIMENSION
  8
2D_DIM
  2
*D1
  3
ROUTEDIM
  1
0.071
 10
-2.5
 20
3.78989714285715
 30
0.0
 11
-2.5
 21
1.89494857142857
 31
0
 13
0.0
 23
3.71872
 14
0.0
 24
3.78989714285715
 50
90.0
53
0
 33
0.0
 34
0.0
  0
DIMENSION
  8
2D_DIM
  2
*D1
  3
ROUTEDIM
  1
0.103
 10
-2.5
 20
3.89321346938776
 30
0.0
 11
-2.5
 21
1.94660673469388
 31
0
 13
0.0
 23
3.78989714285715
 14
0.0
 24
3.89321346938776
 50
90.0
53
0
 33
0.0
 34
0.0
  0
DIMENSION
  8
2D_DIM
  2
*D1
  3
ROUTEDIM
  1
0.004
 10
-2.5
 20
3.89704
 30
0.0
 11
-2.5
 21
1.94852
 31
0
 13
0.0
 23
3.89321346938776
 14
0.0
 24
3.89704
 50
90.0
53
0
 33
0.0
 34
0.0
  0
DIMENSION
  8
2D_DIM
  2
*D1
  3
ROUTEDIM
  1
0.107
 10
-2.5
 20
4.00418285714285
 30
0.0
 11
-2.5
 21
2.00209142857143
 31
0
 13
0.0
 23
3.89704
 14
0.0
 24
4.00418285714285
 50
90.0
53
0
 33
0.0
 34
0.0
  0
DIMENSION
  8
2D_DIM
  2
*D1
  3
ROUTEDIM
  1
0.074
 10
-2.5
 20
4.07851029877668
 30
0.0
 11
-2.5
 21
2.03925514938834
 31
0
 13
0.0
 23
4.00418285714285
 14
0.0
 24
4.07851029877668
 50
90.0
53
0
 33
0.0
 34
0.0
  0
DIMENSION
  8
2D_DIM
  2
*D1
  3
ROUTEDIM
  1
0.032
 10
-2.5
 20
4.110388
 30
0.0
 11
-2.5
 21
2.055194
 31
0
 13
0.0
 23
4.07851029877668
 14
0.0
 24
4.110388
 50
90.0
53
0
 33
0.0
 34
0.0
  0
DIMENSION
  8
2D_DIM
  2
*D1
  3
ROUTEDIM
  1
0.093
 10
-2.5
 20
4.20339978558747
 30
0.0
 11
-2.5
 21
2.10169989279373
 31
0
 13
0.0
 23
4.110388
 14
0.0
 24
4.20339978558747
 50
90.0
53
0
 33
0.0
 34
0.0
  0
DIMENSION
  8
2D_DIM
  2
*D1
  3
ROUTEDIM
  1
0.103
 10
-2.5
 20
4.30647877551021
 30
0.0
 11
-2.5
 21
2.15323938775511
 31
0
 13
0.0
 23
4.20339978558747
 14
0.0
 24
4.30647877551021
 50
90.0
53
0
 33
0.0
 34
0.0
  0
DIMENSION
  8
2D_DIM
  2
*D1
  3
ROUTEDIM
  1
0.126
 10
-2.5
 20
4.43275428571428
 30
0.0
 11
-2.5
 21
2.21637714285714
 31
0
 13
0.0
 23
4.30647877551021
 14
0.0
 24
4.43275428571428
 50
90.0
53
0
 33
0.0
 34
0.0
  0
DIMENSION
  8
2D_DIM
  2
*D1
  3
ROUTEDIM
  1
0.103
 10
-2.5
 20
4.53534017568988
 30
0.0
 11
-2.5
 21
2.26767008784494
 31
0
 13
0.0
 23
4.43275428571428
 14
0.0
 24
4.53534017568988
 50
90.0
53
0
 33
0.0
 34
0.0
  0
DIMENSION
  8
2D_DIM
  2
*D1
  3
ROUTEDIM
  1
0.184
 10
-2.5
 20
4.71974408163266
 30
0.0
 11
-2.5
 21
2.35987204081633
 31
0
 13
0.0
 23
4.53534017568988
 14
0.0
 24
4.71974408163266
 50
90.0
53
0
 33
0.0
 34
0.0
  0
DIMENSION
  8
2D_DIM
  2
*D1
  3
ROUTEDIM
  1
0.008
 10
-2.5
 20
4.727814
 30
0.0
 11
-2.5
 21
2.363907
 31
0
 13
0.0
 23
4.71974408163266
 14
0.0
 24
4.727814
 50
90.0
53
0
 33
0.0
 34
0.0
  0
DIMENSION
  8
2D_DIM
  2
*D1
  3
ROUTEDIM
  1
0.134
 10
-2.5
 20
4.86132571428571
 30
0.0
 11
-2.5
 21
2.43066285714285
 31
0
 13
0.0
 23
4.727814
 14
0.0
 24
4.86132571428571
 50
90.0
53
0
 33
0.0
 34
0.0
  0
DIMENSION
  8
2D_DIM
  2
*D1
  3
ROUTEDIM
  1
0.197
 10
-2.5
 20
5.05861138678715
 30
0.0
 11
-2.5
 21
2.52930569339357
 31
0
 13
0.0
 23
4.86132571428571
 14
0.0
 24
5.05861138678715
 50
90.0
53
0
 33
0.0
 34
0.0
  0
DIMENSION
  8
2D_DIM
  2
*D1
  3
ROUTEDIM
  1
0.066
 10
-2.5
 20
5.124396
 30
0.0
 11
-2.5
 21
2.562198
 31
0
 13
0.0
 23
5.05861138678715
 14
0.0
 24
5.124396
 50
90.0
53
0
 33
0.0
 34
0.0
  0
DIMENSION
  8
2D_DIM
  2
*D1
  3
ROUTEDIM
  1
0.009
 10
-2.5
 20
5.13300938775511
 30
0.0
 11
-2.5
 21
2.56650469387756
 31
0
 13
0.0
 23
5.124396
 14
0.0
 24
5.13300938775511
 50
90.0
53
0
 33
0.0
 34
0.0
  0
DIMENSION
  8
2D_DIM
  2
*D1
  3
ROUTEDIM
  1
0.157
 10
-2.5
 20
5.28989714285714
 30
0.0
 11
-2.5
 21
2.64494857142857
 31
0
 13
0.0
 23
5.13300938775511
 14
0.0
 24
5.28989714285714
 50
90.0
53
0
 33
0.0
 34
0.0
  0
DIMENSION
  8
2D_DIM
  2
*D1
  3
ROUTEDIM
  1
0.105
 10
-2.5
 20
5.39471657713036
 30
0.0
 11
-2.5
 21
2.69735828856518
 31
0
 13
0.0
 23
5.28989714285714
 14
0.0
 24
5.39471657713036
 50
90.0
53
0
 33
0.0
 34
0.0
  0
DIMENSION
  8
2D_DIM
  2
*D1
  3
ROUTEDIM
  1
0.126
 10
-2.5
 20
5.520978
 30
0.0
 11
-2.5
 21
2.760489
 31
0
 13
0.0
 23
5.39471657713036
 14
0.0
 24
5.520978
 50
90.0
53
0
 33
0.0
 34
0.0
  0
DIMENSION
  8
2D_DIM
  2
*D1
  3
ROUTEDIM
  1
0.025
 10
-2.5
 20
5.54627469387756
 30
0.0
 11
-2.5
 21
2.77313734693878
 31
0
 13
0.0
 23
5.520978
 14
0.0
 24
5.54627469387756
 50
90.0
53
0
 33
0.0
 34
0.0
  0
DIMENSION
  8
2D_DIM
  2
*D1
  3
ROUTEDIM
  1
0.136
 10
-2.5
 20
5.6827542857143
 30
0.0
 11
-2.5
 21
2.84137714285715
 31
0
 13
0.0
 23
5.54627469387756
 14
0.0
 24
5.6827542857143
 50
90.0
53
0
 33
0.0
 34
0.0
  0
DIMENSION
  8
2D_DIM
  2
*D1
  3
ROUTEDIM
  1
0.036
 10
-2.5
 20
5.71846857142857
 30
0.0
 11
-2.5
 21
2.85923428571428
 31
0
 13
0.0
 23
5.6827542857143
 14
0.0
 24
5.71846857142857
 50
90.0
53
0
 33
0.0
 34
0.0
  0
DIMENSION
  8
2D_DIM
  2
*D1
  3
ROUTEDIM
  1
0.012
 10
-2.5
 20
5.73082162908981
 30
0.0
 11
-2.5
 21
2.86541081454491
 31
0
 13
0.0
 23
5.71846857142857
 14
0.0
 24
5.73082162908981
 50
90.0
53
0
 33
0.0
 34
0.0
  0
DIMENSION
  8
2D_DIM
  2
*D1
  3
ROUTEDIM
  1
0.166
 10
-2.5
 20
5.89704
 30
0.0
 11
-2.5
 21
2.94852
 31
0
 13
0.0
 23
5.73082162908981
 14
0.0
 24
5.89704
 50
90.0
53
0
 33
0.0
 34
0.0
  0
DIMENSION
  8
2D_DIM
  2
*D1
  3
ROUTEDIM
  1
0.063
 10
-2.5
 20
5.95954000000001
 30
0.0
 11
-2.5
 21
2.97977000000001
 31
0
 13
0.0
 23
5.89704
 14
0.0
 24
5.95954000000001
 50
90.0
53
0
 33
0.0
 34
0.0
  0
DIMENSION
  8
2D_DIM
  2
*D1
  3
ROUTEDIM
  1
0.187
 10
-2.5
 20
6.14704
 30
0.0
 11
-2.5
 21
3.07352
 31
0
 13
0.0
 23
5.95954000000001
 14
0.0
 24
6.14704
 50
90.0
53
0
 33
0.0
 34
0.0
  0
DIMENSION
  8
2D_DIM
  2
*D1
  3
ROUTEDIM
  1
0.122
 10
-2.5
 20
6.26948897959184
 30
0.0
 11
-2.5
 21
3.13474448979592
 31
0
 13
0.0
 23
6.14704
 14
0.0
 24
6.26948897959184
 50
90.0
53
0
 33
0.0
 34
0.0
  0
DIMENSION
  8
2D_DIM
  2
*D1
  3
ROUTEDIM
  1
0.156
 10
-2.5
 20
6.425622
 30
0.0
 11
-2.5
 21
3.212811
 31
0
 13
0.0
 23
6.26948897959184
 14
0.0
 24
6.425622
 50
90.0
53
0
 33
0.0
 34
0.0
  0
DIMENSION
  8
2D_DIM
  2
*D1
  3
ROUTEDIM
  1
0.043
 10
-2.5
 20
6.46846857142857
 30
0.0
 11
-2.5
 21
3.23423428571428
 31
0
 13
0.0
 23
6.425622
 14
0.0
 24
6.46846857142857
 50
90.0
53
0
 33
0.0
 34
0.0
  0
DIMENSION
  8
2D_DIM
  2
*D1
  3
ROUTEDIM
  1
0.029
 10
-2.5
 20
6.49751129109758
 30
0.0
 11
-2.5
 21
3.24875564554879
 31
0
 13
0.0
 23
6.46846857142857
 14
0.0
 24
6.49751129109758
 50
90.0
53
0
 33
0.0
 34
0.0
  0
DIMENSION
  8
2D_DIM
  2
*D1
  3
ROUTEDIM
  1
0.185
 10
-2.5
 20
6.6827542857143
 30
0.0
 11
-2.5
 21
3.34137714285715
 31
0
 13
0.0
 23
6.49751129109758
 14
0.0
 24
6.6827542857143
 50
90.0
53
0
 33
0.0
 34
0.0
  0
DIMENSION
  8
2D_DIM
  2
*D1
  3
ROUTEDIM
  1
0.214
 10
-2.5
 20
6.89704
 30
0.0
 11
-2.5
 21
3.44852
 31
0
 13
0.0
 23
6.6827542857143
 14
0.0
 24
6.89704
 50
90.0
53
0
 33
0.0
 34
0.0
  0
DIMENSION
  8
2D_DIM
  2
*D1
  3
ROUTEDIM
  1
0.199
 10
-2.5
 20
7.09601959183675
 30
0.0
 11
-2.5
 21
3.54800979591838
 31
0
 13
0.0
 23
6.89704
 14
0.0
 24
7.09601959183675
 50
90.0
53
0
 33
0.0
 34
0.0
  0
DIMENSION
  8
2D_DIM
  2
*D1
  3
ROUTEDIM
  1
0.103
 10
-2.5
 20
7.19933591836736
 30
0.0
 11
-2.5
 21
3.59966795918368
 31
0
 13
0.0
 23
7.09601959183675
 14
0.0
 24
7.19933591836736
 50
90.0
53
0
 33
0.0
 34
0.0
  0
DIMENSION
  8
2D_DIM
  2
*D1
  3
ROUTEDIM
  1
0.097
 10
-2.5
 20
7.29656870890241
 30
0.0
 11
-2.5
 21
3.64828435445121
 31
0
 13
0.0
 23
7.19933591836736
 14
0.0
 24
7.29656870890241
 50
90.0
53
0
 33
0.0
 34
0.0
  0
DIMENSION
  8
2D_DIM
  2
*D1
  3
ROUTEDIM
  1
0.029
 10
-2.5
 20
7.32561142857142
 30
0.0
 11
-2.5
 21
3.66280571428571
 31
0
 13
0.0
 23
7.29656870890241
 14
0.0
 24
7.32561142857142
 50
90.0
53
0
 33
0.0
 34
0.0
  0
DIMENSION
  8
2D_DIM
  2
*D1
  3
ROUTEDIM
  1
0.043
 10
-2.5
 20
7.368458
 30
0.0
 11
-2.5
 21
3.684229
 31
0
 13
0.0
 23
7.32561142857142
 14
0.0
 24
7.368458
 50
90.0
53
0
 33
0.0
 34
0.0
  0
DIMENSION
  8
2D_DIM
  2
*D1
  3
ROUTEDIM
  1
0.064
 10
-2.5
 20
7.43275428571428
 30
0.0
 11
-2.5
 21
3.71637714285714
 31
0
 13
0.0
 23
7.368458
 14
0.0
 24
7.43275428571428
 50
90.0
53
0
 33
0.0
 34
0.0
  0
DIMENSION
  8
2D_DIM
  2
*D1
  3
ROUTEDIM
  1
0.18
 10
-2.5
 20
7.61260122448981
 30
0.0
 11
-2.5
 21
3.8063006122449
 31
0
 13
0.0
 23
7.43275428571428
 14
0.0
 24
7.61260122448981
 50
90.0
53
0
 33
0.0
 34
0.0
  0
DIMENSION
  8
2D_DIM
  2
*D1
  3
ROUTEDIM
  1
0.249
 10
-2.5
 20
7.86132571428571
 30
0.0
 11
-2.5
 21
3.93066285714285
 31
0
 13
0.0
 23
7.61260122448981
 14
0.0
 24
7.86132571428571
 50
90.0
53
0
 33
0.0
 34
0.0
  0
DIMENSION
  8
2D_DIM
  2
*D1
  3
ROUTEDIM
  1
0.165
 10
-2.5
 20
8.02586653061226
 30
0.0
 11
-2.5
 21
4.01293326530613
 31
0
 13
0.0
 23
7.86132571428571
 14
0.0
 24
8.02586653061226
 50
90.0
53
0
 33
0.0
 34
0.0
  0
DIMENSION
  8
2D_DIM
  2
*D1
  3
ROUTEDIM
  1
0.037
 10
-2.5
 20
8.06325837091018
 30
0.0
 11
-2.5
 21
4.03162918545509
 31
0
 13
0.0
 23
8.02586653061226
 14
0.0
 24
8.06325837091018
 50
90.0
53
0
 33
0.0
 34
0.0
  0
DIMENSION
  8
2D_DIM
  2
*D1
  3
ROUTEDIM
  1
0.21
 10
-2.5
 20
8.273102
 30
0.0
 11
-2.5
 21
4.136551
 31
0
 13
0.0
 23
8.06325837091018
 14
0.0
 24
8.273102
 50
90.0
53
0
 33
0.0
 34
0.0
  0
DIMENSION
  8
2D_DIM
  2
*D1
  3
ROUTEDIM
  1
0.017
 10
-2.5
 20
8.28989714285714
 30
0.0
 11
-2.5
 21
4.14494857142857
 31
0
 13
0.0
 23
8.273102
 14
0.0
 24
8.28989714285714
 50
90.0
53
0
 33
0.0
 34
0.0
  0
DIMENSION
  8
2D_DIM
  2
*D1
  3
ROUTEDIM
  1
0.149
 10
-2.5
 20
8.43913183673471
 30
0.0
 11
-2.5
 21
4.21956591836735
 31
0
 13
0.0
 23
8.28989714285714
 14
0.0
 24
8.43913183673471
 50
90.0
53
0
 33
0.0
 34
0.0
  0
DIMENSION
  8
2D_DIM
  2
*D1
  3
ROUTEDIM
  1
0.279
 10
-2.5
 20
8.71846857142857
 30
0.0
 11
-2.5
 21
4.35923428571428
 31
0
 13
0.0
 23
8.43913183673471
 14
0.0
 24
8.71846857142857
 50
90.0
53
0
 33
0.0
 34
0.0
  0
DIMENSION
  8
2D_DIM
  2
*D1
  3
ROUTEDIM
  1
0.017
 10
-2.5
 20
8.73546861321284
 30
0.0
 11
-2.5
 21
4.36773430660642
 31
0
 13
0.0
 23
8.71846857142857
 14
0.0
 24
8.73546861321284
 50
90.0
53
0
 33
0.0
 34
0.0
  0
DIMENSION
  8
2D_DIM
  2
*D1
  3
ROUTEDIM
  1
0.117
 10
-2.5
 20
8.85239714285716
 30
0.0
 11
-2.5
 21
4.42619857142858
 31
0
 13
0.0
 23
8.73546861321284
 14
0.0
 24
8.85239714285716
 50
90.0
53
0
 33
0.0
 34
0.0
  0
DIMENSION
  8
2D_DIM
  2
*D1
  3
ROUTEDIM
  1
0.214
 10
-2.5
 20
9.066266
 30
0.0
 11
-2.5
 21
4.533133
 31
0
 13
0.0
 23
8.85239714285716
 14
0.0
 24
9.066266
 50
90.0
53
0
 33
0.0
 34
0.0
  0
DIMENSION
  8
2D_DIM
  2
*D1
  3
ROUTEDIM
  1
0.081
 10
-2.5
 20
9.14704
 30
0.0
 11
-2.5
 21
4.57352
 31
0
 13
0.0
 23
9.066266
 14
0.0
 24
9.14704
 50
90.0
53
0
 33
0.0
 34
0.0
  0
DIMENSION
  8
2D_DIM
  2
*D1
  3
ROUTEDIM
  1
0.112
 10
-2.5
 20
9.25873982431012
 30
0.0
 11
-2.5
 21
4.62936991215506
 31
0
 13
0.0
 23
9.14704
 14
0.0
 24
9.25873982431012
 50
90.0
53
0
 33
0.0
 34
0.0
  0
DIMENSION
  8
2D_DIM
  2
*D1
  3
ROUTEDIM
  1
0.007
 10
-2.5
 20
9.26566244897961
 30
0.0
 11
-2.5
 21
4.6328312244898
 31
0
 13
0.0
 23
9.25873982431012
 14
0.0
 24
9.26566244897961
 50
90.0
53
0
 33
0.0
 34
0.0
  0
DIMENSION
  8
2D_DIM
  2
*D1
  3
ROUTEDIM
  1
0.31
 10
-2.5
 20
9.57561142857142
 30
0.0
 11
-2.5
 21
4.78780571428571
 31
0
 13
0.0
 23
9.26566244897961
 14
0.0
 24
9.57561142857142
 50
90.0
53
0
 33
0.0
 34
0.0
  0
DIMENSION
  8
2D_DIM
  2
*D1
  3
ROUTEDIM
  1
0.015
 10
-2.5
 20
9.59068021441252
 30
0.0
 11
-2.5
 21
4.79534010720626
 31
0
 13
0.0
 23
9.57561142857142
 14
0.0
 24
9.59068021441252
 50
90.0
53
0
 33
0.0
 34
0.0
  0
DIMENSION
  8
2D_DIM
  2
*D1
  3
ROUTEDIM
  1
0.093
 10
-2.5
 20
9.683692
 30
0.0
 11
-2.5
 21
4.841846
 31
0
 13
0.0
 23
9.59068021441252
 14
0.0
 24
9.683692
 50
90.0
53
0
 33
0.0
 34
0.0
  0
DIMENSION
  8
2D_DIM
  2
*D1
  3
ROUTEDIM
  1
0.032
 10
-2.5
 20
9.71556970122329
 30
0.0
 11
-2.5
 21
4.85778485061164
 31
0
 13
0.0
 23
9.683692
 14
0.0
 24
9.71556970122329
 50
90.0
53
0
 33
0.0
 34
0.0
  0
DIMENSION
  8
2D_DIM
  2
*D1
  3
ROUTEDIM
  1
0.181
 10
-2.5
 20
9.89704
 30
0.0
 11
-2.5
 21
4.94852
 31
0
 13
0.0
 23
9.71556970122329
 14
0.0
 24
9.89704
 50
90.0
53
0
 33
0.0
 34
0.0
  0
DIMENSION
  8
2D_DIM
  2
*D1
  3
ROUTEDIM
  1
0.178
 10
-2.5
 20
10.07536
 30
0.0
 11
-2.5
 21
5.03768
 31
0
 13
0.0
 23
9.89704
 14
0.0
 24
10.07536
 50
90.0
53
0
 33
0.0
 34
0.0
  0
DIMENSION
  8
2D_DIM
  2
*D1
  3
ROUTEDIM
  1
0.134
 10
-2.5
 20
10.20954
 30
0.0
 11
-2.5
 21
5.10477
 31
0
 13
0.0
 23
10.07536
 14
0.0
 24
10.20954
 50
90.0
53
0
 33
0.0
 34
0.0
  0
DIMENSION
  8
2D_DIM
  2
*D1
  3
ROUTEDIM
  1
14.737
 10
-2.5
 20
24.9464
 30
0.0
 11
-2.5
 21
12.4732
 31
0
 13
0.0
 23
10.20954
 14
0.0
 24
24.9464
 50
90.0
53
0
 33
0.0
 34
0.0
  0
DIMENSION
  8
2D_DIM
  2
*D1
  3
ROUTEDIM
  1
7.5
 10
-2.5
 20
32.4464
 30
0.0
 11
-2.5
 21
16.2232
 31
0
 13
0.0
 23
24.9464
 14
0.0
 24
32.4464
 50
90.0
53
0
 33
0.0
 34
0.0
  0
DIMENSION
  8
2D_DIM
  2
*D1
  3
ROUTEDIM
  1
0
 10
-2.5
 20
32.4464
 30
0.0
 11
-2.5
 21
16.2232
 31
0
 13
0.0
 23
32.4464
 14
0.0
 24
32.4464
 50
90.0
53
0
 33
0.0
 34
0.0
  0
DIMENSION
  8
2D_DIM
  2
*D1
  3
ROUTEDIM
  1
-4.119
 10
-4.11886196745134
 20
5.61992629342589
 30
0.0
 11
-2.05943098372567
 21
5.61992629342589
 31
0.0
 13
0
 23
5.61992629342589
 14
-4.11886196745134
 24
5.61992629342589
 33
0.0
 34
0.0
53
90
  0
DIMENSION
  8
2D_DIM
  2
*D1
  3
ROUTEDIM
  1
5.62
 10
-4.11886196745134
 20
5.61992629342589
 30
0.0
 11
-4.11886196745134
 21
2.80996314671294
 31
0
 13
-4.11886196745134
 23
0
 14
-4.11886196745134
 24
5.61992629342589
 50
90.0
53
0
 33
0.0
 34
0.0
  0
DIMENSION
  8
2D_DIM
  2
*D1
  3
ROUTEDIM
  1
77.381
 10
77.3809400000001
 20
6.89704
 30
0.0
 11
38.69047
 21
6.89704
 31
0.0
 13
0
 23
6.89704
 14
77.3809400000001
 24
6.89704
 33
0.0
 34
0.0
53
90
  0
DIMENSION
  8
2D_DIM
  2
*D1
  3
ROUTEDIM
  1
6.897
 10
77.3809400000001
 20
6.89704
 30
0.0
 11
77.3809400000001
 21
3.44852
 31
0
 13
77.3809400000001
 23
0
 14
77.3809400000001
 24
6.89704
 50
90.0
53
0
 33
0.0
 34
0.0
  0
DIMENSION
  8
2D_DIM
  2
*D1
  3
ROUTEDIM
  1
76.926
 10
76.9255828554687
 20
6.6827542840401
 30
0.0
 11
38.4627914277344
 21
6.6827542840401
 31
0.0
 13
0
 23
6.6827542840401
 14
76.9255828554687
 24
6.6827542840401
 33
0.0
 34
0.0
53
90
  0
DIMENSION
  8
2D_DIM
  2
*D1
  3
ROUTEDIM
  1
6.683
 10
76.9255828554687
 20
6.6827542840401
 30
0.0
 11
76.9255828554687
 21
3.34137714202005
 31
0
 13
76.9255828554687
 23
0
 14
76.9255828554687
 24
6.6827542840401
 50
90.0
53
0
 33
0.0
 34
0.0
  0
DIMENSION
  8
2D_DIM
  2
*D1
  3
ROUTEDIM
  1
76.926
 10
76.9255828588171
 20
6.6827542840401
 30
0.0
 11
38.4627914294085
 21
6.6827542840401
 31
0.0
 13
0
 23
6.6827542840401
 14
76.9255828588171
 24
6.6827542840401
 33
0.0
 34
0.0
53
90
  0
DIMENSION
  8
2D_DIM
  2
*D1
  3
ROUTEDIM
  1
6.683
 10
76.9255828588171
 20
6.6827542840401
 30
0.0
 11
76.9255828588171
 21
3.34137714202005
 31
0
 13
76.9255828588171
 23
0
 14
76.9255828588171
 24
6.6827542840401
 50
90.0
53
0
 33
0.0
 34
0.0
  0
DIMENSION
  8
2D_DIM
  2
*D1
  3
ROUTEDIM
  1
76.926
 10
76.9255828588171
 20
6.68275428738849
 30
0.0
 11
38.4627914294085
 21
6.68275428738849
 31
0.0
 13
0
 23
6.68275428738849
 14
76.9255828588171
 24
6.68275428738849
 33
0.0
 34
0.0
53
90
  0
DIMENSION
  8
2D_DIM
  2
*D1
  3
ROUTEDIM
  1
6.683
 10
76.9255828588171
 20
6.68275428738849
 30
0.0
 11
76.9255828588171
 21
3.34137714369424
 31
0
 13
76.9255828588171
 23
0
 14
76.9255828588171
 24
6.68275428738849
 50
90.0
53
0
 33
0.0
 34
0.0
  0
DIMENSION
  8
2D_DIM
  2
*D1
  3
ROUTEDIM
  1
76.957
 10
76.9565777534279
 20
6.7137491855988
 30
0.0
 11
38.4782888767139
 21
6.7137491855988
 31
0.0
 13
0
 23
6.7137491855988
 14
76.9565777534279
 24
6.7137491855988
 33
0.0
 34
0.0
53
90
  0
DIMENSION
  8
2D_DIM
  2
*D1
  3
ROUTEDIM
  1
6.714
 10
76.9565777534279
 20
6.7137491855988
 30
0.0
 11
76.9565777534279
 21
3.3568745927994
 31
0
 13
76.9565777534279
 23
0
 14
76.9565777534279
 24
6.7137491855988
 50
90.0
53
0
 33
0.0
 34
0.0
  0
DIMENSION
  8
2D_DIM
  2
*D1
  3
ROUTEDIM
  1
76.892
 10
76.8920050510204
 20
6.6915361734694
 30
0.0
 11
38.4460025255102
 21
6.6915361734694
 31
0.0
 13
0
 23
6.6915361734694
 14
76.8920050510204
 24
6.6915361734694
 33
0.0
 34
0.0
53
90
  0
DIMENSION
  8
2D_DIM
  2
*D1
  3
ROUTEDIM
  1
6.692
 10
76.8920050510204
 20
6.6915361734694
 30
0.0
 11
76.8920050510204
 21
3.3457680867347
 31
0
 13
76.8920050510204
 23
0
 14
76.8920050510204
 24
6.6915361734694
 50
90.0
53
0
 33
0.0
 34
0.0
  0
DIMENSION
  8
2D_DIM
  2
*D1
  3
ROUTEDIM
  1
76.887
 10
76.8868392346939
 20
6.6155986734694
 30
0.0
 11
38.443419617347
 21
6.6155986734694
 31
0.0
 13
0
 23
6.6155986734694
 14
76.8868392346939
 24
6.6155986734694
 33
0.0
 34
0.0
53
90
  0
DIMENSION
  8
2D_DIM
  2
*D1
  3
ROUTEDIM
  1
6.616
 10
76.8868392346939
 20
6.6155986734694
 30
0.0
 11
76.8868392346939
 21
3.3077993367347
 31
0
 13
76.8868392346939
 23
0
 14
76.8868392346939
 24
6.6155986734694
 50
90.0
53
0
 33
0.0
 34
0.0
  0
DIMENSION
  8
2D_DIM
  2
*D1
  3
ROUTEDIM
  1
76.995
 10
76.9953213775511
 20
6.64659357142858
 30
0.0
 11
38.4976606887755
 21
6.64659357142858
 31
0.0
 13
0
 23
6.64659357142858
 14
76.9953213775511
 24
6.64659357142858
 33
0.0
 34
0.0
53
90
  0
DIMENSION
  8
2D_DIM
  2
*D1
  3
ROUTEDIM
  1
6.647
 10
76.9953213775511
 20
6.64659357142858
 30
0.0
 11
76.9953213775511
 21
3.32329678571429
 31
0
 13
76.9953213775511
 23
0
 14
76.9953213775511
 24
6.64659357142858
 50
90.0
53
0
 33
0.0
 34
0.0
  0
DIMENSION
  8
2D_DIM
  2
*D1
  3
ROUTEDIM
  1
76.959
 10
76.9591606632654
 20
6.75507571428573
 30
0.0
 11
38.4795803316327
 21
6.75507571428573
 31
0.0
 13
0
 23
6.75507571428573
 14
76.9591606632654
 24
6.75507571428573
 33
0.0
 34
0.0
53
90
  0
DIMENSION
  8
2D_DIM
  2
*D1
  3
ROUTEDIM
  1
6.755
 10
76.9591606632654
 20
6.75507571428573
 30
0.0
 11
76.9591606632654
 21
3.37753785714286
 31
0
 13
76.9591606632654
 23
0
 14
76.9591606632654
 24
6.75507571428573
 50
90.0
53
0
 33
0.0
 34
0.0
  0
DIMENSION
  8
2D_DIM
  2
*D1
  3
ROUTEDIM
  1
76.851
 10
76.8506785204082
 20
6.71374918367347
 30
0.0
 11
38.4253392602041
 21
6.71374918367347
 31
0.0
 13
0
 23
6.71374918367347
 14
76.8506785204082
 24
6.71374918367347
 33
0.0
 34
0.0
53
90
  0
DIMENSION
  8
2D_DIM
  2
*D1
  3
ROUTEDIM
  1
6.714
 10
76.8506785204082
 20
6.71374918367347
 30
0.0
 11
76.8506785204082
 21
3.35687459183674
 31
0
 13
76.8506785204082
 23
0
 14
76.8506785204082
 24
6.71374918367347
 50
90.0
53
0
 33
0.0
 34
0.0
  0
DIMENSION
  8
2D_DIM
  2
*D1
  3
ROUTEDIM
  1
76.897
 10
76.897170867347
 20
6.60526704081634
 30
0.0
 11
38.4485854336735
 21
6.60526704081634
 31
0.0
 13
0
 23
6.60526704081634
 14
76.897170867347
 24
6.60526704081634
 33
0.0
 34
0.0
53
90
  0
DIMENSION
  8
2D_DIM
  2
*D1
  3
ROUTEDIM
  1
6.605
 10
76.897170867347
 20
6.60526704081634
 30
0.0
 11
76.897170867347
 21
3.30263352040817
 31
0
 13
76.897170867347
 23
0
 14
76.897170867347
 24
6.60526704081634
 50
90.0
53
0
 33
0.0
 34
0.0
  0
DIMENSION
  8
2D_DIM
  2
*D1
  3
ROUTEDIM
  1
77.006
 10
77.0056530102041
 20
6.65692520408164
 30
0.0
 11
38.5028265051021
 21
6.65692520408164
 31
0.0
 13
0
 23
6.65692520408164
 14
77.0056530102041
 24
6.65692520408164
 33
0.0
 34
0.0
53
90
  0
DIMENSION
  8
2D_DIM
  2
*D1
  3
ROUTEDIM
  1
6.657
 10
77.0056530102041
 20
6.65692520408164
 30
0.0
 11
77.0056530102041
 21
3.32846260204082
 31
0
 13
77.0056530102041
 23
0
 14
77.0056530102041
 24
6.65692520408164
 50
90.0
53
0
 33
0.0
 34
0.0
  0
DIMENSION
  8
2D_DIM
  2
*D1
  3
ROUTEDIM
  1
76.949
 10
76.9488290306123
 20
6.76540734693879
 30
0.0
 11
38.4744145153061
 21
6.76540734693879
 31
0.0
 13
0
 23
6.76540734693879
 14
76.9488290306123
 24
6.76540734693879
 33
0.0
 34
0.0
53
90
  0
DIMENSION
  8
2D_DIM
  2
*D1
  3
ROUTEDIM
  1
6.765
 10
76.9488290306123
 20
6.76540734693879
 30
0.0
 11
76.9488290306123
 21
3.38270367346939
 31
0
 13
76.9488290306123
 23
0
 14
76.9488290306123
 24
6.76540734693879
 50
90.0
53
0
 33
0.0
 34
0.0
  0
DIMENSION
  8
2D_DIM
  2
*D1
  3
ROUTEDIM
  1
76.84
 10
76.8403468877551
 20
6.70341755102042
 30
0.0
 11
38.4201734438776
 21
6.70341755102042
 31
0.0
 13
0
 23
6.70341755102042
 14
76.8403468877551
 24
6.70341755102042
 33
0.0
 34
0.0
53
90
  0
DIMENSION
  8
2D_DIM
  2
*D1
  3
ROUTEDIM
  1
6.703
 10
76.8403468877551
 20
6.70341755102042
 30
0.0
 11
76.8403468877551
 21
3.35170877551021
 31
0
 13
76.8403468877551
 23
0
 14
76.8403468877551
 24
6.70341755102042
 50
90.0
53
0
 33
0.0
 34
0.0
  0
DIMENSION
  8
2D_DIM
  2
*D1
  3
ROUTEDIM
  1
76.908
 10
76.9075025
 20
6.59493540816328
 30
0.0
 11
38.45375125
 21
6.59493540816328
 31
0.0
 13
0
 23
6.59493540816328
 14
76.9075025
 24
6.59493540816328
 33
0.0
 34
0.0
53
90
  0
DIMENSION
  8
2D_DIM
  2
*D1
  3
ROUTEDIM
  1
6.595
 10
76.9075025
 20
6.59493540816328
 30
0.0
 11
76.9075025
 21
3.29746770408164
 31
0
 13
76.9075025
 23
0
 14
76.9075025
 24
6.59493540816328
 50
90.0
53
0
 33
0.0
 34
0.0
  0
DIMENSION
  8
2D_DIM
  2
*D1
  3
ROUTEDIM
  1
77.016
 10
77.0159846428572
 20
6.6672568367347
 30
0.0
 11
38.5079923214286
 21
6.6672568367347
 31
0.0
 13
0
 23
6.6672568367347
 14
77.0159846428572
 24
6.6672568367347
 33
0.0
 34
0.0
53
90
  0
DIMENSION
  8
2D_DIM
  2
*D1
  3
ROUTEDIM
  1
6.667
 10
77.0159846428572
 20
6.6672568367347
 30
0.0
 11
77.0159846428572
 21
3.33362841836735
 31
0
 13
77.0159846428572
 23
0
 14
77.0159846428572
 24
6.6672568367347
 50
90.0
53
0
 33
0.0
 34
0.0
  0
DIMENSION
  8
2D_DIM
  2
*D1
  3
ROUTEDIM
  1
76.938
 10
76.9384973979592
 20
6.77573897959185
 30
0.0
 11
38.4692486989796
 21
6.77573897959185
 31
0.0
 13
0
 23
6.77573897959185
 14
76.9384973979592
 24
6.77573897959185
 33
0.0
 34
0.0
53
90
  0
DIMENSION
  8
2D_DIM
  2
*D1
  3
ROUTEDIM
  1
6.776
 10
76.9384973979592
 20
6.77573897959185
 30
0.0
 11
76.9384973979592
 21
3.38786948979592
 31
0
 13
76.9384973979592
 23
0
 14
76.9384973979592
 24
6.77573897959185
 50
90.0
53
0
 33
0.0
 34
0.0
  0
DIMENSION
  8
2D_DIM
  2
*D1
  3
ROUTEDIM
  1
76.83
 10
76.8300152551021
 20
6.69308591836736
 30
0.0
 11
38.415007627551
 21
6.69308591836736
 31
0.0
 13
0
 23
6.69308591836736
 14
76.8300152551021
 24
6.69308591836736
 33
0.0
 34
0.0
53
90
  0
DIMENSION
  8
2D_DIM
  2
*D1
  3
ROUTEDIM
  1
6.693
 10
76.8300152551021
 20
6.69308591836736
 30
0.0
 11
76.8300152551021
 21
3.34654295918368
 31
0
 13
76.8300152551021
 23
0
 14
76.8300152551021
 24
6.69308591836736
 50
90.0
53
0
 33
0.0
 34
0.0
  0
DIMENSION
  8
2D_DIM
  2
*D1
  3
ROUTEDIM
  1
76.918
 10
76.9178341326531
 20
6.58460377551021
 30
0.0
 11
38.4589170663265
 21
6.58460377551021
 31
0.0
 13
0
 23
6.58460377551021
 14
76.9178341326531
 24
6.58460377551021
 33
0.0
 34
0.0
53
90
  0
DIMENSION
  8
2D_DIM
  2
*D1
  3
ROUTEDIM
  1
6.585
 10
76.9178341326531
 20
6.58460377551021
 30
0.0
 11
76.9178341326531
 21
3.29230188775511
 31
0
 13
76.9178341326531
 23
0
 14
76.9178341326531
 24
6.58460377551021
 50
90.0
53
0
 33
0.0
 34
0.0
  0
DIMENSION
  8
2D_DIM
  2
*D1
  3
ROUTEDIM
  1
77.026
 10
77.0263162755103
 20
6.67758846938776
 30
0.0
 11
38.5131581377551
 21
6.67758846938776
 31
0.0
 13
0
 23
6.67758846938776
 14
77.0263162755103
 24
6.67758846938776
 33
0.0
 34
0.0
53
90
  0
DIMENSION
  8
2D_DIM
  2
*D1
  3
ROUTEDIM
  1
6.678
 10
77.0263162755103
 20
6.67758846938776
 30
0.0
 11
77.0263162755103
 21
3.33879423469388
 31
0
 13
77.0263162755103
 23
0
 14
77.0263162755103
 24
6.67758846938776
 50
90.0
53
0
 33
0.0
 34
0.0
  0
DIMENSION
  8
2D_DIM
  2
*D1
  3
ROUTEDIM
  1
76.928
 10
76.9281657653062
 20
6.78607061224491
 30
0.0
 11
38.4640828826531
 21
6.78607061224491
 31
0.0
 13
0
 23
6.78607061224491
 14
76.9281657653062
 24
6.78607061224491
 33
0.0
 34
0.0
53
90
  0
DIMENSION
  8
2D_DIM
  2
*D1
  3
ROUTEDIM
  1
6.786
 10
76.9281657653062
 20
6.78607061224491
 30
0.0
 11
76.9281657653062
 21
3.39303530612246
 31
0
 13
76.9281657653062
 23
0
 14
76.9281657653062
 24
6.78607061224491
 50
90.0
53
0
 33
0.0
 34
0.0
  0
DIMENSION
  8
2D_DIM
  2
*D1
  3
ROUTEDIM
  1
76.82
 10
76.819683622449
 20
6.68275428571429
 30
0.0
 11
38.4098418112245
 21
6.68275428571429
 31
0.0
 13
0
 23
6.68275428571429
 14
76.819683622449
 24
6.68275428571429
 33
0.0
 34
0.0
53
90
  0
DIMENSION
  8
2D_DIM
  2
*D1
  3
ROUTEDIM
  1
6.683
 10
76.819683622449
 20
6.68275428571429
 30
0.0
 11
76.819683622449
 21
3.34137714285715
 31
0
 13
76.819683622449
 23
0
 14
76.819683622449
 24
6.68275428571429
 50
90.0
53
0
 33
0.0
 34
0.0
  0
DIMENSION
  8
2D_DIM
  2
*D1
  3
ROUTEDIM
  1
76.928
 10
76.9281657653062
 20
6.57427214285716
 30
0.0
 11
38.4640828826531
 21
6.57427214285716
 31
0.0
 13
0
 23
6.57427214285716
 14
76.9281657653062
 24
6.57427214285716
 33
0.0
 34
0.0
53
90
  0
DIMENSION
  8
2D_DIM
  2
*D1
  3
ROUTEDIM
  1
6.574
 10
76.9281657653062
 20
6.57427214285716
 30
0.0
 11
76.9281657653062
 21
3.28713607142858
 31
0
 13
76.9281657653062
 23
0
 14
76.9281657653062
 24
6.57427214285716
 50
90.0
53
0
 33
0.0
 34
0.0
  0
DIMENSION
  8
2D_DIM
  2
*D1
  3
ROUTEDIM
  1
77.037
 10
77.0366479081633
 20
6.68792010204082
 30
0.0
 11
38.5183239540817
 21
6.68792010204082
 31
0.0
 13
0
 23
6.68792010204082
 14
77.0366479081633
 24
6.68792010204082
 33
0.0
 34
0.0
53
90
  0
DIMENSION
  8
2D_DIM
  2
*D1
  3
ROUTEDIM
  1
6.688
 10
77.0366479081633
 20
6.68792010204082
 30
0.0
 11
77.0366479081633
 21
3.34396005102041
 31
0
 13
77.0366479081633
 23
0
 14
77.0366479081633
 24
6.68792010204082
 50
90.0
53
0
 33
0.0
 34
0.0
  0
DIMENSION
  8
2D_DIM
  2
*D1
  3
ROUTEDIM
  1
76.918
 10
76.9178341326531
 20
6.79640224489797
 30
0.0
 11
38.4589170663265
 21
6.79640224489797
 31
0.0
 13
0
 23
6.79640224489797
 14
76.9178341326531
 24
6.79640224489797
 33
0.0
 34
0.0
53
90
  0
DIMENSION
  8
2D_DIM
  2
*D1
  3
ROUTEDIM
  1
6.796
 10
76.9178341326531
 20
6.79640224489797
 30
0.0
 11
76.9178341326531
 21
3.39820112244898
 31
0
 13
76.9178341326531
 23
0
 14
76.9178341326531
 24
6.79640224489797
 50
90.0
53
0
 33
0.0
 34
0.0
  0
DIMENSION
  8
2D_DIM
  2
*D1
  3
ROUTEDIM
  1
76.809
 10
76.809351989796
 20
6.67242265306124
 30
0.0
 11
38.404675994898
 21
6.67242265306124
 31
0.0
 13
0
 23
6.67242265306124
 14
76.809351989796
 24
6.67242265306124
 33
0.0
 34
0.0
53
90
  0
DIMENSION
  8
2D_DIM
  2
*D1
  3
ROUTEDIM
  1
6.672
 10
76.809351989796
 20
6.67242265306124
 30
0.0
 11
76.809351989796
 21
3.33621132653062
 31
0
 13
76.809351989796
 23
0
 14
76.809351989796
 24
6.67242265306124
 50
90.0
53
0
 33
0.0
 34
0.0
  0
DIMENSION
  8
2D_DIM
  2
*D1
  3
ROUTEDIM
  1
76.938
 10
76.9384973979592
 20
6.56394051020409
 30
0.0
 11
38.4692486989796
 21
6.56394051020409
 31
0.0
 13
0
 23
6.56394051020409
 14
76.9384973979592
 24
6.56394051020409
 33
0.0
 34
0.0
53
90
  0
DIMENSION
  8
2D_DIM
  2
*D1
  3
ROUTEDIM
  1
6.564
 10
76.9384973979592
 20
6.56394051020409
 30
0.0
 11
76.9384973979592
 21
3.28197025510205
 31
0
 13
76.9384973979592
 23
0
 14
76.9384973979592
 24
6.56394051020409
 50
90.0
53
0
 33
0.0
 34
0.0
  0
DIMENSION
  8
2D_DIM
  2
*D1
  3
ROUTEDIM
  1
77.047
 10
77.0469795408164
 20
6.69825173469389
 30
0.0
 11
38.5234897704082
 21
6.69825173469389
 31
0.0
 13
0
 23
6.69825173469389
 14
77.0469795408164
 24
6.69825173469389
 33
0.0
 34
0.0
53
90
  0
DIMENSION
  8
2D_DIM
  2
*D1
  3
ROUTEDIM
  1
6.698
 10
77.0469795408164
 20
6.69825173469389
 30
0.0
 11
77.0469795408164
 21
3.34912586734694
 31
0
 13
77.0469795408164
 23
0
 14
77.0469795408164
 24
6.69825173469389
 50
90.0
53
0
 33
0.0
 34
0.0
  0
DIMENSION
  8
2D_DIM
  2
*D1
  3
ROUTEDIM
  1
76.908
 10
76.9075025
 20
6.80673387755103
 30
0.0
 11
38.45375125
 21
6.80673387755103
 31
0.0
 13
0
 23
6.80673387755103
 14
76.9075025
 24
6.80673387755103
 33
0.0
 34
0.0
53
90
  0
DIMENSION
  8
2D_DIM
  2
*D1
  3
ROUTEDIM
  1
6.807
 10
76.9075025
 20
6.80673387755103
 30
0.0
 11
76.9075025
 21
3.40336693877552
 31
0
 13
76.9075025
 23
0
 14
76.9075025
 24
6.80673387755103
 50
90.0
53
0
 33
0.0
 34
0.0
  0
DIMENSION
  8
2D_DIM
  2
*D1
  3
ROUTEDIM
  1
76.926
 10
76.9255828454236
 20
6.68275427399496
 30
0.0
 11
38.4627914227118
 21
6.68275427399496
 31
0.0
 13
0
 23
6.68275427399496
 14
76.9255828454236
 24
6.68275427399496
 33
0.0
 34
0.0
53
90
  0
DIMENSION
  8
2D_DIM
  2
*D1
  3
ROUTEDIM
  1
6.683
 10
76.9255828454236
 20
6.68275427399496
 30
0.0
 11
76.9255828454236
 21
3.34137713699748
 31
0
 13
76.9255828454236
 23
0
 14
76.9255828454236
 24
6.68275427399496
 50
90.0
53
0
 33
0.0
 34
0.0
  0
DIMENSION
  8
2D_DIM
  2
*D1
  3
ROUTEDIM
  1
76.926
 10
76.9255828688622
 20
6.68275427399496
 30
0.0
 11
38.4627914344311
 21
6.68275427399496
 31
0.0
 13
0
 23
6.68275427399496
 14
76.9255828688622
 24
6.68275427399496
 33
0.0
 34
0.0
53
90
  0
DIMENSION
  8
2D_DIM
  2
*D1
  3
ROUTEDIM
  1
6.683
 10
76.9255828688622
 20
6.68275427399496
 30
0.0
 11
76.9255828688622
 21
3.34137713699748
 31
0
 13
76.9255828688622
 23
0
 14
76.9255828688622
 24
6.68275427399496
 50
90.0
53
0
 33
0.0
 34
0.0
  0
DIMENSION
  8
2D_DIM
  2
*D1
  3
ROUTEDIM
  1
76.926
 10
76.9255828688622
 20
6.68275429743363
 30
0.0
 11
38.4627914344311
 21
6.68275429743363
 31
0.0
 13
0
 23
6.68275429743363
 14
76.9255828688622
 24
6.68275429743363
 33
0.0
 34
0.0
53
90
  0
DIMENSION
  8
2D_DIM
  2
*D1
  3
ROUTEDIM
  1
6.683
 10
76.9255828688622
 20
6.68275429743363
 30
0.0
 11
76.9255828688622
 21
3.34137714871681
 31
0
 13
76.9255828688622
 23
0
 14
76.9255828688622
 24
6.68275429743363
 50
90.0
53
0
 33
0.0
 34
0.0
  0
DIMENSION
  8
2D_DIM
  2
*D1
  3
ROUTEDIM
  1
76.926
 10
76.9255828454236
 20
6.68275429743363
 30
0.0
 11
38.4627914227118
 21
6.68275429743363
 31
0.0
 13
0
 23
6.68275429743363
 14
76.9255828454236
 24
6.68275429743363
 33
0.0
 34
0.0
53
90
  0
DIMENSION
  8
2D_DIM
  2
*D1
  3
ROUTEDIM
  1
6.683
 10
76.9255828454236
 20
6.68275429743363
 30
0.0
 11
76.9255828454236
 21
3.34137714871681
 31
0
 13
76.9255828454236
 23
0
 14
76.9255828454236
 24
6.68275429743363
 50
90.0
53
0
 33
0.0
 34
0.0
  0
DIMENSION
  8
2D_DIM
  2
*D1
  3
ROUTEDIM
  1
76.926
 10
76.9255828454236
 20
6.68275427399496
 30
0.0
 11
38.4627914227118
 21
6.68275427399496
 31
0.0
 13
0
 23
6.68275427399496
 14
76.9255828454236
 24
6.68275427399496
 33
0.0
 34
0.0
53
90
  0
DIMENSION
  8
2D_DIM
  2
*D1
  3
ROUTEDIM
  1
6.683
 10
76.9255828454236
 20
6.68275427399496
 30
0.0
 11
76.9255828454236
 21
3.34137713699748
 31
0
 13
76.9255828454236
 23
0
 14
76.9255828454236
 24
6.68275427399496
 50
90.0
53
0
 33
0.0
 34
0.0
  0
DIMENSION
  8
2D_DIM
  2
*D1
  3
ROUTEDIM
  1
76.977
 10
76.9772410321275
 20
6.73441243767882
 30
0.0
 11
38.4886205160638
 21
6.73441243767882
 31
0.0
 13
0
 23
6.73441243767882
 14
76.9772410321275
 24
6.73441243767882
 33
0.0
 34
0.0
53
90
  0
DIMENSION
  8
2D_DIM
  2
*D1
  3
ROUTEDIM
  1
6.734
 10
76.9772410321275
 20
6.73441243767882
 30
0.0
 11
76.9772410321275
 21
3.36720621883941
 31
0
 13
76.9772410321275
 23
0
 14
76.9772410321275
 24
6.73441243767882
 50
90.0
53
0
 33
0.0
 34
0.0
  0
DIMENSION
  8
2D_DIM
  2
*D1
  3
ROUTEDIM
  1
76.818
 10
76.8184399982638
 20
6.8970399982638
 30
0.0
 11
38.4092199991319
 21
6.8970399982638
 31
0.0
 13
0
 23
6.8970399982638
 14
76.8184399982638
 24
6.8970399982638
 33
0.0
 34
0.0
53
90
  0
DIMENSION
  8
2D_DIM
  2
*D1
  3
ROUTEDIM
  1
6.897
 10
76.8184399982638
 20
6.8970399982638
 30
0.0
 11
76.8184399982638
 21
3.4485199991319
 31
0
 13
76.8184399982638
 23
0
 14
76.8184399982638
 24
6.8970399982638
 50
90.0
53
0
 33
0.0
 34
0.0
  0
DIMENSION
  8
2D_DIM
  2
*D1
  3
ROUTEDIM
  1
76.818
 10
76.8184400017362
 20
6.8970399982638
 30
0.0
 11
38.4092200008681
 21
6.8970399982638
 31
0.0
 13
0
 23
6.8970399982638
 14
76.8184400017362
 24
6.8970399982638
 33
0.0
 34
0.0
53
90
  0
DIMENSION
  8
2D_DIM
  2
*D1
  3
ROUTEDIM
  1
6.897
 10
76.8184400017362
 20
6.8970399982638
 30
0.0
 11
76.8184400017362
 21
3.4485199991319
 31
0
 13
76.8184400017362
 23
0
 14
76.8184400017362
 24
6.8970399982638
 50
90.0
53
0
 33
0.0
 34
0.0
  0
DIMENSION
  8
2D_DIM
  2
*D1
  3
ROUTEDIM
  1
76.818
 10
76.8184400017362
 20
6.8970400017362
 30
0.0
 11
38.4092200008681
 21
6.8970400017362
 31
0.0
 13
0
 23
6.8970400017362
 14
76.8184400017362
 24
6.8970400017362
 33
0.0
 34
0.0
53
90
  0
DIMENSION
  8
2D_DIM
  2
*D1
  3
ROUTEDIM
  1
6.897
 10
76.8184400017362
 20
6.8970400017362
 30
0.0
 11
76.8184400017362
 21
3.4485200008681
 31
0
 13
76.8184400017362
 23
0
 14
76.8184400017362
 24
6.8970400017362
 50
90.0
53
0
 33
0.0
 34
0.0
  0
DIMENSION
  8
2D_DIM
  2
*D1
  3
ROUTEDIM
  1
76.851
 10
76.8505828554067
 20
6.92918285913948
 30
0.0
 11
38.4252914277033
 21
6.92918285913948
 31
0.0
 13
0
 23
6.92918285913948
 14
76.8505828554067
 24
6.92918285913948
 33
0.0
 34
0.0
53
90
  0
DIMENSION
  8
2D_DIM
  2
*D1
  3
ROUTEDIM
  1
6.929
 10
76.8505828554067
 20
6.92918285913948
 30
0.0
 11
76.8505828554067
 21
3.46459142956974
 31
0
 13
76.8505828554067
 23
0
 14
76.8505828554067
 24
6.92918285913948
 50
90.0
53
0
 33
0.0
 34
0.0
  0
DIMENSION
  8
2D_DIM
  2
*D1
  3
ROUTEDIM
  1
76.784
 10
76.7836185714286
 20
6.90614714285714
 30
0.0
 11
38.3918092857143
 21
6.90614714285714
 31
0.0
 13
0
 23
6.90614714285714
 14
76.7836185714286
 24
6.90614714285714
 33
0.0
 34
0.0
53
90
  0
DIMENSION
  8
2D_DIM
  2
*D1
  3
ROUTEDIM
  1
6.906
 10
76.7836185714286
 20
6.90614714285714
 30
0.0
 11
76.7836185714286
 21
3.45307357142857
 31
0
 13
76.7836185714286
 23
0
 14
76.7836185714286
 24
6.90614714285714
 50
90.0
53
0
 33
0.0
 34
0.0
  0
DIMENSION
  8
2D_DIM
  2
*D1
  3
ROUTEDIM
  1
76.778
 10
76.7782614285714
 20
6.82739714285714
 30
0.0
 11
38.3891307142857
 21
6.82739714285714
 31
0.0
 13
0
 23
6.82739714285714
 14
76.7782614285714
 24
6.82739714285714
 33
0.0
 34
0.0
53
90
  0
DIMENSION
  8
2D_DIM
  2
*D1
  3
ROUTEDIM
  1
6.827
 10
76.7782614285714
 20
6.82739714285714
 30
0.0
 11
76.7782614285714
 21
3.41369857142857
 31
0
 13
76.7782614285714
 23
0
 14
76.7782614285714
 24
6.82739714285714
 50
90.0
53
0
 33
0.0
 34
0.0
  0
DIMENSION
  8
2D_DIM
  2
*D1
  3
ROUTEDIM
  1
76.891
 10
76.8907614285714
 20
6.85953999999999
 30
0.0
 11
38.4453807142857
 21
6.85953999999999
 31
0.0
 13
0
 23
6.85953999999999
 14
76.8907614285714
 24
6.85953999999999
 33
0.0
 34
0.0
53
90
  0
DIMENSION
  8
2D_DIM
  2
*D1
  3
ROUTEDIM
  1
6.86
 10
76.8907614285714
 20
6.85953999999999
 30
0.0
 11
76.8907614285714
 21
3.42977
 31
0
 13
76.8907614285714
 23
0
 14
76.8907614285714
 24
6.85953999999999
 50
90.0
53
0
 33
0.0
 34
0.0
  0
DIMENSION
  8
2D_DIM
  2
*D1
  3
ROUTEDIM
  1
76.853
 10
76.8532614285714
 20
6.97204
 30
0.0
 11
38.4266307142857
 21
6.97204
 31
0.0
 13
0
 23
6.97204
 14
76.8532614285714
 24
6.97204
 33
0.0
 34
0.0
53
90
  0
DIMENSION
  8
2D_DIM
  2
*D1
  3
ROUTEDIM
  1
6.972
 10
76.8532614285714
 20
6.97204
 30
0.0
 11
76.8532614285714
 21
3.48602
 31
0
 13
76.8532614285714
 23
0
 14
76.8532614285714
 24
6.97204
 50
90.0
53
0
 33
0.0
 34
0.0
  0
DIMENSION
  8
2D_DIM
  2
*D1
  3
ROUTEDIM
  1
76.741
 10
76.7407614285714
 20
6.92918285714285
 30
0.0
 11
38.3703807142857
 21
6.92918285714285
 31
0.0
 13
0
 23
6.92918285714285
 14
76.7407614285714
 24
6.92918285714285
 33
0.0
 34
0.0
53
90
  0
DIMENSION
  8
2D_DIM
  2
*D1
  3
ROUTEDIM
  1
6.929
 10
76.7407614285714
 20
6.92918285714285
 30
0.0
 11
76.7407614285714
 21
3.46459142857143
 31
0
 13
76.7407614285714
 23
0
 14
76.7407614285714
 24
6.92918285714285
 50
90.0
53
0
 33
0.0
 34
0.0
  0
DIMENSION
  8
2D_DIM
  2
*D1
  3
ROUTEDIM
  1
76.789
 10
76.7889757142857
 20
6.81668285714286
 30
0.0
 11
38.3944878571428
 21
6.81668285714286
 31
0.0
 13
0
 23
6.81668285714286
 14
76.7889757142857
 24
6.81668285714286
 33
0.0
 34
0.0
53
90
  0
DIMENSION
  8
2D_DIM
  2
*D1
  3
ROUTEDIM
  1
6.817
 10
76.7889757142857
 20
6.81668285714286
 30
0.0
 11
76.7889757142857
 21
3.40834142857143
 31
0
 13
76.7889757142857
 23
0
 14
76.7889757142857
 24
6.81668285714286
 50
90.0
53
0
 33
0.0
 34
0.0
  0
DIMENSION
  8
2D_DIM
  2
*D1
  3
ROUTEDIM
  1
76.901
 10
76.9014757142857
 20
6.87025428571428
 30
0.0
 11
38.4507378571429
 21
6.87025428571428
 31
0.0
 13
0
 23
6.87025428571428
 14
76.9014757142857
 24
6.87025428571428
 33
0.0
 34
0.0
53
90
  0
DIMENSION
  8
2D_DIM
  2
*D1
  3
ROUTEDIM
  1
6.87
 10
76.9014757142857
 20
6.87025428571428
 30
0.0
 11
76.9014757142857
 21
3.43512714285714
 31
0
 13
76.9014757142857
 23
0
 14
76.9014757142857
 24
6.87025428571428
 50
90.0
53
0
 33
0.0
 34
0.0
  0
DIMENSION
  8
2D_DIM
  2
*D1
  3
ROUTEDIM
  1
76.843
 10
76.8425471428571
 20
6.98275428571429
 30
0.0
 11
38.4212735714286
 21
6.98275428571429
 31
0.0
 13
0
 23
6.98275428571429
 14
76.8425471428571
 24
6.98275428571429
 33
0.0
 34
0.0
53
90
  0
DIMENSION
  8
2D_DIM
  2
*D1
  3
ROUTEDIM
  1
6.983
 10
76.8425471428571
 20
6.98275428571429
 30
0.0
 11
76.8425471428571
 21
3.49137714285714
 31
0
 13
76.8425471428571
 23
0
 14
76.8425471428571
 24
6.98275428571429
 50
90.0
53
0
 33
0.0
 34
0.0
  0
DIMENSION
  8
2D_DIM
  2
*D1
  3
ROUTEDIM
  1
76.73
 10
76.7300471428571
 20
6.91846857142856
 30
0.0
 11
38.3650235714286
 21
6.91846857142856
 31
0.0
 13
0
 23
6.91846857142856
 14
76.7300471428571
 24
6.91846857142856
 33
0.0
 34
0.0
53
90
  0
DIMENSION
  8
2D_DIM
  2
*D1
  3
ROUTEDIM
  1
6.918
 10
76.7300471428571
 20
6.91846857142856
 30
0.0
 11
76.7300471428571
 21
3.45923428571428
 31
0
 13
76.7300471428571
 23
0
 14
76.7300471428571
 24
6.91846857142856
 50
90.0
53
0
 33
0.0
 34
0.0
  0
DIMENSION
  8
2D_DIM
  2
*D1
  3
ROUTEDIM
  1
76.8
 10
76.79969
 20
6.80596857142857
 30
0.0
 11
38.399845
 21
6.80596857142857
 31
0.0
 13
0
 23
6.80596857142857
 14
76.79969
 24
6.80596857142857
 33
0.0
 34
0.0
53
90
  0
DIMENSION
  8
2D_DIM
  2
*D1
  3
ROUTEDIM
  1
6.806
 10
76.79969
 20
6.80596857142857
 30
0.0
 11
76.79969
 21
3.40298428571428
 31
0
 13
76.79969
 23
0
 14
76.79969
 24
6.80596857142857
 50
90.0
53
0
 33
0.0
 34
0.0
  0
DIMENSION
  8
2D_DIM
  2
*D1
  3
ROUTEDIM
  1
76.912
 10
76.91219
 20
6.88096857142857
 30
0.0
 11
38.456095
 21
6.88096857142857
 31
0.0
 13
0
 23
6.88096857142857
 14
76.91219
 24
6.88096857142857
 33
0.0
 34
0.0
53
90
  0
DIMENSION
  8
2D_DIM
  2
*D1
  3
ROUTEDIM
  1
6.881
 10
76.91219
 20
6.88096857142857
 30
0.0
 11
76.91219
 21
3.44048428571428
 31
0
 13
76.91219
 23
0
 14
76.91219
 24
6.88096857142857
 50
90.0
53
0
 33
0.0
 34
0.0
  0
DIMENSION
  8
2D_DIM
  2
*D1
  3
ROUTEDIM
  1
76.832
 10
76.8318328571429
 20
6.99346857142857
 30
0.0
 11
38.4159164285714
 21
6.99346857142857
 31
0.0
 13
0
 23
6.99346857142857
 14
76.8318328571429
 24
6.99346857142857
 33
0.0
 34
0.0
53
90
  0
DIMENSION
  8
2D_DIM
  2
*D1
  3
ROUTEDIM
  1
6.993
 10
76.8318328571429
 20
6.99346857142857
 30
0.0
 11
76.8318328571429
 21
3.49673428571429
 31
0
 13
76.8318328571429
 23
0
 14
76.8318328571429
 24
6.99346857142857
 50
90.0
53
0
 33
0.0
 34
0.0
  0
DIMENSION
  8
2D_DIM
  2
*D1
  3
ROUTEDIM
  1
76.719
 10
76.7193328571429
 20
6.90775428571428
 30
0.0
 11
38.3596664285714
 21
6.90775428571428
 31
0.0
 13
0
 23
6.90775428571428
 14
76.7193328571429
 24
6.90775428571428
 33
0.0
 34
0.0
53
90
  0
DIMENSION
  8
2D_DIM
  2
*D1
  3
ROUTEDIM
  1
6.908
 10
76.7193328571429
 20
6.90775428571428
 30
0.0
 11
76.7193328571429
 21
3.45387714285714
 31
0
 13
76.7193328571429
 23
0
 14
76.7193328571429
 24
6.90775428571428
 50
90.0
53
0
 33
0.0
 34
0.0
  0
DIMENSION
  8
2D_DIM
  2
*D1
  3
ROUTEDIM
  1
76.81
 10
76.8104042857143
 20
6.79525428571429
 30
0.0
 11
38.4052021428571
 21
6.79525428571429
 31
0.0
 13
0
 23
6.79525428571429
 14
76.8104042857143
 24
6.79525428571429
 33
0.0
 34
0.0
53
90
  0
DIMENSION
  8
2D_DIM
  2
*D1
  3
ROUTEDIM
  1
6.795
 10
76.8104042857143
 20
6.79525428571429
 30
0.0
 11
76.8104042857143
 21
3.39762714285714
 31
0
 13
76.8104042857143
 23
0
 14
76.8104042857143
 24
6.79525428571429
 50
90.0
53
0
 33
0.0
 34
0.0
  0
DIMENSION
  8
2D_DIM
  2
*D1
  3
ROUTEDIM
  1
76.923
 10
76.9229042857143
 20
6.89168285714285
 30
0.0
 11
38.4614521428571
 21
6.89168285714285
 31
0.0
 13
0
 23
6.89168285714285
 14
76.9229042857143
 24
6.89168285714285
 33
0.0
 34
0.0
53
90
  0
DIMENSION
  8
2D_DIM
  2
*D1
  3
ROUTEDIM
  1
6.892
 10
76.9229042857143
 20
6.89168285714285
 30
0.0
 11
76.9229042857143
 21
3.44584142857142
 31
0
 13
76.9229042857143
 23
0
 14
76.9229042857143
 24
6.89168285714285
 50
90.0
53
0
 33
0.0
 34
0.0
  0
DIMENSION
  8
2D_DIM
  2
*D1
  3
ROUTEDIM
  1
76.821
 10
76.8211185714286
 20
7.00418285714285
 30
0.0
 11
38.4105592857143
 21
7.00418285714285
 31
0.0
 13
0
 23
7.00418285714285
 14
76.8211185714286
 24
7.00418285714285
 33
0.0
 34
0.0
53
90
  0
DIMENSION
  8
2D_DIM
  2
*D1
  3
ROUTEDIM
  1
7.004
 10
76.8211185714286
 20
7.00418285714285
 30
0.0
 11
76.8211185714286
 21
3.50209142857143
 31
0
 13
76.8211185714286
 23
0
 14
76.8211185714286
 24
7.00418285714285
 50
90.0
53
0
 33
0.0
 34
0.0
  0
DIMENSION
  8
2D_DIM
  2
*D1
  3
ROUTEDIM
  1
76.709
 10
76.7086185714286
 20
6.89704
 30
0.0
 11
38.3543092857143
 21
6.89704
 31
0.0
 13
0
 23
6.89704
 14
76.7086185714286
 24
6.89704
 33
0.0
 34
0.0
53
90
  0
DIMENSION
  8
2D_DIM
  2
*D1
  3
ROUTEDIM
  1
6.897
 10
76.7086185714286
 20
6.89704
 30
0.0
 11
76.7086185714286
 21
3.44852
 31
0
 13
76.7086185714286
 23
0
 14
76.7086185714286
 24
6.89704
 50
90.0
53
0
 33
0.0
 34
0.0
  0
DIMENSION
  8
2D_DIM
  2
*D1
  3
ROUTEDIM
  1
76.821
 10
76.8211185714286
 20
6.78454
 30
0.0
 11
38.4105592857143
 21
6.78454
 31
0.0
 13
0
 23
6.78454
 14
76.8211185714286
 24
6.78454
 33
0.0
 34
0.0
53
90
  0
DIMENSION
  8
2D_DIM
  2
*D1
  3
ROUTEDIM
  1
6.785
 10
76.8211185714286
 20
6.78454
 30
0.0
 11
76.8211185714286
 21
3.39227
 31
0
 13
76.8211185714286
 23
0
 14
76.8211185714286
 24
6.78454
 50
90.0
53
0
 33
0.0
 34
0.0
  0
DIMENSION
  8
2D_DIM
  2
*D1
  3
ROUTEDIM
  1
76.934
 10
76.9336185714286
 20
6.90239714285713
 30
0.0
 11
38.4668092857143
 21
6.90239714285713
 31
0.0
 13
0
 23
6.90239714285713
 14
76.9336185714286
 24
6.90239714285713
 33
0.0
 34
0.0
53
90
  0
DIMENSION
  8
2D_DIM
  2
*D1
  3
ROUTEDIM
  1
6.902
 10
76.9336185714286
 20
6.90239714285713
 30
0.0
 11
76.9336185714286
 21
3.45119857142857
 31
0
 13
76.9336185714286
 23
0
 14
76.9336185714286
 24
6.90239714285713
 50
90.0
53
0
 33
0.0
 34
0.0
  0
DIMENSION
  8
2D_DIM
  2
*D1
  3
ROUTEDIM
  1
76.81
 10
76.8104042857143
 20
7.01489714285714
 30
0.0
 11
38.4052021428571
 21
7.01489714285714
 31
0.0
 13
0
 23
7.01489714285714
 14
76.8104042857143
 24
7.01489714285714
 33
0.0
 34
0.0
53
90
  0
DIMENSION
  8
2D_DIM
  2
*D1
  3
ROUTEDIM
  1
7.015
 10
76.8104042857143
 20
7.01489714285714
 30
0.0
 11
76.8104042857143
 21
3.50744857142857
 31
0
 13
76.8104042857143
 23
0
 14
76.8104042857143
 24
7.01489714285714
 50
90.0
53
0
 33
0.0
 34
0.0
  0
DIMENSION
  8
2D_DIM
  2
*D1
  3
ROUTEDIM
  1
76.698
 10
76.6979042857143
 20
6.88632571428571
 30
0.0
 11
38.3489521428571
 21
6.88632571428571
 31
0.0
 13
0
 23
6.88632571428571
 14
76.6979042857143
 24
6.88632571428571
 33
0.0
 34
0.0
53
90
  0
DIMENSION
  8
2D_DIM
  2
*D1
  3
ROUTEDIM
  1
6.886
 10
76.6979042857143
 20
6.88632571428571
 30
0.0
 11
76.6979042857143
 21
3.44316285714286
 31
0
 13
76.6979042857143
 23
0
 14
76.6979042857143
 24
6.88632571428571
 50
90.0
53
0
 33
0.0
 34
0.0
  0
DIMENSION
  8
2D_DIM
  2
*D1
  3
ROUTEDIM
  1
76.832
 10
76.8318328571429
 20
6.77382571428571
 30
0.0
 11
38.4159164285714
 21
6.77382571428571
 31
0.0
 13
0
 23
6.77382571428571
 14
76.8318328571429
 24
6.77382571428571
 33
0.0
 34
0.0
53
90
  0
DIMENSION
  8
2D_DIM
  2
*D1
  3
ROUTEDIM
  1
6.774
 10
76.8318328571429
 20
6.77382571428571
 30
0.0
 11
76.8318328571429
 21
3.38691285714286
 31
0
 13
76.8318328571429
 23
0
 14
76.8318328571429
 24
6.77382571428571
 50
90.0
53
0
 33
0.0
 34
0.0
  0
DIMENSION
  8
2D_DIM
  2
*D1
  3
ROUTEDIM
  1
76.944
 10
76.9443328571429
 20
6.91311142857142
 30
0.0
 11
38.4721664285714
 21
6.91311142857142
 31
0.0
 13
0
 23
6.91311142857142
 14
76.9443328571429
 24
6.91311142857142
 33
0.0
 34
0.0
53
90
  0
DIMENSION
  8
2D_DIM
  2
*D1
  3
ROUTEDIM
  1
6.913
 10
76.9443328571429
 20
6.91311142857142
 30
0.0
 11
76.9443328571429
 21
3.45655571428571
 31
0
 13
76.9443328571429
 23
0
 14
76.9443328571429
 24
6.91311142857142
 50
90.0
53
0
 33
0.0
 34
0.0
  0
DIMENSION
  8
2D_DIM
  2
*D1
  3
ROUTEDIM
  1
76.8
 10
76.79969
 20
7.02561142857143
 30
0.0
 11
38.399845
 21
7.02561142857143
 31
0.0
 13
0
 23
7.02561142857143
 14
76.79969
 24
7.02561142857143
 33
0.0
 34
0.0
53
90
  0
DIMENSION
  8
2D_DIM
  2
*D1
  3
ROUTEDIM
  1
7.026
 10
76.79969
 20
7.02561142857143
 30
0.0
 11
76.79969
 21
3.51280571428571
 31
0
 13
76.79969
 23
0
 14
76.79969
 24
7.02561142857143
 50
90.0
53
0
 33
0.0
 34
0.0
  0
DIMENSION
  8
2D_DIM
  2
*D1
  3
ROUTEDIM
  1
76.818
 10
76.8184399878466
 20
6.89703998784662
 30
0.0
 11
38.4092199939233
 21
6.89703998784662
 31
0.0
 13
0
 23
6.89703998784662
 14
76.8184399878466
 24
6.89703998784662
 33
0.0
 34
0.0
53
90
  0
DIMENSION
  8
2D_DIM
  2
*D1
  3
ROUTEDIM
  1
6.897
 10
76.8184399878466
 20
6.89703998784662
 30
0.0
 11
76.8184399878466
 21
3.44851999392331
 31
0
 13
76.8184399878466
 23
0
 14
76.8184399878466
 24
6.89703998784662
 50
90.0
53
0
 33
0.0
 34
0.0
  0
DIMENSION
  8
2D_DIM
  2
*D1
  3
ROUTEDIM
  1
76.818
 10
76.8184400121534
 20
6.89703998784662
 30
0.0
 11
38.4092200060767
 21
6.89703998784662
 31
0.0
 13
0
 23
6.89703998784662
 14
76.8184400121534
 24
6.89703998784662
 33
0.0
 34
0.0
53
90
  0
DIMENSION
  8
2D_DIM
  2
*D1
  3
ROUTEDIM
  1
6.897
 10
76.8184400121534
 20
6.89703998784662
 30
0.0
 11
76.8184400121534
 21
3.44851999392331
 31
0
 13
76.8184400121534
 23
0
 14
76.8184400121534
 24
6.89703998784662
 50
90.0
53
0
 33
0.0
 34
0.0
  0
DIMENSION
  8
2D_DIM
  2
*D1
  3
ROUTEDIM
  1
76.818
 10
76.8184400121534
 20
6.89704001215338
 30
0.0
 11
38.4092200060767
 21
6.89704001215338
 31
0.0
 13
0
 23
6.89704001215338
 14
76.8184400121534
 24
6.89704001215338
 33
0.0
 34
0.0
53
90
  0
DIMENSION
  8
2D_DIM
  2
*D1
  3
ROUTEDIM
  1
6.897
 10
76.8184400121534
 20
6.89704001215338
 30
0.0
 11
76.8184400121534
 21
3.44852000607669
 31
0
 13
76.8184400121534
 23
0
 14
76.8184400121534
 24
6.89704001215338
 50
90.0
53
0
 33
0.0
 34
0.0
  0
DIMENSION
  8
2D_DIM
  2
*D1
  3
ROUTEDIM
  1
76.818
 10
76.8184399878466
 20
6.89704001215338
 30
0.0
 11
38.4092199939233
 21
6.89704001215338
 31
0.0
 13
0
 23
6.89704001215338
 14
76.8184399878466
 24
6.89704001215338
 33
0.0
 34
0.0
53
90
  0
DIMENSION
  8
2D_DIM
  2
*D1
  3
ROUTEDIM
  1
6.897
 10
76.8184399878466
 20
6.89704001215338
 30
0.0
 11
76.8184399878466
 21
3.44852000607669
 31
0
 13
76.8184399878466
 23
0
 14
76.8184399878466
 24
6.89704001215338
 50
90.0
53
0
 33
0.0
 34
0.0
  0
DIMENSION
  8
2D_DIM
  2
*D1
  3
ROUTEDIM
  1
76.818
 10
76.8184399878466
 20
6.89703998784662
 30
0.0
 11
38.4092199939233
 21
6.89703998784662
 31
0.0
 13
0
 23
6.89703998784662
 14
76.8184399878466
 24
6.89703998784662
 33
0.0
 34
0.0
53
90
  0
DIMENSION
  8
2D_DIM
  2
*D1
  3
ROUTEDIM
  1
6.897
 10
76.8184399878466
 20
6.89703998784662
 30
0.0
 11
76.8184399878466
 21
3.44851999392331
 31
0
 13
76.8184399878466
 23
0
 14
76.8184399878466
 24
6.89703998784662
 50
90.0
53
0
 33
0.0
 34
0.0
  0
DIMENSION
  8
2D_DIM
  2
*D1
  3
ROUTEDIM
  1
76.872
 10
76.8720114407248
 20
6.9506114168521
 30
0.0
 11
38.4360057203624
 21
6.9506114168521
 31
0.0
 13
0
 23
6.9506114168521
 14
76.8720114407248
 24
6.9506114168521
 33
0.0
 34
0.0
53
90
  0
DIMENSION
  8
2D_DIM
  2
*D1
  3
ROUTEDIM
  1
6.951
 10
76.8720114407248
 20
6.9506114168521
 30
0.0
 11
76.8720114407248
 21
3.47530570842605
 31
0
 13
76.8720114407248
 23
0
 14
76.8720114407248
 24
6.9506114168521
 50
90.0
53
0
 33
0.0
 34
0.0
  0
DIMENSION
  8
2D_DIM
  2
*D1
  3
ROUTEDIM
  1
77.381
 10
77.3809400000001
 20
6.89704
 30
0.0
 11
38.69047
 21
6.89704
 31
0.0
 13
0
 23
6.89704
 14
77.3809400000001
 24
6.89704
 33
0.0
 34
0.0
53
90
  0
DIMENSION
  8
2D_DIM
  2
*D1
  3
ROUTEDIM
  1
6.897
 10
77.3809400000001
 20
6.89704
 30
0.0
 11
77.3809400000001
 21
3.44852
 31
0
 13
77.3809400000001
 23
0
 14
77.3809400000001
 24
6.89704
 50
90.0
53
0
 33
0.0
 34
0.0
  0
TEXT
  8
ITEMNUMBER
 62
     1
 10
-7.5
 20
-5
 30
0.0
 40
0.5
  1
M3100.01
  0
TEXT
  8
DESCRIPTION
 62
     1
 10
-7.5
 20
-6
 30
0.0
 40
0.5
  1
P1B
  0
TEXT
  8
FILENAME
 62
     1
 10
-7.5
 20
-7
 30
0.0
 40
0.5
  1
5600ACZE
  0
TEXT
  8
MATERIALNAME
 62
     1
 10
-7.5
 20
-8
 30
0.0
 40
0.5
  1
MDF/3-4/NAF/4x8
  0
TEXT
  8
Qty
 62
     1
 10
-7.5
 20
-9
 30
0.0
 40
0.5
  1
1
  0
TEXT
  8
COMMENT
 62
     1
 10
-7.5
 20
-9
 30
0.0
 40
0.5
  1
A machining operation has been identified but none of the SMA Routers in your Primary ToolFile have a qualifying diameter   
  0
TEXT
  8
RUNFIELD
 62
     1
 10
8
 20
-1
 30
0.0
 40
0.5
  1
Mirrored
  0
ENDSEC
  0
EOF
