  0
SECTION
  2
TABLES
  0
TABLE
  2
DIMSTYLE
 70
     2
  0
DIMSTYLE
  2
BOARDERDIM
 70
     0
  3

  4

  5
_NONE
  6
_NONE
  7
_NONE
 40
1
 41
0.1
 42
0.0625
 43
0.38
 44
0.18
 45
0.00
 46
0.0
 47
0.0
 48
0.0
140
0.5
141
0.09
142
0.0
143
25.399999999999999
144
1.0
145
0.5
146
1.0
147
0.09
 71
     1
 72
     0
 73
     1
 74
     0
 75
     0
 76
     0
 77
     2
 78
     0
170
     0
171
     2
172
     0
173
     0
174
     1
175
      0
176
5
177
5
178
     1
271
3
272
3
  0
ENDTAB
  0
TABLE
  2
DIMSTYLE
 70
     2
  0
DIMSTYLE
  2
VDRILLDIM
 70
     0
  3

  4

  5
_NONE
  6
_NONE
  7
_NONE
 40
1
 41
0.1
 42
0.0625
 43
0.38
 44
0.18
 45
0.00
 46
0.0
 47
0.0
 48
0.0
140
0.5
141
0.09
142
0.0
143
25.399999999999999
144
1.0
145
0.5
146
1.0
147
0.09
 71
     1
 72
     0
 73
     1
 74
     0
 75
     0
 76
     0
 77
     2
 78
     0
170
     0
171
     2
172
     0
173
     0
174
     1
175
      0
176
5
177
5
178
     1
271
3
272
3
  0
ENDTAB
  0
TABLE
  2
DIMSTYLE
 70
     2
  0
DIMSTYLE
  2
HDRILLDIM
 70
     0
  3

  4

  5
_NONE
  6
_NONE
  7
_NONE
 40
1
 41
0.1
 42
0.0625
 43
0.38
 44
0.18
 45
0.00
 46
0.0
 47
0.0
 48
0.0
140
0.5
141
0.09
142
0.0
143
25.399999999999999
144
1.0
145
0.5
146
1.0
147
0.09
 71
     1
 72
     0
 73
     1
 74
     0
 75
     0
 76
     0
 77
     2
 78
     0
170
     0
171
     2
172
     0
173
     0
174
     1
175
      0
176
5
177
5
178
     1
271
3
272
3
  0
ENDTAB
  0
TABLE
  2
DIMSTYLE
 70
     2
  0
DIMSTYLE
  2
ROUTEDIM
 70
     0
  3

  4

  5
_NONE
  6
_NONE
  7
_NONE
 40
1
 41
0.1
 42
0.0625
 43
0.38
 44
0.18
 45
0.00
 46
0.0
 47
0.0
 48
0.0
140
0.5
141
0.09
142
0.0
143
25.399999999999999
144
1.0
145
0.5
146
1.0
147
0.09
 71
     1
 72
     0
 73
     1
 74
     0
 75
     0
 76
     0
 77
     2
 78
     0
170
     0
171
     2
172
     0
173
     0
174
     1
175
      0
176
5
177
5
178
     1
271
3
272
3
  0
ENDTAB
  0
TABLE
  2
DIMSTYLE
 70
     2
  0
DIMSTYLE
  2
SAWDIM
 70
     0
  3

  4

  5
_NONE
  6
_NONE
  7
_NONE
 40
1
 41
0.1
 42
0.0625
 43
0.38
 44
0.18
 45
0.00
 46
0.0
 47
0.0
 48
0.0
140
0.5
141
0.09
142
0.0
143
25.399999999999999
144
1.0
145
0.5
146
1.0
147
0.09
 71
     1
 72
     0
 73
     1
 74
     0
 75
     0
 76
     0
 77
     2
 78
     0
170
     0
171
     2
172
     0
173
     0
174
     1
175
      0
176
5
177
5
178
     1
271
3
272
3
  0
ENDTAB
  0
TABLE
  2
VPORT
 70
     1
  0
VPORT
  2
*ACTIVE
 70
     0
 10
0.0
 20
0.0
 11
1.0
 21
1.0
 12
0.0
 22
0.0
 13
0.0
 23
0.0
 14
1.0
 24
1.0
 15
0.0
 25
0.0
 16
0.0
 26
0.0
 36
1.0
 17
0.0
 27
0.0
 37
0.0
 40
84
 41
2.0
 42
50.0
 43
0.0
 44
0.0
 50
0.0
 51
0.0
 71
     0
 72
   100
 73
     1
 74
     0
 75
     1
 76
     0
 77
     0
 78
     0
  0
ENDTAB
  0
ENDSEC
  0
SECTION
  2
ENTITIES
  0
POLYLINE
  8
BORDER_Z0P74
 62
     7
 66
     1
 10
0.0
 20
0.0
 30
0.0
 70
     1
  0
VERTEX
  8
BORDER_Z0P74
 62
     7
 10
0.0
 20
0.0
 30
0.0
  0
VERTEX
  8
BORDER_Z0P74
 62
     7
 10
0.0
 20
11.0013
 30
0.0
  0
VERTEX
  8
BORDER_Z0P74
 62
     7
 10
18.2198
 20
11.0013
 30
0.0
  0
VERTEX
  8
BORDER_Z0P74
 62
     7
 10
18.2198
 20
0.0
 30
0.0
  0
SEQEND
  8
BORDER_Z0P74
 62
     7
  0
POLYLINE
  8
ROUTE_Z0P75LT130RAMP
 62
     3
 66
     1
 10
0.0
 20
0.0
 30
0.0
 70
     0
  0
VERTEX
  8
ROUTE_Z0P75LT130RAMP
 62
     3
 10
18.694772
 20
11.008191
 30
0.0
  0
VERTEX
  8
ROUTE_Z0P75LT130RAMP
 62
     3
 10
18.319839
 20
11.001122
 30
0.0
 42
0.135318452040229
  0
VERTEX
  8
ROUTE_Z0P75LT130RAMP
 62
     3
 10
3.925831
 20
7.088047
 30
0.0
 42
0.218665159532704
  0
VERTEX
  8
ROUTE_Z0P75LT130RAMP
 62
     3
 10
-0.007518
 20
-0.0997029999999999
 30
0.0
  0
VERTEX
  8
ROUTE_Z0P75LT130RAMP
 62
     3
 10
-0.047209
 20
-0.472595999999999
 30
0.0
  0
SEQEND
  8
ROUTE_Z0P75LT130RAMP
 62
     3
  0
DIMENSION
  8
2D_DIM
  2
*D1
  3
BOARDERDIM
  1
18.22
 10
18.2198
 20
16.0013
 30
0.0
 11
9.1099
 21
16.0013
 31
0.0
 13
0
 23
11.0013
 14
18.2198
 24
11.0013
 33
0.0
 34
0.0
53
0
  0
DIMENSION
  8
2D_DIM
  2
*D1
  3
BOARDERDIM
  1
11.001
 10
-5
 20
11.0013
 30
0.0
 11
-5
 21
5.50065
 31
0
 13
0.0
 23
0
 14
0.0
 24
11.0013
 50
90.0
53
0
 33
0.0
 34
0.0
  0
DIMENSION
  8
2D_DIM
  2
*D1
  3
ROUTEDIM
  1
-0.047
 10
-0.047209
 20
13.5013
 30
0.0
 11
-0.0236045
 21
13.5013
 31
0.0
 13
0
 23
11.0013
 14
-0.047209
 24
11.0013
 33
0.0
 34
0.0
53
90
  0
DIMENSION
  8
2D_DIM
  2
*D1
  3
ROUTEDIM
  1
0.04
 10
-0.007518
 20
13.5013
 30
0.0
 11
-0.003759
 21
13.5013
 31
0.0
 13
-0.047209
 23
11.0013
 14
-0.007518
 24
11.0013
 33
0.0
 34
0.0
53
90
  0
DIMENSION
  8
2D_DIM
  2
*D1
  3
ROUTEDIM
  1
3.933
 10
3.925831
 20
13.5013
 30
0.0
 11
1.9629155
 21
13.5013
 31
0.0
 13
-0.007518
 23
11.0013
 14
3.925831
 24
11.0013
 33
0.0
 34
0.0
53
90
  0
DIMENSION
  8
2D_DIM
  2
*D1
  3
ROUTEDIM
  1
14.394
 10
18.319839
 20
13.5013
 30
0.0
 11
9.1599195
 21
13.5013
 31
0.0
 13
3.925831
 23
11.0013
 14
18.319839
 24
11.0013
 33
0.0
 34
0.0
53
90
  0
DIMENSION
  8
2D_DIM
  2
*D1
  3
ROUTEDIM
  1
0.375
 10
18.694772
 20
13.5013
 30
0.0
 11
9.347386
 21
13.5013
 31
0.0
 13
18.319839
 23
11.0013
 14
18.694772
 24
11.0013
 33
0.0
 34
0.0
53
90
  0
DIMENSION
  8
2D_DIM
  2
*D1
  3
ROUTEDIM
  1
-0.475
 10
18.2198
 20
13.5013
 30
0.0
 11
9.1099
 21
13.5013
 31
0.0
 13
18.694772
 23
11.0013
 14
18.2198
 24
11.0013
 33
0.0
 34
0.0
53
90
  0
DIMENSION
  8
2D_DIM
  2
*D1
  3
ROUTEDIM
  1
0.473
 10
-2.5
 20
-0.472595999999999
 30
0.0
 11
-2.5
 21
-0.236298
 31
0
 13
0.0
 23
0
 14
0.0
 24
-0.472595999999999
 50
90.0
53
0
 33
0.0
 34
0.0
  0
DIMENSION
  8
2D_DIM
  2
*D1
  3
ROUTEDIM
  1
0.373
 10
-2.5
 20
-0.0997029999999999
 30
0.0
 11
-2.5
 21
-0.0498515
 31
0
 13
0.0
 23
-0.472595999999999
 14
0.0
 24
-0.0997029999999999
 50
90.0
53
0
 33
0.0
 34
0.0
  0
DIMENSION
  8
2D_DIM
  2
*D1
  3
ROUTEDIM
  1
7.188
 10
-2.5
 20
7.088047
 30
0.0
 11
-2.5
 21
3.5440235
 31
0
 13
0.0
 23
-0.0997029999999999
 14
0.0
 24
7.088047
 50
90.0
53
0
 33
0.0
 34
0.0
  0
DIMENSION
  8
2D_DIM
  2
*D1
  3
ROUTEDIM
  1
3.913
 10
-2.5
 20
11.001122
 30
0.0
 11
-2.5
 21
5.500561
 31
0
 13
0.0
 23
7.088047
 14
0.0
 24
11.001122
 50
90.0
53
0
 33
0.0
 34
0.0
  0
DIMENSION
  8
2D_DIM
  2
*D1
  3
ROUTEDIM
  1
0.007
 10
-2.5
 20
11.008191
 30
0.0
 11
-2.5
 21
5.5040955
 31
0
 13
0.0
 23
11.001122
 14
0.0
 24
11.008191
 50
90.0
53
0
 33
0.0
 34
0.0
  0
DIMENSION
  8
2D_DIM
  2
*D1
  3
ROUTEDIM
  1
0.007
 10
-2.5
 20
11.0013
 30
0.0
 11
-2.5
 21
5.50065
 31
0
 13
0.0
 23
11.008191
 14
0.0
 24
11.0013
 50
90.0
53
0
 33
0.0
 34
0.0
  0
DIMENSION
  8
2D_DIM
  2
*D1
  3
ROUTEDIM
  1
18.22
 10
18.2198389546745
 20
-17.0613121924007
 30
0.0
 11
9.10991947733723
 21
-17.0613121924007
 31
0.0
 13
0
 23
-17.0613121924007
 14
18.2198389546745
 24
-17.0613121924007
 33
0.0
 34
0.0
53
90
  0
DIMENSION
  8
2D_DIM
  2
*D1
  3
ROUTEDIM
  1
17.061
 10
18.2198389546745
 20
-17.0613121924007
 30
0.0
 11
18.2198389546745
 21
-8.53065609620036
 31
0
 13
18.2198389546745
 23
0
 14
18.2198389546745
 24
-17.0613121924007
 50
90.0
53
0
 33
0.0
 34
0.0
  0
DIMENSION
  8
2D_DIM
  2
*D1
  3
ROUTEDIM
  1
9.784
 10
9.78398749652231
 20
-0.787806529489766
 30
0.0
 11
4.89199374826116
 21
-0.787806529489766
 31
0.0
 13
0
 23
-0.787806529489766
 14
9.78398749652231
 24
-0.787806529489766
 33
0.0
 34
0.0
53
90
  0
DIMENSION
  8
2D_DIM
  2
*D1
  3
ROUTEDIM
  1
0.788
 10
9.78398749652231
 20
-0.787806529489766
 30
0.0
 11
9.78398749652231
 21
-0.393903264744883
 31
0
 13
9.78398749652231
 23
0
 14
9.78398749652231
 24
-0.787806529489766
 50
90.0
53
0
 33
0.0
 34
0.0
  0
TEXT
  8
ITEMNUMBER
 62
     1
 10
-7.5
 20
-5
 30
0.0
 40
0.5
  1
M3100.02
  0
TEXT
  8
DESCRIPTION
 62
     1
 10
-7.5
 20
-6
 30
0.0
 40
0.5
  1
seat Stud
  0
TEXT
  8
FILENAME
 62
     1
 10
-7.5
 20
-7
 30
0.0
 40
0.5
  1
5600AD7Q
  0
TEXT
  8
MATERIALNAME
 62
     1
 10
-7.5
 20
-8
 30
0.0
 40
0.5
  1
PLY/3-4OSB/NAF/4x8
  0
TEXT
  8
Qty
 62
     1
 10
-7.5
 20
-9
 30
0.0
 40
0.5
  1
1
  0
TEXT
  8
RUNFIELD
 62
     1
 10
8
 20
-1
 30
0.0
 40
0.5
  1
Mirrored
  0
ENDSEC
  0
EOF
