  0
SECTION
  2
TABLES
  0
TABLE
  2
DIMSTYLE
 70
     2
  0
DIMSTYLE
  2
BOARDERDIM
 70
     0
  3

  4

  5
_NONE
  6
_NONE
  7
_NONE
 40
1
 41
0.1
 42
0.0625
 43
0.38
 44
0.18
 45
0.00
 46
0.0
 47
0.0
 48
0.0
140
0.5
141
0.09
142
0.0
143
25.399999999999999
144
1.0
145
0.5
146
1.0
147
0.09
 71
     1
 72
     0
 73
     1
 74
     0
 75
     0
 76
     0
 77
     2
 78
     0
170
     0
171
     2
172
     0
173
     0
174
     1
175
      0
176
5
177
5
178
     1
271
3
272
3
  0
ENDTAB
  0
TABLE
  2
DIMSTYLE
 70
     2
  0
DIMSTYLE
  2
VDRILLDIM
 70
     0
  3

  4

  5
_NONE
  6
_NONE
  7
_NONE
 40
1
 41
0.1
 42
0.0625
 43
0.38
 44
0.18
 45
0.00
 46
0.0
 47
0.0
 48
0.0
140
0.5
141
0.09
142
0.0
143
25.399999999999999
144
1.0
145
0.5
146
1.0
147
0.09
 71
     1
 72
     0
 73
     1
 74
     0
 75
     0
 76
     0
 77
     2
 78
     0
170
     0
171
     2
172
     0
173
     0
174
     1
175
      0
176
5
177
5
178
     1
271
3
272
3
  0
ENDTAB
  0
TABLE
  2
DIMSTYLE
 70
     2
  0
DIMSTYLE
  2
HDRILLDIM
 70
     0
  3

  4

  5
_NONE
  6
_NONE
  7
_NONE
 40
1
 41
0.1
 42
0.0625
 43
0.38
 44
0.18
 45
0.00
 46
0.0
 47
0.0
 48
0.0
140
0.5
141
0.09
142
0.0
143
25.399999999999999
144
1.0
145
0.5
146
1.0
147
0.09
 71
     1
 72
     0
 73
     1
 74
     0
 75
     0
 76
     0
 77
     2
 78
     0
170
     0
171
     2
172
     0
173
     0
174
     1
175
      0
176
5
177
5
178
     1
271
3
272
3
  0
ENDTAB
  0
TABLE
  2
DIMSTYLE
 70
     2
  0
DIMSTYLE
  2
ROUTEDIM
 70
     0
  3

  4

  5
_NONE
  6
_NONE
  7
_NONE
 40
1
 41
0.1
 42
0.0625
 43
0.38
 44
0.18
 45
0.00
 46
0.0
 47
0.0
 48
0.0
140
0.5
141
0.09
142
0.0
143
25.399999999999999
144
1.0
145
0.5
146
1.0
147
0.09
 71
     1
 72
     0
 73
     1
 74
     0
 75
     0
 76
     0
 77
     2
 78
     0
170
     0
171
     2
172
     0
173
     0
174
     1
175
      0
176
5
177
5
178
     1
271
3
272
3
  0
ENDTAB
  0
TABLE
  2
DIMSTYLE
 70
     2
  0
DIMSTYLE
  2
SAWDIM
 70
     0
  3

  4

  5
_NONE
  6
_NONE
  7
_NONE
 40
1
 41
0.1
 42
0.0625
 43
0.38
 44
0.18
 45
0.00
 46
0.0
 47
0.0
 48
0.0
140
0.5
141
0.09
142
0.0
143
25.399999999999999
144
1.0
145
0.5
146
1.0
147
0.09
 71
     1
 72
     0
 73
     1
 74
     0
 75
     0
 76
     0
 77
     2
 78
     0
170
     0
171
     2
172
     0
173
     0
174
     1
175
      0
176
5
177
5
178
     1
271
3
272
3
  0
ENDTAB
  0
TABLE
  2
VPORT
 70
     1
  0
VPORT
  2
*ACTIVE
 70
     0
 10
0.0
 20
0.0
 11
1.0
 21
1.0
 12
0.0
 22
0.0
 13
0.0
 23
0.0
 14
1.0
 24
1.0
 15
0.0
 25
0.0
 16
0.0
 26
0.0
 36
1.0
 17
0.0
 27
0.0
 37
0.0
 40
84
 41
2.0
 42
50.0
 43
0.0
 44
0.0
 50
0.0
 51
0.0
 71
     0
 72
   100
 73
     1
 74
     0
 75
     1
 76
     0
 77
     0
 78
     0
  0
ENDTAB
  0
ENDSEC
  0
SECTION
  2
ENTITIES
  0
POLYLINE
  8
BORDER_Z0P74
 62
     7
 66
     1
 10
0.0
 20
0.0
 30
0.0
 70
     1
  0
VERTEX
  8
BORDER_Z0P74
 62
     7
 10
0.0
 20
0.0
 30
0.0
  0
VERTEX
  8
BORDER_Z0P74
 62
     7
 10
0.0
 20
25.5281
 30
0.0
  0
VERTEX
  8
BORDER_Z0P74
 62
     7
 10
47.6832
 20
25.5281
 30
0.0
  0
VERTEX
  8
BORDER_Z0P74
 62
     7
 10
47.6832
 20
0.0
 30
0.0
  0
SEQEND
  8
BORDER_Z0P74
 62
     7
  0
POLYLINE
  8
ROUTE_Z0P75LT130RAMP
 62
     3
 66
     1
 10
0.0
 20
0.0
 30
0.0
 70
     0
  0
VERTEX
  8
ROUTE_Z0P75LT130RAMP
 62
     3
 10
47.690105
 20
-0.474942000000002
 30
0.0
  0
VERTEX
  8
ROUTE_Z0P75LT130RAMP
 62
     3
 10
47.683035
 20
-0.100009
 30
0.0
 42
0.135318452040209
  0
VERTEX
  8
ROUTE_Z0P75LT130RAMP
 62
     3
 10
43.76996
 20
14.293999
 30
0.0
 42
0.215997906071799
  0
VERTEX
  8
ROUTE_Z0P75LT130RAMP
 62
     3
 10
36.681927
 20
18.21983
 30
0.0
  0
VERTEX
  8
ROUTE_Z0P75LT130RAMP
 62
     3
 10
-0.1
 20
18.21983
 30
0.0
  0
VERTEX
  8
ROUTE_Z0P75LT130RAMP
 62
     3
 10
-0.475
 20
18.21983
 30
0.0
  0
SEQEND
  8
ROUTE_Z0P75LT130RAMP
 62
     3
  0
DIMENSION
  8
2D_DIM
  2
*D1
  3
BOARDERDIM
  1
47.683
 10
47.6832
 20
30.5281
 30
0.0
 11
23.8416
 21
30.5281
 31
0.0
 13
0
 23
25.5281
 14
47.6832
 24
25.5281
 33
0.0
 34
0.0
53
0
  0
DIMENSION
  8
2D_DIM
  2
*D1
  3
BOARDERDIM
  1
25.528
 10
-5
 20
25.5281
 30
0.0
 11
-5
 21
12.76405
 31
0
 13
0.0
 23
0
 14
0.0
 24
25.5281
 50
90.0
53
0
 33
0.0
 34
0.0
  0
DIMENSION
  8
2D_DIM
  2
*D1
  3
ROUTEDIM
  1
-0.475
 10
-0.475
 20
28.0281
 30
0.0
 11
-0.2375
 21
28.0281
 31
0.0
 13
0
 23
25.5281
 14
-0.475
 24
25.5281
 33
0.0
 34
0.0
53
90
  0
DIMENSION
  8
2D_DIM
  2
*D1
  3
ROUTEDIM
  1
0.375
 10
-0.1
 20
28.0281
 30
0.0
 11
-0.05
 21
28.0281
 31
0.0
 13
-0.475
 23
25.5281
 14
-0.1
 24
25.5281
 33
0.0
 34
0.0
53
90
  0
DIMENSION
  8
2D_DIM
  2
*D1
  3
ROUTEDIM
  1
36.782
 10
36.681927
 20
28.0281
 30
0.0
 11
18.3409635
 21
28.0281
 31
0.0
 13
-0.1
 23
25.5281
 14
36.681927
 24
25.5281
 33
0.0
 34
0.0
53
90
  0
DIMENSION
  8
2D_DIM
  2
*D1
  3
ROUTEDIM
  1
7.088
 10
43.76996
 20
28.0281
 30
0.0
 11
21.88498
 21
28.0281
 31
0.0
 13
36.681927
 23
25.5281
 14
43.76996
 24
25.5281
 33
0.0
 34
0.0
53
90
  0
DIMENSION
  8
2D_DIM
  2
*D1
  3
ROUTEDIM
  1
3.913
 10
47.683035
 20
28.0281
 30
0.0
 11
23.8415175
 21
28.0281
 31
0.0
 13
43.76996
 23
25.5281
 14
47.683035
 24
25.5281
 33
0.0
 34
0.0
53
90
  0
DIMENSION
  8
2D_DIM
  2
*D1
  3
ROUTEDIM
  1
0.007
 10
47.690105
 20
28.0281
 30
0.0
 11
23.8450525
 21
28.0281
 31
0.0
 13
47.683035
 23
25.5281
 14
47.690105
 24
25.5281
 33
0.0
 34
0.0
53
90
  0
DIMENSION
  8
2D_DIM
  2
*D1
  3
ROUTEDIM
  1
-0.007
 10
47.6832
 20
28.0281
 30
0.0
 11
23.8416
 21
28.0281
 31
0.0
 13
47.690105
 23
25.5281
 14
47.6832
 24
25.5281
 33
0.0
 34
0.0
53
90
  0
DIMENSION
  8
2D_DIM
  2
*D1
  3
ROUTEDIM
  1
0.475
 10
-2.5
 20
-0.474942000000002
 30
0.0
 11
-2.5
 21
-0.237471000000001
 31
0
 13
0.0
 23
0
 14
0.0
 24
-0.474942000000002
 50
90.0
53
0
 33
0.0
 34
0.0
  0
DIMENSION
  8
2D_DIM
  2
*D1
  3
ROUTEDIM
  1
0.375
 10
-2.5
 20
-0.100009
 30
0.0
 11
-2.5
 21
-0.0500045
 31
0
 13
0.0
 23
-0.474942000000002
 14
0.0
 24
-0.100009
 50
90.0
53
0
 33
0.0
 34
0.0
  0
DIMENSION
  8
2D_DIM
  2
*D1
  3
ROUTEDIM
  1
14.394
 10
-2.5
 20
14.293999
 30
0.0
 11
-2.5
 21
7.1469995
 31
0
 13
0.0
 23
-0.100009
 14
0.0
 24
14.293999
 50
90.0
53
0
 33
0.0
 34
0.0
  0
DIMENSION
  8
2D_DIM
  2
*D1
  3
ROUTEDIM
  1
3.926
 10
-2.5
 20
18.21983
 30
0.0
 11
-2.5
 21
9.109915
 31
0
 13
0.0
 23
14.293999
 14
0.0
 24
18.21983
 50
90.0
53
0
 33
0.0
 34
0.0
  0
DIMENSION
  8
2D_DIM
  2
*D1
  3
ROUTEDIM
  1
7.308
 10
-2.5
 20
25.5281
 30
0.0
 11
-2.5
 21
12.76405
 31
0
 13
0.0
 23
18.21983
 14
0.0
 24
25.5281
 50
90.0
53
0
 33
0.0
 34
0.0
  0
DIMENSION
  8
2D_DIM
  2
*D1
  3
ROUTEDIM
  1
19.621
 10
19.6206008075952
 20
-8.95467556816243E-06
 30
0.0
 11
9.81030040379761
 21
-8.95467556816243E-06
 31
0.0
 13
0
 23
-8.95467556816243E-06
 14
19.6206008075952
 24
-8.95467556816243E-06
 33
0.0
 34
0.0
53
90
  0
DIMENSION
  8
2D_DIM
  2
*D1
  3
ROUTEDIM
  1
0
 10
19.6206008075952
 20
-8.95467556816243E-06
 30
0.0
 11
19.6206008075952
 21
-4.47733778408121E-06
 31
0
 13
19.6206008075952
 23
0
 14
19.6206008075952
 24
-8.95467556816243E-06
 50
90.0
53
0
 33
0.0
 34
0.0
  0
DIMENSION
  8
2D_DIM
  2
*D1
  3
ROUTEDIM
  1
35.894
 10
35.8941063908719
 20
8.43584314462971
 30
0.0
 11
17.9470531954359
 21
8.43584314462971
 31
0.0
 13
0
 23
8.43584314462971
 14
35.8941063908719
 24
8.43584314462971
 33
0.0
 34
0.0
53
90
  0
DIMENSION
  8
2D_DIM
  2
*D1
  3
ROUTEDIM
  1
8.436
 10
35.8941063908719
 20
8.43584314462971
 30
0.0
 11
35.8941063908719
 21
4.21792157231486
 31
0
 13
35.8941063908719
 23
0
 14
35.8941063908719
 24
8.43584314462971
 50
90.0
53
0
 33
0.0
 34
0.0
  0
TEXT
  8
ITEMNUMBER
 62
     1
 10
-7.5
 20
-5
 30
0.0
 40
0.5
  1
M3100.02
  0
TEXT
  8
DESCRIPTION
 62
     1
 10
-7.5
 20
-6
 30
0.0
 40
0.5
  1
subpanel
  0
TEXT
  8
FILENAME
 62
     1
 10
-7.5
 20
-7
 30
0.0
 40
0.5
  1
5600AD5Q
  0
TEXT
  8
MATERIALNAME
 62
     1
 10
-7.5
 20
-8
 30
0.0
 40
0.5
  1
PLY/3-4OSB/NAF/4x8
  0
TEXT
  8
Qty
 62
     1
 10
-7.5
 20
-9
 30
0.0
 40
0.5
  1
1
  0
TEXT
  8
RUNFIELD
 62
     1
 10
8
 20
-1
 30
0.0
 40
0.5
  1
Mirrored
  0
ENDSEC
  0
EOF
