  0
SECTION
  2
TABLES
  0
TABLE
  2
DIMSTYLE
 70
     2
  0
DIMSTYLE
  2
BOARDERDIM
 70
     0
  3

  4

  5
_NONE
  6
_NONE
  7
_NONE
 40
1
 41
0.1
 42
0.0625
 43
0.38
 44
0.18
 45
0.00
 46
0.0
 47
0.0
 48
0.0
140
0.5
141
0.09
142
0.0
143
25.399999999999999
144
1.0
145
0.5
146
1.0
147
0.09
 71
     1
 72
     0
 73
     1
 74
     0
 75
     0
 76
     0
 77
     2
 78
     0
170
     0
171
     2
172
     0
173
     0
174
     1
175
      0
176
5
177
5
178
     1
271
3
272
3
  0
ENDTAB
  0
TABLE
  2
DIMSTYLE
 70
     2
  0
DIMSTYLE
  2
VDRILLDIM
 70
     0
  3

  4

  5
_NONE
  6
_NONE
  7
_NONE
 40
1
 41
0.1
 42
0.0625
 43
0.38
 44
0.18
 45
0.00
 46
0.0
 47
0.0
 48
0.0
140
0.5
141
0.09
142
0.0
143
25.399999999999999
144
1.0
145
0.5
146
1.0
147
0.09
 71
     1
 72
     0
 73
     1
 74
     0
 75
     0
 76
     0
 77
     2
 78
     0
170
     0
171
     2
172
     0
173
     0
174
     1
175
      0
176
5
177
5
178
     1
271
3
272
3
  0
ENDTAB
  0
TABLE
  2
DIMSTYLE
 70
     2
  0
DIMSTYLE
  2
HDRILLDIM
 70
     0
  3

  4

  5
_NONE
  6
_NONE
  7
_NONE
 40
1
 41
0.1
 42
0.0625
 43
0.38
 44
0.18
 45
0.00
 46
0.0
 47
0.0
 48
0.0
140
0.5
141
0.09
142
0.0
143
25.399999999999999
144
1.0
145
0.5
146
1.0
147
0.09
 71
     1
 72
     0
 73
     1
 74
     0
 75
     0
 76
     0
 77
     2
 78
     0
170
     0
171
     2
172
     0
173
     0
174
     1
175
      0
176
5
177
5
178
     1
271
3
272
3
  0
ENDTAB
  0
TABLE
  2
DIMSTYLE
 70
     2
  0
DIMSTYLE
  2
ROUTEDIM
 70
     0
  3

  4

  5
_NONE
  6
_NONE
  7
_NONE
 40
1
 41
0.1
 42
0.0625
 43
0.38
 44
0.18
 45
0.00
 46
0.0
 47
0.0
 48
0.0
140
0.5
141
0.09
142
0.0
143
25.399999999999999
144
1.0
145
0.5
146
1.0
147
0.09
 71
     1
 72
     0
 73
     1
 74
     0
 75
     0
 76
     0
 77
     2
 78
     0
170
     0
171
     2
172
     0
173
     0
174
     1
175
      0
176
5
177
5
178
     1
271
3
272
3
  0
ENDTAB
  0
TABLE
  2
DIMSTYLE
 70
     2
  0
DIMSTYLE
  2
SAWDIM
 70
     0
  3

  4

  5
_NONE
  6
_NONE
  7
_NONE
 40
1
 41
0.1
 42
0.0625
 43
0.38
 44
0.18
 45
0.00
 46
0.0
 47
0.0
 48
0.0
140
0.5
141
0.09
142
0.0
143
25.399999999999999
144
1.0
145
0.5
146
1.0
147
0.09
 71
     1
 72
     0
 73
     1
 74
     0
 75
     0
 76
     0
 77
     2
 78
     0
170
     0
171
     2
172
     0
173
     0
174
     1
175
      0
176
5
177
5
178
     1
271
3
272
3
  0
ENDTAB
  0
TABLE
  2
VPORT
 70
     1
  0
VPORT
  2
*ACTIVE
 70
     0
 10
0.0
 20
0.0
 11
1.0
 21
1.0
 12
0.0
 22
0.0
 13
0.0
 23
0.0
 14
1.0
 24
1.0
 15
0.0
 25
0.0
 16
0.0
 26
0.0
 36
1.0
 17
0.0
 27
0.0
 37
0.0
 40
84
 41
2.0
 42
50.0
 43
0.0
 44
0.0
 50
0.0
 51
0.0
 71
     0
 72
   100
 73
     1
 74
     0
 75
     1
 76
     0
 77
     0
 78
     0
  0
ENDTAB
  0
ENDSEC
  0
SECTION
  2
ENTITIES
  0
POLYLINE
  8
BORDER_Z0P04
 62
     7
 66
     1
 10
0.0
 20
0.0
 30
0.0
 70
     1
  0
VERTEX
  8
BORDER_Z0P04
 62
     7
 10
0.0
 20
0.0
 30
0.0
  0
VERTEX
  8
BORDER_Z0P04
 62
     7
 10
0.0
 20
49.6496
 30
0.0
  0
VERTEX
  8
BORDER_Z0P04
 62
     7
 10
59.4831
 20
49.6496
 30
0.0
  0
VERTEX
  8
BORDER_Z0P04
 62
     7
 10
59.4831
 20
0.0
 30
0.0
  0
SEQEND
  8
BORDER_Z0P04
 62
     7
  0
POLYLINE
  8
ROUTE_Z0P25LT130RAMP
 62
     3
 66
     1
 10
0.0
 20
0.0
 30
0.0
 70
     0
  0
VERTEX
  8
ROUTE_Z0P25LT130RAMP
 62
     3
 10
59.566199
 20
50.117246
 30
0.0
  0
VERTEX
  8
ROUTE_Z0P25LT130RAMP
 62
     3
 10
59.498489
 20
49.748409
 30
0.0
 42
-0.271053712487615
  0
VERTEX
  8
ROUTE_Z0P25LT130RAMP
 62
     3
 10
19.014878
 20
-3.39999999994234E-05
 30
0.0
 42
0.353048604225351
  0
VERTEX
  8
ROUTE_Z0P25LT130RAMP
 62
     3
 10
-0.099853
 20
17.12269
 30
0.0
  0
VERTEX
  8
ROUTE_Z0P25LT130RAMP
 62
     3
 10
-0.472973
 20
17.160199
 30
0.0
  0
SEQEND
  8
ROUTE_Z0P25LT130RAMP
 62
     3
  0
POLYLINE
  8
ROUTE_Z0P25LT130RAMP
 62
     3
 66
     1
 10
0.0
 20
0.0
 30
0.0
 70
     0
  0
VERTEX
  8
ROUTE_Z0P25LT130RAMP
 62
     3
 10
-0.471507
 20
21.848838
 30
0.0
  0
VERTEX
  8
ROUTE_Z0P25LT130RAMP
 62
     3
 10
-0.099573
 20
21.896689
 30
0.0
 42
0.345703815867499
  0
VERTEX
  8
ROUTE_Z0P25LT130RAMP
 62
     3
 10
29.401177
 20
49.748477
 30
0.0
  0
VERTEX
  8
ROUTE_Z0P25LT130RAMP
 62
     3
 10
29.470319
 20
50.117048
 30
0.0
  0
SEQEND
  8
ROUTE_Z0P25LT130RAMP
 62
     3
  0
DIMENSION
  8
2D_DIM
  2
*D1
  3
BOARDERDIM
  1
59.483
 10
59.4831
 20
54.6496
 30
0.0
 11
29.74155
 21
54.6496
 31
0.0
 13
0
 23
49.6496
 14
59.4831
 24
49.6496
 33
0.0
 34
0.0
53
0
  0
DIMENSION
  8
2D_DIM
  2
*D1
  3
BOARDERDIM
  1
49.65
 10
-5
 20
49.6496
 30
0.0
 11
-5
 21
24.8248
 31
0
 13
0.0
 23
0
 14
0.0
 24
49.6496
 50
90.0
53
0
 33
0.0
 34
0.0
  0
DIMENSION
  8
2D_DIM
  2
*D1
  3
ROUTEDIM
  1
-0.473
 10
-0.472973
 20
52.1496
 30
0.0
 11
-0.2364865
 21
52.1496
 31
0.0
 13
0
 23
49.6496
 14
-0.472973
 24
49.6496
 33
0.0
 34
0.0
53
90
  0
DIMENSION
  8
2D_DIM
  2
*D1
  3
ROUTEDIM
  1
0.001
 10
-0.471507
 20
52.1496
 30
0.0
 11
-0.2357535
 21
52.1496
 31
0.0
 13
-0.472973
 23
49.6496
 14
-0.471507
 24
49.6496
 33
0.0
 34
0.0
53
90
  0
DIMENSION
  8
2D_DIM
  2
*D1
  3
ROUTEDIM
  1
0.372
 10
-0.099853
 20
52.1496
 30
0.0
 11
-0.0499265
 21
52.1496
 31
0.0
 13
-0.471507
 23
49.6496
 14
-0.099853
 24
49.6496
 33
0.0
 34
0.0
53
90
  0
DIMENSION
  8
2D_DIM
  2
*D1
  3
ROUTEDIM
  1
0
 10
-0.099573
 20
52.1496
 30
0.0
 11
-0.0497865
 21
52.1496
 31
0.0
 13
-0.099853
 23
49.6496
 14
-0.099573
 24
49.6496
 33
0.0
 34
0.0
53
90
  0
DIMENSION
  8
2D_DIM
  2
*D1
  3
ROUTEDIM
  1
19.114
 10
19.014878
 20
52.1496
 30
0.0
 11
9.507439
 21
52.1496
 31
0.0
 13
-0.099573
 23
49.6496
 14
19.014878
 24
49.6496
 33
0.0
 34
0.0
53
90
  0
DIMENSION
  8
2D_DIM
  2
*D1
  3
ROUTEDIM
  1
10.386
 10
29.401177
 20
52.1496
 30
0.0
 11
14.7005885
 21
52.1496
 31
0.0
 13
19.014878
 23
49.6496
 14
29.401177
 24
49.6496
 33
0.0
 34
0.0
53
90
  0
DIMENSION
  8
2D_DIM
  2
*D1
  3
ROUTEDIM
  1
0.069
 10
29.470319
 20
52.1496
 30
0.0
 11
14.7351595
 21
52.1496
 31
0.0
 13
29.401177
 23
49.6496
 14
29.470319
 24
49.6496
 33
0.0
 34
0.0
53
90
  0
DIMENSION
  8
2D_DIM
  2
*D1
  3
ROUTEDIM
  1
30.028
 10
59.498489
 20
52.1496
 30
0.0
 11
29.7492445
 21
52.1496
 31
0.0
 13
29.470319
 23
49.6496
 14
59.498489
 24
49.6496
 33
0.0
 34
0.0
53
90
  0
DIMENSION
  8
2D_DIM
  2
*D1
  3
ROUTEDIM
  1
0.068
 10
59.566199
 20
52.1496
 30
0.0
 11
29.7830995
 21
52.1496
 31
0.0
 13
59.498489
 23
49.6496
 14
59.566199
 24
49.6496
 33
0.0
 34
0.0
53
90
  0
DIMENSION
  8
2D_DIM
  2
*D1
  3
ROUTEDIM
  1
-0.083
 10
59.4831
 20
52.1496
 30
0.0
 11
29.74155
 21
52.1496
 31
0.0
 13
59.566199
 23
49.6496
 14
59.4831
 24
49.6496
 33
0.0
 34
0.0
53
90
  0
DIMENSION
  8
2D_DIM
  2
*D1
  3
ROUTEDIM
  1
0
 10
-2.5
 20
-3.39999999994234E-05
 30
0.0
 11
-2.5
 21
-1.69999999997117E-05
 31
0
 13
0.0
 23
0
 14
0.0
 24
-3.39999999994234E-05
 50
90.0
53
0
 33
0.0
 34
0.0
  0
DIMENSION
  8
2D_DIM
  2
*D1
  3
ROUTEDIM
  1
17.123
 10
-2.5
 20
17.12269
 30
0.0
 11
-2.5
 21
8.561345
 31
0
 13
0.0
 23
-3.39999999994234E-05
 14
0.0
 24
17.12269
 50
90.0
53
0
 33
0.0
 34
0.0
  0
DIMENSION
  8
2D_DIM
  2
*D1
  3
ROUTEDIM
  1
0.038
 10
-2.5
 20
17.160199
 30
0.0
 11
-2.5
 21
8.5800995
 31
0
 13
0.0
 23
17.12269
 14
0.0
 24
17.160199
 50
90.0
53
0
 33
0.0
 34
0.0
  0
DIMENSION
  8
2D_DIM
  2
*D1
  3
ROUTEDIM
  1
4.689
 10
-2.5
 20
21.848838
 30
0.0
 11
-2.5
 21
10.924419
 31
0
 13
0.0
 23
17.160199
 14
0.0
 24
21.848838
 50
90.0
53
0
 33
0.0
 34
0.0
  0
DIMENSION
  8
2D_DIM
  2
*D1
  3
ROUTEDIM
  1
0.048
 10
-2.5
 20
21.896689
 30
0.0
 11
-2.5
 21
10.9483445
 31
0
 13
0.0
 23
21.848838
 14
0.0
 24
21.896689
 50
90.0
53
0
 33
0.0
 34
0.0
  0
DIMENSION
  8
2D_DIM
  2
*D1
  3
ROUTEDIM
  1
27.852
 10
-2.5
 20
49.748409
 30
0.0
 11
-2.5
 21
24.8742045
 31
0
 13
0.0
 23
21.896689
 14
0.0
 24
49.748409
 50
90.0
53
0
 33
0.0
 34
0.0
  0
DIMENSION
  8
2D_DIM
  2
*D1
  3
ROUTEDIM
  1
-0
 10
-2.5
 20
49.748477
 30
0.0
 11
-2.5
 21
24.8742385
 31
0
 13
0.0
 23
49.748409
 14
0.0
 24
49.748477
 50
90.0
53
0
 33
0.0
 34
0.0
  0
DIMENSION
  8
2D_DIM
  2
*D1
  3
ROUTEDIM
  1
0.369
 10
-2.5
 20
50.117048
 30
0.0
 11
-2.5
 21
25.058524
 31
0
 13
0.0
 23
49.748477
 14
0.0
 24
50.117048
 50
90.0
53
0
 33
0.0
 34
0.0
  0
DIMENSION
  8
2D_DIM
  2
*D1
  3
ROUTEDIM
  1
-0
 10
-2.5
 20
50.117246
 30
0.0
 11
-2.5
 21
25.058623
 31
0
 13
0.0
 23
50.117048
 14
0.0
 24
50.117246
 50
90.0
53
0
 33
0.0
 34
0.0
  0
DIMENSION
  8
2D_DIM
  2
*D1
  3
ROUTEDIM
  1
0.468
 10
-2.5
 20
49.6496
 30
0.0
 11
-2.5
 21
24.8248
 31
0
 13
0.0
 23
50.117246
 14
0.0
 24
49.6496
 50
90.0
53
0
 33
0.0
 34
0.0
  0
DIMENSION
  8
2D_DIM
  2
*D1
  3
ROUTEDIM
  1
-3.256
 10
-3.25649474246062
 20
59.4699831983989
 30
0.0
 11
-1.62824737123031
 21
59.4699831983989
 31
0.0
 13
0
 23
59.4699831983989
 14
-3.25649474246062
 24
59.4699831983989
 33
0.0
 34
0.0
53
90
  0
DIMENSION
  8
2D_DIM
  2
*D1
  3
ROUTEDIM
  1
59.47
 10
-3.25649474246062
 20
59.4699831983989
 30
0.0
 11
-3.25649474246062
 21
29.7349915991994
 31
0
 13
-3.25649474246062
 23
0
 14
-3.25649474246062
 24
59.4699831983989
 50
90.0
53
0
 33
0.0
 34
0.0
  0
DIMENSION
  8
2D_DIM
  2
*D1
  3
ROUTEDIM
  1
-1.156
 10
-1.15610465222293
 20
-3.28704593873353
 30
0.0
 11
-0.578052326111463
 21
-3.28704593873353
 31
0.0
 13
0
 23
-3.28704593873353
 14
-1.15610465222293
 24
-3.28704593873353
 33
0.0
 34
0.0
53
90
  0
DIMENSION
  8
2D_DIM
  2
*D1
  3
ROUTEDIM
  1
3.287
 10
-1.15610465222293
 20
-3.28704593873353
 30
0.0
 11
-1.15610465222293
 21
-1.64352296936677
 31
0
 13
-1.15610465222293
 23
0
 14
-1.15610465222293
 24
-3.28704593873353
 50
90.0
53
0
 33
0.0
 34
0.0
  0
DIMENSION
  8
2D_DIM
  2
*D1
  3
ROUTEDIM
  1
-3.083
 10
-3.08344641237349
 20
54.6067856103074
 30
0.0
 11
-1.54172320618674
 21
54.6067856103074
 31
0.0
 13
0
 23
54.6067856103074
 14
-3.08344641237349
 24
54.6067856103074
 33
0.0
 34
0.0
53
90
  0
DIMENSION
  8
2D_DIM
  2
*D1
  3
ROUTEDIM
  1
54.607
 10
-3.08344641237349
 20
54.6067856103074
 30
0.0
 11
-3.08344641237349
 21
27.3033928051537
 31
0
 13
-3.08344641237349
 23
0
 14
-3.08344641237349
 24
54.6067856103074
 50
90.0
53
0
 33
0.0
 34
0.0
  0
TEXT
  8
ITEMNUMBER
 62
     1
 10
-7.5
 20
-5
 30
0.0
 40
0.5
  1
T31106.22
  0
TEXT
  8
DESCRIPTION
 62
     1
 10
-7.5
 20
-6
 30
0.0
 40
0.5
  1
P2B
  0
TEXT
  8
FILENAME
 62
     1
 10
-7.5
 20
-7
 30
0.0
 40
0.5
  1
5600AE28
  0
TEXT
  8
MATERIALNAME
 62
     1
 10
-7.5
 20
-8
 30
0.0
 40
0.5
  1
AB1860SEI-PF/4x10
  0
TEXT
  8
Qty
 62
     1
 10
-7.5
 20
-9
 30
0.0
 40
0.5
  1
1
  0
TEXT
  8
RUNFIELD
 62
     1
 10
8
 20
-1
 30
0.0
 40
0.5
  1
Mirrored
  0
ENDSEC
  0
EOF
