  0
SECTION
  2
TABLES
  0
TABLE
  2
DIMSTYLE
 70
     2
  0
DIMSTYLE
  2
BOARDERDIM
 70
     0
  3

  4

  5
_NONE
  6
_NONE
  7
_NONE
 40
1
 41
0.1
 42
0.0625
 43
0.38
 44
0.18
 45
0.00
 46
0.0
 47
0.0
 48
0.0
140
0.5
141
0.09
142
0.0
143
25.399999999999999
144
1.0
145
0.5
146
1.0
147
0.09
 71
     1
 72
     0
 73
     1
 74
     0
 75
     0
 76
     0
 77
     2
 78
     0
170
     0
171
     2
172
     0
173
     0
174
     1
175
      0
176
5
177
5
178
     1
271
3
272
3
  0
ENDTAB
  0
TABLE
  2
DIMSTYLE
 70
     2
  0
DIMSTYLE
  2
VDRILLDIM
 70
     0
  3

  4

  5
_NONE
  6
_NONE
  7
_NONE
 40
1
 41
0.1
 42
0.0625
 43
0.38
 44
0.18
 45
0.00
 46
0.0
 47
0.0
 48
0.0
140
0.5
141
0.09
142
0.0
143
25.399999999999999
144
1.0
145
0.5
146
1.0
147
0.09
 71
     1
 72
     0
 73
     1
 74
     0
 75
     0
 76
     0
 77
     2
 78
     0
170
     0
171
     2
172
     0
173
     0
174
     1
175
      0
176
5
177
5
178
     1
271
3
272
3
  0
ENDTAB
  0
TABLE
  2
DIMSTYLE
 70
     2
  0
DIMSTYLE
  2
HDRILLDIM
 70
     0
  3

  4

  5
_NONE
  6
_NONE
  7
_NONE
 40
1
 41
0.1
 42
0.0625
 43
0.38
 44
0.18
 45
0.00
 46
0.0
 47
0.0
 48
0.0
140
0.5
141
0.09
142
0.0
143
25.399999999999999
144
1.0
145
0.5
146
1.0
147
0.09
 71
     1
 72
     0
 73
     1
 74
     0
 75
     0
 76
     0
 77
     2
 78
     0
170
     0
171
     2
172
     0
173
     0
174
     1
175
      0
176
5
177
5
178
     1
271
3
272
3
  0
ENDTAB
  0
TABLE
  2
DIMSTYLE
 70
     2
  0
DIMSTYLE
  2
ROUTEDIM
 70
     0
  3

  4

  5
_NONE
  6
_NONE
  7
_NONE
 40
1
 41
0.1
 42
0.0625
 43
0.38
 44
0.18
 45
0.00
 46
0.0
 47
0.0
 48
0.0
140
0.5
141
0.09
142
0.0
143
25.399999999999999
144
1.0
145
0.5
146
1.0
147
0.09
 71
     1
 72
     0
 73
     1
 74
     0
 75
     0
 76
     0
 77
     2
 78
     0
170
     0
171
     2
172
     0
173
     0
174
     1
175
      0
176
5
177
5
178
     1
271
3
272
3
  0
ENDTAB
  0
TABLE
  2
DIMSTYLE
 70
     2
  0
DIMSTYLE
  2
SAWDIM
 70
     0
  3

  4

  5
_NONE
  6
_NONE
  7
_NONE
 40
1
 41
0.1
 42
0.0625
 43
0.38
 44
0.18
 45
0.00
 46
0.0
 47
0.0
 48
0.0
140
0.5
141
0.09
142
0.0
143
25.399999999999999
144
1.0
145
0.5
146
1.0
147
0.09
 71
     1
 72
     0
 73
     1
 74
     0
 75
     0
 76
     0
 77
     2
 78
     0
170
     0
171
     2
172
     0
173
     0
174
     1
175
      0
176
5
177
5
178
     1
271
3
272
3
  0
ENDTAB
  0
TABLE
  2
VPORT
 70
     1
  0
VPORT
  2
*ACTIVE
 70
     0
 10
0.0
 20
0.0
 11
1.0
 21
1.0
 12
0.0
 22
0.0
 13
0.0
 23
0.0
 14
1.0
 24
1.0
 15
0.0
 25
0.0
 16
0.0
 26
0.0
 36
1.0
 17
0.0
 27
0.0
 37
0.0
 40
84
 41
2.0
 42
50.0
 43
0.0
 44
0.0
 50
0.0
 51
0.0
 71
     0
 72
   100
 73
     1
 74
     0
 75
     1
 76
     0
 77
     0
 78
     0
  0
ENDTAB
  0
ENDSEC
  0
SECTION
  2
ENTITIES
  0
POLYLINE
  8
BORDER_Z0P04
 62
     7
 66
     1
 10
0.0
 20
0.0
 30
0.0
 70
     1
  0
VERTEX
  8
BORDER_Z0P04
 62
     7
 10
0.0
 20
0.0
 30
0.0
  0
VERTEX
  8
BORDER_Z0P04
 62
     7
 10
0.0
 20
34.4914
 30
0.0
  0
VERTEX
  8
BORDER_Z0P04
 62
     7
 10
4.6676
 20
34.4914
 30
0.0
  0
VERTEX
  8
BORDER_Z0P04
 62
     7
 10
4.6676
 20
0.0
 30
0.0
  0
SEQEND
  8
BORDER_Z0P04
 62
     7
  0
POLYLINE
  8
ROUTE_Z0P25LT130RAMP
 62
     3
 66
     1
 10
0.0
 20
0.0
 30
0.0
 70
     0
  0
VERTEX
  8
ROUTE_Z0P25LT130RAMP
 62
     3
 10
2.438784
 20
17.040765
 30
0.0
 42
0.414213562373095
  0
VERTEX
  8
ROUTE_Z0P25LT130RAMP
 62
     3
 10
2.720831
 20
17.357698
 30
0.0
 42
0.049692063527841
  0
VERTEX
  8
ROUTE_Z0P25LT130RAMP
 62
     3
 10
0
 20
34.4914
 30
0.0
  0
VERTEX
  8
ROUTE_Z0P25LT130RAMP
 62
     3
 10
2.071339
 20
34.471384
 30
0.0
 42
-0.0459359228786118
  0
VERTEX
  8
ROUTE_Z0P25LT130RAMP
 62
     3
 10
4.667618
 20
18.268558
 30
0.0
  0
VERTEX
  8
ROUTE_Z0P25LT130RAMP
 62
     3
 10
4.491084
 20
-2.70000000028858E-05
 30
0.0
  0
VERTEX
  8
ROUTE_Z0P25LT130RAMP
 62
     3
 10
2.007668
 20
0.023970999999996
 30
0.0
 42
0.049692063527841
  0
VERTEX
  8
ROUTE_Z0P25LT130RAMP
 62
     3
 10
2.720831
 20
17.357698
 30
0.0
  0
SEQEND
  8
ROUTE_Z0P25LT130RAMP
 62
     3
  0
DIMENSION
  8
2D_DIM
  2
*D1
  3
BOARDERDIM
  1
4.668
 10
4.6676
 20
39.4914
 30
0.0
 11
2.3338
 21
39.4914
 31
0.0
 13
0
 23
34.4914
 14
4.6676
 24
34.4914
 33
0.0
 34
0.0
53
0
  0
DIMENSION
  8
2D_DIM
  2
*D1
  3
BOARDERDIM
  1
34.491
 10
-5
 20
34.4914
 30
0.0
 11
-5
 21
17.2457
 31
0
 13
0.0
 23
0
 14
0.0
 24
34.4914
 50
90.0
53
0
 33
0.0
 34
0.0
  0
DIMENSION
  8
2D_DIM
  2
*D1
  3
ROUTEDIM
  1
0
 10
0
 20
36.9914
 30
0.0
 11
0
 21
36.9914
 31
0.0
 13
0
 23
34.4914
 14
0
 24
34.4914
 33
0.0
 34
0.0
53
90
  0
DIMENSION
  8
2D_DIM
  2
*D1
  3
ROUTEDIM
  1
2.008
 10
2.007668
 20
36.9914
 30
0.0
 11
1.003834
 21
36.9914
 31
0.0
 13
0
 23
34.4914
 14
2.007668
 24
34.4914
 33
0.0
 34
0.0
53
90
  0
DIMENSION
  8
2D_DIM
  2
*D1
  3
ROUTEDIM
  1
0.064
 10
2.071339
 20
36.9914
 30
0.0
 11
1.0356695
 21
36.9914
 31
0.0
 13
2.007668
 23
34.4914
 14
2.071339
 24
34.4914
 33
0.0
 34
0.0
53
90
  0
DIMENSION
  8
2D_DIM
  2
*D1
  3
ROUTEDIM
  1
0.367
 10
2.438784
 20
36.9914
 30
0.0
 11
1.219392
 21
36.9914
 31
0.0
 13
2.071339
 23
34.4914
 14
2.438784
 24
34.4914
 33
0.0
 34
0.0
53
90
  0
DIMENSION
  8
2D_DIM
  2
*D1
  3
ROUTEDIM
  1
0.282
 10
2.720831
 20
36.9914
 30
0.0
 11
1.3604155
 21
36.9914
 31
0.0
 13
2.438784
 23
34.4914
 14
2.720831
 24
34.4914
 33
0.0
 34
0.0
53
90
  0
DIMENSION
  8
2D_DIM
  2
*D1
  3
ROUTEDIM
  1
1.77
 10
4.491084
 20
36.9914
 30
0.0
 11
2.245542
 21
36.9914
 31
0.0
 13
2.720831
 23
34.4914
 14
4.491084
 24
34.4914
 33
0.0
 34
0.0
53
90
  0
DIMENSION
  8
2D_DIM
  2
*D1
  3
ROUTEDIM
  1
0.177
 10
4.667618
 20
36.9914
 30
0.0
 11
2.333809
 21
36.9914
 31
0.0
 13
4.491084
 23
34.4914
 14
4.667618
 24
34.4914
 33
0.0
 34
0.0
53
90
  0
DIMENSION
  8
2D_DIM
  2
*D1
  3
ROUTEDIM
  1
-0
 10
4.6676
 20
36.9914
 30
0.0
 11
2.3338
 21
36.9914
 31
0.0
 13
4.667618
 23
34.4914
 14
4.6676
 24
34.4914
 33
0.0
 34
0.0
53
90
  0
DIMENSION
  8
2D_DIM
  2
*D1
  3
ROUTEDIM
  1
0
 10
-2.5
 20
-2.70000000028858E-05
 30
0.0
 11
-2.5
 21
-1.35000000014429E-05
 31
0
 13
0.0
 23
0
 14
0.0
 24
-2.70000000028858E-05
 50
90.0
53
0
 33
0.0
 34
0.0
  0
DIMENSION
  8
2D_DIM
  2
*D1
  3
ROUTEDIM
  1
0.024
 10
-2.5
 20
0.023970999999996
 30
0.0
 11
-2.5
 21
0.011985499999998
 31
0
 13
0.0
 23
-2.70000000028858E-05
 14
0.0
 24
0.023970999999996
 50
90.0
53
0
 33
0.0
 34
0.0
  0
DIMENSION
  8
2D_DIM
  2
*D1
  3
ROUTEDIM
  1
17.017
 10
-2.5
 20
17.040765
 30
0.0
 11
-2.5
 21
8.5203825
 31
0
 13
0.0
 23
0.023970999999996
 14
0.0
 24
17.040765
 50
90.0
53
0
 33
0.0
 34
0.0
  0
DIMENSION
  8
2D_DIM
  2
*D1
  3
ROUTEDIM
  1
0.317
 10
-2.5
 20
17.357698
 30
0.0
 11
-2.5
 21
8.678849
 31
0
 13
0.0
 23
17.040765
 14
0.0
 24
17.357698
 50
90.0
53
0
 33
0.0
 34
0.0
  0
DIMENSION
  8
2D_DIM
  2
*D1
  3
ROUTEDIM
  1
0.911
 10
-2.5
 20
18.268558
 30
0.0
 11
-2.5
 21
9.134279
 31
0
 13
0.0
 23
17.357698
 14
0.0
 24
18.268558
 50
90.0
53
0
 33
0.0
 34
0.0
  0
DIMENSION
  8
2D_DIM
  2
*D1
  3
ROUTEDIM
  1
16.203
 10
-2.5
 20
34.471384
 30
0.0
 11
-2.5
 21
17.235692
 31
0
 13
0.0
 23
18.268558
 14
0.0
 24
34.471384
 50
90.0
53
0
 33
0.0
 34
0.0
  0
DIMENSION
  8
2D_DIM
  2
*D1
  3
ROUTEDIM
  1
0.02
 10
-2.5
 20
34.4914
 30
0.0
 11
-2.5
 21
17.2457
 31
0
 13
0.0
 23
34.471384
 14
0.0
 24
34.4914
 50
90.0
53
0
 33
0.0
 34
0.0
  0
DIMENSION
  8
2D_DIM
  2
*D1
  3
ROUTEDIM
  1
0
 10
-2.5
 20
34.4914
 30
0.0
 11
-2.5
 21
17.2457
 31
0
 13
0.0
 23
34.4914
 14
0.0
 24
34.4914
 50
90.0
53
0
 33
0.0
 34
0.0
  0
DIMENSION
  8
2D_DIM
  2
*D1
  3
ROUTEDIM
  1
2.421
 10
2.421341
 20
17.340255
 30
0.0
 11
1.2106705
 21
17.340255
 31
0.0
 13
0
 23
17.340255
 14
2.421341
 24
17.340255
 33
0.0
 34
0.0
53
90
  0
DIMENSION
  8
2D_DIM
  2
*D1
  3
ROUTEDIM
  1
17.34
 10
2.421341
 20
17.340255
 30
0.0
 11
2.421341
 21
8.6701275
 31
0
 13
2.421341
 23
0
 14
2.421341
 24
17.340255
 50
90.0
53
0
 33
0.0
 34
0.0
  0
DIMENSION
  8
2D_DIM
  2
*D1
  3
ROUTEDIM
  1
-84.626
 10
-84.6261209611897
 20
12.2698914142526
 30
0.0
 11
-42.3130604805948
 21
12.2698914142526
 31
0.0
 13
0
 23
12.2698914142526
 14
-84.6261209611897
 24
12.2698914142526
 33
0.0
 34
0.0
53
90
  0
DIMENSION
  8
2D_DIM
  2
*D1
  3
ROUTEDIM
  1
12.27
 10
-84.6261209611897
 20
12.2698914142526
 30
0.0
 11
-84.6261209611897
 21
6.13494570712631
 31
0
 13
-84.6261209611897
 23
0
 14
-84.6261209611897
 24
12.2698914142526
 50
90.0
53
0
 33
0.0
 34
0.0
  0
DIMENSION
  8
2D_DIM
  2
*D1
  3
ROUTEDIM
  1
-84.626
 10
-84.6261209004135
 20
12.2698919881223
 30
0.0
 11
-42.3130604502067
 21
12.2698919881223
 31
0.0
 13
0
 23
12.2698919881223
 14
-84.6261209004135
 24
12.2698919881223
 33
0.0
 34
0.0
53
90
  0
DIMENSION
  8
2D_DIM
  2
*D1
  3
ROUTEDIM
  1
12.27
 10
-84.6261209004135
 20
12.2698919881223
 30
0.0
 11
-84.6261209004135
 21
6.13494599406115
 31
0
 13
-84.6261209004135
 23
0
 14
-84.6261209004135
 24
12.2698919881223
 50
90.0
53
0
 33
0.0
 34
0.0
  0
DIMENSION
  8
2D_DIM
  2
*D1
  3
ROUTEDIM
  1
-84.626
 10
-84.6261247164891
 20
12.2698868438701
 30
0.0
 11
-42.3130623582446
 21
12.2698868438701
 31
0.0
 13
0
 23
12.2698868438701
 14
-84.6261247164891
 24
12.2698868438701
 33
0.0
 34
0.0
53
90
  0
DIMENSION
  8
2D_DIM
  2
*D1
  3
ROUTEDIM
  1
12.27
 10
-84.6261247164891
 20
12.2698868438701
 30
0.0
 11
-84.6261247164891
 21
6.13494342193504
 31
0
 13
-84.6261247164891
 23
0
 14
-84.6261247164891
 24
12.2698868438701
 50
90.0
53
0
 33
0.0
 34
0.0
  0
TEXT
  8
ITEMNUMBER
 62
     1
 10
-7.5
 20
-5
 30
0.0
 40
0.5
  1
T31106.24
  0
TEXT
  8
DESCRIPTION
 62
     1
 10
-7.5
 20
-6
 30
0.0
 40
0.5
  1
P1B
  0
TEXT
  8
FILENAME
 62
     1
 10
-7.5
 20
-7
 30
0.0
 40
0.5
  1
5600AE5K
  0
TEXT
  8
MATERIALNAME
 62
     1
 10
-7.5
 20
-8
 30
0.0
 40
0.5
  1
AB1826SEI-PF/4x10
  0
TEXT
  8
Qty
 62
     1
 10
-7.5
 20
-9
 30
0.0
 40
0.5
  1
1
  0
TEXT
  8
RUNFIELD
 62
     1
 10
8
 20
-1
 30
0.0
 40
0.5
  1
Mirrored
  0
ENDSEC
  0
EOF
