  0
SECTION
  2
TABLES
  0
TABLE
  2
DIMSTYLE
 70
     2
  0
DIMSTYLE
  2
BOARDERDIM
 70
     0
  3

  4

  5
_NONE
  6
_NONE
  7
_NONE
 40
1
 41
0.1
 42
0.0625
 43
0.38
 44
0.18
 45
0.00
 46
0.0
 47
0.0
 48
0.0
140
0.5
141
0.09
142
0.0
143
25.399999999999999
144
1.0
145
0.5
146
1.0
147
0.09
 71
     1
 72
     0
 73
     1
 74
     0
 75
     0
 76
     0
 77
     2
 78
     0
170
     0
171
     2
172
     0
173
     0
174
     1
175
      0
176
5
177
5
178
     1
271
3
272
3
  0
ENDTAB
  0
TABLE
  2
DIMSTYLE
 70
     2
  0
DIMSTYLE
  2
VDRILLDIM
 70
     0
  3

  4

  5
_NONE
  6
_NONE
  7
_NONE
 40
1
 41
0.1
 42
0.0625
 43
0.38
 44
0.18
 45
0.00
 46
0.0
 47
0.0
 48
0.0
140
0.5
141
0.09
142
0.0
143
25.399999999999999
144
1.0
145
0.5
146
1.0
147
0.09
 71
     1
 72
     0
 73
     1
 74
     0
 75
     0
 76
     0
 77
     2
 78
     0
170
     0
171
     2
172
     0
173
     0
174
     1
175
      0
176
5
177
5
178
     1
271
3
272
3
  0
ENDTAB
  0
TABLE
  2
DIMSTYLE
 70
     2
  0
DIMSTYLE
  2
HDRILLDIM
 70
     0
  3

  4

  5
_NONE
  6
_NONE
  7
_NONE
 40
1
 41
0.1
 42
0.0625
 43
0.38
 44
0.18
 45
0.00
 46
0.0
 47
0.0
 48
0.0
140
0.5
141
0.09
142
0.0
143
25.399999999999999
144
1.0
145
0.5
146
1.0
147
0.09
 71
     1
 72
     0
 73
     1
 74
     0
 75
     0
 76
     0
 77
     2
 78
     0
170
     0
171
     2
172
     0
173
     0
174
     1
175
      0
176
5
177
5
178
     1
271
3
272
3
  0
ENDTAB
  0
TABLE
  2
DIMSTYLE
 70
     2
  0
DIMSTYLE
  2
ROUTEDIM
 70
     0
  3

  4

  5
_NONE
  6
_NONE
  7
_NONE
 40
1
 41
0.1
 42
0.0625
 43
0.38
 44
0.18
 45
0.00
 46
0.0
 47
0.0
 48
0.0
140
0.5
141
0.09
142
0.0
143
25.399999999999999
144
1.0
145
0.5
146
1.0
147
0.09
 71
     1
 72
     0
 73
     1
 74
     0
 75
     0
 76
     0
 77
     2
 78
     0
170
     0
171
     2
172
     0
173
     0
174
     1
175
      0
176
5
177
5
178
     1
271
3
272
3
  0
ENDTAB
  0
TABLE
  2
DIMSTYLE
 70
     2
  0
DIMSTYLE
  2
SAWDIM
 70
     0
  3

  4

  5
_NONE
  6
_NONE
  7
_NONE
 40
1
 41
0.1
 42
0.0625
 43
0.38
 44
0.18
 45
0.00
 46
0.0
 47
0.0
 48
0.0
140
0.5
141
0.09
142
0.0
143
25.399999999999999
144
1.0
145
0.5
146
1.0
147
0.09
 71
     1
 72
     0
 73
     1
 74
     0
 75
     0
 76
     0
 77
     2
 78
     0
170
     0
171
     2
172
     0
173
     0
174
     1
175
      0
176
5
177
5
178
     1
271
3
272
3
  0
ENDTAB
  0
TABLE
  2
VPORT
 70
     1
  0
VPORT
  2
*ACTIVE
 70
     0
 10
0.0
 20
0.0
 11
1.0
 21
1.0
 12
0.0
 22
0.0
 13
0.0
 23
0.0
 14
1.0
 24
1.0
 15
0.0
 25
0.0
 16
0.0
 26
0.0
 36
1.0
 17
0.0
 27
0.0
 37
0.0
 40
84
 41
2.0
 42
50.0
 43
0.0
 44
0.0
 50
0.0
 51
0.0
 71
     0
 72
   100
 73
     1
 74
     0
 75
     1
 76
     0
 77
     0
 78
     0
  0
ENDTAB
  0
ENDSEC
  0
SECTION
  2
ENTITIES
  0
POLYLINE
  8
BORDER_Z0P04
 62
     7
 66
     1
 10
0.0
 20
0.0
 30
0.0
 70
     1
  0
VERTEX
  8
BORDER_Z0P04
 62
     7
 10
0.0
 20
0.0
 30
0.0
  0
VERTEX
  8
BORDER_Z0P04
 62
     7
 10
0.0
 20
38.2041
 30
0.0
  0
VERTEX
  8
BORDER_Z0P04
 62
     7
 10
15.0542
 20
38.2041
 30
0.0
  0
VERTEX
  8
BORDER_Z0P04
 62
     7
 10
15.0542
 20
0.0
 30
0.0
  0
SEQEND
  8
BORDER_Z0P04
 62
     7
  0
POLYLINE
  8
ROUTE_Z0P25LT130RAMP
 62
     3
 66
     1
 10
0.0
 20
0.0
 30
0.0
 70
     0
  0
VERTEX
  8
ROUTE_Z0P25LT130RAMP
 62
     3
 10
11.442778
 20
17.707464
 30
0.0
 42
0.414213562373095
  0
VERTEX
  8
ROUTE_Z0P25LT130RAMP
 62
     3
 10
11.815004
 20
17.911052
 30
0.0
 42
0.169409313864041
  0
VERTEX
  8
ROUTE_Z0P25LT130RAMP
 62
     3
 10
10.784668
 20
38.2041
 30
0.0
  0
VERTEX
  8
ROUTE_Z0P25LT130RAMP
 62
     3
 10
13.853491
 20
35.395658
 30
0.0
 42
-0.313336960084096
  0
VERTEX
  8
ROUTE_Z0P25LT130RAMP
 62
     3
 10
1.508017
 20
-4.80000000067093E-05
 30
0.0
  0
VERTEX
  8
ROUTE_Z0P25LT130RAMP
 62
     3
 10
0
 20
1.380018
 30
0.0
 42
0.169409313864041
  0
VERTEX
  8
ROUTE_Z0P25LT130RAMP
 62
     3
 10
11.815004
 20
17.911052
 30
0.0
  0
SEQEND
  8
ROUTE_Z0P25LT130RAMP
 62
     3
  0
DIMENSION
  8
2D_DIM
  2
*D1
  3
BOARDERDIM
  1
15.054
 10
15.0542
 20
43.2041
 30
0.0
 11
7.5271
 21
43.2041
 31
0.0
 13
0
 23
38.2041
 14
15.0542
 24
38.2041
 33
0.0
 34
0.0
53
0
  0
DIMENSION
  8
2D_DIM
  2
*D1
  3
BOARDERDIM
  1
38.204
 10
-5
 20
38.2041
 30
0.0
 11
-5
 21
19.10205
 31
0
 13
0.0
 23
0
 14
0.0
 24
38.2041
 50
90.0
53
0
 33
0.0
 34
0.0
  0
DIMENSION
  8
2D_DIM
  2
*D1
  3
ROUTEDIM
  1
0
 10
0
 20
40.7041
 30
0.0
 11
0
 21
40.7041
 31
0.0
 13
0
 23
38.2041
 14
0
 24
38.2041
 33
0.0
 34
0.0
53
90
  0
DIMENSION
  8
2D_DIM
  2
*D1
  3
ROUTEDIM
  1
1.508
 10
1.508017
 20
40.7041
 30
0.0
 11
0.7540085
 21
40.7041
 31
0.0
 13
0
 23
38.2041
 14
1.508017
 24
38.2041
 33
0.0
 34
0.0
53
90
  0
DIMENSION
  8
2D_DIM
  2
*D1
  3
ROUTEDIM
  1
9.277
 10
10.784668
 20
40.7041
 30
0.0
 11
5.392334
 21
40.7041
 31
0.0
 13
1.508017
 23
38.2041
 14
10.784668
 24
38.2041
 33
0.0
 34
0.0
53
90
  0
DIMENSION
  8
2D_DIM
  2
*D1
  3
ROUTEDIM
  1
0.658
 10
11.442778
 20
40.7041
 30
0.0
 11
5.721389
 21
40.7041
 31
0.0
 13
10.784668
 23
38.2041
 14
11.442778
 24
38.2041
 33
0.0
 34
0.0
53
90
  0
DIMENSION
  8
2D_DIM
  2
*D1
  3
ROUTEDIM
  1
0.372
 10
11.815004
 20
40.7041
 30
0.0
 11
5.907502
 21
40.7041
 31
0.0
 13
11.442778
 23
38.2041
 14
11.815004
 24
38.2041
 33
0.0
 34
0.0
53
90
  0
DIMENSION
  8
2D_DIM
  2
*D1
  3
ROUTEDIM
  1
2.038
 10
13.853491
 20
40.7041
 30
0.0
 11
6.9267455
 21
40.7041
 31
0.0
 13
11.815004
 23
38.2041
 14
13.853491
 24
38.2041
 33
0.0
 34
0.0
53
90
  0
DIMENSION
  8
2D_DIM
  2
*D1
  3
ROUTEDIM
  1
1.201
 10
15.0542
 20
40.7041
 30
0.0
 11
7.5271
 21
40.7041
 31
0.0
 13
13.853491
 23
38.2041
 14
15.0542
 24
38.2041
 33
0.0
 34
0.0
53
90
  0
DIMENSION
  8
2D_DIM
  2
*D1
  3
ROUTEDIM
  1
0
 10
-2.5
 20
-4.80000000067093E-05
 30
0.0
 11
-2.5
 21
-2.40000000033547E-05
 31
0
 13
0.0
 23
0
 14
0.0
 24
-4.80000000067093E-05
 50
90.0
53
0
 33
0.0
 34
0.0
  0
DIMENSION
  8
2D_DIM
  2
*D1
  3
ROUTEDIM
  1
1.38
 10
-2.5
 20
1.380018
 30
0.0
 11
-2.5
 21
0.690009
 31
0
 13
0.0
 23
-4.80000000067093E-05
 14
0.0
 24
1.380018
 50
90.0
53
0
 33
0.0
 34
0.0
  0
DIMENSION
  8
2D_DIM
  2
*D1
  3
ROUTEDIM
  1
16.327
 10
-2.5
 20
17.707464
 30
0.0
 11
-2.5
 21
8.853732
 31
0
 13
0.0
 23
1.380018
 14
0.0
 24
17.707464
 50
90.0
53
0
 33
0.0
 34
0.0
  0
DIMENSION
  8
2D_DIM
  2
*D1
  3
ROUTEDIM
  1
0.204
 10
-2.5
 20
17.911052
 30
0.0
 11
-2.5
 21
8.955526
 31
0
 13
0.0
 23
17.707464
 14
0.0
 24
17.911052
 50
90.0
53
0
 33
0.0
 34
0.0
  0
DIMENSION
  8
2D_DIM
  2
*D1
  3
ROUTEDIM
  1
17.485
 10
-2.5
 20
35.395658
 30
0.0
 11
-2.5
 21
17.697829
 31
0
 13
0.0
 23
17.911052
 14
0.0
 24
35.395658
 50
90.0
53
0
 33
0.0
 34
0.0
  0
DIMENSION
  8
2D_DIM
  2
*D1
  3
ROUTEDIM
  1
2.808
 10
-2.5
 20
38.2041
 30
0.0
 11
-2.5
 21
19.10205
 31
0
 13
0.0
 23
35.395658
 14
0.0
 24
38.2041
 50
90.0
53
0
 33
0.0
 34
0.0
  0
DIMENSION
  8
2D_DIM
  2
*D1
  3
ROUTEDIM
  1
0
 10
-2.5
 20
38.2041
 30
0.0
 11
-2.5
 21
19.10205
 31
0
 13
0.0
 23
38.2041
 14
0.0
 24
38.2041
 50
90.0
53
0
 33
0.0
 34
0.0
  0
DIMENSION
  8
2D_DIM
  2
*D1
  3
ROUTEDIM
  1
11.527
 10
11.527097
 20
17.995371
 30
0.0
 11
5.7635485
 21
17.995371
 31
0.0
 13
0
 23
17.995371
 14
11.527097
 24
17.995371
 33
0.0
 34
0.0
53
90
  0
DIMENSION
  8
2D_DIM
  2
*D1
  3
ROUTEDIM
  1
17.995
 10
11.527097
 20
17.995371
 30
0.0
 11
11.527097
 21
8.9976855
 31
0
 13
11.527097
 23
0
 14
11.527097
 24
17.995371
 50
90.0
53
0
 33
0.0
 34
0.0
  0
DIMENSION
  8
2D_DIM
  2
*D1
  3
ROUTEDIM
  1
-17.787
 10
-17.7874775931689
 20
26.5807300211046
 30
0.0
 11
-8.89373879658444
 21
26.5807300211046
 31
0.0
 13
0
 23
26.5807300211046
 14
-17.7874775931689
 24
26.5807300211046
 33
0.0
 34
0.0
53
90
  0
DIMENSION
  8
2D_DIM
  2
*D1
  3
ROUTEDIM
  1
26.581
 10
-17.7874775931689
 20
26.5807300211046
 30
0.0
 11
-17.7874775931689
 21
13.2903650105523
 31
0
 13
-17.7874775931689
 23
0
 14
-17.7874775931689
 24
26.5807300211046
 50
90.0
53
0
 33
0.0
 34
0.0
  0
DIMENSION
  8
2D_DIM
  2
*D1
  3
ROUTEDIM
  1
-17.787
 10
-17.7874781764181
 20
26.5807298994195
 30
0.0
 11
-8.89373908820904
 21
26.5807298994195
 31
0.0
 13
0
 23
26.5807298994195
 14
-17.7874781764181
 24
26.5807298994195
 33
0.0
 34
0.0
53
90
  0
DIMENSION
  8
2D_DIM
  2
*D1
  3
ROUTEDIM
  1
26.581
 10
-17.7874781764181
 20
26.5807298994195
 30
0.0
 11
-17.7874781764181
 21
13.2903649497098
 31
0
 13
-17.7874781764181
 23
0
 14
-17.7874781764181
 24
26.5807298994195
 50
90.0
53
0
 33
0.0
 34
0.0
  0
DIMENSION
  8
2D_DIM
  2
*D1
  3
ROUTEDIM
  1
-17.787
 10
-17.7874781714034
 20
26.580730070378
 30
0.0
 11
-8.89373908570169
 21
26.580730070378
 31
0.0
 13
0
 23
26.580730070378
 14
-17.7874781714034
 24
26.580730070378
 33
0.0
 34
0.0
53
90
  0
DIMENSION
  8
2D_DIM
  2
*D1
  3
ROUTEDIM
  1
26.581
 10
-17.7874781714034
 20
26.580730070378
 30
0.0
 11
-17.7874781714034
 21
13.290365035189
 31
0
 13
-17.7874781714034
 23
0
 14
-17.7874781714034
 24
26.580730070378
 50
90.0
53
0
 33
0.0
 34
0.0
  0
TEXT
  8
ITEMNUMBER
 62
     1
 10
-7.5
 20
-5
 30
0.0
 40
0.5
  1
T31106.24
  0
TEXT
  8
DESCRIPTION
 62
     1
 10
-7.5
 20
-6
 30
0.0
 40
0.5
  1
P1B
  0
TEXT
  8
FILENAME
 62
     1
 10
-7.5
 20
-7
 30
0.0
 40
0.5
  1
5600AE5Q
  0
TEXT
  8
MATERIALNAME
 62
     1
 10
-7.5
 20
-8
 30
0.0
 40
0.5
  1
AB1826SEI-PF/4x10
  0
TEXT
  8
Qty
 62
     1
 10
-7.5
 20
-9
 30
0.0
 40
0.5
  1
1
  0
TEXT
  8
RUNFIELD
 62
     1
 10
8
 20
-1
 30
0.0
 40
0.5
  1
Mirrored
  0
ENDSEC
  0
EOF
