  0
SECTION
  2
TABLES
  0
TABLE
  2
DIMSTYLE
 70
     2
  0
DIMSTYLE
  2
BOARDERDIM
 70
     0
  3

  4

  5
_NONE
  6
_NONE
  7
_NONE
 40
1
 41
0.1
 42
0.0625
 43
0.38
 44
0.18
 45
0.00
 46
0.0
 47
0.0
 48
0.0
140
0.5
141
0.09
142
0.0
143
25.399999999999999
144
1.0
145
0.5
146
1.0
147
0.09
 71
     1
 72
     0
 73
     1
 74
     0
 75
     0
 76
     0
 77
     2
 78
     0
170
     0
171
     2
172
     0
173
     0
174
     1
175
      0
176
5
177
5
178
     1
271
3
272
3
  0
ENDTAB
  0
TABLE
  2
DIMSTYLE
 70
     2
  0
DIMSTYLE
  2
VDRILLDIM
 70
     0
  3

  4

  5
_NONE
  6
_NONE
  7
_NONE
 40
1
 41
0.1
 42
0.0625
 43
0.38
 44
0.18
 45
0.00
 46
0.0
 47
0.0
 48
0.0
140
0.5
141
0.09
142
0.0
143
25.399999999999999
144
1.0
145
0.5
146
1.0
147
0.09
 71
     1
 72
     0
 73
     1
 74
     0
 75
     0
 76
     0
 77
     2
 78
     0
170
     0
171
     2
172
     0
173
     0
174
     1
175
      0
176
5
177
5
178
     1
271
3
272
3
  0
ENDTAB
  0
TABLE
  2
DIMSTYLE
 70
     2
  0
DIMSTYLE
  2
HDRILLDIM
 70
     0
  3

  4

  5
_NONE
  6
_NONE
  7
_NONE
 40
1
 41
0.1
 42
0.0625
 43
0.38
 44
0.18
 45
0.00
 46
0.0
 47
0.0
 48
0.0
140
0.5
141
0.09
142
0.0
143
25.399999999999999
144
1.0
145
0.5
146
1.0
147
0.09
 71
     1
 72
     0
 73
     1
 74
     0
 75
     0
 76
     0
 77
     2
 78
     0
170
     0
171
     2
172
     0
173
     0
174
     1
175
      0
176
5
177
5
178
     1
271
3
272
3
  0
ENDTAB
  0
TABLE
  2
DIMSTYLE
 70
     2
  0
DIMSTYLE
  2
ROUTEDIM
 70
     0
  3

  4

  5
_NONE
  6
_NONE
  7
_NONE
 40
1
 41
0.1
 42
0.0625
 43
0.38
 44
0.18
 45
0.00
 46
0.0
 47
0.0
 48
0.0
140
0.5
141
0.09
142
0.0
143
25.399999999999999
144
1.0
145
0.5
146
1.0
147
0.09
 71
     1
 72
     0
 73
     1
 74
     0
 75
     0
 76
     0
 77
     2
 78
     0
170
     0
171
     2
172
     0
173
     0
174
     1
175
      0
176
5
177
5
178
     1
271
3
272
3
  0
ENDTAB
  0
TABLE
  2
DIMSTYLE
 70
     2
  0
DIMSTYLE
  2
SAWDIM
 70
     0
  3

  4

  5
_NONE
  6
_NONE
  7
_NONE
 40
1
 41
0.1
 42
0.0625
 43
0.38
 44
0.18
 45
0.00
 46
0.0
 47
0.0
 48
0.0
140
0.5
141
0.09
142
0.0
143
25.399999999999999
144
1.0
145
0.5
146
1.0
147
0.09
 71
     1
 72
     0
 73
     1
 74
     0
 75
     0
 76
     0
 77
     2
 78
     0
170
     0
171
     2
172
     0
173
     0
174
     1
175
      0
176
5
177
5
178
     1
271
3
272
3
  0
ENDTAB
  0
TABLE
  2
VPORT
 70
     1
  0
VPORT
  2
*ACTIVE
 70
     0
 10
0.0
 20
0.0
 11
1.0
 21
1.0
 12
0.0
 22
0.0
 13
0.0
 23
0.0
 14
1.0
 24
1.0
 15
0.0
 25
0.0
 16
0.0
 26
0.0
 36
1.0
 17
0.0
 27
0.0
 37
0.0
 40
84
 41
2.0
 42
50.0
 43
0.0
 44
0.0
 50
0.0
 51
0.0
 71
     0
 72
   100
 73
     1
 74
     0
 75
     1
 76
     0
 77
     0
 78
     0
  0
ENDTAB
  0
ENDSEC
  0
SECTION
  2
ENTITIES
  0
POLYLINE
  8
BORDER_Z0P74
 62
     7
 66
     1
 10
0.0
 20
0.0
 30
0.0
 70
     1
  0
VERTEX
  8
BORDER_Z0P74
 62
     7
 10
0.0
 20
0.0
 30
0.0
  0
VERTEX
  8
BORDER_Z0P74
 62
     7
 10
0.0
 20
49.3903
 30
0.0
  0
VERTEX
  8
BORDER_Z0P74
 62
     7
 10
70.4346
 20
49.3903
 30
0.0
  0
VERTEX
  8
BORDER_Z0P74
 62
     7
 10
70.4346
 20
0.0
 30
0.0
  0
SEQEND
  8
BORDER_Z0P74
 62
     7
  0
POLYLINE
  8
ROUTE_Z0P75LT130RAMP
 62
     3
 66
     1
 10
0.0
 20
0.0
 30
0.0
 70
     0
  0
VERTEX
  8
ROUTE_Z0P75LT130RAMP
 62
     3
 10
70.909585
 20
12.966187
 30
0.0
  0
VERTEX
  8
ROUTE_Z0P75LT130RAMP
 62
     3
 10
70.534585
 20
12.966187
 30
0.0
  0
VERTEX
  8
ROUTE_Z0P75LT130RAMP
 62
     3
 10
56.434585
 20
12.966187
 30
0.0
  0
VERTEX
  8
ROUTE_Z0P75LT130RAMP
 62
     3
 10
56.434585
 20
12.216187
 30
0.0
  0
VERTEX
  8
ROUTE_Z0P75LT130RAMP
 62
     3
 10
50.26836
 20
12.216187
 30
0.0
  0
VERTEX
  8
ROUTE_Z0P75LT130RAMP
 62
     3
 10
50.26836
 20
-0.0999589999999984
 30
0.0
  0
VERTEX
  8
ROUTE_Z0P75LT130RAMP
 62
     3
 10
50.26836
 20
-0.474958999999998
 30
0.0
  0
SEQEND
  8
ROUTE_Z0P75LT130RAMP
 62
     3
  0
POLYLINE
  8
ROUTE_Z0P75LT130RAMP
 62
     3
 66
     1
 10
0.0
 20
0.0
 30
0.0
 70
     0
  0
VERTEX
  8
ROUTE_Z0P75LT130RAMP
 62
     3
 10
46.004665
 20
28.574893
 30
0.0
  0
VERTEX
  8
ROUTE_Z0P75LT130RAMP
 62
     3
 10
46.004665
 20
29.574893
 30
0.0
  0
VERTEX
  8
ROUTE_Z0P75LT130RAMP
 62
     3
 10
46.004665
 20
47.886942
 30
0.0
  0
VERTEX
  8
ROUTE_Z0P75LT130RAMP
 62
     3
 10
15.314135
 20
47.886942
 30
0.0
  0
VERTEX
  8
ROUTE_Z0P75LT130RAMP
 62
     3
 10
15.314135
 20
47.136942
 30
0.0
  0
VERTEX
  8
ROUTE_Z0P75LT130RAMP
 62
     3
 10
9.531846
 20
47.136942
 30
0.0
  0
VERTEX
  8
ROUTE_Z0P75LT130RAMP
 62
     3
 10
9.531846
 20
12.012844
 30
0.0
  0
VERTEX
  8
ROUTE_Z0P75LT130RAMP
 62
     3
 10
15.314135
 20
12.012844
 30
0.0
  0
VERTEX
  8
ROUTE_Z0P75LT130RAMP
 62
     3
 10
15.314135
 20
11.262844
 30
0.0
  0
VERTEX
  8
ROUTE_Z0P75LT130RAMP
 62
     3
 10
46.004665
 20
11.262844
 30
0.0
  0
VERTEX
  8
ROUTE_Z0P75LT130RAMP
 62
     3
 10
46.004665
 20
29.574893
 30
0.0
  0
SEQEND
  8
ROUTE_Z0P75LT130RAMP
 62
     3
  0
POLYLINE
  8
ROUTE_Z0P75LT130RAMP
 62
     3
 66
     1
 10
0.0
 20
0.0
 30
0.0
 70
     0
  0
VERTEX
  8
ROUTE_Z0P75LT130RAMP
 62
     3
 10
67.12872
 20
35.965667
 30
0.0
  0
VERTEX
  8
ROUTE_Z0P75LT130RAMP
 62
     3
 10
67.12872
 20
36.965667
 30
0.0
  0
VERTEX
  8
ROUTE_Z0P75LT130RAMP
 62
     3
 10
67.12872
 20
45.965867
 30
0.0
  0
VERTEX
  8
ROUTE_Z0P75LT130RAMP
 62
     3
 10
53.12872
 20
45.965867
 30
0.0
  0
VERTEX
  8
ROUTE_Z0P75LT130RAMP
 62
     3
 10
53.12872
 20
45.215867
 30
0.0
  0
VERTEX
  8
ROUTE_Z0P75LT130RAMP
 62
     3
 10
49.61264
 20
45.215867
 30
0.0
  0
VERTEX
  8
ROUTE_Z0P75LT130RAMP
 62
     3
 10
49.61264
 20
28.715467
 30
0.0
  0
VERTEX
  8
ROUTE_Z0P75LT130RAMP
 62
     3
 10
53.12872
 20
28.715467
 30
0.0
  0
VERTEX
  8
ROUTE_Z0P75LT130RAMP
 62
     3
 10
53.12872
 20
27.965467
 30
0.0
  0
VERTEX
  8
ROUTE_Z0P75LT130RAMP
 62
     3
 10
67.12872
 20
27.965467
 30
0.0
  0
VERTEX
  8
ROUTE_Z0P75LT130RAMP
 62
     3
 10
67.12872
 20
36.965667
 30
0.0
  0
SEQEND
  8
ROUTE_Z0P75LT130RAMP
 62
     3
  0
DIMENSION
  8
2D_DIM
  2
*D1
  3
BOARDERDIM
  1
70.435
 10
70.4346
 20
54.3903
 30
0.0
 11
35.2173
 21
54.3903
 31
0.0
 13
0
 23
49.3903
 14
70.4346
 24
49.3903
 33
0.0
 34
0.0
53
0
  0
DIMENSION
  8
2D_DIM
  2
*D1
  3
BOARDERDIM
  1
49.39
 10
-5
 20
49.3903
 30
0.0
 11
-5
 21
24.69515
 31
0
 13
0.0
 23
0
 14
0.0
 24
49.3903
 50
90.0
53
0
 33
0.0
 34
0.0
  0
DIMENSION
  8
2D_DIM
  2
*D1
  3
ROUTEDIM
  1
9.532
 10
9.531846
 20
51.8903
 30
0.0
 11
4.765923
 21
51.8903
 31
0.0
 13
0
 23
49.3903
 14
9.531846
 24
49.3903
 33
0.0
 34
0.0
53
90
  0
DIMENSION
  8
2D_DIM
  2
*D1
  3
ROUTEDIM
  1
5.782
 10
15.314135
 20
51.8903
 30
0.0
 11
7.6570675
 21
51.8903
 31
0.0
 13
9.531846
 23
49.3903
 14
15.314135
 24
49.3903
 33
0.0
 34
0.0
53
90
  0
DIMENSION
  8
2D_DIM
  2
*D1
  3
ROUTEDIM
  1
30.691
 10
46.004665
 20
51.8903
 30
0.0
 11
23.0023325
 21
51.8903
 31
0.0
 13
15.314135
 23
49.3903
 14
46.004665
 24
49.3903
 33
0.0
 34
0.0
53
90
  0
DIMENSION
  8
2D_DIM
  2
*D1
  3
ROUTEDIM
  1
3.608
 10
49.61264
 20
51.8903
 30
0.0
 11
24.80632
 21
51.8903
 31
0.0
 13
46.004665
 23
49.3903
 14
49.61264
 24
49.3903
 33
0.0
 34
0.0
53
90
  0
DIMENSION
  8
2D_DIM
  2
*D1
  3
ROUTEDIM
  1
0.656
 10
50.26836
 20
51.8903
 30
0.0
 11
25.13418
 21
51.8903
 31
0.0
 13
49.61264
 23
49.3903
 14
50.26836
 24
49.3903
 33
0.0
 34
0.0
53
90
  0
DIMENSION
  8
2D_DIM
  2
*D1
  3
ROUTEDIM
  1
2.86
 10
53.12872
 20
51.8903
 30
0.0
 11
26.56436
 21
51.8903
 31
0.0
 13
50.26836
 23
49.3903
 14
53.12872
 24
49.3903
 33
0.0
 34
0.0
53
90
  0
DIMENSION
  8
2D_DIM
  2
*D1
  3
ROUTEDIM
  1
3.306
 10
56.434585
 20
51.8903
 30
0.0
 11
28.2172925
 21
51.8903
 31
0.0
 13
53.12872
 23
49.3903
 14
56.434585
 24
49.3903
 33
0.0
 34
0.0
53
90
  0
DIMENSION
  8
2D_DIM
  2
*D1
  3
ROUTEDIM
  1
10.694
 10
67.12872
 20
51.8903
 30
0.0
 11
33.56436
 21
51.8903
 31
0.0
 13
56.434585
 23
49.3903
 14
67.12872
 24
49.3903
 33
0.0
 34
0.0
53
90
  0
DIMENSION
  8
2D_DIM
  2
*D1
  3
ROUTEDIM
  1
3.406
 10
70.534585
 20
51.8903
 30
0.0
 11
35.2672925
 21
51.8903
 31
0.0
 13
67.12872
 23
49.3903
 14
70.534585
 24
49.3903
 33
0.0
 34
0.0
53
90
  0
DIMENSION
  8
2D_DIM
  2
*D1
  3
ROUTEDIM
  1
0.375
 10
70.909585
 20
51.8903
 30
0.0
 11
35.4547925
 21
51.8903
 31
0.0
 13
70.534585
 23
49.3903
 14
70.909585
 24
49.3903
 33
0.0
 34
0.0
53
90
  0
DIMENSION
  8
2D_DIM
  2
*D1
  3
ROUTEDIM
  1
-0.475
 10
70.4346
 20
51.8903
 30
0.0
 11
35.2173
 21
51.8903
 31
0.0
 13
70.909585
 23
49.3903
 14
70.4346
 24
49.3903
 33
0.0
 34
0.0
53
90
  0
DIMENSION
  8
2D_DIM
  2
*D1
  3
ROUTEDIM
  1
0.475
 10
-2.5
 20
-0.474958999999998
 30
0.0
 11
-2.5
 21
-0.237479499999999
 31
0
 13
0.0
 23
0
 14
0.0
 24
-0.474958999999998
 50
90.0
53
0
 33
0.0
 34
0.0
  0
DIMENSION
  8
2D_DIM
  2
*D1
  3
ROUTEDIM
  1
0.375
 10
-2.5
 20
-0.0999589999999984
 30
0.0
 11
-2.5
 21
-0.0499794999999992
 31
0
 13
0.0
 23
-0.474958999999998
 14
0.0
 24
-0.0999589999999984
 50
90.0
53
0
 33
0.0
 34
0.0
  0
DIMENSION
  8
2D_DIM
  2
*D1
  3
ROUTEDIM
  1
11.363
 10
-2.5
 20
11.262844
 30
0.0
 11
-2.5
 21
5.631422
 31
0
 13
0.0
 23
-0.0999589999999984
 14
0.0
 24
11.262844
 50
90.0
53
0
 33
0.0
 34
0.0
  0
DIMENSION
  8
2D_DIM
  2
*D1
  3
ROUTEDIM
  1
0.75
 10
-2.5
 20
12.012844
 30
0.0
 11
-2.5
 21
6.006422
 31
0
 13
0.0
 23
11.262844
 14
0.0
 24
12.012844
 50
90.0
53
0
 33
0.0
 34
0.0
  0
DIMENSION
  8
2D_DIM
  2
*D1
  3
ROUTEDIM
  1
0.203
 10
-2.5
 20
12.216187
 30
0.0
 11
-2.5
 21
6.1080935
 31
0
 13
0.0
 23
12.012844
 14
0.0
 24
12.216187
 50
90.0
53
0
 33
0.0
 34
0.0
  0
DIMENSION
  8
2D_DIM
  2
*D1
  3
ROUTEDIM
  1
0.75
 10
-2.5
 20
12.966187
 30
0.0
 11
-2.5
 21
6.4830935
 31
0
 13
0.0
 23
12.216187
 14
0.0
 24
12.966187
 50
90.0
53
0
 33
0.0
 34
0.0
  0
DIMENSION
  8
2D_DIM
  2
*D1
  3
ROUTEDIM
  1
14.999
 10
-2.5
 20
27.965467
 30
0.0
 11
-2.5
 21
13.9827335
 31
0
 13
0.0
 23
12.966187
 14
0.0
 24
27.965467
 50
90.0
53
0
 33
0.0
 34
0.0
  0
DIMENSION
  8
2D_DIM
  2
*D1
  3
ROUTEDIM
  1
0.609
 10
-2.5
 20
28.574893
 30
0.0
 11
-2.5
 21
14.2874465
 31
0
 13
0.0
 23
27.965467
 14
0.0
 24
28.574893
 50
90.0
53
0
 33
0.0
 34
0.0
  0
DIMENSION
  8
2D_DIM
  2
*D1
  3
ROUTEDIM
  1
0.141
 10
-2.5
 20
28.715467
 30
0.0
 11
-2.5
 21
14.3577335
 31
0
 13
0.0
 23
28.574893
 14
0.0
 24
28.715467
 50
90.0
53
0
 33
0.0
 34
0.0
  0
DIMENSION
  8
2D_DIM
  2
*D1
  3
ROUTEDIM
  1
0.859
 10
-2.5
 20
29.574893
 30
0.0
 11
-2.5
 21
14.7874465
 31
0
 13
0.0
 23
28.715467
 14
0.0
 24
29.574893
 50
90.0
53
0
 33
0.0
 34
0.0
  0
DIMENSION
  8
2D_DIM
  2
*D1
  3
ROUTEDIM
  1
6.391
 10
-2.5
 20
35.965667
 30
0.0
 11
-2.5
 21
17.9828335
 31
0
 13
0.0
 23
29.574893
 14
0.0
 24
35.965667
 50
90.0
53
0
 33
0.0
 34
0.0
  0
DIMENSION
  8
2D_DIM
  2
*D1
  3
ROUTEDIM
  1
1
 10
-2.5
 20
36.965667
 30
0.0
 11
-2.5
 21
18.4828335
 31
0
 13
0.0
 23
35.965667
 14
0.0
 24
36.965667
 50
90.0
53
0
 33
0.0
 34
0.0
  0
DIMENSION
  8
2D_DIM
  2
*D1
  3
ROUTEDIM
  1
8.25
 10
-2.5
 20
45.215867
 30
0.0
 11
-2.5
 21
22.6079335
 31
0
 13
0.0
 23
36.965667
 14
0.0
 24
45.215867
 50
90.0
53
0
 33
0.0
 34
0.0
  0
DIMENSION
  8
2D_DIM
  2
*D1
  3
ROUTEDIM
  1
0.75
 10
-2.5
 20
45.965867
 30
0.0
 11
-2.5
 21
22.9829335
 31
0
 13
0.0
 23
45.215867
 14
0.0
 24
45.965867
 50
90.0
53
0
 33
0.0
 34
0.0
  0
DIMENSION
  8
2D_DIM
  2
*D1
  3
ROUTEDIM
  1
1.171
 10
-2.5
 20
47.136942
 30
0.0
 11
-2.5
 21
23.568471
 31
0
 13
0.0
 23
45.965867
 14
0.0
 24
47.136942
 50
90.0
53
0
 33
0.0
 34
0.0
  0
DIMENSION
  8
2D_DIM
  2
*D1
  3
ROUTEDIM
  1
0.75
 10
-2.5
 20
47.886942
 30
0.0
 11
-2.5
 21
23.943471
 31
0
 13
0.0
 23
47.136942
 14
0.0
 24
47.886942
 50
90.0
53
0
 33
0.0
 34
0.0
  0
DIMENSION
  8
2D_DIM
  2
*D1
  3
ROUTEDIM
  1
1.503
 10
-2.5
 20
49.3903
 30
0.0
 11
-2.5
 21
24.69515
 31
0
 13
0.0
 23
47.886942
 14
0.0
 24
49.3903
 50
90.0
53
0
 33
0.0
 34
0.0
  0
TEXT
  8
ITEMNUMBER
 62
     1
 10
-7.5
 20
-5
 30
0.0
 40
0.5
  1
M3100.04
  0
TEXT
  8
DESCRIPTION
 62
     1
 10
-7.5
 20
-6
 30
0.0
 40
0.5
  1
subpanel
  0
TEXT
  8
FILENAME
 62
     1
 10
-7.5
 20
-7
 30
0.0
 40
0.5
  1
5600ADEQ
  0
TEXT
  8
MATERIALNAME
 62
     1
 10
-7.5
 20
-8
 30
0.0
 40
0.5
  1
PLY/3-4OSB/NAF/4x8
  0
TEXT
  8
Qty
 62
     1
 10
-7.5
 20
-9
 30
0.0
 40
0.5
  1
1
  0
TEXT
  8
RUNFIELD
 62
     1
 10
8
 20
-1
 30
0.0
 40
0.5
  1
Mirrored
  0
ENDSEC
  0
EOF
