  0
SECTION
  2
TABLES
  0
TABLE
  2
DIMSTYLE
 70
     2
  0
DIMSTYLE
  2
BOARDERDIM
 70
     0
  3

  4

  5
_NONE
  6
_NONE
  7
_NONE
 40
1
 41
0.1
 42
0.0625
 43
0.38
 44
0.18
 45
0.00
 46
0.0
 47
0.0
 48
0.0
140
0.5
141
0.09
142
0.0
143
25.399999999999999
144
1.0
145
0.5
146
1.0
147
0.09
 71
     1
 72
     0
 73
     1
 74
     0
 75
     0
 76
     0
 77
     2
 78
     0
170
     0
171
     2
172
     0
173
     0
174
     1
175
      0
176
5
177
5
178
     1
271
3
272
3
  0
ENDTAB
  0
TABLE
  2
DIMSTYLE
 70
     2
  0
DIMSTYLE
  2
VDRILLDIM
 70
     0
  3

  4

  5
_NONE
  6
_NONE
  7
_NONE
 40
1
 41
0.1
 42
0.0625
 43
0.38
 44
0.18
 45
0.00
 46
0.0
 47
0.0
 48
0.0
140
0.5
141
0.09
142
0.0
143
25.399999999999999
144
1.0
145
0.5
146
1.0
147
0.09
 71
     1
 72
     0
 73
     1
 74
     0
 75
     0
 76
     0
 77
     2
 78
     0
170
     0
171
     2
172
     0
173
     0
174
     1
175
      0
176
5
177
5
178
     1
271
3
272
3
  0
ENDTAB
  0
TABLE
  2
DIMSTYLE
 70
     2
  0
DIMSTYLE
  2
HDRILLDIM
 70
     0
  3

  4

  5
_NONE
  6
_NONE
  7
_NONE
 40
1
 41
0.1
 42
0.0625
 43
0.38
 44
0.18
 45
0.00
 46
0.0
 47
0.0
 48
0.0
140
0.5
141
0.09
142
0.0
143
25.399999999999999
144
1.0
145
0.5
146
1.0
147
0.09
 71
     1
 72
     0
 73
     1
 74
     0
 75
     0
 76
     0
 77
     2
 78
     0
170
     0
171
     2
172
     0
173
     0
174
     1
175
      0
176
5
177
5
178
     1
271
3
272
3
  0
ENDTAB
  0
TABLE
  2
DIMSTYLE
 70
     2
  0
DIMSTYLE
  2
ROUTEDIM
 70
     0
  3

  4

  5
_NONE
  6
_NONE
  7
_NONE
 40
1
 41
0.1
 42
0.0625
 43
0.38
 44
0.18
 45
0.00
 46
0.0
 47
0.0
 48
0.0
140
0.5
141
0.09
142
0.0
143
25.399999999999999
144
1.0
145
0.5
146
1.0
147
0.09
 71
     1
 72
     0
 73
     1
 74
     0
 75
     0
 76
     0
 77
     2
 78
     0
170
     0
171
     2
172
     0
173
     0
174
     1
175
      0
176
5
177
5
178
     1
271
3
272
3
  0
ENDTAB
  0
TABLE
  2
DIMSTYLE
 70
     2
  0
DIMSTYLE
  2
SAWDIM
 70
     0
  3

  4

  5
_NONE
  6
_NONE
  7
_NONE
 40
1
 41
0.1
 42
0.0625
 43
0.38
 44
0.18
 45
0.00
 46
0.0
 47
0.0
 48
0.0
140
0.5
141
0.09
142
0.0
143
25.399999999999999
144
1.0
145
0.5
146
1.0
147
0.09
 71
     1
 72
     0
 73
     1
 74
     0
 75
     0
 76
     0
 77
     2
 78
     0
170
     0
171
     2
172
     0
173
     0
174
     1
175
      0
176
5
177
5
178
     1
271
3
272
3
  0
ENDTAB
  0
TABLE
  2
VPORT
 70
     1
  0
VPORT
  2
*ACTIVE
 70
     0
 10
0.0
 20
0.0
 11
1.0
 21
1.0
 12
0.0
 22
0.0
 13
0.0
 23
0.0
 14
1.0
 24
1.0
 15
0.0
 25
0.0
 16
0.0
 26
0.0
 36
1.0
 17
0.0
 27
0.0
 37
0.0
 40
84
 41
2.0
 42
50.0
 43
0.0
 44
0.0
 50
0.0
 51
0.0
 71
     0
 72
   100
 73
     1
 74
     0
 75
     1
 76
     0
 77
     0
 78
     0
  0
ENDTAB
  0
ENDSEC
  0
SECTION
  2
ENTITIES
  0
POLYLINE
  8
BORDER_Z0P04
 62
     7
 66
     1
 10
0.0
 20
0.0
 30
0.0
 70
     1
  0
VERTEX
  8
BORDER_Z0P04
 62
     7
 10
0.0
 20
0.0
 30
0.0
  0
VERTEX
  8
BORDER_Z0P04
 62
     7
 10
0.0
 20
29.2874
 30
0.0
  0
VERTEX
  8
BORDER_Z0P04
 62
     7
 10
7.9665
 20
29.2874
 30
0.0
  0
VERTEX
  8
BORDER_Z0P04
 62
     7
 10
7.9665
 20
0.0
 30
0.0
  0
SEQEND
  8
BORDER_Z0P04
 62
     7
  0
POLYLINE
  8
ROUTE_Z0P25LT130RAMP
 62
     3
 66
     1
 10
0.0
 20
0.0
 30
0.0
 70
     0
  0
VERTEX
  8
ROUTE_Z0P25LT130RAMP
 62
     3
 10
2.680254
 20
14.955021
 30
0.0
 42
0.414213562373095
  0
VERTEX
  8
ROUTE_Z0P25LT130RAMP
 62
     3
 10
2.338967
 20
14.702979
 30
0.0
 42
0.12144028675302
  0
VERTEX
  8
ROUTE_Z0P25LT130RAMP
 62
     3
 10
3.701317
 20
-1.99999999992428E-05
 30
0.0
  0
VERTEX
  8
ROUTE_Z0P25LT130RAMP
 62
     3
 10
1.200648
 20
1.30012
 30
0.0
 42
-0.227557706138863
  0
VERTEX
  8
ROUTE_Z0P25LT130RAMP
 62
     3
 10
6.172241
 20
29.2874
 30
0.0
  0
VERTEX
  8
ROUTE_Z0P25LT130RAMP
 62
     3
 10
7.966474
 20
28.354548
 30
0.0
 42
0.12144028675302
  0
VERTEX
  8
ROUTE_Z0P25LT130RAMP
 62
     3
 10
2.338967
 20
14.702979
 30
0.0
  0
SEQEND
  8
ROUTE_Z0P25LT130RAMP
 62
     3
  0
DIMENSION
  8
2D_DIM
  2
*D1
  3
BOARDERDIM
  1
7.966
 10
7.9665
 20
34.2874
 30
0.0
 11
3.98325
 21
34.2874
 31
0.0
 13
0
 23
29.2874
 14
7.9665
 24
29.2874
 33
0.0
 34
0.0
53
0
  0
DIMENSION
  8
2D_DIM
  2
*D1
  3
BOARDERDIM
  1
29.287
 10
-5
 20
29.2874
 30
0.0
 11
-5
 21
14.6437
 31
0
 13
0.0
 23
0
 14
0.0
 24
29.2874
 50
90.0
53
0
 33
0.0
 34
0.0
  0
DIMENSION
  8
2D_DIM
  2
*D1
  3
ROUTEDIM
  1
1.201
 10
1.200648
 20
31.7874
 30
0.0
 11
0.600324
 21
31.7874
 31
0.0
 13
0
 23
29.2874
 14
1.200648
 24
29.2874
 33
0.0
 34
0.0
53
90
  0
DIMENSION
  8
2D_DIM
  2
*D1
  3
ROUTEDIM
  1
1.138
 10
2.338967
 20
31.7874
 30
0.0
 11
1.1694835
 21
31.7874
 31
0.0
 13
1.200648
 23
29.2874
 14
2.338967
 24
29.2874
 33
0.0
 34
0.0
53
90
  0
DIMENSION
  8
2D_DIM
  2
*D1
  3
ROUTEDIM
  1
0.341
 10
2.680254
 20
31.7874
 30
0.0
 11
1.340127
 21
31.7874
 31
0.0
 13
2.338967
 23
29.2874
 14
2.680254
 24
29.2874
 33
0.0
 34
0.0
53
90
  0
DIMENSION
  8
2D_DIM
  2
*D1
  3
ROUTEDIM
  1
1.021
 10
3.701317
 20
31.7874
 30
0.0
 11
1.8506585
 21
31.7874
 31
0.0
 13
2.680254
 23
29.2874
 14
3.701317
 24
29.2874
 33
0.0
 34
0.0
53
90
  0
DIMENSION
  8
2D_DIM
  2
*D1
  3
ROUTEDIM
  1
2.471
 10
6.172241
 20
31.7874
 30
0.0
 11
3.0861205
 21
31.7874
 31
0.0
 13
3.701317
 23
29.2874
 14
6.172241
 24
29.2874
 33
0.0
 34
0.0
53
90
  0
DIMENSION
  8
2D_DIM
  2
*D1
  3
ROUTEDIM
  1
1.794
 10
7.966474
 20
31.7874
 30
0.0
 11
3.983237
 21
31.7874
 31
0.0
 13
6.172241
 23
29.2874
 14
7.966474
 24
29.2874
 33
0.0
 34
0.0
53
90
  0
DIMENSION
  8
2D_DIM
  2
*D1
  3
ROUTEDIM
  1
0
 10
7.9665
 20
31.7874
 30
0.0
 11
3.98325
 21
31.7874
 31
0.0
 13
7.966474
 23
29.2874
 14
7.9665
 24
29.2874
 33
0.0
 34
0.0
53
90
  0
DIMENSION
  8
2D_DIM
  2
*D1
  3
ROUTEDIM
  1
0
 10
-2.5
 20
-1.99999999992428E-05
 30
0.0
 11
-2.5
 21
-9.9999999996214E-06
 31
0
 13
0.0
 23
0
 14
0.0
 24
-1.99999999992428E-05
 50
90.0
53
0
 33
0.0
 34
0.0
  0
DIMENSION
  8
2D_DIM
  2
*D1
  3
ROUTEDIM
  1
1.3
 10
-2.5
 20
1.30012
 30
0.0
 11
-2.5
 21
0.65006
 31
0
 13
0.0
 23
-1.99999999992428E-05
 14
0.0
 24
1.30012
 50
90.0
53
0
 33
0.0
 34
0.0
  0
DIMENSION
  8
2D_DIM
  2
*D1
  3
ROUTEDIM
  1
13.403
 10
-2.5
 20
14.702979
 30
0.0
 11
-2.5
 21
7.3514895
 31
0
 13
0.0
 23
1.30012
 14
0.0
 24
14.702979
 50
90.0
53
0
 33
0.0
 34
0.0
  0
DIMENSION
  8
2D_DIM
  2
*D1
  3
ROUTEDIM
  1
0.252
 10
-2.5
 20
14.955021
 30
0.0
 11
-2.5
 21
7.4775105
 31
0
 13
0.0
 23
14.702979
 14
0.0
 24
14.955021
 50
90.0
53
0
 33
0.0
 34
0.0
  0
DIMENSION
  8
2D_DIM
  2
*D1
  3
ROUTEDIM
  1
13.4
 10
-2.5
 20
28.354548
 30
0.0
 11
-2.5
 21
14.177274
 31
0
 13
0.0
 23
14.955021
 14
0.0
 24
28.354548
 50
90.0
53
0
 33
0.0
 34
0.0
  0
DIMENSION
  8
2D_DIM
  2
*D1
  3
ROUTEDIM
  1
0.933
 10
-2.5
 20
29.2874
 30
0.0
 11
-2.5
 21
14.6437
 31
0
 13
0.0
 23
28.354548
 14
0.0
 24
29.2874
 50
90.0
53
0
 33
0.0
 34
0.0
  0
DIMENSION
  8
2D_DIM
  2
*D1
  3
ROUTEDIM
  1
0
 10
-2.5
 20
29.2874
 30
0.0
 11
-2.5
 21
14.6437
 31
0
 13
0.0
 23
29.2874
 14
0.0
 24
29.2874
 50
90.0
53
0
 33
0.0
 34
0.0
  0
DIMENSION
  8
2D_DIM
  2
*D1
  3
ROUTEDIM
  1
2.636
 10
2.6356315
 20
14.6583565
 30
0.0
 11
1.31781575
 21
14.6583565
 31
0.0
 13
0
 23
14.6583565
 14
2.6356315
 24
14.6583565
 33
0.0
 34
0.0
53
90
  0
DIMENSION
  8
2D_DIM
  2
*D1
  3
ROUTEDIM
  1
14.658
 10
2.6356315
 20
14.6583565
 30
0.0
 11
2.6356315
 21
7.32917825
 31
0
 13
2.6356315
 23
0
 14
2.6356315
 24
14.6583565
 50
90.0
53
0
 33
0.0
 34
0.0
  0
DIMENSION
  8
2D_DIM
  2
*D1
  3
ROUTEDIM
  1
32.842
 10
32.8417179636123
 20
10.1146861093473
 30
0.0
 11
16.4208589818062
 21
10.1146861093473
 31
0.0
 13
0
 23
10.1146861093473
 14
32.8417179636123
 24
10.1146861093473
 33
0.0
 34
0.0
53
90
  0
DIMENSION
  8
2D_DIM
  2
*D1
  3
ROUTEDIM
  1
10.115
 10
32.8417179636123
 20
10.1146861093473
 30
0.0
 11
32.8417179636123
 21
5.05734305467366
 31
0
 13
32.8417179636123
 23
0
 14
32.8417179636123
 24
10.1146861093473
 50
90.0
53
0
 33
0.0
 34
0.0
  0
DIMENSION
  8
2D_DIM
  2
*D1
  3
ROUTEDIM
  1
32.842
 10
32.8417177429538
 20
10.1146874939274
 30
0.0
 11
16.4208588714769
 21
10.1146874939274
 31
0.0
 13
0
 23
10.1146874939274
 14
32.8417177429538
 24
10.1146874939274
 33
0.0
 34
0.0
53
90
  0
DIMENSION
  8
2D_DIM
  2
*D1
  3
ROUTEDIM
  1
10.115
 10
32.8417177429538
 20
10.1146874939274
 30
0.0
 11
32.8417177429538
 21
5.05734374696368
 31
0
 13
32.8417177429538
 23
0
 14
32.8417177429538
 24
10.1146874939274
 50
90.0
53
0
 33
0.0
 34
0.0
  0
DIMENSION
  8
2D_DIM
  2
*D1
  3
ROUTEDIM
  1
32.842
 10
32.8417179593615
 20
10.1146888961549
 30
0.0
 11
16.4208589796808
 21
10.1146888961549
 31
0.0
 13
0
 23
10.1146888961549
 14
32.8417179593615
 24
10.1146888961549
 33
0.0
 34
0.0
53
90
  0
DIMENSION
  8
2D_DIM
  2
*D1
  3
ROUTEDIM
  1
10.115
 10
32.8417179593615
 20
10.1146888961549
 30
0.0
 11
32.8417179593615
 21
5.05734444807744
 31
0
 13
32.8417179593615
 23
0
 14
32.8417179593615
 24
10.1146888961549
 50
90.0
53
0
 33
0.0
 34
0.0
  0
TEXT
  8
ITEMNUMBER
 62
     1
 10
-7.5
 20
-5
 30
0.0
 40
0.5
  1
T31106.24
  0
TEXT
  8
DESCRIPTION
 62
     1
 10
-7.5
 20
-6
 30
0.0
 40
0.5
  1
P2A
  0
TEXT
  8
FILENAME
 62
     1
 10
-7.5
 20
-7
 30
0.0
 40
0.5
  1
5600AE68
  0
TEXT
  8
MATERIALNAME
 62
     1
 10
-7.5
 20
-8
 30
0.0
 40
0.5
  1
AB1826SEI-PF/4x10
  0
TEXT
  8
Qty
 62
     1
 10
-7.5
 20
-9
 30
0.0
 40
0.5
  1
1
  0
TEXT
  8
RUNFIELD
 62
     1
 10
8
 20
-1
 30
0.0
 40
0.5
  1
Mirrored
  0
ENDSEC
  0
EOF
