  0
SECTION
  2
TABLES
  0
TABLE
  2
DIMSTYLE
 70
     2
  0
DIMSTYLE
  2
BOARDERDIM
 70
     0
  3

  4

  5
_NONE
  6
_NONE
  7
_NONE
 40
1
 41
0.1
 42
0.0625
 43
0.38
 44
0.18
 45
0.00
 46
0.0
 47
0.0
 48
0.0
140
0.5
141
0.09
142
0.0
143
25.399999999999999
144
1.0
145
0.5
146
1.0
147
0.09
 71
     1
 72
     0
 73
     1
 74
     0
 75
     0
 76
     0
 77
     2
 78
     0
170
     0
171
     2
172
     0
173
     0
174
     1
175
      0
176
5
177
5
178
     1
271
3
272
3
  0
ENDTAB
  0
TABLE
  2
DIMSTYLE
 70
     2
  0
DIMSTYLE
  2
VDRILLDIM
 70
     0
  3

  4

  5
_NONE
  6
_NONE
  7
_NONE
 40
1
 41
0.1
 42
0.0625
 43
0.38
 44
0.18
 45
0.00
 46
0.0
 47
0.0
 48
0.0
140
0.5
141
0.09
142
0.0
143
25.399999999999999
144
1.0
145
0.5
146
1.0
147
0.09
 71
     1
 72
     0
 73
     1
 74
     0
 75
     0
 76
     0
 77
     2
 78
     0
170
     0
171
     2
172
     0
173
     0
174
     1
175
      0
176
5
177
5
178
     1
271
3
272
3
  0
ENDTAB
  0
TABLE
  2
DIMSTYLE
 70
     2
  0
DIMSTYLE
  2
HDRILLDIM
 70
     0
  3

  4

  5
_NONE
  6
_NONE
  7
_NONE
 40
1
 41
0.1
 42
0.0625
 43
0.38
 44
0.18
 45
0.00
 46
0.0
 47
0.0
 48
0.0
140
0.5
141
0.09
142
0.0
143
25.399999999999999
144
1.0
145
0.5
146
1.0
147
0.09
 71
     1
 72
     0
 73
     1
 74
     0
 75
     0
 76
     0
 77
     2
 78
     0
170
     0
171
     2
172
     0
173
     0
174
     1
175
      0
176
5
177
5
178
     1
271
3
272
3
  0
ENDTAB
  0
TABLE
  2
DIMSTYLE
 70
     2
  0
DIMSTYLE
  2
ROUTEDIM
 70
     0
  3

  4

  5
_NONE
  6
_NONE
  7
_NONE
 40
1
 41
0.1
 42
0.0625
 43
0.38
 44
0.18
 45
0.00
 46
0.0
 47
0.0
 48
0.0
140
0.5
141
0.09
142
0.0
143
25.399999999999999
144
1.0
145
0.5
146
1.0
147
0.09
 71
     1
 72
     0
 73
     1
 74
     0
 75
     0
 76
     0
 77
     2
 78
     0
170
     0
171
     2
172
     0
173
     0
174
     1
175
      0
176
5
177
5
178
     1
271
3
272
3
  0
ENDTAB
  0
TABLE
  2
DIMSTYLE
 70
     2
  0
DIMSTYLE
  2
SAWDIM
 70
     0
  3

  4

  5
_NONE
  6
_NONE
  7
_NONE
 40
1
 41
0.1
 42
0.0625
 43
0.38
 44
0.18
 45
0.00
 46
0.0
 47
0.0
 48
0.0
140
0.5
141
0.09
142
0.0
143
25.399999999999999
144
1.0
145
0.5
146
1.0
147
0.09
 71
     1
 72
     0
 73
     1
 74
     0
 75
     0
 76
     0
 77
     2
 78
     0
170
     0
171
     2
172
     0
173
     0
174
     1
175
      0
176
5
177
5
178
     1
271
3
272
3
  0
ENDTAB
  0
TABLE
  2
VPORT
 70
     1
  0
VPORT
  2
*ACTIVE
 70
     0
 10
0.0
 20
0.0
 11
1.0
 21
1.0
 12
0.0
 22
0.0
 13
0.0
 23
0.0
 14
1.0
 24
1.0
 15
0.0
 25
0.0
 16
0.0
 26
0.0
 36
1.0
 17
0.0
 27
0.0
 37
0.0
 40
84
 41
2.0
 42
50.0
 43
0.0
 44
0.0
 50
0.0
 51
0.0
 71
     0
 72
   100
 73
     1
 74
     0
 75
     1
 76
     0
 77
     0
 78
     0
  0
ENDTAB
  0
ENDSEC
  0
SECTION
  2
ENTITIES
  0
POLYLINE
  8
BORDER_Z0P04
 62
     7
 66
     1
 10
0.0
 20
0.0
 30
0.0
 70
     1
  0
VERTEX
  8
BORDER_Z0P04
 62
     7
 10
0.0
 20
0.0
 30
0.0
  0
VERTEX
  8
BORDER_Z0P04
 62
     7
 10
0.0
 20
34.7744
 30
0.0
  0
VERTEX
  8
BORDER_Z0P04
 62
     7
 10
4.5564
 20
34.7744
 30
0.0
  0
VERTEX
  8
BORDER_Z0P04
 62
     7
 10
4.5564
 20
0.0
 30
0.0
  0
SEQEND
  8
BORDER_Z0P04
 62
     7
  0
POLYLINE
  8
ROUTE_Z0P25LT130RAMP
 62
     3
 66
     1
 10
0.0
 20
0.0
 30
0.0
 70
     0
  0
VERTEX
  8
ROUTE_Z0P25LT130RAMP
 62
     3
 10
2.252324
 20
16.981489
 30
0.0
 42
0.414213562373095
  0
VERTEX
  8
ROUTE_Z0P25LT130RAMP
 62
     3
 10
2.554964
 20
17.278827
 30
0.0
 42
0.0690909599651041
  0
VERTEX
  8
ROUTE_Z0P25LT130RAMP
 62
     3
 10
0.305886
 20
34.60012
 30
0.0
  0
VERTEX
  8
ROUTE_Z0P25LT130RAMP
 62
     3
 10
2.330655
 20
34.7744
 30
0.0
 42
-0.134406012159954
  0
VERTEX
  8
ROUTE_Z0P25LT130RAMP
 62
     3
 10
2.132882
 20
0.183590000000002
 30
0.0
  0
VERTEX
  8
ROUTE_Z0P25LT130RAMP
 62
     3
 10
0
 20
3.9999999970064E-06
 30
0.0
 42
0.0690909599651041
  0
VERTEX
  8
ROUTE_Z0P25LT130RAMP
 62
     3
 10
2.554964
 20
17.278827
 30
0.0
  0
SEQEND
  8
ROUTE_Z0P25LT130RAMP
 62
     3
  0
DIMENSION
  8
2D_DIM
  2
*D1
  3
BOARDERDIM
  1
4.556
 10
4.5564
 20
39.7744
 30
0.0
 11
2.2782
 21
39.7744
 31
0.0
 13
0
 23
34.7744
 14
4.5564
 24
34.7744
 33
0.0
 34
0.0
53
0
  0
DIMENSION
  8
2D_DIM
  2
*D1
  3
BOARDERDIM
  1
34.774
 10
-5
 20
34.7744
 30
0.0
 11
-5
 21
17.3872
 31
0
 13
0.0
 23
0
 14
0.0
 24
34.7744
 50
90.0
53
0
 33
0.0
 34
0.0
  0
DIMENSION
  8
2D_DIM
  2
*D1
  3
ROUTEDIM
  1
0
 10
0
 20
37.2744
 30
0.0
 11
0
 21
37.2744
 31
0.0
 13
0
 23
34.7744
 14
0
 24
34.7744
 33
0.0
 34
0.0
53
90
  0
DIMENSION
  8
2D_DIM
  2
*D1
  3
ROUTEDIM
  1
0.306
 10
0.305886
 20
37.2744
 30
0.0
 11
0.152943
 21
37.2744
 31
0.0
 13
0
 23
34.7744
 14
0.305886
 24
34.7744
 33
0.0
 34
0.0
53
90
  0
DIMENSION
  8
2D_DIM
  2
*D1
  3
ROUTEDIM
  1
1.827
 10
2.132882
 20
37.2744
 30
0.0
 11
1.066441
 21
37.2744
 31
0.0
 13
0.305886
 23
34.7744
 14
2.132882
 24
34.7744
 33
0.0
 34
0.0
53
90
  0
DIMENSION
  8
2D_DIM
  2
*D1
  3
ROUTEDIM
  1
0.119
 10
2.252324
 20
37.2744
 30
0.0
 11
1.126162
 21
37.2744
 31
0.0
 13
2.132882
 23
34.7744
 14
2.252324
 24
34.7744
 33
0.0
 34
0.0
53
90
  0
DIMENSION
  8
2D_DIM
  2
*D1
  3
ROUTEDIM
  1
0.078
 10
2.330655
 20
37.2744
 30
0.0
 11
1.1653275
 21
37.2744
 31
0.0
 13
2.252324
 23
34.7744
 14
2.330655
 24
34.7744
 33
0.0
 34
0.0
53
90
  0
DIMENSION
  8
2D_DIM
  2
*D1
  3
ROUTEDIM
  1
0.224
 10
2.554964
 20
37.2744
 30
0.0
 11
1.277482
 21
37.2744
 31
0.0
 13
2.330655
 23
34.7744
 14
2.554964
 24
34.7744
 33
0.0
 34
0.0
53
90
  0
DIMENSION
  8
2D_DIM
  2
*D1
  3
ROUTEDIM
  1
2.001
 10
4.5564
 20
37.2744
 30
0.0
 11
2.2782
 21
37.2744
 31
0.0
 13
2.554964
 23
34.7744
 14
4.5564
 24
34.7744
 33
0.0
 34
0.0
53
90
  0
DIMENSION
  8
2D_DIM
  2
*D1
  3
ROUTEDIM
  1
-0
 10
-2.5
 20
3.9999999970064E-06
 30
0.0
 11
-2.5
 21
1.9999999985032E-06
 31
0
 13
0.0
 23
0
 14
0.0
 24
3.9999999970064E-06
 50
90.0
53
0
 33
0.0
 34
0.0
  0
DIMENSION
  8
2D_DIM
  2
*D1
  3
ROUTEDIM
  1
0.184
 10
-2.5
 20
0.183590000000002
 30
0.0
 11
-2.5
 21
0.091795000000001
 31
0
 13
0.0
 23
3.9999999970064E-06
 14
0.0
 24
0.183590000000002
 50
90.0
53
0
 33
0.0
 34
0.0
  0
DIMENSION
  8
2D_DIM
  2
*D1
  3
ROUTEDIM
  1
16.798
 10
-2.5
 20
16.981489
 30
0.0
 11
-2.5
 21
8.4907445
 31
0
 13
0.0
 23
0.183590000000002
 14
0.0
 24
16.981489
 50
90.0
53
0
 33
0.0
 34
0.0
  0
DIMENSION
  8
2D_DIM
  2
*D1
  3
ROUTEDIM
  1
0.297
 10
-2.5
 20
17.278827
 30
0.0
 11
-2.5
 21
8.6394135
 31
0
 13
0.0
 23
16.981489
 14
0.0
 24
17.278827
 50
90.0
53
0
 33
0.0
 34
0.0
  0
DIMENSION
  8
2D_DIM
  2
*D1
  3
ROUTEDIM
  1
17.321
 10
-2.5
 20
34.60012
 30
0.0
 11
-2.5
 21
17.30006
 31
0
 13
0.0
 23
17.278827
 14
0.0
 24
34.60012
 50
90.0
53
0
 33
0.0
 34
0.0
  0
DIMENSION
  8
2D_DIM
  2
*D1
  3
ROUTEDIM
  1
0.174
 10
-2.5
 20
34.7744
 30
0.0
 11
-2.5
 21
17.3872
 31
0
 13
0.0
 23
34.60012
 14
0.0
 24
34.7744
 50
90.0
53
0
 33
0.0
 34
0.0
  0
DIMENSION
  8
2D_DIM
  2
*D1
  3
ROUTEDIM
  1
0
 10
-2.5
 20
34.7744
 30
0.0
 11
-2.5
 21
17.3872
 31
0
 13
0.0
 23
34.7744
 14
0.0
 24
34.7744
 50
90.0
53
0
 33
0.0
 34
0.0
  0
DIMENSION
  8
2D_DIM
  2
*D1
  3
ROUTEDIM
  1
2.255
 10
2.254975
 20
17.281478
 30
0.0
 11
1.1274875
 21
17.281478
 31
0.0
 13
0
 23
17.281478
 14
2.254975
 24
17.281478
 33
0.0
 34
0.0
53
90
  0
DIMENSION
  8
2D_DIM
  2
*D1
  3
ROUTEDIM
  1
17.281
 10
2.254975
 20
17.281478
 30
0.0
 11
2.254975
 21
8.640739
 31
0
 13
2.254975
 23
0
 14
2.254975
 24
17.281478
 50
90.0
53
0
 33
0.0
 34
0.0
  0
DIMENSION
  8
2D_DIM
  2
*D1
  3
ROUTEDIM
  1
-60.946
 10
-60.9460739092703
 20
17.8402160476918
 30
0.0
 11
-30.4730369546351
 21
17.8402160476918
 31
0.0
 13
0
 23
17.8402160476918
 14
-60.9460739092703
 24
17.8402160476918
 33
0.0
 34
0.0
53
90
  0
DIMENSION
  8
2D_DIM
  2
*D1
  3
ROUTEDIM
  1
17.84
 10
-60.9460739092703
 20
17.8402160476918
 30
0.0
 11
-60.9460739092703
 21
8.9201080238459
 31
0
 13
-60.9460739092703
 23
0
 14
-60.9460739092703
 24
17.8402160476918
 50
90.0
53
0
 33
0.0
 34
0.0
  0
DIMENSION
  8
2D_DIM
  2
*D1
  3
ROUTEDIM
  1
-60.946
 10
-60.9460746970069
 20
17.8402143985224
 30
0.0
 11
-30.4730373485035
 21
17.8402143985224
 31
0.0
 13
0
 23
17.8402143985224
 14
-60.9460746970069
 24
17.8402143985224
 33
0.0
 34
0.0
53
90
  0
DIMENSION
  8
2D_DIM
  2
*D1
  3
ROUTEDIM
  1
17.84
 10
-60.9460746970069
 20
17.8402143985224
 30
0.0
 11
-60.9460746970069
 21
8.92010719926119
 31
0
 13
-60.9460746970069
 23
0
 14
-60.9460746970069
 24
17.8402143985224
 50
90.0
53
0
 33
0.0
 34
0.0
  0
DIMENSION
  8
2D_DIM
  2
*D1
  3
ROUTEDIM
  1
-60.946
 10
-60.9460762535885
 20
17.8402129900733
 30
0.0
 11
-30.4730381267942
 21
17.8402129900733
 31
0.0
 13
0
 23
17.8402129900733
 14
-60.9460762535885
 24
17.8402129900733
 33
0.0
 34
0.0
53
90
  0
DIMENSION
  8
2D_DIM
  2
*D1
  3
ROUTEDIM
  1
17.84
 10
-60.9460762535885
 20
17.8402129900733
 30
0.0
 11
-60.9460762535885
 21
8.92010649503667
 31
0
 13
-60.9460762535885
 23
0
 14
-60.9460762535885
 24
17.8402129900733
 50
90.0
53
0
 33
0.0
 34
0.0
  0
TEXT
  8
ITEMNUMBER
 62
     1
 10
-7.5
 20
-5
 30
0.0
 40
0.5
  1
T31106.24
  0
TEXT
  8
DESCRIPTION
 62
     1
 10
-7.5
 20
-6
 30
0.0
 40
0.5
  1
P1B
  0
TEXT
  8
FILENAME
 62
     1
 10
-7.5
 20
-7
 30
0.0
 40
0.5
  1
5600AE5W
  0
TEXT
  8
MATERIALNAME
 62
     1
 10
-7.5
 20
-8
 30
0.0
 40
0.5
  1
AB1826SEI-PF/4x10
  0
TEXT
  8
Qty
 62
     1
 10
-7.5
 20
-9
 30
0.0
 40
0.5
  1
1
  0
TEXT
  8
RUNFIELD
 62
     1
 10
8
 20
-1
 30
0.0
 40
0.5
  1
Mirrored
  0
ENDSEC
  0
EOF
