  0
SECTION
  2
TABLES
  0
TABLE
  2
DIMSTYLE
 70
     2
  0
DIMSTYLE
  2
BOARDERDIM
 70
     0
  3

  4

  5
_NONE
  6
_NONE
  7
_NONE
 40
1
 41
0.1
 42
0.0625
 43
0.38
 44
0.18
 45
0.00
 46
0.0
 47
0.0
 48
0.0
140
0.5
141
0.09
142
0.0
143
25.399999999999999
144
1.0
145
0.5
146
1.0
147
0.09
 71
     1
 72
     0
 73
     1
 74
     0
 75
     0
 76
     0
 77
     2
 78
     0
170
     0
171
     2
172
     0
173
     0
174
     1
175
      0
176
5
177
5
178
     1
271
3
272
3
  0
ENDTAB
  0
TABLE
  2
DIMSTYLE
 70
     2
  0
DIMSTYLE
  2
VDRILLDIM
 70
     0
  3

  4

  5
_NONE
  6
_NONE
  7
_NONE
 40
1
 41
0.1
 42
0.0625
 43
0.38
 44
0.18
 45
0.00
 46
0.0
 47
0.0
 48
0.0
140
0.5
141
0.09
142
0.0
143
25.399999999999999
144
1.0
145
0.5
146
1.0
147
0.09
 71
     1
 72
     0
 73
     1
 74
     0
 75
     0
 76
     0
 77
     2
 78
     0
170
     0
171
     2
172
     0
173
     0
174
     1
175
      0
176
5
177
5
178
     1
271
3
272
3
  0
ENDTAB
  0
TABLE
  2
DIMSTYLE
 70
     2
  0
DIMSTYLE
  2
HDRILLDIM
 70
     0
  3

  4

  5
_NONE
  6
_NONE
  7
_NONE
 40
1
 41
0.1
 42
0.0625
 43
0.38
 44
0.18
 45
0.00
 46
0.0
 47
0.0
 48
0.0
140
0.5
141
0.09
142
0.0
143
25.399999999999999
144
1.0
145
0.5
146
1.0
147
0.09
 71
     1
 72
     0
 73
     1
 74
     0
 75
     0
 76
     0
 77
     2
 78
     0
170
     0
171
     2
172
     0
173
     0
174
     1
175
      0
176
5
177
5
178
     1
271
3
272
3
  0
ENDTAB
  0
TABLE
  2
DIMSTYLE
 70
     2
  0
DIMSTYLE
  2
ROUTEDIM
 70
     0
  3

  4

  5
_NONE
  6
_NONE
  7
_NONE
 40
1
 41
0.1
 42
0.0625
 43
0.38
 44
0.18
 45
0.00
 46
0.0
 47
0.0
 48
0.0
140
0.5
141
0.09
142
0.0
143
25.399999999999999
144
1.0
145
0.5
146
1.0
147
0.09
 71
     1
 72
     0
 73
     1
 74
     0
 75
     0
 76
     0
 77
     2
 78
     0
170
     0
171
     2
172
     0
173
     0
174
     1
175
      0
176
5
177
5
178
     1
271
3
272
3
  0
ENDTAB
  0
TABLE
  2
DIMSTYLE
 70
     2
  0
DIMSTYLE
  2
SAWDIM
 70
     0
  3

  4

  5
_NONE
  6
_NONE
  7
_NONE
 40
1
 41
0.1
 42
0.0625
 43
0.38
 44
0.18
 45
0.00
 46
0.0
 47
0.0
 48
0.0
140
0.5
141
0.09
142
0.0
143
25.399999999999999
144
1.0
145
0.5
146
1.0
147
0.09
 71
     1
 72
     0
 73
     1
 74
     0
 75
     0
 76
     0
 77
     2
 78
     0
170
     0
171
     2
172
     0
173
     0
174
     1
175
      0
176
5
177
5
178
     1
271
3
272
3
  0
ENDTAB
  0
TABLE
  2
VPORT
 70
     1
  0
VPORT
  2
*ACTIVE
 70
     0
 10
0.0
 20
0.0
 11
1.0
 21
1.0
 12
0.0
 22
0.0
 13
0.0
 23
0.0
 14
1.0
 24
1.0
 15
0.0
 25
0.0
 16
0.0
 26
0.0
 36
1.0
 17
0.0
 27
0.0
 37
0.0
 40
84
 41
2.0
 42
50.0
 43
0.0
 44
0.0
 50
0.0
 51
0.0
 71
     0
 72
   100
 73
     1
 74
     0
 75
     1
 76
     0
 77
     0
 78
     0
  0
ENDTAB
  0
ENDSEC
  0
SECTION
  2
ENTITIES
  0
POLYLINE
  8
BORDER_Z0P04
 62
     7
 66
     1
 10
0.0
 20
0.0
 30
0.0
 70
     1
  0
VERTEX
  8
BORDER_Z0P04
 62
     7
 10
0.0
 20
0.0
 30
0.0
  0
VERTEX
  8
BORDER_Z0P04
 62
     7
 10
0.0
 20
65.5671
 30
0.0
  0
VERTEX
  8
BORDER_Z0P04
 62
     7
 10
10.7077
 20
65.5671
 30
0.0
  0
VERTEX
  8
BORDER_Z0P04
 62
     7
 10
10.7077
 20
0.0
 30
0.0
  0
SEQEND
  8
BORDER_Z0P04
 62
     7
  0
POLYLINE
  8
ROUTE_Z0P25LT130RAMP
 62
     3
 66
     1
 10
0.0
 20
0.0
 30
0.0
 70
     0
  0
VERTEX
  8
ROUTE_Z0P25LT130RAMP
 62
     3
 10
2.299664
 20
32.553663
 30
0.0
 42
0.414213562373095
  0
VERTEX
  8
ROUTE_Z0P25LT130RAMP
 62
     3
 10
2.000042
 20
32.253283
 30
0.0
 42
0.132924690156976
  0
VERTEX
  8
ROUTE_Z0P25LT130RAMP
 62
     3
 10
10.707702
 20
0.237813000000003
 30
0.0
  0
VERTEX
  8
ROUTE_Z0P25LT130RAMP
 62
     3
 10
10.563789
 20
0.10866399999999
 30
0.0
  0
VERTEX
  8
ROUTE_Z0P25LT130RAMP
 62
     3
 10
10.4448
 20
3.99999998990097E-06
 30
0.0
  0
VERTEX
  8
ROUTE_Z0P25LT130RAMP
 62
     3
 10
7.059928
 20
2.75184599999999
 30
0.0
 42
-0.255522002348672
  0
VERTEX
  8
ROUTE_Z0P25LT130RAMP
 62
     3
 10
9.056886
 20
65.5671
 30
0.0
  0
VERTEX
  8
ROUTE_Z0P25LT130RAMP
 62
     3
 10
10.627056
 20
64.290579
 30
0.0
 42
0.132924690156976
  0
VERTEX
  8
ROUTE_Z0P25LT130RAMP
 62
     3
 10
2.000042
 20
32.253283
 30
0.0
  0
SEQEND
  8
ROUTE_Z0P25LT130RAMP
 62
     3
  0
DIMENSION
  8
2D_DIM
  2
*D1
  3
BOARDERDIM
  1
10.708
 10
10.7077
 20
70.5671
 30
0.0
 11
5.35385
 21
70.5671
 31
0.0
 13
0
 23
65.5671
 14
10.7077
 24
65.5671
 33
0.0
 34
0.0
53
0
  0
DIMENSION
  8
2D_DIM
  2
*D1
  3
BOARDERDIM
  1
65.567
 10
-5
 20
65.5671
 30
0.0
 11
-5
 21
32.78355
 31
0
 13
0.0
 23
0
 14
0.0
 24
65.5671
 50
90.0
53
0
 33
0.0
 34
0.0
  0
DIMENSION
  8
2D_DIM
  2
*D1
  3
ROUTEDIM
  1
2
 10
2.000042
 20
68.0671
 30
0.0
 11
1.000021
 21
68.0671
 31
0.0
 13
0
 23
65.5671
 14
2.000042
 24
65.5671
 33
0.0
 34
0.0
53
90
  0
DIMENSION
  8
2D_DIM
  2
*D1
  3
ROUTEDIM
  1
0.3
 10
2.299664
 20
68.0671
 30
0.0
 11
1.149832
 21
68.0671
 31
0.0
 13
2.000042
 23
65.5671
 14
2.299664
 24
65.5671
 33
0.0
 34
0.0
53
90
  0
DIMENSION
  8
2D_DIM
  2
*D1
  3
ROUTEDIM
  1
4.76
 10
7.059928
 20
68.0671
 30
0.0
 11
3.529964
 21
68.0671
 31
0.0
 13
2.299664
 23
65.5671
 14
7.059928
 24
65.5671
 33
0.0
 34
0.0
53
90
  0
DIMENSION
  8
2D_DIM
  2
*D1
  3
ROUTEDIM
  1
1.997
 10
9.056886
 20
68.0671
 30
0.0
 11
4.528443
 21
68.0671
 31
0.0
 13
7.059928
 23
65.5671
 14
9.056886
 24
65.5671
 33
0.0
 34
0.0
53
90
  0
DIMENSION
  8
2D_DIM
  2
*D1
  3
ROUTEDIM
  1
1.388
 10
10.4448
 20
68.0671
 30
0.0
 11
5.2224
 21
68.0671
 31
0.0
 13
9.056886
 23
65.5671
 14
10.4448
 24
65.5671
 33
0.0
 34
0.0
53
90
  0
DIMENSION
  8
2D_DIM
  2
*D1
  3
ROUTEDIM
  1
0.119
 10
10.563789
 20
68.0671
 30
0.0
 11
5.2818945
 21
68.0671
 31
0.0
 13
10.4448
 23
65.5671
 14
10.563789
 24
65.5671
 33
0.0
 34
0.0
53
90
  0
DIMENSION
  8
2D_DIM
  2
*D1
  3
ROUTEDIM
  1
0.063
 10
10.627056
 20
68.0671
 30
0.0
 11
5.313528
 21
68.0671
 31
0.0
 13
10.563789
 23
65.5671
 14
10.627056
 24
65.5671
 33
0.0
 34
0.0
53
90
  0
DIMENSION
  8
2D_DIM
  2
*D1
  3
ROUTEDIM
  1
0.081
 10
10.707702
 20
68.0671
 30
0.0
 11
5.353851
 21
68.0671
 31
0.0
 13
10.627056
 23
65.5671
 14
10.707702
 24
65.5671
 33
0.0
 34
0.0
53
90
  0
DIMENSION
  8
2D_DIM
  2
*D1
  3
ROUTEDIM
  1
-0
 10
10.7077
 20
68.0671
 30
0.0
 11
5.35385
 21
68.0671
 31
0.0
 13
10.707702
 23
65.5671
 14
10.7077
 24
65.5671
 33
0.0
 34
0.0
53
90
  0
DIMENSION
  8
2D_DIM
  2
*D1
  3
ROUTEDIM
  1
-0
 10
-2.5
 20
3.99999998990097E-06
 30
0.0
 11
-2.5
 21
1.99999999495048E-06
 31
0
 13
0.0
 23
0
 14
0.0
 24
3.99999998990097E-06
 50
90.0
53
0
 33
0.0
 34
0.0
  0
DIMENSION
  8
2D_DIM
  2
*D1
  3
ROUTEDIM
  1
0.109
 10
-2.5
 20
0.10866399999999
 30
0.0
 11
-2.5
 21
0.054331999999995
 31
0
 13
0.0
 23
3.99999998990097E-06
 14
0.0
 24
0.10866399999999
 50
90.0
53
0
 33
0.0
 34
0.0
  0
DIMENSION
  8
2D_DIM
  2
*D1
  3
ROUTEDIM
  1
0.129
 10
-2.5
 20
0.237813000000003
 30
0.0
 11
-2.5
 21
0.118906500000001
 31
0
 13
0.0
 23
0.10866399999999
 14
0.0
 24
0.237813000000003
 50
90.0
53
0
 33
0.0
 34
0.0
  0
DIMENSION
  8
2D_DIM
  2
*D1
  3
ROUTEDIM
  1
2.514
 10
-2.5
 20
2.75184599999999
 30
0.0
 11
-2.5
 21
1.37592299999999
 31
0
 13
0.0
 23
0.237813000000003
 14
0.0
 24
2.75184599999999
 50
90.0
53
0
 33
0.0
 34
0.0
  0
DIMENSION
  8
2D_DIM
  2
*D1
  3
ROUTEDIM
  1
29.501
 10
-2.5
 20
32.253283
 30
0.0
 11
-2.5
 21
16.1266415
 31
0
 13
0.0
 23
2.75184599999999
 14
0.0
 24
32.253283
 50
90.0
53
0
 33
0.0
 34
0.0
  0
DIMENSION
  8
2D_DIM
  2
*D1
  3
ROUTEDIM
  1
0.3
 10
-2.5
 20
32.553663
 30
0.0
 11
-2.5
 21
16.2768315
 31
0
 13
0.0
 23
32.253283
 14
0.0
 24
32.553663
 50
90.0
53
0
 33
0.0
 34
0.0
  0
DIMENSION
  8
2D_DIM
  2
*D1
  3
ROUTEDIM
  1
31.737
 10
-2.5
 20
64.290579
 30
0.0
 11
-2.5
 21
32.1452895
 31
0
 13
0.0
 23
32.553663
 14
0.0
 24
64.290579
 50
90.0
53
0
 33
0.0
 34
0.0
  0
DIMENSION
  8
2D_DIM
  2
*D1
  3
ROUTEDIM
  1
1.277
 10
-2.5
 20
65.5671
 30
0.0
 11
-2.5
 21
32.78355
 31
0
 13
0.0
 23
64.290579
 14
0.0
 24
65.5671
 50
90.0
53
0
 33
0.0
 34
0.0
  0
DIMENSION
  8
2D_DIM
  2
*D1
  3
ROUTEDIM
  1
0
 10
-2.5
 20
65.5671
 30
0.0
 11
-2.5
 21
32.78355
 31
0
 13
0.0
 23
65.5671
 14
0.0
 24
65.5671
 50
90.0
53
0
 33
0.0
 34
0.0
  0
DIMENSION
  8
2D_DIM
  2
*D1
  3
ROUTEDIM
  1
2.3
 10
2.300043
 20
32.253662
 30
0.0
 11
1.1500215
 21
32.253662
 31
0.0
 13
0
 23
32.253662
 14
2.300043
 24
32.253662
 33
0.0
 34
0.0
53
90
  0
DIMENSION
  8
2D_DIM
  2
*D1
  3
ROUTEDIM
  1
32.254
 10
2.300043
 20
32.253662
 30
0.0
 11
2.300043
 21
16.126831
 31
0
 13
2.300043
 23
0
 14
2.300043
 24
32.253662
 50
90.0
53
0
 33
0.0
 34
0.0
  0
DIMENSION
  8
2D_DIM
  2
*D1
  3
ROUTEDIM
  1
65.504
 10
65.5035105655235
 20
32.3332375373226
 30
0.0
 11
32.7517552827618
 21
32.3332375373226
 31
0.0
 13
0
 23
32.3332375373226
 14
65.5035105655235
 24
32.3332375373226
 33
0.0
 34
0.0
53
90
  0
DIMENSION
  8
2D_DIM
  2
*D1
  3
ROUTEDIM
  1
32.333
 10
65.5035105655235
 20
32.3332375373226
 30
0.0
 11
65.5035105655235
 21
16.1666187686613
 31
0
 13
65.5035105655235
 23
0
 14
65.5035105655235
 24
32.3332375373226
 50
90.0
53
0
 33
0.0
 34
0.0
  0
DIMENSION
  8
2D_DIM
  2
*D1
  3
ROUTEDIM
  1
65.504
 10
65.503511238093
 20
32.3332372823335
 30
0.0
 11
32.7517556190465
 21
32.3332372823335
 31
0.0
 13
0
 23
32.3332372823335
 14
65.503511238093
 24
32.3332372823335
 33
0.0
 34
0.0
53
90
  0
DIMENSION
  8
2D_DIM
  2
*D1
  3
ROUTEDIM
  1
32.333
 10
65.503511238093
 20
32.3332372823335
 30
0.0
 11
65.503511238093
 21
16.1666186411667
 31
0
 13
65.503511238093
 23
0
 14
65.503511238093
 24
32.3332372823335
 50
90.0
53
0
 33
0.0
 34
0.0
  0
DIMENSION
  8
2D_DIM
  2
*D1
  3
ROUTEDIM
  1
65.504
 10
65.5035118216201
 20
32.3332376120937
 30
0.0
 11
32.75175591081
 21
32.3332376120937
 31
0.0
 13
0
 23
32.3332376120937
 14
65.5035118216201
 24
32.3332376120937
 33
0.0
 34
0.0
53
90
  0
DIMENSION
  8
2D_DIM
  2
*D1
  3
ROUTEDIM
  1
32.333
 10
65.5035118216201
 20
32.3332376120937
 30
0.0
 11
65.5035118216201
 21
16.1666188060469
 31
0
 13
65.5035118216201
 23
0
 14
65.5035118216201
 24
32.3332376120937
 50
90.0
53
0
 33
0.0
 34
0.0
  0
TEXT
  8
ITEMNUMBER
 62
     1
 10
-7.5
 20
-5
 30
0.0
 40
0.5
  1
T31106.24
  0
TEXT
  8
DESCRIPTION
 62
     1
 10
-7.5
 20
-6
 30
0.0
 40
0.5
  1
P2B
  0
TEXT
  8
FILENAME
 62
     1
 10
-7.5
 20
-7
 30
0.0
 40
0.5
  1
5600AE6Q
  0
TEXT
  8
MATERIALNAME
 62
     1
 10
-7.5
 20
-8
 30
0.0
 40
0.5
  1
AB1826SEI-PF/4x10
  0
TEXT
  8
Qty
 62
     1
 10
-7.5
 20
-9
 30
0.0
 40
0.5
  1
1
  0
TEXT
  8
RUNFIELD
 62
     1
 10
8
 20
-1
 30
0.0
 40
0.5
  1
Mirrored
  0
ENDSEC
  0
EOF
