  0
SECTION
  2
TABLES
  0
TABLE
  2
DIMSTYLE
 70
     2
  0
DIMSTYLE
  2
BOARDERDIM
 70
     0
  3

  4

  5
_NONE
  6
_NONE
  7
_NONE
 40
1
 41
0.1
 42
0.0625
 43
0.38
 44
0.18
 45
0.00
 46
0.0
 47
0.0
 48
0.0
140
0.5
141
0.09
142
0.0
143
25.399999999999999
144
1.0
145
0.5
146
1.0
147
0.09
 71
     1
 72
     0
 73
     1
 74
     0
 75
     0
 76
     0
 77
     2
 78
     0
170
     0
171
     2
172
     0
173
     0
174
     1
175
      0
176
5
177
5
178
     1
271
3
272
3
  0
ENDTAB
  0
TABLE
  2
DIMSTYLE
 70
     2
  0
DIMSTYLE
  2
VDRILLDIM
 70
     0
  3

  4

  5
_NONE
  6
_NONE
  7
_NONE
 40
1
 41
0.1
 42
0.0625
 43
0.38
 44
0.18
 45
0.00
 46
0.0
 47
0.0
 48
0.0
140
0.5
141
0.09
142
0.0
143
25.399999999999999
144
1.0
145
0.5
146
1.0
147
0.09
 71
     1
 72
     0
 73
     1
 74
     0
 75
     0
 76
     0
 77
     2
 78
     0
170
     0
171
     2
172
     0
173
     0
174
     1
175
      0
176
5
177
5
178
     1
271
3
272
3
  0
ENDTAB
  0
TABLE
  2
DIMSTYLE
 70
     2
  0
DIMSTYLE
  2
HDRILLDIM
 70
     0
  3

  4

  5
_NONE
  6
_NONE
  7
_NONE
 40
1
 41
0.1
 42
0.0625
 43
0.38
 44
0.18
 45
0.00
 46
0.0
 47
0.0
 48
0.0
140
0.5
141
0.09
142
0.0
143
25.399999999999999
144
1.0
145
0.5
146
1.0
147
0.09
 71
     1
 72
     0
 73
     1
 74
     0
 75
     0
 76
     0
 77
     2
 78
     0
170
     0
171
     2
172
     0
173
     0
174
     1
175
      0
176
5
177
5
178
     1
271
3
272
3
  0
ENDTAB
  0
TABLE
  2
DIMSTYLE
 70
     2
  0
DIMSTYLE
  2
ROUTEDIM
 70
     0
  3

  4

  5
_NONE
  6
_NONE
  7
_NONE
 40
1
 41
0.1
 42
0.0625
 43
0.38
 44
0.18
 45
0.00
 46
0.0
 47
0.0
 48
0.0
140
0.5
141
0.09
142
0.0
143
25.399999999999999
144
1.0
145
0.5
146
1.0
147
0.09
 71
     1
 72
     0
 73
     1
 74
     0
 75
     0
 76
     0
 77
     2
 78
     0
170
     0
171
     2
172
     0
173
     0
174
     1
175
      0
176
5
177
5
178
     1
271
3
272
3
  0
ENDTAB
  0
TABLE
  2
DIMSTYLE
 70
     2
  0
DIMSTYLE
  2
SAWDIM
 70
     0
  3

  4

  5
_NONE
  6
_NONE
  7
_NONE
 40
1
 41
0.1
 42
0.0625
 43
0.38
 44
0.18
 45
0.00
 46
0.0
 47
0.0
 48
0.0
140
0.5
141
0.09
142
0.0
143
25.399999999999999
144
1.0
145
0.5
146
1.0
147
0.09
 71
     1
 72
     0
 73
     1
 74
     0
 75
     0
 76
     0
 77
     2
 78
     0
170
     0
171
     2
172
     0
173
     0
174
     1
175
      0
176
5
177
5
178
     1
271
3
272
3
  0
ENDTAB
  0
TABLE
  2
VPORT
 70
     1
  0
VPORT
  2
*ACTIVE
 70
     0
 10
0.0
 20
0.0
 11
1.0
 21
1.0
 12
0.0
 22
0.0
 13
0.0
 23
0.0
 14
1.0
 24
1.0
 15
0.0
 25
0.0
 16
0.0
 26
0.0
 36
1.0
 17
0.0
 27
0.0
 37
0.0
 40
84
 41
2.0
 42
50.0
 43
0.0
 44
0.0
 50
0.0
 51
0.0
 71
     0
 72
   100
 73
     1
 74
     0
 75
     1
 76
     0
 77
     0
 78
     0
  0
ENDTAB
  0
ENDSEC
  0
SECTION
  2
ENTITIES
  0
POLYLINE
  8
BORDER_Z0P04
 62
     7
 66
     1
 10
0.0
 20
0.0
 30
0.0
 70
     1
  0
VERTEX
  8
BORDER_Z0P04
 62
     7
 10
0.0
 20
0.0
 30
0.0
  0
VERTEX
  8
BORDER_Z0P04
 62
     7
 10
0.0
 20
29.6313
 30
0.0
  0
VERTEX
  8
BORDER_Z0P04
 62
     7
 10
9.1526
 20
29.6313
 30
0.0
  0
VERTEX
  8
BORDER_Z0P04
 62
     7
 10
9.1526
 20
0.0
 30
0.0
  0
SEQEND
  8
BORDER_Z0P04
 62
     7
  0
POLYLINE
  8
ROUTE_Z0P25LT130RAMP
 62
     3
 66
     1
 10
0.0
 20
0.0
 30
0.0
 70
     0
  0
VERTEX
  8
ROUTE_Z0P25LT130RAMP
 62
     3
 10
9.44627
 20
15.266386
 30
0.0
 42
0.414213562373095
  0
VERTEX
  8
ROUTE_Z0P25LT130RAMP
 62
     3
 10
9.152593
 20
14.960191
 30
0.0
 42
-0.222222913742796
  0
VERTEX
  8
ROUTE_Z0P25LT130RAMP
 62
     3
 10
2.534899
 20
3.59999999979266E-05
 30
0.0
  0
VERTEX
  8
ROUTE_Z0P25LT130RAMP
 62
     3
 10
0
 20
1.792011
 30
0.0
 42
0.477913400339385
  0
VERTEX
  8
ROUTE_Z0P25LT130RAMP
 62
     3
 10
0.181228
 20
27.176383
 30
0.0
  0
VERTEX
  8
ROUTE_Z0P25LT130RAMP
 62
     3
 10
1.916662
 20
29.6313
 30
0.0
 42
-0.222222913742796
  0
VERTEX
  8
ROUTE_Z0P25LT130RAMP
 62
     3
 10
9.152593
 20
14.960191
 30
0.0
  0
SEQEND
  8
ROUTE_Z0P25LT130RAMP
 62
     3
  0
DIMENSION
  8
2D_DIM
  2
*D1
  3
BOARDERDIM
  1
9.153
 10
9.1526
 20
34.6313
 30
0.0
 11
4.5763
 21
34.6313
 31
0.0
 13
0
 23
29.6313
 14
9.1526
 24
29.6313
 33
0.0
 34
0.0
53
0
  0
DIMENSION
  8
2D_DIM
  2
*D1
  3
BOARDERDIM
  1
29.631
 10
-5
 20
29.6313
 30
0.0
 11
-5
 21
14.81565
 31
0
 13
0.0
 23
0
 14
0.0
 24
29.6313
 50
90.0
53
0
 33
0.0
 34
0.0
  0
DIMENSION
  8
2D_DIM
  2
*D1
  3
ROUTEDIM
  1
0
 10
0
 20
32.1313
 30
0.0
 11
0
 21
32.1313
 31
0.0
 13
0
 23
29.6313
 14
0
 24
29.6313
 33
0.0
 34
0.0
53
90
  0
DIMENSION
  8
2D_DIM
  2
*D1
  3
ROUTEDIM
  1
0.181
 10
0.181228
 20
32.1313
 30
0.0
 11
0.090614
 21
32.1313
 31
0.0
 13
0
 23
29.6313
 14
0.181228
 24
29.6313
 33
0.0
 34
0.0
53
90
  0
DIMENSION
  8
2D_DIM
  2
*D1
  3
ROUTEDIM
  1
1.735
 10
1.916662
 20
32.1313
 30
0.0
 11
0.958331
 21
32.1313
 31
0.0
 13
0.181228
 23
29.6313
 14
1.916662
 24
29.6313
 33
0.0
 34
0.0
53
90
  0
DIMENSION
  8
2D_DIM
  2
*D1
  3
ROUTEDIM
  1
0.618
 10
2.534899
 20
32.1313
 30
0.0
 11
1.2674495
 21
32.1313
 31
0.0
 13
1.916662
 23
29.6313
 14
2.534899
 24
29.6313
 33
0.0
 34
0.0
53
90
  0
DIMENSION
  8
2D_DIM
  2
*D1
  3
ROUTEDIM
  1
6.618
 10
9.152593
 20
32.1313
 30
0.0
 11
4.5762965
 21
32.1313
 31
0.0
 13
2.534899
 23
29.6313
 14
9.152593
 24
29.6313
 33
0.0
 34
0.0
53
90
  0
DIMENSION
  8
2D_DIM
  2
*D1
  3
ROUTEDIM
  1
0.294
 10
9.44627
 20
32.1313
 30
0.0
 11
4.723135
 21
32.1313
 31
0.0
 13
9.152593
 23
29.6313
 14
9.44627
 24
29.6313
 33
0.0
 34
0.0
53
90
  0
DIMENSION
  8
2D_DIM
  2
*D1
  3
ROUTEDIM
  1
-0.294
 10
9.1526
 20
32.1313
 30
0.0
 11
4.5763
 21
32.1313
 31
0.0
 13
9.44627
 23
29.6313
 14
9.1526
 24
29.6313
 33
0.0
 34
0.0
53
90
  0
DIMENSION
  8
2D_DIM
  2
*D1
  3
ROUTEDIM
  1
-0
 10
-2.5
 20
3.59999999979266E-05
 30
0.0
 11
-2.5
 21
1.79999999989633E-05
 31
0
 13
0.0
 23
0
 14
0.0
 24
3.59999999979266E-05
 50
90.0
53
0
 33
0.0
 34
0.0
  0
DIMENSION
  8
2D_DIM
  2
*D1
  3
ROUTEDIM
  1
1.792
 10
-2.5
 20
1.792011
 30
0.0
 11
-2.5
 21
0.8960055
 31
0
 13
0.0
 23
3.59999999979266E-05
 14
0.0
 24
1.792011
 50
90.0
53
0
 33
0.0
 34
0.0
  0
DIMENSION
  8
2D_DIM
  2
*D1
  3
ROUTEDIM
  1
13.168
 10
-2.5
 20
14.960191
 30
0.0
 11
-2.5
 21
7.4800955
 31
0
 13
0.0
 23
1.792011
 14
0.0
 24
14.960191
 50
90.0
53
0
 33
0.0
 34
0.0
  0
DIMENSION
  8
2D_DIM
  2
*D1
  3
ROUTEDIM
  1
0.306
 10
-2.5
 20
15.266386
 30
0.0
 11
-2.5
 21
7.633193
 31
0
 13
0.0
 23
14.960191
 14
0.0
 24
15.266386
 50
90.0
53
0
 33
0.0
 34
0.0
  0
DIMENSION
  8
2D_DIM
  2
*D1
  3
ROUTEDIM
  1
11.91
 10
-2.5
 20
27.176383
 30
0.0
 11
-2.5
 21
13.5881915
 31
0
 13
0.0
 23
15.266386
 14
0.0
 24
27.176383
 50
90.0
53
0
 33
0.0
 34
0.0
  0
DIMENSION
  8
2D_DIM
  2
*D1
  3
ROUTEDIM
  1
2.455
 10
-2.5
 20
29.6313
 30
0.0
 11
-2.5
 21
14.81565
 31
0
 13
0.0
 23
27.176383
 14
0.0
 24
29.6313
 50
90.0
53
0
 33
0.0
 34
0.0
  0
DIMENSION
  8
2D_DIM
  2
*D1
  3
ROUTEDIM
  1
0
 10
-2.5
 20
29.6313
 30
0.0
 11
-2.5
 21
14.81565
 31
0
 13
0.0
 23
29.6313
 14
0.0
 24
29.6313
 50
90.0
53
0
 33
0.0
 34
0.0
  0
DIMENSION
  8
2D_DIM
  2
*D1
  3
ROUTEDIM
  1
9.453
 10
9.452529
 20
14.96645
 30
0.0
 11
4.7262645
 21
14.96645
 31
0.0
 13
0
 23
14.96645
 14
9.452529
 24
14.96645
 33
0.0
 34
0.0
53
90
  0
DIMENSION
  8
2D_DIM
  2
*D1
  3
ROUTEDIM
  1
14.966
 10
9.452529
 20
14.96645
 30
0.0
 11
9.452529
 21
7.483225
 31
0
 13
9.452529
 23
0
 14
9.452529
 24
14.96645
 50
90.0
53
0
 33
0.0
 34
0.0
  0
DIMENSION
  8
2D_DIM
  2
*D1
  3
ROUTEDIM
  1
-10.155
 10
-10.1552536937737
 20
14.5573452719628
 30
0.0
 11
-5.07762684688687
 21
14.5573452719628
 31
0.0
 13
0
 23
14.5573452719628
 14
-10.1552536937737
 24
14.5573452719628
 33
0.0
 34
0.0
53
90
  0
DIMENSION
  8
2D_DIM
  2
*D1
  3
ROUTEDIM
  1
14.557
 10
-10.1552536937737
 20
14.5573452719628
 30
0.0
 11
-10.1552536937737
 21
7.27867263598141
 31
0
 13
-10.1552536937737
 23
0
 14
-10.1552536937737
 24
14.5573452719628
 50
90.0
53
0
 33
0.0
 34
0.0
  0
DIMENSION
  8
2D_DIM
  2
*D1
  3
ROUTEDIM
  1
-10.155
 10
-10.155254026216
 20
14.5573458717017
 30
0.0
 11
-5.07762701310802
 21
14.5573458717017
 31
0.0
 13
0
 23
14.5573458717017
 14
-10.155254026216
 24
14.5573458717017
 33
0.0
 34
0.0
53
90
  0
DIMENSION
  8
2D_DIM
  2
*D1
  3
ROUTEDIM
  1
14.557
 10
-10.155254026216
 20
14.5573458717017
 30
0.0
 11
-10.155254026216
 21
7.27867293585083
 31
0
 13
-10.155254026216
 23
0
 14
-10.155254026216
 24
14.5573458717017
 50
90.0
53
0
 33
0.0
 34
0.0
  0
DIMENSION
  8
2D_DIM
  2
*D1
  3
ROUTEDIM
  1
-10.155
 10
-10.1552546167509
 20
14.5573458742496
 30
0.0
 11
-5.07762730837544
 21
14.5573458742496
 31
0.0
 13
0
 23
14.5573458742496
 14
-10.1552546167509
 24
14.5573458742496
 33
0.0
 34
0.0
53
90
  0
DIMENSION
  8
2D_DIM
  2
*D1
  3
ROUTEDIM
  1
14.557
 10
-10.1552546167509
 20
14.5573458742496
 30
0.0
 11
-10.1552546167509
 21
7.27867293712481
 31
0
 13
-10.1552546167509
 23
0
 14
-10.1552546167509
 24
14.5573458742496
 50
90.0
53
0
 33
0.0
 34
0.0
  0
TEXT
  8
ITEMNUMBER
 62
     1
 10
-7.5
 20
-5
 30
0.0
 40
0.5
  1
T31106.22
  0
TEXT
  8
DESCRIPTION
 62
     1
 10
-7.5
 20
-6
 30
0.0
 40
0.5
  1
P3B
  0
TEXT
  8
FILENAME
 62
     1
 10
-7.5
 20
-7
 30
0.0
 40
0.5
  1
5600AE4Q
  0
TEXT
  8
MATERIALNAME
 62
     1
 10
-7.5
 20
-8
 30
0.0
 40
0.5
  1
AB1860SEI-PF/4x10
  0
TEXT
  8
Qty
 62
     1
 10
-7.5
 20
-9
 30
0.0
 40
0.5
  1
1
  0
TEXT
  8
RUNFIELD
 62
     1
 10
8
 20
-1
 30
0.0
 40
0.5
  1
Mirrored
  0
ENDSEC
  0
EOF
