  0
SECTION
  2
TABLES
  0
TABLE
  2
DIMSTYLE
 70
     2
  0
DIMSTYLE
  2
BOARDERDIM
 70
     0
  3

  4

  5
_NONE
  6
_NONE
  7
_NONE
 40
1
 41
0.1
 42
0.0625
 43
0.38
 44
0.18
 45
0.00
 46
0.0
 47
0.0
 48
0.0
140
0.5
141
0.09
142
0.0
143
25.399999999999999
144
1.0
145
0.5
146
1.0
147
0.09
 71
     1
 72
     0
 73
     1
 74
     0
 75
     0
 76
     0
 77
     2
 78
     0
170
     0
171
     2
172
     0
173
     0
174
     1
175
      0
176
5
177
5
178
     1
271
3
272
3
  0
ENDTAB
  0
TABLE
  2
DIMSTYLE
 70
     2
  0
DIMSTYLE
  2
VDRILLDIM
 70
     0
  3

  4

  5
_NONE
  6
_NONE
  7
_NONE
 40
1
 41
0.1
 42
0.0625
 43
0.38
 44
0.18
 45
0.00
 46
0.0
 47
0.0
 48
0.0
140
0.5
141
0.09
142
0.0
143
25.399999999999999
144
1.0
145
0.5
146
1.0
147
0.09
 71
     1
 72
     0
 73
     1
 74
     0
 75
     0
 76
     0
 77
     2
 78
     0
170
     0
171
     2
172
     0
173
     0
174
     1
175
      0
176
5
177
5
178
     1
271
3
272
3
  0
ENDTAB
  0
TABLE
  2
DIMSTYLE
 70
     2
  0
DIMSTYLE
  2
HDRILLDIM
 70
     0
  3

  4

  5
_NONE
  6
_NONE
  7
_NONE
 40
1
 41
0.1
 42
0.0625
 43
0.38
 44
0.18
 45
0.00
 46
0.0
 47
0.0
 48
0.0
140
0.5
141
0.09
142
0.0
143
25.399999999999999
144
1.0
145
0.5
146
1.0
147
0.09
 71
     1
 72
     0
 73
     1
 74
     0
 75
     0
 76
     0
 77
     2
 78
     0
170
     0
171
     2
172
     0
173
     0
174
     1
175
      0
176
5
177
5
178
     1
271
3
272
3
  0
ENDTAB
  0
TABLE
  2
DIMSTYLE
 70
     2
  0
DIMSTYLE
  2
ROUTEDIM
 70
     0
  3

  4

  5
_NONE
  6
_NONE
  7
_NONE
 40
1
 41
0.1
 42
0.0625
 43
0.38
 44
0.18
 45
0.00
 46
0.0
 47
0.0
 48
0.0
140
0.5
141
0.09
142
0.0
143
25.399999999999999
144
1.0
145
0.5
146
1.0
147
0.09
 71
     1
 72
     0
 73
     1
 74
     0
 75
     0
 76
     0
 77
     2
 78
     0
170
     0
171
     2
172
     0
173
     0
174
     1
175
      0
176
5
177
5
178
     1
271
3
272
3
  0
ENDTAB
  0
TABLE
  2
DIMSTYLE
 70
     2
  0
DIMSTYLE
  2
SAWDIM
 70
     0
  3

  4

  5
_NONE
  6
_NONE
  7
_NONE
 40
1
 41
0.1
 42
0.0625
 43
0.38
 44
0.18
 45
0.00
 46
0.0
 47
0.0
 48
0.0
140
0.5
141
0.09
142
0.0
143
25.399999999999999
144
1.0
145
0.5
146
1.0
147
0.09
 71
     1
 72
     0
 73
     1
 74
     0
 75
     0
 76
     0
 77
     2
 78
     0
170
     0
171
     2
172
     0
173
     0
174
     1
175
      0
176
5
177
5
178
     1
271
3
272
3
  0
ENDTAB
  0
TABLE
  2
VPORT
 70
     1
  0
VPORT
  2
*ACTIVE
 70
     0
 10
0.0
 20
0.0
 11
1.0
 21
1.0
 12
0.0
 22
0.0
 13
0.0
 23
0.0
 14
1.0
 24
1.0
 15
0.0
 25
0.0
 16
0.0
 26
0.0
 36
1.0
 17
0.0
 27
0.0
 37
0.0
 40
84
 41
2.0
 42
50.0
 43
0.0
 44
0.0
 50
0.0
 51
0.0
 71
     0
 72
   100
 73
     1
 74
     0
 75
     1
 76
     0
 77
     0
 78
     0
  0
ENDTAB
  0
ENDSEC
  0
SECTION
  2
ENTITIES
  0
POLYLINE
  8
BORDER_Z0P04
 62
     7
 66
     1
 10
0.0
 20
0.0
 30
0.0
 70
     1
  0
VERTEX
  8
BORDER_Z0P04
 62
     7
 10
0.0
 20
0.0
 30
0.0
  0
VERTEX
  8
BORDER_Z0P04
 62
     7
 10
0.0
 20
29.8915
 30
0.0
  0
VERTEX
  8
BORDER_Z0P04
 62
     7
 10
16.0498
 20
29.8915
 30
0.0
  0
VERTEX
  8
BORDER_Z0P04
 62
     7
 10
16.0498
 20
0.0
 30
0.0
  0
SEQEND
  8
BORDER_Z0P04
 62
     7
  0
POLYLINE
  8
ROUTE_Z0P25LT130RAMP
 62
     3
 66
     1
 10
0.0
 20
0.0
 30
0.0
 70
     0
  0
VERTEX
  8
ROUTE_Z0P25LT130RAMP
 62
     3
 10
15.160988
 20
12.075925
 30
0.0
 42
0.414213562373095
  0
VERTEX
  8
ROUTE_Z0P25LT130RAMP
 62
     3
 10
14.773519
 20
11.903112
 30
0.0
 42
-0.249195181432365
  0
VERTEX
  8
ROUTE_Z0P25LT130RAMP
 62
     3
 10
1.105668
 20
3.50000000004513E-05
 30
0.0
  0
VERTEX
  8
ROUTE_Z0P25LT130RAMP
 62
     3
 10
0
 20
2.829182
 30
0.0
 42
0.554627288144671
  0
VERTEX
  8
ROUTE_Z0P25LT130RAMP
 62
     3
 10
9.666013
 20
28.761514
 30
0.0
  0
VERTEX
  8
ROUTE_Z0P25LT130RAMP
 62
     3
 10
12.557383
 20
29.8915
 30
0.0
 42
-0.249195181432365
  0
VERTEX
  8
ROUTE_Z0P25LT130RAMP
 62
     3
 10
14.773519
 20
11.903112
 30
0.0
  0
SEQEND
  8
ROUTE_Z0P25LT130RAMP
 62
     3
  0
DIMENSION
  8
2D_DIM
  2
*D1
  3
BOARDERDIM
  1
16.05
 10
16.0498
 20
34.8915
 30
0.0
 11
8.0249
 21
34.8915
 31
0.0
 13
0
 23
29.8915
 14
16.0498
 24
29.8915
 33
0.0
 34
0.0
53
0
  0
DIMENSION
  8
2D_DIM
  2
*D1
  3
BOARDERDIM
  1
29.892
 10
-5
 20
29.8915
 30
0.0
 11
-5
 21
14.94575
 31
0
 13
0.0
 23
0
 14
0.0
 24
29.8915
 50
90.0
53
0
 33
0.0
 34
0.0
  0
DIMENSION
  8
2D_DIM
  2
*D1
  3
ROUTEDIM
  1
0
 10
0
 20
32.3915
 30
0.0
 11
0
 21
32.3915
 31
0.0
 13
0
 23
29.8915
 14
0
 24
29.8915
 33
0.0
 34
0.0
53
90
  0
DIMENSION
  8
2D_DIM
  2
*D1
  3
ROUTEDIM
  1
1.106
 10
1.105668
 20
32.3915
 30
0.0
 11
0.552834
 21
32.3915
 31
0.0
 13
0
 23
29.8915
 14
1.105668
 24
29.8915
 33
0.0
 34
0.0
53
90
  0
DIMENSION
  8
2D_DIM
  2
*D1
  3
ROUTEDIM
  1
8.56
 10
9.666013
 20
32.3915
 30
0.0
 11
4.8330065
 21
32.3915
 31
0.0
 13
1.105668
 23
29.8915
 14
9.666013
 24
29.8915
 33
0.0
 34
0.0
53
90
  0
DIMENSION
  8
2D_DIM
  2
*D1
  3
ROUTEDIM
  1
2.891
 10
12.557383
 20
32.3915
 30
0.0
 11
6.2786915
 21
32.3915
 31
0.0
 13
9.666013
 23
29.8915
 14
12.557383
 24
29.8915
 33
0.0
 34
0.0
53
90
  0
DIMENSION
  8
2D_DIM
  2
*D1
  3
ROUTEDIM
  1
2.216
 10
14.773519
 20
32.3915
 30
0.0
 11
7.3867595
 21
32.3915
 31
0.0
 13
12.557383
 23
29.8915
 14
14.773519
 24
29.8915
 33
0.0
 34
0.0
53
90
  0
DIMENSION
  8
2D_DIM
  2
*D1
  3
ROUTEDIM
  1
0.387
 10
15.160988
 20
32.3915
 30
0.0
 11
7.580494
 21
32.3915
 31
0.0
 13
14.773519
 23
29.8915
 14
15.160988
 24
29.8915
 33
0.0
 34
0.0
53
90
  0
DIMENSION
  8
2D_DIM
  2
*D1
  3
ROUTEDIM
  1
0.889
 10
16.0498
 20
32.3915
 30
0.0
 11
8.0249
 21
32.3915
 31
0.0
 13
15.160988
 23
29.8915
 14
16.0498
 24
29.8915
 33
0.0
 34
0.0
53
90
  0
DIMENSION
  8
2D_DIM
  2
*D1
  3
ROUTEDIM
  1
-0
 10
-2.5
 20
3.50000000004513E-05
 30
0.0
 11
-2.5
 21
1.75000000002257E-05
 31
0
 13
0.0
 23
0
 14
0.0
 24
3.50000000004513E-05
 50
90.0
53
0
 33
0.0
 34
0.0
  0
DIMENSION
  8
2D_DIM
  2
*D1
  3
ROUTEDIM
  1
2.829
 10
-2.5
 20
2.829182
 30
0.0
 11
-2.5
 21
1.414591
 31
0
 13
0.0
 23
3.50000000004513E-05
 14
0.0
 24
2.829182
 50
90.0
53
0
 33
0.0
 34
0.0
  0
DIMENSION
  8
2D_DIM
  2
*D1
  3
ROUTEDIM
  1
9.074
 10
-2.5
 20
11.903112
 30
0.0
 11
-2.5
 21
5.951556
 31
0
 13
0.0
 23
2.829182
 14
0.0
 24
11.903112
 50
90.0
53
0
 33
0.0
 34
0.0
  0
DIMENSION
  8
2D_DIM
  2
*D1
  3
ROUTEDIM
  1
0.173
 10
-2.5
 20
12.075925
 30
0.0
 11
-2.5
 21
6.0379625
 31
0
 13
0.0
 23
11.903112
 14
0.0
 24
12.075925
 50
90.0
53
0
 33
0.0
 34
0.0
  0
DIMENSION
  8
2D_DIM
  2
*D1
  3
ROUTEDIM
  1
16.686
 10
-2.5
 20
28.761514
 30
0.0
 11
-2.5
 21
14.380757
 31
0
 13
0.0
 23
12.075925
 14
0.0
 24
28.761514
 50
90.0
53
0
 33
0.0
 34
0.0
  0
DIMENSION
  8
2D_DIM
  2
*D1
  3
ROUTEDIM
  1
1.13
 10
-2.5
 20
29.8915
 30
0.0
 11
-2.5
 21
14.94575
 31
0
 13
0.0
 23
28.761514
 14
0.0
 24
29.8915
 50
90.0
53
0
 33
0.0
 34
0.0
  0
DIMENSION
  8
2D_DIM
  2
*D1
  3
ROUTEDIM
  1
0
 10
-2.5
 20
29.8915
 30
0.0
 11
-2.5
 21
14.94575
 31
0
 13
0.0
 23
29.8915
 14
0.0
 24
29.8915
 50
90.0
53
0
 33
0.0
 34
0.0
  0
DIMENSION
  8
2D_DIM
  2
*D1
  3
ROUTEDIM
  1
15.054
 10
15.05366
 20
11.795784
 30
0.0
 11
7.52683
 21
11.795784
 31
0.0
 13
0
 23
11.795784
 14
15.05366
 24
11.795784
 33
0.0
 34
0.0
53
90
  0
DIMENSION
  8
2D_DIM
  2
*D1
  3
ROUTEDIM
  1
11.796
 10
15.05366
 20
11.795784
 30
0.0
 11
15.05366
 21
5.897892
 31
0
 13
15.05366
 23
0
 14
15.05366
 24
11.795784
 50
90.0
53
0
 33
0.0
 34
0.0
  0
DIMENSION
  8
2D_DIM
  2
*D1
  3
ROUTEDIM
  1
-3.26
 10
-3.26037917002323
 20
18.8120765159806
 30
0.0
 11
-1.63018958501162
 21
18.8120765159806
 31
0.0
 13
0
 23
18.8120765159806
 14
-3.26037917002323
 24
18.8120765159806
 33
0.0
 34
0.0
53
90
  0
DIMENSION
  8
2D_DIM
  2
*D1
  3
ROUTEDIM
  1
18.812
 10
-3.26037917002323
 20
18.8120765159806
 30
0.0
 11
-3.26037917002323
 21
9.40603825799032
 31
0
 13
-3.26037917002323
 23
0
 14
-3.26037917002323
 24
18.8120765159806
 50
90.0
53
0
 33
0.0
 34
0.0
  0
DIMENSION
  8
2D_DIM
  2
*D1
  3
ROUTEDIM
  1
-3.26
 10
-3.26037922332152
 20
18.812075212024
 30
0.0
 11
-1.63018961166076
 21
18.812075212024
 31
0.0
 13
0
 23
18.812075212024
 14
-3.26037922332152
 24
18.812075212024
 33
0.0
 34
0.0
53
90
  0
DIMENSION
  8
2D_DIM
  2
*D1
  3
ROUTEDIM
  1
18.812
 10
-3.26037922332152
 20
18.812075212024
 30
0.0
 11
-3.26037922332152
 21
9.40603760601199
 31
0
 13
-3.26037922332152
 23
0
 14
-3.26037922332152
 24
18.812075212024
 50
90.0
53
0
 33
0.0
 34
0.0
  0
DIMENSION
  8
2D_DIM
  2
*D1
  3
ROUTEDIM
  1
-3.26
 10
-3.26037868065937
 20
18.8120752119395
 30
0.0
 11
-1.63018934032969
 21
18.8120752119395
 31
0.0
 13
0
 23
18.8120752119395
 14
-3.26037868065937
 24
18.8120752119395
 33
0.0
 34
0.0
53
90
  0
DIMENSION
  8
2D_DIM
  2
*D1
  3
ROUTEDIM
  1
18.812
 10
-3.26037868065937
 20
18.8120752119395
 30
0.0
 11
-3.26037868065937
 21
9.40603760596976
 31
0
 13
-3.26037868065937
 23
0
 14
-3.26037868065937
 24
18.8120752119395
 50
90.0
53
0
 33
0.0
 34
0.0
  0
TEXT
  8
ITEMNUMBER
 62
     1
 10
-7.5
 20
-5
 30
0.0
 40
0.5
  1
T31106.22
  0
TEXT
  8
DESCRIPTION
 62
     1
 10
-7.5
 20
-6
 30
0.0
 40
0.5
  1
P3A
  0
TEXT
  8
FILENAME
 62
     1
 10
-7.5
 20
-7
 30
0.0
 40
0.5
  1
5600AE4K
  0
TEXT
  8
MATERIALNAME
 62
     1
 10
-7.5
 20
-8
 30
0.0
 40
0.5
  1
AB1860SEI-PF/4x10
  0
TEXT
  8
Qty
 62
     1
 10
-7.5
 20
-9
 30
0.0
 40
0.5
  1
1
  0
TEXT
  8
RUNFIELD
 62
     1
 10
8
 20
-1
 30
0.0
 40
0.5
  1
Mirrored
  0
ENDSEC
  0
EOF
