  0
SECTION
  2
TABLES
  0
TABLE
  2
DIMSTYLE
 70
     2
  0
DIMSTYLE
  2
BOARDERDIM
 70
     0
  3

  4

  5
_NONE
  6
_NONE
  7
_NONE
 40
1
 41
0.1
 42
0.0625
 43
0.38
 44
0.18
 45
0.00
 46
0.0
 47
0.0
 48
0.0
140
0.5
141
0.09
142
0.0
143
25.399999999999999
144
1.0
145
0.5
146
1.0
147
0.09
 71
     1
 72
     0
 73
     1
 74
     0
 75
     0
 76
     0
 77
     2
 78
     0
170
     0
171
     2
172
     0
173
     0
174
     1
175
      0
176
5
177
5
178
     1
271
3
272
3
  0
ENDTAB
  0
TABLE
  2
DIMSTYLE
 70
     2
  0
DIMSTYLE
  2
VDRILLDIM
 70
     0
  3

  4

  5
_NONE
  6
_NONE
  7
_NONE
 40
1
 41
0.1
 42
0.0625
 43
0.38
 44
0.18
 45
0.00
 46
0.0
 47
0.0
 48
0.0
140
0.5
141
0.09
142
0.0
143
25.399999999999999
144
1.0
145
0.5
146
1.0
147
0.09
 71
     1
 72
     0
 73
     1
 74
     0
 75
     0
 76
     0
 77
     2
 78
     0
170
     0
171
     2
172
     0
173
     0
174
     1
175
      0
176
5
177
5
178
     1
271
3
272
3
  0
ENDTAB
  0
TABLE
  2
DIMSTYLE
 70
     2
  0
DIMSTYLE
  2
HDRILLDIM
 70
     0
  3

  4

  5
_NONE
  6
_NONE
  7
_NONE
 40
1
 41
0.1
 42
0.0625
 43
0.38
 44
0.18
 45
0.00
 46
0.0
 47
0.0
 48
0.0
140
0.5
141
0.09
142
0.0
143
25.399999999999999
144
1.0
145
0.5
146
1.0
147
0.09
 71
     1
 72
     0
 73
     1
 74
     0
 75
     0
 76
     0
 77
     2
 78
     0
170
     0
171
     2
172
     0
173
     0
174
     1
175
      0
176
5
177
5
178
     1
271
3
272
3
  0
ENDTAB
  0
TABLE
  2
DIMSTYLE
 70
     2
  0
DIMSTYLE
  2
ROUTEDIM
 70
     0
  3

  4

  5
_NONE
  6
_NONE
  7
_NONE
 40
1
 41
0.1
 42
0.0625
 43
0.38
 44
0.18
 45
0.00
 46
0.0
 47
0.0
 48
0.0
140
0.5
141
0.09
142
0.0
143
25.399999999999999
144
1.0
145
0.5
146
1.0
147
0.09
 71
     1
 72
     0
 73
     1
 74
     0
 75
     0
 76
     0
 77
     2
 78
     0
170
     0
171
     2
172
     0
173
     0
174
     1
175
      0
176
5
177
5
178
     1
271
3
272
3
  0
ENDTAB
  0
TABLE
  2
DIMSTYLE
 70
     2
  0
DIMSTYLE
  2
SAWDIM
 70
     0
  3

  4

  5
_NONE
  6
_NONE
  7
_NONE
 40
1
 41
0.1
 42
0.0625
 43
0.38
 44
0.18
 45
0.00
 46
0.0
 47
0.0
 48
0.0
140
0.5
141
0.09
142
0.0
143
25.399999999999999
144
1.0
145
0.5
146
1.0
147
0.09
 71
     1
 72
     0
 73
     1
 74
     0
 75
     0
 76
     0
 77
     2
 78
     0
170
     0
171
     2
172
     0
173
     0
174
     1
175
      0
176
5
177
5
178
     1
271
3
272
3
  0
ENDTAB
  0
TABLE
  2
VPORT
 70
     1
  0
VPORT
  2
*ACTIVE
 70
     0
 10
0.0
 20
0.0
 11
1.0
 21
1.0
 12
0.0
 22
0.0
 13
0.0
 23
0.0
 14
1.0
 24
1.0
 15
0.0
 25
0.0
 16
0.0
 26
0.0
 36
1.0
 17
0.0
 27
0.0
 37
0.0
 40
84
 41
2.0
 42
50.0
 43
0.0
 44
0.0
 50
0.0
 51
0.0
 71
     0
 72
   100
 73
     1
 74
     0
 75
     1
 76
     0
 77
     0
 78
     0
  0
ENDTAB
  0
ENDSEC
  0
SECTION
  2
ENTITIES
  0
POLYLINE
  8
BORDER_Z0P75
 62
     7
 66
     1
 10
0.0
 20
0.0
 30
0.0
 70
     1
  0
VERTEX
  8
BORDER_Z0P75
 62
     7
 10
0.0
 20
0.0
 30
0.0
  0
VERTEX
  8
BORDER_Z0P75
 62
     7
 10
0.0
 20
6.8214
 30
0.0
  0
VERTEX
  8
BORDER_Z0P75
 62
     7
 10
25.125
 20
6.8214
 30
0.0
  0
VERTEX
  8
BORDER_Z0P75
 62
     7
 10
25.125
 20
0.0
 30
0.0
  0
SEQEND
  8
BORDER_Z0P75
 62
     7
  0
POLYLINE
  8
ROUTE_Z0P375LT130RAMP
 62
     3
 66
     1
 10
0.0
 20
0.0
 30
0.0
 70
     0
  0
VERTEX
  8
ROUTE_Z0P375LT130RAMP
 62
     3
 10
25.175
 20
2.91069
 30
0.0
  0
VERTEX
  8
ROUTE_Z0P375LT130RAMP
 62
     3
 10
25.175
 20
3.41069
 30
0.0
  0
VERTEX
  8
ROUTE_Z0P375LT130RAMP
 62
     3
 10
25.175
 20
6.8714
 30
0.0
  0
VERTEX
  8
ROUTE_Z0P375LT130RAMP
 62
     3
 10
24.3125
 20
6.8714
 30
0.0
  0
VERTEX
  8
ROUTE_Z0P375LT130RAMP
 62
     3
 10
24.3125
 20
-0.05002
 30
0.0
  0
VERTEX
  8
ROUTE_Z0P375LT130RAMP
 62
     3
 10
25.175
 20
-0.05002
 30
0.0
  0
VERTEX
  8
ROUTE_Z0P375LT130RAMP
 62
     3
 10
25.175
 20
3.41069
 30
0.0
  0
SEQEND
  8
ROUTE_Z0P375LT130RAMP
 62
     3
  0
DIMENSION
  8
2D_DIM
  2
*D1
  3
BOARDERDIM
  1
25.125
 10
25.125
 20
11.8214
 30
0.0
 11
12.5625
 21
11.8214
 31
0.0
 13
0
 23
6.8214
 14
25.125
 24
6.8214
 33
0.0
 34
0.0
53
0
  0
DIMENSION
  8
2D_DIM
  2
*D1
  3
BOARDERDIM
  1
6.821
 10
-5
 20
6.8214
 30
0.0
 11
-5
 21
3.4107
 31
0
 13
0.0
 23
0
 14
0.0
 24
6.8214
 50
90.0
53
0
 33
0.0
 34
0.0
  0
DIMENSION
  8
2D_DIM
  2
*D1
  3
ROUTEDIM
  1
24.312
 10
24.3125
 20
9.3214
 30
0.0
 11
12.15625
 21
9.3214
 31
0.0
 13
0
 23
6.8214
 14
24.3125
 24
6.8214
 33
0.0
 34
0.0
53
90
  0
DIMENSION
  8
2D_DIM
  2
*D1
  3
ROUTEDIM
  1
0.863
 10
25.175
 20
9.3214
 30
0.0
 11
12.5875
 21
9.3214
 31
0.0
 13
24.3125
 23
6.8214
 14
25.175
 24
6.8214
 33
0.0
 34
0.0
53
90
  0
DIMENSION
  8
2D_DIM
  2
*D1
  3
ROUTEDIM
  1
-0.05
 10
25.125
 20
9.3214
 30
0.0
 11
12.5625
 21
9.3214
 31
0.0
 13
25.175
 23
6.8214
 14
25.125
 24
6.8214
 33
0.0
 34
0.0
53
90
  0
DIMENSION
  8
2D_DIM
  2
*D1
  3
ROUTEDIM
  1
0.05
 10
-2.5
 20
-0.05002
 30
0.0
 11
-2.5
 21
-0.02501
 31
0
 13
0.0
 23
0
 14
0.0
 24
-0.05002
 50
90.0
53
0
 33
0.0
 34
0.0
  0
DIMENSION
  8
2D_DIM
  2
*D1
  3
ROUTEDIM
  1
2.961
 10
-2.5
 20
2.91069
 30
0.0
 11
-2.5
 21
1.455345
 31
0
 13
0.0
 23
-0.05002
 14
0.0
 24
2.91069
 50
90.0
53
0
 33
0.0
 34
0.0
  0
DIMENSION
  8
2D_DIM
  2
*D1
  3
ROUTEDIM
  1
0.5
 10
-2.5
 20
3.41069
 30
0.0
 11
-2.5
 21
1.705345
 31
0
 13
0.0
 23
2.91069
 14
0.0
 24
3.41069
 50
90.0
53
0
 33
0.0
 34
0.0
  0
DIMENSION
  8
2D_DIM
  2
*D1
  3
ROUTEDIM
  1
3.461
 10
-2.5
 20
6.8714
 30
0.0
 11
-2.5
 21
3.4357
 31
0
 13
0.0
 23
3.41069
 14
0.0
 24
6.8714
 50
90.0
53
0
 33
0.0
 34
0.0
  0
DIMENSION
  8
2D_DIM
  2
*D1
  3
ROUTEDIM
  1
0.05
 10
-2.5
 20
6.8214
 30
0.0
 11
-2.5
 21
3.4107
 31
0
 13
0.0
 23
6.8714
 14
0.0
 24
6.8214
 50
90.0
53
0
 33
0.0
 34
0.0
  0
TEXT
  8
ITEMNUMBER
 62
     1
 10
-7.5
 20
-5
 30
0.0
 40
0.5
  1
M3100.09
  0
TEXT
  8
DESCRIPTION
 62
     1
 10
-7.5
 20
-6
 30
0.0
 40
0.5
  1
Part_1
  0
TEXT
  8
FILENAME
 62
     1
 10
-7.5
 20
-7
 30
0.0
 40
0.5
  1
5600ADX9
  0
TEXT
  8
MATERIALNAME
 62
     1
 10
-7.5
 20
-8
 30
0.0
 40
0.5
  1
MDF/3-4/4x8
  0
TEXT
  8
Qty
 62
     1
 10
-7.5
 20
-9
 30
0.0
 40
0.5
  1
1
  0
TEXT
  8
RUNFIELD
 62
     1
 10
8
 20
-1
 30
0.0
 40
0.5
  1
Normal
  0
ENDSEC
  0
EOF
