  0
SECTION
  2
TABLES
  0
TABLE
  2
DIMSTYLE
 70
     2
  0
DIMSTYLE
  2
BOARDERDIM
 70
     0
  3

  4

  5
_NONE
  6
_NONE
  7
_NONE
 40
1
 41
0.1
 42
0.0625
 43
0.38
 44
0.18
 45
0.00
 46
0.0
 47
0.0
 48
0.0
140
0.5
141
0.09
142
0.0
143
25.399999999999999
144
1.0
145
0.5
146
1.0
147
0.09
 71
     1
 72
     0
 73
     1
 74
     0
 75
     0
 76
     0
 77
     2
 78
     0
170
     0
171
     2
172
     0
173
     0
174
     1
175
      0
176
5
177
5
178
     1
271
3
272
3
  0
ENDTAB
  0
TABLE
  2
DIMSTYLE
 70
     2
  0
DIMSTYLE
  2
VDRILLDIM
 70
     0
  3

  4

  5
_NONE
  6
_NONE
  7
_NONE
 40
1
 41
0.1
 42
0.0625
 43
0.38
 44
0.18
 45
0.00
 46
0.0
 47
0.0
 48
0.0
140
0.5
141
0.09
142
0.0
143
25.399999999999999
144
1.0
145
0.5
146
1.0
147
0.09
 71
     1
 72
     0
 73
     1
 74
     0
 75
     0
 76
     0
 77
     2
 78
     0
170
     0
171
     2
172
     0
173
     0
174
     1
175
      0
176
5
177
5
178
     1
271
3
272
3
  0
ENDTAB
  0
TABLE
  2
DIMSTYLE
 70
     2
  0
DIMSTYLE
  2
HDRILLDIM
 70
     0
  3

  4

  5
_NONE
  6
_NONE
  7
_NONE
 40
1
 41
0.1
 42
0.0625
 43
0.38
 44
0.18
 45
0.00
 46
0.0
 47
0.0
 48
0.0
140
0.5
141
0.09
142
0.0
143
25.399999999999999
144
1.0
145
0.5
146
1.0
147
0.09
 71
     1
 72
     0
 73
     1
 74
     0
 75
     0
 76
     0
 77
     2
 78
     0
170
     0
171
     2
172
     0
173
     0
174
     1
175
      0
176
5
177
5
178
     1
271
3
272
3
  0
ENDTAB
  0
TABLE
  2
DIMSTYLE
 70
     2
  0
DIMSTYLE
  2
ROUTEDIM
 70
     0
  3

  4

  5
_NONE
  6
_NONE
  7
_NONE
 40
1
 41
0.1
 42
0.0625
 43
0.38
 44
0.18
 45
0.00
 46
0.0
 47
0.0
 48
0.0
140
0.5
141
0.09
142
0.0
143
25.399999999999999
144
1.0
145
0.5
146
1.0
147
0.09
 71
     1
 72
     0
 73
     1
 74
     0
 75
     0
 76
     0
 77
     2
 78
     0
170
     0
171
     2
172
     0
173
     0
174
     1
175
      0
176
5
177
5
178
     1
271
3
272
3
  0
ENDTAB
  0
TABLE
  2
DIMSTYLE
 70
     2
  0
DIMSTYLE
  2
SAWDIM
 70
     0
  3

  4

  5
_NONE
  6
_NONE
  7
_NONE
 40
1
 41
0.1
 42
0.0625
 43
0.38
 44
0.18
 45
0.00
 46
0.0
 47
0.0
 48
0.0
140
0.5
141
0.09
142
0.0
143
25.399999999999999
144
1.0
145
0.5
146
1.0
147
0.09
 71
     1
 72
     0
 73
     1
 74
     0
 75
     0
 76
     0
 77
     2
 78
     0
170
     0
171
     2
172
     0
173
     0
174
     1
175
      0
176
5
177
5
178
     1
271
3
272
3
  0
ENDTAB
  0
TABLE
  2
VPORT
 70
     1
  0
VPORT
  2
*ACTIVE
 70
     0
 10
0.0
 20
0.0
 11
1.0
 21
1.0
 12
0.0
 22
0.0
 13
0.0
 23
0.0
 14
1.0
 24
1.0
 15
0.0
 25
0.0
 16
0.0
 26
0.0
 36
1.0
 17
0.0
 27
0.0
 37
0.0
 40
84
 41
2.0
 42
50.0
 43
0.0
 44
0.0
 50
0.0
 51
0.0
 71
     0
 72
   100
 73
     1
 74
     0
 75
     1
 76
     0
 77
     0
 78
     0
  0
ENDTAB
  0
ENDSEC
  0
SECTION
  2
ENTITIES
  0
POLYLINE
  8
BORDER_Z0P04
 62
     7
 66
     1
 10
0.0
 20
0.0
 30
0.0
 70
     1
  0
VERTEX
  8
BORDER_Z0P04
 62
     7
 10
0.0
 20
0.0
 30
0.0
  0
VERTEX
  8
BORDER_Z0P04
 62
     7
 10
0.0
 20
34.6808
 30
0.0
  0
VERTEX
  8
BORDER_Z0P04
 62
     7
 10
25.9757
 20
34.6808
 30
0.0
  0
VERTEX
  8
BORDER_Z0P04
 62
     7
 10
25.9757
 20
0.0
 30
0.0
  0
SEQEND
  8
BORDER_Z0P04
 62
     7
  0
POLYLINE
  8
ROUTE_Z0P25LT130RAMP
 62
     3
 66
     1
 10
0.0
 20
0.0
 30
0.0
 70
     0
  0
VERTEX
  8
ROUTE_Z0P25LT130RAMP
 62
     3
 10
3.415116
 20
16.771705
 30
0.0
 42
0.414213562373095
  0
VERTEX
  8
ROUTE_Z0P25LT130RAMP
 62
     3
 10
3.738766
 20
17.046029
 30
0.0
 42
0.0669022117461248
  0
VERTEX
  8
ROUTE_Z0P25LT130RAMP
 62
     3
 10
2.843983
 20
34.474286
 30
0.0
  0
VERTEX
  8
ROUTE_Z0P25LT130RAMP
 62
     3
 10
25.120141
 20
34.6808
 30
0.0
 42
-0.0996301438873094
  0
VERTEX
  8
ROUTE_Z0P25LT130RAMP
 62
     3
 10
23.098942
 20
0.214161999999995
 30
0.0
  0
VERTEX
  8
ROUTE_Z0P25LT130RAMP
 62
     3
 10
0
 20
1.99999999992428E-05
 30
0.0
 42
0.0669022117461248
  0
VERTEX
  8
ROUTE_Z0P25LT130RAMP
 62
     3
 10
3.738766
 20
17.046029
 30
0.0
  0
SEQEND
  8
ROUTE_Z0P25LT130RAMP
 62
     3
  0
DIMENSION
  8
2D_DIM
  2
*D1
  3
BOARDERDIM
  1
25.976
 10
25.9757
 20
39.6808
 30
0.0
 11
12.98785
 21
39.6808
 31
0.0
 13
0
 23
34.6808
 14
25.9757
 24
34.6808
 33
0.0
 34
0.0
53
0
  0
DIMENSION
  8
2D_DIM
  2
*D1
  3
BOARDERDIM
  1
34.681
 10
-5
 20
34.6808
 30
0.0
 11
-5
 21
17.3404
 31
0
 13
0.0
 23
0
 14
0.0
 24
34.6808
 50
90.0
53
0
 33
0.0
 34
0.0
  0
DIMENSION
  8
2D_DIM
  2
*D1
  3
ROUTEDIM
  1
0
 10
0
 20
37.1808
 30
0.0
 11
0
 21
37.1808
 31
0.0
 13
0
 23
34.6808
 14
0
 24
34.6808
 33
0.0
 34
0.0
53
90
  0
DIMENSION
  8
2D_DIM
  2
*D1
  3
ROUTEDIM
  1
2.844
 10
2.843983
 20
37.1808
 30
0.0
 11
1.4219915
 21
37.1808
 31
0.0
 13
0
 23
34.6808
 14
2.843983
 24
34.6808
 33
0.0
 34
0.0
53
90
  0
DIMENSION
  8
2D_DIM
  2
*D1
  3
ROUTEDIM
  1
0.571
 10
3.415116
 20
37.1808
 30
0.0
 11
1.707558
 21
37.1808
 31
0.0
 13
2.843983
 23
34.6808
 14
3.415116
 24
34.6808
 33
0.0
 34
0.0
53
90
  0
DIMENSION
  8
2D_DIM
  2
*D1
  3
ROUTEDIM
  1
0.324
 10
3.738766
 20
37.1808
 30
0.0
 11
1.869383
 21
37.1808
 31
0.0
 13
3.415116
 23
34.6808
 14
3.738766
 24
34.6808
 33
0.0
 34
0.0
53
90
  0
DIMENSION
  8
2D_DIM
  2
*D1
  3
ROUTEDIM
  1
19.36
 10
23.098942
 20
37.1808
 30
0.0
 11
11.549471
 21
37.1808
 31
0.0
 13
3.738766
 23
34.6808
 14
23.098942
 24
34.6808
 33
0.0
 34
0.0
53
90
  0
DIMENSION
  8
2D_DIM
  2
*D1
  3
ROUTEDIM
  1
2.021
 10
25.120141
 20
37.1808
 30
0.0
 11
12.5600705
 21
37.1808
 31
0.0
 13
23.098942
 23
34.6808
 14
25.120141
 24
34.6808
 33
0.0
 34
0.0
53
90
  0
DIMENSION
  8
2D_DIM
  2
*D1
  3
ROUTEDIM
  1
0.856
 10
25.9757
 20
37.1808
 30
0.0
 11
12.98785
 21
37.1808
 31
0.0
 13
25.120141
 23
34.6808
 14
25.9757
 24
34.6808
 33
0.0
 34
0.0
53
90
  0
DIMENSION
  8
2D_DIM
  2
*D1
  3
ROUTEDIM
  1
-0
 10
-2.5
 20
1.99999999992428E-05
 30
0.0
 11
-2.5
 21
9.9999999996214E-06
 31
0
 13
0.0
 23
0
 14
0.0
 24
1.99999999992428E-05
 50
90.0
53
0
 33
0.0
 34
0.0
  0
DIMENSION
  8
2D_DIM
  2
*D1
  3
ROUTEDIM
  1
0.214
 10
-2.5
 20
0.214161999999995
 30
0.0
 11
-2.5
 21
0.107080999999997
 31
0
 13
0.0
 23
1.99999999992428E-05
 14
0.0
 24
0.214161999999995
 50
90.0
53
0
 33
0.0
 34
0.0
  0
DIMENSION
  8
2D_DIM
  2
*D1
  3
ROUTEDIM
  1
16.558
 10
-2.5
 20
16.771705
 30
0.0
 11
-2.5
 21
8.3858525
 31
0
 13
0.0
 23
0.214161999999995
 14
0.0
 24
16.771705
 50
90.0
53
0
 33
0.0
 34
0.0
  0
DIMENSION
  8
2D_DIM
  2
*D1
  3
ROUTEDIM
  1
0.274
 10
-2.5
 20
17.046029
 30
0.0
 11
-2.5
 21
8.5230145
 31
0
 13
0.0
 23
16.771705
 14
0.0
 24
17.046029
 50
90.0
53
0
 33
0.0
 34
0.0
  0
DIMENSION
  8
2D_DIM
  2
*D1
  3
ROUTEDIM
  1
17.428
 10
-2.5
 20
34.474286
 30
0.0
 11
-2.5
 21
17.237143
 31
0
 13
0.0
 23
17.046029
 14
0.0
 24
34.474286
 50
90.0
53
0
 33
0.0
 34
0.0
  0
DIMENSION
  8
2D_DIM
  2
*D1
  3
ROUTEDIM
  1
0.207
 10
-2.5
 20
34.6808
 30
0.0
 11
-2.5
 21
17.3404
 31
0
 13
0.0
 23
34.474286
 14
0.0
 24
34.6808
 50
90.0
53
0
 33
0.0
 34
0.0
  0
DIMENSION
  8
2D_DIM
  2
*D1
  3
ROUTEDIM
  1
0
 10
-2.5
 20
34.6808
 30
0.0
 11
-2.5
 21
17.3404
 31
0
 13
0.0
 23
34.6808
 14
0.0
 24
34.6808
 50
90.0
53
0
 33
0.0
 34
0.0
  0
DIMENSION
  8
2D_DIM
  2
*D1
  3
ROUTEDIM
  1
3.44
 10
3.439779
 20
17.070692
 30
0.0
 11
1.7198895
 21
17.070692
 31
0.0
 13
0
 23
17.070692
 14
3.439779
 24
17.070692
 33
0.0
 34
0.0
53
90
  0
DIMENSION
  8
2D_DIM
  2
*D1
  3
ROUTEDIM
  1
17.071
 10
3.439779
 20
17.070692
 30
0.0
 11
3.439779
 21
8.535346
 31
0
 13
3.439779
 23
0
 14
3.439779
 24
17.070692
 50
90.0
53
0
 33
0.0
 34
0.0
  0
DIMENSION
  8
2D_DIM
  2
*D1
  3
ROUTEDIM
  1
-61.543
 10
-61.5429908677318
 20
22.4315005983468
 30
0.0
 11
-30.7714954338659
 21
22.4315005983468
 31
0.0
 13
0
 23
22.4315005983468
 14
-61.5429908677318
 24
22.4315005983468
 33
0.0
 34
0.0
53
90
  0
DIMENSION
  8
2D_DIM
  2
*D1
  3
ROUTEDIM
  1
22.432
 10
-61.5429908677318
 20
22.4315005983468
 30
0.0
 11
-61.5429908677318
 21
11.2157502991734
 31
0
 13
-61.5429908677318
 23
0
 14
-61.5429908677318
 24
22.4315005983468
 50
90.0
53
0
 33
0.0
 34
0.0
  0
DIMENSION
  8
2D_DIM
  2
*D1
  3
ROUTEDIM
  1
-61.518
 10
-61.5184499719735
 20
22.4688936116728
 30
0.0
 11
-30.7592249859868
 21
22.4688936116728
 31
0.0
 13
0
 23
22.4688936116728
 14
-61.5184499719735
 24
22.4688936116728
 33
0.0
 34
0.0
53
90
  0
DIMENSION
  8
2D_DIM
  2
*D1
  3
ROUTEDIM
  1
22.469
 10
-61.5184499719735
 20
22.4688936116728
 30
0.0
 11
-61.5184499719735
 21
11.2344468058364
 31
0
 13
-61.5184499719735
 23
0
 14
-61.5184499719735
 24
22.4688936116728
 50
90.0
53
0
 33
0.0
 34
0.0
  0
DIMENSION
  8
2D_DIM
  2
*D1
  3
ROUTEDIM
  1
-61.543
 10
-61.5429924066539
 20
22.4315020298214
 30
0.0
 11
-30.771496203327
 21
22.4315020298214
 31
0.0
 13
0
 23
22.4315020298214
 14
-61.5429924066539
 24
22.4315020298214
 33
0.0
 34
0.0
53
90
  0
DIMENSION
  8
2D_DIM
  2
*D1
  3
ROUTEDIM
  1
22.432
 10
-61.5429924066539
 20
22.4315020298214
 30
0.0
 11
-61.5429924066539
 21
11.2157510149107
 31
0
 13
-61.5429924066539
 23
0
 14
-61.5429924066539
 24
22.4315020298214
 50
90.0
53
0
 33
0.0
 34
0.0
  0
TEXT
  8
ITEMNUMBER
 62
     1
 10
-7.5
 20
-5
 30
0.0
 40
0.5
  1
T31106.22
  0
TEXT
  8
DESCRIPTION
 62
     1
 10
-7.5
 20
-6
 30
0.0
 40
0.5
  1
P1B
  0
TEXT
  8
FILENAME
 62
     1
 10
-7.5
 20
-7
 30
0.0
 40
0.5
  1
5600AE1K
  0
TEXT
  8
MATERIALNAME
 62
     1
 10
-7.5
 20
-8
 30
0.0
 40
0.5
  1
AB1860SEI-PF/4x10
  0
TEXT
  8
Qty
 62
     1
 10
-7.5
 20
-9
 30
0.0
 40
0.5
  1
1
  0
TEXT
  8
RUNFIELD
 62
     1
 10
8
 20
-1
 30
0.0
 40
0.5
  1
Mirrored
  0
ENDSEC
  0
EOF
