  0
SECTION
  2
TABLES
  0
TABLE
  2
DIMSTYLE
 70
     2
  0
DIMSTYLE
  2
BOARDERDIM
 70
     0
  3

  4

  5
_NONE
  6
_NONE
  7
_NONE
 40
1
 41
0.1
 42
0.0625
 43
0.38
 44
0.18
 45
0.00
 46
0.0
 47
0.0
 48
0.0
140
0.5
141
0.09
142
0.0
143
25.399999999999999
144
1.0
145
0.5
146
1.0
147
0.09
 71
     1
 72
     0
 73
     1
 74
     0
 75
     0
 76
     0
 77
     2
 78
     0
170
     0
171
     2
172
     0
173
     0
174
     1
175
      0
176
5
177
5
178
     1
271
3
272
3
  0
ENDTAB
  0
TABLE
  2
DIMSTYLE
 70
     2
  0
DIMSTYLE
  2
VDRILLDIM
 70
     0
  3

  4

  5
_NONE
  6
_NONE
  7
_NONE
 40
1
 41
0.1
 42
0.0625
 43
0.38
 44
0.18
 45
0.00
 46
0.0
 47
0.0
 48
0.0
140
0.5
141
0.09
142
0.0
143
25.399999999999999
144
1.0
145
0.5
146
1.0
147
0.09
 71
     1
 72
     0
 73
     1
 74
     0
 75
     0
 76
     0
 77
     2
 78
     0
170
     0
171
     2
172
     0
173
     0
174
     1
175
      0
176
5
177
5
178
     1
271
3
272
3
  0
ENDTAB
  0
TABLE
  2
DIMSTYLE
 70
     2
  0
DIMSTYLE
  2
HDRILLDIM
 70
     0
  3

  4

  5
_NONE
  6
_NONE
  7
_NONE
 40
1
 41
0.1
 42
0.0625
 43
0.38
 44
0.18
 45
0.00
 46
0.0
 47
0.0
 48
0.0
140
0.5
141
0.09
142
0.0
143
25.399999999999999
144
1.0
145
0.5
146
1.0
147
0.09
 71
     1
 72
     0
 73
     1
 74
     0
 75
     0
 76
     0
 77
     2
 78
     0
170
     0
171
     2
172
     0
173
     0
174
     1
175
      0
176
5
177
5
178
     1
271
3
272
3
  0
ENDTAB
  0
TABLE
  2
DIMSTYLE
 70
     2
  0
DIMSTYLE
  2
ROUTEDIM
 70
     0
  3

  4

  5
_NONE
  6
_NONE
  7
_NONE
 40
1
 41
0.1
 42
0.0625
 43
0.38
 44
0.18
 45
0.00
 46
0.0
 47
0.0
 48
0.0
140
0.5
141
0.09
142
0.0
143
25.399999999999999
144
1.0
145
0.5
146
1.0
147
0.09
 71
     1
 72
     0
 73
     1
 74
     0
 75
     0
 76
     0
 77
     2
 78
     0
170
     0
171
     2
172
     0
173
     0
174
     1
175
      0
176
5
177
5
178
     1
271
3
272
3
  0
ENDTAB
  0
TABLE
  2
DIMSTYLE
 70
     2
  0
DIMSTYLE
  2
SAWDIM
 70
     0
  3

  4

  5
_NONE
  6
_NONE
  7
_NONE
 40
1
 41
0.1
 42
0.0625
 43
0.38
 44
0.18
 45
0.00
 46
0.0
 47
0.0
 48
0.0
140
0.5
141
0.09
142
0.0
143
25.399999999999999
144
1.0
145
0.5
146
1.0
147
0.09
 71
     1
 72
     0
 73
     1
 74
     0
 75
     0
 76
     0
 77
     2
 78
     0
170
     0
171
     2
172
     0
173
     0
174
     1
175
      0
176
5
177
5
178
     1
271
3
272
3
  0
ENDTAB
  0
TABLE
  2
VPORT
 70
     1
  0
VPORT
  2
*ACTIVE
 70
     0
 10
0.0
 20
0.0
 11
1.0
 21
1.0
 12
0.0
 22
0.0
 13
0.0
 23
0.0
 14
1.0
 24
1.0
 15
0.0
 25
0.0
 16
0.0
 26
0.0
 36
1.0
 17
0.0
 27
0.0
 37
0.0
 40
84
 41
2.0
 42
50.0
 43
0.0
 44
0.0
 50
0.0
 51
0.0
 71
     0
 72
   100
 73
     1
 74
     0
 75
     1
 76
     0
 77
     0
 78
     0
  0
ENDTAB
  0
ENDSEC
  0
SECTION
  2
ENTITIES
  0
POLYLINE
  8
BORDER_Z0P04
 62
     7
 66
     1
 10
0.0
 20
0.0
 30
0.0
 70
     1
  0
VERTEX
  8
BORDER_Z0P04
 62
     7
 10
0.0
 20
0.0
 30
0.0
  0
VERTEX
  8
BORDER_Z0P04
 62
     7
 10
0.0
 20
27.125
 30
0.0
  0
VERTEX
  8
BORDER_Z0P04
 62
     7
 10
25.9201
 20
27.125
 30
0.0
  0
VERTEX
  8
BORDER_Z0P04
 62
     7
 10
25.9201
 20
0.0
 30
0.0
  0
SEQEND
  8
BORDER_Z0P04
 62
     7
  0
POLYLINE
  8
ROUTE_Z0P25LT130RAMP
 62
     3
 66
     1
 10
0.0
 20
0.0
 30
0.0
 70
     0
  0
VERTEX
  8
ROUTE_Z0P25LT130RAMP
 62
     3
 10
26.081417
 20
27.571895
 30
0.0
  0
VERTEX
  8
ROUTE_Z0P25LT130RAMP
 62
     3
 10
25.954482
 20
27.219032
 30
0.0
 42
0.0160701509930191
  0
VERTEX
  8
ROUTE_Z0P25LT130RAMP
 62
     3
 10
24.646876
 20
23.217755
 30
0.0
 42
0.454374929402102
  0
VERTEX
  8
ROUTE_Z0P25LT130RAMP
 62
     3
 10
4.541517
 20
-0.0990360000000017
 30
0.0
  0
VERTEX
  8
ROUTE_Z0P25LT130RAMP
 62
     3
 10
4.576719
 20
-0.472380000000001
 30
0.0
  0
SEQEND
  8
ROUTE_Z0P25LT130RAMP
 62
     3
  0
POLYLINE
  8
ROUTE_Z0P25LT130RAMP
 62
     3
 66
     1
 10
0.0
 20
0.0
 30
0.0
 70
     0
  0
VERTEX
  8
ROUTE_Z0P25LT130RAMP
 62
     3
 10
0.156287
 20
-0.474487
 30
0.0
  0
VERTEX
  8
ROUTE_Z0P25LT130RAMP
 62
     3
 10
0.139962
 20
-0.0998429999999999
 30
0.0
 42
-0.0789542198318465
  0
VERTEX
  8
ROUTE_Z0P25LT130RAMP
 62
     3
 10
2.906176
 20
27.221692
 30
0.0
  0
VERTEX
  8
ROUTE_Z0P25LT130RAMP
 62
     3
 10
2.997263
 20
27.585462
 30
0.0
  0
SEQEND
  8
ROUTE_Z0P25LT130RAMP
 62
     3
  0
DIMENSION
  8
2D_DIM
  2
*D1
  3
BOARDERDIM
  1
25.92
 10
25.9201
 20
32.125
 30
0.0
 11
12.96005
 21
32.125
 31
0.0
 13
0
 23
27.125
 14
25.9201
 24
27.125
 33
0.0
 34
0.0
53
0
  0
DIMENSION
  8
2D_DIM
  2
*D1
  3
BOARDERDIM
  1
27.125
 10
-5
 20
27.125
 30
0.0
 11
-5
 21
13.5625
 31
0
 13
0.0
 23
0
 14
0.0
 24
27.125
 50
90.0
53
0
 33
0.0
 34
0.0
  0
DIMENSION
  8
2D_DIM
  2
*D1
  3
ROUTEDIM
  1
0.14
 10
0.139962
 20
29.625
 30
0.0
 11
0.069981
 21
29.625
 31
0.0
 13
0
 23
27.125
 14
0.139962
 24
27.125
 33
0.0
 34
0.0
53
90
  0
DIMENSION
  8
2D_DIM
  2
*D1
  3
ROUTEDIM
  1
0.016
 10
0.156287
 20
29.625
 30
0.0
 11
0.0781435
 21
29.625
 31
0.0
 13
0.139962
 23
27.125
 14
0.156287
 24
27.125
 33
0.0
 34
0.0
53
90
  0
DIMENSION
  8
2D_DIM
  2
*D1
  3
ROUTEDIM
  1
2.75
 10
2.906176
 20
29.625
 30
0.0
 11
1.453088
 21
29.625
 31
0.0
 13
0.156287
 23
27.125
 14
2.906176
 24
27.125
 33
0.0
 34
0.0
53
90
  0
DIMENSION
  8
2D_DIM
  2
*D1
  3
ROUTEDIM
  1
0.091
 10
2.997263
 20
29.625
 30
0.0
 11
1.4986315
 21
29.625
 31
0.0
 13
2.906176
 23
27.125
 14
2.997263
 24
27.125
 33
0.0
 34
0.0
53
90
  0
DIMENSION
  8
2D_DIM
  2
*D1
  3
ROUTEDIM
  1
1.544
 10
4.541517
 20
29.625
 30
0.0
 11
2.2707585
 21
29.625
 31
0.0
 13
2.997263
 23
27.125
 14
4.541517
 24
27.125
 33
0.0
 34
0.0
53
90
  0
DIMENSION
  8
2D_DIM
  2
*D1
  3
ROUTEDIM
  1
0.035
 10
4.576719
 20
29.625
 30
0.0
 11
2.2883595
 21
29.625
 31
0.0
 13
4.541517
 23
27.125
 14
4.576719
 24
27.125
 33
0.0
 34
0.0
53
90
  0
DIMENSION
  8
2D_DIM
  2
*D1
  3
ROUTEDIM
  1
20.07
 10
24.646876
 20
29.625
 30
0.0
 11
12.323438
 21
29.625
 31
0.0
 13
4.576719
 23
27.125
 14
24.646876
 24
27.125
 33
0.0
 34
0.0
53
90
  0
DIMENSION
  8
2D_DIM
  2
*D1
  3
ROUTEDIM
  1
1.308
 10
25.954482
 20
29.625
 30
0.0
 11
12.977241
 21
29.625
 31
0.0
 13
24.646876
 23
27.125
 14
25.954482
 24
27.125
 33
0.0
 34
0.0
53
90
  0
DIMENSION
  8
2D_DIM
  2
*D1
  3
ROUTEDIM
  1
0.127
 10
26.081417
 20
29.625
 30
0.0
 11
13.0407085
 21
29.625
 31
0.0
 13
25.954482
 23
27.125
 14
26.081417
 24
27.125
 33
0.0
 34
0.0
53
90
  0
DIMENSION
  8
2D_DIM
  2
*D1
  3
ROUTEDIM
  1
-0.161
 10
25.9201
 20
29.625
 30
0.0
 11
12.96005
 21
29.625
 31
0.0
 13
26.081417
 23
27.125
 14
25.9201
 24
27.125
 33
0.0
 34
0.0
53
90
  0
DIMENSION
  8
2D_DIM
  2
*D1
  3
ROUTEDIM
  1
0.474
 10
-2.5
 20
-0.474487
 30
0.0
 11
-2.5
 21
-0.2372435
 31
0
 13
0.0
 23
0
 14
0.0
 24
-0.474487
 50
90.0
53
0
 33
0.0
 34
0.0
  0
DIMENSION
  8
2D_DIM
  2
*D1
  3
ROUTEDIM
  1
0.002
 10
-2.5
 20
-0.472380000000001
 30
0.0
 11
-2.5
 21
-0.236190000000001
 31
0
 13
0.0
 23
-0.474487
 14
0.0
 24
-0.472380000000001
 50
90.0
53
0
 33
0.0
 34
0.0
  0
DIMENSION
  8
2D_DIM
  2
*D1
  3
ROUTEDIM
  1
0.373
 10
-2.5
 20
-0.0998429999999999
 30
0.0
 11
-2.5
 21
-0.0499215
 31
0
 13
0.0
 23
-0.472380000000001
 14
0.0
 24
-0.0998429999999999
 50
90.0
53
0
 33
0.0
 34
0.0
  0
DIMENSION
  8
2D_DIM
  2
*D1
  3
ROUTEDIM
  1
0.001
 10
-2.5
 20
-0.0990360000000017
 30
0.0
 11
-2.5
 21
-0.0495180000000009
 31
0
 13
0.0
 23
-0.0998429999999999
 14
0.0
 24
-0.0990360000000017
 50
90.0
53
0
 33
0.0
 34
0.0
  0
DIMENSION
  8
2D_DIM
  2
*D1
  3
ROUTEDIM
  1
23.317
 10
-2.5
 20
23.217755
 30
0.0
 11
-2.5
 21
11.6088775
 31
0
 13
0.0
 23
-0.0990360000000017
 14
0.0
 24
23.217755
 50
90.0
53
0
 33
0.0
 34
0.0
  0
DIMENSION
  8
2D_DIM
  2
*D1
  3
ROUTEDIM
  1
4.001
 10
-2.5
 20
27.219032
 30
0.0
 11
-2.5
 21
13.609516
 31
0
 13
0.0
 23
23.217755
 14
0.0
 24
27.219032
 50
90.0
53
0
 33
0.0
 34
0.0
  0
DIMENSION
  8
2D_DIM
  2
*D1
  3
ROUTEDIM
  1
0.003
 10
-2.5
 20
27.221692
 30
0.0
 11
-2.5
 21
13.610846
 31
0
 13
0.0
 23
27.219032
 14
0.0
 24
27.221692
 50
90.0
53
0
 33
0.0
 34
0.0
  0
DIMENSION
  8
2D_DIM
  2
*D1
  3
ROUTEDIM
  1
0.35
 10
-2.5
 20
27.571895
 30
0.0
 11
-2.5
 21
13.7859475
 31
0
 13
0.0
 23
27.221692
 14
0.0
 24
27.571895
 50
90.0
53
0
 33
0.0
 34
0.0
  0
DIMENSION
  8
2D_DIM
  2
*D1
  3
ROUTEDIM
  1
0.014
 10
-2.5
 20
27.585462
 30
0.0
 11
-2.5
 21
13.792731
 31
0
 13
0.0
 23
27.571895
 14
0.0
 24
27.585462
 50
90.0
53
0
 33
0.0
 34
0.0
  0
DIMENSION
  8
2D_DIM
  2
*D1
  3
ROUTEDIM
  1
0.46
 10
-2.5
 20
27.125
 30
0.0
 11
-2.5
 21
13.5625
 31
0
 13
0.0
 23
27.585462
 14
0.0
 24
27.125
 50
90.0
53
0
 33
0.0
 34
0.0
  0
DIMENSION
  8
2D_DIM
  2
*D1
  3
ROUTEDIM
  1
87.532
 10
87.5316386366117
 20
4.88149200415472
 30
0.0
 11
43.7658193183059
 21
4.88149200415472
 31
0.0
 13
0
 23
4.88149200415472
 14
87.5316386366117
 24
4.88149200415472
 33
0.0
 34
0.0
53
90
  0
DIMENSION
  8
2D_DIM
  2
*D1
  3
ROUTEDIM
  1
4.881
 10
87.5316386366117
 20
4.88149200415472
 30
0.0
 11
87.5316386366117
 21
2.44074600207736
 31
0
 13
87.5316386366117
 23
0
 14
87.5316386366117
 24
4.88149200415472
 50
90.0
53
0
 33
0.0
 34
0.0
  0
DIMENSION
  8
2D_DIM
  2
*D1
  3
ROUTEDIM
  1
24.775
 10
24.7746031193971
 20
2.7811048143979
 30
0.0
 11
12.3873015596985
 21
2.7811048143979
 31
0.0
 13
0
 23
2.7811048143979
 14
24.7746031193971
 24
2.7811048143979
 33
0.0
 34
0.0
53
90
  0
DIMENSION
  8
2D_DIM
  2
*D1
  3
ROUTEDIM
  1
2.781
 10
24.7746031193971
 20
2.7811048143979
 30
0.0
 11
24.7746031193971
 21
1.39055240719895
 31
0
 13
24.7746031193971
 23
0
 14
24.7746031193971
 24
2.7811048143979
 50
90.0
53
0
 33
0.0
 34
0.0
  0
DIMENSION
  8
2D_DIM
  2
*D1
  3
ROUTEDIM
  1
87.494
 10
87.4944677566945
 20
4.85660803899762
 30
0.0
 11
43.7472338783473
 21
4.85660803899762
 31
0.0
 13
0
 23
4.85660803899762
 14
87.4944677566945
 24
4.85660803899762
 33
0.0
 34
0.0
53
90
  0
DIMENSION
  8
2D_DIM
  2
*D1
  3
ROUTEDIM
  1
4.857
 10
87.4944677566945
 20
4.85660803899762
 30
0.0
 11
87.4944677566945
 21
2.42830401949881
 31
0
 13
87.4944677566945
 23
0
 14
87.4944677566945
 24
4.85660803899762
 50
90.0
53
0
 33
0.0
 34
0.0
  0
TEXT
  8
ITEMNUMBER
 62
     1
 10
-7.5
 20
-5
 30
0.0
 40
0.5
  1
T31106.22
  0
TEXT
  8
DESCRIPTION
 62
     1
 10
-7.5
 20
-6
 30
0.0
 40
0.5
  1
P3A
  0
TEXT
  8
FILENAME
 62
     1
 10
-7.5
 20
-7
 30
0.0
 40
0.5
  1
5600AE48
  0
TEXT
  8
MATERIALNAME
 62
     1
 10
-7.5
 20
-8
 30
0.0
 40
0.5
  1
AB1860SEI-PF/4x10
  0
TEXT
  8
Qty
 62
     1
 10
-7.5
 20
-9
 30
0.0
 40
0.5
  1
1
  0
TEXT
  8
RUNFIELD
 62
     1
 10
8
 20
-1
 30
0.0
 40
0.5
  1
Mirrored
  0
ENDSEC
  0
EOF
