  0
SECTION
  2
TABLES
  0
TABLE
  2
DIMSTYLE
 70
     2
  0
DIMSTYLE
  2
BOARDERDIM
 70
     0
  3

  4

  5
_NONE
  6
_NONE
  7
_NONE
 40
1
 41
0.1
 42
0.0625
 43
0.38
 44
0.18
 45
0.00
 46
0.0
 47
0.0
 48
0.0
140
0.5
141
0.09
142
0.0
143
25.399999999999999
144
1.0
145
0.5
146
1.0
147
0.09
 71
     1
 72
     0
 73
     1
 74
     0
 75
     0
 76
     0
 77
     2
 78
     0
170
     0
171
     2
172
     0
173
     0
174
     1
175
      0
176
5
177
5
178
     1
271
3
272
3
  0
ENDTAB
  0
TABLE
  2
DIMSTYLE
 70
     2
  0
DIMSTYLE
  2
VDRILLDIM
 70
     0
  3

  4

  5
_NONE
  6
_NONE
  7
_NONE
 40
1
 41
0.1
 42
0.0625
 43
0.38
 44
0.18
 45
0.00
 46
0.0
 47
0.0
 48
0.0
140
0.5
141
0.09
142
0.0
143
25.399999999999999
144
1.0
145
0.5
146
1.0
147
0.09
 71
     1
 72
     0
 73
     1
 74
     0
 75
     0
 76
     0
 77
     2
 78
     0
170
     0
171
     2
172
     0
173
     0
174
     1
175
      0
176
5
177
5
178
     1
271
3
272
3
  0
ENDTAB
  0
TABLE
  2
DIMSTYLE
 70
     2
  0
DIMSTYLE
  2
HDRILLDIM
 70
     0
  3

  4

  5
_NONE
  6
_NONE
  7
_NONE
 40
1
 41
0.1
 42
0.0625
 43
0.38
 44
0.18
 45
0.00
 46
0.0
 47
0.0
 48
0.0
140
0.5
141
0.09
142
0.0
143
25.399999999999999
144
1.0
145
0.5
146
1.0
147
0.09
 71
     1
 72
     0
 73
     1
 74
     0
 75
     0
 76
     0
 77
     2
 78
     0
170
     0
171
     2
172
     0
173
     0
174
     1
175
      0
176
5
177
5
178
     1
271
3
272
3
  0
ENDTAB
  0
TABLE
  2
DIMSTYLE
 70
     2
  0
DIMSTYLE
  2
ROUTEDIM
 70
     0
  3

  4

  5
_NONE
  6
_NONE
  7
_NONE
 40
1
 41
0.1
 42
0.0625
 43
0.38
 44
0.18
 45
0.00
 46
0.0
 47
0.0
 48
0.0
140
0.5
141
0.09
142
0.0
143
25.399999999999999
144
1.0
145
0.5
146
1.0
147
0.09
 71
     1
 72
     0
 73
     1
 74
     0
 75
     0
 76
     0
 77
     2
 78
     0
170
     0
171
     2
172
     0
173
     0
174
     1
175
      0
176
5
177
5
178
     1
271
3
272
3
  0
ENDTAB
  0
TABLE
  2
DIMSTYLE
 70
     2
  0
DIMSTYLE
  2
SAWDIM
 70
     0
  3

  4

  5
_NONE
  6
_NONE
  7
_NONE
 40
1
 41
0.1
 42
0.0625
 43
0.38
 44
0.18
 45
0.00
 46
0.0
 47
0.0
 48
0.0
140
0.5
141
0.09
142
0.0
143
25.399999999999999
144
1.0
145
0.5
146
1.0
147
0.09
 71
     1
 72
     0
 73
     1
 74
     0
 75
     0
 76
     0
 77
     2
 78
     0
170
     0
171
     2
172
     0
173
     0
174
     1
175
      0
176
5
177
5
178
     1
271
3
272
3
  0
ENDTAB
  0
TABLE
  2
VPORT
 70
     1
  0
VPORT
  2
*ACTIVE
 70
     0
 10
0.0
 20
0.0
 11
1.0
 21
1.0
 12
0.0
 22
0.0
 13
0.0
 23
0.0
 14
1.0
 24
1.0
 15
0.0
 25
0.0
 16
0.0
 26
0.0
 36
1.0
 17
0.0
 27
0.0
 37
0.0
 40
84
 41
2.0
 42
50.0
 43
0.0
 44
0.0
 50
0.0
 51
0.0
 71
     0
 72
   100
 73
     1
 74
     0
 75
     1
 76
     0
 77
     0
 78
     0
  0
ENDTAB
  0
ENDSEC
  0
SECTION
  2
ENTITIES
  0
POLYLINE
  8
BORDER_Z0P04
 62
     7
 66
     1
 10
0.0
 20
0.0
 30
0.0
 70
     1
  0
VERTEX
  8
BORDER_Z0P04
 62
     7
 10
0.0
 20
0.0
 30
0.0
  0
VERTEX
  8
BORDER_Z0P04
 62
     7
 10
0.0
 20
21.4779
 30
0.0
  0
VERTEX
  8
BORDER_Z0P04
 62
     7
 10
27.125
 20
21.4779
 30
0.0
  0
VERTEX
  8
BORDER_Z0P04
 62
     7
 10
27.125
 20
0.0
 30
0.0
  0
SEQEND
  8
BORDER_Z0P04
 62
     7
  0
POLYLINE
  8
ROUTE_Z0P25LT130RAMP
 62
     3
 66
     1
 10
0.0
 20
0.0
 30
0.0
 70
     0
  0
VERTEX
  8
ROUTE_Z0P25LT130RAMP
 62
     3
 10
27.586083
 20
-0.114128999999998
 30
0.0
  0
VERTEX
  8
ROUTE_Z0P25LT130RAMP
 62
     3
 10
27.221841
 20
-0.024953
 30
0.0
 42
0.0750093921525108
  0
VERTEX
  8
ROUTE_Z0P25LT130RAMP
 62
     3
 10
0.661296
 20
2.7163
 30
0.0
 42
0.270539839917729
  0
VERTEX
  8
ROUTE_Z0P25LT130RAMP
 62
     3
 10
-0.058381
 20
9.737926
 30
0.0
  0
VERTEX
  8
ROUTE_Z0P25LT130RAMP
 62
     3
 10
-0.265935
 20
10.05025
 30
0.0
  0
SEQEND
  8
ROUTE_Z0P25LT130RAMP
 62
     3
  0
DIMENSION
  8
2D_DIM
  2
*D1
  3
BOARDERDIM
  1
27.125
 10
27.125
 20
26.4779
 30
0.0
 11
13.5625
 21
26.4779
 31
0.0
 13
0
 23
21.4779
 14
27.125
 24
21.4779
 33
0.0
 34
0.0
53
0
  0
DIMENSION
  8
2D_DIM
  2
*D1
  3
BOARDERDIM
  1
21.478
 10
-5
 20
21.4779
 30
0.0
 11
-5
 21
10.73895
 31
0
 13
0.0
 23
0
 14
0.0
 24
21.4779
 50
90.0
53
0
 33
0.0
 34
0.0
  0
DIMENSION
  8
2D_DIM
  2
*D1
  3
ROUTEDIM
  1
-0.266
 10
-0.265935
 20
23.9779
 30
0.0
 11
-0.1329675
 21
23.9779
 31
0.0
 13
0
 23
21.4779
 14
-0.265935
 24
21.4779
 33
0.0
 34
0.0
53
90
  0
DIMENSION
  8
2D_DIM
  2
*D1
  3
ROUTEDIM
  1
0.208
 10
-0.058381
 20
23.9779
 30
0.0
 11
-0.0291905
 21
23.9779
 31
0.0
 13
-0.265935
 23
21.4779
 14
-0.058381
 24
21.4779
 33
0.0
 34
0.0
53
90
  0
DIMENSION
  8
2D_DIM
  2
*D1
  3
ROUTEDIM
  1
0.72
 10
0.661296
 20
23.9779
 30
0.0
 11
0.330648
 21
23.9779
 31
0.0
 13
-0.058381
 23
21.4779
 14
0.661296
 24
21.4779
 33
0.0
 34
0.0
53
90
  0
DIMENSION
  8
2D_DIM
  2
*D1
  3
ROUTEDIM
  1
26.561
 10
27.221841
 20
23.9779
 30
0.0
 11
13.6109205
 21
23.9779
 31
0.0
 13
0.661296
 23
21.4779
 14
27.221841
 24
21.4779
 33
0.0
 34
0.0
53
90
  0
DIMENSION
  8
2D_DIM
  2
*D1
  3
ROUTEDIM
  1
0.364
 10
27.586083
 20
23.9779
 30
0.0
 11
13.7930415
 21
23.9779
 31
0.0
 13
27.221841
 23
21.4779
 14
27.586083
 24
21.4779
 33
0.0
 34
0.0
53
90
  0
DIMENSION
  8
2D_DIM
  2
*D1
  3
ROUTEDIM
  1
-0.461
 10
27.125
 20
23.9779
 30
0.0
 11
13.5625
 21
23.9779
 31
0.0
 13
27.586083
 23
21.4779
 14
27.125
 24
21.4779
 33
0.0
 34
0.0
53
90
  0
DIMENSION
  8
2D_DIM
  2
*D1
  3
ROUTEDIM
  1
0.114
 10
-2.5
 20
-0.114128999999998
 30
0.0
 11
-2.5
 21
-0.057064499999999
 31
0
 13
0.0
 23
0
 14
0.0
 24
-0.114128999999998
 50
90.0
53
0
 33
0.0
 34
0.0
  0
DIMENSION
  8
2D_DIM
  2
*D1
  3
ROUTEDIM
  1
0.089
 10
-2.5
 20
-0.024953
 30
0.0
 11
-2.5
 21
-0.0124765
 31
0
 13
0.0
 23
-0.114128999999998
 14
0.0
 24
-0.024953
 50
90.0
53
0
 33
0.0
 34
0.0
  0
DIMENSION
  8
2D_DIM
  2
*D1
  3
ROUTEDIM
  1
2.741
 10
-2.5
 20
2.7163
 30
0.0
 11
-2.5
 21
1.35815
 31
0
 13
0.0
 23
-0.024953
 14
0.0
 24
2.7163
 50
90.0
53
0
 33
0.0
 34
0.0
  0
DIMENSION
  8
2D_DIM
  2
*D1
  3
ROUTEDIM
  1
7.022
 10
-2.5
 20
9.737926
 30
0.0
 11
-2.5
 21
4.868963
 31
0
 13
0.0
 23
2.7163
 14
0.0
 24
9.737926
 50
90.0
53
0
 33
0.0
 34
0.0
  0
DIMENSION
  8
2D_DIM
  2
*D1
  3
ROUTEDIM
  1
0.312
 10
-2.5
 20
10.05025
 30
0.0
 11
-2.5
 21
5.025125
 31
0
 13
0.0
 23
9.737926
 14
0.0
 24
10.05025
 50
90.0
53
0
 33
0.0
 34
0.0
  0
DIMENSION
  8
2D_DIM
  2
*D1
  3
ROUTEDIM
  1
11.428
 10
-2.5
 20
21.4779
 30
0.0
 11
-2.5
 21
10.73895
 31
0
 13
0.0
 23
10.05025
 14
0.0
 24
21.4779
 50
90.0
53
0
 33
0.0
 34
0.0
  0
DIMENSION
  8
2D_DIM
  2
*D1
  3
ROUTEDIM
  1
4.857
 10
4.85660756553782
 20
-86.6803181625806
 30
0.0
 11
2.42830378276891
 21
-86.6803181625806
 31
0.0
 13
0
 23
-86.6803181625806
 14
4.85660756553782
 24
-86.6803181625806
 33
0.0
 34
0.0
53
90
  0
DIMENSION
  8
2D_DIM
  2
*D1
  3
ROUTEDIM
  1
86.68
 10
4.85660756553782
 20
-86.6803181625806
 30
0.0
 11
4.85660756553782
 21
-43.3401590812903
 31
0
 13
4.85660756553782
 23
0
 14
4.85660756553782
 24
-86.6803181625806
 50
90.0
53
0
 33
0.0
 34
0.0
  0
DIMENSION
  8
2D_DIM
  2
*D1
  3
ROUTEDIM
  1
-5.712
 10
-5.71216744441249
 20
5.61075041402348
 30
0.0
 11
-2.85608372220625
 21
5.61075041402348
 31
0.0
 13
0
 23
5.61075041402348
 14
-5.71216744441249
 24
5.61075041402348
 33
0.0
 34
0.0
53
90
  0
DIMENSION
  8
2D_DIM
  2
*D1
  3
ROUTEDIM
  1
5.611
 10
-5.71216744441249
 20
5.61075041402348
 30
0.0
 11
-5.71216744441249
 21
2.80537520701174
 31
0
 13
-5.71216744441249
 23
0
 14
-5.71216744441249
 24
5.61075041402348
 50
90.0
53
0
 33
0.0
 34
0.0
  0
TEXT
  8
ITEMNUMBER
 62
     1
 10
-7.5
 20
-5
 30
0.0
 40
0.5
  1
T31106.22
  0
TEXT
  8
DESCRIPTION
 62
     1
 10
-7.5
 20
-6
 30
0.0
 40
0.5
  1
P3A
  0
TEXT
  8
FILENAME
 62
     1
 10
-7.5
 20
-7
 30
0.0
 40
0.5
  1
5600AE42
  0
TEXT
  8
MATERIALNAME
 62
     1
 10
-7.5
 20
-8
 30
0.0
 40
0.5
  1
AB1860SEI-PF/4x10
  0
TEXT
  8
Qty
 62
     1
 10
-7.5
 20
-9
 30
0.0
 40
0.5
  1
1
  0
TEXT
  8
RUNFIELD
 62
     1
 10
8
 20
-1
 30
0.0
 40
0.5
  1
Mirrored
  0
ENDSEC
  0
EOF
