  0
SECTION
  2
TABLES
  0
TABLE
  2
DIMSTYLE
 70
     2
  0
DIMSTYLE
  2
BOARDERDIM
 70
     0
  3

  4

  5
_NONE
  6
_NONE
  7
_NONE
 40
1
 41
0.1
 42
0.0625
 43
0.38
 44
0.18
 45
0.00
 46
0.0
 47
0.0
 48
0.0
140
0.5
141
0.09
142
0.0
143
25.399999999999999
144
1.0
145
0.5
146
1.0
147
0.09
 71
     1
 72
     0
 73
     1
 74
     0
 75
     0
 76
     0
 77
     2
 78
     0
170
     0
171
     2
172
     0
173
     0
174
     1
175
      0
176
5
177
5
178
     1
271
3
272
3
  0
ENDTAB
  0
TABLE
  2
DIMSTYLE
 70
     2
  0
DIMSTYLE
  2
VDRILLDIM
 70
     0
  3

  4

  5
_NONE
  6
_NONE
  7
_NONE
 40
1
 41
0.1
 42
0.0625
 43
0.38
 44
0.18
 45
0.00
 46
0.0
 47
0.0
 48
0.0
140
0.5
141
0.09
142
0.0
143
25.399999999999999
144
1.0
145
0.5
146
1.0
147
0.09
 71
     1
 72
     0
 73
     1
 74
     0
 75
     0
 76
     0
 77
     2
 78
     0
170
     0
171
     2
172
     0
173
     0
174
     1
175
      0
176
5
177
5
178
     1
271
3
272
3
  0
ENDTAB
  0
TABLE
  2
DIMSTYLE
 70
     2
  0
DIMSTYLE
  2
HDRILLDIM
 70
     0
  3

  4

  5
_NONE
  6
_NONE
  7
_NONE
 40
1
 41
0.1
 42
0.0625
 43
0.38
 44
0.18
 45
0.00
 46
0.0
 47
0.0
 48
0.0
140
0.5
141
0.09
142
0.0
143
25.399999999999999
144
1.0
145
0.5
146
1.0
147
0.09
 71
     1
 72
     0
 73
     1
 74
     0
 75
     0
 76
     0
 77
     2
 78
     0
170
     0
171
     2
172
     0
173
     0
174
     1
175
      0
176
5
177
5
178
     1
271
3
272
3
  0
ENDTAB
  0
TABLE
  2
DIMSTYLE
 70
     2
  0
DIMSTYLE
  2
ROUTEDIM
 70
     0
  3

  4

  5
_NONE
  6
_NONE
  7
_NONE
 40
1
 41
0.1
 42
0.0625
 43
0.38
 44
0.18
 45
0.00
 46
0.0
 47
0.0
 48
0.0
140
0.5
141
0.09
142
0.0
143
25.399999999999999
144
1.0
145
0.5
146
1.0
147
0.09
 71
     1
 72
     0
 73
     1
 74
     0
 75
     0
 76
     0
 77
     2
 78
     0
170
     0
171
     2
172
     0
173
     0
174
     1
175
      0
176
5
177
5
178
     1
271
3
272
3
  0
ENDTAB
  0
TABLE
  2
DIMSTYLE
 70
     2
  0
DIMSTYLE
  2
SAWDIM
 70
     0
  3

  4

  5
_NONE
  6
_NONE
  7
_NONE
 40
1
 41
0.1
 42
0.0625
 43
0.38
 44
0.18
 45
0.00
 46
0.0
 47
0.0
 48
0.0
140
0.5
141
0.09
142
0.0
143
25.399999999999999
144
1.0
145
0.5
146
1.0
147
0.09
 71
     1
 72
     0
 73
     1
 74
     0
 75
     0
 76
     0
 77
     2
 78
     0
170
     0
171
     2
172
     0
173
     0
174
     1
175
      0
176
5
177
5
178
     1
271
3
272
3
  0
ENDTAB
  0
TABLE
  2
VPORT
 70
     1
  0
VPORT
  2
*ACTIVE
 70
     0
 10
0.0
 20
0.0
 11
1.0
 21
1.0
 12
0.0
 22
0.0
 13
0.0
 23
0.0
 14
1.0
 24
1.0
 15
0.0
 25
0.0
 16
0.0
 26
0.0
 36
1.0
 17
0.0
 27
0.0
 37
0.0
 40
84
 41
2.0
 42
50.0
 43
0.0
 44
0.0
 50
0.0
 51
0.0
 71
     0
 72
   100
 73
     1
 74
     0
 75
     1
 76
     0
 77
     0
 78
     0
  0
ENDTAB
  0
ENDSEC
  0
SECTION
  2
ENTITIES
  0
POLYLINE
  8
BORDER_Z0P04
 62
     7
 66
     1
 10
0.0
 20
0.0
 30
0.0
 70
     1
  0
VERTEX
  8
BORDER_Z0P04
 62
     7
 10
0.0
 20
0.0
 30
0.0
  0
VERTEX
  8
BORDER_Z0P04
 62
     7
 10
0.0
 20
31.9031
 30
0.0
  0
VERTEX
  8
BORDER_Z0P04
 62
     7
 10
15.1925
 20
31.9031
 30
0.0
  0
VERTEX
  8
BORDER_Z0P04
 62
     7
 10
15.1925
 20
0.0
 30
0.0
  0
SEQEND
  8
BORDER_Z0P04
 62
     7
  0
POLYLINE
  8
ROUTE_Z0P25LT130RAMP
 62
     3
 66
     1
 10
0.0
 20
0.0
 30
0.0
 70
     0
  0
VERTEX
  8
ROUTE_Z0P25LT130RAMP
 62
     3
 10
0.858747
 20
12.783218
 30
0.0
 42
0.414213562373095
  0
VERTEX
  8
ROUTE_Z0P25LT130RAMP
 62
     3
 10
1.048496
 20
13.162686
 30
0.0
 42
-0.246360454289418
  0
VERTEX
  8
ROUTE_Z0P25LT130RAMP
 62
     3
 10
4.099382
 20
31.9031
 30
0.0
  0
VERTEX
  8
ROUTE_Z0P25LT130RAMP
 62
     3
 10
5.155099
 20
31.432429
 30
0.0
 42
0.53138866275349
  0
VERTEX
  8
ROUTE_Z0P25LT130RAMP
 62
     3
 10
15.195278
 20
1.037754
 30
0.0
  0
VERTEX
  8
ROUTE_Z0P25LT130RAMP
 62
     3
 10
14.732627
 20
2.69999999993331E-05
 30
0.0
 42
-0.246360454289418
  0
VERTEX
  8
ROUTE_Z0P25LT130RAMP
 62
     3
 10
1.048496
 20
13.162686
 30
0.0
  0
SEQEND
  8
ROUTE_Z0P25LT130RAMP
 62
     3
  0
DIMENSION
  8
2D_DIM
  2
*D1
  3
BOARDERDIM
  1
15.192
 10
15.1925
 20
36.9031
 30
0.0
 11
7.59625
 21
36.9031
 31
0.0
 13
0
 23
31.9031
 14
15.1925
 24
31.9031
 33
0.0
 34
0.0
53
0
  0
DIMENSION
  8
2D_DIM
  2
*D1
  3
BOARDERDIM
  1
31.903
 10
-5
 20
31.9031
 30
0.0
 11
-5
 21
15.95155
 31
0
 13
0.0
 23
0
 14
0.0
 24
31.9031
 50
90.0
53
0
 33
0.0
 34
0.0
  0
DIMENSION
  8
2D_DIM
  2
*D1
  3
ROUTEDIM
  1
0.859
 10
0.858747
 20
34.4031
 30
0.0
 11
0.4293735
 21
34.4031
 31
0.0
 13
0
 23
31.9031
 14
0.858747
 24
31.9031
 33
0.0
 34
0.0
53
90
  0
DIMENSION
  8
2D_DIM
  2
*D1
  3
ROUTEDIM
  1
0.19
 10
1.048496
 20
34.4031
 30
0.0
 11
0.524248
 21
34.4031
 31
0.0
 13
0.858747
 23
31.9031
 14
1.048496
 24
31.9031
 33
0.0
 34
0.0
53
90
  0
DIMENSION
  8
2D_DIM
  2
*D1
  3
ROUTEDIM
  1
3.051
 10
4.099382
 20
34.4031
 30
0.0
 11
2.049691
 21
34.4031
 31
0.0
 13
1.048496
 23
31.9031
 14
4.099382
 24
31.9031
 33
0.0
 34
0.0
53
90
  0
DIMENSION
  8
2D_DIM
  2
*D1
  3
ROUTEDIM
  1
1.056
 10
5.155099
 20
34.4031
 30
0.0
 11
2.5775495
 21
34.4031
 31
0.0
 13
4.099382
 23
31.9031
 14
5.155099
 24
31.9031
 33
0.0
 34
0.0
53
90
  0
DIMENSION
  8
2D_DIM
  2
*D1
  3
ROUTEDIM
  1
9.578
 10
14.732627
 20
34.4031
 30
0.0
 11
7.3663135
 21
34.4031
 31
0.0
 13
5.155099
 23
31.9031
 14
14.732627
 24
31.9031
 33
0.0
 34
0.0
53
90
  0
DIMENSION
  8
2D_DIM
  2
*D1
  3
ROUTEDIM
  1
0.463
 10
15.195278
 20
34.4031
 30
0.0
 11
7.597639
 21
34.4031
 31
0.0
 13
14.732627
 23
31.9031
 14
15.195278
 24
31.9031
 33
0.0
 34
0.0
53
90
  0
DIMENSION
  8
2D_DIM
  2
*D1
  3
ROUTEDIM
  1
-0.003
 10
15.1925
 20
34.4031
 30
0.0
 11
7.59625
 21
34.4031
 31
0.0
 13
15.195278
 23
31.9031
 14
15.1925
 24
31.9031
 33
0.0
 34
0.0
53
90
  0
DIMENSION
  8
2D_DIM
  2
*D1
  3
ROUTEDIM
  1
-0
 10
-2.5
 20
2.69999999993331E-05
 30
0.0
 11
-2.5
 21
1.34999999996665E-05
 31
0
 13
0.0
 23
0
 14
0.0
 24
2.69999999993331E-05
 50
90.0
53
0
 33
0.0
 34
0.0
  0
DIMENSION
  8
2D_DIM
  2
*D1
  3
ROUTEDIM
  1
1.038
 10
-2.5
 20
1.037754
 30
0.0
 11
-2.5
 21
0.518877
 31
0
 13
0.0
 23
2.69999999993331E-05
 14
0.0
 24
1.037754
 50
90.0
53
0
 33
0.0
 34
0.0
  0
DIMENSION
  8
2D_DIM
  2
*D1
  3
ROUTEDIM
  1
11.745
 10
-2.5
 20
12.783218
 30
0.0
 11
-2.5
 21
6.391609
 31
0
 13
0.0
 23
1.037754
 14
0.0
 24
12.783218
 50
90.0
53
0
 33
0.0
 34
0.0
  0
DIMENSION
  8
2D_DIM
  2
*D1
  3
ROUTEDIM
  1
0.379
 10
-2.5
 20
13.162686
 30
0.0
 11
-2.5
 21
6.581343
 31
0
 13
0.0
 23
12.783218
 14
0.0
 24
13.162686
 50
90.0
53
0
 33
0.0
 34
0.0
  0
DIMENSION
  8
2D_DIM
  2
*D1
  3
ROUTEDIM
  1
18.27
 10
-2.5
 20
31.432429
 30
0.0
 11
-2.5
 21
15.7162145
 31
0
 13
0.0
 23
13.162686
 14
0.0
 24
31.432429
 50
90.0
53
0
 33
0.0
 34
0.0
  0
DIMENSION
  8
2D_DIM
  2
*D1
  3
ROUTEDIM
  1
0.471
 10
-2.5
 20
31.9031
 30
0.0
 11
-2.5
 21
15.95155
 31
0
 13
0.0
 23
31.432429
 14
0.0
 24
31.9031
 50
90.0
53
0
 33
0.0
 34
0.0
  0
DIMENSION
  8
2D_DIM
  2
*D1
  3
ROUTEDIM
  1
0
 10
-2.5
 20
31.9031
 30
0.0
 11
-2.5
 21
15.95155
 31
0
 13
0.0
 23
31.9031
 14
0.0
 24
31.9031
 50
90.0
53
0
 33
0.0
 34
0.0
  0
DIMENSION
  8
2D_DIM
  2
*D1
  3
ROUTEDIM
  1
0.764
 10
0.7638875
 20
13.0678265
 30
0.0
 11
0.38194375
 21
13.0678265
 31
0.0
 13
0
 23
13.0678265
 14
0.7638875
 24
13.0678265
 33
0.0
 34
0.0
53
90
  0
DIMENSION
  8
2D_DIM
  2
*D1
  3
ROUTEDIM
  1
13.068
 10
0.7638875
 20
13.0678265
 30
0.0
 11
0.7638875
 21
6.53391325
 31
0
 13
0.7638875
 23
0
 14
0.7638875
 24
13.0678265
 50
90.0
53
0
 33
0.0
 34
0.0
  0
DIMENSION
  8
2D_DIM
  2
*D1
  3
ROUTEDIM
  1
20.437
 10
20.4369856803736
 20
19.6248398996524
 30
0.0
 11
10.2184928401868
 21
19.6248398996524
 31
0.0
 13
0
 23
19.6248398996524
 14
20.4369856803736
 24
19.6248398996524
 33
0.0
 34
0.0
53
90
  0
DIMENSION
  8
2D_DIM
  2
*D1
  3
ROUTEDIM
  1
19.625
 10
20.4369856803736
 20
19.6248398996524
 30
0.0
 11
20.4369856803736
 21
9.81241994982618
 31
0
 13
20.4369856803736
 23
0
 14
20.4369856803736
 24
19.6248398996524
 50
90.0
53
0
 33
0.0
 34
0.0
  0
DIMENSION
  8
2D_DIM
  2
*D1
  3
ROUTEDIM
  1
20.437
 10
20.4369861626576
 20
19.6248393882358
 30
0.0
 11
10.2184930813288
 21
19.6248393882358
 31
0.0
 13
0
 23
19.6248393882358
 14
20.4369861626576
 24
19.6248393882358
 33
0.0
 34
0.0
53
90
  0
DIMENSION
  8
2D_DIM
  2
*D1
  3
ROUTEDIM
  1
19.625
 10
20.4369861626576
 20
19.6248393882358
 30
0.0
 11
20.4369861626576
 21
9.8124196941179
 31
0
 13
20.4369861626576
 23
0
 14
20.4369861626576
 24
19.6248393882358
 50
90.0
53
0
 33
0.0
 34
0.0
  0
DIMENSION
  8
2D_DIM
  2
*D1
  3
ROUTEDIM
  1
20.437
 10
20.4369861496817
 20
19.6248394685912
 30
0.0
 11
10.2184930748408
 21
19.6248394685912
 31
0.0
 13
0
 23
19.6248394685912
 14
20.4369861496817
 24
19.6248394685912
 33
0.0
 34
0.0
53
90
  0
DIMENSION
  8
2D_DIM
  2
*D1
  3
ROUTEDIM
  1
19.625
 10
20.4369861496817
 20
19.6248394685912
 30
0.0
 11
20.4369861496817
 21
9.81241973429558
 31
0
 13
20.4369861496817
 23
0
 14
20.4369861496817
 24
19.6248394685912
 50
90.0
53
0
 33
0.0
 34
0.0
  0
TEXT
  8
ITEMNUMBER
 62
     1
 10
-7.5
 20
-5
 30
0.0
 40
0.5
  1
T31106.24
  0
TEXT
  8
DESCRIPTION
 62
     1
 10
-7.5
 20
-6
 30
0.0
 40
0.5
  1
P3A 4.2
  0
TEXT
  8
FILENAME
 62
     1
 10
-7.5
 20
-7
 30
0.0
 40
0.5
  1
5600AE78
  0
TEXT
  8
MATERIALNAME
 62
     1
 10
-7.5
 20
-8
 30
0.0
 40
0.5
  1
AB425SEI-PF/4x10
  0
TEXT
  8
Qty
 62
     1
 10
-7.5
 20
-9
 30
0.0
 40
0.5
  1
1
  0
TEXT
  8
RUNFIELD
 62
     1
 10
8
 20
-1
 30
0.0
 40
0.5
  1
Mirrored
  0
ENDSEC
  0
EOF
