  0
SECTION
  2
TABLES
  0
TABLE
  2
DIMSTYLE
 70
     2
  0
DIMSTYLE
  2
BOARDERDIM
 70
     0
  3

  4

  5
_NONE
  6
_NONE
  7
_NONE
 40
1
 41
0.1
 42
0.0625
 43
0.38
 44
0.18
 45
0.00
 46
0.0
 47
0.0
 48
0.0
140
0.5
141
0.09
142
0.0
143
25.399999999999999
144
1.0
145
0.5
146
1.0
147
0.09
 71
     1
 72
     0
 73
     1
 74
     0
 75
     0
 76
     0
 77
     2
 78
     0
170
     0
171
     2
172
     0
173
     0
174
     1
175
      0
176
5
177
5
178
     1
271
3
272
3
  0
ENDTAB
  0
TABLE
  2
DIMSTYLE
 70
     2
  0
DIMSTYLE
  2
VDRILLDIM
 70
     0
  3

  4

  5
_NONE
  6
_NONE
  7
_NONE
 40
1
 41
0.1
 42
0.0625
 43
0.38
 44
0.18
 45
0.00
 46
0.0
 47
0.0
 48
0.0
140
0.5
141
0.09
142
0.0
143
25.399999999999999
144
1.0
145
0.5
146
1.0
147
0.09
 71
     1
 72
     0
 73
     1
 74
     0
 75
     0
 76
     0
 77
     2
 78
     0
170
     0
171
     2
172
     0
173
     0
174
     1
175
      0
176
5
177
5
178
     1
271
3
272
3
  0
ENDTAB
  0
TABLE
  2
DIMSTYLE
 70
     2
  0
DIMSTYLE
  2
HDRILLDIM
 70
     0
  3

  4

  5
_NONE
  6
_NONE
  7
_NONE
 40
1
 41
0.1
 42
0.0625
 43
0.38
 44
0.18
 45
0.00
 46
0.0
 47
0.0
 48
0.0
140
0.5
141
0.09
142
0.0
143
25.399999999999999
144
1.0
145
0.5
146
1.0
147
0.09
 71
     1
 72
     0
 73
     1
 74
     0
 75
     0
 76
     0
 77
     2
 78
     0
170
     0
171
     2
172
     0
173
     0
174
     1
175
      0
176
5
177
5
178
     1
271
3
272
3
  0
ENDTAB
  0
TABLE
  2
DIMSTYLE
 70
     2
  0
DIMSTYLE
  2
ROUTEDIM
 70
     0
  3

  4

  5
_NONE
  6
_NONE
  7
_NONE
 40
1
 41
0.1
 42
0.0625
 43
0.38
 44
0.18
 45
0.00
 46
0.0
 47
0.0
 48
0.0
140
0.5
141
0.09
142
0.0
143
25.399999999999999
144
1.0
145
0.5
146
1.0
147
0.09
 71
     1
 72
     0
 73
     1
 74
     0
 75
     0
 76
     0
 77
     2
 78
     0
170
     0
171
     2
172
     0
173
     0
174
     1
175
      0
176
5
177
5
178
     1
271
3
272
3
  0
ENDTAB
  0
TABLE
  2
DIMSTYLE
 70
     2
  0
DIMSTYLE
  2
SAWDIM
 70
     0
  3

  4

  5
_NONE
  6
_NONE
  7
_NONE
 40
1
 41
0.1
 42
0.0625
 43
0.38
 44
0.18
 45
0.00
 46
0.0
 47
0.0
 48
0.0
140
0.5
141
0.09
142
0.0
143
25.399999999999999
144
1.0
145
0.5
146
1.0
147
0.09
 71
     1
 72
     0
 73
     1
 74
     0
 75
     0
 76
     0
 77
     2
 78
     0
170
     0
171
     2
172
     0
173
     0
174
     1
175
      0
176
5
177
5
178
     1
271
3
272
3
  0
ENDTAB
  0
TABLE
  2
VPORT
 70
     1
  0
VPORT
  2
*ACTIVE
 70
     0
 10
0.0
 20
0.0
 11
1.0
 21
1.0
 12
0.0
 22
0.0
 13
0.0
 23
0.0
 14
1.0
 24
1.0
 15
0.0
 25
0.0
 16
0.0
 26
0.0
 36
1.0
 17
0.0
 27
0.0
 37
0.0
 40
84
 41
2.0
 42
50.0
 43
0.0
 44
0.0
 50
0.0
 51
0.0
 71
     0
 72
   100
 73
     1
 74
     0
 75
     1
 76
     0
 77
     0
 78
     0
  0
ENDTAB
  0
ENDSEC
  0
SECTION
  2
ENTITIES
  0
POLYLINE
  8
BORDER_Z0P74
 62
     7
 66
     1
 10
0.0
 20
0.0
 30
0.0
 70
     1
  0
VERTEX
  8
BORDER_Z0P74
 62
     7
 10
0.0
 20
0.0
 30
0.0
  0
VERTEX
  8
BORDER_Z0P74
 62
     7
 10
0.0
 20
31.4464
 30
0.0
  0
VERTEX
  8
BORDER_Z0P74
 62
     7
 10
84
 20
31.4464
 30
0.0
  0
VERTEX
  8
BORDER_Z0P74
 62
     7
 10
84
 20
0.0
 30
0.0
  0
SEQEND
  8
BORDER_Z0P74
 62
     7
  0
POLYLINE
  8
ROUTE_Z0P75LT130RAMP
 62
     3
 66
     1
 10
0.0
 20
0.0
 30
0.0
 70
     0
  0
VERTEX
  8
ROUTE_Z0P75LT130RAMP
 62
     3
 10
84.475
 20
24.62498
 30
0.0
  0
VERTEX
  8
ROUTE_Z0P75LT130RAMP
 62
     3
 10
84.1
 20
24.62498
 30
0.0
  0
VERTEX
  8
ROUTE_Z0P75LT130RAMP
 62
     3
 10
65.5
 20
24.62498
 30
0.0
  0
VERTEX
  8
ROUTE_Z0P75LT130RAMP
 62
     3
 10
65.5
 20
-0.100020000000001
 30
0.0
  0
VERTEX
  8
ROUTE_Z0P75LT130RAMP
 62
     3
 10
65.5
 20
-0.475020000000001
 30
0.0
  0
SEQEND
  8
ROUTE_Z0P75LT130RAMP
 62
     3
  0
POLYLINE
  8
ROUTE_Z0P75LT130RAMP
 62
     3
 66
     1
 10
0.0
 20
0.0
 30
0.0
 70
     0
  0
VERTEX
  8
ROUTE_Z0P75LT130RAMP
 62
     3
 10
61.393429
 20
-0.378117
 30
0.0
  0
VERTEX
  8
ROUTE_Z0P75LT130RAMP
 62
     3
 10
61.163181
 20
-0.0821259999999988
 30
0.0
 42
0.524773349750946
  0
VERTEX
  8
ROUTE_Z0P75LT130RAMP
 62
     3
 10
36.062388
 20
-0.0821259999999988
 30
0.0
  0
VERTEX
  8
ROUTE_Z0P75LT130RAMP
 62
     3
 10
35.83214
 20
-0.378117
 30
0.0
  0
SEQEND
  8
ROUTE_Z0P75LT130RAMP
 62
     3
  0
POLYLINE
  8
ROUTE_Z0P375LT130RAMP
 62
     3
 66
     1
 10
0.0
 20
0.0
 30
0.0
 70
     0
  0
VERTEX
  8
ROUTE_Z0P375LT130RAMP
 62
     3
 10
38.2752
 20
21.254086
 30
0.0
  0
VERTEX
  8
ROUTE_Z0P375LT130RAMP
 62
     3
 10
38.020332
 20
20.857504
 30
0.0
  0
VERTEX
  8
ROUTE_Z0P375LT130RAMP
 62
     3
 10
37.765464
 20
20.460922
 30
0.0
  0
VERTEX
  8
ROUTE_Z0P375LT130RAMP
 62
     3
 10
37.499836
 20
19.556278
 30
0.0
  0
VERTEX
  8
ROUTE_Z0P375LT130RAMP
 62
     3
 10
37.499836
 20
18.613442
 30
0.0
  0
VERTEX
  8
ROUTE_Z0P375LT130RAMP
 62
     3
 10
37.765464
 20
17.708798
 30
0.0
  0
VERTEX
  8
ROUTE_Z0P375LT130RAMP
 62
     3
 10
38.2752
 20
16.915634
 30
0.0
  0
VERTEX
  8
ROUTE_Z0P375LT130RAMP
 62
     3
 10
38.987747
 20
16.298207
 30
0.0
  0
VERTEX
  8
ROUTE_Z0P375LT130RAMP
 62
     3
 10
39.845381
 20
15.906539
 30
0.0
  0
VERTEX
  8
ROUTE_Z0P375LT130RAMP
 62
     3
 10
40.77862
 20
15.77236
 30
0.0
 42
1.1841267966578
  0
VERTEX
  8
ROUTE_Z0P375LT130RAMP
 62
     3
 10
40.77862
 20
22.39736
 30
0.0
  0
VERTEX
  8
ROUTE_Z0P375LT130RAMP
 62
     3
 10
39.845381
 20
22.26318
 30
0.0
  0
VERTEX
  8
ROUTE_Z0P375LT130RAMP
 62
     3
 10
38.987747
 20
21.871512
 30
0.0
  0
VERTEX
  8
ROUTE_Z0P375LT130RAMP
 62
     3
 10
38.2752
 20
21.254086
 30
0.0
  0
VERTEX
  8
ROUTE_Z0P375LT130RAMP
 62
     3
 10
38.020332
 20
20.857504
 30
0.0
  0
SEQEND
  8
ROUTE_Z0P375LT130RAMP
 62
     3
  0
POLYLINE
  8
ROUTE_Z0P375LT130RAMP
 62
     3
 66
     1
 10
0.0
 20
0.0
 30
0.0
 70
     1
  0
VERTEX
  8
ROUTE_Z0P375LT130RAMP
 62
     3
 10
38.6569605383871
 20
20.9232886132129
 30
0.0
  0
VERTEX
  8
ROUTE_Z0P375LT130RAMP
 62
     3
 10
38.4409586581898
 20
20.5871834228696
 30
0.0
  0
VERTEX
  8
ROUTE_Z0P375LT130RAMP
 62
     3
 10
38.2249568669264
 20
20.2510783709102
 30
0.0
  0
VERTEX
  8
ROUTE_Z0P375LT130RAMP
 62
     3
 10
37.999836
 20
19.4843887089024
 30
0.0
  0
VERTEX
  8
ROUTE_Z0P375LT130RAMP
 62
     3
 10
37.999836
 20
18.6853312910976
 30
0.0
  0
VERTEX
  8
ROUTE_Z0P375LT130RAMP
 62
     3
 10
38.2249568669264
 20
17.9186416290898
 30
0.0
  0
VERTEX
  8
ROUTE_Z0P375LT130RAMP
 62
     3
 10
38.6569606489672
 20
17.2464312147213
 30
0.0
  0
VERTEX
  8
ROUTE_Z0P375LT130RAMP
 62
     3
 10
39.2608473953172
 20
16.7231590907229
 30
0.0
  0
VERTEX
  8
ROUTE_Z0P375LT130RAMP
 62
     3
 10
39.9876956346792
 20
16.3912188968705
 30
0.0
  0
VERTEX
  8
ROUTE_Z0P375LT130RAMP
 62
     3
 10
40.8563179268423
 20
16.2663303414842
 30
0.0
 42
1.18669034668298
  0
VERTEX
  8
ROUTE_Z0P375LT130RAMP
 62
     3
 10
40.8563181751343
 20
21.9033897012233
 30
0.0
  0
VERTEX
  8
ROUTE_Z0P375LT130RAMP
 62
     3
 10
39.9876958783553
 20
21.7785002144125
 30
0.0
  0
VERTEX
  8
ROUTE_Z0P375LT130RAMP
 62
     3
 10
39.2608472092654
 20
21.4465598243101
 30
0.0
  0
SEQEND
  8
ROUTE_Z0P375LT130RAMP
 62
     3
  0
POLYLINE
  8
ROUTE_Z0P375LT130RAMP
 62
     3
 66
     1
 10
0.0
 20
0.0
 30
0.0
 70
     0
  0
VERTEX
  8
ROUTE_Z0P375LT130RAMP
 62
     3
 10
17.559737
 20
-1.99999999992428E-05
 30
0.0
  0
VERTEX
  8
ROUTE_Z0P375LT130RAMP
 62
     3
 10
18.059737
 20
-1.99999999992428E-05
 30
0.0
  0
VERTEX
  8
ROUTE_Z0P375LT130RAMP
 62
     3
 10
36.119473
 20
-1.99999999992428E-05
 30
0.0
  0
VERTEX
  8
ROUTE_Z0P375LT130RAMP
 62
     3
 10
36.344193
 20
0.312480000000001
 30
0.0
  0
VERTEX
  8
ROUTE_Z0P375LT130RAMP
 62
     3
 10
0.8125
 20
0.312480000000001
 30
0.0
  0
VERTEX
  8
ROUTE_Z0P375LT130RAMP
 62
     3
 10
0.8125
 20
31.4464
 30
0.0
  0
VERTEX
  8
ROUTE_Z0P375LT130RAMP
 62
     3
 10
0
 20
31.4464
 30
0.0
  0
VERTEX
  8
ROUTE_Z0P375LT130RAMP
 62
     3
 10
0
 20
-1.99999999992428E-05
 30
0.0
  0
VERTEX
  8
ROUTE_Z0P375LT130RAMP
 62
     3
 10
18.059737
 20
-1.99999999992428E-05
 30
0.0
  0
SEQEND
  8
ROUTE_Z0P375LT130RAMP
 62
     3
  0
POLYLINE
  8
ROUTE_Z0P375T130
 62
     3
 66
     1
 10
0.0
 20
0.0
 30
0.0
 70
     0
  0
VERTEX
  8
ROUTE_Z0P375T130
 62
     3
 10
0.337500055075424
 20
-0.129280806472213
 30
0.0
  0
VERTEX
  8
ROUTE_Z0P375T130
 62
     3
 10
0.375434697617028
 20
-0.162520267038513
 30
0.0
  0
SEQEND
  8
ROUTE_Z0P375T130
 62
     3
  0
POLYLINE
  8
ROUTE_Z0P375T130
 62
     3
 66
     1
 10
0.0
 20
0.0
 30
0.0
 70
     0
  0
VERTEX
  8
ROUTE_Z0P375T130
 62
     3
 10
0.337499907878893
 20
1.05138486510348
 30
0.0
  0
VERTEX
  8
ROUTE_Z0P375T130
 62
     3
 10
0.475003342407408
 20
0.930900271509937
 30
0.0
  0
VERTEX
  8
ROUTE_Z0P375T130
 62
     3
 10
0.475003296114494
 20
1.52123308337202
 30
0.0
  0
VERTEX
  8
ROUTE_Z0P375T130
 62
     3
 10
0.337499834280628
 20
1.64171770089132
 30
0.0
  0
VERTEX
  8
ROUTE_Z0P375T130
 62
     3
 10
0.475003249821576
 20
2.11156589523411
 30
0.0
  0
VERTEX
  8
ROUTE_Z0P375T130
 62
     3
 10
0.337499760682363
 20
2.23205053667916
 30
0.0
  0
VERTEX
  8
ROUTE_Z0P375T130
 62
     3
 10
0.475003203528658
 20
2.7018987070962
 30
0.0
  0
VERTEX
  8
ROUTE_Z0P375T130
 62
     3
 10
0.337499687084101
 20
2.82238337246701
 30
0.0
  0
VERTEX
  8
ROUTE_Z0P375T130
 62
     3
 10
0.475003157235736
 20
3.29223151895829
 30
0.0
  0
VERTEX
  8
ROUTE_Z0P375T130
 62
     3
 10
0.337499613485836
 20
3.41271620825485
 30
0.0
  0
VERTEX
  8
ROUTE_Z0P375T130
 62
     3
 10
0.475003110942819
 20
3.88256433082038
 30
0.0
  0
VERTEX
  8
ROUTE_Z0P375T130
 62
     3
 10
0.33749953988757
 20
4.00304904404269
 30
0.0
  0
VERTEX
  8
ROUTE_Z0P375T130
 62
     3
 10
0.475003064649901
 20
4.47289714268246
 30
0.0
  0
VERTEX
  8
ROUTE_Z0P375T130
 62
     3
 10
0.337499466289305
 20
4.59338187983053
 30
0.0
  0
VERTEX
  8
ROUTE_Z0P375T130
 62
     3
 10
0.475003018356983
 20
5.06322995454455
 30
0.0
  0
VERTEX
  8
ROUTE_Z0P375T130
 62
     3
 10
0.33749939269104
 20
5.18371471561838
 30
0.0
  0
VERTEX
  8
ROUTE_Z0P375T130
 62
     3
 10
0.475002972064065
 20
5.65356276640664
 30
0.0
  0
VERTEX
  8
ROUTE_Z0P375T130
 62
     3
 10
0.337499319092775
 20
5.77404755140622
 30
0.0
  0
VERTEX
  8
ROUTE_Z0P375T130
 62
     3
 10
0.475002925771147
 20
6.24389557826872
 30
0.0
  0
VERTEX
  8
ROUTE_Z0P375T130
 62
     3
 10
0.337499245494509
 20
6.36438038719407
 30
0.0
  0
VERTEX
  8
ROUTE_Z0P375T130
 62
     3
 10
0.475002879478229
 20
6.83422839013081
 30
0.0
  0
VERTEX
  8
ROUTE_Z0P375T130
 62
     3
 10
0.337499171896244
 20
6.95471322298191
 30
0.0
  0
VERTEX
  8
ROUTE_Z0P375T130
 62
     3
 10
0.475002833185311
 20
7.4245612019929
 30
0.0
  0
VERTEX
  8
ROUTE_Z0P375T130
 62
     3
 10
0.337499098297982
 20
7.54504605876976
 30
0.0
  0
VERTEX
  8
ROUTE_Z0P375T130
 62
     3
 10
0.475002786892393
 20
8.01489401385499
 30
0.0
  0
VERTEX
  8
ROUTE_Z0P375T130
 62
     3
 10
0.337499024699717
 20
8.1353788945576
 30
0.0
  0
VERTEX
  8
ROUTE_Z0P375T130
 62
     3
 10
0.475002740599475
 20
8.60522682571708
 30
0.0
  0
VERTEX
  8
ROUTE_Z0P375T130
 62
     3
 10
0.337498951101452
 20
8.72571173034545
 30
0.0
  0
VERTEX
  8
ROUTE_Z0P375T130
 62
     3
 10
0.475002694306557
 20
9.19555963757917
 30
0.0
  0
VERTEX
  8
ROUTE_Z0P375T130
 62
     3
 10
0.337498877503187
 20
9.31604456613329
 30
0.0
  0
VERTEX
  8
ROUTE_Z0P375T130
 62
     3
 10
0.475002648013639
 20
9.78589244944126
 30
0.0
  0
VERTEX
  8
ROUTE_Z0P375T130
 62
     3
 10
0.337498803904921
 20
9.90637740192114
 30
0.0
  0
VERTEX
  8
ROUTE_Z0P375T130
 62
     3
 10
0.475002601720721
 20
10.3762252613033
 30
0.0
  0
VERTEX
  8
ROUTE_Z0P375T130
 62
     3
 10
0.337498730306656
 20
10.496710237709
 30
0.0
  0
VERTEX
  8
ROUTE_Z0P375T130
 62
     3
 10
0.475002555427803
 20
10.9665580731654
 30
0.0
  0
VERTEX
  8
ROUTE_Z0P375T130
 62
     3
 10
0.337498656708391
 20
11.0870430734968
 30
0.0
  0
VERTEX
  8
ROUTE_Z0P375T130
 62
     3
 10
0.475002509134885
 20
11.5568908850275
 30
0.0
  0
VERTEX
  8
ROUTE_Z0P375T130
 62
     3
 10
0.337498583110129
 20
11.6773759092847
 30
0.0
  0
VERTEX
  8
ROUTE_Z0P375T130
 62
     3
 10
0.475002462841967
 20
12.1472236968896
 30
0.0
  0
VERTEX
  8
ROUTE_Z0P375T130
 62
     3
 10
0.337498509511864
 20
12.2677087450725
 30
0.0
  0
VERTEX
  8
ROUTE_Z0P375T130
 62
     3
 10
0.475002416549049
 20
12.7375565087517
 30
0.0
  0
VERTEX
  8
ROUTE_Z0P375T130
 62
     3
 10
0.337498435913599
 20
12.8580415808604
 30
0.0
  0
VERTEX
  8
ROUTE_Z0P375T130
 62
     3
 10
0.475002370256131
 20
13.3278893206138
 30
0.0
  0
VERTEX
  8
ROUTE_Z0P375T130
 62
     3
 10
0.337498362315333
 20
13.4483744166482
 30
0.0
  0
VERTEX
  8
ROUTE_Z0P375T130
 62
     3
 10
0.475002323963214
 20
13.9182221324759
 30
0.0
  0
VERTEX
  8
ROUTE_Z0P375T130
 62
     3
 10
0.337498288717068
 20
14.038707252436
 30
0.0
  0
VERTEX
  8
ROUTE_Z0P375T130
 62
     3
 10
0.475002277670292
 20
14.508554944338
 30
0.0
  0
VERTEX
  8
ROUTE_Z0P375T130
 62
     3
 10
0.337498215118803
 20
14.6290400882239
 30
0.0
  0
VERTEX
  8
ROUTE_Z0P375T130
 62
     3
 10
0.475002231377378
 20
15.0988877562
 30
0.0
  0
VERTEX
  8
ROUTE_Z0P375T130
 62
     3
 10
0.337498141520538
 20
15.2193729240117
 30
0.0
  0
VERTEX
  8
ROUTE_Z0P375T130
 62
     3
 10
0.475002185084456
 20
15.6892205680621
 30
0.0
  0
VERTEX
  8
ROUTE_Z0P375T130
 62
     3
 10
0.337498067922272
 20
15.8097057597996
 30
0.0
  0
VERTEX
  8
ROUTE_Z0P375T130
 62
     3
 10
0.475002138791538
 20
16.2795533799242
 30
0.0
  0
VERTEX
  8
ROUTE_Z0P375T130
 62
     3
 10
0.337497994324007
 20
16.4000385955874
 30
0.0
  0
VERTEX
  8
ROUTE_Z0P375T130
 62
     3
 10
0.47500209249862
 20
16.8698861917863
 30
0.0
  0
VERTEX
  8
ROUTE_Z0P375T130
 62
     3
 10
0.337497920725742
 20
16.9903714313753
 30
0.0
  0
VERTEX
  8
ROUTE_Z0P375T130
 62
     3
 10
0.475002046205702
 20
17.4602190036484
 30
0.0
  0
VERTEX
  8
ROUTE_Z0P375T130
 62
     3
 10
0.33749784712748
 20
17.5807042671631
 30
0.0
  0
VERTEX
  8
ROUTE_Z0P375T130
 62
     3
 10
0.475001999912781
 20
18.0505518155105
 30
0.0
  0
VERTEX
  8
ROUTE_Z0P375T130
 62
     3
 10
0.337497773529215
 20
18.171037102951
 30
0.0
  0
VERTEX
  8
ROUTE_Z0P375T130
 62
     3
 10
0.475001953619866
 20
18.6408846273726
 30
0.0
  0
VERTEX
  8
ROUTE_Z0P375T130
 62
     3
 10
0.33749769993095
 20
18.7613699387388
 30
0.0
  0
VERTEX
  8
ROUTE_Z0P375T130
 62
     3
 10
0.475001907326948
 20
19.2312174392347
 30
0.0
  0
VERTEX
  8
ROUTE_Z0P375T130
 62
     3
 10
0.337497626332684
 20
19.3517027745266
 30
0.0
  0
VERTEX
  8
ROUTE_Z0P375T130
 62
     3
 10
0.475001861034031
 20
19.8215502510968
 30
0.0
  0
VERTEX
  8
ROUTE_Z0P375T130
 62
     3
 10
0.337497552734419
 20
19.9420356103145
 30
0.0
  0
VERTEX
  8
ROUTE_Z0P375T130
 62
     3
 10
0.475001814741109
 20
20.4118830629589
 30
0.0
  0
VERTEX
  8
ROUTE_Z0P375T130
 62
     3
 10
0.337497479136154
 20
20.5323684461023
 30
0.0
  0
VERTEX
  8
ROUTE_Z0P375T130
 62
     3
 10
0.475001768448191
 20
21.0022158748209
 30
0.0
  0
VERTEX
  8
ROUTE_Z0P375T130
 62
     3
 10
0.337497405537889
 20
21.1227012818902
 30
0.0
  0
VERTEX
  8
ROUTE_Z0P375T130
 62
     3
 10
0.475001722155277
 20
21.592548686683
 30
0.0
  0
VERTEX
  8
ROUTE_Z0P375T130
 62
     3
 10
0.337497331939627
 20
21.713034117678
 30
0.0
  0
VERTEX
  8
ROUTE_Z0P375T130
 62
     3
 10
0.475001675862355
 20
22.1828814985451
 30
0.0
  0
VERTEX
  8
ROUTE_Z0P375T130
 62
     3
 10
0.337497258341362
 20
22.3033669534659
 30
0.0
  0
VERTEX
  8
ROUTE_Z0P375T130
 62
     3
 10
0.475001629569437
 20
22.7732143104072
 30
0.0
  0
VERTEX
  8
ROUTE_Z0P375T130
 62
     3
 10
0.337497184743093
 20
22.8936997892537
 30
0.0
  0
VERTEX
  8
ROUTE_Z0P375T130
 62
     3
 10
0.475001583276519
 20
23.3635471222693
 30
0.0
  0
VERTEX
  8
ROUTE_Z0P375T130
 62
     3
 10
0.337497111144835
 20
23.4840326250416
 30
0.0
  0
VERTEX
  8
ROUTE_Z0P375T130
 62
     3
 10
0.475001536983601
 20
23.9538799341314
 30
0.0
  0
VERTEX
  8
ROUTE_Z0P375T130
 62
     3
 10
0.337497037546566
 20
24.0743654608294
 30
0.0
  0
VERTEX
  8
ROUTE_Z0P375T130
 62
     3
 10
0.475001490690683
 20
24.5442127459935
 30
0.0
  0
VERTEX
  8
ROUTE_Z0P375T130
 62
     3
 10
0.337496963948304
 20
24.6646982966172
 30
0.0
  0
VERTEX
  8
ROUTE_Z0P375T130
 62
     3
 10
0.475001444397765
 20
25.1345455578556
 30
0.0
  0
VERTEX
  8
ROUTE_Z0P375T130
 62
     3
 10
0.337496890350035
 20
25.2550311324051
 30
0.0
  0
VERTEX
  8
ROUTE_Z0P375T130
 62
     3
 10
0.475001398104851
 20
25.7248783697177
 30
0.0
  0
VERTEX
  8
ROUTE_Z0P375T130
 62
     3
 10
0.337496816751774
 20
25.8453639681929
 30
0.0
  0
VERTEX
  8
ROUTE_Z0P375T130
 62
     3
 10
0.47500135181193
 20
26.3152111815797
 30
0.0
  0
VERTEX
  8
ROUTE_Z0P375T130
 62
     3
 10
0.337496743153508
 20
26.4356968039808
 30
0.0
  0
VERTEX
  8
ROUTE_Z0P375T130
 62
     3
 10
0.475001305519012
 20
26.9055439934418
 30
0.0
  0
VERTEX
  8
ROUTE_Z0P375T130
 62
     3
 10
0.337496669555243
 20
27.0260296397686
 30
0.0
  0
VERTEX
  8
ROUTE_Z0P375T130
 62
     3
 10
0.475001259226094
 20
27.4958768053039
 30
0.0
  0
VERTEX
  8
ROUTE_Z0P375T130
 62
     3
 10
0.337496595956978
 20
27.6163624755565
 30
0.0
  0
VERTEX
  8
ROUTE_Z0P375T130
 62
     3
 10
0.475001212933176
 20
28.086209617166
 30
0.0
  0
VERTEX
  8
ROUTE_Z0P375T130
 62
     3
 10
0.337496522358713
 20
28.2066953113443
 30
0.0
  0
VERTEX
  8
ROUTE_Z0P375T130
 62
     3
 10
0.475001166640258
 20
28.6765424290281
 30
0.0
  0
VERTEX
  8
ROUTE_Z0P375T130
 62
     3
 10
0.337496448760451
 20
28.7970281471322
 30
0.0
  0
VERTEX
  8
ROUTE_Z0P375T130
 62
     3
 10
0.47500112034734
 20
29.2668752408902
 30
0.0
  0
VERTEX
  8
ROUTE_Z0P375T130
 62
     3
 10
0.337496375162186
 20
29.38736098292
 30
0.0
  0
VERTEX
  8
ROUTE_Z0P375T130
 62
     3
 10
0.475001074054418
 20
29.8572080527523
 30
0.0
  0
VERTEX
  8
ROUTE_Z0P375T130
 62
     3
 10
0.337496301563917
 20
29.9776938187078
 30
0.0
  0
VERTEX
  8
ROUTE_Z0P375T130
 62
     3
 10
0.475001027761504
 20
30.4475408646144
 30
0.0
  0
VERTEX
  8
ROUTE_Z0P375T130
 62
     3
 10
0.337496227965655
 20
30.5680266544957
 30
0.0
  0
VERTEX
  8
ROUTE_Z0P375T130
 62
     3
 10
0.475000981468582
 20
31.0378736764764
 30
0.0
  0
VERTEX
  8
ROUTE_Z0P375T130
 62
     3
 10
0.257266076607667
 20
31.2286594674878
 30
0.0
  0
SEQEND
  8
ROUTE_Z0P375T130
 62
     3
  0
POLYLINE
  8
ROUTE_Z0P375T130
 62
     3
 66
     1
 10
0.0
 20
0.0
 30
0.0
 70
     0
  0
VERTEX
  8
ROUTE_Z0P375T130
 62
     3
 10
35.9350261050757
 20
0.557079166598154
 30
0.0
  0
VERTEX
  8
ROUTE_Z0P375T130
 62
     3
 10
36.0081888981412
 20
0.492971754162365
 30
0.0
  0
SEQEND
  8
ROUTE_Z0P375T130
 62
     3
  0
POLYLINE
  8
ROUTE_Z0P75LT130RAMP
 62
     3
 66
     1
 10
0.0
 20
0.0
 30
0.0
 70
     0
  0
VERTEX
  8
ROUTE_Z0P75LT130RAMP
 62
     3
 10
41.7696914285714
 20
18.08486
 30
0.0
  0
VERTEX
  8
ROUTE_Z0P75LT130RAMP
 62
     3
 10
41.7696914285714
 20
19.08486
 30
0.0
 42
0.41421356
  0
VERTEX
  8
ROUTE_Z0P75LT130RAMP
 62
     3
 10
41.34112
 20
19.5134314285714
 30
0.0
 42
0.41421356
  0
VERTEX
  8
ROUTE_Z0P75LT130RAMP
 62
     3
 10
40.9125485714286
 20
19.08486
 30
0.0
 42
0.41421356
  0
VERTEX
  8
ROUTE_Z0P75LT130RAMP
 62
     3
 10
41.34112
 20
18.6562885714286
 30
0.0
 42
0.41421356
  0
VERTEX
  8
ROUTE_Z0P75LT130RAMP
 62
     3
 10
41.8339771428571
 20
19.08486
 30
0.0
 42
0.4
  0
VERTEX
  8
ROUTE_Z0P75LT130RAMP
 62
     3
 10
41.34112
 20
19.6205742857143
 30
0.0
 42
0.4
  0
VERTEX
  8
ROUTE_Z0P75LT130RAMP
 62
     3
 10
40.6982628571429
 20
19.08486
 30
0.0
 42
0.4
  0
VERTEX
  8
ROUTE_Z0P75LT130RAMP
 62
     3
 10
41.34112
 20
18.33486
 30
0.0
 42
0.4
  0
VERTEX
  8
ROUTE_Z0P75LT130RAMP
 62
     3
 10
42.1982628571429
 20
19.08486
 30
0.0
 42
0.4
  0
VERTEX
  8
ROUTE_Z0P75LT130RAMP
 62
     3
 10
41.34112
 20
20.0491457142857
 30
0.0
 42
0.4
  0
VERTEX
  8
ROUTE_Z0P75LT130RAMP
 62
     3
 10
40.2696914285714
 20
19.08486
 30
0.0
 42
0.4
  0
VERTEX
  8
ROUTE_Z0P75LT130RAMP
 62
     3
 10
41.34112
 20
17.9062885714286
 30
0.0
 42
0.4
  0
VERTEX
  8
ROUTE_Z0P75LT130RAMP
 62
     3
 10
42.6268342857143
 20
19.08486
 30
0.0
 42
0.4
  0
VERTEX
  8
ROUTE_Z0P75LT130RAMP
 62
     3
 10
41.34112
 20
20.4777171428571
 30
0.0
 42
0.4
  0
VERTEX
  8
ROUTE_Z0P75LT130RAMP
 62
     3
 10
39.84112
 20
19.08486
 30
0.0
 42
0.4
  0
VERTEX
  8
ROUTE_Z0P75LT130RAMP
 62
     3
 10
41.34112
 20
17.4777171428571
 30
0.0
 42
0.4
  0
VERTEX
  8
ROUTE_Z0P75LT130RAMP
 62
     3
 10
43.0554057142857
 20
19.08486
 30
0.0
 42
0.4
  0
VERTEX
  8
ROUTE_Z0P75LT130RAMP
 62
     3
 10
41.34112
 20
20.9062885714286
 30
0.0
 42
0.4
  0
VERTEX
  8
ROUTE_Z0P75LT130RAMP
 62
     3
 10
39.4125485714286
 20
19.08486
 30
0.0
 42
0.4
  0
VERTEX
  8
ROUTE_Z0P75LT130RAMP
 62
     3
 10
41.34112
 20
17.0491457142857
 30
0.0
 42
0.4
  0
VERTEX
  8
ROUTE_Z0P75LT130RAMP
 62
     3
 10
43.4839771428571
 20
19.08486
 30
0.0
 42
0.4
  0
VERTEX
  8
ROUTE_Z0P75LT130RAMP
 62
     3
 10
41.34112
 20
21.33486
 30
0.0
 42
0.4
  0
VERTEX
  8
ROUTE_Z0P75LT130RAMP
 62
     3
 10
38.9839771428571
 20
19.08486
 30
0.0
 42
0.4
  0
VERTEX
  8
ROUTE_Z0P75LT130RAMP
 62
     3
 10
41.34112
 20
16.6205742857143
 30
0.0
 42
0.4
  0
VERTEX
  8
ROUTE_Z0P75LT130RAMP
 62
     3
 10
43.9125485714286
 20
19.08486
 30
0.0
 42
0.4
  0
VERTEX
  8
ROUTE_Z0P75LT130RAMP
 62
     3
 10
41.34112
 20
21.7634314285714
 30
0.0
 42
0.4
  0
VERTEX
  8
ROUTE_Z0P75LT130RAMP
 62
     3
 10
38.5554057142857
 20
19.08486
 30
0.0
 42
0.4
  0
VERTEX
  8
ROUTE_Z0P75LT130RAMP
 62
     3
 10
41.34112
 20
16.1920028571429
 30
0.0
 42
0.4
  0
VERTEX
  8
ROUTE_Z0P75LT130RAMP
 62
     3
 10
44.34112
 20
19.08486
 30
0.0
 42
0.41421356
  0
VERTEX
  8
ROUTE_Z0P75LT130RAMP
 62
     3
 10
41.34112
 20
22.08486
 30
0.0
 42
0.41421356
  0
VERTEX
  8
ROUTE_Z0P75LT130RAMP
 62
     3
 10
38.34112
 20
19.08486
 30
0.0
 42
0.41421356
  0
VERTEX
  8
ROUTE_Z0P75LT130RAMP
 62
     3
 10
41.34112
 20
16.08486
 30
0.0
 42
0.41421356
  0
VERTEX
  8
ROUTE_Z0P75LT130RAMP
 62
     3
 10
44.34112
 20
19.08486
 30
0.0
 42
0.41421356
  0
VERTEX
  8
ROUTE_Z0P75LT130RAMP
 62
     3
 10
41.34112
 20
22.08486
 30
0.0
 42
0.41421356
  0
VERTEX
  8
ROUTE_Z0P75LT130RAMP
 62
     3
 10
38.4482628571429
 20
19.08486
 30
0.0
  0
SEQEND
  8
ROUTE_Z0P75LT130RAMP
 62
     3
  0
DIMENSION
  8
2D_DIM
  2
*D1
  3
BOARDERDIM
  1
84
 10
84
 20
36.4464
 30
0.0
 11
42
 21
36.4464
 31
0.0
 13
0
 23
31.4464
 14
84
 24
31.4464
 33
0.0
 34
0.0
53
0
  0
DIMENSION
  8
2D_DIM
  2
*D1
  3
BOARDERDIM
  1
31.446
 10
-5
 20
31.4464
 30
0.0
 11
-5
 21
15.7232
 31
0
 13
0.0
 23
0
 14
0.0
 24
31.4464
 50
90.0
53
0
 33
0.0
 34
0.0
  0
DIMENSION
  8
2D_DIM
  2
*D1
  3
ROUTEDIM
  1
0
 10
0
 20
33.9464
 30
0.0
 11
0
 21
33.9464
 31
0.0
 13
0
 23
31.4464
 14
0
 24
31.4464
 33
0.0
 34
0.0
53
90
  0
DIMENSION
  8
2D_DIM
  2
*D1
  3
ROUTEDIM
  1
0.257
 10
0.257266076607667
 20
33.9464
 30
0.0
 11
0.128633038303833
 21
33.9464
 31
0.0
 13
0
 23
31.4464
 14
0.257266076607667
 24
31.4464
 33
0.0
 34
0.0
53
90
  0
DIMENSION
  8
2D_DIM
  2
*D1
  3
ROUTEDIM
  1
0.08
 10
0.337496227965655
 20
33.9464
 30
0.0
 11
0.168748113982827
 21
33.9464
 31
0.0
 13
0.257266076607667
 23
31.4464
 14
0.337496227965655
 24
31.4464
 33
0.0
 34
0.0
53
90
  0
DIMENSION
  8
2D_DIM
  2
*D1
  3
ROUTEDIM
  1
0.038
 10
0.375434697617028
 20
33.9464
 30
0.0
 11
0.187717348808514
 21
33.9464
 31
0.0
 13
0.337496227965655
 23
31.4464
 14
0.375434697617028
 24
31.4464
 33
0.0
 34
0.0
53
90
  0
DIMENSION
  8
2D_DIM
  2
*D1
  3
ROUTEDIM
  1
0.1
 10
0.475000981468582
 20
33.9464
 30
0.0
 11
0.237500490734291
 21
33.9464
 31
0.0
 13
0.375434697617028
 23
31.4464
 14
0.475000981468582
 24
31.4464
 33
0.0
 34
0.0
53
90
  0
DIMENSION
  8
2D_DIM
  2
*D1
  3
ROUTEDIM
  1
0.337
 10
0.8125
 20
33.9464
 30
0.0
 11
0.40625
 21
33.9464
 31
0.0
 13
0.475000981468582
 23
31.4464
 14
0.8125
 24
31.4464
 33
0.0
 34
0.0
53
90
  0
DIMENSION
  8
2D_DIM
  2
*D1
  3
ROUTEDIM
  1
16.747
 10
17.559737
 20
33.9464
 30
0.0
 11
8.7798685
 21
33.9464
 31
0.0
 13
0.8125
 23
31.4464
 14
17.559737
 24
31.4464
 33
0.0
 34
0.0
53
90
  0
DIMENSION
  8
2D_DIM
  2
*D1
  3
ROUTEDIM
  1
0.5
 10
18.059737
 20
33.9464
 30
0.0
 11
9.0298685
 21
33.9464
 31
0.0
 13
17.559737
 23
31.4464
 14
18.059737
 24
31.4464
 33
0.0
 34
0.0
53
90
  0
DIMENSION
  8
2D_DIM
  2
*D1
  3
ROUTEDIM
  1
17.772
 10
35.83214
 20
33.9464
 30
0.0
 11
17.91607
 21
33.9464
 31
0.0
 13
18.059737
 23
31.4464
 14
35.83214
 24
31.4464
 33
0.0
 34
0.0
53
90
  0
DIMENSION
  8
2D_DIM
  2
*D1
  3
ROUTEDIM
  1
0.103
 10
35.9350261050757
 20
33.9464
 30
0.0
 11
17.9675130525378
 21
33.9464
 31
0.0
 13
35.83214
 23
31.4464
 14
35.9350261050757
 24
31.4464
 33
0.0
 34
0.0
53
90
  0
DIMENSION
  8
2D_DIM
  2
*D1
  3
ROUTEDIM
  1
0.073
 10
36.0081888981412
 20
33.9464
 30
0.0
 11
18.0040944490706
 21
33.9464
 31
0.0
 13
35.9350261050757
 23
31.4464
 14
36.0081888981412
 24
31.4464
 33
0.0
 34
0.0
53
90
  0
DIMENSION
  8
2D_DIM
  2
*D1
  3
ROUTEDIM
  1
0.054
 10
36.062388
 20
33.9464
 30
0.0
 11
18.031194
 21
33.9464
 31
0.0
 13
36.0081888981412
 23
31.4464
 14
36.062388
 24
31.4464
 33
0.0
 34
0.0
53
90
  0
DIMENSION
  8
2D_DIM
  2
*D1
  3
ROUTEDIM
  1
0.057
 10
36.119473
 20
33.9464
 30
0.0
 11
18.0597365
 21
33.9464
 31
0.0
 13
36.062388
 23
31.4464
 14
36.119473
 24
31.4464
 33
0.0
 34
0.0
53
90
  0
DIMENSION
  8
2D_DIM
  2
*D1
  3
ROUTEDIM
  1
0.225
 10
36.344193
 20
33.9464
 30
0.0
 11
18.1720965
 21
33.9464
 31
0.0
 13
36.119473
 23
31.4464
 14
36.344193
 24
31.4464
 33
0.0
 34
0.0
53
90
  0
DIMENSION
  8
2D_DIM
  2
*D1
  3
ROUTEDIM
  1
1.156
 10
37.499836
 20
33.9464
 30
0.0
 11
18.749918
 21
33.9464
 31
0.0
 13
36.344193
 23
31.4464
 14
37.499836
 24
31.4464
 33
0.0
 34
0.0
53
90
  0
DIMENSION
  8
2D_DIM
  2
*D1
  3
ROUTEDIM
  1
0.266
 10
37.765464
 20
33.9464
 30
0.0
 11
18.882732
 21
33.9464
 31
0.0
 13
37.499836
 23
31.4464
 14
37.765464
 24
31.4464
 33
0.0
 34
0.0
53
90
  0
DIMENSION
  8
2D_DIM
  2
*D1
  3
ROUTEDIM
  1
0.234
 10
37.999836
 20
33.9464
 30
0.0
 11
18.999918
 21
33.9464
 31
0.0
 13
37.765464
 23
31.4464
 14
37.999836
 24
31.4464
 33
0.0
 34
0.0
53
90
  0
DIMENSION
  8
2D_DIM
  2
*D1
  3
ROUTEDIM
  1
0.02
 10
38.020332
 20
33.9464
 30
0.0
 11
19.010166
 21
33.9464
 31
0.0
 13
37.999836
 23
31.4464
 14
38.020332
 24
31.4464
 33
0.0
 34
0.0
53
90
  0
DIMENSION
  8
2D_DIM
  2
*D1
  3
ROUTEDIM
  1
0.205
 10
38.2249568669264
 20
33.9464
 30
0.0
 11
19.1124784334632
 21
33.9464
 31
0.0
 13
38.020332
 23
31.4464
 14
38.2249568669264
 24
31.4464
 33
0.0
 34
0.0
53
90
  0
DIMENSION
  8
2D_DIM
  2
*D1
  3
ROUTEDIM
  1
0.05
 10
38.2752
 20
33.9464
 30
0.0
 11
19.1376
 21
33.9464
 31
0.0
 13
38.2249568669264
 23
31.4464
 14
38.2752
 24
31.4464
 33
0.0
 34
0.0
53
90
  0
DIMENSION
  8
2D_DIM
  2
*D1
  3
ROUTEDIM
  1
0.066
 10
38.34112
 20
33.9464
 30
0.0
 11
19.17056
 21
33.9464
 31
0.0
 13
38.2752
 23
31.4464
 14
38.34112
 24
31.4464
 33
0.0
 34
0.0
53
90
  0
DIMENSION
  8
2D_DIM
  2
*D1
  3
ROUTEDIM
  1
0.1
 10
38.4409586581898
 20
33.9464
 30
0.0
 11
19.2204793290949
 21
33.9464
 31
0.0
 13
38.34112
 23
31.4464
 14
38.4409586581898
 24
31.4464
 33
0.0
 34
0.0
53
90
  0
DIMENSION
  8
2D_DIM
  2
*D1
  3
ROUTEDIM
  1
0.007
 10
38.4482628571429
 20
33.9464
 30
0.0
 11
19.2241314285715
 21
33.9464
 31
0.0
 13
38.4409586581898
 23
31.4464
 14
38.4482628571429
 24
31.4464
 33
0.0
 34
0.0
53
90
  0
DIMENSION
  8
2D_DIM
  2
*D1
  3
ROUTEDIM
  1
0.107
 10
38.5554057142857
 20
33.9464
 30
0.0
 11
19.2777028571428
 21
33.9464
 31
0.0
 13
38.4482628571429
 23
31.4464
 14
38.5554057142857
 24
31.4464
 33
0.0
 34
0.0
53
90
  0
DIMENSION
  8
2D_DIM
  2
*D1
  3
ROUTEDIM
  1
0.102
 10
38.6569605383871
 20
33.9464
 30
0.0
 11
19.3284802691935
 21
33.9464
 31
0.0
 13
38.5554057142857
 23
31.4464
 14
38.6569605383871
 24
31.4464
 33
0.0
 34
0.0
53
90
  0
DIMENSION
  8
2D_DIM
  2
*D1
  3
ROUTEDIM
  1
0.327
 10
38.9839771428571
 20
33.9464
 30
0.0
 11
19.4919885714285
 21
33.9464
 31
0.0
 13
38.6569605383871
 23
31.4464
 14
38.9839771428571
 24
31.4464
 33
0.0
 34
0.0
53
90
  0
DIMENSION
  8
2D_DIM
  2
*D1
  3
ROUTEDIM
  1
0.004
 10
38.987747
 20
33.9464
 30
0.0
 11
19.4938735
 21
33.9464
 31
0.0
 13
38.9839771428571
 23
31.4464
 14
38.987747
 24
31.4464
 33
0.0
 34
0.0
53
90
  0
DIMENSION
  8
2D_DIM
  2
*D1
  3
ROUTEDIM
  1
0.273
 10
39.2608472092654
 20
33.9464
 30
0.0
 11
19.6304236046327
 21
33.9464
 31
0.0
 13
38.987747
 23
31.4464
 14
39.2608472092654
 24
31.4464
 33
0.0
 34
0.0
53
90
  0
DIMENSION
  8
2D_DIM
  2
*D1
  3
ROUTEDIM
  1
0.152
 10
39.4125485714286
 20
33.9464
 30
0.0
 11
19.7062742857143
 21
33.9464
 31
0.0
 13
39.2608472092654
 23
31.4464
 14
39.4125485714286
 24
31.4464
 33
0.0
 34
0.0
53
90
  0
DIMENSION
  8
2D_DIM
  2
*D1
  3
ROUTEDIM
  1
0.429
 10
39.84112
 20
33.9464
 30
0.0
 11
19.92056
 21
33.9464
 31
0.0
 13
39.4125485714286
 23
31.4464
 14
39.84112
 24
31.4464
 33
0.0
 34
0.0
53
90
  0
DIMENSION
  8
2D_DIM
  2
*D1
  3
ROUTEDIM
  1
0.004
 10
39.845381
 20
33.9464
 30
0.0
 11
19.9226905
 21
33.9464
 31
0.0
 13
39.84112
 23
31.4464
 14
39.845381
 24
31.4464
 33
0.0
 34
0.0
53
90
  0
DIMENSION
  8
2D_DIM
  2
*D1
  3
ROUTEDIM
  1
0.142
 10
39.9876956346792
 20
33.9464
 30
0.0
 11
19.9938478173396
 21
33.9464
 31
0.0
 13
39.845381
 23
31.4464
 14
39.9876956346792
 24
31.4464
 33
0.0
 34
0.0
53
90
  0
DIMENSION
  8
2D_DIM
  2
*D1
  3
ROUTEDIM
  1
0.282
 10
40.2696914285714
 20
33.9464
 30
0.0
 11
20.1348457142857
 21
33.9464
 31
0.0
 13
39.9876956346792
 23
31.4464
 14
40.2696914285714
 24
31.4464
 33
0.0
 34
0.0
53
90
  0
DIMENSION
  8
2D_DIM
  2
*D1
  3
ROUTEDIM
  1
0.429
 10
40.6982628571429
 20
33.9464
 30
0.0
 11
20.3491314285715
 21
33.9464
 31
0.0
 13
40.2696914285714
 23
31.4464
 14
40.6982628571429
 24
31.4464
 33
0.0
 34
0.0
53
90
  0
DIMENSION
  8
2D_DIM
  2
*D1
  3
ROUTEDIM
  1
0.08
 10
40.77862
 20
33.9464
 30
0.0
 11
20.38931
 21
33.9464
 31
0.0
 13
40.6982628571429
 23
31.4464
 14
40.77862
 24
31.4464
 33
0.0
 34
0.0
53
90
  0
DIMENSION
  8
2D_DIM
  2
*D1
  3
ROUTEDIM
  1
0.078
 10
40.8563179268423
 20
33.9464
 30
0.0
 11
20.4281589634212
 21
33.9464
 31
0.0
 13
40.77862
 23
31.4464
 14
40.8563179268423
 24
31.4464
 33
0.0
 34
0.0
53
90
  0
DIMENSION
  8
2D_DIM
  2
*D1
  3
ROUTEDIM
  1
0.056
 10
40.9125485714286
 20
33.9464
 30
0.0
 11
20.4562742857143
 21
33.9464
 31
0.0
 13
40.8563179268423
 23
31.4464
 14
40.9125485714286
 24
31.4464
 33
0.0
 34
0.0
53
90
  0
DIMENSION
  8
2D_DIM
  2
*D1
  3
ROUTEDIM
  1
0.429
 10
41.34112
 20
33.9464
 30
0.0
 11
20.67056
 21
33.9464
 31
0.0
 13
40.9125485714286
 23
31.4464
 14
41.34112
 24
31.4464
 33
0.0
 34
0.0
53
90
  0
DIMENSION
  8
2D_DIM
  2
*D1
  3
ROUTEDIM
  1
0.429
 10
41.7696914285714
 20
33.9464
 30
0.0
 11
20.8848457142857
 21
33.9464
 31
0.0
 13
41.34112
 23
31.4464
 14
41.7696914285714
 24
31.4464
 33
0.0
 34
0.0
53
90
  0
DIMENSION
  8
2D_DIM
  2
*D1
  3
ROUTEDIM
  1
0.064
 10
41.8339771428571
 20
33.9464
 30
0.0
 11
20.9169885714286
 21
33.9464
 31
0.0
 13
41.7696914285714
 23
31.4464
 14
41.8339771428571
 24
31.4464
 33
0.0
 34
0.0
53
90
  0
DIMENSION
  8
2D_DIM
  2
*D1
  3
ROUTEDIM
  1
0.364
 10
42.1982628571429
 20
33.9464
 30
0.0
 11
21.0991314285715
 21
33.9464
 31
0.0
 13
41.8339771428571
 23
31.4464
 14
42.1982628571429
 24
31.4464
 33
0.0
 34
0.0
53
90
  0
DIMENSION
  8
2D_DIM
  2
*D1
  3
ROUTEDIM
  1
0.429
 10
42.6268342857143
 20
33.9464
 30
0.0
 11
21.3134171428572
 21
33.9464
 31
0.0
 13
42.1982628571429
 23
31.4464
 14
42.6268342857143
 24
31.4464
 33
0.0
 34
0.0
53
90
  0
DIMENSION
  8
2D_DIM
  2
*D1
  3
ROUTEDIM
  1
0.429
 10
43.0554057142857
 20
33.9464
 30
0.0
 11
21.5277028571428
 21
33.9464
 31
0.0
 13
42.6268342857143
 23
31.4464
 14
43.0554057142857
 24
31.4464
 33
0.0
 34
0.0
53
90
  0
DIMENSION
  8
2D_DIM
  2
*D1
  3
ROUTEDIM
  1
0.429
 10
43.4839771428571
 20
33.9464
 30
0.0
 11
21.7419885714285
 21
33.9464
 31
0.0
 13
43.0554057142857
 23
31.4464
 14
43.4839771428571
 24
31.4464
 33
0.0
 34
0.0
53
90
  0
DIMENSION
  8
2D_DIM
  2
*D1
  3
ROUTEDIM
  1
0.429
 10
43.9125485714286
 20
33.9464
 30
0.0
 11
21.9562742857143
 21
33.9464
 31
0.0
 13
43.4839771428571
 23
31.4464
 14
43.9125485714286
 24
31.4464
 33
0.0
 34
0.0
53
90
  0
DIMENSION
  8
2D_DIM
  2
*D1
  3
ROUTEDIM
  1
0.429
 10
44.34112
 20
33.9464
 30
0.0
 11
22.17056
 21
33.9464
 31
0.0
 13
43.9125485714286
 23
31.4464
 14
44.34112
 24
31.4464
 33
0.0
 34
0.0
53
90
  0
DIMENSION
  8
2D_DIM
  2
*D1
  3
ROUTEDIM
  1
16.822
 10
61.163181
 20
33.9464
 30
0.0
 11
30.5815905
 21
33.9464
 31
0.0
 13
44.34112
 23
31.4464
 14
61.163181
 24
31.4464
 33
0.0
 34
0.0
53
90
  0
DIMENSION
  8
2D_DIM
  2
*D1
  3
ROUTEDIM
  1
0.23
 10
61.393429
 20
33.9464
 30
0.0
 11
30.6967145
 21
33.9464
 31
0.0
 13
61.163181
 23
31.4464
 14
61.393429
 24
31.4464
 33
0.0
 34
0.0
53
90
  0
DIMENSION
  8
2D_DIM
  2
*D1
  3
ROUTEDIM
  1
4.107
 10
65.5
 20
33.9464
 30
0.0
 11
32.75
 21
33.9464
 31
0.0
 13
61.393429
 23
31.4464
 14
65.5
 24
31.4464
 33
0.0
 34
0.0
53
90
  0
DIMENSION
  8
2D_DIM
  2
*D1
  3
ROUTEDIM
  1
18.6
 10
84.1
 20
33.9464
 30
0.0
 11
42.05
 21
33.9464
 31
0.0
 13
65.5
 23
31.4464
 14
84.1
 24
31.4464
 33
0.0
 34
0.0
53
90
  0
DIMENSION
  8
2D_DIM
  2
*D1
  3
ROUTEDIM
  1
0.375
 10
84.475
 20
33.9464
 30
0.0
 11
42.2375
 21
33.9464
 31
0.0
 13
84.1
 23
31.4464
 14
84.475
 24
31.4464
 33
0.0
 34
0.0
53
90
  0
DIMENSION
  8
2D_DIM
  2
*D1
  3
ROUTEDIM
  1
-0.475
 10
84
 20
33.9464
 30
0.0
 11
42
 21
33.9464
 31
0.0
 13
84.475
 23
31.4464
 14
84
 24
31.4464
 33
0.0
 34
0.0
53
90
  0
DIMENSION
  8
2D_DIM
  2
*D1
  3
ROUTEDIM
  1
0.475
 10
-2.5
 20
-0.475020000000001
 30
0.0
 11
-2.5
 21
-0.23751
 31
0
 13
0.0
 23
0
 14
0.0
 24
-0.475020000000001
 50
90.0
53
0
 33
0.0
 34
0.0
  0
DIMENSION
  8
2D_DIM
  2
*D1
  3
ROUTEDIM
  1
0.097
 10
-2.5
 20
-0.378117
 30
0.0
 11
-2.5
 21
-0.1890585
 31
0
 13
0.0
 23
-0.475020000000001
 14
0.0
 24
-0.378117
 50
90.0
53
0
 33
0.0
 34
0.0
  0
DIMENSION
  8
2D_DIM
  2
*D1
  3
ROUTEDIM
  1
0.216
 10
-2.5
 20
-0.162520267038513
 30
0.0
 11
-2.5
 21
-0.0812601335192565
 31
0
 13
0.0
 23
-0.378117
 14
0.0
 24
-0.162520267038513
 50
90.0
53
0
 33
0.0
 34
0.0
  0
DIMENSION
  8
2D_DIM
  2
*D1
  3
ROUTEDIM
  1
0.033
 10
-2.5
 20
-0.129280806472213
 30
0.0
 11
-2.5
 21
-0.0646404032361065
 31
0
 13
0.0
 23
-0.162520267038513
 14
0.0
 24
-0.129280806472213
 50
90.0
53
0
 33
0.0
 34
0.0
  0
DIMENSION
  8
2D_DIM
  2
*D1
  3
ROUTEDIM
  1
0.029
 10
-2.5
 20
-0.100020000000001
 30
0.0
 11
-2.5
 21
-0.0500100000000005
 31
0
 13
0.0
 23
-0.129280806472213
 14
0.0
 24
-0.100020000000001
 50
90.0
53
0
 33
0.0
 34
0.0
  0
DIMENSION
  8
2D_DIM
  2
*D1
  3
ROUTEDIM
  1
0.018
 10
-2.5
 20
-0.0821259999999988
 30
0.0
 11
-2.5
 21
-0.0410629999999994
 31
0
 13
0.0
 23
-0.100020000000001
 14
0.0
 24
-0.0821259999999988
 50
90.0
53
0
 33
0.0
 34
0.0
  0
DIMENSION
  8
2D_DIM
  2
*D1
  3
ROUTEDIM
  1
0.082
 10
-2.5
 20
-1.99999999992428E-05
 30
0.0
 11
-2.5
 21
-9.9999999996214E-06
 31
0
 13
0.0
 23
-0.0821259999999988
 14
0.0
 24
-1.99999999992428E-05
 50
90.0
53
0
 33
0.0
 34
0.0
  0
DIMENSION
  8
2D_DIM
  2
*D1
  3
ROUTEDIM
  1
0.313
 10
-2.5
 20
0.312480000000001
 30
0.0
 11
-2.5
 21
0.15624
 31
0
 13
0.0
 23
-1.99999999992428E-05
 14
0.0
 24
0.312480000000001
 50
90.0
53
0
 33
0.0
 34
0.0
  0
DIMENSION
  8
2D_DIM
  2
*D1
  3
ROUTEDIM
  1
0.18
 10
-2.5
 20
0.492971754162365
 30
0.0
 11
-2.5
 21
0.246485877081182
 31
0
 13
0.0
 23
0.312480000000001
 14
0.0
 24
0.492971754162365
 50
90.0
53
0
 33
0.0
 34
0.0
  0
DIMENSION
  8
2D_DIM
  2
*D1
  3
ROUTEDIM
  1
0.064
 10
-2.5
 20
0.557079166598154
 30
0.0
 11
-2.5
 21
0.278539583299077
 31
0
 13
0.0
 23
0.492971754162365
 14
0.0
 24
0.557079166598154
 50
90.0
53
0
 33
0.0
 34
0.0
  0
DIMENSION
  8
2D_DIM
  2
*D1
  3
ROUTEDIM
  1
0.374
 10
-2.5
 20
0.930900271509937
 30
0.0
 11
-2.5
 21
0.465450135754969
 31
0
 13
0.0
 23
0.557079166598154
 14
0.0
 24
0.930900271509937
 50
90.0
53
0
 33
0.0
 34
0.0
  0
DIMENSION
  8
2D_DIM
  2
*D1
  3
ROUTEDIM
  1
0.12
 10
-2.5
 20
1.05138486510348
 30
0.0
 11
-2.5
 21
0.52569243255174
 31
0
 13
0.0
 23
0.930900271509937
 14
0.0
 24
1.05138486510348
 50
90.0
53
0
 33
0.0
 34
0.0
  0
DIMENSION
  8
2D_DIM
  2
*D1
  3
ROUTEDIM
  1
0.47
 10
-2.5
 20
1.52123308337202
 30
0.0
 11
-2.5
 21
0.76061654168601
 31
0
 13
0.0
 23
1.05138486510348
 14
0.0
 24
1.52123308337202
 50
90.0
53
0
 33
0.0
 34
0.0
  0
DIMENSION
  8
2D_DIM
  2
*D1
  3
ROUTEDIM
  1
0.12
 10
-2.5
 20
1.64171770089132
 30
0.0
 11
-2.5
 21
0.82085885044566
 31
0
 13
0.0
 23
1.52123308337202
 14
0.0
 24
1.64171770089132
 50
90.0
53
0
 33
0.0
 34
0.0
  0
DIMENSION
  8
2D_DIM
  2
*D1
  3
ROUTEDIM
  1
0.47
 10
-2.5
 20
2.11156589523411
 30
0.0
 11
-2.5
 21
1.05578294761706
 31
0
 13
0.0
 23
1.64171770089132
 14
0.0
 24
2.11156589523411
 50
90.0
53
0
 33
0.0
 34
0.0
  0
DIMENSION
  8
2D_DIM
  2
*D1
  3
ROUTEDIM
  1
0.12
 10
-2.5
 20
2.23205053667916
 30
0.0
 11
-2.5
 21
1.11602526833958
 31
0
 13
0.0
 23
2.11156589523411
 14
0.0
 24
2.23205053667916
 50
90.0
53
0
 33
0.0
 34
0.0
  0
DIMENSION
  8
2D_DIM
  2
*D1
  3
ROUTEDIM
  1
0.47
 10
-2.5
 20
2.7018987070962
 30
0.0
 11
-2.5
 21
1.3509493535481
 31
0
 13
0.0
 23
2.23205053667916
 14
0.0
 24
2.7018987070962
 50
90.0
53
0
 33
0.0
 34
0.0
  0
DIMENSION
  8
2D_DIM
  2
*D1
  3
ROUTEDIM
  1
0.12
 10
-2.5
 20
2.82238337246701
 30
0.0
 11
-2.5
 21
1.4111916862335
 31
0
 13
0.0
 23
2.7018987070962
 14
0.0
 24
2.82238337246701
 50
90.0
53
0
 33
0.0
 34
0.0
  0
DIMENSION
  8
2D_DIM
  2
*D1
  3
ROUTEDIM
  1
0.47
 10
-2.5
 20
3.29223151895829
 30
0.0
 11
-2.5
 21
1.64611575947914
 31
0
 13
0.0
 23
2.82238337246701
 14
0.0
 24
3.29223151895829
 50
90.0
53
0
 33
0.0
 34
0.0
  0
DIMENSION
  8
2D_DIM
  2
*D1
  3
ROUTEDIM
  1
0.12
 10
-2.5
 20
3.41271620825485
 30
0.0
 11
-2.5
 21
1.70635810412742
 31
0
 13
0.0
 23
3.29223151895829
 14
0.0
 24
3.41271620825485
 50
90.0
53
0
 33
0.0
 34
0.0
  0
DIMENSION
  8
2D_DIM
  2
*D1
  3
ROUTEDIM
  1
0.47
 10
-2.5
 20
3.88256433082038
 30
0.0
 11
-2.5
 21
1.94128216541019
 31
0
 13
0.0
 23
3.41271620825485
 14
0.0
 24
3.88256433082038
 50
90.0
53
0
 33
0.0
 34
0.0
  0
DIMENSION
  8
2D_DIM
  2
*D1
  3
ROUTEDIM
  1
0.12
 10
-2.5
 20
4.00304904404269
 30
0.0
 11
-2.5
 21
2.00152452202135
 31
0
 13
0.0
 23
3.88256433082038
 14
0.0
 24
4.00304904404269
 50
90.0
53
0
 33
0.0
 34
0.0
  0
DIMENSION
  8
2D_DIM
  2
*D1
  3
ROUTEDIM
  1
0.47
 10
-2.5
 20
4.47289714268246
 30
0.0
 11
-2.5
 21
2.23644857134123
 31
0
 13
0.0
 23
4.00304904404269
 14
0.0
 24
4.47289714268246
 50
90.0
53
0
 33
0.0
 34
0.0
  0
DIMENSION
  8
2D_DIM
  2
*D1
  3
ROUTEDIM
  1
0.12
 10
-2.5
 20
4.59338187983053
 30
0.0
 11
-2.5
 21
2.29669093991527
 31
0
 13
0.0
 23
4.47289714268246
 14
0.0
 24
4.59338187983053
 50
90.0
53
0
 33
0.0
 34
0.0
  0
DIMENSION
  8
2D_DIM
  2
*D1
  3
ROUTEDIM
  1
0.47
 10
-2.5
 20
5.06322995454455
 30
0.0
 11
-2.5
 21
2.53161497727227
 31
0
 13
0.0
 23
4.59338187983053
 14
0.0
 24
5.06322995454455
 50
90.0
53
0
 33
0.0
 34
0.0
  0
DIMENSION
  8
2D_DIM
  2
*D1
  3
ROUTEDIM
  1
0.12
 10
-2.5
 20
5.18371471561838
 30
0.0
 11
-2.5
 21
2.59185735780919
 31
0
 13
0.0
 23
5.06322995454455
 14
0.0
 24
5.18371471561838
 50
90.0
53
0
 33
0.0
 34
0.0
  0
DIMENSION
  8
2D_DIM
  2
*D1
  3
ROUTEDIM
  1
0.47
 10
-2.5
 20
5.65356276640664
 30
0.0
 11
-2.5
 21
2.82678138320332
 31
0
 13
0.0
 23
5.18371471561838
 14
0.0
 24
5.65356276640664
 50
90.0
53
0
 33
0.0
 34
0.0
  0
DIMENSION
  8
2D_DIM
  2
*D1
  3
ROUTEDIM
  1
0.12
 10
-2.5
 20
5.77404755140622
 30
0.0
 11
-2.5
 21
2.88702377570311
 31
0
 13
0.0
 23
5.65356276640664
 14
0.0
 24
5.77404755140622
 50
90.0
53
0
 33
0.0
 34
0.0
  0
DIMENSION
  8
2D_DIM
  2
*D1
  3
ROUTEDIM
  1
0.47
 10
-2.5
 20
6.24389557826872
 30
0.0
 11
-2.5
 21
3.12194778913436
 31
0
 13
0.0
 23
5.77404755140622
 14
0.0
 24
6.24389557826872
 50
90.0
53
0
 33
0.0
 34
0.0
  0
DIMENSION
  8
2D_DIM
  2
*D1
  3
ROUTEDIM
  1
0.12
 10
-2.5
 20
6.36438038719407
 30
0.0
 11
-2.5
 21
3.18219019359704
 31
0
 13
0.0
 23
6.24389557826872
 14
0.0
 24
6.36438038719407
 50
90.0
53
0
 33
0.0
 34
0.0
  0
DIMENSION
  8
2D_DIM
  2
*D1
  3
ROUTEDIM
  1
0.47
 10
-2.5
 20
6.83422839013081
 30
0.0
 11
-2.5
 21
3.4171141950654
 31
0
 13
0.0
 23
6.36438038719407
 14
0.0
 24
6.83422839013081
 50
90.0
53
0
 33
0.0
 34
0.0
  0
DIMENSION
  8
2D_DIM
  2
*D1
  3
ROUTEDIM
  1
0.12
 10
-2.5
 20
6.95471322298191
 30
0.0
 11
-2.5
 21
3.47735661149096
 31
0
 13
0.0
 23
6.83422839013081
 14
0.0
 24
6.95471322298191
 50
90.0
53
0
 33
0.0
 34
0.0
  0
DIMENSION
  8
2D_DIM
  2
*D1
  3
ROUTEDIM
  1
0.47
 10
-2.5
 20
7.4245612019929
 30
0.0
 11
-2.5
 21
3.71228060099645
 31
0
 13
0.0
 23
6.95471322298191
 14
0.0
 24
7.4245612019929
 50
90.0
53
0
 33
0.0
 34
0.0
  0
DIMENSION
  8
2D_DIM
  2
*D1
  3
ROUTEDIM
  1
0.12
 10
-2.5
 20
7.54504605876976
 30
0.0
 11
-2.5
 21
3.77252302938488
 31
0
 13
0.0
 23
7.4245612019929
 14
0.0
 24
7.54504605876976
 50
90.0
53
0
 33
0.0
 34
0.0
  0
DIMENSION
  8
2D_DIM
  2
*D1
  3
ROUTEDIM
  1
0.47
 10
-2.5
 20
8.01489401385499
 30
0.0
 11
-2.5
 21
4.0074470069275
 31
0
 13
0.0
 23
7.54504605876976
 14
0.0
 24
8.01489401385499
 50
90.0
53
0
 33
0.0
 34
0.0
  0
DIMENSION
  8
2D_DIM
  2
*D1
  3
ROUTEDIM
  1
0.12
 10
-2.5
 20
8.1353788945576
 30
0.0
 11
-2.5
 21
4.0676894472788
 31
0
 13
0.0
 23
8.01489401385499
 14
0.0
 24
8.1353788945576
 50
90.0
53
0
 33
0.0
 34
0.0
  0
DIMENSION
  8
2D_DIM
  2
*D1
  3
ROUTEDIM
  1
0.47
 10
-2.5
 20
8.60522682571708
 30
0.0
 11
-2.5
 21
4.30261341285854
 31
0
 13
0.0
 23
8.1353788945576
 14
0.0
 24
8.60522682571708
 50
90.0
53
0
 33
0.0
 34
0.0
  0
DIMENSION
  8
2D_DIM
  2
*D1
  3
ROUTEDIM
  1
0.12
 10
-2.5
 20
8.72571173034545
 30
0.0
 11
-2.5
 21
4.36285586517273
 31
0
 13
0.0
 23
8.60522682571708
 14
0.0
 24
8.72571173034545
 50
90.0
53
0
 33
0.0
 34
0.0
  0
DIMENSION
  8
2D_DIM
  2
*D1
  3
ROUTEDIM
  1
0.47
 10
-2.5
 20
9.19555963757917
 30
0.0
 11
-2.5
 21
4.59777981878958
 31
0
 13
0.0
 23
8.72571173034545
 14
0.0
 24
9.19555963757917
 50
90.0
53
0
 33
0.0
 34
0.0
  0
DIMENSION
  8
2D_DIM
  2
*D1
  3
ROUTEDIM
  1
0.12
 10
-2.5
 20
9.31604456613329
 30
0.0
 11
-2.5
 21
4.65802228306664
 31
0
 13
0.0
 23
9.19555963757917
 14
0.0
 24
9.31604456613329
 50
90.0
53
0
 33
0.0
 34
0.0
  0
DIMENSION
  8
2D_DIM
  2
*D1
  3
ROUTEDIM
  1
0.47
 10
-2.5
 20
9.78589244944126
 30
0.0
 11
-2.5
 21
4.89294622472063
 31
0
 13
0.0
 23
9.31604456613329
 14
0.0
 24
9.78589244944126
 50
90.0
53
0
 33
0.0
 34
0.0
  0
DIMENSION
  8
2D_DIM
  2
*D1
  3
ROUTEDIM
  1
0.12
 10
-2.5
 20
9.90637740192114
 30
0.0
 11
-2.5
 21
4.95318870096057
 31
0
 13
0.0
 23
9.78589244944126
 14
0.0
 24
9.90637740192114
 50
90.0
53
0
 33
0.0
 34
0.0
  0
DIMENSION
  8
2D_DIM
  2
*D1
  3
ROUTEDIM
  1
0.47
 10
-2.5
 20
10.3762252613033
 30
0.0
 11
-2.5
 21
5.18811263065165
 31
0
 13
0.0
 23
9.90637740192114
 14
0.0
 24
10.3762252613033
 50
90.0
53
0
 33
0.0
 34
0.0
  0
DIMENSION
  8
2D_DIM
  2
*D1
  3
ROUTEDIM
  1
0.12
 10
-2.5
 20
10.496710237709
 30
0.0
 11
-2.5
 21
5.2483551188545
 31
0
 13
0.0
 23
10.3762252613033
 14
0.0
 24
10.496710237709
 50
90.0
53
0
 33
0.0
 34
0.0
  0
DIMENSION
  8
2D_DIM
  2
*D1
  3
ROUTEDIM
  1
0.47
 10
-2.5
 20
10.9665580731654
 30
0.0
 11
-2.5
 21
5.4832790365827
 31
0
 13
0.0
 23
10.496710237709
 14
0.0
 24
10.9665580731654
 50
90.0
53
0
 33
0.0
 34
0.0
  0
DIMENSION
  8
2D_DIM
  2
*D1
  3
ROUTEDIM
  1
0.12
 10
-2.5
 20
11.0870430734968
 30
0.0
 11
-2.5
 21
5.5435215367484
 31
0
 13
0.0
 23
10.9665580731654
 14
0.0
 24
11.0870430734968
 50
90.0
53
0
 33
0.0
 34
0.0
  0
DIMENSION
  8
2D_DIM
  2
*D1
  3
ROUTEDIM
  1
0.47
 10
-2.5
 20
11.5568908850275
 30
0.0
 11
-2.5
 21
5.77844544251375
 31
0
 13
0.0
 23
11.0870430734968
 14
0.0
 24
11.5568908850275
 50
90.0
53
0
 33
0.0
 34
0.0
  0
DIMENSION
  8
2D_DIM
  2
*D1
  3
ROUTEDIM
  1
0.12
 10
-2.5
 20
11.6773759092847
 30
0.0
 11
-2.5
 21
5.83868795464235
 31
0
 13
0.0
 23
11.5568908850275
 14
0.0
 24
11.6773759092847
 50
90.0
53
0
 33
0.0
 34
0.0
  0
DIMENSION
  8
2D_DIM
  2
*D1
  3
ROUTEDIM
  1
0.47
 10
-2.5
 20
12.1472236968896
 30
0.0
 11
-2.5
 21
6.0736118484448
 31
0
 13
0.0
 23
11.6773759092847
 14
0.0
 24
12.1472236968896
 50
90.0
53
0
 33
0.0
 34
0.0
  0
DIMENSION
  8
2D_DIM
  2
*D1
  3
ROUTEDIM
  1
0.12
 10
-2.5
 20
12.2677087450725
 30
0.0
 11
-2.5
 21
6.13385437253625
 31
0
 13
0.0
 23
12.1472236968896
 14
0.0
 24
12.2677087450725
 50
90.0
53
0
 33
0.0
 34
0.0
  0
DIMENSION
  8
2D_DIM
  2
*D1
  3
ROUTEDIM
  1
0.47
 10
-2.5
 20
12.7375565087517
 30
0.0
 11
-2.5
 21
6.36877825437585
 31
0
 13
0.0
 23
12.2677087450725
 14
0.0
 24
12.7375565087517
 50
90.0
53
0
 33
0.0
 34
0.0
  0
DIMENSION
  8
2D_DIM
  2
*D1
  3
ROUTEDIM
  1
0.12
 10
-2.5
 20
12.8580415808604
 30
0.0
 11
-2.5
 21
6.4290207904302
 31
0
 13
0.0
 23
12.7375565087517
 14
0.0
 24
12.8580415808604
 50
90.0
53
0
 33
0.0
 34
0.0
  0
DIMENSION
  8
2D_DIM
  2
*D1
  3
ROUTEDIM
  1
0.47
 10
-2.5
 20
13.3278893206138
 30
0.0
 11
-2.5
 21
6.6639446603069
 31
0
 13
0.0
 23
12.8580415808604
 14
0.0
 24
13.3278893206138
 50
90.0
53
0
 33
0.0
 34
0.0
  0
DIMENSION
  8
2D_DIM
  2
*D1
  3
ROUTEDIM
  1
0.12
 10
-2.5
 20
13.4483744166482
 30
0.0
 11
-2.5
 21
6.7241872083241
 31
0
 13
0.0
 23
13.3278893206138
 14
0.0
 24
13.4483744166482
 50
90.0
53
0
 33
0.0
 34
0.0
  0
DIMENSION
  8
2D_DIM
  2
*D1
  3
ROUTEDIM
  1
0.47
 10
-2.5
 20
13.9182221324759
 30
0.0
 11
-2.5
 21
6.95911106623795
 31
0
 13
0.0
 23
13.4483744166482
 14
0.0
 24
13.9182221324759
 50
90.0
53
0
 33
0.0
 34
0.0
  0
DIMENSION
  8
2D_DIM
  2
*D1
  3
ROUTEDIM
  1
0.12
 10
-2.5
 20
14.038707252436
 30
0.0
 11
-2.5
 21
7.019353626218
 31
0
 13
0.0
 23
13.9182221324759
 14
0.0
 24
14.038707252436
 50
90.0
53
0
 33
0.0
 34
0.0
  0
DIMENSION
  8
2D_DIM
  2
*D1
  3
ROUTEDIM
  1
0.47
 10
-2.5
 20
14.508554944338
 30
0.0
 11
-2.5
 21
7.254277472169
 31
0
 13
0.0
 23
14.038707252436
 14
0.0
 24
14.508554944338
 50
90.0
53
0
 33
0.0
 34
0.0
  0
DIMENSION
  8
2D_DIM
  2
*D1
  3
ROUTEDIM
  1
0.12
 10
-2.5
 20
14.6290400882239
 30
0.0
 11
-2.5
 21
7.31452004411195
 31
0
 13
0.0
 23
14.508554944338
 14
0.0
 24
14.6290400882239
 50
90.0
53
0
 33
0.0
 34
0.0
  0
DIMENSION
  8
2D_DIM
  2
*D1
  3
ROUTEDIM
  1
0.47
 10
-2.5
 20
15.0988877562
 30
0.0
 11
-2.5
 21
7.5494438781
 31
0
 13
0.0
 23
14.6290400882239
 14
0.0
 24
15.0988877562
 50
90.0
53
0
 33
0.0
 34
0.0
  0
DIMENSION
  8
2D_DIM
  2
*D1
  3
ROUTEDIM
  1
0.12
 10
-2.5
 20
15.2193729240117
 30
0.0
 11
-2.5
 21
7.60968646200585
 31
0
 13
0.0
 23
15.0988877562
 14
0.0
 24
15.2193729240117
 50
90.0
53
0
 33
0.0
 34
0.0
  0
DIMENSION
  8
2D_DIM
  2
*D1
  3
ROUTEDIM
  1
0.47
 10
-2.5
 20
15.6892205680621
 30
0.0
 11
-2.5
 21
7.84461028403105
 31
0
 13
0.0
 23
15.2193729240117
 14
0.0
 24
15.6892205680621
 50
90.0
53
0
 33
0.0
 34
0.0
  0
DIMENSION
  8
2D_DIM
  2
*D1
  3
ROUTEDIM
  1
0.083
 10
-2.5
 20
15.77236
 30
0.0
 11
-2.5
 21
7.88618
 31
0
 13
0.0
 23
15.6892205680621
 14
0.0
 24
15.77236
 50
90.0
53
0
 33
0.0
 34
0.0
  0
DIMENSION
  8
2D_DIM
  2
*D1
  3
ROUTEDIM
  1
0.037
 10
-2.5
 20
15.8097057597996
 30
0.0
 11
-2.5
 21
7.9048528798998
 31
0
 13
0.0
 23
15.77236
 14
0.0
 24
15.8097057597996
 50
90.0
53
0
 33
0.0
 34
0.0
  0
DIMENSION
  8
2D_DIM
  2
*D1
  3
ROUTEDIM
  1
0.097
 10
-2.5
 20
15.906539
 30
0.0
 11
-2.5
 21
7.9532695
 31
0
 13
0.0
 23
15.8097057597996
 14
0.0
 24
15.906539
 50
90.0
53
0
 33
0.0
 34
0.0
  0
DIMENSION
  8
2D_DIM
  2
*D1
  3
ROUTEDIM
  1
0.178
 10
-2.5
 20
16.08486
 30
0.0
 11
-2.5
 21
8.04243
 31
0
 13
0.0
 23
15.906539
 14
0.0
 24
16.08486
 50
90.0
53
0
 33
0.0
 34
0.0
  0
DIMENSION
  8
2D_DIM
  2
*D1
  3
ROUTEDIM
  1
0.107
 10
-2.5
 20
16.1920028571429
 30
0.0
 11
-2.5
 21
8.09600142857145
 31
0
 13
0.0
 23
16.08486
 14
0.0
 24
16.1920028571429
 50
90.0
53
0
 33
0.0
 34
0.0
  0
DIMENSION
  8
2D_DIM
  2
*D1
  3
ROUTEDIM
  1
0.074
 10
-2.5
 20
16.2663303414842
 30
0.0
 11
-2.5
 21
8.1331651707421
 31
0
 13
0.0
 23
16.1920028571429
 14
0.0
 24
16.2663303414842
 50
90.0
53
0
 33
0.0
 34
0.0
  0
DIMENSION
  8
2D_DIM
  2
*D1
  3
ROUTEDIM
  1
0.013
 10
-2.5
 20
16.2795533799242
 30
0.0
 11
-2.5
 21
8.1397766899621
 31
0
 13
0.0
 23
16.2663303414842
 14
0.0
 24
16.2795533799242
 50
90.0
53
0
 33
0.0
 34
0.0
  0
DIMENSION
  8
2D_DIM
  2
*D1
  3
ROUTEDIM
  1
0.019
 10
-2.5
 20
16.298207
 30
0.0
 11
-2.5
 21
8.1491035
 31
0
 13
0.0
 23
16.2795533799242
 14
0.0
 24
16.298207
 50
90.0
53
0
 33
0.0
 34
0.0
  0
DIMENSION
  8
2D_DIM
  2
*D1
  3
ROUTEDIM
  1
0.093
 10
-2.5
 20
16.3912188968705
 30
0.0
 11
-2.5
 21
8.19560944843525
 31
0
 13
0.0
 23
16.298207
 14
0.0
 24
16.3912188968705
 50
90.0
53
0
 33
0.0
 34
0.0
  0
DIMENSION
  8
2D_DIM
  2
*D1
  3
ROUTEDIM
  1
0.009
 10
-2.5
 20
16.4000385955874
 30
0.0
 11
-2.5
 21
8.2000192977937
 31
0
 13
0.0
 23
16.3912188968705
 14
0.0
 24
16.4000385955874
 50
90.0
53
0
 33
0.0
 34
0.0
  0
DIMENSION
  8
2D_DIM
  2
*D1
  3
ROUTEDIM
  1
0.221
 10
-2.5
 20
16.6205742857143
 30
0.0
 11
-2.5
 21
8.31028714285715
 31
0
 13
0.0
 23
16.4000385955874
 14
0.0
 24
16.6205742857143
 50
90.0
53
0
 33
0.0
 34
0.0
  0
DIMENSION
  8
2D_DIM
  2
*D1
  3
ROUTEDIM
  1
0.103
 10
-2.5
 20
16.7231590907229
 30
0.0
 11
-2.5
 21
8.36157954536145
 31
0
 13
0.0
 23
16.6205742857143
 14
0.0
 24
16.7231590907229
 50
90.0
53
0
 33
0.0
 34
0.0
  0
DIMENSION
  8
2D_DIM
  2
*D1
  3
ROUTEDIM
  1
0.147
 10
-2.5
 20
16.8698861917863
 30
0.0
 11
-2.5
 21
8.43494309589315
 31
0
 13
0.0
 23
16.7231590907229
 14
0.0
 24
16.8698861917863
 50
90.0
53
0
 33
0.0
 34
0.0
  0
DIMENSION
  8
2D_DIM
  2
*D1
  3
ROUTEDIM
  1
0.046
 10
-2.5
 20
16.915634
 30
0.0
 11
-2.5
 21
8.457817
 31
0
 13
0.0
 23
16.8698861917863
 14
0.0
 24
16.915634
 50
90.0
53
0
 33
0.0
 34
0.0
  0
DIMENSION
  8
2D_DIM
  2
*D1
  3
ROUTEDIM
  1
0.075
 10
-2.5
 20
16.9903714313753
 30
0.0
 11
-2.5
 21
8.49518571568765
 31
0
 13
0.0
 23
16.915634
 14
0.0
 24
16.9903714313753
 50
90.0
53
0
 33
0.0
 34
0.0
  0
DIMENSION
  8
2D_DIM
  2
*D1
  3
ROUTEDIM
  1
0.059
 10
-2.5
 20
17.0491457142857
 30
0.0
 11
-2.5
 21
8.52457285714285
 31
0
 13
0.0
 23
16.9903714313753
 14
0.0
 24
17.0491457142857
 50
90.0
53
0
 33
0.0
 34
0.0
  0
DIMENSION
  8
2D_DIM
  2
*D1
  3
ROUTEDIM
  1
0.197
 10
-2.5
 20
17.2464312147213
 30
0.0
 11
-2.5
 21
8.62321560736065
 31
0
 13
0.0
 23
17.0491457142857
 14
0.0
 24
17.2464312147213
 50
90.0
53
0
 33
0.0
 34
0.0
  0
DIMENSION
  8
2D_DIM
  2
*D1
  3
ROUTEDIM
  1
0.214
 10
-2.5
 20
17.4602190036484
 30
0.0
 11
-2.5
 21
8.7301095018242
 31
0
 13
0.0
 23
17.2464312147213
 14
0.0
 24
17.4602190036484
 50
90.0
53
0
 33
0.0
 34
0.0
  0
DIMENSION
  8
2D_DIM
  2
*D1
  3
ROUTEDIM
  1
0.017
 10
-2.5
 20
17.4777171428571
 30
0.0
 11
-2.5
 21
8.73885857142855
 31
0
 13
0.0
 23
17.4602190036484
 14
0.0
 24
17.4777171428571
 50
90.0
53
0
 33
0.0
 34
0.0
  0
DIMENSION
  8
2D_DIM
  2
*D1
  3
ROUTEDIM
  1
0.103
 10
-2.5
 20
17.5807042671631
 30
0.0
 11
-2.5
 21
8.79035213358155
 31
0
 13
0.0
 23
17.4777171428571
 14
0.0
 24
17.5807042671631
 50
90.0
53
0
 33
0.0
 34
0.0
  0
DIMENSION
  8
2D_DIM
  2
*D1
  3
ROUTEDIM
  1
0.128
 10
-2.5
 20
17.708798
 30
0.0
 11
-2.5
 21
8.854399
 31
0
 13
0.0
 23
17.5807042671631
 14
0.0
 24
17.708798
 50
90.0
53
0
 33
0.0
 34
0.0
  0
DIMENSION
  8
2D_DIM
  2
*D1
  3
ROUTEDIM
  1
0.197
 10
-2.5
 20
17.9062885714286
 30
0.0
 11
-2.5
 21
8.9531442857143
 31
0
 13
0.0
 23
17.708798
 14
0.0
 24
17.9062885714286
 50
90.0
53
0
 33
0.0
 34
0.0
  0
DIMENSION
  8
2D_DIM
  2
*D1
  3
ROUTEDIM
  1
0.012
 10
-2.5
 20
17.9186416290898
 30
0.0
 11
-2.5
 21
8.9593208145449
 31
0
 13
0.0
 23
17.9062885714286
 14
0.0
 24
17.9186416290898
 50
90.0
53
0
 33
0.0
 34
0.0
  0
DIMENSION
  8
2D_DIM
  2
*D1
  3
ROUTEDIM
  1
0.132
 10
-2.5
 20
18.0505518155105
 30
0.0
 11
-2.5
 21
9.02527590775525
 31
0
 13
0.0
 23
17.9186416290898
 14
0.0
 24
18.0505518155105
 50
90.0
53
0
 33
0.0
 34
0.0
  0
DIMENSION
  8
2D_DIM
  2
*D1
  3
ROUTEDIM
  1
0.034
 10
-2.5
 20
18.08486
 30
0.0
 11
-2.5
 21
9.04243
 31
0
 13
0.0
 23
18.0505518155105
 14
0.0
 24
18.08486
 50
90.0
53
0
 33
0.0
 34
0.0
  0
DIMENSION
  8
2D_DIM
  2
*D1
  3
ROUTEDIM
  1
0.086
 10
-2.5
 20
18.171037102951
 30
0.0
 11
-2.5
 21
9.0855185514755
 31
0
 13
0.0
 23
18.08486
 14
0.0
 24
18.171037102951
 50
90.0
53
0
 33
0.0
 34
0.0
  0
DIMENSION
  8
2D_DIM
  2
*D1
  3
ROUTEDIM
  1
0.164
 10
-2.5
 20
18.33486
 30
0.0
 11
-2.5
 21
9.16743
 31
0
 13
0.0
 23
18.171037102951
 14
0.0
 24
18.33486
 50
90.0
53
0
 33
0.0
 34
0.0
  0
DIMENSION
  8
2D_DIM
  2
*D1
  3
ROUTEDIM
  1
0.279
 10
-2.5
 20
18.613442
 30
0.0
 11
-2.5
 21
9.306721
 31
0
 13
0.0
 23
18.33486
 14
0.0
 24
18.613442
 50
90.0
53
0
 33
0.0
 34
0.0
  0
DIMENSION
  8
2D_DIM
  2
*D1
  3
ROUTEDIM
  1
0.027
 10
-2.5
 20
18.6408846273726
 30
0.0
 11
-2.5
 21
9.3204423136863
 31
0
 13
0.0
 23
18.613442
 14
0.0
 24
18.6408846273726
 50
90.0
53
0
 33
0.0
 34
0.0
  0
DIMENSION
  8
2D_DIM
  2
*D1
  3
ROUTEDIM
  1
0.015
 10
-2.5
 20
18.6562885714286
 30
0.0
 11
-2.5
 21
9.3281442857143
 31
0
 13
0.0
 23
18.6408846273726
 14
0.0
 24
18.6562885714286
 50
90.0
53
0
 33
0.0
 34
0.0
  0
DIMENSION
  8
2D_DIM
  2
*D1
  3
ROUTEDIM
  1
0.029
 10
-2.5
 20
18.6853312910976
 30
0.0
 11
-2.5
 21
9.3426656455488
 31
0
 13
0.0
 23
18.6562885714286
 14
0.0
 24
18.6853312910976
 50
90.0
53
0
 33
0.0
 34
0.0
  0
DIMENSION
  8
2D_DIM
  2
*D1
  3
ROUTEDIM
  1
0.076
 10
-2.5
 20
18.7613699387388
 30
0.0
 11
-2.5
 21
9.3806849693694
 31
0
 13
0.0
 23
18.6853312910976
 14
0.0
 24
18.7613699387388
 50
90.0
53
0
 33
0.0
 34
0.0
  0
DIMENSION
  8
2D_DIM
  2
*D1
  3
ROUTEDIM
  1
0.323
 10
-2.5
 20
19.08486
 30
0.0
 11
-2.5
 21
9.54243
 31
0
 13
0.0
 23
18.7613699387388
 14
0.0
 24
19.08486
 50
90.0
53
0
 33
0.0
 34
0.0
  0
DIMENSION
  8
2D_DIM
  2
*D1
  3
ROUTEDIM
  1
0.146
 10
-2.5
 20
19.2312174392347
 30
0.0
 11
-2.5
 21
9.61560871961735
 31
0
 13
0.0
 23
19.08486
 14
0.0
 24
19.2312174392347
 50
90.0
53
0
 33
0.0
 34
0.0
  0
DIMENSION
  8
2D_DIM
  2
*D1
  3
ROUTEDIM
  1
0.12
 10
-2.5
 20
19.3517027745266
 30
0.0
 11
-2.5
 21
9.6758513872633
 31
0
 13
0.0
 23
19.2312174392347
 14
0.0
 24
19.3517027745266
 50
90.0
53
0
 33
0.0
 34
0.0
  0
DIMENSION
  8
2D_DIM
  2
*D1
  3
ROUTEDIM
  1
0.133
 10
-2.5
 20
19.4843887089024
 30
0.0
 11
-2.5
 21
9.7421943544512
 31
0
 13
0.0
 23
19.3517027745266
 14
0.0
 24
19.4843887089024
 50
90.0
53
0
 33
0.0
 34
0.0
  0
DIMENSION
  8
2D_DIM
  2
*D1
  3
ROUTEDIM
  1
0.029
 10
-2.5
 20
19.5134314285714
 30
0.0
 11
-2.5
 21
9.7567157142857
 31
0
 13
0.0
 23
19.4843887089024
 14
0.0
 24
19.5134314285714
 50
90.0
53
0
 33
0.0
 34
0.0
  0
DIMENSION
  8
2D_DIM
  2
*D1
  3
ROUTEDIM
  1
0.043
 10
-2.5
 20
19.556278
 30
0.0
 11
-2.5
 21
9.778139
 31
0
 13
0.0
 23
19.5134314285714
 14
0.0
 24
19.556278
 50
90.0
53
0
 33
0.0
 34
0.0
  0
DIMENSION
  8
2D_DIM
  2
*D1
  3
ROUTEDIM
  1
0.064
 10
-2.5
 20
19.6205742857143
 30
0.0
 11
-2.5
 21
9.81028714285715
 31
0
 13
0.0
 23
19.556278
 14
0.0
 24
19.6205742857143
 50
90.0
53
0
 33
0.0
 34
0.0
  0
DIMENSION
  8
2D_DIM
  2
*D1
  3
ROUTEDIM
  1
0.201
 10
-2.5
 20
19.8215502510968
 30
0.0
 11
-2.5
 21
9.9107751255484
 31
0
 13
0.0
 23
19.6205742857143
 14
0.0
 24
19.8215502510968
 50
90.0
53
0
 33
0.0
 34
0.0
  0
DIMENSION
  8
2D_DIM
  2
*D1
  3
ROUTEDIM
  1
0.12
 10
-2.5
 20
19.9420356103145
 30
0.0
 11
-2.5
 21
9.97101780515725
 31
0
 13
0.0
 23
19.8215502510968
 14
0.0
 24
19.9420356103145
 50
90.0
53
0
 33
0.0
 34
0.0
  0
DIMENSION
  8
2D_DIM
  2
*D1
  3
ROUTEDIM
  1
0.107
 10
-2.5
 20
20.0491457142857
 30
0.0
 11
-2.5
 21
10.0245728571429
 31
0
 13
0.0
 23
19.9420356103145
 14
0.0
 24
20.0491457142857
 50
90.0
53
0
 33
0.0
 34
0.0
  0
DIMENSION
  8
2D_DIM
  2
*D1
  3
ROUTEDIM
  1
0.202
 10
-2.5
 20
20.2510783709102
 30
0.0
 11
-2.5
 21
10.1255391854551
 31
0
 13
0.0
 23
20.0491457142857
 14
0.0
 24
20.2510783709102
 50
90.0
53
0
 33
0.0
 34
0.0
  0
DIMENSION
  8
2D_DIM
  2
*D1
  3
ROUTEDIM
  1
0.161
 10
-2.5
 20
20.4118830629589
 30
0.0
 11
-2.5
 21
10.2059415314794
 31
0
 13
0.0
 23
20.2510783709102
 14
0.0
 24
20.4118830629589
 50
90.0
53
0
 33
0.0
 34
0.0
  0
DIMENSION
  8
2D_DIM
  2
*D1
  3
ROUTEDIM
  1
0.049
 10
-2.5
 20
20.460922
 30
0.0
 11
-2.5
 21
10.230461
 31
0
 13
0.0
 23
20.4118830629589
 14
0.0
 24
20.460922
 50
90.0
53
0
 33
0.0
 34
0.0
  0
DIMENSION
  8
2D_DIM
  2
*D1
  3
ROUTEDIM
  1
0.017
 10
-2.5
 20
20.4777171428571
 30
0.0
 11
-2.5
 21
10.2388585714285
 31
0
 13
0.0
 23
20.460922
 14
0.0
 24
20.4777171428571
 50
90.0
53
0
 33
0.0
 34
0.0
  0
DIMENSION
  8
2D_DIM
  2
*D1
  3
ROUTEDIM
  1
0.055
 10
-2.5
 20
20.5323684461023
 30
0.0
 11
-2.5
 21
10.2661842230511
 31
0
 13
0.0
 23
20.4777171428571
 14
0.0
 24
20.5323684461023
 50
90.0
53
0
 33
0.0
 34
0.0
  0
DIMENSION
  8
2D_DIM
  2
*D1
  3
ROUTEDIM
  1
0.055
 10
-2.5
 20
20.5871834228696
 30
0.0
 11
-2.5
 21
10.2935917114348
 31
0
 13
0.0
 23
20.5323684461023
 14
0.0
 24
20.5871834228696
 50
90.0
53
0
 33
0.0
 34
0.0
  0
DIMENSION
  8
2D_DIM
  2
*D1
  3
ROUTEDIM
  1
0.27
 10
-2.5
 20
20.857504
 30
0.0
 11
-2.5
 21
10.428752
 31
0
 13
0.0
 23
20.5871834228696
 14
0.0
 24
20.857504
 50
90.0
53
0
 33
0.0
 34
0.0
  0
DIMENSION
  8
2D_DIM
  2
*D1
  3
ROUTEDIM
  1
0.049
 10
-2.5
 20
20.9062885714286
 30
0.0
 11
-2.5
 21
10.4531442857143
 31
0
 13
0.0
 23
20.857504
 14
0.0
 24
20.9062885714286
 50
90.0
53
0
 33
0.0
 34
0.0
  0
DIMENSION
  8
2D_DIM
  2
*D1
  3
ROUTEDIM
  1
0.017
 10
-2.5
 20
20.9232886132129
 30
0.0
 11
-2.5
 21
10.4616443066065
 31
0
 13
0.0
 23
20.9062885714286
 14
0.0
 24
20.9232886132129
 50
90.0
53
0
 33
0.0
 34
0.0
  0
DIMENSION
  8
2D_DIM
  2
*D1
  3
ROUTEDIM
  1
0.079
 10
-2.5
 20
21.0022158748209
 30
0.0
 11
-2.5
 21
10.5011079374105
 31
0
 13
0.0
 23
20.9232886132129
 14
0.0
 24
21.0022158748209
 50
90.0
53
0
 33
0.0
 34
0.0
  0
DIMENSION
  8
2D_DIM
  2
*D1
  3
ROUTEDIM
  1
0.12
 10
-2.5
 20
21.1227012818902
 30
0.0
 11
-2.5
 21
10.5613506409451
 31
0
 13
0.0
 23
21.0022158748209
 14
0.0
 24
21.1227012818902
 50
90.0
53
0
 33
0.0
 34
0.0
  0
DIMENSION
  8
2D_DIM
  2
*D1
  3
ROUTEDIM
  1
0.131
 10
-2.5
 20
21.254086
 30
0.0
 11
-2.5
 21
10.627043
 31
0
 13
0.0
 23
21.1227012818902
 14
0.0
 24
21.254086
 50
90.0
53
0
 33
0.0
 34
0.0
  0
DIMENSION
  8
2D_DIM
  2
*D1
  3
ROUTEDIM
  1
0.081
 10
-2.5
 20
21.33486
 30
0.0
 11
-2.5
 21
10.66743
 31
0
 13
0.0
 23
21.254086
 14
0.0
 24
21.33486
 50
90.0
53
0
 33
0.0
 34
0.0
  0
DIMENSION
  8
2D_DIM
  2
*D1
  3
ROUTEDIM
  1
0.112
 10
-2.5
 20
21.4465598243101
 30
0.0
 11
-2.5
 21
10.723279912155
 31
0
 13
0.0
 23
21.33486
 14
0.0
 24
21.4465598243101
 50
90.0
53
0
 33
0.0
 34
0.0
  0
DIMENSION
  8
2D_DIM
  2
*D1
  3
ROUTEDIM
  1
0.146
 10
-2.5
 20
21.592548686683
 30
0.0
 11
-2.5
 21
10.7962743433415
 31
0
 13
0.0
 23
21.4465598243101
 14
0.0
 24
21.592548686683
 50
90.0
53
0
 33
0.0
 34
0.0
  0
DIMENSION
  8
2D_DIM
  2
*D1
  3
ROUTEDIM
  1
0.12
 10
-2.5
 20
21.713034117678
 30
0.0
 11
-2.5
 21
10.856517058839
 31
0
 13
0.0
 23
21.592548686683
 14
0.0
 24
21.713034117678
 50
90.0
53
0
 33
0.0
 34
0.0
  0
DIMENSION
  8
2D_DIM
  2
*D1
  3
ROUTEDIM
  1
0.05
 10
-2.5
 20
21.7634314285714
 30
0.0
 11
-2.5
 21
10.8817157142857
 31
0
 13
0.0
 23
21.713034117678
 14
0.0
 24
21.7634314285714
 50
90.0
53
0
 33
0.0
 34
0.0
  0
DIMENSION
  8
2D_DIM
  2
*D1
  3
ROUTEDIM
  1
0.015
 10
-2.5
 20
21.7785002144125
 30
0.0
 11
-2.5
 21
10.8892501072062
 31
0
 13
0.0
 23
21.7634314285714
 14
0.0
 24
21.7785002144125
 50
90.0
53
0
 33
0.0
 34
0.0
  0
DIMENSION
  8
2D_DIM
  2
*D1
  3
ROUTEDIM
  1
0.093
 10
-2.5
 20
21.871512
 30
0.0
 11
-2.5
 21
10.935756
 31
0
 13
0.0
 23
21.7785002144125
 14
0.0
 24
21.871512
 50
90.0
53
0
 33
0.0
 34
0.0
  0
DIMENSION
  8
2D_DIM
  2
*D1
  3
ROUTEDIM
  1
0.032
 10
-2.5
 20
21.9033897012233
 30
0.0
 11
-2.5
 21
10.9516948506117
 31
0
 13
0.0
 23
21.871512
 14
0.0
 24
21.9033897012233
 50
90.0
53
0
 33
0.0
 34
0.0
  0
DIMENSION
  8
2D_DIM
  2
*D1
  3
ROUTEDIM
  1
0.181
 10
-2.5
 20
22.08486
 30
0.0
 11
-2.5
 21
11.04243
 31
0
 13
0.0
 23
21.9033897012233
 14
0.0
 24
22.08486
 50
90.0
53
0
 33
0.0
 34
0.0
  0
DIMENSION
  8
2D_DIM
  2
*D1
  3
ROUTEDIM
  1
0.098
 10
-2.5
 20
22.1828814985451
 30
0.0
 11
-2.5
 21
11.0914407492726
 31
0
 13
0.0
 23
22.08486
 14
0.0
 24
22.1828814985451
 50
90.0
53
0
 33
0.0
 34
0.0
  0
DIMENSION
  8
2D_DIM
  2
*D1
  3
ROUTEDIM
  1
0.08
 10
-2.5
 20
22.26318
 30
0.0
 11
-2.5
 21
11.13159
 31
0
 13
0.0
 23
22.1828814985451
 14
0.0
 24
22.26318
 50
90.0
53
0
 33
0.0
 34
0.0
  0
DIMENSION
  8
2D_DIM
  2
*D1
  3
ROUTEDIM
  1
0.04
 10
-2.5
 20
22.3033669534659
 30
0.0
 11
-2.5
 21
11.151683476733
 31
0
 13
0.0
 23
22.26318
 14
0.0
 24
22.3033669534659
 50
90.0
53
0
 33
0.0
 34
0.0
  0
DIMENSION
  8
2D_DIM
  2
*D1
  3
ROUTEDIM
  1
0.094
 10
-2.5
 20
22.39736
 30
0.0
 11
-2.5
 21
11.19868
 31
0
 13
0.0
 23
22.3033669534659
 14
0.0
 24
22.39736
 50
90.0
53
0
 33
0.0
 34
0.0
  0
DIMENSION
  8
2D_DIM
  2
*D1
  3
ROUTEDIM
  1
0.376
 10
-2.5
 20
22.7732143104072
 30
0.0
 11
-2.5
 21
11.3866071552036
 31
0
 13
0.0
 23
22.39736
 14
0.0
 24
22.7732143104072
 50
90.0
53
0
 33
0.0
 34
0.0
  0
DIMENSION
  8
2D_DIM
  2
*D1
  3
ROUTEDIM
  1
0.12
 10
-2.5
 20
22.8936997892537
 30
0.0
 11
-2.5
 21
11.4468498946268
 31
0
 13
0.0
 23
22.7732143104072
 14
0.0
 24
22.8936997892537
 50
90.0
53
0
 33
0.0
 34
0.0
  0
DIMENSION
  8
2D_DIM
  2
*D1
  3
ROUTEDIM
  1
0.47
 10
-2.5
 20
23.3635471222693
 30
0.0
 11
-2.5
 21
11.6817735611346
 31
0
 13
0.0
 23
22.8936997892537
 14
0.0
 24
23.3635471222693
 50
90.0
53
0
 33
0.0
 34
0.0
  0
DIMENSION
  8
2D_DIM
  2
*D1
  3
ROUTEDIM
  1
0.12
 10
-2.5
 20
23.4840326250416
 30
0.0
 11
-2.5
 21
11.7420163125208
 31
0
 13
0.0
 23
23.3635471222693
 14
0.0
 24
23.4840326250416
 50
90.0
53
0
 33
0.0
 34
0.0
  0
DIMENSION
  8
2D_DIM
  2
*D1
  3
ROUTEDIM
  1
0.47
 10
-2.5
 20
23.9538799341314
 30
0.0
 11
-2.5
 21
11.9769399670657
 31
0
 13
0.0
 23
23.4840326250416
 14
0.0
 24
23.9538799341314
 50
90.0
53
0
 33
0.0
 34
0.0
  0
DIMENSION
  8
2D_DIM
  2
*D1
  3
ROUTEDIM
  1
0.12
 10
-2.5
 20
24.0743654608294
 30
0.0
 11
-2.5
 21
12.0371827304147
 31
0
 13
0.0
 23
23.9538799341314
 14
0.0
 24
24.0743654608294
 50
90.0
53
0
 33
0.0
 34
0.0
  0
DIMENSION
  8
2D_DIM
  2
*D1
  3
ROUTEDIM
  1
0.47
 10
-2.5
 20
24.5442127459935
 30
0.0
 11
-2.5
 21
12.2721063729968
 31
0
 13
0.0
 23
24.0743654608294
 14
0.0
 24
24.5442127459935
 50
90.0
53
0
 33
0.0
 34
0.0
  0
DIMENSION
  8
2D_DIM
  2
*D1
  3
ROUTEDIM
  1
0.081
 10
-2.5
 20
24.62498
 30
0.0
 11
-2.5
 21
12.31249
 31
0
 13
0.0
 23
24.5442127459935
 14
0.0
 24
24.62498
 50
90.0
53
0
 33
0.0
 34
0.0
  0
DIMENSION
  8
2D_DIM
  2
*D1
  3
ROUTEDIM
  1
0.04
 10
-2.5
 20
24.6646982966172
 30
0.0
 11
-2.5
 21
12.3323491483086
 31
0
 13
0.0
 23
24.62498
 14
0.0
 24
24.6646982966172
 50
90.0
53
0
 33
0.0
 34
0.0
  0
DIMENSION
  8
2D_DIM
  2
*D1
  3
ROUTEDIM
  1
0.47
 10
-2.5
 20
25.1345455578556
 30
0.0
 11
-2.5
 21
12.5672727789278
 31
0
 13
0.0
 23
24.6646982966172
 14
0.0
 24
25.1345455578556
 50
90.0
53
0
 33
0.0
 34
0.0
  0
DIMENSION
  8
2D_DIM
  2
*D1
  3
ROUTEDIM
  1
0.12
 10
-2.5
 20
25.2550311324051
 30
0.0
 11
-2.5
 21
12.6275155662026
 31
0
 13
0.0
 23
25.1345455578556
 14
0.0
 24
25.2550311324051
 50
90.0
53
0
 33
0.0
 34
0.0
  0
DIMENSION
  8
2D_DIM
  2
*D1
  3
ROUTEDIM
  1
0.47
 10
-2.5
 20
25.7248783697177
 30
0.0
 11
-2.5
 21
12.8624391848589
 31
0
 13
0.0
 23
25.2550311324051
 14
0.0
 24
25.7248783697177
 50
90.0
53
0
 33
0.0
 34
0.0
  0
DIMENSION
  8
2D_DIM
  2
*D1
  3
ROUTEDIM
  1
0.12
 10
-2.5
 20
25.8453639681929
 30
0.0
 11
-2.5
 21
12.9226819840964
 31
0
 13
0.0
 23
25.7248783697177
 14
0.0
 24
25.8453639681929
 50
90.0
53
0
 33
0.0
 34
0.0
  0
DIMENSION
  8
2D_DIM
  2
*D1
  3
ROUTEDIM
  1
0.47
 10
-2.5
 20
26.3152111815797
 30
0.0
 11
-2.5
 21
13.1576055907898
 31
0
 13
0.0
 23
25.8453639681929
 14
0.0
 24
26.3152111815797
 50
90.0
53
0
 33
0.0
 34
0.0
  0
DIMENSION
  8
2D_DIM
  2
*D1
  3
ROUTEDIM
  1
0.12
 10
-2.5
 20
26.4356968039808
 30
0.0
 11
-2.5
 21
13.2178484019904
 31
0
 13
0.0
 23
26.3152111815797
 14
0.0
 24
26.4356968039808
 50
90.0
53
0
 33
0.0
 34
0.0
  0
DIMENSION
  8
2D_DIM
  2
*D1
  3
ROUTEDIM
  1
0.47
 10
-2.5
 20
26.9055439934418
 30
0.0
 11
-2.5
 21
13.4527719967209
 31
0
 13
0.0
 23
26.4356968039808
 14
0.0
 24
26.9055439934418
 50
90.0
53
0
 33
0.0
 34
0.0
  0
DIMENSION
  8
2D_DIM
  2
*D1
  3
ROUTEDIM
  1
0.12
 10
-2.5
 20
27.0260296397686
 30
0.0
 11
-2.5
 21
13.5130148198843
 31
0
 13
0.0
 23
26.9055439934418
 14
0.0
 24
27.0260296397686
 50
90.0
53
0
 33
0.0
 34
0.0
  0
DIMENSION
  8
2D_DIM
  2
*D1
  3
ROUTEDIM
  1
0.47
 10
-2.5
 20
27.4958768053039
 30
0.0
 11
-2.5
 21
13.747938402652
 31
0
 13
0.0
 23
27.0260296397686
 14
0.0
 24
27.4958768053039
 50
90.0
53
0
 33
0.0
 34
0.0
  0
DIMENSION
  8
2D_DIM
  2
*D1
  3
ROUTEDIM
  1
0.12
 10
-2.5
 20
27.6163624755565
 30
0.0
 11
-2.5
 21
13.8081812377782
 31
0
 13
0.0
 23
27.4958768053039
 14
0.0
 24
27.6163624755565
 50
90.0
53
0
 33
0.0
 34
0.0
  0
DIMENSION
  8
2D_DIM
  2
*D1
  3
ROUTEDIM
  1
0.47
 10
-2.5
 20
28.086209617166
 30
0.0
 11
-2.5
 21
14.043104808583
 31
0
 13
0.0
 23
27.6163624755565
 14
0.0
 24
28.086209617166
 50
90.0
53
0
 33
0.0
 34
0.0
  0
DIMENSION
  8
2D_DIM
  2
*D1
  3
ROUTEDIM
  1
0.12
 10
-2.5
 20
28.2066953113443
 30
0.0
 11
-2.5
 21
14.1033476556722
 31
0
 13
0.0
 23
28.086209617166
 14
0.0
 24
28.2066953113443
 50
90.0
53
0
 33
0.0
 34
0.0
  0
DIMENSION
  8
2D_DIM
  2
*D1
  3
ROUTEDIM
  1
0.47
 10
-2.5
 20
28.6765424290281
 30
0.0
 11
-2.5
 21
14.338271214514
 31
0
 13
0.0
 23
28.2066953113443
 14
0.0
 24
28.6765424290281
 50
90.0
53
0
 33
0.0
 34
0.0
  0
DIMENSION
  8
2D_DIM
  2
*D1
  3
ROUTEDIM
  1
0.12
 10
-2.5
 20
28.7970281471322
 30
0.0
 11
-2.5
 21
14.3985140735661
 31
0
 13
0.0
 23
28.6765424290281
 14
0.0
 24
28.7970281471322
 50
90.0
53
0
 33
0.0
 34
0.0
  0
DIMENSION
  8
2D_DIM
  2
*D1
  3
ROUTEDIM
  1
0.47
 10
-2.5
 20
29.2668752408902
 30
0.0
 11
-2.5
 21
14.6334376204451
 31
0
 13
0.0
 23
28.7970281471322
 14
0.0
 24
29.2668752408902
 50
90.0
53
0
 33
0.0
 34
0.0
  0
DIMENSION
  8
2D_DIM
  2
*D1
  3
ROUTEDIM
  1
0.12
 10
-2.5
 20
29.38736098292
 30
0.0
 11
-2.5
 21
14.69368049146
 31
0
 13
0.0
 23
29.2668752408902
 14
0.0
 24
29.38736098292
 50
90.0
53
0
 33
0.0
 34
0.0
  0
DIMENSION
  8
2D_DIM
  2
*D1
  3
ROUTEDIM
  1
0.47
 10
-2.5
 20
29.8572080527523
 30
0.0
 11
-2.5
 21
14.9286040263761
 31
0
 13
0.0
 23
29.38736098292
 14
0.0
 24
29.8572080527523
 50
90.0
53
0
 33
0.0
 34
0.0
  0
DIMENSION
  8
2D_DIM
  2
*D1
  3
ROUTEDIM
  1
0.12
 10
-2.5
 20
29.9776938187078
 30
0.0
 11
-2.5
 21
14.9888469093539
 31
0
 13
0.0
 23
29.8572080527523
 14
0.0
 24
29.9776938187078
 50
90.0
53
0
 33
0.0
 34
0.0
  0
DIMENSION
  8
2D_DIM
  2
*D1
  3
ROUTEDIM
  1
0.47
 10
-2.5
 20
30.4475408646144
 30
0.0
 11
-2.5
 21
15.2237704323072
 31
0
 13
0.0
 23
29.9776938187078
 14
0.0
 24
30.4475408646144
 50
90.0
53
0
 33
0.0
 34
0.0
  0
DIMENSION
  8
2D_DIM
  2
*D1
  3
ROUTEDIM
  1
0.12
 10
-2.5
 20
30.5680266544957
 30
0.0
 11
-2.5
 21
15.2840133272479
 31
0
 13
0.0
 23
30.4475408646144
 14
0.0
 24
30.5680266544957
 50
90.0
53
0
 33
0.0
 34
0.0
  0
DIMENSION
  8
2D_DIM
  2
*D1
  3
ROUTEDIM
  1
0.47
 10
-2.5
 20
31.0378736764764
 30
0.0
 11
-2.5
 21
15.5189368382382
 31
0
 13
0.0
 23
30.5680266544957
 14
0.0
 24
31.0378736764764
 50
90.0
53
0
 33
0.0
 34
0.0
  0
DIMENSION
  8
2D_DIM
  2
*D1
  3
ROUTEDIM
  1
0.191
 10
-2.5
 20
31.2286594674878
 30
0.0
 11
-2.5
 21
15.6143297337439
 31
0
 13
0.0
 23
31.0378736764764
 14
0.0
 24
31.2286594674878
 50
90.0
53
0
 33
0.0
 34
0.0
  0
DIMENSION
  8
2D_DIM
  2
*D1
  3
ROUTEDIM
  1
0.218
 10
-2.5
 20
31.4464
 30
0.0
 11
-2.5
 21
15.7232
 31
0
 13
0.0
 23
31.2286594674878
 14
0.0
 24
31.4464
 50
90.0
53
0
 33
0.0
 34
0.0
  0
DIMENSION
  8
2D_DIM
  2
*D1
  3
ROUTEDIM
  1
0
 10
-2.5
 20
31.4464
 30
0.0
 11
-2.5
 21
15.7232
 31
0
 13
0.0
 23
31.4464
 14
0.0
 24
31.4464
 50
90.0
53
0
 33
0.0
 34
0.0
  0
DIMENSION
  8
2D_DIM
  2
*D1
  3
ROUTEDIM
  1
48.613
 10
48.6127845
 20
-8.74699017641306
 30
0.0
 11
24.30639225
 21
-8.74699017641306
 31
0.0
 13
0
 23
-8.74699017641306
 14
48.6127845
 24
-8.74699017641306
 33
0.0
 34
0.0
53
90
  0
DIMENSION
  8
2D_DIM
  2
*D1
  3
ROUTEDIM
  1
8.747
 10
48.6127845
 20
-8.74699017641306
 30
0.0
 11
48.6127845
 21
-4.37349508820653
 31
0
 13
48.6127845
 23
0
 14
48.6127845
 24
-8.74699017641306
 50
90.0
53
0
 33
0.0
 34
0.0
  0
DIMENSION
  8
2D_DIM
  2
*D1
  3
ROUTEDIM
  1
41.341
 10
41.3411200000001
 20
19.08486
 30
0.0
 11
20.67056
 21
19.08486
 31
0.0
 13
0
 23
19.08486
 14
41.3411200000001
 24
19.08486
 33
0.0
 34
0.0
53
90
  0
DIMENSION
  8
2D_DIM
  2
*D1
  3
ROUTEDIM
  1
19.085
 10
41.3411200000001
 20
19.08486
 30
0.0
 11
41.3411200000001
 21
9.54243
 31
0
 13
41.3411200000001
 23
0
 14
41.3411200000001
 24
19.08486
 50
90.0
53
0
 33
0.0
 34
0.0
  0
DIMENSION
  8
2D_DIM
  2
*D1
  3
ROUTEDIM
  1
41.341
 10
41.3411200000001
 20
19.08486
 30
0.0
 11
20.67056
 21
19.08486
 31
0.0
 13
0
 23
19.08486
 14
41.3411200000001
 24
19.08486
 33
0.0
 34
0.0
53
90
  0
DIMENSION
  8
2D_DIM
  2
*D1
  3
ROUTEDIM
  1
19.085
 10
41.3411200000001
 20
19.08486
 30
0.0
 11
41.3411200000001
 21
9.54243
 31
0
 13
41.3411200000001
 23
0
 14
41.3411200000001
 24
19.08486
 50
90.0
53
0
 33
0.0
 34
0.0
  0
DIMENSION
  8
2D_DIM
  2
*D1
  3
ROUTEDIM
  1
41.341
 10
41.3411199982638
 20
19.0848599982638
 30
0.0
 11
20.6705599991319
 21
19.0848599982638
 31
0.0
 13
0
 23
19.0848599982638
 14
41.3411199982638
 24
19.0848599982638
 33
0.0
 34
0.0
53
90
  0
DIMENSION
  8
2D_DIM
  2
*D1
  3
ROUTEDIM
  1
19.085
 10
41.3411199982638
 20
19.0848599982638
 30
0.0
 11
41.3411199982638
 21
9.5424299991319
 31
0
 13
41.3411199982638
 23
0
 14
41.3411199982638
 24
19.0848599982638
 50
90.0
53
0
 33
0.0
 34
0.0
  0
DIMENSION
  8
2D_DIM
  2
*D1
  3
ROUTEDIM
  1
41.341
 10
41.3411200017362
 20
19.0848599982638
 30
0.0
 11
20.6705600008681
 21
19.0848599982638
 31
0.0
 13
0
 23
19.0848599982638
 14
41.3411200017362
 24
19.0848599982638
 33
0.0
 34
0.0
53
90
  0
DIMENSION
  8
2D_DIM
  2
*D1
  3
ROUTEDIM
  1
19.085
 10
41.3411200017362
 20
19.0848599982638
 30
0.0
 11
41.3411200017362
 21
9.5424299991319
 31
0
 13
41.3411200017362
 23
0
 14
41.3411200017362
 24
19.0848599982638
 50
90.0
53
0
 33
0.0
 34
0.0
  0
DIMENSION
  8
2D_DIM
  2
*D1
  3
ROUTEDIM
  1
41.341
 10
41.3411200017362
 20
19.0848600017362
 30
0.0
 11
20.6705600008681
 21
19.0848600017362
 31
0.0
 13
0
 23
19.0848600017362
 14
41.3411200017362
 24
19.0848600017362
 33
0.0
 34
0.0
53
90
  0
DIMENSION
  8
2D_DIM
  2
*D1
  3
ROUTEDIM
  1
19.085
 10
41.3411200017362
 20
19.0848600017362
 30
0.0
 11
41.3411200017362
 21
9.5424300008681
 31
0
 13
41.3411200017362
 23
0
 14
41.3411200017362
 24
19.0848600017362
 50
90.0
53
0
 33
0.0
 34
0.0
  0
DIMENSION
  8
2D_DIM
  2
*D1
  3
ROUTEDIM
  1
41.373
 10
41.3732628554067
 20
19.1170028591395
 30
0.0
 11
20.6866314277033
 21
19.1170028591395
 31
0.0
 13
0
 23
19.1170028591395
 14
41.3732628554067
 24
19.1170028591395
 33
0.0
 34
0.0
53
90
  0
DIMENSION
  8
2D_DIM
  2
*D1
  3
ROUTEDIM
  1
19.117
 10
41.3732628554067
 20
19.1170028591395
 30
0.0
 11
41.3732628554067
 21
9.55850142956974
 31
0
 13
41.3732628554067
 23
0
 14
41.3732628554067
 24
19.1170028591395
 50
90.0
53
0
 33
0.0
 34
0.0
  0
DIMENSION
  8
2D_DIM
  2
*D1
  3
ROUTEDIM
  1
41.306
 10
41.3062985714286
 20
19.0939671428571
 30
0.0
 11
20.6531492857143
 21
19.0939671428571
 31
0.0
 13
0
 23
19.0939671428571
 14
41.3062985714286
 24
19.0939671428571
 33
0.0
 34
0.0
53
90
  0
DIMENSION
  8
2D_DIM
  2
*D1
  3
ROUTEDIM
  1
19.094
 10
41.3062985714286
 20
19.0939671428571
 30
0.0
 11
41.3062985714286
 21
9.54698357142857
 31
0
 13
41.3062985714286
 23
0
 14
41.3062985714286
 24
19.0939671428571
 50
90.0
53
0
 33
0.0
 34
0.0
  0
DIMENSION
  8
2D_DIM
  2
*D1
  3
ROUTEDIM
  1
41.301
 10
41.3009414285714
 20
19.0152171428571
 30
0.0
 11
20.6504707142857
 21
19.0152171428571
 31
0.0
 13
0
 23
19.0152171428571
 14
41.3009414285714
 24
19.0152171428571
 33
0.0
 34
0.0
53
90
  0
DIMENSION
  8
2D_DIM
  2
*D1
  3
ROUTEDIM
  1
19.015
 10
41.3009414285714
 20
19.0152171428571
 30
0.0
 11
41.3009414285714
 21
9.50760857142857
 31
0
 13
41.3009414285714
 23
0
 14
41.3009414285714
 24
19.0152171428571
 50
90.0
53
0
 33
0.0
 34
0.0
  0
DIMENSION
  8
2D_DIM
  2
*D1
  3
ROUTEDIM
  1
41.413
 10
41.4134414285714
 20
19.04736
 30
0.0
 11
20.7067207142857
 21
19.04736
 31
0.0
 13
0
 23
19.04736
 14
41.4134414285714
 24
19.04736
 33
0.0
 34
0.0
53
90
  0
DIMENSION
  8
2D_DIM
  2
*D1
  3
ROUTEDIM
  1
19.047
 10
41.4134414285714
 20
19.04736
 30
0.0
 11
41.4134414285714
 21
9.52368
 31
0
 13
41.4134414285714
 23
0
 14
41.4134414285714
 24
19.04736
 50
90.0
53
0
 33
0.0
 34
0.0
  0
DIMENSION
  8
2D_DIM
  2
*D1
  3
ROUTEDIM
  1
41.376
 10
41.3759414285714
 20
19.15986
 30
0.0
 11
20.6879707142857
 21
19.15986
 31
0.0
 13
0
 23
19.15986
 14
41.3759414285714
 24
19.15986
 33
0.0
 34
0.0
53
90
  0
DIMENSION
  8
2D_DIM
  2
*D1
  3
ROUTEDIM
  1
19.16
 10
41.3759414285714
 20
19.15986
 30
0.0
 11
41.3759414285714
 21
9.57993
 31
0
 13
41.3759414285714
 23
0
 14
41.3759414285714
 24
19.15986
 50
90.0
53
0
 33
0.0
 34
0.0
  0
DIMENSION
  8
2D_DIM
  2
*D1
  3
ROUTEDIM
  1
41.263
 10
41.2634414285714
 20
19.1170028571429
 30
0.0
 11
20.6317207142857
 21
19.1170028571429
 31
0.0
 13
0
 23
19.1170028571429
 14
41.2634414285714
 24
19.1170028571429
 33
0.0
 34
0.0
53
90
  0
DIMENSION
  8
2D_DIM
  2
*D1
  3
ROUTEDIM
  1
19.117
 10
41.2634414285714
 20
19.1170028571429
 30
0.0
 11
41.2634414285714
 21
9.55850142857143
 31
0
 13
41.2634414285714
 23
0
 14
41.2634414285714
 24
19.1170028571429
 50
90.0
53
0
 33
0.0
 34
0.0
  0
DIMENSION
  8
2D_DIM
  2
*D1
  3
ROUTEDIM
  1
41.312
 10
41.3116557142857
 20
19.0045028571429
 30
0.0
 11
20.6558278571429
 21
19.0045028571429
 31
0.0
 13
0
 23
19.0045028571429
 14
41.3116557142857
 24
19.0045028571429
 33
0.0
 34
0.0
53
90
  0
DIMENSION
  8
2D_DIM
  2
*D1
  3
ROUTEDIM
  1
19.005
 10
41.3116557142857
 20
19.0045028571429
 30
0.0
 11
41.3116557142857
 21
9.50225142857143
 31
0
 13
41.3116557142857
 23
0
 14
41.3116557142857
 24
19.0045028571429
 50
90.0
53
0
 33
0.0
 34
0.0
  0
DIMENSION
  8
2D_DIM
  2
*D1
  3
ROUTEDIM
  1
41.424
 10
41.4241557142857
 20
19.0580742857143
 30
0.0
 11
20.7120778571429
 21
19.0580742857143
 31
0.0
 13
0
 23
19.0580742857143
 14
41.4241557142857
 24
19.0580742857143
 33
0.0
 34
0.0
53
90
  0
DIMENSION
  8
2D_DIM
  2
*D1
  3
ROUTEDIM
  1
19.058
 10
41.4241557142857
 20
19.0580742857143
 30
0.0
 11
41.4241557142857
 21
9.52903714285714
 31
0
 13
41.4241557142857
 23
0
 14
41.4241557142857
 24
19.0580742857143
 50
90.0
53
0
 33
0.0
 34
0.0
  0
DIMENSION
  8
2D_DIM
  2
*D1
  3
ROUTEDIM
  1
41.365
 10
41.3652271428571
 20
19.1705742857143
 30
0.0
 11
20.6826135714286
 21
19.1705742857143
 31
0.0
 13
0
 23
19.1705742857143
 14
41.3652271428571
 24
19.1705742857143
 33
0.0
 34
0.0
53
90
  0
DIMENSION
  8
2D_DIM
  2
*D1
  3
ROUTEDIM
  1
19.171
 10
41.3652271428571
 20
19.1705742857143
 30
0.0
 11
41.3652271428571
 21
9.58528714285714
 31
0
 13
41.3652271428571
 23
0
 14
41.3652271428571
 24
19.1705742857143
 50
90.0
53
0
 33
0.0
 34
0.0
  0
DIMENSION
  8
2D_DIM
  2
*D1
  3
ROUTEDIM
  1
41.253
 10
41.2527271428571
 20
19.1062885714286
 30
0.0
 11
20.6263635714286
 21
19.1062885714286
 31
0.0
 13
0
 23
19.1062885714286
 14
41.2527271428571
 24
19.1062885714286
 33
0.0
 34
0.0
53
90
  0
DIMENSION
  8
2D_DIM
  2
*D1
  3
ROUTEDIM
  1
19.106
 10
41.2527271428571
 20
19.1062885714286
 30
0.0
 11
41.2527271428571
 21
9.55314428571429
 31
0
 13
41.2527271428571
 23
0
 14
41.2527271428571
 24
19.1062885714286
 50
90.0
53
0
 33
0.0
 34
0.0
  0
DIMENSION
  8
2D_DIM
  2
*D1
  3
ROUTEDIM
  1
41.322
 10
41.32237
 20
18.9937885714286
 30
0.0
 11
20.661185
 21
18.9937885714286
 31
0.0
 13
0
 23
18.9937885714286
 14
41.32237
 24
18.9937885714286
 33
0.0
 34
0.0
53
90
  0
DIMENSION
  8
2D_DIM
  2
*D1
  3
ROUTEDIM
  1
18.994
 10
41.32237
 20
18.9937885714286
 30
0.0
 11
41.32237
 21
9.49689428571429
 31
0
 13
41.32237
 23
0
 14
41.32237
 24
18.9937885714286
 50
90.0
53
0
 33
0.0
 34
0.0
  0
DIMENSION
  8
2D_DIM
  2
*D1
  3
ROUTEDIM
  1
41.435
 10
41.43487
 20
19.0687885714286
 30
0.0
 11
20.717435
 21
19.0687885714286
 31
0.0
 13
0
 23
19.0687885714286
 14
41.43487
 24
19.0687885714286
 33
0.0
 34
0.0
53
90
  0
DIMENSION
  8
2D_DIM
  2
*D1
  3
ROUTEDIM
  1
19.069
 10
41.43487
 20
19.0687885714286
 30
0.0
 11
41.43487
 21
9.53439428571429
 31
0
 13
41.43487
 23
0
 14
41.43487
 24
19.0687885714286
 50
90.0
53
0
 33
0.0
 34
0.0
  0
DIMENSION
  8
2D_DIM
  2
*D1
  3
ROUTEDIM
  1
41.355
 10
41.3545128571429
 20
19.1812885714286
 30
0.0
 11
20.6772564285714
 21
19.1812885714286
 31
0.0
 13
0
 23
19.1812885714286
 14
41.3545128571429
 24
19.1812885714286
 33
0.0
 34
0.0
53
90
  0
DIMENSION
  8
2D_DIM
  2
*D1
  3
ROUTEDIM
  1
19.181
 10
41.3545128571429
 20
19.1812885714286
 30
0.0
 11
41.3545128571429
 21
9.59064428571429
 31
0
 13
41.3545128571429
 23
0
 14
41.3545128571429
 24
19.1812885714286
 50
90.0
53
0
 33
0.0
 34
0.0
  0
DIMENSION
  8
2D_DIM
  2
*D1
  3
ROUTEDIM
  1
41.242
 10
41.2420128571428
 20
19.0955742857143
 30
0.0
 11
20.6210064285714
 21
19.0955742857143
 31
0.0
 13
0
 23
19.0955742857143
 14
41.2420128571428
 24
19.0955742857143
 33
0.0
 34
0.0
53
90
  0
DIMENSION
  8
2D_DIM
  2
*D1
  3
ROUTEDIM
  1
19.096
 10
41.2420128571428
 20
19.0955742857143
 30
0.0
 11
41.2420128571428
 21
9.54778714285714
 31
0
 13
41.2420128571428
 23
0
 14
41.2420128571428
 24
19.0955742857143
 50
90.0
53
0
 33
0.0
 34
0.0
  0
DIMENSION
  8
2D_DIM
  2
*D1
  3
ROUTEDIM
  1
41.333
 10
41.3330842857143
 20
18.9830742857143
 30
0.0
 11
20.6665421428571
 21
18.9830742857143
 31
0.0
 13
0
 23
18.9830742857143
 14
41.3330842857143
 24
18.9830742857143
 33
0.0
 34
0.0
53
90
  0
DIMENSION
  8
2D_DIM
  2
*D1
  3
ROUTEDIM
  1
18.983
 10
41.3330842857143
 20
18.9830742857143
 30
0.0
 11
41.3330842857143
 21
9.49153714285714
 31
0
 13
41.3330842857143
 23
0
 14
41.3330842857143
 24
18.9830742857143
 50
90.0
53
0
 33
0.0
 34
0.0
  0
DIMENSION
  8
2D_DIM
  2
*D1
  3
ROUTEDIM
  1
41.446
 10
41.4455842857143
 20
19.0795028571429
 30
0.0
 11
20.7227921428571
 21
19.0795028571429
 31
0.0
 13
0
 23
19.0795028571429
 14
41.4455842857143
 24
19.0795028571429
 33
0.0
 34
0.0
53
90
  0
DIMENSION
  8
2D_DIM
  2
*D1
  3
ROUTEDIM
  1
19.08
 10
41.4455842857143
 20
19.0795028571429
 30
0.0
 11
41.4455842857143
 21
9.53975142857143
 31
0
 13
41.4455842857143
 23
0
 14
41.4455842857143
 24
19.0795028571429
 50
90.0
53
0
 33
0.0
 34
0.0
  0
DIMENSION
  8
2D_DIM
  2
*D1
  3
ROUTEDIM
  1
41.344
 10
41.3437985714286
 20
19.1920028571429
 30
0.0
 11
20.6718992857143
 21
19.1920028571429
 31
0.0
 13
0
 23
19.1920028571429
 14
41.3437985714286
 24
19.1920028571429
 33
0.0
 34
0.0
53
90
  0
DIMENSION
  8
2D_DIM
  2
*D1
  3
ROUTEDIM
  1
19.192
 10
41.3437985714286
 20
19.1920028571429
 30
0.0
 11
41.3437985714286
 21
9.59600142857143
 31
0
 13
41.3437985714286
 23
0
 14
41.3437985714286
 24
19.1920028571429
 50
90.0
53
0
 33
0.0
 34
0.0
  0
DIMENSION
  8
2D_DIM
  2
*D1
  3
ROUTEDIM
  1
41.231
 10
41.2312985714286
 20
19.08486
 30
0.0
 11
20.6156492857143
 21
19.08486
 31
0.0
 13
0
 23
19.08486
 14
41.2312985714286
 24
19.08486
 33
0.0
 34
0.0
53
90
  0
DIMENSION
  8
2D_DIM
  2
*D1
  3
ROUTEDIM
  1
19.085
 10
41.2312985714286
 20
19.08486
 30
0.0
 11
41.2312985714286
 21
9.54243
 31
0
 13
41.2312985714286
 23
0
 14
41.2312985714286
 24
19.08486
 50
90.0
53
0
 33
0.0
 34
0.0
  0
DIMENSION
  8
2D_DIM
  2
*D1
  3
ROUTEDIM
  1
41.344
 10
41.3437985714286
 20
18.97236
 30
0.0
 11
20.6718992857143
 21
18.97236
 31
0.0
 13
0
 23
18.97236
 14
41.3437985714286
 24
18.97236
 33
0.0
 34
0.0
53
90
  0
DIMENSION
  8
2D_DIM
  2
*D1
  3
ROUTEDIM
  1
18.972
 10
41.3437985714286
 20
18.97236
 30
0.0
 11
41.3437985714286
 21
9.48618
 31
0
 13
41.3437985714286
 23
0
 14
41.3437985714286
 24
18.97236
 50
90.0
53
0
 33
0.0
 34
0.0
  0
DIMENSION
  8
2D_DIM
  2
*D1
  3
ROUTEDIM
  1
41.456
 10
41.4562985714286
 20
19.0902171428571
 30
0.0
 11
20.7281492857143
 21
19.0902171428571
 31
0.0
 13
0
 23
19.0902171428571
 14
41.4562985714286
 24
19.0902171428571
 33
0.0
 34
0.0
53
90
  0
DIMENSION
  8
2D_DIM
  2
*D1
  3
ROUTEDIM
  1
19.09
 10
41.4562985714286
 20
19.0902171428571
 30
0.0
 11
41.4562985714286
 21
9.54510857142857
 31
0
 13
41.4562985714286
 23
0
 14
41.4562985714286
 24
19.0902171428571
 50
90.0
53
0
 33
0.0
 34
0.0
  0
DIMENSION
  8
2D_DIM
  2
*D1
  3
ROUTEDIM
  1
41.333
 10
41.3330842857143
 20
19.2027171428571
 30
0.0
 11
20.6665421428571
 21
19.2027171428571
 31
0.0
 13
0
 23
19.2027171428571
 14
41.3330842857143
 24
19.2027171428571
 33
0.0
 34
0.0
53
90
  0
DIMENSION
  8
2D_DIM
  2
*D1
  3
ROUTEDIM
  1
19.203
 10
41.3330842857143
 20
19.2027171428571
 30
0.0
 11
41.3330842857143
 21
9.60135857142857
 31
0
 13
41.3330842857143
 23
0
 14
41.3330842857143
 24
19.2027171428571
 50
90.0
53
0
 33
0.0
 34
0.0
  0
DIMENSION
  8
2D_DIM
  2
*D1
  3
ROUTEDIM
  1
41.221
 10
41.2205842857143
 20
19.0741457142857
 30
0.0
 11
20.6102921428571
 21
19.0741457142857
 31
0.0
 13
0
 23
19.0741457142857
 14
41.2205842857143
 24
19.0741457142857
 33
0.0
 34
0.0
53
90
  0
DIMENSION
  8
2D_DIM
  2
*D1
  3
ROUTEDIM
  1
19.074
 10
41.2205842857143
 20
19.0741457142857
 30
0.0
 11
41.2205842857143
 21
9.53707285714286
 31
0
 13
41.2205842857143
 23
0
 14
41.2205842857143
 24
19.0741457142857
 50
90.0
53
0
 33
0.0
 34
0.0
  0
DIMENSION
  8
2D_DIM
  2
*D1
  3
ROUTEDIM
  1
41.355
 10
41.3545128571429
 20
18.9616457142857
 30
0.0
 11
20.6772564285714
 21
18.9616457142857
 31
0.0
 13
0
 23
18.9616457142857
 14
41.3545128571429
 24
18.9616457142857
 33
0.0
 34
0.0
53
90
  0
DIMENSION
  8
2D_DIM
  2
*D1
  3
ROUTEDIM
  1
18.962
 10
41.3545128571429
 20
18.9616457142857
 30
0.0
 11
41.3545128571429
 21
9.48082285714286
 31
0
 13
41.3545128571429
 23
0
 14
41.3545128571429
 24
18.9616457142857
 50
90.0
53
0
 33
0.0
 34
0.0
  0
DIMENSION
  8
2D_DIM
  2
*D1
  3
ROUTEDIM
  1
41.467
 10
41.4670128571428
 20
19.1009314285714
 30
0.0
 11
20.7335064285714
 21
19.1009314285714
 31
0.0
 13
0
 23
19.1009314285714
 14
41.4670128571428
 24
19.1009314285714
 33
0.0
 34
0.0
53
90
  0
DIMENSION
  8
2D_DIM
  2
*D1
  3
ROUTEDIM
  1
19.101
 10
41.4670128571428
 20
19.1009314285714
 30
0.0
 11
41.4670128571428
 21
9.55046571428571
 31
0
 13
41.4670128571428
 23
0
 14
41.4670128571428
 24
19.1009314285714
 50
90.0
53
0
 33
0.0
 34
0.0
  0
DIMENSION
  8
2D_DIM
  2
*D1
  3
ROUTEDIM
  1
41.322
 10
41.32237
 20
19.2134314285714
 30
0.0
 11
20.661185
 21
19.2134314285714
 31
0.0
 13
0
 23
19.2134314285714
 14
41.32237
 24
19.2134314285714
 33
0.0
 34
0.0
53
90
  0
DIMENSION
  8
2D_DIM
  2
*D1
  3
ROUTEDIM
  1
19.213
 10
41.32237
 20
19.2134314285714
 30
0.0
 11
41.32237
 21
9.60671571428571
 31
0
 13
41.32237
 23
0
 14
41.32237
 24
19.2134314285714
 50
90.0
53
0
 33
0.0
 34
0.0
  0
DIMENSION
  8
2D_DIM
  2
*D1
  3
ROUTEDIM
  1
41.341
 10
41.3411199878466
 20
19.0848599878466
 30
0.0
 11
20.6705599939233
 21
19.0848599878466
 31
0.0
 13
0
 23
19.0848599878466
 14
41.3411199878466
 24
19.0848599878466
 33
0.0
 34
0.0
53
90
  0
DIMENSION
  8
2D_DIM
  2
*D1
  3
ROUTEDIM
  1
19.085
 10
41.3411199878466
 20
19.0848599878466
 30
0.0
 11
41.3411199878466
 21
9.54242999392331
 31
0
 13
41.3411199878466
 23
0
 14
41.3411199878466
 24
19.0848599878466
 50
90.0
53
0
 33
0.0
 34
0.0
  0
DIMENSION
  8
2D_DIM
  2
*D1
  3
ROUTEDIM
  1
41.341
 10
41.3411200121534
 20
19.0848599878466
 30
0.0
 11
20.6705600060767
 21
19.0848599878466
 31
0.0
 13
0
 23
19.0848599878466
 14
41.3411200121534
 24
19.0848599878466
 33
0.0
 34
0.0
53
90
  0
DIMENSION
  8
2D_DIM
  2
*D1
  3
ROUTEDIM
  1
19.085
 10
41.3411200121534
 20
19.0848599878466
 30
0.0
 11
41.3411200121534
 21
9.54242999392331
 31
0
 13
41.3411200121534
 23
0
 14
41.3411200121534
 24
19.0848599878466
 50
90.0
53
0
 33
0.0
 34
0.0
  0
DIMENSION
  8
2D_DIM
  2
*D1
  3
ROUTEDIM
  1
41.341
 10
41.3411200121534
 20
19.0848600121534
 30
0.0
 11
20.6705600060767
 21
19.0848600121534
 31
0.0
 13
0
 23
19.0848600121534
 14
41.3411200121534
 24
19.0848600121534
 33
0.0
 34
0.0
53
90
  0
DIMENSION
  8
2D_DIM
  2
*D1
  3
ROUTEDIM
  1
19.085
 10
41.3411200121534
 20
19.0848600121534
 30
0.0
 11
41.3411200121534
 21
9.54243000607669
 31
0
 13
41.3411200121534
 23
0
 14
41.3411200121534
 24
19.0848600121534
 50
90.0
53
0
 33
0.0
 34
0.0
  0
DIMENSION
  8
2D_DIM
  2
*D1
  3
ROUTEDIM
  1
41.341
 10
41.3411199878466
 20
19.0848600121534
 30
0.0
 11
20.6705599939233
 21
19.0848600121534
 31
0.0
 13
0
 23
19.0848600121534
 14
41.3411199878466
 24
19.0848600121534
 33
0.0
 34
0.0
53
90
  0
DIMENSION
  8
2D_DIM
  2
*D1
  3
ROUTEDIM
  1
19.085
 10
41.3411199878466
 20
19.0848600121534
 30
0.0
 11
41.3411199878466
 21
9.54243000607669
 31
0
 13
41.3411199878466
 23
0
 14
41.3411199878466
 24
19.0848600121534
 50
90.0
53
0
 33
0.0
 34
0.0
  0
DIMENSION
  8
2D_DIM
  2
*D1
  3
ROUTEDIM
  1
41.341
 10
41.3411199878466
 20
19.0848599878466
 30
0.0
 11
20.6705599939233
 21
19.0848599878466
 31
0.0
 13
0
 23
19.0848599878466
 14
41.3411199878466
 24
19.0848599878466
 33
0.0
 34
0.0
53
90
  0
DIMENSION
  8
2D_DIM
  2
*D1
  3
ROUTEDIM
  1
19.085
 10
41.3411199878466
 20
19.0848599878466
 30
0.0
 11
41.3411199878466
 21
9.54242999392331
 31
0
 13
41.3411199878466
 23
0
 14
41.3411199878466
 24
19.0848599878466
 50
90.0
53
0
 33
0.0
 34
0.0
  0
DIMENSION
  8
2D_DIM
  2
*D1
  3
ROUTEDIM
  1
41.395
 10
41.3946914407248
 20
19.1384314168521
 30
0.0
 11
20.6973457203624
 21
19.1384314168521
 31
0.0
 13
0
 23
19.1384314168521
 14
41.3946914407248
 24
19.1384314168521
 33
0.0
 34
0.0
53
90
  0
DIMENSION
  8
2D_DIM
  2
*D1
  3
ROUTEDIM
  1
19.138
 10
41.3946914407248
 20
19.1384314168521
 30
0.0
 11
41.3946914407248
 21
9.56921570842605
 31
0
 13
41.3946914407248
 23
0
 14
41.3946914407248
 24
19.1384314168521
 50
90.0
53
0
 33
0.0
 34
0.0
  0
TEXT
  8
ITEMNUMBER
 62
     1
 10
-7.5
 20
-5
 30
0.0
 40
0.5
  1
M3100.10
  0
TEXT
  8
DESCRIPTION
 62
     1
 10
-7.5
 20
-6
 30
0.0
 40
0.5
  1
P4B
  0
TEXT
  8
FILENAME
 62
     1
 10
-7.5
 20
-7
 30
0.0
 40
0.5
  1
5600AE0E
  0
TEXT
  8
MATERIALNAME
 62
     1
 10
-7.5
 20
-8
 30
0.0
 40
0.5
  1
PLY/3-4OSB/NAF/4x8
  0
TEXT
  8
Qty
 62
     1
 10
-7.5
 20
-9
 30
0.0
 40
0.5
  1
1
  0
TEXT
  8
COMMENT
 62
     1
 10
-7.5
 20
-9
 30
0.0
 40
0.5
  1
A machining operation has been identified but none of the SMA Routers in your Primary ToolFile have a qualifying diameter   
  0
TEXT
  8
RUNFIELD
 62
     1
 10
8
 20
-1
 30
0.0
 40
0.5
  1
Mirrored
  0
ENDSEC
  0
EOF
