  0
SECTION
  2
TABLES
  0
TABLE
  2
DIMSTYLE
 70
     2
  0
DIMSTYLE
  2
BOARDERDIM
 70
     0
  3

  4

  5
_NONE
  6
_NONE
  7
_NONE
 40
1
 41
0.1
 42
0.0625
 43
0.38
 44
0.18
 45
0.00
 46
0.0
 47
0.0
 48
0.0
140
0.5
141
0.09
142
0.0
143
25.399999999999999
144
1.0
145
0.5
146
1.0
147
0.09
 71
     1
 72
     0
 73
     1
 74
     0
 75
     0
 76
     0
 77
     2
 78
     0
170
     0
171
     2
172
     0
173
     0
174
     1
175
      0
176
5
177
5
178
     1
271
3
272
3
  0
ENDTAB
  0
TABLE
  2
DIMSTYLE
 70
     2
  0
DIMSTYLE
  2
VDRILLDIM
 70
     0
  3

  4

  5
_NONE
  6
_NONE
  7
_NONE
 40
1
 41
0.1
 42
0.0625
 43
0.38
 44
0.18
 45
0.00
 46
0.0
 47
0.0
 48
0.0
140
0.5
141
0.09
142
0.0
143
25.399999999999999
144
1.0
145
0.5
146
1.0
147
0.09
 71
     1
 72
     0
 73
     1
 74
     0
 75
     0
 76
     0
 77
     2
 78
     0
170
     0
171
     2
172
     0
173
     0
174
     1
175
      0
176
5
177
5
178
     1
271
3
272
3
  0
ENDTAB
  0
TABLE
  2
DIMSTYLE
 70
     2
  0
DIMSTYLE
  2
HDRILLDIM
 70
     0
  3

  4

  5
_NONE
  6
_NONE
  7
_NONE
 40
1
 41
0.1
 42
0.0625
 43
0.38
 44
0.18
 45
0.00
 46
0.0
 47
0.0
 48
0.0
140
0.5
141
0.09
142
0.0
143
25.399999999999999
144
1.0
145
0.5
146
1.0
147
0.09
 71
     1
 72
     0
 73
     1
 74
     0
 75
     0
 76
     0
 77
     2
 78
     0
170
     0
171
     2
172
     0
173
     0
174
     1
175
      0
176
5
177
5
178
     1
271
3
272
3
  0
ENDTAB
  0
TABLE
  2
DIMSTYLE
 70
     2
  0
DIMSTYLE
  2
ROUTEDIM
 70
     0
  3

  4

  5
_NONE
  6
_NONE
  7
_NONE
 40
1
 41
0.1
 42
0.0625
 43
0.38
 44
0.18
 45
0.00
 46
0.0
 47
0.0
 48
0.0
140
0.5
141
0.09
142
0.0
143
25.399999999999999
144
1.0
145
0.5
146
1.0
147
0.09
 71
     1
 72
     0
 73
     1
 74
     0
 75
     0
 76
     0
 77
     2
 78
     0
170
     0
171
     2
172
     0
173
     0
174
     1
175
      0
176
5
177
5
178
     1
271
3
272
3
  0
ENDTAB
  0
TABLE
  2
DIMSTYLE
 70
     2
  0
DIMSTYLE
  2
SAWDIM
 70
     0
  3

  4

  5
_NONE
  6
_NONE
  7
_NONE
 40
1
 41
0.1
 42
0.0625
 43
0.38
 44
0.18
 45
0.00
 46
0.0
 47
0.0
 48
0.0
140
0.5
141
0.09
142
0.0
143
25.399999999999999
144
1.0
145
0.5
146
1.0
147
0.09
 71
     1
 72
     0
 73
     1
 74
     0
 75
     0
 76
     0
 77
     2
 78
     0
170
     0
171
     2
172
     0
173
     0
174
     1
175
      0
176
5
177
5
178
     1
271
3
272
3
  0
ENDTAB
  0
TABLE
  2
VPORT
 70
     1
  0
VPORT
  2
*ACTIVE
 70
     0
 10
0.0
 20
0.0
 11
1.0
 21
1.0
 12
0.0
 22
0.0
 13
0.0
 23
0.0
 14
1.0
 24
1.0
 15
0.0
 25
0.0
 16
0.0
 26
0.0
 36
1.0
 17
0.0
 27
0.0
 37
0.0
 40
84
 41
2.0
 42
50.0
 43
0.0
 44
0.0
 50
0.0
 51
0.0
 71
     0
 72
   100
 73
     1
 74
     0
 75
     1
 76
     0
 77
     0
 78
     0
  0
ENDTAB
  0
ENDSEC
  0
SECTION
  2
ENTITIES
  0
POLYLINE
  8
BORDER_Z0P04
 62
     7
 66
     1
 10
0.0
 20
0.0
 30
0.0
 70
     1
  0
VERTEX
  8
BORDER_Z0P04
 62
     7
 10
0.0
 20
0.0
 30
0.0
  0
VERTEX
  8
BORDER_Z0P04
 62
     7
 10
0.0
 20
25.0825
 30
0.0
  0
VERTEX
  8
BORDER_Z0P04
 62
     7
 10
8.8504
 20
25.0825
 30
0.0
  0
VERTEX
  8
BORDER_Z0P04
 62
     7
 10
8.8504
 20
0.0
 30
0.0
  0
SEQEND
  8
BORDER_Z0P04
 62
     7
  0
POLYLINE
  8
ROUTE_Z0P25LT130RAMP
 62
     3
 66
     1
 10
0.0
 20
0.0
 30
0.0
 70
     0
  0
VERTEX
  8
ROUTE_Z0P25LT130RAMP
 62
     3
 10
0.395606
 20
11.055265
 30
0.0
 42
0.414213562373095
  0
VERTEX
  8
ROUTE_Z0P25LT130RAMP
 62
     3
 10
0.613576
 20
11.419256
 30
0.0
 42
-0.172944659281178
  0
VERTEX
  8
ROUTE_Z0P25LT130RAMP
 62
     3
 10
1.938488
 20
25.0825
 30
0.0
  0
VERTEX
  8
ROUTE_Z0P25LT130RAMP
 62
     3
 10
2.887861
 20
24.455932
 30
0.0
 42
0.353242177000713
  0
VERTEX
  8
ROUTE_Z0P25LT130RAMP
 62
     3
 10
8.852674
 20
0.940503
 30
0.0
  0
VERTEX
  8
ROUTE_Z0P25LT130RAMP
 62
     3
 10
8.231937
 20
-3.50000000004513E-05
 30
0.0
 42
-0.172944659281178
  0
VERTEX
  8
ROUTE_Z0P25LT130RAMP
 62
     3
 10
0.613576
 20
11.419256
 30
0.0
  0
SEQEND
  8
ROUTE_Z0P25LT130RAMP
 62
     3
  0
DIMENSION
  8
2D_DIM
  2
*D1
  3
BOARDERDIM
  1
8.85
 10
8.8504
 20
30.0825
 30
0.0
 11
4.4252
 21
30.0825
 31
0.0
 13
0
 23
25.0825
 14
8.8504
 24
25.0825
 33
0.0
 34
0.0
53
0
  0
DIMENSION
  8
2D_DIM
  2
*D1
  3
BOARDERDIM
  1
25.082
 10
-5
 20
25.0825
 30
0.0
 11
-5
 21
12.54125
 31
0
 13
0.0
 23
0
 14
0.0
 24
25.0825
 50
90.0
53
0
 33
0.0
 34
0.0
  0
DIMENSION
  8
2D_DIM
  2
*D1
  3
ROUTEDIM
  1
0.396
 10
0.395606
 20
27.5825
 30
0.0
 11
0.197803
 21
27.5825
 31
0.0
 13
0
 23
25.0825
 14
0.395606
 24
25.0825
 33
0.0
 34
0.0
53
90
  0
DIMENSION
  8
2D_DIM
  2
*D1
  3
ROUTEDIM
  1
0.218
 10
0.613576
 20
27.5825
 30
0.0
 11
0.306788
 21
27.5825
 31
0.0
 13
0.395606
 23
25.0825
 14
0.613576
 24
25.0825
 33
0.0
 34
0.0
53
90
  0
DIMENSION
  8
2D_DIM
  2
*D1
  3
ROUTEDIM
  1
1.325
 10
1.938488
 20
27.5825
 30
0.0
 11
0.969244
 21
27.5825
 31
0.0
 13
0.613576
 23
25.0825
 14
1.938488
 24
25.0825
 33
0.0
 34
0.0
53
90
  0
DIMENSION
  8
2D_DIM
  2
*D1
  3
ROUTEDIM
  1
0.949
 10
2.887861
 20
27.5825
 30
0.0
 11
1.4439305
 21
27.5825
 31
0.0
 13
1.938488
 23
25.0825
 14
2.887861
 24
25.0825
 33
0.0
 34
0.0
53
90
  0
DIMENSION
  8
2D_DIM
  2
*D1
  3
ROUTEDIM
  1
5.344
 10
8.231937
 20
27.5825
 30
0.0
 11
4.1159685
 21
27.5825
 31
0.0
 13
2.887861
 23
25.0825
 14
8.231937
 24
25.0825
 33
0.0
 34
0.0
53
90
  0
DIMENSION
  8
2D_DIM
  2
*D1
  3
ROUTEDIM
  1
0.621
 10
8.852674
 20
27.5825
 30
0.0
 11
4.426337
 21
27.5825
 31
0.0
 13
8.231937
 23
25.0825
 14
8.852674
 24
25.0825
 33
0.0
 34
0.0
53
90
  0
DIMENSION
  8
2D_DIM
  2
*D1
  3
ROUTEDIM
  1
-0.002
 10
8.8504
 20
27.5825
 30
0.0
 11
4.4252
 21
27.5825
 31
0.0
 13
8.852674
 23
25.0825
 14
8.8504
 24
25.0825
 33
0.0
 34
0.0
53
90
  0
DIMENSION
  8
2D_DIM
  2
*D1
  3
ROUTEDIM
  1
0
 10
-2.5
 20
-3.50000000004513E-05
 30
0.0
 11
-2.5
 21
-1.75000000002257E-05
 31
0
 13
0.0
 23
0
 14
0.0
 24
-3.50000000004513E-05
 50
90.0
53
0
 33
0.0
 34
0.0
  0
DIMENSION
  8
2D_DIM
  2
*D1
  3
ROUTEDIM
  1
0.941
 10
-2.5
 20
0.940503
 30
0.0
 11
-2.5
 21
0.4702515
 31
0
 13
0.0
 23
-3.50000000004513E-05
 14
0.0
 24
0.940503
 50
90.0
53
0
 33
0.0
 34
0.0
  0
DIMENSION
  8
2D_DIM
  2
*D1
  3
ROUTEDIM
  1
10.115
 10
-2.5
 20
11.055265
 30
0.0
 11
-2.5
 21
5.5276325
 31
0
 13
0.0
 23
0.940503
 14
0.0
 24
11.055265
 50
90.0
53
0
 33
0.0
 34
0.0
  0
DIMENSION
  8
2D_DIM
  2
*D1
  3
ROUTEDIM
  1
0.364
 10
-2.5
 20
11.419256
 30
0.0
 11
-2.5
 21
5.709628
 31
0
 13
0.0
 23
11.055265
 14
0.0
 24
11.419256
 50
90.0
53
0
 33
0.0
 34
0.0
  0
DIMENSION
  8
2D_DIM
  2
*D1
  3
ROUTEDIM
  1
13.037
 10
-2.5
 20
24.455932
 30
0.0
 11
-2.5
 21
12.227966
 31
0
 13
0.0
 23
11.419256
 14
0.0
 24
24.455932
 50
90.0
53
0
 33
0.0
 34
0.0
  0
DIMENSION
  8
2D_DIM
  2
*D1
  3
ROUTEDIM
  1
0.627
 10
-2.5
 20
25.0825
 30
0.0
 11
-2.5
 21
12.54125
 31
0
 13
0.0
 23
24.455932
 14
0.0
 24
25.0825
 50
90.0
53
0
 33
0.0
 34
0.0
  0
DIMENSION
  8
2D_DIM
  2
*D1
  3
ROUTEDIM
  1
0
 10
-2.5
 20
25.0825
 30
0.0
 11
-2.5
 21
12.54125
 31
0
 13
0.0
 23
25.0825
 14
0.0
 24
25.0825
 50
90.0
53
0
 33
0.0
 34
0.0
  0
DIMENSION
  8
2D_DIM
  2
*D1
  3
ROUTEDIM
  1
0.323
 10
0.322595500000001
 20
11.3462455
 30
0.0
 11
0.16129775
 21
11.3462455
 31
0.0
 13
0
 23
11.3462455
 14
0.322595500000001
 24
11.3462455
 33
0.0
 34
0.0
53
90
  0
DIMENSION
  8
2D_DIM
  2
*D1
  3
ROUTEDIM
  1
11.346
 10
0.322595500000001
 20
11.3462455
 30
0.0
 11
0.322595500000001
 21
5.67312275
 31
0
 13
0.322595500000001
 23
0
 14
0.322595500000001
 24
11.3462455
 50
90.0
53
0
 33
0.0
 34
0.0
  0
DIMENSION
  8
2D_DIM
  2
*D1
  3
ROUTEDIM
  1
20.436
 10
20.4361760684053
 20
16.3929367381767
 30
0.0
 11
10.2180880342027
 21
16.3929367381767
 31
0.0
 13
0
 23
16.3929367381767
 14
20.4361760684053
 24
16.3929367381767
 33
0.0
 34
0.0
53
90
  0
DIMENSION
  8
2D_DIM
  2
*D1
  3
ROUTEDIM
  1
16.393
 10
20.4361760684053
 20
16.3929367381767
 30
0.0
 11
20.4361760684053
 21
8.19646836908837
 31
0
 13
20.4361760684053
 23
0
 14
20.4361760684053
 24
16.3929367381767
 50
90.0
53
0
 33
0.0
 34
0.0
  0
DIMENSION
  8
2D_DIM
  2
*D1
  3
ROUTEDIM
  1
20.436
 10
20.4361760126054
 20
16.3929372711255
 30
0.0
 11
10.2180880063027
 21
16.3929372711255
 31
0.0
 13
0
 23
16.3929372711255
 14
20.4361760126054
 24
16.3929372711255
 33
0.0
 34
0.0
53
90
  0
DIMENSION
  8
2D_DIM
  2
*D1
  3
ROUTEDIM
  1
16.393
 10
20.4361760126054
 20
16.3929372711255
 30
0.0
 11
20.4361760126054
 21
8.19646863556277
 31
0
 13
20.4361760126054
 23
0
 14
20.4361760126054
 24
16.3929372711255
 50
90.0
53
0
 33
0.0
 34
0.0
  0
DIMENSION
  8
2D_DIM
  2
*D1
  3
ROUTEDIM
  1
20.436
 10
20.436176206114
 20
16.3929368260995
 30
0.0
 11
10.218088103057
 21
16.3929368260995
 31
0.0
 13
0
 23
16.3929368260995
 14
20.436176206114
 24
16.3929368260995
 33
0.0
 34
0.0
53
90
  0
DIMENSION
  8
2D_DIM
  2
*D1
  3
ROUTEDIM
  1
16.393
 10
20.436176206114
 20
16.3929368260995
 30
0.0
 11
20.436176206114
 21
8.19646841304973
 31
0
 13
20.436176206114
 23
0
 14
20.436176206114
 24
16.3929368260995
 50
90.0
53
0
 33
0.0
 34
0.0
  0
TEXT
  8
ITEMNUMBER
 62
     1
 10
-7.5
 20
-5
 30
0.0
 40
0.5
  1
T31106.24
  0
TEXT
  8
DESCRIPTION
 62
     1
 10
-7.5
 20
-6
 30
0.0
 40
0.5
  1
P2B 4.2
  0
TEXT
  8
FILENAME
 62
     1
 10
-7.5
 20
-7
 30
0.0
 40
0.5
  1
5600AE6K
  0
TEXT
  8
MATERIALNAME
 62
     1
 10
-7.5
 20
-8
 30
0.0
 40
0.5
  1
AB425SEI-PF/4x10
  0
TEXT
  8
Qty
 62
     1
 10
-7.5
 20
-9
 30
0.0
 40
0.5
  1
1
  0
TEXT
  8
RUNFIELD
 62
     1
 10
8
 20
-1
 30
0.0
 40
0.5
  1
Mirrored
  0
ENDSEC
  0
EOF
