  0
SECTION
  2
TABLES
  0
TABLE
  2
DIMSTYLE
 70
     2
  0
DIMSTYLE
  2
BOARDERDIM
 70
     0
  3

  4

  5
_NONE
  6
_NONE
  7
_NONE
 40
1
 41
0.1
 42
0.0625
 43
0.38
 44
0.18
 45
0.00
 46
0.0
 47
0.0
 48
0.0
140
0.5
141
0.09
142
0.0
143
25.399999999999999
144
1.0
145
0.5
146
1.0
147
0.09
 71
     1
 72
     0
 73
     1
 74
     0
 75
     0
 76
     0
 77
     2
 78
     0
170
     0
171
     2
172
     0
173
     0
174
     1
175
      0
176
5
177
5
178
     1
271
3
272
3
  0
ENDTAB
  0
TABLE
  2
DIMSTYLE
 70
     2
  0
DIMSTYLE
  2
VDRILLDIM
 70
     0
  3

  4

  5
_NONE
  6
_NONE
  7
_NONE
 40
1
 41
0.1
 42
0.0625
 43
0.38
 44
0.18
 45
0.00
 46
0.0
 47
0.0
 48
0.0
140
0.5
141
0.09
142
0.0
143
25.399999999999999
144
1.0
145
0.5
146
1.0
147
0.09
 71
     1
 72
     0
 73
     1
 74
     0
 75
     0
 76
     0
 77
     2
 78
     0
170
     0
171
     2
172
     0
173
     0
174
     1
175
      0
176
5
177
5
178
     1
271
3
272
3
  0
ENDTAB
  0
TABLE
  2
DIMSTYLE
 70
     2
  0
DIMSTYLE
  2
HDRILLDIM
 70
     0
  3

  4

  5
_NONE
  6
_NONE
  7
_NONE
 40
1
 41
0.1
 42
0.0625
 43
0.38
 44
0.18
 45
0.00
 46
0.0
 47
0.0
 48
0.0
140
0.5
141
0.09
142
0.0
143
25.399999999999999
144
1.0
145
0.5
146
1.0
147
0.09
 71
     1
 72
     0
 73
     1
 74
     0
 75
     0
 76
     0
 77
     2
 78
     0
170
     0
171
     2
172
     0
173
     0
174
     1
175
      0
176
5
177
5
178
     1
271
3
272
3
  0
ENDTAB
  0
TABLE
  2
DIMSTYLE
 70
     2
  0
DIMSTYLE
  2
ROUTEDIM
 70
     0
  3

  4

  5
_NONE
  6
_NONE
  7
_NONE
 40
1
 41
0.1
 42
0.0625
 43
0.38
 44
0.18
 45
0.00
 46
0.0
 47
0.0
 48
0.0
140
0.5
141
0.09
142
0.0
143
25.399999999999999
144
1.0
145
0.5
146
1.0
147
0.09
 71
     1
 72
     0
 73
     1
 74
     0
 75
     0
 76
     0
 77
     2
 78
     0
170
     0
171
     2
172
     0
173
     0
174
     1
175
      0
176
5
177
5
178
     1
271
3
272
3
  0
ENDTAB
  0
TABLE
  2
DIMSTYLE
 70
     2
  0
DIMSTYLE
  2
SAWDIM
 70
     0
  3

  4

  5
_NONE
  6
_NONE
  7
_NONE
 40
1
 41
0.1
 42
0.0625
 43
0.38
 44
0.18
 45
0.00
 46
0.0
 47
0.0
 48
0.0
140
0.5
141
0.09
142
0.0
143
25.399999999999999
144
1.0
145
0.5
146
1.0
147
0.09
 71
     1
 72
     0
 73
     1
 74
     0
 75
     0
 76
     0
 77
     2
 78
     0
170
     0
171
     2
172
     0
173
     0
174
     1
175
      0
176
5
177
5
178
     1
271
3
272
3
  0
ENDTAB
  0
TABLE
  2
VPORT
 70
     1
  0
VPORT
  2
*ACTIVE
 70
     0
 10
0.0
 20
0.0
 11
1.0
 21
1.0
 12
0.0
 22
0.0
 13
0.0
 23
0.0
 14
1.0
 24
1.0
 15
0.0
 25
0.0
 16
0.0
 26
0.0
 36
1.0
 17
0.0
 27
0.0
 37
0.0
 40
84
 41
2.0
 42
50.0
 43
0.0
 44
0.0
 50
0.0
 51
0.0
 71
     0
 72
   100
 73
     1
 74
     0
 75
     1
 76
     0
 77
     0
 78
     0
  0
ENDTAB
  0
ENDSEC
  0
SECTION
  2
ENTITIES
  0
POLYLINE
  8
BORDER_Z0P75
 62
     7
 66
     1
 10
0.0
 20
0.0
 30
0.0
 70
     1
  0
VERTEX
  8
BORDER_Z0P75
 62
     7
 10
0.0
 20
0.0
 30
0.0
  0
VERTEX
  8
BORDER_Z0P75
 62
     7
 10
0.0
 20
18
 30
0.0
  0
VERTEX
  8
BORDER_Z0P75
 62
     7
 10
16.5
 20
18
 30
0.0
  0
VERTEX
  8
BORDER_Z0P75
 62
     7
 10
16.5
 20
0.0
 30
0.0
  0
SEQEND
  8
BORDER_Z0P75
 62
     7
  0
POLYLINE
  8
HBORE_Z0P375
 62
     4
 66
     1
 10
0.0
 20
0.0
 30
0.0
 70
     1
  0
VERTEX
  8
HBORE_Z0P375
 62
     4
 10
0
 20
16.89764
 30
0.0
  0
VERTEX
  8
HBORE_Z0P375
 62
     4
 10
0.8268
 20
16.89764
 30
0.0
  0
VERTEX
  8
HBORE_Z0P375
 62
     4
 10
0.8268
 20
16.58268
 30
0.0
  0
VERTEX
  8
HBORE_Z0P375
 62
     4
 10
0
 20
16.58268
 30
0.0
  0
SEQEND
  8
HBORE_Z0P375
 62
     4
  0
POLYLINE
  8
HBORE_Z0P375
 62
     4
 66
     1
 10
0.0
 20
0.0
 30
0.0
 70
     1
  0
VERTEX
  8
HBORE_Z0P375
 62
     4
 10
0
 20
13.840946
 30
0.0
  0
VERTEX
  8
HBORE_Z0P375
 62
     4
 10
0.8268
 20
13.840946
 30
0.0
  0
VERTEX
  8
HBORE_Z0P375
 62
     4
 10
0.8268
 20
13.525986
 30
0.0
  0
VERTEX
  8
HBORE_Z0P375
 62
     4
 10
0
 20
13.525986
 30
0.0
  0
SEQEND
  8
HBORE_Z0P375
 62
     4
  0
POLYLINE
  8
HBORE_Z0P375
 62
     4
 66
     1
 10
0.0
 20
0.0
 30
0.0
 70
     1
  0
VERTEX
  8
HBORE_Z0P375
 62
     4
 10
0
 20
10.784252
 30
0.0
  0
VERTEX
  8
HBORE_Z0P375
 62
     4
 10
0.8268
 20
10.784252
 30
0.0
  0
VERTEX
  8
HBORE_Z0P375
 62
     4
 10
0.8268
 20
10.469292
 30
0.0
  0
VERTEX
  8
HBORE_Z0P375
 62
     4
 10
0
 20
10.469292
 30
0.0
  0
SEQEND
  8
HBORE_Z0P375
 62
     4
  0
POLYLINE
  8
HBORE_Z0P375
 62
     4
 66
     1
 10
0.0
 20
0.0
 30
0.0
 70
     1
  0
VERTEX
  8
HBORE_Z0P375
 62
     4
 10
0
 20
7.727558
 30
0.0
  0
VERTEX
  8
HBORE_Z0P375
 62
     4
 10
0.8268
 20
7.727558
 30
0.0
  0
VERTEX
  8
HBORE_Z0P375
 62
     4
 10
0.8268
 20
7.412598
 30
0.0
  0
VERTEX
  8
HBORE_Z0P375
 62
     4
 10
0
 20
7.412598
 30
0.0
  0
SEQEND
  8
HBORE_Z0P375
 62
     4
  0
POLYLINE
  8
HBORE_Z0P375
 62
     4
 66
     1
 10
0.0
 20
0.0
 30
0.0
 70
     1
  0
VERTEX
  8
HBORE_Z0P375
 62
     4
 10
0
 20
4.670864
 30
0.0
  0
VERTEX
  8
HBORE_Z0P375
 62
     4
 10
0.8268
 20
4.670864
 30
0.0
  0
VERTEX
  8
HBORE_Z0P375
 62
     4
 10
0.8268
 20
4.355904
 30
0.0
  0
VERTEX
  8
HBORE_Z0P375
 62
     4
 10
0
 20
4.355904
 30
0.0
  0
SEQEND
  8
HBORE_Z0P375
 62
     4
  0
POLYLINE
  8
HBORE_Z0P375
 62
     4
 66
     1
 10
0.0
 20
0.0
 30
0.0
 70
     1
  0
VERTEX
  8
HBORE_Z0P375
 62
     4
 10
0
 20
1.61417
 30
0.0
  0
VERTEX
  8
HBORE_Z0P375
 62
     4
 10
0.8268
 20
1.61417
 30
0.0
  0
VERTEX
  8
HBORE_Z0P375
 62
     4
 10
0.8268
 20
1.29921
 30
0.0
  0
VERTEX
  8
HBORE_Z0P375
 62
     4
 10
0
 20
1.29921
 30
0.0
  0
SEQEND
  8
HBORE_Z0P375
 62
     4
  0
POLYLINE
  8
HBORE_Z0P375
 62
     4
 66
     1
 10
0.0
 20
0.0
 30
0.0
 70
     1
  0
VERTEX
  8
HBORE_Z0P375
 62
     4
 10
16.5
 20
16.89764
 30
0.0
  0
VERTEX
  8
HBORE_Z0P375
 62
     4
 10
15.6732
 20
16.89764
 30
0.0
  0
VERTEX
  8
HBORE_Z0P375
 62
     4
 10
15.6732
 20
16.58268
 30
0.0
  0
VERTEX
  8
HBORE_Z0P375
 62
     4
 10
16.5
 20
16.58268
 30
0.0
  0
SEQEND
  8
HBORE_Z0P375
 62
     4
  0
POLYLINE
  8
HBORE_Z0P375
 62
     4
 66
     1
 10
0.0
 20
0.0
 30
0.0
 70
     1
  0
VERTEX
  8
HBORE_Z0P375
 62
     4
 10
16.5
 20
13.840946
 30
0.0
  0
VERTEX
  8
HBORE_Z0P375
 62
     4
 10
15.6732
 20
13.840946
 30
0.0
  0
VERTEX
  8
HBORE_Z0P375
 62
     4
 10
15.6732
 20
13.525986
 30
0.0
  0
VERTEX
  8
HBORE_Z0P375
 62
     4
 10
16.5
 20
13.525986
 30
0.0
  0
SEQEND
  8
HBORE_Z0P375
 62
     4
  0
POLYLINE
  8
HBORE_Z0P375
 62
     4
 66
     1
 10
0.0
 20
0.0
 30
0.0
 70
     1
  0
VERTEX
  8
HBORE_Z0P375
 62
     4
 10
16.5
 20
10.784252
 30
0.0
  0
VERTEX
  8
HBORE_Z0P375
 62
     4
 10
15.6732
 20
10.784252
 30
0.0
  0
VERTEX
  8
HBORE_Z0P375
 62
     4
 10
15.6732
 20
10.469292
 30
0.0
  0
VERTEX
  8
HBORE_Z0P375
 62
     4
 10
16.5
 20
10.469292
 30
0.0
  0
SEQEND
  8
HBORE_Z0P375
 62
     4
  0
POLYLINE
  8
HBORE_Z0P375
 62
     4
 66
     1
 10
0.0
 20
0.0
 30
0.0
 70
     1
  0
VERTEX
  8
HBORE_Z0P375
 62
     4
 10
16.5
 20
7.727558
 30
0.0
  0
VERTEX
  8
HBORE_Z0P375
 62
     4
 10
15.6732
 20
7.727558
 30
0.0
  0
VERTEX
  8
HBORE_Z0P375
 62
     4
 10
15.6732
 20
7.412598
 30
0.0
  0
VERTEX
  8
HBORE_Z0P375
 62
     4
 10
16.5
 20
7.412598
 30
0.0
  0
SEQEND
  8
HBORE_Z0P375
 62
     4
  0
POLYLINE
  8
HBORE_Z0P375
 62
     4
 66
     1
 10
0.0
 20
0.0
 30
0.0
 70
     1
  0
VERTEX
  8
HBORE_Z0P375
 62
     4
 10
16.5
 20
4.670864
 30
0.0
  0
VERTEX
  8
HBORE_Z0P375
 62
     4
 10
15.6732
 20
4.670864
 30
0.0
  0
VERTEX
  8
HBORE_Z0P375
 62
     4
 10
15.6732
 20
4.355904
 30
0.0
  0
VERTEX
  8
HBORE_Z0P375
 62
     4
 10
16.5
 20
4.355904
 30
0.0
  0
SEQEND
  8
HBORE_Z0P375
 62
     4
  0
POLYLINE
  8
HBORE_Z0P375
 62
     4
 66
     1
 10
0.0
 20
0.0
 30
0.0
 70
     1
  0
VERTEX
  8
HBORE_Z0P375
 62
     4
 10
16.5
 20
1.61417
 30
0.0
  0
VERTEX
  8
HBORE_Z0P375
 62
     4
 10
15.6732
 20
1.61417
 30
0.0
  0
VERTEX
  8
HBORE_Z0P375
 62
     4
 10
15.6732
 20
1.29921
 30
0.0
  0
VERTEX
  8
HBORE_Z0P375
 62
     4
 10
16.5
 20
1.29921
 30
0.0
  0
SEQEND
  8
HBORE_Z0P375
 62
     4
  0
DIMENSION
  8
2D_DIM
  2
*D1
  3
BOARDERDIM
  1
16.5
 10
16.5
 20
23
 30
0.0
 11
8.25
 21
23
 31
0.0
 13
0
 23
18
 14
16.5
 24
18
 33
0.0
 34
0.0
53
0
  0
DIMENSION
  8
2D_DIM
  2
*D1
  3
BOARDERDIM
  1
18
 10
-5
 20
18
 30
0.0
 11
-5
 21
9
 31
0
 13
0.0
 23
0
 14
0.0
 24
18
 50
90.0
53
0
 33
0.0
 34
0.0
  0
DIMENSION
  8
2D_DIM
  2
*D1
  3
HDRILLDIM
  1
1.457
 10
19
 20
1.45669
 30
0.0
 11
19
 21
0.728345
 31
0
 13
16.5
 23
0
 14
16.5
 24
1.45669
 50
90.0
53
0
 33
0.0
 34
0.0
  0
DIMENSION
  8
2D_DIM
  2
*D1
  3
HDRILLDIM
  1
3.057
 10
19
 20
4.513384
 30
0.0
 11
19
 21
2.256692
 31
0
 13
16.5
 23
1.45669
 14
16.5
 24
4.513384
 50
90.0
53
0
 33
0.0
 34
0.0
  0
DIMENSION
  8
2D_DIM
  2
*D1
  3
HDRILLDIM
  1
3.057
 10
19
 20
7.570078
 30
0.0
 11
19
 21
3.785039
 31
0
 13
16.5
 23
4.513384
 14
16.5
 24
7.570078
 50
90.0
53
0
 33
0.0
 34
0.0
  0
DIMENSION
  8
2D_DIM
  2
*D1
  3
HDRILLDIM
  1
3.057
 10
19
 20
10.626772
 30
0.0
 11
19
 21
5.313386
 31
0
 13
16.5
 23
7.570078
 14
16.5
 24
10.626772
 50
90.0
53
0
 33
0.0
 34
0.0
  0
DIMENSION
  8
2D_DIM
  2
*D1
  3
HDRILLDIM
  1
3.057
 10
19
 20
13.683466
 30
0.0
 11
19
 21
6.841733
 31
0
 13
16.5
 23
10.626772
 14
16.5
 24
13.683466
 50
90.0
53
0
 33
0.0
 34
0.0
  0
DIMENSION
  8
2D_DIM
  2
*D1
  3
HDRILLDIM
  1
3.057
 10
19
 20
16.74016
 30
0.0
 11
19
 21
8.37008
 31
0
 13
16.5
 23
13.683466
 14
16.5
 24
16.74016
 50
90.0
53
0
 33
0.0
 34
0.0
  0
DIMENSION
  8
2D_DIM
  2
*D1
  3
HDRILLDIM
  1
1.26
 10
19
 20
18
 30
0.0
 11
19
 21
9
 31
0
 13
16.5
 23
16.74016
 14
16.5
 24
18
 50
90.0
53
0
 33
0.0
 34
0.0
  0
DIMENSION
  8
2D_DIM
  2
*D1
  3
HDRILLDIM
  1
1.457
 10
-2.5
 20
1.45669
 30
0.0
 11
-2.5
 21
0.728345
 31
0
 13
0.0
 23
0
 14
0.0
 24
1.45669
 50
90.0
53
0
 33
0.0
 34
0.0
  0
DIMENSION
  8
2D_DIM
  2
*D1
  3
HDRILLDIM
  1
3.057
 10
-2.5
 20
4.513384
 30
0.0
 11
-2.5
 21
2.256692
 31
0
 13
0.0
 23
1.45669
 14
0.0
 24
4.513384
 50
90.0
53
0
 33
0.0
 34
0.0
  0
DIMENSION
  8
2D_DIM
  2
*D1
  3
HDRILLDIM
  1
3.057
 10
-2.5
 20
7.570078
 30
0.0
 11
-2.5
 21
3.785039
 31
0
 13
0.0
 23
4.513384
 14
0.0
 24
7.570078
 50
90.0
53
0
 33
0.0
 34
0.0
  0
DIMENSION
  8
2D_DIM
  2
*D1
  3
HDRILLDIM
  1
3.057
 10
-2.5
 20
10.626772
 30
0.0
 11
-2.5
 21
5.313386
 31
0
 13
0.0
 23
7.570078
 14
0.0
 24
10.626772
 50
90.0
53
0
 33
0.0
 34
0.0
  0
DIMENSION
  8
2D_DIM
  2
*D1
  3
HDRILLDIM
  1
3.057
 10
-2.5
 20
13.683466
 30
0.0
 11
-2.5
 21
6.841733
 31
0
 13
0.0
 23
10.626772
 14
0.0
 24
13.683466
 50
90.0
53
0
 33
0.0
 34
0.0
  0
DIMENSION
  8
2D_DIM
  2
*D1
  3
HDRILLDIM
  1
3.057
 10
-2.5
 20
16.74016
 30
0.0
 11
-2.5
 21
8.37008
 31
0
 13
0.0
 23
13.683466
 14
0.0
 24
16.74016
 50
90.0
53
0
 33
0.0
 34
0.0
  0
DIMENSION
  8
2D_DIM
  2
*D1
  3
HDRILLDIM
  1
1.26
 10
-2.5
 20
18
 30
0.0
 11
-2.5
 21
9
 31
0
 13
0.0
 23
16.74016
 14
0.0
 24
18
 50
90.0
53
0
 33
0.0
 34
0.0
  0
TEXT
  8
ITEMNUMBER
 62
     1
 10
-7.5
 20
-5
 30
0.0
 40
0.5
  1
11.05
  0
TEXT
  8
DESCRIPTION
 62
     1
 10
-7.5
 20
-6
 30
0.0
 40
0.5
  1
Upper Open Bottom
  0
TEXT
  8
FILENAME
 62
     1
 10
-7.5
 20
-7
 30
0.0
 40
0.5
  1
5600AA42
  0
TEXT
  8
MATERIALNAME
 62
     1
 10
-7.5
 20
-8
 30
0.0
 40
0.5
  1
AB484SEI-PF/11-16MDF/AB484SEI-PF/NAF/4x10
  0
TEXT
  8
Qty
 62
     1
 10
-7.5
 20
-9
 30
0.0
 40
0.5
  1
1
  0
TEXT
  8
RUNFIELD
 62
     1
 10
8
 20
-1
 30
0.0
 40
0.5
  1
Mirrored
  0
ENDSEC
  0
EOF
