  0
SECTION
  2
TABLES
  0
TABLE
  2
DIMSTYLE
 70
     2
  0
DIMSTYLE
  2
BOARDERDIM
 70
     0
  3

  4

  5
_NONE
  6
_NONE
  7
_NONE
 40
1
 41
0.1
 42
0.0625
 43
0.38
 44
0.18
 45
0.00
 46
0.0
 47
0.0
 48
0.0
140
0.5
141
0.09
142
0.0
143
25.399999999999999
144
1.0
145
0.5
146
1.0
147
0.09
 71
     1
 72
     0
 73
     1
 74
     0
 75
     0
 76
     0
 77
     2
 78
     0
170
     0
171
     2
172
     0
173
     0
174
     1
175
      0
176
5
177
5
178
     1
271
3
272
3
  0
ENDTAB
  0
TABLE
  2
DIMSTYLE
 70
     2
  0
DIMSTYLE
  2
VDRILLDIM
 70
     0
  3

  4

  5
_NONE
  6
_NONE
  7
_NONE
 40
1
 41
0.1
 42
0.0625
 43
0.38
 44
0.18
 45
0.00
 46
0.0
 47
0.0
 48
0.0
140
0.5
141
0.09
142
0.0
143
25.399999999999999
144
1.0
145
0.5
146
1.0
147
0.09
 71
     1
 72
     0
 73
     1
 74
     0
 75
     0
 76
     0
 77
     2
 78
     0
170
     0
171
     2
172
     0
173
     0
174
     1
175
      0
176
5
177
5
178
     1
271
3
272
3
  0
ENDTAB
  0
TABLE
  2
DIMSTYLE
 70
     2
  0
DIMSTYLE
  2
HDRILLDIM
 70
     0
  3

  4

  5
_NONE
  6
_NONE
  7
_NONE
 40
1
 41
0.1
 42
0.0625
 43
0.38
 44
0.18
 45
0.00
 46
0.0
 47
0.0
 48
0.0
140
0.5
141
0.09
142
0.0
143
25.399999999999999
144
1.0
145
0.5
146
1.0
147
0.09
 71
     1
 72
     0
 73
     1
 74
     0
 75
     0
 76
     0
 77
     2
 78
     0
170
     0
171
     2
172
     0
173
     0
174
     1
175
      0
176
5
177
5
178
     1
271
3
272
3
  0
ENDTAB
  0
TABLE
  2
DIMSTYLE
 70
     2
  0
DIMSTYLE
  2
ROUTEDIM
 70
     0
  3

  4

  5
_NONE
  6
_NONE
  7
_NONE
 40
1
 41
0.1
 42
0.0625
 43
0.38
 44
0.18
 45
0.00
 46
0.0
 47
0.0
 48
0.0
140
0.5
141
0.09
142
0.0
143
25.399999999999999
144
1.0
145
0.5
146
1.0
147
0.09
 71
     1
 72
     0
 73
     1
 74
     0
 75
     0
 76
     0
 77
     2
 78
     0
170
     0
171
     2
172
     0
173
     0
174
     1
175
      0
176
5
177
5
178
     1
271
3
272
3
  0
ENDTAB
  0
TABLE
  2
DIMSTYLE
 70
     2
  0
DIMSTYLE
  2
SAWDIM
 70
     0
  3

  4

  5
_NONE
  6
_NONE
  7
_NONE
 40
1
 41
0.1
 42
0.0625
 43
0.38
 44
0.18
 45
0.00
 46
0.0
 47
0.0
 48
0.0
140
0.5
141
0.09
142
0.0
143
25.399999999999999
144
1.0
145
0.5
146
1.0
147
0.09
 71
     1
 72
     0
 73
     1
 74
     0
 75
     0
 76
     0
 77
     2
 78
     0
170
     0
171
     2
172
     0
173
     0
174
     1
175
      0
176
5
177
5
178
     1
271
3
272
3
  0
ENDTAB
  0
TABLE
  2
VPORT
 70
     1
  0
VPORT
  2
*ACTIVE
 70
     0
 10
0.0
 20
0.0
 11
1.0
 21
1.0
 12
0.0
 22
0.0
 13
0.0
 23
0.0
 14
1.0
 24
1.0
 15
0.0
 25
0.0
 16
0.0
 26
0.0
 36
1.0
 17
0.0
 27
0.0
 37
0.0
 40
84
 41
2.0
 42
50.0
 43
0.0
 44
0.0
 50
0.0
 51
0.0
 71
     0
 72
   100
 73
     1
 74
     0
 75
     1
 76
     0
 77
     0
 78
     0
  0
ENDTAB
  0
ENDSEC
  0
SECTION
  2
ENTITIES
  0
POLYLINE
  8
BORDER_Z0P04
 62
     7
 66
     1
 10
0.0
 20
0.0
 30
0.0
 70
     1
  0
VERTEX
  8
BORDER_Z0P04
 62
     7
 10
0.0
 20
0.0
 30
0.0
  0
VERTEX
  8
BORDER_Z0P04
 62
     7
 10
0.0
 20
40.6162
 30
0.0
  0
VERTEX
  8
BORDER_Z0P04
 62
     7
 10
15.0608
 20
40.6162
 30
0.0
  0
VERTEX
  8
BORDER_Z0P04
 62
     7
 10
15.0608
 20
0.0
 30
0.0
  0
SEQEND
  8
BORDER_Z0P04
 62
     7
  0
POLYLINE
  8
ROUTE_Z0P25LT130RAMP
 62
     3
 66
     1
 10
0.0
 20
0.0
 30
0.0
 70
     0
  0
VERTEX
  8
ROUTE_Z0P25LT130RAMP
 62
     3
 10
-0.387857
 20
10.493596
 30
0.0
  0
VERTEX
  8
ROUTE_Z0P25LT130RAMP
 62
     3
 10
-0.084124
 20
10.71353
 30
0.0
 42
0.548304818051963
  0
VERTEX
  8
ROUTE_Z0P25LT130RAMP
 62
     3
 10
-0.084124
 20
34.744439
 30
0.0
  0
VERTEX
  8
ROUTE_Z0P25LT130RAMP
 62
     3
 10
-0.387857
 20
34.964374
 30
0.0
  0
SEQEND
  8
ROUTE_Z0P25LT130RAMP
 62
     3
  0
POLYLINE
  8
ROUTE_Z0P25LT130RAMP
 62
     3
 66
     1
 10
0.0
 20
0.0
 30
0.0
 70
     0
  0
VERTEX
  8
ROUTE_Z0P25LT130RAMP
 62
     3
 10
15.151214
 20
41.082508
 30
0.0
  0
VERTEX
  8
ROUTE_Z0P25LT130RAMP
 62
     3
 10
15.078734
 20
40.714579
 30
0.0
 42
-0.0878171840320333
  0
VERTEX
  8
ROUTE_Z0P25LT130RAMP
 62
     3
 10
-0.050543
 20
-0.0862520000000018
 30
0.0
  0
VERTEX
  8
ROUTE_Z0P25LT130RAMP
 62
     3
 10
-0.235464
 20
-0.412486999999999
 30
0.0
  0
SEQEND
  8
ROUTE_Z0P25LT130RAMP
 62
     3
  0
DIMENSION
  8
2D_DIM
  2
*D1
  3
BOARDERDIM
  1
15.061
 10
15.0608
 20
45.6162
 30
0.0
 11
7.5304
 21
45.6162
 31
0.0
 13
0
 23
40.6162
 14
15.0608
 24
40.6162
 33
0.0
 34
0.0
53
0
  0
DIMENSION
  8
2D_DIM
  2
*D1
  3
BOARDERDIM
  1
40.616
 10
-5
 20
40.6162
 30
0.0
 11
-5
 21
20.3081
 31
0
 13
0.0
 23
0
 14
0.0
 24
40.6162
 50
90.0
53
0
 33
0.0
 34
0.0
  0
DIMENSION
  8
2D_DIM
  2
*D1
  3
ROUTEDIM
  1
-0.388
 10
-0.387857
 20
43.1162
 30
0.0
 11
-0.1939285
 21
43.1162
 31
0.0
 13
0
 23
40.6162
 14
-0.387857
 24
40.6162
 33
0.0
 34
0.0
53
90
  0
DIMENSION
  8
2D_DIM
  2
*D1
  3
ROUTEDIM
  1
0.152
 10
-0.235464
 20
43.1162
 30
0.0
 11
-0.117732
 21
43.1162
 31
0.0
 13
-0.387857
 23
40.6162
 14
-0.235464
 24
40.6162
 33
0.0
 34
0.0
53
90
  0
DIMENSION
  8
2D_DIM
  2
*D1
  3
ROUTEDIM
  1
0.151
 10
-0.084124
 20
43.1162
 30
0.0
 11
-0.042062
 21
43.1162
 31
0.0
 13
-0.235464
 23
40.6162
 14
-0.084124
 24
40.6162
 33
0.0
 34
0.0
53
90
  0
DIMENSION
  8
2D_DIM
  2
*D1
  3
ROUTEDIM
  1
0.034
 10
-0.050543
 20
43.1162
 30
0.0
 11
-0.0252715
 21
43.1162
 31
0.0
 13
-0.084124
 23
40.6162
 14
-0.050543
 24
40.6162
 33
0.0
 34
0.0
53
90
  0
DIMENSION
  8
2D_DIM
  2
*D1
  3
ROUTEDIM
  1
15.129
 10
15.078734
 20
43.1162
 30
0.0
 11
7.539367
 21
43.1162
 31
0.0
 13
-0.050543
 23
40.6162
 14
15.078734
 24
40.6162
 33
0.0
 34
0.0
53
90
  0
DIMENSION
  8
2D_DIM
  2
*D1
  3
ROUTEDIM
  1
0.072
 10
15.151214
 20
43.1162
 30
0.0
 11
7.575607
 21
43.1162
 31
0.0
 13
15.078734
 23
40.6162
 14
15.151214
 24
40.6162
 33
0.0
 34
0.0
53
90
  0
DIMENSION
  8
2D_DIM
  2
*D1
  3
ROUTEDIM
  1
-0.09
 10
15.0608
 20
43.1162
 30
0.0
 11
7.5304
 21
43.1162
 31
0.0
 13
15.151214
 23
40.6162
 14
15.0608
 24
40.6162
 33
0.0
 34
0.0
53
90
  0
DIMENSION
  8
2D_DIM
  2
*D1
  3
ROUTEDIM
  1
0.412
 10
-2.5
 20
-0.412486999999999
 30
0.0
 11
-2.5
 21
-0.206243499999999
 31
0
 13
0.0
 23
0
 14
0.0
 24
-0.412486999999999
 50
90.0
53
0
 33
0.0
 34
0.0
  0
DIMENSION
  8
2D_DIM
  2
*D1
  3
ROUTEDIM
  1
0.326
 10
-2.5
 20
-0.0862520000000018
 30
0.0
 11
-2.5
 21
-0.0431260000000009
 31
0
 13
0.0
 23
-0.412486999999999
 14
0.0
 24
-0.0862520000000018
 50
90.0
53
0
 33
0.0
 34
0.0
  0
DIMENSION
  8
2D_DIM
  2
*D1
  3
ROUTEDIM
  1
10.58
 10
-2.5
 20
10.493596
 30
0.0
 11
-2.5
 21
5.246798
 31
0
 13
0.0
 23
-0.0862520000000018
 14
0.0
 24
10.493596
 50
90.0
53
0
 33
0.0
 34
0.0
  0
DIMENSION
  8
2D_DIM
  2
*D1
  3
ROUTEDIM
  1
0.22
 10
-2.5
 20
10.71353
 30
0.0
 11
-2.5
 21
5.356765
 31
0
 13
0.0
 23
10.493596
 14
0.0
 24
10.71353
 50
90.0
53
0
 33
0.0
 34
0.0
  0
DIMENSION
  8
2D_DIM
  2
*D1
  3
ROUTEDIM
  1
24.031
 10
-2.5
 20
34.744439
 30
0.0
 11
-2.5
 21
17.3722195
 31
0
 13
0.0
 23
10.71353
 14
0.0
 24
34.744439
 50
90.0
53
0
 33
0.0
 34
0.0
  0
DIMENSION
  8
2D_DIM
  2
*D1
  3
ROUTEDIM
  1
0.22
 10
-2.5
 20
34.964374
 30
0.0
 11
-2.5
 21
17.482187
 31
0
 13
0.0
 23
34.744439
 14
0.0
 24
34.964374
 50
90.0
53
0
 33
0.0
 34
0.0
  0
DIMENSION
  8
2D_DIM
  2
*D1
  3
ROUTEDIM
  1
5.75
 10
-2.5
 20
40.714579
 30
0.0
 11
-2.5
 21
20.3572895
 31
0
 13
0.0
 23
34.964374
 14
0.0
 24
40.714579
 50
90.0
53
0
 33
0.0
 34
0.0
  0
DIMENSION
  8
2D_DIM
  2
*D1
  3
ROUTEDIM
  1
0.368
 10
-2.5
 20
41.082508
 30
0.0
 11
-2.5
 21
20.541254
 31
0
 13
0.0
 23
40.714579
 14
0.0
 24
41.082508
 50
90.0
53
0
 33
0.0
 34
0.0
  0
DIMENSION
  8
2D_DIM
  2
*D1
  3
ROUTEDIM
  1
0.466
 10
-2.5
 20
40.6162
 30
0.0
 11
-2.5
 21
20.3081
 31
0
 13
0.0
 23
41.082508
 14
0.0
 24
40.6162
 50
90.0
53
0
 33
0.0
 34
0.0
  0
DIMENSION
  8
2D_DIM
  2
*D1
  3
ROUTEDIM
  1
-7.747
 10
-7.74696949095768
 20
22.7289845
 30
0.0
 11
-3.87348474547884
 21
22.7289845
 31
0.0
 13
0
 23
22.7289845
 14
-7.74696949095768
 24
22.7289845
 33
0.0
 34
0.0
53
90
  0
DIMENSION
  8
2D_DIM
  2
*D1
  3
ROUTEDIM
  1
22.729
 10
-7.74696949095768
 20
22.7289845
 30
0.0
 11
-7.74696949095768
 21
11.36449225
 31
0
 13
-7.74696949095768
 23
0
 14
-7.74696949095768
 24
22.7289845
 50
90.0
53
0
 33
0.0
 34
0.0
  0
DIMENSION
  8
2D_DIM
  2
*D1
  3
ROUTEDIM
  1
-107.743
 10
-107.742904707318
 20
63.0523881779622
 30
0.0
 11
-53.8714523536589
 21
63.0523881779622
 31
0.0
 13
0
 23
63.0523881779622
 14
-107.742904707318
 24
63.0523881779622
 33
0.0
 34
0.0
53
90
  0
DIMENSION
  8
2D_DIM
  2
*D1
  3
ROUTEDIM
  1
63.052
 10
-107.742904707318
 20
63.0523881779622
 30
0.0
 11
-107.742904707318
 21
31.5261940889811
 31
0
 13
-107.742904707318
 23
0
 14
-107.742904707318
 24
63.0523881779622
 50
90.0
53
0
 33
0.0
 34
0.0
  0
TEXT
  8
ITEMNUMBER
 62
     1
 10
-7.5
 20
-5
 30
0.0
 40
0.5
  1
T31106.22
  0
TEXT
  8
DESCRIPTION
 62
     1
 10
-7.5
 20
-6
 30
0.0
 40
0.5
  1
P4B
  0
TEXT
  8
FILENAME
 62
     1
 10
-7.5
 20
-7
 30
0.0
 40
0.5
  1
5600AE3E
  0
TEXT
  8
MATERIALNAME
 62
     1
 10
-7.5
 20
-8
 30
0.0
 40
0.5
  1
AB1860SEI-PF/4x10
  0
TEXT
  8
Qty
 62
     1
 10
-7.5
 20
-9
 30
0.0
 40
0.5
  1
1
  0
TEXT
  8
RUNFIELD
 62
     1
 10
8
 20
-1
 30
0.0
 40
0.5
  1
Mirrored
  0
ENDSEC
  0
EOF
