  0
SECTION
  2
TABLES
  0
TABLE
  2
DIMSTYLE
 70
     2
  0
DIMSTYLE
  2
BOARDERDIM
 70
     0
  3

  4

  5
_NONE
  6
_NONE
  7
_NONE
 40
1
 41
0.1
 42
0.0625
 43
0.38
 44
0.18
 45
0.00
 46
0.0
 47
0.0
 48
0.0
140
0.5
141
0.09
142
0.0
143
25.399999999999999
144
1.0
145
0.5
146
1.0
147
0.09
 71
     1
 72
     0
 73
     1
 74
     0
 75
     0
 76
     0
 77
     2
 78
     0
170
     0
171
     2
172
     0
173
     0
174
     1
175
      0
176
5
177
5
178
     1
271
3
272
3
  0
ENDTAB
  0
TABLE
  2
DIMSTYLE
 70
     2
  0
DIMSTYLE
  2
VDRILLDIM
 70
     0
  3

  4

  5
_NONE
  6
_NONE
  7
_NONE
 40
1
 41
0.1
 42
0.0625
 43
0.38
 44
0.18
 45
0.00
 46
0.0
 47
0.0
 48
0.0
140
0.5
141
0.09
142
0.0
143
25.399999999999999
144
1.0
145
0.5
146
1.0
147
0.09
 71
     1
 72
     0
 73
     1
 74
     0
 75
     0
 76
     0
 77
     2
 78
     0
170
     0
171
     2
172
     0
173
     0
174
     1
175
      0
176
5
177
5
178
     1
271
3
272
3
  0
ENDTAB
  0
TABLE
  2
DIMSTYLE
 70
     2
  0
DIMSTYLE
  2
HDRILLDIM
 70
     0
  3

  4

  5
_NONE
  6
_NONE
  7
_NONE
 40
1
 41
0.1
 42
0.0625
 43
0.38
 44
0.18
 45
0.00
 46
0.0
 47
0.0
 48
0.0
140
0.5
141
0.09
142
0.0
143
25.399999999999999
144
1.0
145
0.5
146
1.0
147
0.09
 71
     1
 72
     0
 73
     1
 74
     0
 75
     0
 76
     0
 77
     2
 78
     0
170
     0
171
     2
172
     0
173
     0
174
     1
175
      0
176
5
177
5
178
     1
271
3
272
3
  0
ENDTAB
  0
TABLE
  2
DIMSTYLE
 70
     2
  0
DIMSTYLE
  2
ROUTEDIM
 70
     0
  3

  4

  5
_NONE
  6
_NONE
  7
_NONE
 40
1
 41
0.1
 42
0.0625
 43
0.38
 44
0.18
 45
0.00
 46
0.0
 47
0.0
 48
0.0
140
0.5
141
0.09
142
0.0
143
25.399999999999999
144
1.0
145
0.5
146
1.0
147
0.09
 71
     1
 72
     0
 73
     1
 74
     0
 75
     0
 76
     0
 77
     2
 78
     0
170
     0
171
     2
172
     0
173
     0
174
     1
175
      0
176
5
177
5
178
     1
271
3
272
3
  0
ENDTAB
  0
TABLE
  2
DIMSTYLE
 70
     2
  0
DIMSTYLE
  2
SAWDIM
 70
     0
  3

  4

  5
_NONE
  6
_NONE
  7
_NONE
 40
1
 41
0.1
 42
0.0625
 43
0.38
 44
0.18
 45
0.00
 46
0.0
 47
0.0
 48
0.0
140
0.5
141
0.09
142
0.0
143
25.399999999999999
144
1.0
145
0.5
146
1.0
147
0.09
 71
     1
 72
     0
 73
     1
 74
     0
 75
     0
 76
     0
 77
     2
 78
     0
170
     0
171
     2
172
     0
173
     0
174
     1
175
      0
176
5
177
5
178
     1
271
3
272
3
  0
ENDTAB
  0
TABLE
  2
VPORT
 70
     1
  0
VPORT
  2
*ACTIVE
 70
     0
 10
0.0
 20
0.0
 11
1.0
 21
1.0
 12
0.0
 22
0.0
 13
0.0
 23
0.0
 14
1.0
 24
1.0
 15
0.0
 25
0.0
 16
0.0
 26
0.0
 36
1.0
 17
0.0
 27
0.0
 37
0.0
 40
84
 41
2.0
 42
50.0
 43
0.0
 44
0.0
 50
0.0
 51
0.0
 71
     0
 72
   100
 73
     1
 74
     0
 75
     1
 76
     0
 77
     0
 78
     0
  0
ENDTAB
  0
ENDSEC
  0
SECTION
  2
ENTITIES
  0
POLYLINE
  8
BORDER_Z0P04
 62
     7
 66
     1
 10
0.0
 20
0.0
 30
0.0
 70
     1
  0
VERTEX
  8
BORDER_Z0P04
 62
     7
 10
0.0
 20
0.0
 30
0.0
  0
VERTEX
  8
BORDER_Z0P04
 62
     7
 10
0.0
 20
39.2797
 30
0.0
  0
VERTEX
  8
BORDER_Z0P04
 62
     7
 10
13.5227
 20
39.2797
 30
0.0
  0
VERTEX
  8
BORDER_Z0P04
 62
     7
 10
13.5227
 20
0.0
 30
0.0
  0
SEQEND
  8
BORDER_Z0P04
 62
     7
  0
POLYLINE
  8
ROUTE_Z0P25LT130RAMP
 62
     3
 66
     1
 10
0.0
 20
0.0
 30
0.0
 70
     0
  0
VERTEX
  8
ROUTE_Z0P25LT130RAMP
 62
     3
 10
0.699207
 20
17.642636
 30
0.0
 42
0.414213562373095
  0
VERTEX
  8
ROUTE_Z0P25LT130RAMP
 62
     3
 10
0.920223
 20
18.004789
 30
0.0
 42
-0.167192293666293
  0
VERTEX
  8
ROUTE_Z0P25LT130RAMP
 62
     3
 10
2.923298
 20
39.2797
 30
0.0
  0
VERTEX
  8
ROUTE_Z0P25LT130RAMP
 62
     3
 10
4.620544
 20
38.175713
 30
0.0
 42
0.339527114726327
  0
VERTEX
  8
ROUTE_Z0P25LT130RAMP
 62
     3
 10
13.525061
 20
1.684438
 30
0.0
  0
VERTEX
  8
ROUTE_Z0P25LT130RAMP
 62
     3
 10
12.429392
 20
-2.10000000038235E-05
 30
0.0
 42
-0.167192293666293
  0
VERTEX
  8
ROUTE_Z0P25LT130RAMP
 62
     3
 10
0.920223
 20
18.004789
 30
0.0
  0
SEQEND
  8
ROUTE_Z0P25LT130RAMP
 62
     3
  0
DIMENSION
  8
2D_DIM
  2
*D1
  3
BOARDERDIM
  1
13.523
 10
13.5227
 20
44.2797
 30
0.0
 11
6.76135
 21
44.2797
 31
0.0
 13
0
 23
39.2797
 14
13.5227
 24
39.2797
 33
0.0
 34
0.0
53
0
  0
DIMENSION
  8
2D_DIM
  2
*D1
  3
BOARDERDIM
  1
39.28
 10
-5
 20
39.2797
 30
0.0
 11
-5
 21
19.63985
 31
0
 13
0.0
 23
0
 14
0.0
 24
39.2797
 50
90.0
53
0
 33
0.0
 34
0.0
  0
DIMENSION
  8
2D_DIM
  2
*D1
  3
ROUTEDIM
  1
0.699
 10
0.699207
 20
41.7797
 30
0.0
 11
0.3496035
 21
41.7797
 31
0.0
 13
0
 23
39.2797
 14
0.699207
 24
39.2797
 33
0.0
 34
0.0
53
90
  0
DIMENSION
  8
2D_DIM
  2
*D1
  3
ROUTEDIM
  1
0.221
 10
0.920223
 20
41.7797
 30
0.0
 11
0.4601115
 21
41.7797
 31
0.0
 13
0.699207
 23
39.2797
 14
0.920223
 24
39.2797
 33
0.0
 34
0.0
53
90
  0
DIMENSION
  8
2D_DIM
  2
*D1
  3
ROUTEDIM
  1
2.003
 10
2.923298
 20
41.7797
 30
0.0
 11
1.461649
 21
41.7797
 31
0.0
 13
0.920223
 23
39.2797
 14
2.923298
 24
39.2797
 33
0.0
 34
0.0
53
90
  0
DIMENSION
  8
2D_DIM
  2
*D1
  3
ROUTEDIM
  1
1.697
 10
4.620544
 20
41.7797
 30
0.0
 11
2.310272
 21
41.7797
 31
0.0
 13
2.923298
 23
39.2797
 14
4.620544
 24
39.2797
 33
0.0
 34
0.0
53
90
  0
DIMENSION
  8
2D_DIM
  2
*D1
  3
ROUTEDIM
  1
7.809
 10
12.429392
 20
41.7797
 30
0.0
 11
6.214696
 21
41.7797
 31
0.0
 13
4.620544
 23
39.2797
 14
12.429392
 24
39.2797
 33
0.0
 34
0.0
53
90
  0
DIMENSION
  8
2D_DIM
  2
*D1
  3
ROUTEDIM
  1
1.096
 10
13.525061
 20
41.7797
 30
0.0
 11
6.7625305
 21
41.7797
 31
0.0
 13
12.429392
 23
39.2797
 14
13.525061
 24
39.2797
 33
0.0
 34
0.0
53
90
  0
DIMENSION
  8
2D_DIM
  2
*D1
  3
ROUTEDIM
  1
-0.002
 10
13.5227
 20
41.7797
 30
0.0
 11
6.76135
 21
41.7797
 31
0.0
 13
13.525061
 23
39.2797
 14
13.5227
 24
39.2797
 33
0.0
 34
0.0
53
90
  0
DIMENSION
  8
2D_DIM
  2
*D1
  3
ROUTEDIM
  1
0
 10
-2.5
 20
-2.10000000038235E-05
 30
0.0
 11
-2.5
 21
-1.05000000019117E-05
 31
0
 13
0.0
 23
0
 14
0.0
 24
-2.10000000038235E-05
 50
90.0
53
0
 33
0.0
 34
0.0
  0
DIMENSION
  8
2D_DIM
  2
*D1
  3
ROUTEDIM
  1
1.684
 10
-2.5
 20
1.684438
 30
0.0
 11
-2.5
 21
0.842219
 31
0
 13
0.0
 23
-2.10000000038235E-05
 14
0.0
 24
1.684438
 50
90.0
53
0
 33
0.0
 34
0.0
  0
DIMENSION
  8
2D_DIM
  2
*D1
  3
ROUTEDIM
  1
15.958
 10
-2.5
 20
17.642636
 30
0.0
 11
-2.5
 21
8.821318
 31
0
 13
0.0
 23
1.684438
 14
0.0
 24
17.642636
 50
90.0
53
0
 33
0.0
 34
0.0
  0
DIMENSION
  8
2D_DIM
  2
*D1
  3
ROUTEDIM
  1
0.362
 10
-2.5
 20
18.004789
 30
0.0
 11
-2.5
 21
9.0023945
 31
0
 13
0.0
 23
17.642636
 14
0.0
 24
18.004789
 50
90.0
53
0
 33
0.0
 34
0.0
  0
DIMENSION
  8
2D_DIM
  2
*D1
  3
ROUTEDIM
  1
20.171
 10
-2.5
 20
38.175713
 30
0.0
 11
-2.5
 21
19.0878565
 31
0
 13
0.0
 23
18.004789
 14
0.0
 24
38.175713
 50
90.0
53
0
 33
0.0
 34
0.0
  0
DIMENSION
  8
2D_DIM
  2
*D1
  3
ROUTEDIM
  1
1.104
 10
-2.5
 20
39.2797
 30
0.0
 11
-2.5
 21
19.63985
 31
0
 13
0.0
 23
38.175713
 14
0.0
 24
39.2797
 50
90.0
53
0
 33
0.0
 34
0.0
  0
DIMENSION
  8
2D_DIM
  2
*D1
  3
ROUTEDIM
  1
0
 10
-2.5
 20
39.2797
 30
0.0
 11
-2.5
 21
19.63985
 31
0
 13
0.0
 23
39.2797
 14
0.0
 24
39.2797
 50
90.0
53
0
 33
0.0
 34
0.0
  0
DIMENSION
  8
2D_DIM
  2
*D1
  3
ROUTEDIM
  1
0.629
 10
0.6286385
 20
17.9342205
 30
0.0
 11
0.31431925
 21
17.9342205
 31
0.0
 13
0
 23
17.9342205
 14
0.6286385
 24
17.9342205
 33
0.0
 34
0.0
53
90
  0
DIMENSION
  8
2D_DIM
  2
*D1
  3
ROUTEDIM
  1
17.934
 10
0.6286385
 20
17.9342205
 30
0.0
 11
0.6286385
 21
8.96711025
 31
0
 13
0.6286385
 23
0
 14
0.6286385
 24
17.9342205
 50
90.0
53
0
 33
0.0
 34
0.0
  0
DIMENSION
  8
2D_DIM
  2
*D1
  3
ROUTEDIM
  1
32.845
 10
32.8445491087348
 20
25.7308027180606
 30
0.0
 11
16.4222745543674
 21
25.7308027180606
 31
0.0
 13
0
 23
25.7308027180606
 14
32.8445491087348
 24
25.7308027180606
 33
0.0
 34
0.0
53
90
  0
DIMENSION
  8
2D_DIM
  2
*D1
  3
ROUTEDIM
  1
25.731
 10
32.8445491087348
 20
25.7308027180606
 30
0.0
 11
32.8445491087348
 21
12.8654013590303
 31
0
 13
32.8445491087348
 23
0
 14
32.8445491087348
 24
25.7308027180606
 50
90.0
53
0
 33
0.0
 34
0.0
  0
DIMENSION
  8
2D_DIM
  2
*D1
  3
ROUTEDIM
  1
32.845
 10
32.8445487438092
 20
25.7308023462855
 30
0.0
 11
16.4222743719046
 21
25.7308023462855
 31
0.0
 13
0
 23
25.7308023462855
 14
32.8445487438092
 24
25.7308023462855
 33
0.0
 34
0.0
53
90
  0
DIMENSION
  8
2D_DIM
  2
*D1
  3
ROUTEDIM
  1
25.731
 10
32.8445487438092
 20
25.7308023462855
 30
0.0
 11
32.8445487438092
 21
12.8654011731427
 31
0
 13
32.8445487438092
 23
0
 14
32.8445487438092
 24
25.7308023462855
 50
90.0
53
0
 33
0.0
 34
0.0
  0
DIMENSION
  8
2D_DIM
  2
*D1
  3
ROUTEDIM
  1
32.845
 10
32.8445495764973
 20
25.7308018086199
 30
0.0
 11
16.4222747882486
 21
25.7308018086199
 31
0.0
 13
0
 23
25.7308018086199
 14
32.8445495764973
 24
25.7308018086199
 33
0.0
 34
0.0
53
90
  0
DIMENSION
  8
2D_DIM
  2
*D1
  3
ROUTEDIM
  1
25.731
 10
32.8445495764973
 20
25.7308018086199
 30
0.0
 11
32.8445495764973
 21
12.86540090431
 31
0
 13
32.8445495764973
 23
0
 14
32.8445495764973
 24
25.7308018086199
 50
90.0
53
0
 33
0.0
 34
0.0
  0
TEXT
  8
ITEMNUMBER
 62
     1
 10
-7.5
 20
-5
 30
0.0
 40
0.5
  1
T31106.24
  0
TEXT
  8
DESCRIPTION
 62
     1
 10
-7.5
 20
-6
 30
0.0
 40
0.5
  1
P2B
  0
TEXT
  8
FILENAME
 62
     1
 10
-7.5
 20
-7
 30
0.0
 40
0.5
  1
5600AE6E
  0
TEXT
  8
MATERIALNAME
 62
     1
 10
-7.5
 20
-8
 30
0.0
 40
0.5
  1
AB1826SEI-PF/4x10
  0
TEXT
  8
Qty
 62
     1
 10
-7.5
 20
-9
 30
0.0
 40
0.5
  1
1
  0
TEXT
  8
RUNFIELD
 62
     1
 10
8
 20
-1
 30
0.0
 40
0.5
  1
Mirrored
  0
ENDSEC
  0
EOF
