  0
SECTION
  2
TABLES
  0
TABLE
  2
DIMSTYLE
 70
     2
  0
DIMSTYLE
  2
BOARDERDIM
 70
     0
  3

  4

  5
_NONE
  6
_NONE
  7
_NONE
 40
1
 41
0.1
 42
0.0625
 43
0.38
 44
0.18
 45
0.00
 46
0.0
 47
0.0
 48
0.0
140
0.5
141
0.09
142
0.0
143
25.399999999999999
144
1.0
145
0.5
146
1.0
147
0.09
 71
     1
 72
     0
 73
     1
 74
     0
 75
     0
 76
     0
 77
     2
 78
     0
170
     0
171
     2
172
     0
173
     0
174
     1
175
      0
176
5
177
5
178
     1
271
3
272
3
  0
ENDTAB
  0
TABLE
  2
DIMSTYLE
 70
     2
  0
DIMSTYLE
  2
VDRILLDIM
 70
     0
  3

  4

  5
_NONE
  6
_NONE
  7
_NONE
 40
1
 41
0.1
 42
0.0625
 43
0.38
 44
0.18
 45
0.00
 46
0.0
 47
0.0
 48
0.0
140
0.5
141
0.09
142
0.0
143
25.399999999999999
144
1.0
145
0.5
146
1.0
147
0.09
 71
     1
 72
     0
 73
     1
 74
     0
 75
     0
 76
     0
 77
     2
 78
     0
170
     0
171
     2
172
     0
173
     0
174
     1
175
      0
176
5
177
5
178
     1
271
3
272
3
  0
ENDTAB
  0
TABLE
  2
DIMSTYLE
 70
     2
  0
DIMSTYLE
  2
HDRILLDIM
 70
     0
  3

  4

  5
_NONE
  6
_NONE
  7
_NONE
 40
1
 41
0.1
 42
0.0625
 43
0.38
 44
0.18
 45
0.00
 46
0.0
 47
0.0
 48
0.0
140
0.5
141
0.09
142
0.0
143
25.399999999999999
144
1.0
145
0.5
146
1.0
147
0.09
 71
     1
 72
     0
 73
     1
 74
     0
 75
     0
 76
     0
 77
     2
 78
     0
170
     0
171
     2
172
     0
173
     0
174
     1
175
      0
176
5
177
5
178
     1
271
3
272
3
  0
ENDTAB
  0
TABLE
  2
DIMSTYLE
 70
     2
  0
DIMSTYLE
  2
ROUTEDIM
 70
     0
  3

  4

  5
_NONE
  6
_NONE
  7
_NONE
 40
1
 41
0.1
 42
0.0625
 43
0.38
 44
0.18
 45
0.00
 46
0.0
 47
0.0
 48
0.0
140
0.5
141
0.09
142
0.0
143
25.399999999999999
144
1.0
145
0.5
146
1.0
147
0.09
 71
     1
 72
     0
 73
     1
 74
     0
 75
     0
 76
     0
 77
     2
 78
     0
170
     0
171
     2
172
     0
173
     0
174
     1
175
      0
176
5
177
5
178
     1
271
3
272
3
  0
ENDTAB
  0
TABLE
  2
DIMSTYLE
 70
     2
  0
DIMSTYLE
  2
SAWDIM
 70
     0
  3

  4

  5
_NONE
  6
_NONE
  7
_NONE
 40
1
 41
0.1
 42
0.0625
 43
0.38
 44
0.18
 45
0.00
 46
0.0
 47
0.0
 48
0.0
140
0.5
141
0.09
142
0.0
143
25.399999999999999
144
1.0
145
0.5
146
1.0
147
0.09
 71
     1
 72
     0
 73
     1
 74
     0
 75
     0
 76
     0
 77
     2
 78
     0
170
     0
171
     2
172
     0
173
     0
174
     1
175
      0
176
5
177
5
178
     1
271
3
272
3
  0
ENDTAB
  0
TABLE
  2
VPORT
 70
     1
  0
VPORT
  2
*ACTIVE
 70
     0
 10
0.0
 20
0.0
 11
1.0
 21
1.0
 12
0.0
 22
0.0
 13
0.0
 23
0.0
 14
1.0
 24
1.0
 15
0.0
 25
0.0
 16
0.0
 26
0.0
 36
1.0
 17
0.0
 27
0.0
 37
0.0
 40
84
 41
2.0
 42
50.0
 43
0.0
 44
0.0
 50
0.0
 51
0.0
 71
     0
 72
   100
 73
     1
 74
     0
 75
     1
 76
     0
 77
     0
 78
     0
  0
ENDTAB
  0
ENDSEC
  0
SECTION
  2
ENTITIES
  0
POLYLINE
  8
BORDER_Z0P04
 62
     7
 66
     1
 10
0.0
 20
0.0
 30
0.0
 70
     1
  0
VERTEX
  8
BORDER_Z0P04
 62
     7
 10
0.0
 20
0.0
 30
0.0
  0
VERTEX
  8
BORDER_Z0P04
 62
     7
 10
0.0
 20
37.2101
 30
0.0
  0
VERTEX
  8
BORDER_Z0P04
 62
     7
 10
6.4992
 20
37.2101
 30
0.0
  0
VERTEX
  8
BORDER_Z0P04
 62
     7
 10
6.4992
 20
0.0
 30
0.0
  0
SEQEND
  8
BORDER_Z0P04
 62
     7
  0
POLYLINE
  8
ROUTE_Z0P25LT130RAMP
 62
     3
 66
     1
 10
0.0
 20
0.0
 30
0.0
 70
     0
  0
VERTEX
  8
ROUTE_Z0P25LT130RAMP
 62
     3
 10
3.359949
 20
18.439053
 30
0.0
 42
0.414213562373095
  0
VERTEX
  8
ROUTE_Z0P25LT130RAMP
 62
     3
 10
3.622324
 20
18.772463
 30
0.0
 42
0.0376828667463264
  0
VERTEX
  8
ROUTE_Z0P25LT130RAMP
 62
     3
 10
0
 20
37.2101
 30
0.0
  0
VERTEX
  8
ROUTE_Z0P25LT130RAMP
 62
     3
 10
2.459951
 20
35.751861
 30
0.0
 42
-0.064371316174624
  0
VERTEX
  8
ROUTE_Z0P25LT130RAMP
 62
     3
 10
6.499153
 20
3.479912
 30
0.0
  0
VERTEX
  8
ROUTE_Z0P25LT130RAMP
 62
     3
 10
4.436294
 20
5.99999999906231E-06
 30
0.0
 42
0.0376828667463264
  0
VERTEX
  8
ROUTE_Z0P25LT130RAMP
 62
     3
 10
3.622324
 20
18.772463
 30
0.0
  0
SEQEND
  8
ROUTE_Z0P25LT130RAMP
 62
     3
  0
DIMENSION
  8
2D_DIM
  2
*D1
  3
BOARDERDIM
  1
6.499
 10
6.4992
 20
42.2101
 30
0.0
 11
3.2496
 21
42.2101
 31
0.0
 13
0
 23
37.2101
 14
6.4992
 24
37.2101
 33
0.0
 34
0.0
53
0
  0
DIMENSION
  8
2D_DIM
  2
*D1
  3
BOARDERDIM
  1
37.21
 10
-5
 20
37.2101
 30
0.0
 11
-5
 21
18.60505
 31
0
 13
0.0
 23
0
 14
0.0
 24
37.2101
 50
90.0
53
0
 33
0.0
 34
0.0
  0
DIMENSION
  8
2D_DIM
  2
*D1
  3
ROUTEDIM
  1
0
 10
0
 20
39.7101
 30
0.0
 11
0
 21
39.7101
 31
0.0
 13
0
 23
37.2101
 14
0
 24
37.2101
 33
0.0
 34
0.0
53
90
  0
DIMENSION
  8
2D_DIM
  2
*D1
  3
ROUTEDIM
  1
2.46
 10
2.459951
 20
39.7101
 30
0.0
 11
1.2299755
 21
39.7101
 31
0.0
 13
0
 23
37.2101
 14
2.459951
 24
37.2101
 33
0.0
 34
0.0
53
90
  0
DIMENSION
  8
2D_DIM
  2
*D1
  3
ROUTEDIM
  1
0.9
 10
3.359949
 20
39.7101
 30
0.0
 11
1.6799745
 21
39.7101
 31
0.0
 13
2.459951
 23
37.2101
 14
3.359949
 24
37.2101
 33
0.0
 34
0.0
53
90
  0
DIMENSION
  8
2D_DIM
  2
*D1
  3
ROUTEDIM
  1
0.262
 10
3.622324
 20
39.7101
 30
0.0
 11
1.811162
 21
39.7101
 31
0.0
 13
3.359949
 23
37.2101
 14
3.622324
 24
37.2101
 33
0.0
 34
0.0
53
90
  0
DIMENSION
  8
2D_DIM
  2
*D1
  3
ROUTEDIM
  1
0.814
 10
4.436294
 20
39.7101
 30
0.0
 11
2.218147
 21
39.7101
 31
0.0
 13
3.622324
 23
37.2101
 14
4.436294
 24
37.2101
 33
0.0
 34
0.0
53
90
  0
DIMENSION
  8
2D_DIM
  2
*D1
  3
ROUTEDIM
  1
2.063
 10
6.499153
 20
39.7101
 30
0.0
 11
3.2495765
 21
39.7101
 31
0.0
 13
4.436294
 23
37.2101
 14
6.499153
 24
37.2101
 33
0.0
 34
0.0
53
90
  0
DIMENSION
  8
2D_DIM
  2
*D1
  3
ROUTEDIM
  1
0
 10
6.4992
 20
39.7101
 30
0.0
 11
3.2496
 21
39.7101
 31
0.0
 13
6.499153
 23
37.2101
 14
6.4992
 24
37.2101
 33
0.0
 34
0.0
53
90
  0
DIMENSION
  8
2D_DIM
  2
*D1
  3
ROUTEDIM
  1
-0
 10
-2.5
 20
5.99999999906231E-06
 30
0.0
 11
-2.5
 21
2.99999999953116E-06
 31
0
 13
0.0
 23
0
 14
0.0
 24
5.99999999906231E-06
 50
90.0
53
0
 33
0.0
 34
0.0
  0
DIMENSION
  8
2D_DIM
  2
*D1
  3
ROUTEDIM
  1
3.48
 10
-2.5
 20
3.479912
 30
0.0
 11
-2.5
 21
1.739956
 31
0
 13
0.0
 23
5.99999999906231E-06
 14
0.0
 24
3.479912
 50
90.0
53
0
 33
0.0
 34
0.0
  0
DIMENSION
  8
2D_DIM
  2
*D1
  3
ROUTEDIM
  1
14.959
 10
-2.5
 20
18.439053
 30
0.0
 11
-2.5
 21
9.2195265
 31
0
 13
0.0
 23
3.479912
 14
0.0
 24
18.439053
 50
90.0
53
0
 33
0.0
 34
0.0
  0
DIMENSION
  8
2D_DIM
  2
*D1
  3
ROUTEDIM
  1
0.333
 10
-2.5
 20
18.772463
 30
0.0
 11
-2.5
 21
9.3862315
 31
0
 13
0.0
 23
18.439053
 14
0.0
 24
18.772463
 50
90.0
53
0
 33
0.0
 34
0.0
  0
DIMENSION
  8
2D_DIM
  2
*D1
  3
ROUTEDIM
  1
16.979
 10
-2.5
 20
35.751861
 30
0.0
 11
-2.5
 21
17.8759305
 31
0
 13
0.0
 23
18.772463
 14
0.0
 24
35.751861
 50
90.0
53
0
 33
0.0
 34
0.0
  0
DIMENSION
  8
2D_DIM
  2
*D1
  3
ROUTEDIM
  1
1.458
 10
-2.5
 20
37.2101
 30
0.0
 11
-2.5
 21
18.60505
 31
0
 13
0.0
 23
35.751861
 14
0.0
 24
37.2101
 50
90.0
53
0
 33
0.0
 34
0.0
  0
DIMENSION
  8
2D_DIM
  2
*D1
  3
ROUTEDIM
  1
0
 10
-2.5
 20
37.2101
 30
0.0
 11
-2.5
 21
18.60505
 31
0
 13
0.0
 23
37.2101
 14
0.0
 24
37.2101
 50
90.0
53
0
 33
0.0
 34
0.0
  0
DIMENSION
  8
2D_DIM
  2
*D1
  3
ROUTEDIM
  1
3.324
 10
3.3244315
 20
18.7369455
 30
0.0
 11
1.66221575
 21
18.7369455
 31
0.0
 13
0
 23
18.7369455
 14
3.3244315
 24
18.7369455
 33
0.0
 34
0.0
53
90
  0
DIMENSION
  8
2D_DIM
  2
*D1
  3
ROUTEDIM
  1
18.737
 10
3.3244315
 20
18.7369455
 30
0.0
 11
3.3244315
 21
9.36847275
 31
0
 13
3.3244315
 23
0
 14
3.3244315
 24
18.7369455
 50
90.0
53
0
 33
0.0
 34
0.0
  0
DIMENSION
  8
2D_DIM
  2
*D1
  3
ROUTEDIM
  1
-120.336
 10
-120.336229996808
 20
3.99376871853866
 30
0.0
 11
-60.1681149984039
 21
3.99376871853866
 31
0.0
 13
0
 23
3.99376871853866
 14
-120.336229996808
 24
3.99376871853866
 33
0.0
 34
0.0
53
90
  0
DIMENSION
  8
2D_DIM
  2
*D1
  3
ROUTEDIM
  1
3.994
 10
-120.336229996808
 20
3.99376871853866
 30
0.0
 11
-120.336229996808
 21
1.99688435926933
 31
0
 13
-120.336229996808
 23
0
 14
-120.336229996808
 24
3.99376871853866
 50
90.0
53
0
 33
0.0
 34
0.0
  0
DIMENSION
  8
2D_DIM
  2
*D1
  3
ROUTEDIM
  1
-120.336
 10
-120.336230559983
 20
3.99376964093304
 30
0.0
 11
-60.1681152799915
 21
3.99376964093304
 31
0.0
 13
0
 23
3.99376964093304
 14
-120.336230559983
 24
3.99376964093304
 33
0.0
 34
0.0
53
90
  0
DIMENSION
  8
2D_DIM
  2
*D1
  3
ROUTEDIM
  1
3.994
 10
-120.336230559983
 20
3.99376964093304
 30
0.0
 11
-120.336230559983
 21
1.99688482046652
 31
0
 13
-120.336230559983
 23
0
 14
-120.336230559983
 24
3.99376964093304
 50
90.0
53
0
 33
0.0
 34
0.0
  0
DIMENSION
  8
2D_DIM
  2
*D1
  3
ROUTEDIM
  1
-120.336
 10
-120.336230028793
 20
3.99376947513582
 30
0.0
 11
-60.1681150143965
 21
3.99376947513582
 31
0.0
 13
0
 23
3.99376947513582
 14
-120.336230028793
 24
3.99376947513582
 33
0.0
 34
0.0
53
90
  0
DIMENSION
  8
2D_DIM
  2
*D1
  3
ROUTEDIM
  1
3.994
 10
-120.336230028793
 20
3.99376947513582
 30
0.0
 11
-120.336230028793
 21
1.99688473756791
 31
0
 13
-120.336230028793
 23
0
 14
-120.336230028793
 24
3.99376947513582
 50
90.0
53
0
 33
0.0
 34
0.0
  0
TEXT
  8
ITEMNUMBER
 62
     1
 10
-7.5
 20
-5
 30
0.0
 40
0.5
  1
T31106.24
  0
TEXT
  8
DESCRIPTION
 62
     1
 10
-7.5
 20
-6
 30
0.0
 40
0.5
  1
P3B
  0
TEXT
  8
FILENAME
 62
     1
 10
-7.5
 20
-7
 30
0.0
 40
0.5
  1
5600AE7W
  0
TEXT
  8
MATERIALNAME
 62
     1
 10
-7.5
 20
-8
 30
0.0
 40
0.5
  1
AB1826SEI-PF/4x10
  0
TEXT
  8
Qty
 62
     1
 10
-7.5
 20
-9
 30
0.0
 40
0.5
  1
1
  0
TEXT
  8
RUNFIELD
 62
     1
 10
8
 20
-1
 30
0.0
 40
0.5
  1
Mirrored
  0
ENDSEC
  0
EOF
