  0
SECTION
  2
TABLES
  0
TABLE
  2
DIMSTYLE
 70
     2
  0
DIMSTYLE
  2
BOARDERDIM
 70
     0
  3

  4

  5
_NONE
  6
_NONE
  7
_NONE
 40
1
 41
0.1
 42
0.0625
 43
0.38
 44
0.18
 45
0.00
 46
0.0
 47
0.0
 48
0.0
140
0.5
141
0.09
142
0.0
143
25.399999999999999
144
1.0
145
0.5
146
1.0
147
0.09
 71
     1
 72
     0
 73
     1
 74
     0
 75
     0
 76
     0
 77
     2
 78
     0
170
     0
171
     2
172
     0
173
     0
174
     1
175
      0
176
5
177
5
178
     1
271
3
272
3
  0
ENDTAB
  0
TABLE
  2
DIMSTYLE
 70
     2
  0
DIMSTYLE
  2
VDRILLDIM
 70
     0
  3

  4

  5
_NONE
  6
_NONE
  7
_NONE
 40
1
 41
0.1
 42
0.0625
 43
0.38
 44
0.18
 45
0.00
 46
0.0
 47
0.0
 48
0.0
140
0.5
141
0.09
142
0.0
143
25.399999999999999
144
1.0
145
0.5
146
1.0
147
0.09
 71
     1
 72
     0
 73
     1
 74
     0
 75
     0
 76
     0
 77
     2
 78
     0
170
     0
171
     2
172
     0
173
     0
174
     1
175
      0
176
5
177
5
178
     1
271
3
272
3
  0
ENDTAB
  0
TABLE
  2
DIMSTYLE
 70
     2
  0
DIMSTYLE
  2
HDRILLDIM
 70
     0
  3

  4

  5
_NONE
  6
_NONE
  7
_NONE
 40
1
 41
0.1
 42
0.0625
 43
0.38
 44
0.18
 45
0.00
 46
0.0
 47
0.0
 48
0.0
140
0.5
141
0.09
142
0.0
143
25.399999999999999
144
1.0
145
0.5
146
1.0
147
0.09
 71
     1
 72
     0
 73
     1
 74
     0
 75
     0
 76
     0
 77
     2
 78
     0
170
     0
171
     2
172
     0
173
     0
174
     1
175
      0
176
5
177
5
178
     1
271
3
272
3
  0
ENDTAB
  0
TABLE
  2
DIMSTYLE
 70
     2
  0
DIMSTYLE
  2
ROUTEDIM
 70
     0
  3

  4

  5
_NONE
  6
_NONE
  7
_NONE
 40
1
 41
0.1
 42
0.0625
 43
0.38
 44
0.18
 45
0.00
 46
0.0
 47
0.0
 48
0.0
140
0.5
141
0.09
142
0.0
143
25.399999999999999
144
1.0
145
0.5
146
1.0
147
0.09
 71
     1
 72
     0
 73
     1
 74
     0
 75
     0
 76
     0
 77
     2
 78
     0
170
     0
171
     2
172
     0
173
     0
174
     1
175
      0
176
5
177
5
178
     1
271
3
272
3
  0
ENDTAB
  0
TABLE
  2
DIMSTYLE
 70
     2
  0
DIMSTYLE
  2
SAWDIM
 70
     0
  3

  4

  5
_NONE
  6
_NONE
  7
_NONE
 40
1
 41
0.1
 42
0.0625
 43
0.38
 44
0.18
 45
0.00
 46
0.0
 47
0.0
 48
0.0
140
0.5
141
0.09
142
0.0
143
25.399999999999999
144
1.0
145
0.5
146
1.0
147
0.09
 71
     1
 72
     0
 73
     1
 74
     0
 75
     0
 76
     0
 77
     2
 78
     0
170
     0
171
     2
172
     0
173
     0
174
     1
175
      0
176
5
177
5
178
     1
271
3
272
3
  0
ENDTAB
  0
TABLE
  2
VPORT
 70
     1
  0
VPORT
  2
*ACTIVE
 70
     0
 10
0.0
 20
0.0
 11
1.0
 21
1.0
 12
0.0
 22
0.0
 13
0.0
 23
0.0
 14
1.0
 24
1.0
 15
0.0
 25
0.0
 16
0.0
 26
0.0
 36
1.0
 17
0.0
 27
0.0
 37
0.0
 40
84
 41
2.0
 42
50.0
 43
0.0
 44
0.0
 50
0.0
 51
0.0
 71
     0
 72
   100
 73
     1
 74
     0
 75
     1
 76
     0
 77
     0
 78
     0
  0
ENDTAB
  0
ENDSEC
  0
SECTION
  2
ENTITIES
  0
POLYLINE
  8
BORDER_Z0P04
 62
     7
 66
     1
 10
0.0
 20
0.0
 30
0.0
 70
     1
  0
VERTEX
  8
BORDER_Z0P04
 62
     7
 10
0.0
 20
0.0
 30
0.0
  0
VERTEX
  8
BORDER_Z0P04
 62
     7
 10
0.0
 20
27.125
 30
0.0
  0
VERTEX
  8
BORDER_Z0P04
 62
     7
 10
30.9499
 20
27.125
 30
0.0
  0
VERTEX
  8
BORDER_Z0P04
 62
     7
 10
30.9499
 20
0.0
 30
0.0
  0
SEQEND
  8
BORDER_Z0P04
 62
     7
  0
POLYLINE
  8
ROUTE_Z0P25LT130RAMP
 62
     3
 66
     1
 10
0.0
 20
0.0
 30
0.0
 70
     0
  0
VERTEX
  8
ROUTE_Z0P25LT130RAMP
 62
     3
 10
8.443942
 20
-0.471706000000001
 30
0.0
  0
VERTEX
  8
ROUTE_Z0P25LT130RAMP
 62
     3
 10
8.484865
 20
-0.0989450000000005
 30
0.0
 42
0.229159348079769
  0
VERTEX
  8
ROUTE_Z0P25LT130RAMP
 62
     3
 10
-0.068359
 20
27.197987
 30
0.0
  0
VERTEX
  8
ROUTE_Z0P25LT130RAMP
 62
     3
 10
-0.314681
 20
27.480742
 30
0.0
  0
SEQEND
  8
ROUTE_Z0P25LT130RAMP
 62
     3
  0
POLYLINE
  8
ROUTE_Z0P25LT130RAMP
 62
     3
 66
     1
 10
0.0
 20
0.0
 30
0.0
 70
     0
  0
VERTEX
  8
ROUTE_Z0P25LT130RAMP
 62
     3
 10
31.417211
 20
23.090446
 30
0.0
  0
VERTEX
  8
ROUTE_Z0P25LT130RAMP
 62
     3
 10
31.04885
 20
23.020194
 30
0.0
 42
0.414828723141293
  0
VERTEX
  8
ROUTE_Z0P25LT130RAMP
 62
     3
 10
13.653413
 20
-0.0990360000000017
 30
0.0
  0
VERTEX
  8
ROUTE_Z0P25LT130RAMP
 62
     3
 10
13.687956
 20
-0.472442000000001
 30
0.0
  0
SEQEND
  8
ROUTE_Z0P25LT130RAMP
 62
     3
  0
DIMENSION
  8
2D_DIM
  2
*D1
  3
BOARDERDIM
  1
30.95
 10
30.9499
 20
32.125
 30
0.0
 11
15.47495
 21
32.125
 31
0.0
 13
0
 23
27.125
 14
30.9499
 24
27.125
 33
0.0
 34
0.0
53
0
  0
DIMENSION
  8
2D_DIM
  2
*D1
  3
BOARDERDIM
  1
27.125
 10
-5
 20
27.125
 30
0.0
 11
-5
 21
13.5625
 31
0
 13
0.0
 23
0
 14
0.0
 24
27.125
 50
90.0
53
0
 33
0.0
 34
0.0
  0
DIMENSION
  8
2D_DIM
  2
*D1
  3
ROUTEDIM
  1
-0.315
 10
-0.314681
 20
29.625
 30
0.0
 11
-0.1573405
 21
29.625
 31
0.0
 13
0
 23
27.125
 14
-0.314681
 24
27.125
 33
0.0
 34
0.0
53
90
  0
DIMENSION
  8
2D_DIM
  2
*D1
  3
ROUTEDIM
  1
0.246
 10
-0.068359
 20
29.625
 30
0.0
 11
-0.0341795
 21
29.625
 31
0.0
 13
-0.314681
 23
27.125
 14
-0.068359
 24
27.125
 33
0.0
 34
0.0
53
90
  0
DIMENSION
  8
2D_DIM
  2
*D1
  3
ROUTEDIM
  1
8.512
 10
8.443942
 20
29.625
 30
0.0
 11
4.221971
 21
29.625
 31
0.0
 13
-0.068359
 23
27.125
 14
8.443942
 24
27.125
 33
0.0
 34
0.0
53
90
  0
DIMENSION
  8
2D_DIM
  2
*D1
  3
ROUTEDIM
  1
0.041
 10
8.484865
 20
29.625
 30
0.0
 11
4.2424325
 21
29.625
 31
0.0
 13
8.443942
 23
27.125
 14
8.484865
 24
27.125
 33
0.0
 34
0.0
53
90
  0
DIMENSION
  8
2D_DIM
  2
*D1
  3
ROUTEDIM
  1
5.169
 10
13.653413
 20
29.625
 30
0.0
 11
6.8267065
 21
29.625
 31
0.0
 13
8.484865
 23
27.125
 14
13.653413
 24
27.125
 33
0.0
 34
0.0
53
90
  0
DIMENSION
  8
2D_DIM
  2
*D1
  3
ROUTEDIM
  1
0.035
 10
13.687956
 20
29.625
 30
0.0
 11
6.843978
 21
29.625
 31
0.0
 13
13.653413
 23
27.125
 14
13.687956
 24
27.125
 33
0.0
 34
0.0
53
90
  0
DIMENSION
  8
2D_DIM
  2
*D1
  3
ROUTEDIM
  1
17.361
 10
31.04885
 20
29.625
 30
0.0
 11
15.524425
 21
29.625
 31
0.0
 13
13.687956
 23
27.125
 14
31.04885
 24
27.125
 33
0.0
 34
0.0
53
90
  0
DIMENSION
  8
2D_DIM
  2
*D1
  3
ROUTEDIM
  1
0.368
 10
31.417211
 20
29.625
 30
0.0
 11
15.7086055
 21
29.625
 31
0.0
 13
31.04885
 23
27.125
 14
31.417211
 24
27.125
 33
0.0
 34
0.0
53
90
  0
DIMENSION
  8
2D_DIM
  2
*D1
  3
ROUTEDIM
  1
-0.467
 10
30.9499
 20
29.625
 30
0.0
 11
15.47495
 21
29.625
 31
0.0
 13
31.417211
 23
27.125
 14
30.9499
 24
27.125
 33
0.0
 34
0.0
53
90
  0
DIMENSION
  8
2D_DIM
  2
*D1
  3
ROUTEDIM
  1
0.472
 10
-2.5
 20
-0.472442000000001
 30
0.0
 11
-2.5
 21
-0.236221
 31
0
 13
0.0
 23
0
 14
0.0
 24
-0.472442000000001
 50
90.0
53
0
 33
0.0
 34
0.0
  0
DIMENSION
  8
2D_DIM
  2
*D1
  3
ROUTEDIM
  1
0.001
 10
-2.5
 20
-0.471706000000001
 30
0.0
 11
-2.5
 21
-0.235853000000001
 31
0
 13
0.0
 23
-0.472442000000001
 14
0.0
 24
-0.471706000000001
 50
90.0
53
0
 33
0.0
 34
0.0
  0
DIMENSION
  8
2D_DIM
  2
*D1
  3
ROUTEDIM
  1
0.373
 10
-2.5
 20
-0.0990360000000017
 30
0.0
 11
-2.5
 21
-0.0495180000000009
 31
0
 13
0.0
 23
-0.471706000000001
 14
0.0
 24
-0.0990360000000017
 50
90.0
53
0
 33
0.0
 34
0.0
  0
DIMENSION
  8
2D_DIM
  2
*D1
  3
ROUTEDIM
  1
-0
 10
-2.5
 20
-0.0989450000000005
 30
0.0
 11
-2.5
 21
-0.0494725000000003
 31
0
 13
0.0
 23
-0.0990360000000017
 14
0.0
 24
-0.0989450000000005
 50
90.0
53
0
 33
0.0
 34
0.0
  0
DIMENSION
  8
2D_DIM
  2
*D1
  3
ROUTEDIM
  1
23.119
 10
-2.5
 20
23.020194
 30
0.0
 11
-2.5
 21
11.510097
 31
0
 13
0.0
 23
-0.0989450000000005
 14
0.0
 24
23.020194
 50
90.0
53
0
 33
0.0
 34
0.0
  0
DIMENSION
  8
2D_DIM
  2
*D1
  3
ROUTEDIM
  1
0.07
 10
-2.5
 20
23.090446
 30
0.0
 11
-2.5
 21
11.545223
 31
0
 13
0.0
 23
23.020194
 14
0.0
 24
23.090446
 50
90.0
53
0
 33
0.0
 34
0.0
  0
DIMENSION
  8
2D_DIM
  2
*D1
  3
ROUTEDIM
  1
4.108
 10
-2.5
 20
27.197987
 30
0.0
 11
-2.5
 21
13.5989935
 31
0
 13
0.0
 23
23.090446
 14
0.0
 24
27.197987
 50
90.0
53
0
 33
0.0
 34
0.0
  0
DIMENSION
  8
2D_DIM
  2
*D1
  3
ROUTEDIM
  1
0.283
 10
-2.5
 20
27.480742
 30
0.0
 11
-2.5
 21
13.740371
 31
0
 13
0.0
 23
27.197987
 14
0.0
 24
27.480742
 50
90.0
53
0
 33
0.0
 34
0.0
  0
DIMENSION
  8
2D_DIM
  2
*D1
  3
ROUTEDIM
  1
0.356
 10
-2.5
 20
27.125
 30
0.0
 11
-2.5
 21
13.5625
 31
0
 13
0.0
 23
27.480742
 14
0.0
 24
27.125
 50
90.0
53
0
 33
0.0
 34
0.0
  0
DIMENSION
  8
2D_DIM
  2
*D1
  3
ROUTEDIM
  1
-24.007
 10
-24.0073325125676
 20
4.70844599640086
 30
0.0
 11
-12.0036662562838
 21
4.70844599640086
 31
0.0
 13
0
 23
4.70844599640086
 14
-24.0073325125676
 24
4.70844599640086
 33
0.0
 34
0.0
53
90
  0
DIMENSION
  8
2D_DIM
  2
*D1
  3
ROUTEDIM
  1
4.708
 10
-24.0073325125676
 20
4.70844599640086
 30
0.0
 11
-24.0073325125676
 21
2.35422299820043
 31
0
 13
-24.0073325125676
 23
0
 14
-24.0073325125676
 24
4.70844599640086
 50
90.0
53
0
 33
0.0
 34
0.0
  0
DIMENSION
  8
2D_DIM
  2
*D1
  3
ROUTEDIM
  1
33.886
 10
33.8864986842144
 20
2.78110511073685
 30
0.0
 11
16.9432493421072
 21
2.78110511073685
 31
0.0
 13
0
 23
2.78110511073685
 14
33.8864986842144
 24
2.78110511073685
 33
0.0
 34
0.0
53
90
  0
DIMENSION
  8
2D_DIM
  2
*D1
  3
ROUTEDIM
  1
2.781
 10
33.8864986842144
 20
2.78110511073685
 30
0.0
 11
33.8864986842144
 21
1.39055255536843
 31
0
 13
33.8864986842144
 23
0
 14
33.8864986842144
 24
2.78110511073685
 50
90.0
53
0
 33
0.0
 34
0.0
  0
TEXT
  8
ITEMNUMBER
 62
     1
 10
-7.5
 20
-5
 30
0.0
 40
0.5
  1
T31106.22
  0
TEXT
  8
DESCRIPTION
 62
     1
 10
-7.5
 20
-6
 30
0.0
 40
0.5
  1
P2A
  0
TEXT
  8
FILENAME
 62
     1
 10
-7.5
 20
-7
 30
0.0
 40
0.5
  1
5600AE0Q
  0
TEXT
  8
MATERIALNAME
 62
     1
 10
-7.5
 20
-8
 30
0.0
 40
0.5
  1
AB1860SEI-PF/4x10
  0
TEXT
  8
Qty
 62
     1
 10
-7.5
 20
-9
 30
0.0
 40
0.5
  1
1
  0
TEXT
  8
RUNFIELD
 62
     1
 10
8
 20
-1
 30
0.0
 40
0.5
  1
Mirrored
  0
ENDSEC
  0
EOF
