  0
SECTION
  2
TABLES
  0
TABLE
  2
DIMSTYLE
 70
     2
  0
DIMSTYLE
  2
BOARDERDIM
 70
     0
  3

  4

  5
_NONE
  6
_NONE
  7
_NONE
 40
1
 41
0.1
 42
0.0625
 43
0.38
 44
0.18
 45
0.00
 46
0.0
 47
0.0
 48
0.0
140
0.5
141
0.09
142
0.0
143
25.399999999999999
144
1.0
145
0.5
146
1.0
147
0.09
 71
     1
 72
     0
 73
     1
 74
     0
 75
     0
 76
     0
 77
     2
 78
     0
170
     0
171
     2
172
     0
173
     0
174
     1
175
      0
176
5
177
5
178
     1
271
3
272
3
  0
ENDTAB
  0
TABLE
  2
DIMSTYLE
 70
     2
  0
DIMSTYLE
  2
VDRILLDIM
 70
     0
  3

  4

  5
_NONE
  6
_NONE
  7
_NONE
 40
1
 41
0.1
 42
0.0625
 43
0.38
 44
0.18
 45
0.00
 46
0.0
 47
0.0
 48
0.0
140
0.5
141
0.09
142
0.0
143
25.399999999999999
144
1.0
145
0.5
146
1.0
147
0.09
 71
     1
 72
     0
 73
     1
 74
     0
 75
     0
 76
     0
 77
     2
 78
     0
170
     0
171
     2
172
     0
173
     0
174
     1
175
      0
176
5
177
5
178
     1
271
3
272
3
  0
ENDTAB
  0
TABLE
  2
DIMSTYLE
 70
     2
  0
DIMSTYLE
  2
HDRILLDIM
 70
     0
  3

  4

  5
_NONE
  6
_NONE
  7
_NONE
 40
1
 41
0.1
 42
0.0625
 43
0.38
 44
0.18
 45
0.00
 46
0.0
 47
0.0
 48
0.0
140
0.5
141
0.09
142
0.0
143
25.399999999999999
144
1.0
145
0.5
146
1.0
147
0.09
 71
     1
 72
     0
 73
     1
 74
     0
 75
     0
 76
     0
 77
     2
 78
     0
170
     0
171
     2
172
     0
173
     0
174
     1
175
      0
176
5
177
5
178
     1
271
3
272
3
  0
ENDTAB
  0
TABLE
  2
DIMSTYLE
 70
     2
  0
DIMSTYLE
  2
ROUTEDIM
 70
     0
  3

  4

  5
_NONE
  6
_NONE
  7
_NONE
 40
1
 41
0.1
 42
0.0625
 43
0.38
 44
0.18
 45
0.00
 46
0.0
 47
0.0
 48
0.0
140
0.5
141
0.09
142
0.0
143
25.399999999999999
144
1.0
145
0.5
146
1.0
147
0.09
 71
     1
 72
     0
 73
     1
 74
     0
 75
     0
 76
     0
 77
     2
 78
     0
170
     0
171
     2
172
     0
173
     0
174
     1
175
      0
176
5
177
5
178
     1
271
3
272
3
  0
ENDTAB
  0
TABLE
  2
DIMSTYLE
 70
     2
  0
DIMSTYLE
  2
SAWDIM
 70
     0
  3

  4

  5
_NONE
  6
_NONE
  7
_NONE
 40
1
 41
0.1
 42
0.0625
 43
0.38
 44
0.18
 45
0.00
 46
0.0
 47
0.0
 48
0.0
140
0.5
141
0.09
142
0.0
143
25.399999999999999
144
1.0
145
0.5
146
1.0
147
0.09
 71
     1
 72
     0
 73
     1
 74
     0
 75
     0
 76
     0
 77
     2
 78
     0
170
     0
171
     2
172
     0
173
     0
174
     1
175
      0
176
5
177
5
178
     1
271
3
272
3
  0
ENDTAB
  0
TABLE
  2
VPORT
 70
     1
  0
VPORT
  2
*ACTIVE
 70
     0
 10
0.0
 20
0.0
 11
1.0
 21
1.0
 12
0.0
 22
0.0
 13
0.0
 23
0.0
 14
1.0
 24
1.0
 15
0.0
 25
0.0
 16
0.0
 26
0.0
 36
1.0
 17
0.0
 27
0.0
 37
0.0
 40
84
 41
2.0
 42
50.0
 43
0.0
 44
0.0
 50
0.0
 51
0.0
 71
     0
 72
   100
 73
     1
 74
     0
 75
     1
 76
     0
 77
     0
 78
     0
  0
ENDTAB
  0
ENDSEC
  0
SECTION
  2
ENTITIES
  0
POLYLINE
  8
BORDER_Z0P75
 62
     7
 66
     1
 10
0.0
 20
0.0
 30
0.0
 70
     1
  0
VERTEX
  8
BORDER_Z0P75
 62
     7
 10
0.0
 20
0.0
 30
0.0
  0
VERTEX
  8
BORDER_Z0P75
 62
     7
 10
0.0
 20
27.5
 30
0.0
  0
VERTEX
  8
BORDER_Z0P75
 62
     7
 10
30.6875
 20
27.5
 30
0.0
  0
VERTEX
  8
BORDER_Z0P75
 62
     7
 10
30.6875
 20
0.0
 30
0.0
  0
SEQEND
  8
BORDER_Z0P75
 62
     7
  0
CIRCLE
  8
VBORE_Z0P4921
 62
     3
 10
0.375
 20
26.24016
 30
0.0
 40
0.15748
  0
CIRCLE
  8
VBORE_Z0P4921
 62
     3
 10
0.375
 20
22.6996642857143
 30
0.0
 40
0.15748
  0
CIRCLE
  8
VBORE_Z0P4921
 62
     3
 10
0.375000000000001
 20
19.1591685714286
 30
0.0
 40
0.15748
  0
CIRCLE
  8
VBORE_Z0P4921
 62
     3
 10
0.375000000000001
 20
15.6186728571429
 30
0.0
 40
0.15748
  0
CIRCLE
  8
VBORE_Z0P4921
 62
     3
 10
0.375000000000001
 20
12.0781771428571
 30
0.0
 40
0.15748
  0
CIRCLE
  8
VBORE_Z0P4921
 62
     3
 10
0.375000000000001
 20
8.5376814285714
 30
0.0
 40
0.15748
  0
CIRCLE
  8
VBORE_Z0P4921
 62
     3
 10
0.375000000000001
 20
4.9971857142857
 30
0.0
 40
0.15748
  0
CIRCLE
  8
VBORE_Z0P4921
 62
     3
 10
0.375000000000002
 20
1.45669
 30
0.0
 40
0.15748
  0
CIRCLE
  8
VBORE_Z0P4921
 62
     3
 10
30.3125
 20
26.24016
 30
0.0
 40
0.15748
  0
CIRCLE
  8
VBORE_Z0P4921
 62
     3
 10
30.3125
 20
22.6996642857143
 30
0.0
 40
0.15748
  0
CIRCLE
  8
VBORE_Z0P4921
 62
     3
 10
30.3125
 20
19.1591685714286
 30
0.0
 40
0.15748
  0
CIRCLE
  8
VBORE_Z0P4921
 62
     3
 10
30.3125
 20
15.6186728571429
 30
0.0
 40
0.15748
  0
CIRCLE
  8
VBORE_Z0P4921
 62
     3
 10
30.3125
 20
12.0781771428571
 30
0.0
 40
0.15748
  0
CIRCLE
  8
VBORE_Z0P4921
 62
     3
 10
30.3125
 20
8.5376814285714
 30
0.0
 40
0.15748
  0
CIRCLE
  8
VBORE_Z0P4921
 62
     3
 10
30.3125
 20
4.9971857142857
 30
0.0
 40
0.15748
  0
CIRCLE
  8
VBORE_Z0P4921
 62
     3
 10
30.3125
 20
1.45669
 30
0.0
 40
0.15748
  0
CIRCLE
  8
VBORE_Z0P4921
 62
     3
 10
12.375
 20
26.24016
 30
0.0
 40
0.15748
  0
CIRCLE
  8
VBORE_Z0P4921
 62
     3
 10
12.375
 20
22.8068071428571
 30
0.0
 40
0.15748
  0
CIRCLE
  8
VBORE_Z0P4921
 62
     3
 10
12.375
 20
19.3734542857143
 30
0.0
 40
0.15748
  0
CIRCLE
  8
VBORE_Z0P4921
 62
     3
 10
12.375
 20
15.9401014285714
 30
0.0
 40
0.15748
  0
CIRCLE
  8
VBORE_Z0P4921
 62
     3
 10
12.375
 20
12.5067485714286
 30
0.0
 40
0.15748
  0
CIRCLE
  8
VBORE_Z0P4921
 62
     3
 10
12.375
 20
9.0733957142857
 30
0.0
 40
0.15748
  0
CIRCLE
  8
VBORE_Z0P4921
 62
     3
 10
12.375
 20
5.6400428571429
 30
0.0
 40
0.15748
  0
CIRCLE
  8
VBORE_Z0P4921
 62
     3
 10
12.375
 20
2.20669
 30
0.0
 40
0.15748
  0
DIMENSION
  8
2D_DIM
  2
*D1
  3
BOARDERDIM
  1
30.688
 10
30.6875
 20
32.5
 30
0.0
 11
15.34375
 21
32.5
 31
0.0
 13
0
 23
27.5
 14
30.6875
 24
27.5
 33
0.0
 34
0.0
53
0
  0
DIMENSION
  8
2D_DIM
  2
*D1
  3
BOARDERDIM
  1
27.5
 10
-5
 20
27.5
 30
0.0
 11
-5
 21
13.75
 31
0
 13
0.0
 23
0
 14
0.0
 24
27.5
 50
90.0
53
0
 33
0.0
 34
0.0
  0
DIMENSION
  8
2D_DIM
  2
*D1
  3
VDRILLDIM
  1
0.375
 10
0.375
 20
30
 30
0.0
 11
0.1875
 21
30
 31
0.0
 13
0
 23
27.5
 14
0.375
 24
27.5
 33
0.0
 34
0.0
53
90
  0
DIMENSION
  8
2D_DIM
  2
*D1
  3
VDRILLDIM
  1
30.312
 10
30.6875
 20
30
 30
0.0
 11
15.34375
 21
30
 31
0.0
 13
0.375
 23
27.5
 14
30.6875
 24
27.5
 33
0.0
 34
0.0
53
90
  0
DIMENSION
  8
2D_DIM
  2
*D1
  3
VDRILLDIM
  1
12.375
 10
12.375
 20
-2.5
 30
0.0
 11
6.1875
 21
-2.5
 31
0.0
 13
0
 23
0.0
 14
12.375
 24
0.0
 33
0.0
 34
0.0
53
90
  0
DIMENSION
  8
2D_DIM
  2
*D1
  3
VDRILLDIM
  1
17.938
 10
30.3125
 20
-2.5
 30
0.0
 11
15.15625
 21
-2.5
 31
0.0
 13
12.375
 23
0.0
 14
30.3125
 24
0.0
 33
0.0
 34
0.0
53
90
  0
DIMENSION
  8
2D_DIM
  2
*D1
  3
VDRILLDIM
  1
0.375
 10
30.6875
 20
-2.5
 30
0.0
 11
15.34375
 21
-2.5
 31
0.0
 13
30.3125
 23
0.0
 14
30.6875
 24
0.0
 33
0.0
 34
0.0
53
90
  0
DIMENSION
  8
2D_DIM
  2
*D1
  3
VDRILLDIM
  1
1.457
 10
-2.5
 20
1.45669
 30
0.0
 11
-2.5
 21
0.728345
 31
0
 13
0.0
 23
0
 14
0.0
 24
1.45669
 50
90.0
53
0
 33
0.0
 34
0.0
  0
DIMENSION
  8
2D_DIM
  2
*D1
  3
VDRILLDIM
  1
0.75
 10
-2.5
 20
2.20669
 30
0.0
 11
-2.5
 21
1.103345
 31
0
 13
0.0
 23
1.45669
 14
0.0
 24
2.20669
 50
90.0
53
0
 33
0.0
 34
0.0
  0
DIMENSION
  8
2D_DIM
  2
*D1
  3
VDRILLDIM
  1
2.79
 10
-2.5
 20
4.9971857142857
 30
0.0
 11
-2.5
 21
2.49859285714285
 31
0
 13
0.0
 23
2.20669
 14
0.0
 24
4.9971857142857
 50
90.0
53
0
 33
0.0
 34
0.0
  0
DIMENSION
  8
2D_DIM
  2
*D1
  3
VDRILLDIM
  1
0.643
 10
-2.5
 20
5.6400428571429
 30
0.0
 11
-2.5
 21
2.82002142857145
 31
0
 13
0.0
 23
4.9971857142857
 14
0.0
 24
5.6400428571429
 50
90.0
53
0
 33
0.0
 34
0.0
  0
DIMENSION
  8
2D_DIM
  2
*D1
  3
VDRILLDIM
  1
2.898
 10
-2.5
 20
8.5376814285714
 30
0.0
 11
-2.5
 21
4.2688407142857
 31
0
 13
0.0
 23
5.6400428571429
 14
0.0
 24
8.5376814285714
 50
90.0
53
0
 33
0.0
 34
0.0
  0
DIMENSION
  8
2D_DIM
  2
*D1
  3
VDRILLDIM
  1
0.536
 10
-2.5
 20
9.0733957142857
 30
0.0
 11
-2.5
 21
4.53669785714285
 31
0
 13
0.0
 23
8.5376814285714
 14
0.0
 24
9.0733957142857
 50
90.0
53
0
 33
0.0
 34
0.0
  0
DIMENSION
  8
2D_DIM
  2
*D1
  3
VDRILLDIM
  1
3.005
 10
-2.5
 20
12.0781771428571
 30
0.0
 11
-2.5
 21
6.03908857142855
 31
0
 13
0.0
 23
9.0733957142857
 14
0.0
 24
12.0781771428571
 50
90.0
53
0
 33
0.0
 34
0.0
  0
DIMENSION
  8
2D_DIM
  2
*D1
  3
VDRILLDIM
  1
0.429
 10
-2.5
 20
12.5067485714286
 30
0.0
 11
-2.5
 21
6.2533742857143
 31
0
 13
0.0
 23
12.0781771428571
 14
0.0
 24
12.5067485714286
 50
90.0
53
0
 33
0.0
 34
0.0
  0
DIMENSION
  8
2D_DIM
  2
*D1
  3
VDRILLDIM
  1
3.112
 10
-2.5
 20
15.6186728571429
 30
0.0
 11
-2.5
 21
7.80933642857145
 31
0
 13
0.0
 23
12.5067485714286
 14
0.0
 24
15.6186728571429
 50
90.0
53
0
 33
0.0
 34
0.0
  0
DIMENSION
  8
2D_DIM
  2
*D1
  3
VDRILLDIM
  1
0.321
 10
-2.5
 20
15.9401014285714
 30
0.0
 11
-2.5
 21
7.9700507142857
 31
0
 13
0.0
 23
15.6186728571429
 14
0.0
 24
15.9401014285714
 50
90.0
53
0
 33
0.0
 34
0.0
  0
DIMENSION
  8
2D_DIM
  2
*D1
  3
VDRILLDIM
  1
3.219
 10
-2.5
 20
19.1591685714286
 30
0.0
 11
-2.5
 21
9.5795842857143
 31
0
 13
0.0
 23
15.9401014285714
 14
0.0
 24
19.1591685714286
 50
90.0
53
0
 33
0.0
 34
0.0
  0
DIMENSION
  8
2D_DIM
  2
*D1
  3
VDRILLDIM
  1
0.214
 10
-2.5
 20
19.3734542857143
 30
0.0
 11
-2.5
 21
9.68672714285715
 31
0
 13
0.0
 23
19.1591685714286
 14
0.0
 24
19.3734542857143
 50
90.0
53
0
 33
0.0
 34
0.0
  0
DIMENSION
  8
2D_DIM
  2
*D1
  3
VDRILLDIM
  1
3.326
 10
-2.5
 20
22.6996642857143
 30
0.0
 11
-2.5
 21
11.3498321428571
 31
0
 13
0.0
 23
19.3734542857143
 14
0.0
 24
22.6996642857143
 50
90.0
53
0
 33
0.0
 34
0.0
  0
DIMENSION
  8
2D_DIM
  2
*D1
  3
VDRILLDIM
  1
0.107
 10
-2.5
 20
22.8068071428571
 30
0.0
 11
-2.5
 21
11.4034035714285
 31
0
 13
0.0
 23
22.6996642857143
 14
0.0
 24
22.8068071428571
 50
90.0
53
0
 33
0.0
 34
0.0
  0
DIMENSION
  8
2D_DIM
  2
*D1
  3
VDRILLDIM
  1
3.433
 10
-2.5
 20
26.24016
 30
0.0
 11
-2.5
 21
13.12008
 31
0
 13
0.0
 23
22.8068071428571
 14
0.0
 24
26.24016
 50
90.0
53
0
 33
0.0
 34
0.0
  0
DIMENSION
  8
2D_DIM
  2
*D1
  3
VDRILLDIM
  1
1.26
 10
-2.5
 20
27.5
 30
0.0
 11
-2.5
 21
13.75
 31
0
 13
0.0
 23
26.24016
 14
0.0
 24
27.5
 50
90.0
53
0
 33
0.0
 34
0.0
  0
TEXT
  8
ITEMNUMBER
 62
     1
 10
-7.5
 20
-5
 30
0.0
 40
0.5
  1
11.02
  0
TEXT
  8
DESCRIPTION
 62
     1
 10
-7.5
 20
-6
 30
0.0
 40
0.5
  1
Upper Open Left Side
  0
TEXT
  8
FILENAME
 62
     1
 10
-7.5
 20
-7
 30
0.0
 40
0.5
  1
5600AA28
  0
TEXT
  8
MATERIALNAME
 62
     1
 10
-7.5
 20
-8
 30
0.0
 40
0.5
  1
AB425SEI-PF/11-16MDF/WHCL/NAF/4x10
  0
TEXT
  8
Qty
 62
     1
 10
-7.5
 20
-9
 30
0.0
 40
0.5
  1
1
  0
TEXT
  8
RUNFIELD
 62
     1
 10
8
 20
-1
 30
0.0
 40
0.5
  1
Normal
  0
ENDSEC
  0
EOF
