  0
SECTION
  2
TABLES
  0
TABLE
  2
DIMSTYLE
 70
     2
  0
DIMSTYLE
  2
BOARDERDIM
 70
     0
  3

  4

  5
_NONE
  6
_NONE
  7
_NONE
 40
1
 41
0.1
 42
0.0625
 43
0.38
 44
0.18
 45
0.00
 46
0.0
 47
0.0
 48
0.0
140
0.5
141
0.09
142
0.0
143
25.399999999999999
144
1.0
145
0.5
146
1.0
147
0.09
 71
     1
 72
     0
 73
     1
 74
     0
 75
     0
 76
     0
 77
     2
 78
     0
170
     0
171
     2
172
     0
173
     0
174
     1
175
      0
176
5
177
5
178
     1
271
3
272
3
  0
ENDTAB
  0
TABLE
  2
DIMSTYLE
 70
     2
  0
DIMSTYLE
  2
VDRILLDIM
 70
     0
  3

  4

  5
_NONE
  6
_NONE
  7
_NONE
 40
1
 41
0.1
 42
0.0625
 43
0.38
 44
0.18
 45
0.00
 46
0.0
 47
0.0
 48
0.0
140
0.5
141
0.09
142
0.0
143
25.399999999999999
144
1.0
145
0.5
146
1.0
147
0.09
 71
     1
 72
     0
 73
     1
 74
     0
 75
     0
 76
     0
 77
     2
 78
     0
170
     0
171
     2
172
     0
173
     0
174
     1
175
      0
176
5
177
5
178
     1
271
3
272
3
  0
ENDTAB
  0
TABLE
  2
DIMSTYLE
 70
     2
  0
DIMSTYLE
  2
HDRILLDIM
 70
     0
  3

  4

  5
_NONE
  6
_NONE
  7
_NONE
 40
1
 41
0.1
 42
0.0625
 43
0.38
 44
0.18
 45
0.00
 46
0.0
 47
0.0
 48
0.0
140
0.5
141
0.09
142
0.0
143
25.399999999999999
144
1.0
145
0.5
146
1.0
147
0.09
 71
     1
 72
     0
 73
     1
 74
     0
 75
     0
 76
     0
 77
     2
 78
     0
170
     0
171
     2
172
     0
173
     0
174
     1
175
      0
176
5
177
5
178
     1
271
3
272
3
  0
ENDTAB
  0
TABLE
  2
DIMSTYLE
 70
     2
  0
DIMSTYLE
  2
ROUTEDIM
 70
     0
  3

  4

  5
_NONE
  6
_NONE
  7
_NONE
 40
1
 41
0.1
 42
0.0625
 43
0.38
 44
0.18
 45
0.00
 46
0.0
 47
0.0
 48
0.0
140
0.5
141
0.09
142
0.0
143
25.399999999999999
144
1.0
145
0.5
146
1.0
147
0.09
 71
     1
 72
     0
 73
     1
 74
     0
 75
     0
 76
     0
 77
     2
 78
     0
170
     0
171
     2
172
     0
173
     0
174
     1
175
      0
176
5
177
5
178
     1
271
3
272
3
  0
ENDTAB
  0
TABLE
  2
DIMSTYLE
 70
     2
  0
DIMSTYLE
  2
SAWDIM
 70
     0
  3

  4

  5
_NONE
  6
_NONE
  7
_NONE
 40
1
 41
0.1
 42
0.0625
 43
0.38
 44
0.18
 45
0.00
 46
0.0
 47
0.0
 48
0.0
140
0.5
141
0.09
142
0.0
143
25.399999999999999
144
1.0
145
0.5
146
1.0
147
0.09
 71
     1
 72
     0
 73
     1
 74
     0
 75
     0
 76
     0
 77
     2
 78
     0
170
     0
171
     2
172
     0
173
     0
174
     1
175
      0
176
5
177
5
178
     1
271
3
272
3
  0
ENDTAB
  0
TABLE
  2
VPORT
 70
     1
  0
VPORT
  2
*ACTIVE
 70
     0
 10
0.0
 20
0.0
 11
1.0
 21
1.0
 12
0.0
 22
0.0
 13
0.0
 23
0.0
 14
1.0
 24
1.0
 15
0.0
 25
0.0
 16
0.0
 26
0.0
 36
1.0
 17
0.0
 27
0.0
 37
0.0
 40
84
 41
2.0
 42
50.0
 43
0.0
 44
0.0
 50
0.0
 51
0.0
 71
     0
 72
   100
 73
     1
 74
     0
 75
     1
 76
     0
 77
     0
 78
     0
  0
ENDTAB
  0
ENDSEC
  0
SECTION
  2
ENTITIES
  0
POLYLINE
  8
BORDER_Z0P75
 62
     7
 66
     1
 10
0.0
 20
0.0
 30
0.0
 70
     1
  0
VERTEX
  8
BORDER_Z0P75
 62
     7
 10
0.0
 20
0.0
 30
0.0
  0
VERTEX
  8
BORDER_Z0P75
 62
     7
 10
0.0
 20
25.125
 30
0.0
  0
VERTEX
  8
BORDER_Z0P75
 62
     7
 10
48
 20
25.125
 30
0.0
  0
VERTEX
  8
BORDER_Z0P75
 62
     7
 10
48
 20
0.0
 30
0.0
  0
SEQEND
  8
BORDER_Z0P75
 62
     7
  0
POLYLINE
  8
ROUTE_Z0P75LT130RAMP
 62
     3
 66
     1
 10
0.0
 20
0.0
 30
0.0
 70
     0
  0
VERTEX
  8
ROUTE_Z0P75LT130RAMP
 62
     3
 10
22.078283
 20
-0.472114000000001
 30
0.0
  0
VERTEX
  8
ROUTE_Z0P75LT130RAMP
 62
     3
 10
22.117331
 20
-0.0991520000000001
 30
0.0
 42
0.168192908686869
  0
VERTEX
  8
ROUTE_Z0P75LT130RAMP
 62
     3
 10
18.44854
 20
17.890899
 30
0.0
 42
0.215997906126646
  0
VERTEX
  8
ROUTE_Z0P75LT130RAMP
 62
     3
 10
11.360507
 20
21.81673
 30
0.0
  0
VERTEX
  8
ROUTE_Z0P75LT130RAMP
 62
     3
 10
-0.1
 20
21.81673
 30
0.0
  0
VERTEX
  8
ROUTE_Z0P75LT130RAMP
 62
     3
 10
-0.475
 20
21.81673
 30
0.0
  0
SEQEND
  8
ROUTE_Z0P75LT130RAMP
 62
     3
  0
POLYLINE
  8
ROUTE_Z0P75LT130RAMP
 62
     3
 66
     1
 10
0.0
 20
0.0
 30
0.0
 70
     0
  0
VERTEX
  8
ROUTE_Z0P75LT130RAMP
 62
     3
 10
48.458291
 20
18.764144
 30
0.0
  0
VERTEX
  8
ROUTE_Z0P75LT130RAMP
 62
     3
 10
48.097445
 20
18.662088
 30
0.0
 42
0.380980377074805
  0
VERTEX
  8
ROUTE_Z0P75LT130RAMP
 62
     3
 10
34.727038
 20
-0.0994390000000003
 30
0.0
  0
VERTEX
  8
ROUTE_Z0P75LT130RAMP
 62
     3
 10
34.748341
 20
-0.473832999999999
 30
0.0
  0
SEQEND
  8
ROUTE_Z0P75LT130RAMP
 62
     3
  0
DIMENSION
  8
2D_DIM
  2
*D1
  3
BOARDERDIM
  1
48
 10
48
 20
30.125
 30
0.0
 11
24
 21
30.125
 31
0.0
 13
0
 23
25.125
 14
48
 24
25.125
 33
0.0
 34
0.0
53
0
  0
DIMENSION
  8
2D_DIM
  2
*D1
  3
BOARDERDIM
  1
25.125
 10
-5
 20
25.125
 30
0.0
 11
-5
 21
12.5625
 31
0
 13
0.0
 23
0
 14
0.0
 24
25.125
 50
90.0
53
0
 33
0.0
 34
0.0
  0
DIMENSION
  8
2D_DIM
  2
*D1
  3
ROUTEDIM
  1
-0.475
 10
-0.475
 20
27.625
 30
0.0
 11
-0.2375
 21
27.625
 31
0.0
 13
0
 23
25.125
 14
-0.475
 24
25.125
 33
0.0
 34
0.0
53
90
  0
DIMENSION
  8
2D_DIM
  2
*D1
  3
ROUTEDIM
  1
0.375
 10
-0.1
 20
27.625
 30
0.0
 11
-0.05
 21
27.625
 31
0.0
 13
-0.475
 23
25.125
 14
-0.1
 24
25.125
 33
0.0
 34
0.0
53
90
  0
DIMENSION
  8
2D_DIM
  2
*D1
  3
ROUTEDIM
  1
11.461
 10
11.360507
 20
27.625
 30
0.0
 11
5.6802535
 21
27.625
 31
0.0
 13
-0.1
 23
25.125
 14
11.360507
 24
25.125
 33
0.0
 34
0.0
53
90
  0
DIMENSION
  8
2D_DIM
  2
*D1
  3
ROUTEDIM
  1
7.088
 10
18.44854
 20
27.625
 30
0.0
 11
9.22427
 21
27.625
 31
0.0
 13
11.360507
 23
25.125
 14
18.44854
 24
25.125
 33
0.0
 34
0.0
53
90
  0
DIMENSION
  8
2D_DIM
  2
*D1
  3
ROUTEDIM
  1
3.63
 10
22.078283
 20
27.625
 30
0.0
 11
11.0391415
 21
27.625
 31
0.0
 13
18.44854
 23
25.125
 14
22.078283
 24
25.125
 33
0.0
 34
0.0
53
90
  0
DIMENSION
  8
2D_DIM
  2
*D1
  3
ROUTEDIM
  1
0.039
 10
22.117331
 20
27.625
 30
0.0
 11
11.0586655
 21
27.625
 31
0.0
 13
22.078283
 23
25.125
 14
22.117331
 24
25.125
 33
0.0
 34
0.0
53
90
  0
DIMENSION
  8
2D_DIM
  2
*D1
  3
ROUTEDIM
  1
12.61
 10
34.727038
 20
27.625
 30
0.0
 11
17.363519
 21
27.625
 31
0.0
 13
22.117331
 23
25.125
 14
34.727038
 24
25.125
 33
0.0
 34
0.0
53
90
  0
DIMENSION
  8
2D_DIM
  2
*D1
  3
ROUTEDIM
  1
0.021
 10
34.748341
 20
27.625
 30
0.0
 11
17.3741705
 21
27.625
 31
0.0
 13
34.727038
 23
25.125
 14
34.748341
 24
25.125
 33
0.0
 34
0.0
53
90
  0
DIMENSION
  8
2D_DIM
  2
*D1
  3
ROUTEDIM
  1
13.349
 10
48.097445
 20
27.625
 30
0.0
 11
24.0487225
 21
27.625
 31
0.0
 13
34.748341
 23
25.125
 14
48.097445
 24
25.125
 33
0.0
 34
0.0
53
90
  0
DIMENSION
  8
2D_DIM
  2
*D1
  3
ROUTEDIM
  1
0.361
 10
48.458291
 20
27.625
 30
0.0
 11
24.2291455
 21
27.625
 31
0.0
 13
48.097445
 23
25.125
 14
48.458291
 24
25.125
 33
0.0
 34
0.0
53
90
  0
DIMENSION
  8
2D_DIM
  2
*D1
  3
ROUTEDIM
  1
-0.458
 10
48
 20
27.625
 30
0.0
 11
24
 21
27.625
 31
0.0
 13
48.458291
 23
25.125
 14
48
 24
25.125
 33
0.0
 34
0.0
53
90
  0
DIMENSION
  8
2D_DIM
  2
*D1
  3
ROUTEDIM
  1
0.474
 10
-2.5
 20
-0.473832999999999
 30
0.0
 11
-2.5
 21
-0.2369165
 31
0
 13
0.0
 23
0
 14
0.0
 24
-0.473832999999999
 50
90.0
53
0
 33
0.0
 34
0.0
  0
DIMENSION
  8
2D_DIM
  2
*D1
  3
ROUTEDIM
  1
0.002
 10
-2.5
 20
-0.472114000000001
 30
0.0
 11
-2.5
 21
-0.236057
 31
0
 13
0.0
 23
-0.473832999999999
 14
0.0
 24
-0.472114000000001
 50
90.0
53
0
 33
0.0
 34
0.0
  0
DIMENSION
  8
2D_DIM
  2
*D1
  3
ROUTEDIM
  1
0.373
 10
-2.5
 20
-0.0994390000000003
 30
0.0
 11
-2.5
 21
-0.0497195000000002
 31
0
 13
0.0
 23
-0.472114000000001
 14
0.0
 24
-0.0994390000000003
 50
90.0
53
0
 33
0.0
 34
0.0
  0
DIMENSION
  8
2D_DIM
  2
*D1
  3
ROUTEDIM
  1
-0
 10
-2.5
 20
-0.0991520000000001
 30
0.0
 11
-2.5
 21
-0.0495760000000001
 31
0
 13
0.0
 23
-0.0994390000000003
 14
0.0
 24
-0.0991520000000001
 50
90.0
53
0
 33
0.0
 34
0.0
  0
DIMENSION
  8
2D_DIM
  2
*D1
  3
ROUTEDIM
  1
17.99
 10
-2.5
 20
17.890899
 30
0.0
 11
-2.5
 21
8.9454495
 31
0
 13
0.0
 23
-0.0991520000000001
 14
0.0
 24
17.890899
 50
90.0
53
0
 33
0.0
 34
0.0
  0
DIMENSION
  8
2D_DIM
  2
*D1
  3
ROUTEDIM
  1
0.771
 10
-2.5
 20
18.662088
 30
0.0
 11
-2.5
 21
9.331044
 31
0
 13
0.0
 23
17.890899
 14
0.0
 24
18.662088
 50
90.0
53
0
 33
0.0
 34
0.0
  0
DIMENSION
  8
2D_DIM
  2
*D1
  3
ROUTEDIM
  1
0.102
 10
-2.5
 20
18.764144
 30
0.0
 11
-2.5
 21
9.382072
 31
0
 13
0.0
 23
18.662088
 14
0.0
 24
18.764144
 50
90.0
53
0
 33
0.0
 34
0.0
  0
DIMENSION
  8
2D_DIM
  2
*D1
  3
ROUTEDIM
  1
3.053
 10
-2.5
 20
21.81673
 30
0.0
 11
-2.5
 21
10.908365
 31
0
 13
0.0
 23
18.764144
 14
0.0
 24
21.81673
 50
90.0
53
0
 33
0.0
 34
0.0
  0
DIMENSION
  8
2D_DIM
  2
*D1
  3
ROUTEDIM
  1
3.308
 10
-2.5
 20
25.125
 30
0.0
 11
-2.5
 21
12.5625
 31
0
 13
0.0
 23
21.81673
 14
0.0
 24
25.125
 50
90.0
53
0
 33
0.0
 34
0.0
  0
DIMENSION
  8
2D_DIM
  2
*D1
  3
ROUTEDIM
  1
-5.701
 10
-5.70081910759335
 20
3.59689102070925
 30
0.0
 11
-2.85040955379667
 21
3.59689102070925
 31
0.0
 13
0
 23
3.59689102070925
 14
-5.70081910759335
 24
3.59689102070925
 33
0.0
 34
0.0
53
90
  0
DIMENSION
  8
2D_DIM
  2
*D1
  3
ROUTEDIM
  1
3.597
 10
-5.70081910759335
 20
3.59689102070925
 30
0.0
 11
-5.70081910759335
 21
1.79844551035463
 31
0
 13
-5.70081910759335
 23
0
 14
-5.70081910759335
 24
3.59689102070925
 50
90.0
53
0
 33
0.0
 34
0.0
  0
DIMENSION
  8
2D_DIM
  2
*D1
  3
ROUTEDIM
  1
10.573
 10
10.5726863920795
 20
12.0327431468101
 30
0.0
 11
5.28634319603975
 21
12.0327431468101
 31
0.0
 13
0
 23
12.0327431468101
 14
10.5726863920795
 24
12.0327431468101
 33
0.0
 34
0.0
53
90
  0
DIMENSION
  8
2D_DIM
  2
*D1
  3
ROUTEDIM
  1
12.033
 10
10.5726863920795
 20
12.0327431468101
 30
0.0
 11
10.5726863920795
 21
6.01637157340503
 31
0
 13
10.5726863920795
 23
0
 14
10.5726863920795
 24
12.0327431468101
 50
90.0
53
0
 33
0.0
 34
0.0
  0
DIMENSION
  8
2D_DIM
  2
*D1
  3
ROUTEDIM
  1
51.937
 10
51.9366454272938
 20
1.78110535790582
 30
0.0
 11
25.9683227136469
 21
1.78110535790582
 31
0.0
 13
0
 23
1.78110535790582
 14
51.9366454272938
 24
1.78110535790582
 33
0.0
 34
0.0
53
90
  0
DIMENSION
  8
2D_DIM
  2
*D1
  3
ROUTEDIM
  1
1.781
 10
51.9366454272938
 20
1.78110535790582
 30
0.0
 11
51.9366454272938
 21
0.890552678952909
 31
0
 13
51.9366454272938
 23
0
 14
51.9366454272938
 24
1.78110535790582
 50
90.0
53
0
 33
0.0
 34
0.0
  0
TEXT
  8
ITEMNUMBER
 62
     1
 10
-7.5
 20
-5
 30
0.0
 40
0.5
  1
M3100.04
  0
TEXT
  8
DESCRIPTION
 62
     1
 10
-7.5
 20
-6
 30
0.0
 40
0.5
  1
P2A
  0
TEXT
  8
FILENAME
 62
     1
 10
-7.5
 20
-7
 30
0.0
 40
0.5
  1
5600ADKQ
  0
TEXT
  8
MATERIALNAME
 62
     1
 10
-7.5
 20
-8
 30
0.0
 40
0.5
  1
MDF/3-4/4x8
  0
TEXT
  8
Qty
 62
     1
 10
-7.5
 20
-9
 30
0.0
 40
0.5
  1
1
  0
TEXT
  8
COMMENT
 62
     1
 10
-7.5
 20
-9
 30
0.0
 40
0.5
  1
A machining operation has been identified but none of the SMA Routers in your Primary ToolFile have a qualifying diameter   
  0
TEXT
  8
RUNFIELD
 62
     1
 10
8
 20
-1
 30
0.0
 40
0.5
  1
Mirrored
  0
ENDSEC
  0
EOF
