  0
SECTION
  2
TABLES
  0
TABLE
  2
DIMSTYLE
 70
     2
  0
DIMSTYLE
  2
BOARDERDIM
 70
     0
  3

  4

  5
_NONE
  6
_NONE
  7
_NONE
 40
1
 41
0.1
 42
0.0625
 43
0.38
 44
0.18
 45
0.00
 46
0.0
 47
0.0
 48
0.0
140
0.5
141
0.09
142
0.0
143
25.399999999999999
144
1.0
145
0.5
146
1.0
147
0.09
 71
     1
 72
     0
 73
     1
 74
     0
 75
     0
 76
     0
 77
     2
 78
     0
170
     0
171
     2
172
     0
173
     0
174
     1
175
      0
176
5
177
5
178
     1
271
3
272
3
  0
ENDTAB
  0
TABLE
  2
DIMSTYLE
 70
     2
  0
DIMSTYLE
  2
VDRILLDIM
 70
     0
  3

  4

  5
_NONE
  6
_NONE
  7
_NONE
 40
1
 41
0.1
 42
0.0625
 43
0.38
 44
0.18
 45
0.00
 46
0.0
 47
0.0
 48
0.0
140
0.5
141
0.09
142
0.0
143
25.399999999999999
144
1.0
145
0.5
146
1.0
147
0.09
 71
     1
 72
     0
 73
     1
 74
     0
 75
     0
 76
     0
 77
     2
 78
     0
170
     0
171
     2
172
     0
173
     0
174
     1
175
      0
176
5
177
5
178
     1
271
3
272
3
  0
ENDTAB
  0
TABLE
  2
DIMSTYLE
 70
     2
  0
DIMSTYLE
  2
HDRILLDIM
 70
     0
  3

  4

  5
_NONE
  6
_NONE
  7
_NONE
 40
1
 41
0.1
 42
0.0625
 43
0.38
 44
0.18
 45
0.00
 46
0.0
 47
0.0
 48
0.0
140
0.5
141
0.09
142
0.0
143
25.399999999999999
144
1.0
145
0.5
146
1.0
147
0.09
 71
     1
 72
     0
 73
     1
 74
     0
 75
     0
 76
     0
 77
     2
 78
     0
170
     0
171
     2
172
     0
173
     0
174
     1
175
      0
176
5
177
5
178
     1
271
3
272
3
  0
ENDTAB
  0
TABLE
  2
DIMSTYLE
 70
     2
  0
DIMSTYLE
  2
ROUTEDIM
 70
     0
  3

  4

  5
_NONE
  6
_NONE
  7
_NONE
 40
1
 41
0.1
 42
0.0625
 43
0.38
 44
0.18
 45
0.00
 46
0.0
 47
0.0
 48
0.0
140
0.5
141
0.09
142
0.0
143
25.399999999999999
144
1.0
145
0.5
146
1.0
147
0.09
 71
     1
 72
     0
 73
     1
 74
     0
 75
     0
 76
     0
 77
     2
 78
     0
170
     0
171
     2
172
     0
173
     0
174
     1
175
      0
176
5
177
5
178
     1
271
3
272
3
  0
ENDTAB
  0
TABLE
  2
DIMSTYLE
 70
     2
  0
DIMSTYLE
  2
SAWDIM
 70
     0
  3

  4

  5
_NONE
  6
_NONE
  7
_NONE
 40
1
 41
0.1
 42
0.0625
 43
0.38
 44
0.18
 45
0.00
 46
0.0
 47
0.0
 48
0.0
140
0.5
141
0.09
142
0.0
143
25.399999999999999
144
1.0
145
0.5
146
1.0
147
0.09
 71
     1
 72
     0
 73
     1
 74
     0
 75
     0
 76
     0
 77
     2
 78
     0
170
     0
171
     2
172
     0
173
     0
174
     1
175
      0
176
5
177
5
178
     1
271
3
272
3
  0
ENDTAB
  0
TABLE
  2
VPORT
 70
     1
  0
VPORT
  2
*ACTIVE
 70
     0
 10
0.0
 20
0.0
 11
1.0
 21
1.0
 12
0.0
 22
0.0
 13
0.0
 23
0.0
 14
1.0
 24
1.0
 15
0.0
 25
0.0
 16
0.0
 26
0.0
 36
1.0
 17
0.0
 27
0.0
 37
0.0
 40
84
 41
2.0
 42
50.0
 43
0.0
 44
0.0
 50
0.0
 51
0.0
 71
     0
 72
   100
 73
     1
 74
     0
 75
     1
 76
     0
 77
     0
 78
     0
  0
ENDTAB
  0
ENDSEC
  0
SECTION
  2
ENTITIES
  0
POLYLINE
  8
BORDER_Z0P04
 62
     7
 66
     1
 10
0.0
 20
0.0
 30
0.0
 70
     1
  0
VERTEX
  8
BORDER_Z0P04
 62
     7
 10
0.0
 20
0.0
 30
0.0
  0
VERTEX
  8
BORDER_Z0P04
 62
     7
 10
0.0
 20
2.6307
 30
0.0
  0
VERTEX
  8
BORDER_Z0P04
 62
     7
 10
4.4224
 20
2.6307
 30
0.0
  0
VERTEX
  8
BORDER_Z0P04
 62
     7
 10
4.4224
 20
0.0
 30
0.0
  0
SEQEND
  8
BORDER_Z0P04
 62
     7
  0
POLYLINE
  8
ROUTE_Z0P25LT130RAMP
 62
     3
 66
     1
 10
0.0
 20
0.0
 30
0.0
 70
     0
  0
VERTEX
  8
ROUTE_Z0P25LT130RAMP
 62
     3
 10
4.867485
 20
1.511648
 30
0.0
  0
VERTEX
  8
ROUTE_Z0P25LT130RAMP
 62
     3
 10
4.516077
 20
1.380738
 30
0.0
 42
-0.0170062352790924
  0
VERTEX
  8
ROUTE_Z0P25LT130RAMP
 62
     3
 10
0.424166
 20
3.2000000000032E-05
 30
0.0
 42
0.0338550827118053
  0
VERTEX
  8
ROUTE_Z0P25LT130RAMP
 62
     3
 10
-0.022559
 20
2.728122
 30
0.0
  0
VERTEX
  8
ROUTE_Z0P25LT130RAMP
 62
     3
 10
-0.105987
 20
3.093724
 30
0.0
  0
SEQEND
  8
ROUTE_Z0P25LT130RAMP
 62
     3
  0
DIMENSION
  8
2D_DIM
  2
*D1
  3
BOARDERDIM
  1
4.422
 10
4.4224
 20
7.6307
 30
0.0
 11
2.2112
 21
7.6307
 31
0.0
 13
0
 23
2.6307
 14
4.4224
 24
2.6307
 33
0.0
 34
0.0
53
0
  0
DIMENSION
  8
2D_DIM
  2
*D1
  3
BOARDERDIM
  1
2.631
 10
-5
 20
2.6307
 30
0.0
 11
-5
 21
1.31535
 31
0
 13
0.0
 23
0
 14
0.0
 24
2.6307
 50
90.0
53
0
 33
0.0
 34
0.0
  0
DIMENSION
  8
2D_DIM
  2
*D1
  3
ROUTEDIM
  1
-0.106
 10
-0.105987
 20
5.1307
 30
0.0
 11
-0.0529935
 21
5.1307
 31
0.0
 13
0
 23
2.6307
 14
-0.105987
 24
2.6307
 33
0.0
 34
0.0
53
90
  0
DIMENSION
  8
2D_DIM
  2
*D1
  3
ROUTEDIM
  1
0.083
 10
-0.022559
 20
5.1307
 30
0.0
 11
-0.0112795
 21
5.1307
 31
0.0
 13
-0.105987
 23
2.6307
 14
-0.022559
 24
2.6307
 33
0.0
 34
0.0
53
90
  0
DIMENSION
  8
2D_DIM
  2
*D1
  3
ROUTEDIM
  1
0.447
 10
0.424166
 20
5.1307
 30
0.0
 11
0.212083
 21
5.1307
 31
0.0
 13
-0.022559
 23
2.6307
 14
0.424166
 24
2.6307
 33
0.0
 34
0.0
53
90
  0
DIMENSION
  8
2D_DIM
  2
*D1
  3
ROUTEDIM
  1
4.092
 10
4.516077
 20
5.1307
 30
0.0
 11
2.2580385
 21
5.1307
 31
0.0
 13
0.424166
 23
2.6307
 14
4.516077
 24
2.6307
 33
0.0
 34
0.0
53
90
  0
DIMENSION
  8
2D_DIM
  2
*D1
  3
ROUTEDIM
  1
0.351
 10
4.867485
 20
5.1307
 30
0.0
 11
2.4337425
 21
5.1307
 31
0.0
 13
4.516077
 23
2.6307
 14
4.867485
 24
2.6307
 33
0.0
 34
0.0
53
90
  0
DIMENSION
  8
2D_DIM
  2
*D1
  3
ROUTEDIM
  1
-0.445
 10
4.4224
 20
5.1307
 30
0.0
 11
2.2112
 21
5.1307
 31
0.0
 13
4.867485
 23
2.6307
 14
4.4224
 24
2.6307
 33
0.0
 34
0.0
53
90
  0
DIMENSION
  8
2D_DIM
  2
*D1
  3
ROUTEDIM
  1
-0
 10
-2.5
 20
3.2000000000032E-05
 30
0.0
 11
-2.5
 21
1.6000000000016E-05
 31
0
 13
0.0
 23
0
 14
0.0
 24
3.2000000000032E-05
 50
90.0
53
0
 33
0.0
 34
0.0
  0
DIMENSION
  8
2D_DIM
  2
*D1
  3
ROUTEDIM
  1
1.381
 10
-2.5
 20
1.380738
 30
0.0
 11
-2.5
 21
0.690369
 31
0
 13
0.0
 23
3.2000000000032E-05
 14
0.0
 24
1.380738
 50
90.0
53
0
 33
0.0
 34
0.0
  0
DIMENSION
  8
2D_DIM
  2
*D1
  3
ROUTEDIM
  1
0.131
 10
-2.5
 20
1.511648
 30
0.0
 11
-2.5
 21
0.755824
 31
0
 13
0.0
 23
1.380738
 14
0.0
 24
1.511648
 50
90.0
53
0
 33
0.0
 34
0.0
  0
DIMENSION
  8
2D_DIM
  2
*D1
  3
ROUTEDIM
  1
1.216
 10
-2.5
 20
2.728122
 30
0.0
 11
-2.5
 21
1.364061
 31
0
 13
0.0
 23
1.511648
 14
0.0
 24
2.728122
 50
90.0
53
0
 33
0.0
 34
0.0
  0
DIMENSION
  8
2D_DIM
  2
*D1
  3
ROUTEDIM
  1
0.366
 10
-2.5
 20
3.093724
 30
0.0
 11
-2.5
 21
1.546862
 31
0
 13
0.0
 23
2.728122
 14
0.0
 24
3.093724
 50
90.0
53
0
 33
0.0
 34
0.0
  0
DIMENSION
  8
2D_DIM
  2
*D1
  3
ROUTEDIM
  1
0.463
 10
-2.5
 20
2.6307
 30
0.0
 11
-2.5
 21
1.31535
 31
0
 13
0.0
 23
3.093724
 14
0.0
 24
2.6307
 50
90.0
53
0
 33
0.0
 34
0.0
  0
DIMENSION
  8
2D_DIM
  2
*D1
  3
ROUTEDIM
  1
-17.821
 10
-17.8210637704447
 20
60.8260867432899
 30
0.0
 11
-8.91053188522237
 21
60.8260867432899
 31
0.0
 13
0
 23
60.8260867432899
 14
-17.8210637704447
 24
60.8260867432899
 33
0.0
 34
0.0
53
90
  0
DIMENSION
  8
2D_DIM
  2
*D1
  3
ROUTEDIM
  1
60.826
 10
-17.8210637704447
 20
60.8260867432899
 30
0.0
 11
-17.8210637704447
 21
30.4130433716449
 31
0
 13
-17.8210637704447
 23
0
 14
-17.8210637704447
 24
60.8260867432899
 50
90.0
53
0
 33
0.0
 34
0.0
  0
DIMENSION
  8
2D_DIM
  2
*D1
  3
ROUTEDIM
  1
-19.921
 10
-19.9214568522148
 20
-1.93094506886252
 30
0.0
 11
-9.9607284261074
 21
-1.93094506886252
 31
0.0
 13
0
 23
-1.93094506886252
 14
-19.9214568522148
 24
-1.93094506886252
 33
0.0
 34
0.0
53
90
  0
DIMENSION
  8
2D_DIM
  2
*D1
  3
ROUTEDIM
  1
1.931
 10
-19.9214568522148
 20
-1.93094506886252
 30
0.0
 11
-19.9214568522148
 21
-0.965472534431261
 31
0
 13
-19.9214568522148
 23
0
 14
-19.9214568522148
 24
-1.93094506886252
 50
90.0
53
0
 33
0.0
 34
0.0
  0
TEXT
  8
ITEMNUMBER
 62
     1
 10
-7.5
 20
-5
 30
0.0
 40
0.5
  1
T31106.22
  0
TEXT
  8
DESCRIPTION
 62
     1
 10
-7.5
 20
-6
 30
0.0
 40
0.5
  1
P3A
  0
TEXT
  8
FILENAME
 62
     1
 10
-7.5
 20
-7
 30
0.0
 40
0.5
  1
5600AE4E
  0
TEXT
  8
MATERIALNAME
 62
     1
 10
-7.5
 20
-8
 30
0.0
 40
0.5
  1
AB1860SEI-PF/4x10
  0
TEXT
  8
Qty
 62
     1
 10
-7.5
 20
-9
 30
0.0
 40
0.5
  1
2
  0
TEXT
  8
RUNFIELD
 62
     1
 10
8
 20
-1
 30
0.0
 40
0.5
  1
Mirrored
  0
ENDSEC
  0
EOF
