  0
SECTION
  2
TABLES
  0
TABLE
  2
DIMSTYLE
 70
     2
  0
DIMSTYLE
  2
BOARDERDIM
 70
     0
  3

  4

  5
_NONE
  6
_NONE
  7
_NONE
 40
1
 41
0.1
 42
0.0625
 43
0.38
 44
0.18
 45
0.00
 46
0.0
 47
0.0
 48
0.0
140
0.5
141
0.09
142
0.0
143
25.399999999999999
144
1.0
145
0.5
146
1.0
147
0.09
 71
     1
 72
     0
 73
     1
 74
     0
 75
     0
 76
     0
 77
     2
 78
     0
170
     0
171
     2
172
     0
173
     0
174
     1
175
      0
176
5
177
5
178
     1
271
3
272
3
  0
ENDTAB
  0
TABLE
  2
DIMSTYLE
 70
     2
  0
DIMSTYLE
  2
VDRILLDIM
 70
     0
  3

  4

  5
_NONE
  6
_NONE
  7
_NONE
 40
1
 41
0.1
 42
0.0625
 43
0.38
 44
0.18
 45
0.00
 46
0.0
 47
0.0
 48
0.0
140
0.5
141
0.09
142
0.0
143
25.399999999999999
144
1.0
145
0.5
146
1.0
147
0.09
 71
     1
 72
     0
 73
     1
 74
     0
 75
     0
 76
     0
 77
     2
 78
     0
170
     0
171
     2
172
     0
173
     0
174
     1
175
      0
176
5
177
5
178
     1
271
3
272
3
  0
ENDTAB
  0
TABLE
  2
DIMSTYLE
 70
     2
  0
DIMSTYLE
  2
HDRILLDIM
 70
     0
  3

  4

  5
_NONE
  6
_NONE
  7
_NONE
 40
1
 41
0.1
 42
0.0625
 43
0.38
 44
0.18
 45
0.00
 46
0.0
 47
0.0
 48
0.0
140
0.5
141
0.09
142
0.0
143
25.399999999999999
144
1.0
145
0.5
146
1.0
147
0.09
 71
     1
 72
     0
 73
     1
 74
     0
 75
     0
 76
     0
 77
     2
 78
     0
170
     0
171
     2
172
     0
173
     0
174
     1
175
      0
176
5
177
5
178
     1
271
3
272
3
  0
ENDTAB
  0
TABLE
  2
DIMSTYLE
 70
     2
  0
DIMSTYLE
  2
ROUTEDIM
 70
     0
  3

  4

  5
_NONE
  6
_NONE
  7
_NONE
 40
1
 41
0.1
 42
0.0625
 43
0.38
 44
0.18
 45
0.00
 46
0.0
 47
0.0
 48
0.0
140
0.5
141
0.09
142
0.0
143
25.399999999999999
144
1.0
145
0.5
146
1.0
147
0.09
 71
     1
 72
     0
 73
     1
 74
     0
 75
     0
 76
     0
 77
     2
 78
     0
170
     0
171
     2
172
     0
173
     0
174
     1
175
      0
176
5
177
5
178
     1
271
3
272
3
  0
ENDTAB
  0
TABLE
  2
DIMSTYLE
 70
     2
  0
DIMSTYLE
  2
SAWDIM
 70
     0
  3

  4

  5
_NONE
  6
_NONE
  7
_NONE
 40
1
 41
0.1
 42
0.0625
 43
0.38
 44
0.18
 45
0.00
 46
0.0
 47
0.0
 48
0.0
140
0.5
141
0.09
142
0.0
143
25.399999999999999
144
1.0
145
0.5
146
1.0
147
0.09
 71
     1
 72
     0
 73
     1
 74
     0
 75
     0
 76
     0
 77
     2
 78
     0
170
     0
171
     2
172
     0
173
     0
174
     1
175
      0
176
5
177
5
178
     1
271
3
272
3
  0
ENDTAB
  0
TABLE
  2
VPORT
 70
     1
  0
VPORT
  2
*ACTIVE
 70
     0
 10
0.0
 20
0.0
 11
1.0
 21
1.0
 12
0.0
 22
0.0
 13
0.0
 23
0.0
 14
1.0
 24
1.0
 15
0.0
 25
0.0
 16
0.0
 26
0.0
 36
1.0
 17
0.0
 27
0.0
 37
0.0
 40
84
 41
2.0
 42
50.0
 43
0.0
 44
0.0
 50
0.0
 51
0.0
 71
     0
 72
   100
 73
     1
 74
     0
 75
     1
 76
     0
 77
     0
 78
     0
  0
ENDTAB
  0
ENDSEC
  0
SECTION
  2
ENTITIES
  0
POLYLINE
  8
BORDER_Z0P04
 62
     7
 66
     1
 10
0.0
 20
0.0
 30
0.0
 70
     1
  0
VERTEX
  8
BORDER_Z0P04
 62
     7
 10
0.0
 20
0.0
 30
0.0
  0
VERTEX
  8
BORDER_Z0P04
 62
     7
 10
0.0
 20
86
 30
0.0
  0
VERTEX
  8
BORDER_Z0P04
 62
     7
 10
50
 20
86
 30
0.0
  0
VERTEX
  8
BORDER_Z0P04
 62
     7
 10
50
 20
0.0
 30
0.0
  0
SEQEND
  8
BORDER_Z0P04
 62
     7
  0
POLYLINE
  8
ROUTE_Z0P25LT130RAMP
 62
     3
 66
     1
 10
0.0
 20
0.0
 30
0.0
 70
     0
  0
VERTEX
  8
ROUTE_Z0P25LT130RAMP
 62
     3
 10
50.355721
 20
65.105036
 30
0.0
  0
VERTEX
  8
ROUTE_Z0P25LT130RAMP
 62
     3
 10
50.076043
 20
64.855226
 30
0.0
 42
0.172528143698257
  0
VERTEX
  8
ROUTE_Z0P25LT130RAMP
 62
     3
 10
20.127496
 20
12.891295
 30
0.0
 42
0.998932538429605
  0
VERTEX
  8
ROUTE_Z0P25LT130RAMP
 62
     3
 10
11.594949
 20
1.792154
 30
0.0
 42
-0.715845572187904
  0
VERTEX
  8
ROUTE_Z0P25LT130RAMP
 62
     3
 10
10.984628
 20
0
 30
0.0
  0
VERTEX
  8
ROUTE_Z0P25LT130RAMP
 62
     3
 10
9.989094
 20
-0.0995530000000002
 30
0.0
  0
VERTEX
  8
ROUTE_Z0P25LT130RAMP
 62
     3
 10
9.615955
 20
-0.136866999999995
 30
0.0
  0
SEQEND
  8
ROUTE_Z0P25LT130RAMP
 62
     3
  0
POLYLINE
  8
ROUTE_Z0P25LT130RAMP
 62
     3
 66
     1
 10
0.0
 20
0.0
 30
0.0
 70
     0
  0
VERTEX
  8
ROUTE_Z0P25LT130RAMP
 62
     3
 10
-0.369661
 20
25.94956
 30
0.0
  0
VERTEX
  8
ROUTE_Z0P25LT130RAMP
 62
     3
 10
-0.075102
 20
25.717483
 30
0.0
 42
2.22105369070916
  0
VERTEX
  8
ROUTE_Z0P25LT130RAMP
 62
     3
 10
-0.075102
 20
47.056948
 30
0.0
  0
VERTEX
  8
ROUTE_Z0P25LT130RAMP
 62
     3
 10
-0.369661
 20
46.824871
 30
0.0
  0
SEQEND
  8
ROUTE_Z0P25LT130RAMP
 62
     3
  0
POLYLINE
  8
ROUTE_Z0P25LT130RAMP
 62
     3
 66
     1
 10
0.0
 20
0.0
 30
0.0
 70
     0
  0
VERTEX
  8
ROUTE_Z0P25LT130RAMP
 62
     3
 10
-0.232856
 20
55.839462
 30
0.0
  0
VERTEX
  8
ROUTE_Z0P25LT130RAMP
 62
     3
 10
-0.04818
 20
56.165835
 30
0.0
 42
-0.0758757226779652
  0
VERTEX
  8
ROUTE_Z0P25LT130RAMP
 62
     3
 10
22.862757
 20
86.069324
 30
0.0
  0
VERTEX
  8
ROUTE_Z0P25LT130RAMP
 62
     3
 10
23.129826
 20
86.332571
 30
0.0
  0
SEQEND
  8
ROUTE_Z0P25LT130RAMP
 62
     3
  0
DIMENSION
  8
2D_DIM
  2
*D1
  3
BOARDERDIM
  1
50
 10
50
 20
91
 30
0.0
 11
25
 21
91
 31
0.0
 13
0
 23
86
 14
50
 24
86
 33
0.0
 34
0.0
53
0
  0
DIMENSION
  8
2D_DIM
  2
*D1
  3
BOARDERDIM
  1
86
 10
-5
 20
86
 30
0.0
 11
-5
 21
43
 31
0
 13
0.0
 23
0
 14
0.0
 24
86
 50
90.0
53
0
 33
0.0
 34
0.0
  0
DIMENSION
  8
2D_DIM
  2
*D1
  3
ROUTEDIM
  1
-0.37
 10
-0.369661
 20
88.5
 30
0.0
 11
-0.1848305
 21
88.5
 31
0.0
 13
0
 23
86
 14
-0.369661
 24
86
 33
0.0
 34
0.0
53
90
  0
DIMENSION
  8
2D_DIM
  2
*D1
  3
ROUTEDIM
  1
0.137
 10
-0.232856
 20
88.5
 30
0.0
 11
-0.116428
 21
88.5
 31
0.0
 13
-0.369661
 23
86
 14
-0.232856
 24
86
 33
0.0
 34
0.0
53
90
  0
DIMENSION
  8
2D_DIM
  2
*D1
  3
ROUTEDIM
  1
0.158
 10
-0.075102
 20
88.5
 30
0.0
 11
-0.037551
 21
88.5
 31
0.0
 13
-0.232856
 23
86
 14
-0.075102
 24
86
 33
0.0
 34
0.0
53
90
  0
DIMENSION
  8
2D_DIM
  2
*D1
  3
ROUTEDIM
  1
0.027
 10
-0.04818
 20
88.5
 30
0.0
 11
-0.02409
 21
88.5
 31
0.0
 13
-0.075102
 23
86
 14
-0.04818
 24
86
 33
0.0
 34
0.0
53
90
  0
DIMENSION
  8
2D_DIM
  2
*D1
  3
ROUTEDIM
  1
9.664
 10
9.615955
 20
88.5
 30
0.0
 11
4.8079775
 21
88.5
 31
0.0
 13
-0.04818
 23
86
 14
9.615955
 24
86
 33
0.0
 34
0.0
53
90
  0
DIMENSION
  8
2D_DIM
  2
*D1
  3
ROUTEDIM
  1
0.373
 10
9.989094
 20
88.5
 30
0.0
 11
4.994547
 21
88.5
 31
0.0
 13
9.615955
 23
86
 14
9.989094
 24
86
 33
0.0
 34
0.0
53
90
  0
DIMENSION
  8
2D_DIM
  2
*D1
  3
ROUTEDIM
  1
0.996
 10
10.984628
 20
88.5
 30
0.0
 11
5.492314
 21
88.5
 31
0.0
 13
9.989094
 23
86
 14
10.984628
 24
86
 33
0.0
 34
0.0
53
90
  0
DIMENSION
  8
2D_DIM
  2
*D1
  3
ROUTEDIM
  1
0.61
 10
11.594949
 20
88.5
 30
0.0
 11
5.7974745
 21
88.5
 31
0.0
 13
10.984628
 23
86
 14
11.594949
 24
86
 33
0.0
 34
0.0
53
90
  0
DIMENSION
  8
2D_DIM
  2
*D1
  3
ROUTEDIM
  1
8.533
 10
20.127496
 20
88.5
 30
0.0
 11
10.063748
 21
88.5
 31
0.0
 13
11.594949
 23
86
 14
20.127496
 24
86
 33
0.0
 34
0.0
53
90
  0
DIMENSION
  8
2D_DIM
  2
*D1
  3
ROUTEDIM
  1
2.735
 10
22.862757
 20
88.5
 30
0.0
 11
11.4313785
 21
88.5
 31
0.0
 13
20.127496
 23
86
 14
22.862757
 24
86
 33
0.0
 34
0.0
53
90
  0
DIMENSION
  8
2D_DIM
  2
*D1
  3
ROUTEDIM
  1
0.267
 10
23.129826
 20
88.5
 30
0.0
 11
11.564913
 21
88.5
 31
0.0
 13
22.862757
 23
86
 14
23.129826
 24
86
 33
0.0
 34
0.0
53
90
  0
DIMENSION
  8
2D_DIM
  2
*D1
  3
ROUTEDIM
  1
26.946
 10
50.076043
 20
88.5
 30
0.0
 11
25.0380215
 21
88.5
 31
0.0
 13
23.129826
 23
86
 14
50.076043
 24
86
 33
0.0
 34
0.0
53
90
  0
DIMENSION
  8
2D_DIM
  2
*D1
  3
ROUTEDIM
  1
0.28
 10
50.355721
 20
88.5
 30
0.0
 11
25.1778605
 21
88.5
 31
0.0
 13
50.076043
 23
86
 14
50.355721
 24
86
 33
0.0
 34
0.0
53
90
  0
DIMENSION
  8
2D_DIM
  2
*D1
  3
ROUTEDIM
  1
-0.356
 10
50
 20
88.5
 30
0.0
 11
25
 21
88.5
 31
0.0
 13
50.355721
 23
86
 14
50
 24
86
 33
0.0
 34
0.0
53
90
  0
DIMENSION
  8
2D_DIM
  2
*D1
  3
ROUTEDIM
  1
0.137
 10
-2.5
 20
-0.136866999999995
 30
0.0
 11
-2.5
 21
-0.0684334999999975
 31
0
 13
0.0
 23
0
 14
0.0
 24
-0.136866999999995
 50
90.0
53
0
 33
0.0
 34
0.0
  0
DIMENSION
  8
2D_DIM
  2
*D1
  3
ROUTEDIM
  1
0.037
 10
-2.5
 20
-0.0995530000000002
 30
0.0
 11
-2.5
 21
-0.0497765000000001
 31
0
 13
0.0
 23
-0.136866999999995
 14
0.0
 24
-0.0995530000000002
 50
90.0
53
0
 33
0.0
 34
0.0
  0
DIMENSION
  8
2D_DIM
  2
*D1
  3
ROUTEDIM
  1
0.1
 10
-2.5
 20
0
 30
0.0
 11
-2.5
 21
0
 31
0
 13
0.0
 23
-0.0995530000000002
 14
0.0
 24
0
 50
90.0
53
0
 33
0.0
 34
0.0
  0
DIMENSION
  8
2D_DIM
  2
*D1
  3
ROUTEDIM
  1
1.792
 10
-2.5
 20
1.792154
 30
0.0
 11
-2.5
 21
0.896077
 31
0
 13
0.0
 23
0
 14
0.0
 24
1.792154
 50
90.0
53
0
 33
0.0
 34
0.0
  0
DIMENSION
  8
2D_DIM
  2
*D1
  3
ROUTEDIM
  1
11.099
 10
-2.5
 20
12.891295
 30
0.0
 11
-2.5
 21
6.4456475
 31
0
 13
0.0
 23
1.792154
 14
0.0
 24
12.891295
 50
90.0
53
0
 33
0.0
 34
0.0
  0
DIMENSION
  8
2D_DIM
  2
*D1
  3
ROUTEDIM
  1
12.826
 10
-2.5
 20
25.717483
 30
0.0
 11
-2.5
 21
12.8587415
 31
0
 13
0.0
 23
12.891295
 14
0.0
 24
25.717483
 50
90.0
53
0
 33
0.0
 34
0.0
  0
DIMENSION
  8
2D_DIM
  2
*D1
  3
ROUTEDIM
  1
0.232
 10
-2.5
 20
25.94956
 30
0.0
 11
-2.5
 21
12.97478
 31
0
 13
0.0
 23
25.717483
 14
0.0
 24
25.94956
 50
90.0
53
0
 33
0.0
 34
0.0
  0
DIMENSION
  8
2D_DIM
  2
*D1
  3
ROUTEDIM
  1
20.875
 10
-2.5
 20
46.824871
 30
0.0
 11
-2.5
 21
23.4124355
 31
0
 13
0.0
 23
25.94956
 14
0.0
 24
46.824871
 50
90.0
53
0
 33
0.0
 34
0.0
  0
DIMENSION
  8
2D_DIM
  2
*D1
  3
ROUTEDIM
  1
0.232
 10
-2.5
 20
47.056948
 30
0.0
 11
-2.5
 21
23.528474
 31
0
 13
0.0
 23
46.824871
 14
0.0
 24
47.056948
 50
90.0
53
0
 33
0.0
 34
0.0
  0
DIMENSION
  8
2D_DIM
  2
*D1
  3
ROUTEDIM
  1
8.783
 10
-2.5
 20
55.839462
 30
0.0
 11
-2.5
 21
27.919731
 31
0
 13
0.0
 23
47.056948
 14
0.0
 24
55.839462
 50
90.0
53
0
 33
0.0
 34
0.0
  0
DIMENSION
  8
2D_DIM
  2
*D1
  3
ROUTEDIM
  1
0.326
 10
-2.5
 20
56.165835
 30
0.0
 11
-2.5
 21
28.0829175
 31
0
 13
0.0
 23
55.839462
 14
0.0
 24
56.165835
 50
90.0
53
0
 33
0.0
 34
0.0
  0
DIMENSION
  8
2D_DIM
  2
*D1
  3
ROUTEDIM
  1
8.689
 10
-2.5
 20
64.855226
 30
0.0
 11
-2.5
 21
32.427613
 31
0
 13
0.0
 23
56.165835
 14
0.0
 24
64.855226
 50
90.0
53
0
 33
0.0
 34
0.0
  0
DIMENSION
  8
2D_DIM
  2
*D1
  3
ROUTEDIM
  1
0.25
 10
-2.5
 20
65.105036
 30
0.0
 11
-2.5
 21
32.552518
 31
0
 13
0.0
 23
64.855226
 14
0.0
 24
65.105036
 50
90.0
53
0
 33
0.0
 34
0.0
  0
DIMENSION
  8
2D_DIM
  2
*D1
  3
ROUTEDIM
  1
20.964
 10
-2.5
 20
86.069324
 30
0.0
 11
-2.5
 21
43.034662
 31
0
 13
0.0
 23
65.105036
 14
0.0
 24
86.069324
 50
90.0
53
0
 33
0.0
 34
0.0
  0
DIMENSION
  8
2D_DIM
  2
*D1
  3
ROUTEDIM
  1
0.263
 10
-2.5
 20
86.332571
 30
0.0
 11
-2.5
 21
43.1662855
 31
0
 13
0.0
 23
86.069324
 14
0.0
 24
86.332571
 50
90.0
53
0
 33
0.0
 34
0.0
  0
DIMENSION
  8
2D_DIM
  2
*D1
  3
ROUTEDIM
  1
0.333
 10
-2.5
 20
86
 30
0.0
 11
-2.5
 21
43
 31
0
 13
0.0
 23
86.332571
 14
0.0
 24
86
 50
90.0
53
0
 33
0.0
 34
0.0
  0
DIMENSION
  8
2D_DIM
  2
*D1
  3
ROUTEDIM
  1
108.158
 10
108.158219318221
 20
-3.2316087608368
 30
0.0
 11
54.0791096591106
 21
-3.2316087608368
 31
0.0
 13
0
 23
-3.2316087608368
 14
108.158219318221
 24
-3.2316087608368
 33
0.0
 34
0.0
53
90
  0
DIMENSION
  8
2D_DIM
  2
*D1
  3
ROUTEDIM
  1
3.232
 10
108.158219318221
 20
-3.2316087608368
 30
0.0
 11
108.158219318221
 21
-1.6158043804184
 31
0
 13
108.158219318221
 23
0
 14
108.158219318221
 24
-3.2316087608368
 50
90.0
53
0
 33
0.0
 34
0.0
  0
DIMENSION
  8
2D_DIM
  2
*D1
  3
ROUTEDIM
  1
15.867
 10
15.8671496184159
 20
7.33716798373825
 30
0.0
 11
7.93357480920793
 21
7.33716798373825
 31
0.0
 13
0
 23
7.33716798373825
 14
15.8671496184159
 24
7.33716798373825
 33
0.0
 34
0.0
53
90
  0
DIMENSION
  8
2D_DIM
  2
*D1
  3
ROUTEDIM
  1
7.337
 10
15.8671496184159
 20
7.33716798373825
 30
0.0
 11
15.8671496184159
 21
3.66858399186913
 31
0
 13
15.8671496184159
 23
0
 14
15.8671496184159
 24
7.33716798373825
 50
90.0
53
0
 33
0.0
 34
0.0
  0
DIMENSION
  8
2D_DIM
  2
*D1
  3
ROUTEDIM
  1
10.985
 10
10.9846277892809
 20
0.999999983251877
 30
0.0
 11
5.49231389464045
 21
0.999999983251877
 31
0.0
 13
0
 23
0.999999983251877
 14
10.9846277892809
 24
0.999999983251877
 33
0.0
 34
0.0
53
90
  0
DIMENSION
  8
2D_DIM
  2
*D1
  3
ROUTEDIM
  1
1
 10
10.9846277892809
 20
0.999999983251877
 30
0.0
 11
10.9846277892809
 21
0.499999991625938
 31
0
 13
10.9846277892809
 23
0
 14
10.9846277892809
 24
0.999999983251877
 50
90.0
53
0
 33
0.0
 34
0.0
  0
DIMENSION
  8
2D_DIM
  2
*D1
  3
ROUTEDIM
  1
9.372
 10
9.37196952058132
 20
36.3872155
 30
0.0
 11
4.68598476029066
 21
36.3872155
 31
0.0
 13
0
 23
36.3872155
 14
9.37196952058132
 24
36.3872155
 33
0.0
 34
0.0
53
90
  0
DIMENSION
  8
2D_DIM
  2
*D1
  3
ROUTEDIM
  1
36.387
 10
9.37196952058132
 20
36.3872155
 30
0.0
 11
9.37196952058132
 21
18.19360775
 31
0
 13
9.37196952058132
 23
0
 14
9.37196952058132
 24
36.3872155
 50
90.0
53
0
 33
0.0
 34
0.0
  0
DIMENSION
  8
2D_DIM
  2
*D1
  3
ROUTEDIM
  1
109.368
 10
109.367906922538
 20
-3.93618954881615
 30
0.0
 11
54.6839534612691
 21
-3.93618954881615
 31
0.0
 13
0
 23
-3.93618954881615
 14
109.367906922538
 24
-3.93618954881615
 33
0.0
 34
0.0
53
90
  0
DIMENSION
  8
2D_DIM
  2
*D1
  3
ROUTEDIM
  1
3.936
 10
109.367906922538
 20
-3.93618954881615
 30
0.0
 11
109.367906922538
 21
-1.96809477440807
 31
0
 13
109.367906922538
 23
0
 14
109.367906922538
 24
-3.93618954881615
 50
90.0
53
0
 33
0.0
 34
0.0
  0
TEXT
  8
ITEMNUMBER
 62
     1
 10
-7.5
 20
-5
 30
0.0
 40
0.5
  1
T31106.22
  0
TEXT
  8
DESCRIPTION
 62
     1
 10
-7.5
 20
-6
 30
0.0
 40
0.5
  1
P3B
  0
TEXT
  8
FILENAME
 62
     1
 10
-7.5
 20
-7
 30
0.0
 40
0.5
  1
5600AE3K
  0
TEXT
  8
MATERIALNAME
 62
     1
 10
-7.5
 20
-8
 30
0.0
 40
0.5
  1
AB1860SEI-PF/4x10
  0
TEXT
  8
Qty
 62
     1
 10
-7.5
 20
-9
 30
0.0
 40
0.5
  1
1
  0
TEXT
  8
RUNFIELD
 62
     1
 10
8
 20
-1
 30
0.0
 40
0.5
  1
Mirrored
  0
ENDSEC
  0
EOF
