  0
SECTION
  2
TABLES
  0
TABLE
  2
DIMSTYLE
 70
     2
  0
DIMSTYLE
  2
BOARDERDIM
 70
     0
  3

  4

  5
_NONE
  6
_NONE
  7
_NONE
 40
1
 41
0.1
 42
0.0625
 43
0.38
 44
0.18
 45
0.00
 46
0.0
 47
0.0
 48
0.0
140
0.5
141
0.09
142
0.0
143
25.399999999999999
144
1.0
145
0.5
146
1.0
147
0.09
 71
     1
 72
     0
 73
     1
 74
     0
 75
     0
 76
     0
 77
     2
 78
     0
170
     0
171
     2
172
     0
173
     0
174
     1
175
      0
176
5
177
5
178
     1
271
3
272
3
  0
ENDTAB
  0
TABLE
  2
DIMSTYLE
 70
     2
  0
DIMSTYLE
  2
VDRILLDIM
 70
     0
  3

  4

  5
_NONE
  6
_NONE
  7
_NONE
 40
1
 41
0.1
 42
0.0625
 43
0.38
 44
0.18
 45
0.00
 46
0.0
 47
0.0
 48
0.0
140
0.5
141
0.09
142
0.0
143
25.399999999999999
144
1.0
145
0.5
146
1.0
147
0.09
 71
     1
 72
     0
 73
     1
 74
     0
 75
     0
 76
     0
 77
     2
 78
     0
170
     0
171
     2
172
     0
173
     0
174
     1
175
      0
176
5
177
5
178
     1
271
3
272
3
  0
ENDTAB
  0
TABLE
  2
DIMSTYLE
 70
     2
  0
DIMSTYLE
  2
HDRILLDIM
 70
     0
  3

  4

  5
_NONE
  6
_NONE
  7
_NONE
 40
1
 41
0.1
 42
0.0625
 43
0.38
 44
0.18
 45
0.00
 46
0.0
 47
0.0
 48
0.0
140
0.5
141
0.09
142
0.0
143
25.399999999999999
144
1.0
145
0.5
146
1.0
147
0.09
 71
     1
 72
     0
 73
     1
 74
     0
 75
     0
 76
     0
 77
     2
 78
     0
170
     0
171
     2
172
     0
173
     0
174
     1
175
      0
176
5
177
5
178
     1
271
3
272
3
  0
ENDTAB
  0
TABLE
  2
DIMSTYLE
 70
     2
  0
DIMSTYLE
  2
ROUTEDIM
 70
     0
  3

  4

  5
_NONE
  6
_NONE
  7
_NONE
 40
1
 41
0.1
 42
0.0625
 43
0.38
 44
0.18
 45
0.00
 46
0.0
 47
0.0
 48
0.0
140
0.5
141
0.09
142
0.0
143
25.399999999999999
144
1.0
145
0.5
146
1.0
147
0.09
 71
     1
 72
     0
 73
     1
 74
     0
 75
     0
 76
     0
 77
     2
 78
     0
170
     0
171
     2
172
     0
173
     0
174
     1
175
      0
176
5
177
5
178
     1
271
3
272
3
  0
ENDTAB
  0
TABLE
  2
DIMSTYLE
 70
     2
  0
DIMSTYLE
  2
SAWDIM
 70
     0
  3

  4

  5
_NONE
  6
_NONE
  7
_NONE
 40
1
 41
0.1
 42
0.0625
 43
0.38
 44
0.18
 45
0.00
 46
0.0
 47
0.0
 48
0.0
140
0.5
141
0.09
142
0.0
143
25.399999999999999
144
1.0
145
0.5
146
1.0
147
0.09
 71
     1
 72
     0
 73
     1
 74
     0
 75
     0
 76
     0
 77
     2
 78
     0
170
     0
171
     2
172
     0
173
     0
174
     1
175
      0
176
5
177
5
178
     1
271
3
272
3
  0
ENDTAB
  0
TABLE
  2
VPORT
 70
     1
  0
VPORT
  2
*ACTIVE
 70
     0
 10
0.0
 20
0.0
 11
1.0
 21
1.0
 12
0.0
 22
0.0
 13
0.0
 23
0.0
 14
1.0
 24
1.0
 15
0.0
 25
0.0
 16
0.0
 26
0.0
 36
1.0
 17
0.0
 27
0.0
 37
0.0
 40
84
 41
2.0
 42
50.0
 43
0.0
 44
0.0
 50
0.0
 51
0.0
 71
     0
 72
   100
 73
     1
 74
     0
 75
     1
 76
     0
 77
     0
 78
     0
  0
ENDTAB
  0
ENDSEC
  0
SECTION
  2
ENTITIES
  0
POLYLINE
  8
BORDER_Z0P74
 62
     7
 66
     1
 10
0.0
 20
0.0
 30
0.0
 70
     1
  0
VERTEX
  8
BORDER_Z0P74
 62
     7
 10
0.0
 20
0.0
 30
0.0
  0
VERTEX
  8
BORDER_Z0P74
 62
     7
 10
0.0
 20
29
 30
0.0
  0
VERTEX
  8
BORDER_Z0P74
 62
     7
 10
67.4375
 20
29
 30
0.0
  0
VERTEX
  8
BORDER_Z0P74
 62
     7
 10
67.4375
 20
0.0
 30
0.0
  0
SEQEND
  8
BORDER_Z0P74
 62
     7
  0
POLYLINE
  8
ROUTE_Z0P75LT130RAMP
 62
     3
 66
     1
 10
0.0
 20
0.0
 30
0.0
 70
     0
  0
VERTEX
  8
ROUTE_Z0P75LT130RAMP
 62
     3
 10
48.140836
 20
-0.475000000000001
 30
0.0
  0
VERTEX
  8
ROUTE_Z0P75LT130RAMP
 62
     3
 10
48.140836
 20
-0.100000000000001
 30
0.0
  0
VERTEX
  8
ROUTE_Z0P75LT130RAMP
 62
     3
 10
48.140836
 20
0.25
 30
0.0
  0
VERTEX
  8
ROUTE_Z0P75LT130RAMP
 62
     3
 10
44.504665
 20
0.25
 30
0.0
  0
VERTEX
  8
ROUTE_Z0P75LT130RAMP
 62
     3
 10
44.504665
 20
26.75
 30
0.0
  0
VERTEX
  8
ROUTE_Z0P75LT130RAMP
 62
     3
 10
12.314135
 20
26.75
 30
0.0
  0
VERTEX
  8
ROUTE_Z0P75LT130RAMP
 62
     3
 10
12.314135
 20
-0.100000000000001
 30
0.0
  0
VERTEX
  8
ROUTE_Z0P75LT130RAMP
 62
     3
 10
12.314135
 20
-0.475000000000001
 30
0.0
  0
SEQEND
  8
ROUTE_Z0P75LT130RAMP
 62
     3
  0
POLYLINE
  8
ROUTE_Z0P75LT130RAMP
 62
     3
 66
     1
 10
0.0
 20
0.0
 30
0.0
 70
     0
  0
VERTEX
  8
ROUTE_Z0P75LT130RAMP
 62
     3
 10
67.9125
 20
17.25
 30
0.0
  0
VERTEX
  8
ROUTE_Z0P75LT130RAMP
 62
     3
 10
67.5375
 20
17.25
 30
0.0
  0
VERTEX
  8
ROUTE_Z0P75LT130RAMP
 62
     3
 10
50.37872
 20
17.25
 30
0.0
  0
VERTEX
  8
ROUTE_Z0P75LT130RAMP
 62
     3
 10
50.37872
 20
-0.100000000000001
 30
0.0
  0
VERTEX
  8
ROUTE_Z0P75LT130RAMP
 62
     3
 10
50.37872
 20
-0.475000000000001
 30
0.0
  0
SEQEND
  8
ROUTE_Z0P75LT130RAMP
 62
     3
  0
POLYLINE
  8
ROUTE_Z0P75LT130RAMP
 62
     3
 66
     1
 10
0.0
 20
0.0
 30
0.0
 70
     0
  0
VERTEX
  8
ROUTE_Z0P75LT130RAMP
 62
     3
 10
7.969278
 20
-0.475000000000001
 30
0.0
  0
VERTEX
  8
ROUTE_Z0P75LT130RAMP
 62
     3
 10
7.969278
 20
-0.100000000000001
 30
0.0
  0
VERTEX
  8
ROUTE_Z0P75LT130RAMP
 62
     3
 10
7.969278
 20
0.25
 30
0.0
  0
VERTEX
  8
ROUTE_Z0P75LT130RAMP
 62
     3
 10
-0.1
 20
0.25
 30
0.0
  0
VERTEX
  8
ROUTE_Z0P75LT130RAMP
 62
     3
 10
-0.475
 20
0.25
 30
0.0
  0
SEQEND
  8
ROUTE_Z0P75LT130RAMP
 62
     3
  0
POLYLINE
  8
ROUTE_Z0P75LT130RAMP
 62
     3
 66
     1
 10
0.0
 20
0.0
 30
0.0
 70
     0
  0
VERTEX
  8
ROUTE_Z0P75LT130RAMP
 62
     3
 10
3.999999
 20
15.249995
 30
0.0
  0
VERTEX
  8
ROUTE_Z0P75LT130RAMP
 62
     3
 10
3.999999
 20
14.249995
 30
0.0
  0
VERTEX
  8
ROUTE_Z0P75LT130RAMP
 62
     3
 10
3.999999
 20
4.249995
 30
0.0
  0
VERTEX
  8
ROUTE_Z0P75LT130RAMP
 62
     3
 10
8.314139
 20
4.249995
 30
0.0
  0
VERTEX
  8
ROUTE_Z0P75LT130RAMP
 62
     3
 10
8.314139
 20
24.249995
 30
0.0
  0
VERTEX
  8
ROUTE_Z0P75LT130RAMP
 62
     3
 10
3.999999
 20
24.249995
 30
0.0
  0
VERTEX
  8
ROUTE_Z0P75LT130RAMP
 62
     3
 10
3.999999
 20
14.249995
 30
0.0
  0
SEQEND
  8
ROUTE_Z0P75LT130RAMP
 62
     3
  0
DIMENSION
  8
2D_DIM
  2
*D1
  3
BOARDERDIM
  1
67.438
 10
67.4375
 20
34
 30
0.0
 11
33.71875
 21
34
 31
0.0
 13
0
 23
29
 14
67.4375
 24
29
 33
0.0
 34
0.0
53
0
  0
DIMENSION
  8
2D_DIM
  2
*D1
  3
BOARDERDIM
  1
29
 10
-5
 20
29
 30
0.0
 11
-5
 21
14.5
 31
0
 13
0.0
 23
0
 14
0.0
 24
29
 50
90.0
53
0
 33
0.0
 34
0.0
  0
DIMENSION
  8
2D_DIM
  2
*D1
  3
ROUTEDIM
  1
-0.475
 10
-0.475
 20
31.5
 30
0.0
 11
-0.2375
 21
31.5
 31
0.0
 13
0
 23
29
 14
-0.475
 24
29
 33
0.0
 34
0.0
53
90
  0
DIMENSION
  8
2D_DIM
  2
*D1
  3
ROUTEDIM
  1
0.375
 10
-0.1
 20
31.5
 30
0.0
 11
-0.05
 21
31.5
 31
0.0
 13
-0.475
 23
29
 14
-0.1
 24
29
 33
0.0
 34
0.0
53
90
  0
DIMENSION
  8
2D_DIM
  2
*D1
  3
ROUTEDIM
  1
4.1
 10
3.999999
 20
31.5
 30
0.0
 11
1.9999995
 21
31.5
 31
0.0
 13
-0.1
 23
29
 14
3.999999
 24
29
 33
0.0
 34
0.0
53
90
  0
DIMENSION
  8
2D_DIM
  2
*D1
  3
ROUTEDIM
  1
3.969
 10
7.969278
 20
31.5
 30
0.0
 11
3.984639
 21
31.5
 31
0.0
 13
3.999999
 23
29
 14
7.969278
 24
29
 33
0.0
 34
0.0
53
90
  0
DIMENSION
  8
2D_DIM
  2
*D1
  3
ROUTEDIM
  1
0.345
 10
8.314139
 20
31.5
 30
0.0
 11
4.1570695
 21
31.5
 31
0.0
 13
7.969278
 23
29
 14
8.314139
 24
29
 33
0.0
 34
0.0
53
90
  0
DIMENSION
  8
2D_DIM
  2
*D1
  3
ROUTEDIM
  1
4
 10
12.314135
 20
31.5
 30
0.0
 11
6.1570675
 21
31.5
 31
0.0
 13
8.314139
 23
29
 14
12.314135
 24
29
 33
0.0
 34
0.0
53
90
  0
DIMENSION
  8
2D_DIM
  2
*D1
  3
ROUTEDIM
  1
32.191
 10
44.504665
 20
31.5
 30
0.0
 11
22.2523325
 21
31.5
 31
0.0
 13
12.314135
 23
29
 14
44.504665
 24
29
 33
0.0
 34
0.0
53
90
  0
DIMENSION
  8
2D_DIM
  2
*D1
  3
ROUTEDIM
  1
3.636
 10
48.140836
 20
31.5
 30
0.0
 11
24.070418
 21
31.5
 31
0.0
 13
44.504665
 23
29
 14
48.140836
 24
29
 33
0.0
 34
0.0
53
90
  0
DIMENSION
  8
2D_DIM
  2
*D1
  3
ROUTEDIM
  1
2.238
 10
50.37872
 20
31.5
 30
0.0
 11
25.18936
 21
31.5
 31
0.0
 13
48.140836
 23
29
 14
50.37872
 24
29
 33
0.0
 34
0.0
53
90
  0
DIMENSION
  8
2D_DIM
  2
*D1
  3
ROUTEDIM
  1
17.159
 10
67.5375
 20
31.5
 30
0.0
 11
33.76875
 21
31.5
 31
0.0
 13
50.37872
 23
29
 14
67.5375
 24
29
 33
0.0
 34
0.0
53
90
  0
DIMENSION
  8
2D_DIM
  2
*D1
  3
ROUTEDIM
  1
0.375
 10
67.9125
 20
31.5
 30
0.0
 11
33.95625
 21
31.5
 31
0.0
 13
67.5375
 23
29
 14
67.9125
 24
29
 33
0.0
 34
0.0
53
90
  0
DIMENSION
  8
2D_DIM
  2
*D1
  3
ROUTEDIM
  1
-0.475
 10
67.4375
 20
31.5
 30
0.0
 11
33.71875
 21
31.5
 31
0.0
 13
67.9125
 23
29
 14
67.4375
 24
29
 33
0.0
 34
0.0
53
90
  0
DIMENSION
  8
2D_DIM
  2
*D1
  3
ROUTEDIM
  1
0.475
 10
-2.5
 20
-0.475000000000001
 30
0.0
 11
-2.5
 21
-0.2375
 31
0
 13
0.0
 23
0
 14
0.0
 24
-0.475000000000001
 50
90.0
53
0
 33
0.0
 34
0.0
  0
DIMENSION
  8
2D_DIM
  2
*D1
  3
ROUTEDIM
  1
0.375
 10
-2.5
 20
-0.100000000000001
 30
0.0
 11
-2.5
 21
-0.0500000000000005
 31
0
 13
0.0
 23
-0.475000000000001
 14
0.0
 24
-0.100000000000001
 50
90.0
53
0
 33
0.0
 34
0.0
  0
DIMENSION
  8
2D_DIM
  2
*D1
  3
ROUTEDIM
  1
0.35
 10
-2.5
 20
0.25
 30
0.0
 11
-2.5
 21
0.125
 31
0
 13
0.0
 23
-0.100000000000001
 14
0.0
 24
0.25
 50
90.0
53
0
 33
0.0
 34
0.0
  0
DIMENSION
  8
2D_DIM
  2
*D1
  3
ROUTEDIM
  1
4
 10
-2.5
 20
4.249995
 30
0.0
 11
-2.5
 21
2.1249975
 31
0
 13
0.0
 23
0.25
 14
0.0
 24
4.249995
 50
90.0
53
0
 33
0.0
 34
0.0
  0
DIMENSION
  8
2D_DIM
  2
*D1
  3
ROUTEDIM
  1
10
 10
-2.5
 20
14.249995
 30
0.0
 11
-2.5
 21
7.1249975
 31
0
 13
0.0
 23
4.249995
 14
0.0
 24
14.249995
 50
90.0
53
0
 33
0.0
 34
0.0
  0
DIMENSION
  8
2D_DIM
  2
*D1
  3
ROUTEDIM
  1
1
 10
-2.5
 20
15.249995
 30
0.0
 11
-2.5
 21
7.6249975
 31
0
 13
0.0
 23
14.249995
 14
0.0
 24
15.249995
 50
90.0
53
0
 33
0.0
 34
0.0
  0
DIMENSION
  8
2D_DIM
  2
*D1
  3
ROUTEDIM
  1
2
 10
-2.5
 20
17.25
 30
0.0
 11
-2.5
 21
8.625
 31
0
 13
0.0
 23
15.249995
 14
0.0
 24
17.25
 50
90.0
53
0
 33
0.0
 34
0.0
  0
DIMENSION
  8
2D_DIM
  2
*D1
  3
ROUTEDIM
  1
7
 10
-2.5
 20
24.249995
 30
0.0
 11
-2.5
 21
12.1249975
 31
0
 13
0.0
 23
17.25
 14
0.0
 24
24.249995
 50
90.0
53
0
 33
0.0
 34
0.0
  0
DIMENSION
  8
2D_DIM
  2
*D1
  3
ROUTEDIM
  1
2.5
 10
-2.5
 20
26.75
 30
0.0
 11
-2.5
 21
13.375
 31
0
 13
0.0
 23
24.249995
 14
0.0
 24
26.75
 50
90.0
53
0
 33
0.0
 34
0.0
  0
DIMENSION
  8
2D_DIM
  2
*D1
  3
ROUTEDIM
  1
2.25
 10
-2.5
 20
29
 30
0.0
 11
-2.5
 21
14.5
 31
0
 13
0.0
 23
26.75
 14
0.0
 24
29
 50
90.0
53
0
 33
0.0
 34
0.0
  0
TEXT
  8
ITEMNUMBER
 62
     1
 10
-7.5
 20
-5
 30
0.0
 40
0.5
  1
M3100.04
  0
TEXT
  8
DESCRIPTION
 62
     1
 10
-7.5
 20
-6
 30
0.0
 40
0.5
  1
Stud
  0
TEXT
  8
FILENAME
 62
     1
 10
-7.5
 20
-7
 30
0.0
 40
0.5
  1
5600ADEE
  0
TEXT
  8
MATERIALNAME
 62
     1
 10
-7.5
 20
-8
 30
0.0
 40
0.5
  1
PLY/3-4OSB/NAF/4x8
  0
TEXT
  8
Qty
 62
     1
 10
-7.5
 20
-9
 30
0.0
 40
0.5
  1
1
  0
TEXT
  8
RUNFIELD
 62
     1
 10
8
 20
-1
 30
0.0
 40
0.5
  1
Mirrored
  0
ENDSEC
  0
EOF
