  0
SECTION
  2
TABLES
  0
TABLE
  2
DIMSTYLE
 70
     2
  0
DIMSTYLE
  2
BOARDERDIM
 70
     0
  3

  4

  5
_NONE
  6
_NONE
  7
_NONE
 40
1
 41
0.1
 42
0.0625
 43
0.38
 44
0.18
 45
0.00
 46
0.0
 47
0.0
 48
0.0
140
0.5
141
0.09
142
0.0
143
25.399999999999999
144
1.0
145
0.5
146
1.0
147
0.09
 71
     1
 72
     0
 73
     1
 74
     0
 75
     0
 76
     0
 77
     2
 78
     0
170
     0
171
     2
172
     0
173
     0
174
     1
175
      0
176
5
177
5
178
     1
271
3
272
3
  0
ENDTAB
  0
TABLE
  2
DIMSTYLE
 70
     2
  0
DIMSTYLE
  2
VDRILLDIM
 70
     0
  3

  4

  5
_NONE
  6
_NONE
  7
_NONE
 40
1
 41
0.1
 42
0.0625
 43
0.38
 44
0.18
 45
0.00
 46
0.0
 47
0.0
 48
0.0
140
0.5
141
0.09
142
0.0
143
25.399999999999999
144
1.0
145
0.5
146
1.0
147
0.09
 71
     1
 72
     0
 73
     1
 74
     0
 75
     0
 76
     0
 77
     2
 78
     0
170
     0
171
     2
172
     0
173
     0
174
     1
175
      0
176
5
177
5
178
     1
271
3
272
3
  0
ENDTAB
  0
TABLE
  2
DIMSTYLE
 70
     2
  0
DIMSTYLE
  2
HDRILLDIM
 70
     0
  3

  4

  5
_NONE
  6
_NONE
  7
_NONE
 40
1
 41
0.1
 42
0.0625
 43
0.38
 44
0.18
 45
0.00
 46
0.0
 47
0.0
 48
0.0
140
0.5
141
0.09
142
0.0
143
25.399999999999999
144
1.0
145
0.5
146
1.0
147
0.09
 71
     1
 72
     0
 73
     1
 74
     0
 75
     0
 76
     0
 77
     2
 78
     0
170
     0
171
     2
172
     0
173
     0
174
     1
175
      0
176
5
177
5
178
     1
271
3
272
3
  0
ENDTAB
  0
TABLE
  2
DIMSTYLE
 70
     2
  0
DIMSTYLE
  2
ROUTEDIM
 70
     0
  3

  4

  5
_NONE
  6
_NONE
  7
_NONE
 40
1
 41
0.1
 42
0.0625
 43
0.38
 44
0.18
 45
0.00
 46
0.0
 47
0.0
 48
0.0
140
0.5
141
0.09
142
0.0
143
25.399999999999999
144
1.0
145
0.5
146
1.0
147
0.09
 71
     1
 72
     0
 73
     1
 74
     0
 75
     0
 76
     0
 77
     2
 78
     0
170
     0
171
     2
172
     0
173
     0
174
     1
175
      0
176
5
177
5
178
     1
271
3
272
3
  0
ENDTAB
  0
TABLE
  2
DIMSTYLE
 70
     2
  0
DIMSTYLE
  2
SAWDIM
 70
     0
  3

  4

  5
_NONE
  6
_NONE
  7
_NONE
 40
1
 41
0.1
 42
0.0625
 43
0.38
 44
0.18
 45
0.00
 46
0.0
 47
0.0
 48
0.0
140
0.5
141
0.09
142
0.0
143
25.399999999999999
144
1.0
145
0.5
146
1.0
147
0.09
 71
     1
 72
     0
 73
     1
 74
     0
 75
     0
 76
     0
 77
     2
 78
     0
170
     0
171
     2
172
     0
173
     0
174
     1
175
      0
176
5
177
5
178
     1
271
3
272
3
  0
ENDTAB
  0
TABLE
  2
VPORT
 70
     1
  0
VPORT
  2
*ACTIVE
 70
     0
 10
0.0
 20
0.0
 11
1.0
 21
1.0
 12
0.0
 22
0.0
 13
0.0
 23
0.0
 14
1.0
 24
1.0
 15
0.0
 25
0.0
 16
0.0
 26
0.0
 36
1.0
 17
0.0
 27
0.0
 37
0.0
 40
84
 41
2.0
 42
50.0
 43
0.0
 44
0.0
 50
0.0
 51
0.0
 71
     0
 72
   100
 73
     1
 74
     0
 75
     1
 76
     0
 77
     0
 78
     0
  0
ENDTAB
  0
ENDSEC
  0
SECTION
  2
ENTITIES
  0
POLYLINE
  8
BORDER_Z0P04
 62
     7
 66
     1
 10
0.0
 20
0.0
 30
0.0
 70
     1
  0
VERTEX
  8
BORDER_Z0P04
 62
     7
 10
0.0
 20
0.0
 30
0.0
  0
VERTEX
  8
BORDER_Z0P04
 62
     7
 10
0.0
 20
58.9738
 30
0.0
  0
VERTEX
  8
BORDER_Z0P04
 62
     7
 10
15.3256
 20
58.9738
 30
0.0
  0
VERTEX
  8
BORDER_Z0P04
 62
     7
 10
15.3256
 20
0.0
 30
0.0
  0
SEQEND
  8
BORDER_Z0P04
 62
     7
  0
POLYLINE
  8
ROUTE_Z0P25LT130RAMP
 62
     3
 66
     1
 10
0.0
 20
0.0
 30
0.0
 70
     0
  0
VERTEX
  8
ROUTE_Z0P25LT130RAMP
 62
     3
 10
1.43554
 20
30.134146
 30
0.0
 42
0.414213562373095
  0
VERTEX
  8
ROUTE_Z0P25LT130RAMP
 62
     3
 10
1.789242
 20
30.368445
 30
0.0
 42
-0.0854908232767509
  0
VERTEX
  8
ROUTE_Z0P25LT130RAMP
 62
     3
 10
12.801654
 20
58.684341
 30
0.0
 42
0.0914927723382928
  0
VERTEX
  8
ROUTE_Z0P25LT130RAMP
 62
     3
 10
15.325612
 20
58.9738
 30
0.0
 42
0.171723797676292
  0
VERTEX
  8
ROUTE_Z0P25LT130RAMP
 62
     3
 10
2.639705
 20
1.990447
 30
0.0
  0
VERTEX
  8
ROUTE_Z0P25LT130RAMP
 62
     3
 10
0.884656
 20
-4.00000000055911E-05
 30
0.0
 42
-0.0854908232767509
  0
VERTEX
  8
ROUTE_Z0P25LT130RAMP
 62
     3
 10
1.789242
 20
30.368445
 30
0.0
  0
SEQEND
  8
ROUTE_Z0P25LT130RAMP
 62
     3
  0
DIMENSION
  8
2D_DIM
  2
*D1
  3
BOARDERDIM
  1
15.326
 10
15.3256
 20
63.9738
 30
0.0
 11
7.6628
 21
63.9738
 31
0.0
 13
0
 23
58.9738
 14
15.3256
 24
58.9738
 33
0.0
 34
0.0
53
0
  0
DIMENSION
  8
2D_DIM
  2
*D1
  3
BOARDERDIM
  1
58.974
 10
-5
 20
58.9738
 30
0.0
 11
-5
 21
29.4869
 31
0
 13
0.0
 23
0
 14
0.0
 24
58.9738
 50
90.0
53
0
 33
0.0
 34
0.0
  0
DIMENSION
  8
2D_DIM
  2
*D1
  3
ROUTEDIM
  1
0.885
 10
0.884656
 20
61.4738
 30
0.0
 11
0.442328
 21
61.4738
 31
0.0
 13
0
 23
58.9738
 14
0.884656
 24
58.9738
 33
0.0
 34
0.0
53
90
  0
DIMENSION
  8
2D_DIM
  2
*D1
  3
ROUTEDIM
  1
0.551
 10
1.43554
 20
61.4738
 30
0.0
 11
0.71777
 21
61.4738
 31
0.0
 13
0.884656
 23
58.9738
 14
1.43554
 24
58.9738
 33
0.0
 34
0.0
53
90
  0
DIMENSION
  8
2D_DIM
  2
*D1
  3
ROUTEDIM
  1
0.354
 10
1.789242
 20
61.4738
 30
0.0
 11
0.894621
 21
61.4738
 31
0.0
 13
1.43554
 23
58.9738
 14
1.789242
 24
58.9738
 33
0.0
 34
0.0
53
90
  0
DIMENSION
  8
2D_DIM
  2
*D1
  3
ROUTEDIM
  1
0.85
 10
2.639705
 20
61.4738
 30
0.0
 11
1.3198525
 21
61.4738
 31
0.0
 13
1.789242
 23
58.9738
 14
2.639705
 24
58.9738
 33
0.0
 34
0.0
53
90
  0
DIMENSION
  8
2D_DIM
  2
*D1
  3
ROUTEDIM
  1
10.162
 10
12.801654
 20
61.4738
 30
0.0
 11
6.400827
 21
61.4738
 31
0.0
 13
2.639705
 23
58.9738
 14
12.801654
 24
58.9738
 33
0.0
 34
0.0
53
90
  0
DIMENSION
  8
2D_DIM
  2
*D1
  3
ROUTEDIM
  1
2.524
 10
15.325612
 20
61.4738
 30
0.0
 11
7.662806
 21
61.4738
 31
0.0
 13
12.801654
 23
58.9738
 14
15.325612
 24
58.9738
 33
0.0
 34
0.0
53
90
  0
DIMENSION
  8
2D_DIM
  2
*D1
  3
ROUTEDIM
  1
-0
 10
15.3256
 20
61.4738
 30
0.0
 11
7.6628
 21
61.4738
 31
0.0
 13
15.325612
 23
58.9738
 14
15.3256
 24
58.9738
 33
0.0
 34
0.0
53
90
  0
DIMENSION
  8
2D_DIM
  2
*D1
  3
ROUTEDIM
  1
0
 10
-2.5
 20
-4.00000000055911E-05
 30
0.0
 11
-2.5
 21
-2.00000000027955E-05
 31
0
 13
0.0
 23
0
 14
0.0
 24
-4.00000000055911E-05
 50
90.0
53
0
 33
0.0
 34
0.0
  0
DIMENSION
  8
2D_DIM
  2
*D1
  3
ROUTEDIM
  1
1.99
 10
-2.5
 20
1.990447
 30
0.0
 11
-2.5
 21
0.9952235
 31
0
 13
0.0
 23
-4.00000000055911E-05
 14
0.0
 24
1.990447
 50
90.0
53
0
 33
0.0
 34
0.0
  0
DIMENSION
  8
2D_DIM
  2
*D1
  3
ROUTEDIM
  1
28.144
 10
-2.5
 20
30.134146
 30
0.0
 11
-2.5
 21
15.067073
 31
0
 13
0.0
 23
1.990447
 14
0.0
 24
30.134146
 50
90.0
53
0
 33
0.0
 34
0.0
  0
DIMENSION
  8
2D_DIM
  2
*D1
  3
ROUTEDIM
  1
0.234
 10
-2.5
 20
30.368445
 30
0.0
 11
-2.5
 21
15.1842225
 31
0
 13
0.0
 23
30.134146
 14
0.0
 24
30.368445
 50
90.0
53
0
 33
0.0
 34
0.0
  0
DIMENSION
  8
2D_DIM
  2
*D1
  3
ROUTEDIM
  1
28.316
 10
-2.5
 20
58.684341
 30
0.0
 11
-2.5
 21
29.3421705
 31
0
 13
0.0
 23
30.368445
 14
0.0
 24
58.684341
 50
90.0
53
0
 33
0.0
 34
0.0
  0
DIMENSION
  8
2D_DIM
  2
*D1
  3
ROUTEDIM
  1
0.289
 10
-2.5
 20
58.9738
 30
0.0
 11
-2.5
 21
29.4869
 31
0
 13
0.0
 23
58.684341
 14
0.0
 24
58.9738
 50
90.0
53
0
 33
0.0
 34
0.0
  0
DIMENSION
  8
2D_DIM
  2
*D1
  3
ROUTEDIM
  1
0
 10
-2.5
 20
58.9738
 30
0.0
 11
-2.5
 21
29.4869
 31
0
 13
0.0
 23
58.9738
 14
0.0
 24
58.9738
 50
90.0
53
0
 33
0.0
 34
0.0
  0
DIMENSION
  8
2D_DIM
  2
*D1
  3
ROUTEDIM
  1
1.495
 10
1.4952415
 20
30.4281465
 30
0.0
 11
0.74762075
 21
30.4281465
 31
0.0
 13
0
 23
30.4281465
 14
1.4952415
 24
30.4281465
 33
0.0
 34
0.0
53
90
  0
DIMENSION
  8
2D_DIM
  2
*D1
  3
ROUTEDIM
  1
30.428
 10
1.4952415
 20
30.4281465
 30
0.0
 11
1.4952415
 21
15.21407325
 31
0
 13
1.4952415
 23
0
 14
1.4952415
 24
30.4281465
 50
90.0
53
0
 33
0.0
 34
0.0
  0
DIMENSION
  8
2D_DIM
  2
*D1
  3
ROUTEDIM
  1
89.494
 10
89.4941655797463
 20
12.5582665504676
 30
0.0
 11
44.7470827898731
 21
12.5582665504676
 31
0.0
 13
0
 23
12.5582665504676
 14
89.4941655797463
 24
12.5582665504676
 33
0.0
 34
0.0
53
90
  0
DIMENSION
  8
2D_DIM
  2
*D1
  3
ROUTEDIM
  1
12.558
 10
89.4941655797463
 20
12.5582665504676
 30
0.0
 11
89.4941655797463
 21
6.27913327523378
 31
0
 13
89.4941655797463
 23
0
 14
89.4941655797463
 24
12.5582665504676
 50
90.0
53
0
 33
0.0
 34
0.0
  0
DIMENSION
  8
2D_DIM
  2
*D1
  3
ROUTEDIM
  1
13.279
 10
13.279319790353
 20
65.6679443992192
 30
0.0
 11
6.63965989517652
 21
65.6679443992192
 31
0.0
 13
0
 23
65.6679443992192
 14
13.279319790353
 24
65.6679443992192
 33
0.0
 34
0.0
53
90
  0
DIMENSION
  8
2D_DIM
  2
*D1
  3
ROUTEDIM
  1
65.668
 10
13.279319790353
 20
65.6679443992192
 30
0.0
 11
13.279319790353
 21
32.8339721996096
 31
0
 13
13.279319790353
 23
0
 14
13.279319790353
 24
65.6679443992192
 50
90.0
53
0
 33
0.0
 34
0.0
  0
DIMENSION
  8
2D_DIM
  2
*D1
  3
ROUTEDIM
  1
89.494
 10
89.4941660480663
 20
12.5582660326346
 30
0.0
 11
44.7470830240332
 21
12.5582660326346
 31
0.0
 13
0
 23
12.5582660326346
 14
89.4941660480663
 24
12.5582660326346
 33
0.0
 34
0.0
53
90
  0
DIMENSION
  8
2D_DIM
  2
*D1
  3
ROUTEDIM
  1
12.558
 10
89.4941660480663
 20
12.5582660326346
 30
0.0
 11
89.4941660480663
 21
6.2791330163173
 31
0
 13
89.4941660480663
 23
0
 14
89.4941660480663
 24
12.5582660326346
 50
90.0
53
0
 33
0.0
 34
0.0
  0
DIMENSION
  8
2D_DIM
  2
*D1
  3
ROUTEDIM
  1
89.494
 10
89.4941636556747
 20
12.5582637290498
 30
0.0
 11
44.7470818278374
 21
12.5582637290498
 31
0.0
 13
0
 23
12.5582637290498
 14
89.4941636556747
 24
12.5582637290498
 33
0.0
 34
0.0
53
90
  0
DIMENSION
  8
2D_DIM
  2
*D1
  3
ROUTEDIM
  1
12.558
 10
89.4941636556747
 20
12.5582637290498
 30
0.0
 11
89.4941636556747
 21
6.27913186452492
 31
0
 13
89.4941636556747
 23
0
 14
89.4941636556747
 24
12.5582637290498
 50
90.0
53
0
 33
0.0
 34
0.0
  0
TEXT
  8
ITEMNUMBER
 62
     1
 10
-7.5
 20
-5
 30
0.0
 40
0.5
  1
T31106.24
  0
TEXT
  8
DESCRIPTION
 62
     1
 10
-7.5
 20
-6
 30
0.0
 40
0.5
  1
P3B
  0
TEXT
  8
FILENAME
 62
     1
 10
-7.5
 20
-7
 30
0.0
 40
0.5
  1
5600AE82
  0
TEXT
  8
MATERIALNAME
 62
     1
 10
-7.5
 20
-8
 30
0.0
 40
0.5
  1
AB1826SEI-PF/4x10
  0
TEXT
  8
Qty
 62
     1
 10
-7.5
 20
-9
 30
0.0
 40
0.5
  1
1
  0
TEXT
  8
RUNFIELD
 62
     1
 10
8
 20
-1
 30
0.0
 40
0.5
  1
Mirrored
  0
ENDSEC
  0
EOF
