  0
SECTION
  2
TABLES
  0
TABLE
  2
DIMSTYLE
 70
     2
  0
DIMSTYLE
  2
BOARDERDIM
 70
     0
  3

  4

  5
_NONE
  6
_NONE
  7
_NONE
 40
1
 41
0.1
 42
0.0625
 43
0.38
 44
0.18
 45
0.00
 46
0.0
 47
0.0
 48
0.0
140
0.5
141
0.09
142
0.0
143
25.399999999999999
144
1.0
145
0.5
146
1.0
147
0.09
 71
     1
 72
     0
 73
     1
 74
     0
 75
     0
 76
     0
 77
     2
 78
     0
170
     0
171
     2
172
     0
173
     0
174
     1
175
      0
176
5
177
5
178
     1
271
3
272
3
  0
ENDTAB
  0
TABLE
  2
DIMSTYLE
 70
     2
  0
DIMSTYLE
  2
VDRILLDIM
 70
     0
  3

  4

  5
_NONE
  6
_NONE
  7
_NONE
 40
1
 41
0.1
 42
0.0625
 43
0.38
 44
0.18
 45
0.00
 46
0.0
 47
0.0
 48
0.0
140
0.5
141
0.09
142
0.0
143
25.399999999999999
144
1.0
145
0.5
146
1.0
147
0.09
 71
     1
 72
     0
 73
     1
 74
     0
 75
     0
 76
     0
 77
     2
 78
     0
170
     0
171
     2
172
     0
173
     0
174
     1
175
      0
176
5
177
5
178
     1
271
3
272
3
  0
ENDTAB
  0
TABLE
  2
DIMSTYLE
 70
     2
  0
DIMSTYLE
  2
HDRILLDIM
 70
     0
  3

  4

  5
_NONE
  6
_NONE
  7
_NONE
 40
1
 41
0.1
 42
0.0625
 43
0.38
 44
0.18
 45
0.00
 46
0.0
 47
0.0
 48
0.0
140
0.5
141
0.09
142
0.0
143
25.399999999999999
144
1.0
145
0.5
146
1.0
147
0.09
 71
     1
 72
     0
 73
     1
 74
     0
 75
     0
 76
     0
 77
     2
 78
     0
170
     0
171
     2
172
     0
173
     0
174
     1
175
      0
176
5
177
5
178
     1
271
3
272
3
  0
ENDTAB
  0
TABLE
  2
DIMSTYLE
 70
     2
  0
DIMSTYLE
  2
ROUTEDIM
 70
     0
  3

  4

  5
_NONE
  6
_NONE
  7
_NONE
 40
1
 41
0.1
 42
0.0625
 43
0.38
 44
0.18
 45
0.00
 46
0.0
 47
0.0
 48
0.0
140
0.5
141
0.09
142
0.0
143
25.399999999999999
144
1.0
145
0.5
146
1.0
147
0.09
 71
     1
 72
     0
 73
     1
 74
     0
 75
     0
 76
     0
 77
     2
 78
     0
170
     0
171
     2
172
     0
173
     0
174
     1
175
      0
176
5
177
5
178
     1
271
3
272
3
  0
ENDTAB
  0
TABLE
  2
DIMSTYLE
 70
     2
  0
DIMSTYLE
  2
SAWDIM
 70
     0
  3

  4

  5
_NONE
  6
_NONE
  7
_NONE
 40
1
 41
0.1
 42
0.0625
 43
0.38
 44
0.18
 45
0.00
 46
0.0
 47
0.0
 48
0.0
140
0.5
141
0.09
142
0.0
143
25.399999999999999
144
1.0
145
0.5
146
1.0
147
0.09
 71
     1
 72
     0
 73
     1
 74
     0
 75
     0
 76
     0
 77
     2
 78
     0
170
     0
171
     2
172
     0
173
     0
174
     1
175
      0
176
5
177
5
178
     1
271
3
272
3
  0
ENDTAB
  0
TABLE
  2
VPORT
 70
     1
  0
VPORT
  2
*ACTIVE
 70
     0
 10
0.0
 20
0.0
 11
1.0
 21
1.0
 12
0.0
 22
0.0
 13
0.0
 23
0.0
 14
1.0
 24
1.0
 15
0.0
 25
0.0
 16
0.0
 26
0.0
 36
1.0
 17
0.0
 27
0.0
 37
0.0
 40
84
 41
2.0
 42
50.0
 43
0.0
 44
0.0
 50
0.0
 51
0.0
 71
     0
 72
   100
 73
     1
 74
     0
 75
     1
 76
     0
 77
     0
 78
     0
  0
ENDTAB
  0
ENDSEC
  0
SECTION
  2
ENTITIES
  0
POLYLINE
  8
BORDER_Z0P04
 62
     7
 66
     1
 10
0.0
 20
0.0
 30
0.0
 70
     1
  0
VERTEX
  8
BORDER_Z0P04
 62
     7
 10
0.0
 20
0.0
 30
0.0
  0
VERTEX
  8
BORDER_Z0P04
 62
     7
 10
0.0
 20
31.2311
 30
0.0
  0
VERTEX
  8
BORDER_Z0P04
 62
     7
 10
8.0624
 20
31.2311
 30
0.0
  0
VERTEX
  8
BORDER_Z0P04
 62
     7
 10
8.0624
 20
0.0
 30
0.0
  0
SEQEND
  8
BORDER_Z0P04
 62
     7
  0
POLYLINE
  8
ROUTE_Z0P25LT130RAMP
 62
     3
 66
     1
 10
0.0
 20
0.0
 30
0.0
 70
     0
  0
VERTEX
  8
ROUTE_Z0P25LT130RAMP
 62
     3
 10
8.360041
 20
15.973557
 30
0.0
 42
0.414213562373095
  0
VERTEX
  8
ROUTE_Z0P25LT130RAMP
 62
     3
 10
8.062354
 20
15.671266
 30
0.0
 42
-0.220903825255856
  0
VERTEX
  8
ROUTE_Z0P25LT130RAMP
 62
     3
 10
0.929288
 20
1.90000000017676E-05
 30
0.0
  0
VERTEX
  8
ROUTE_Z0P25LT130RAMP
 62
     3
 10
0
 20
0.6874
 30
0.0
 42
0.467534073577707
  0
VERTEX
  8
ROUTE_Z0P25LT130RAMP
 62
     3
 10
0.019268
 20
30.325107
 30
0.0
  0
VERTEX
  8
ROUTE_Z0P25LT130RAMP
 62
     3
 10
0.689419
 20
31.2311
 30
0.0
 42
-0.220903825255856
  0
VERTEX
  8
ROUTE_Z0P25LT130RAMP
 62
     3
 10
8.062354
 20
15.671266
 30
0.0
  0
SEQEND
  8
ROUTE_Z0P25LT130RAMP
 62
     3
  0
DIMENSION
  8
2D_DIM
  2
*D1
  3
BOARDERDIM
  1
8.062
 10
8.0624
 20
36.2311
 30
0.0
 11
4.0312
 21
36.2311
 31
0.0
 13
0
 23
31.2311
 14
8.0624
 24
31.2311
 33
0.0
 34
0.0
53
0
  0
DIMENSION
  8
2D_DIM
  2
*D1
  3
BOARDERDIM
  1
31.231
 10
-5
 20
31.2311
 30
0.0
 11
-5
 21
15.61555
 31
0
 13
0.0
 23
0
 14
0.0
 24
31.2311
 50
90.0
53
0
 33
0.0
 34
0.0
  0
DIMENSION
  8
2D_DIM
  2
*D1
  3
ROUTEDIM
  1
0
 10
0
 20
33.7311
 30
0.0
 11
0
 21
33.7311
 31
0.0
 13
0
 23
31.2311
 14
0
 24
31.2311
 33
0.0
 34
0.0
53
90
  0
DIMENSION
  8
2D_DIM
  2
*D1
  3
ROUTEDIM
  1
0.019
 10
0.019268
 20
33.7311
 30
0.0
 11
0.009634
 21
33.7311
 31
0.0
 13
0
 23
31.2311
 14
0.019268
 24
31.2311
 33
0.0
 34
0.0
53
90
  0
DIMENSION
  8
2D_DIM
  2
*D1
  3
ROUTEDIM
  1
0.67
 10
0.689419
 20
33.7311
 30
0.0
 11
0.3447095
 21
33.7311
 31
0.0
 13
0.019268
 23
31.2311
 14
0.689419
 24
31.2311
 33
0.0
 34
0.0
53
90
  0
DIMENSION
  8
2D_DIM
  2
*D1
  3
ROUTEDIM
  1
0.24
 10
0.929288
 20
33.7311
 30
0.0
 11
0.464644
 21
33.7311
 31
0.0
 13
0.689419
 23
31.2311
 14
0.929288
 24
31.2311
 33
0.0
 34
0.0
53
90
  0
DIMENSION
  8
2D_DIM
  2
*D1
  3
ROUTEDIM
  1
7.133
 10
8.062354
 20
33.7311
 30
0.0
 11
4.031177
 21
33.7311
 31
0.0
 13
0.929288
 23
31.2311
 14
8.062354
 24
31.2311
 33
0.0
 34
0.0
53
90
  0
DIMENSION
  8
2D_DIM
  2
*D1
  3
ROUTEDIM
  1
0.298
 10
8.360041
 20
33.7311
 30
0.0
 11
4.1800205
 21
33.7311
 31
0.0
 13
8.062354
 23
31.2311
 14
8.360041
 24
31.2311
 33
0.0
 34
0.0
53
90
  0
DIMENSION
  8
2D_DIM
  2
*D1
  3
ROUTEDIM
  1
-0.298
 10
8.0624
 20
33.7311
 30
0.0
 11
4.0312
 21
33.7311
 31
0.0
 13
8.360041
 23
31.2311
 14
8.0624
 24
31.2311
 33
0.0
 34
0.0
53
90
  0
DIMENSION
  8
2D_DIM
  2
*D1
  3
ROUTEDIM
  1
-0
 10
-2.5
 20
1.90000000017676E-05
 30
0.0
 11
-2.5
 21
9.5000000008838E-06
 31
0
 13
0.0
 23
0
 14
0.0
 24
1.90000000017676E-05
 50
90.0
53
0
 33
0.0
 34
0.0
  0
DIMENSION
  8
2D_DIM
  2
*D1
  3
ROUTEDIM
  1
0.687
 10
-2.5
 20
0.6874
 30
0.0
 11
-2.5
 21
0.3437
 31
0
 13
0.0
 23
1.90000000017676E-05
 14
0.0
 24
0.6874
 50
90.0
53
0
 33
0.0
 34
0.0
  0
DIMENSION
  8
2D_DIM
  2
*D1
  3
ROUTEDIM
  1
14.984
 10
-2.5
 20
15.671266
 30
0.0
 11
-2.5
 21
7.835633
 31
0
 13
0.0
 23
0.6874
 14
0.0
 24
15.671266
 50
90.0
53
0
 33
0.0
 34
0.0
  0
DIMENSION
  8
2D_DIM
  2
*D1
  3
ROUTEDIM
  1
0.302
 10
-2.5
 20
15.973557
 30
0.0
 11
-2.5
 21
7.9867785
 31
0
 13
0.0
 23
15.671266
 14
0.0
 24
15.973557
 50
90.0
53
0
 33
0.0
 34
0.0
  0
DIMENSION
  8
2D_DIM
  2
*D1
  3
ROUTEDIM
  1
14.352
 10
-2.5
 20
30.325107
 30
0.0
 11
-2.5
 21
15.1625535
 31
0
 13
0.0
 23
15.973557
 14
0.0
 24
30.325107
 50
90.0
53
0
 33
0.0
 34
0.0
  0
DIMENSION
  8
2D_DIM
  2
*D1
  3
ROUTEDIM
  1
0.906
 10
-2.5
 20
31.2311
 30
0.0
 11
-2.5
 21
15.61555
 31
0
 13
0.0
 23
30.325107
 14
0.0
 24
31.2311
 50
90.0
53
0
 33
0.0
 34
0.0
  0
DIMENSION
  8
2D_DIM
  2
*D1
  3
ROUTEDIM
  1
0
 10
-2.5
 20
31.2311
 30
0.0
 11
-2.5
 21
15.61555
 31
0
 13
0.0
 23
31.2311
 14
0.0
 24
31.2311
 50
90.0
53
0
 33
0.0
 34
0.0
  0
DIMENSION
  8
2D_DIM
  2
*D1
  3
ROUTEDIM
  1
8.362
 10
8.362343
 20
15.673568
 30
0.0
 11
4.1811715
 21
15.673568
 31
0.0
 13
0
 23
15.673568
 14
8.362343
 24
15.673568
 33
0.0
 34
0.0
53
90
  0
DIMENSION
  8
2D_DIM
  2
*D1
  3
ROUTEDIM
  1
15.674
 10
8.362343
 20
15.673568
 30
0.0
 11
8.362343
 21
7.836784
 31
0
 13
8.362343
 23
0
 14
8.362343
 24
15.673568
 50
90.0
53
0
 33
0.0
 34
0.0
  0
DIMENSION
  8
2D_DIM
  2
*D1
  3
ROUTEDIM
  1
-12.374
 10
-12.3740924519365
 20
15.5143043235901
 30
0.0
 11
-6.18704622596824
 21
15.5143043235901
 31
0.0
 13
0
 23
15.5143043235901
 14
-12.3740924519365
 24
15.5143043235901
 33
0.0
 34
0.0
53
90
  0
DIMENSION
  8
2D_DIM
  2
*D1
  3
ROUTEDIM
  1
15.514
 10
-12.3740924519365
 20
15.5143043235901
 30
0.0
 11
-12.3740924519365
 21
7.75715216179505
 31
0
 13
-12.3740924519365
 23
0
 14
-12.3740924519365
 24
15.5143043235901
 50
90.0
53
0
 33
0.0
 34
0.0
  0
DIMENSION
  8
2D_DIM
  2
*D1
  3
ROUTEDIM
  1
-12.374
 10
-12.3740926374053
 20
15.514304380753
 30
0.0
 11
-6.18704631870264
 21
15.514304380753
 31
0.0
 13
0
 23
15.514304380753
 14
-12.3740926374053
 24
15.514304380753
 33
0.0
 34
0.0
53
90
  0
DIMENSION
  8
2D_DIM
  2
*D1
  3
ROUTEDIM
  1
15.514
 10
-12.3740926374053
 20
15.514304380753
 30
0.0
 11
-12.3740926374053
 21
7.7571521903765
 31
0
 13
-12.3740926374053
 23
0
 14
-12.3740926374053
 24
15.514304380753
 50
90.0
53
0
 33
0.0
 34
0.0
  0
DIMENSION
  8
2D_DIM
  2
*D1
  3
ROUTEDIM
  1
-12.374
 10
-12.3740921651629
 20
15.5143050134075
 30
0.0
 11
-6.18704608258147
 21
15.5143050134075
 31
0.0
 13
0
 23
15.5143050134075
 14
-12.3740921651629
 24
15.5143050134075
 33
0.0
 34
0.0
53
90
  0
DIMENSION
  8
2D_DIM
  2
*D1
  3
ROUTEDIM
  1
15.514
 10
-12.3740921651629
 20
15.5143050134075
 30
0.0
 11
-12.3740921651629
 21
7.75715250670377
 31
0
 13
-12.3740921651629
 23
0
 14
-12.3740921651629
 24
15.5143050134075
 50
90.0
53
0
 33
0.0
 34
0.0
  0
TEXT
  8
ITEMNUMBER
 62
     1
 10
-7.5
 20
-5
 30
0.0
 40
0.5
  1
T31106.24
  0
TEXT
  8
DESCRIPTION
 62
     1
 10
-7.5
 20
-6
 30
0.0
 40
0.5
  1
P3B 4.2
  0
TEXT
  8
FILENAME
 62
     1
 10
-7.5
 20
-7
 30
0.0
 40
0.5
  1
5600AE88
  0
TEXT
  8
MATERIALNAME
 62
     1
 10
-7.5
 20
-8
 30
0.0
 40
0.5
  1
AB425SEI-PF/4x10
  0
TEXT
  8
Qty
 62
     1
 10
-7.5
 20
-9
 30
0.0
 40
0.5
  1
1
  0
TEXT
  8
RUNFIELD
 62
     1
 10
8
 20
-1
 30
0.0
 40
0.5
  1
Mirrored
  0
ENDSEC
  0
EOF
