  0
SECTION
  2
TABLES
  0
TABLE
  2
DIMSTYLE
 70
     2
  0
DIMSTYLE
  2
BOARDERDIM
 70
     0
  3

  4

  5
_NONE
  6
_NONE
  7
_NONE
 40
1
 41
0.1
 42
0.0625
 43
0.38
 44
0.18
 45
0.00
 46
0.0
 47
0.0
 48
0.0
140
0.5
141
0.09
142
0.0
143
25.399999999999999
144
1.0
145
0.5
146
1.0
147
0.09
 71
     1
 72
     0
 73
     1
 74
     0
 75
     0
 76
     0
 77
     2
 78
     0
170
     0
171
     2
172
     0
173
     0
174
     1
175
      0
176
5
177
5
178
     1
271
3
272
3
  0
ENDTAB
  0
TABLE
  2
DIMSTYLE
 70
     2
  0
DIMSTYLE
  2
VDRILLDIM
 70
     0
  3

  4

  5
_NONE
  6
_NONE
  7
_NONE
 40
1
 41
0.1
 42
0.0625
 43
0.38
 44
0.18
 45
0.00
 46
0.0
 47
0.0
 48
0.0
140
0.5
141
0.09
142
0.0
143
25.399999999999999
144
1.0
145
0.5
146
1.0
147
0.09
 71
     1
 72
     0
 73
     1
 74
     0
 75
     0
 76
     0
 77
     2
 78
     0
170
     0
171
     2
172
     0
173
     0
174
     1
175
      0
176
5
177
5
178
     1
271
3
272
3
  0
ENDTAB
  0
TABLE
  2
DIMSTYLE
 70
     2
  0
DIMSTYLE
  2
HDRILLDIM
 70
     0
  3

  4

  5
_NONE
  6
_NONE
  7
_NONE
 40
1
 41
0.1
 42
0.0625
 43
0.38
 44
0.18
 45
0.00
 46
0.0
 47
0.0
 48
0.0
140
0.5
141
0.09
142
0.0
143
25.399999999999999
144
1.0
145
0.5
146
1.0
147
0.09
 71
     1
 72
     0
 73
     1
 74
     0
 75
     0
 76
     0
 77
     2
 78
     0
170
     0
171
     2
172
     0
173
     0
174
     1
175
      0
176
5
177
5
178
     1
271
3
272
3
  0
ENDTAB
  0
TABLE
  2
DIMSTYLE
 70
     2
  0
DIMSTYLE
  2
ROUTEDIM
 70
     0
  3

  4

  5
_NONE
  6
_NONE
  7
_NONE
 40
1
 41
0.1
 42
0.0625
 43
0.38
 44
0.18
 45
0.00
 46
0.0
 47
0.0
 48
0.0
140
0.5
141
0.09
142
0.0
143
25.399999999999999
144
1.0
145
0.5
146
1.0
147
0.09
 71
     1
 72
     0
 73
     1
 74
     0
 75
     0
 76
     0
 77
     2
 78
     0
170
     0
171
     2
172
     0
173
     0
174
     1
175
      0
176
5
177
5
178
     1
271
3
272
3
  0
ENDTAB
  0
TABLE
  2
DIMSTYLE
 70
     2
  0
DIMSTYLE
  2
SAWDIM
 70
     0
  3

  4

  5
_NONE
  6
_NONE
  7
_NONE
 40
1
 41
0.1
 42
0.0625
 43
0.38
 44
0.18
 45
0.00
 46
0.0
 47
0.0
 48
0.0
140
0.5
141
0.09
142
0.0
143
25.399999999999999
144
1.0
145
0.5
146
1.0
147
0.09
 71
     1
 72
     0
 73
     1
 74
     0
 75
     0
 76
     0
 77
     2
 78
     0
170
     0
171
     2
172
     0
173
     0
174
     1
175
      0
176
5
177
5
178
     1
271
3
272
3
  0
ENDTAB
  0
TABLE
  2
VPORT
 70
     1
  0
VPORT
  2
*ACTIVE
 70
     0
 10
0.0
 20
0.0
 11
1.0
 21
1.0
 12
0.0
 22
0.0
 13
0.0
 23
0.0
 14
1.0
 24
1.0
 15
0.0
 25
0.0
 16
0.0
 26
0.0
 36
1.0
 17
0.0
 27
0.0
 37
0.0
 40
84
 41
2.0
 42
50.0
 43
0.0
 44
0.0
 50
0.0
 51
0.0
 71
     0
 72
   100
 73
     1
 74
     0
 75
     1
 76
     0
 77
     0
 78
     0
  0
ENDTAB
  0
ENDSEC
  0
SECTION
  2
ENTITIES
  0
POLYLINE
  8
BORDER_Z0P04
 62
     7
 66
     1
 10
0.0
 20
0.0
 30
0.0
 70
     1
  0
VERTEX
  8
BORDER_Z0P04
 62
     7
 10
0.0
 20
0.0
 30
0.0
  0
VERTEX
  8
BORDER_Z0P04
 62
     7
 10
0.0
 20
34.4464
 30
0.0
  0
VERTEX
  8
BORDER_Z0P04
 62
     7
 10
45.9395
 20
34.4464
 30
0.0
  0
VERTEX
  8
BORDER_Z0P04
 62
     7
 10
45.9395
 20
0.0
 30
0.0
  0
SEQEND
  8
BORDER_Z0P04
 62
     7
  0
POLYLINE
  8
ROUTE_Z0P25LT130RAMP
 62
     3
 66
     1
 10
0.0
 20
0.0
 30
0.0
 70
     0
  0
VERTEX
  8
ROUTE_Z0P25LT130RAMP
 62
     3
 10
1.117498
 20
-0.468598
 30
0.0
  0
VERTEX
  8
ROUTE_Z0P25LT130RAMP
 62
     3
 10
1.057875
 20
-0.0983680000000007
 30
0.0
 42
-0.139647327965699
  0
VERTEX
  8
ROUTE_Z0P25LT130RAMP
 62
     3
 10
4.348026
 20
34.539581
 30
0.0
  0
VERTEX
  8
ROUTE_Z0P25LT130RAMP
 62
     3
 10
4.476288
 20
34.891965
 30
0.0
  0
SEQEND
  8
ROUTE_Z0P25LT130RAMP
 62
     3
  0
POLYLINE
  8
ROUTE_Z0P25LT130RAMP
 62
     3
 66
     1
 10
0.0
 20
0.0
 30
0.0
 70
     0
  0
VERTEX
  8
ROUTE_Z0P25LT130RAMP
 62
     3
 10
46.335436
 20
34.708809
 30
0.0
  0
VERTEX
  8
ROUTE_Z0P25LT130RAMP
 62
     3
 10
46.024476
 20
34.499217
 30
0.0
 42
0.315009474120406
  0
VERTEX
  8
ROUTE_Z0P25LT130RAMP
 62
     3
 10
31.170873
 20
-0.0979610000000051
 30
0.0
  0
VERTEX
  8
ROUTE_Z0P25LT130RAMP
 62
     3
 10
31.233082
 20
-0.467765
 30
0.0
  0
SEQEND
  8
ROUTE_Z0P25LT130RAMP
 62
     3
  0
DIMENSION
  8
2D_DIM
  2
*D1
  3
BOARDERDIM
  1
45.94
 10
45.9395
 20
39.4464
 30
0.0
 11
22.96975
 21
39.4464
 31
0.0
 13
0
 23
34.4464
 14
45.9395
 24
34.4464
 33
0.0
 34
0.0
53
0
  0
DIMENSION
  8
2D_DIM
  2
*D1
  3
BOARDERDIM
  1
34.446
 10
-5
 20
34.4464
 30
0.0
 11
-5
 21
17.2232
 31
0
 13
0.0
 23
0
 14
0.0
 24
34.4464
 50
90.0
53
0
 33
0.0
 34
0.0
  0
DIMENSION
  8
2D_DIM
  2
*D1
  3
ROUTEDIM
  1
1.058
 10
1.057875
 20
36.9464
 30
0.0
 11
0.5289375
 21
36.9464
 31
0.0
 13
0
 23
34.4464
 14
1.057875
 24
34.4464
 33
0.0
 34
0.0
53
90
  0
DIMENSION
  8
2D_DIM
  2
*D1
  3
ROUTEDIM
  1
0.06
 10
1.117498
 20
36.9464
 30
0.0
 11
0.558749
 21
36.9464
 31
0.0
 13
1.057875
 23
34.4464
 14
1.117498
 24
34.4464
 33
0.0
 34
0.0
53
90
  0
DIMENSION
  8
2D_DIM
  2
*D1
  3
ROUTEDIM
  1
3.231
 10
4.348026
 20
36.9464
 30
0.0
 11
2.174013
 21
36.9464
 31
0.0
 13
1.117498
 23
34.4464
 14
4.348026
 24
34.4464
 33
0.0
 34
0.0
53
90
  0
DIMENSION
  8
2D_DIM
  2
*D1
  3
ROUTEDIM
  1
0.128
 10
4.476288
 20
36.9464
 30
0.0
 11
2.238144
 21
36.9464
 31
0.0
 13
4.348026
 23
34.4464
 14
4.476288
 24
34.4464
 33
0.0
 34
0.0
53
90
  0
DIMENSION
  8
2D_DIM
  2
*D1
  3
ROUTEDIM
  1
26.695
 10
31.170873
 20
36.9464
 30
0.0
 11
15.5854365
 21
36.9464
 31
0.0
 13
4.476288
 23
34.4464
 14
31.170873
 24
34.4464
 33
0.0
 34
0.0
53
90
  0
DIMENSION
  8
2D_DIM
  2
*D1
  3
ROUTEDIM
  1
0.062
 10
31.233082
 20
36.9464
 30
0.0
 11
15.616541
 21
36.9464
 31
0.0
 13
31.170873
 23
34.4464
 14
31.233082
 24
34.4464
 33
0.0
 34
0.0
53
90
  0
DIMENSION
  8
2D_DIM
  2
*D1
  3
ROUTEDIM
  1
14.791
 10
46.024476
 20
36.9464
 30
0.0
 11
23.012238
 21
36.9464
 31
0.0
 13
31.233082
 23
34.4464
 14
46.024476
 24
34.4464
 33
0.0
 34
0.0
53
90
  0
DIMENSION
  8
2D_DIM
  2
*D1
  3
ROUTEDIM
  1
0.311
 10
46.335436
 20
36.9464
 30
0.0
 11
23.167718
 21
36.9464
 31
0.0
 13
46.024476
 23
34.4464
 14
46.335436
 24
34.4464
 33
0.0
 34
0.0
53
90
  0
DIMENSION
  8
2D_DIM
  2
*D1
  3
ROUTEDIM
  1
-0.396
 10
45.9395
 20
36.9464
 30
0.0
 11
22.96975
 21
36.9464
 31
0.0
 13
46.335436
 23
34.4464
 14
45.9395
 24
34.4464
 33
0.0
 34
0.0
53
90
  0
DIMENSION
  8
2D_DIM
  2
*D1
  3
ROUTEDIM
  1
0.469
 10
-2.5
 20
-0.468598
 30
0.0
 11
-2.5
 21
-0.234299
 31
0
 13
0.0
 23
0
 14
0.0
 24
-0.468598
 50
90.0
53
0
 33
0.0
 34
0.0
  0
DIMENSION
  8
2D_DIM
  2
*D1
  3
ROUTEDIM
  1
0.001
 10
-2.5
 20
-0.467765
 30
0.0
 11
-2.5
 21
-0.2338825
 31
0
 13
0.0
 23
-0.468598
 14
0.0
 24
-0.467765
 50
90.0
53
0
 33
0.0
 34
0.0
  0
DIMENSION
  8
2D_DIM
  2
*D1
  3
ROUTEDIM
  1
0.369
 10
-2.5
 20
-0.0983680000000007
 30
0.0
 11
-2.5
 21
-0.0491840000000004
 31
0
 13
0.0
 23
-0.467765
 14
0.0
 24
-0.0983680000000007
 50
90.0
53
0
 33
0.0
 34
0.0
  0
DIMENSION
  8
2D_DIM
  2
*D1
  3
ROUTEDIM
  1
-0
 10
-2.5
 20
-0.0979610000000051
 30
0.0
 11
-2.5
 21
-0.0489805000000025
 31
0
 13
0.0
 23
-0.0983680000000007
 14
0.0
 24
-0.0979610000000051
 50
90.0
53
0
 33
0.0
 34
0.0
  0
DIMENSION
  8
2D_DIM
  2
*D1
  3
ROUTEDIM
  1
34.597
 10
-2.5
 20
34.499217
 30
0.0
 11
-2.5
 21
17.2496085
 31
0
 13
0.0
 23
-0.0979610000000051
 14
0.0
 24
34.499217
 50
90.0
53
0
 33
0.0
 34
0.0
  0
DIMENSION
  8
2D_DIM
  2
*D1
  3
ROUTEDIM
  1
0.04
 10
-2.5
 20
34.539581
 30
0.0
 11
-2.5
 21
17.2697905
 31
0
 13
0.0
 23
34.499217
 14
0.0
 24
34.539581
 50
90.0
53
0
 33
0.0
 34
0.0
  0
DIMENSION
  8
2D_DIM
  2
*D1
  3
ROUTEDIM
  1
0.169
 10
-2.5
 20
34.708809
 30
0.0
 11
-2.5
 21
17.3544045
 31
0
 13
0.0
 23
34.539581
 14
0.0
 24
34.708809
 50
90.0
53
0
 33
0.0
 34
0.0
  0
DIMENSION
  8
2D_DIM
  2
*D1
  3
ROUTEDIM
  1
0.183
 10
-2.5
 20
34.891965
 30
0.0
 11
-2.5
 21
17.4459825
 31
0
 13
0.0
 23
34.708809
 14
0.0
 24
34.891965
 50
90.0
53
0
 33
0.0
 34
0.0
  0
DIMENSION
  8
2D_DIM
  2
*D1
  3
ROUTEDIM
  1
0.446
 10
-2.5
 20
34.4464
 30
0.0
 11
-2.5
 21
17.2232
 31
0
 13
0.0
 23
34.891965
 14
0.0
 24
34.4464
 50
90.0
53
0
 33
0.0
 34
0.0
  0
DIMENSION
  8
2D_DIM
  2
*D1
  3
ROUTEDIM
  1
63.503
 10
63.5033643357393
 20
11.4453643694087
 30
0.0
 11
31.7516821678696
 21
11.4453643694087
 31
0.0
 13
0
 23
11.4453643694087
 14
63.5033643357393
 24
11.4453643694087
 33
0.0
 34
0.0
53
90
  0
DIMENSION
  8
2D_DIM
  2
*D1
  3
ROUTEDIM
  1
11.445
 10
63.5033643357393
 20
11.4453643694087
 30
0.0
 11
63.5033643357393
 21
5.72268218470435
 31
0
 13
63.5033643357393
 23
0
 14
63.5033643357393
 24
11.4453643694087
 50
90.0
53
0
 33
0.0
 34
0.0
  0
DIMENSION
  8
2D_DIM
  2
*D1
  3
ROUTEDIM
  1
63.33
 10
63.3303167457851
 20
6.5821651571658
 30
0.0
 11
31.6651583728926
 21
6.5821651571658
 31
0.0
 13
0
 23
6.5821651571658
 14
63.3303167457851
 24
6.5821651571658
 33
0.0
 34
0.0
53
90
  0
DIMENSION
  8
2D_DIM
  2
*D1
  3
ROUTEDIM
  1
6.582
 10
63.3303167457851
 20
6.5821651571658
 30
0.0
 11
63.3303167457851
 21
3.2910825785829
 31
0
 13
63.3303167457851
 23
0
 14
63.3303167457851
 24
6.5821651571658
 50
90.0
53
0
 33
0.0
 34
0.0
  0
TEXT
  8
ITEMNUMBER
 62
     1
 10
-7.5
 20
-5
 30
0.0
 40
0.5
  1
T31106.22
  0
TEXT
  8
DESCRIPTION
 62
     1
 10
-7.5
 20
-6
 30
0.0
 40
0.5
  1
P1B
  0
TEXT
  8
FILENAME
 62
     1
 10
-7.5
 20
-7
 30
0.0
 40
0.5
  1
5600AE1E
  0
TEXT
  8
MATERIALNAME
 62
     1
 10
-7.5
 20
-8
 30
0.0
 40
0.5
  1
AB1860SEI-PF/4x10
  0
TEXT
  8
Qty
 62
     1
 10
-7.5
 20
-9
 30
0.0
 40
0.5
  1
1
  0
TEXT
  8
RUNFIELD
 62
     1
 10
8
 20
-1
 30
0.0
 40
0.5
  1
Mirrored
  0
ENDSEC
  0
EOF
