  0
SECTION
  2
TABLES
  0
TABLE
  2
DIMSTYLE
 70
     2
  0
DIMSTYLE
  2
BOARDERDIM
 70
     0
  3

  4

  5
_NONE
  6
_NONE
  7
_NONE
 40
1
 41
0.1
 42
0.0625
 43
0.38
 44
0.18
 45
0.00
 46
0.0
 47
0.0
 48
0.0
140
0.5
141
0.09
142
0.0
143
25.399999999999999
144
1.0
145
0.5
146
1.0
147
0.09
 71
     1
 72
     0
 73
     1
 74
     0
 75
     0
 76
     0
 77
     2
 78
     0
170
     0
171
     2
172
     0
173
     0
174
     1
175
      0
176
5
177
5
178
     1
271
3
272
3
  0
ENDTAB
  0
TABLE
  2
DIMSTYLE
 70
     2
  0
DIMSTYLE
  2
VDRILLDIM
 70
     0
  3

  4

  5
_NONE
  6
_NONE
  7
_NONE
 40
1
 41
0.1
 42
0.0625
 43
0.38
 44
0.18
 45
0.00
 46
0.0
 47
0.0
 48
0.0
140
0.5
141
0.09
142
0.0
143
25.399999999999999
144
1.0
145
0.5
146
1.0
147
0.09
 71
     1
 72
     0
 73
     1
 74
     0
 75
     0
 76
     0
 77
     2
 78
     0
170
     0
171
     2
172
     0
173
     0
174
     1
175
      0
176
5
177
5
178
     1
271
3
272
3
  0
ENDTAB
  0
TABLE
  2
DIMSTYLE
 70
     2
  0
DIMSTYLE
  2
HDRILLDIM
 70
     0
  3

  4

  5
_NONE
  6
_NONE
  7
_NONE
 40
1
 41
0.1
 42
0.0625
 43
0.38
 44
0.18
 45
0.00
 46
0.0
 47
0.0
 48
0.0
140
0.5
141
0.09
142
0.0
143
25.399999999999999
144
1.0
145
0.5
146
1.0
147
0.09
 71
     1
 72
     0
 73
     1
 74
     0
 75
     0
 76
     0
 77
     2
 78
     0
170
     0
171
     2
172
     0
173
     0
174
     1
175
      0
176
5
177
5
178
     1
271
3
272
3
  0
ENDTAB
  0
TABLE
  2
DIMSTYLE
 70
     2
  0
DIMSTYLE
  2
ROUTEDIM
 70
     0
  3

  4

  5
_NONE
  6
_NONE
  7
_NONE
 40
1
 41
0.1
 42
0.0625
 43
0.38
 44
0.18
 45
0.00
 46
0.0
 47
0.0
 48
0.0
140
0.5
141
0.09
142
0.0
143
25.399999999999999
144
1.0
145
0.5
146
1.0
147
0.09
 71
     1
 72
     0
 73
     1
 74
     0
 75
     0
 76
     0
 77
     2
 78
     0
170
     0
171
     2
172
     0
173
     0
174
     1
175
      0
176
5
177
5
178
     1
271
3
272
3
  0
ENDTAB
  0
TABLE
  2
DIMSTYLE
 70
     2
  0
DIMSTYLE
  2
SAWDIM
 70
     0
  3

  4

  5
_NONE
  6
_NONE
  7
_NONE
 40
1
 41
0.1
 42
0.0625
 43
0.38
 44
0.18
 45
0.00
 46
0.0
 47
0.0
 48
0.0
140
0.5
141
0.09
142
0.0
143
25.399999999999999
144
1.0
145
0.5
146
1.0
147
0.09
 71
     1
 72
     0
 73
     1
 74
     0
 75
     0
 76
     0
 77
     2
 78
     0
170
     0
171
     2
172
     0
173
     0
174
     1
175
      0
176
5
177
5
178
     1
271
3
272
3
  0
ENDTAB
  0
TABLE
  2
VPORT
 70
     1
  0
VPORT
  2
*ACTIVE
 70
     0
 10
0.0
 20
0.0
 11
1.0
 21
1.0
 12
0.0
 22
0.0
 13
0.0
 23
0.0
 14
1.0
 24
1.0
 15
0.0
 25
0.0
 16
0.0
 26
0.0
 36
1.0
 17
0.0
 27
0.0
 37
0.0
 40
84
 41
2.0
 42
50.0
 43
0.0
 44
0.0
 50
0.0
 51
0.0
 71
     0
 72
   100
 73
     1
 74
     0
 75
     1
 76
     0
 77
     0
 78
     0
  0
ENDTAB
  0
ENDSEC
  0
SECTION
  2
ENTITIES
  0
POLYLINE
  8
BORDER_Z0P04
 62
     7
 66
     1
 10
0.0
 20
0.0
 30
0.0
 70
     1
  0
VERTEX
  8
BORDER_Z0P04
 62
     7
 10
0.0
 20
0.0
 30
0.0
  0
VERTEX
  8
BORDER_Z0P04
 62
     7
 10
0.0
 20
55.7708
 30
0.0
  0
VERTEX
  8
BORDER_Z0P04
 62
     7
 10
9.938
 20
55.7708
 30
0.0
  0
VERTEX
  8
BORDER_Z0P04
 62
     7
 10
9.938
 20
0.0
 30
0.0
  0
SEQEND
  8
BORDER_Z0P04
 62
     7
  0
POLYLINE
  8
ROUTE_Z0P25LT130RAMP
 62
     3
 66
     1
 10
0.0
 20
0.0
 30
0.0
 70
     0
  0
VERTEX
  8
ROUTE_Z0P25LT130RAMP
 62
     3
 10
7.152749
 20
27.520377
 30
0.0
 42
0.414213562373095
  0
VERTEX
  8
ROUTE_Z0P25LT130RAMP
 62
     3
 10
7.418266
 20
27.85129
 30
0.0
 42
0.0801951015606642
  0
VERTEX
  8
ROUTE_Z0P25LT130RAMP
 62
     3
 10
0
 20
54.733862
 30
0.0
  0
VERTEX
  8
ROUTE_Z0P25LT130RAMP
 62
     3
 10
1.724604
 20
55.7708
 30
0.0
 42
-0.156763425556666
  0
VERTEX
  8
ROUTE_Z0P25LT130RAMP
 62
     3
 10
8.325871
 20
1.397894
 30
0.0
  0
VERTEX
  8
ROUTE_Z0P25LT130RAMP
 62
     3
 10
6.000933
 20
-2.99999999953116E-06
 30
0.0
 42
0.0801951015606642
  0
VERTEX
  8
ROUTE_Z0P25LT130RAMP
 62
     3
 10
7.418266
 20
27.85129
 30
0.0
  0
SEQEND
  8
ROUTE_Z0P25LT130RAMP
 62
     3
  0
DIMENSION
  8
2D_DIM
  2
*D1
  3
BOARDERDIM
  1
9.938
 10
9.938
 20
60.7708
 30
0.0
 11
4.969
 21
60.7708
 31
0.0
 13
0
 23
55.7708
 14
9.938
 24
55.7708
 33
0.0
 34
0.0
53
0
  0
DIMENSION
  8
2D_DIM
  2
*D1
  3
BOARDERDIM
  1
55.771
 10
-5
 20
55.7708
 30
0.0
 11
-5
 21
27.8854
 31
0
 13
0.0
 23
0
 14
0.0
 24
55.7708
 50
90.0
53
0
 33
0.0
 34
0.0
  0
DIMENSION
  8
2D_DIM
  2
*D1
  3
ROUTEDIM
  1
0
 10
0
 20
58.2708
 30
0.0
 11
0
 21
58.2708
 31
0.0
 13
0
 23
55.7708
 14
0
 24
55.7708
 33
0.0
 34
0.0
53
90
  0
DIMENSION
  8
2D_DIM
  2
*D1
  3
ROUTEDIM
  1
1.725
 10
1.724604
 20
58.2708
 30
0.0
 11
0.862302
 21
58.2708
 31
0.0
 13
0
 23
55.7708
 14
1.724604
 24
55.7708
 33
0.0
 34
0.0
53
90
  0
DIMENSION
  8
2D_DIM
  2
*D1
  3
ROUTEDIM
  1
4.276
 10
6.000933
 20
58.2708
 30
0.0
 11
3.0004665
 21
58.2708
 31
0.0
 13
1.724604
 23
55.7708
 14
6.000933
 24
55.7708
 33
0.0
 34
0.0
53
90
  0
DIMENSION
  8
2D_DIM
  2
*D1
  3
ROUTEDIM
  1
1.152
 10
7.152749
 20
58.2708
 30
0.0
 11
3.5763745
 21
58.2708
 31
0.0
 13
6.000933
 23
55.7708
 14
7.152749
 24
55.7708
 33
0.0
 34
0.0
53
90
  0
DIMENSION
  8
2D_DIM
  2
*D1
  3
ROUTEDIM
  1
0.266
 10
7.418266
 20
58.2708
 30
0.0
 11
3.709133
 21
58.2708
 31
0.0
 13
7.152749
 23
55.7708
 14
7.418266
 24
55.7708
 33
0.0
 34
0.0
53
90
  0
DIMENSION
  8
2D_DIM
  2
*D1
  3
ROUTEDIM
  1
0.908
 10
8.325871
 20
58.2708
 30
0.0
 11
4.1629355
 21
58.2708
 31
0.0
 13
7.418266
 23
55.7708
 14
8.325871
 24
55.7708
 33
0.0
 34
0.0
53
90
  0
DIMENSION
  8
2D_DIM
  2
*D1
  3
ROUTEDIM
  1
1.612
 10
9.938
 20
58.2708
 30
0.0
 11
4.969
 21
58.2708
 31
0.0
 13
8.325871
 23
55.7708
 14
9.938
 24
55.7708
 33
0.0
 34
0.0
53
90
  0
DIMENSION
  8
2D_DIM
  2
*D1
  3
ROUTEDIM
  1
0
 10
-2.5
 20
-2.99999999953116E-06
 30
0.0
 11
-2.5
 21
-1.49999999976558E-06
 31
0
 13
0.0
 23
0
 14
0.0
 24
-2.99999999953116E-06
 50
90.0
53
0
 33
0.0
 34
0.0
  0
DIMENSION
  8
2D_DIM
  2
*D1
  3
ROUTEDIM
  1
1.398
 10
-2.5
 20
1.397894
 30
0.0
 11
-2.5
 21
0.698947
 31
0
 13
0.0
 23
-2.99999999953116E-06
 14
0.0
 24
1.397894
 50
90.0
53
0
 33
0.0
 34
0.0
  0
DIMENSION
  8
2D_DIM
  2
*D1
  3
ROUTEDIM
  1
26.122
 10
-2.5
 20
27.520377
 30
0.0
 11
-2.5
 21
13.7601885
 31
0
 13
0.0
 23
1.397894
 14
0.0
 24
27.520377
 50
90.0
53
0
 33
0.0
 34
0.0
  0
DIMENSION
  8
2D_DIM
  2
*D1
  3
ROUTEDIM
  1
0.331
 10
-2.5
 20
27.85129
 30
0.0
 11
-2.5
 21
13.925645
 31
0
 13
0.0
 23
27.520377
 14
0.0
 24
27.85129
 50
90.0
53
0
 33
0.0
 34
0.0
  0
DIMENSION
  8
2D_DIM
  2
*D1
  3
ROUTEDIM
  1
26.883
 10
-2.5
 20
54.733862
 30
0.0
 11
-2.5
 21
27.366931
 31
0
 13
0.0
 23
27.85129
 14
0.0
 24
54.733862
 50
90.0
53
0
 33
0.0
 34
0.0
  0
DIMENSION
  8
2D_DIM
  2
*D1
  3
ROUTEDIM
  1
1.037
 10
-2.5
 20
55.7708
 30
0.0
 11
-2.5
 21
27.8854
 31
0
 13
0.0
 23
54.733862
 14
0.0
 24
55.7708
 50
90.0
53
0
 33
0.0
 34
0.0
  0
DIMENSION
  8
2D_DIM
  2
*D1
  3
ROUTEDIM
  1
0
 10
-2.5
 20
55.7708
 30
0.0
 11
-2.5
 21
27.8854
 31
0
 13
0.0
 23
55.7708
 14
0.0
 24
55.7708
 50
90.0
53
0
 33
0.0
 34
0.0
  0
DIMENSION
  8
2D_DIM
  2
*D1
  3
ROUTEDIM
  1
7.12
 10
7.120051
 20
27.818592
 30
0.0
 11
3.5600255
 21
27.818592
 31
0.0
 13
0
 23
27.818592
 14
7.120051
 24
27.818592
 33
0.0
 34
0.0
53
90
  0
DIMENSION
  8
2D_DIM
  2
*D1
  3
ROUTEDIM
  1
27.819
 10
7.120051
 20
27.818592
 30
0.0
 11
7.120051
 21
13.909296
 31
0
 13
7.120051
 23
0
 14
7.120051
 24
27.818592
 50
90.0
53
0
 33
0.0
 34
0.0
  0
DIMENSION
  8
2D_DIM
  2
*D1
  3
ROUTEDIM
  1
-79.556
 10
-79.5555640421258
 20
18.3156201094735
 30
0.0
 11
-39.7777820210629
 21
18.3156201094735
 31
0.0
 13
0
 23
18.3156201094735
 14
-79.5555640421258
 24
18.3156201094735
 33
0.0
 34
0.0
53
90
  0
DIMENSION
  8
2D_DIM
  2
*D1
  3
ROUTEDIM
  1
18.316
 10
-79.5555640421258
 20
18.3156201094735
 30
0.0
 11
-79.5555640421258
 21
9.15781005473675
 31
0
 13
-79.5555640421258
 23
0
 14
-79.5555640421258
 24
18.3156201094735
 50
90.0
53
0
 33
0.0
 34
0.0
  0
DIMENSION
  8
2D_DIM
  2
*D1
  3
ROUTEDIM
  1
-79.556
 10
-79.5555632606202
 20
18.3156214532239
 30
0.0
 11
-39.7777816303101
 21
18.3156214532239
 31
0.0
 13
0
 23
18.3156214532239
 14
-79.5555632606202
 24
18.3156214532239
 33
0.0
 34
0.0
53
90
  0
DIMENSION
  8
2D_DIM
  2
*D1
  3
ROUTEDIM
  1
18.316
 10
-79.5555632606202
 20
18.3156214532239
 30
0.0
 11
-79.5555632606202
 21
9.15781072661196
 31
0
 13
-79.5555632606202
 23
0
 14
-79.5555632606202
 24
18.3156214532239
 50
90.0
53
0
 33
0.0
 34
0.0
  0
DIMENSION
  8
2D_DIM
  2
*D1
  3
ROUTEDIM
  1
-79.556
 10
-79.5555641858437
 20
18.3156178987595
 30
0.0
 11
-39.7777820929219
 21
18.3156178987595
 31
0.0
 13
0
 23
18.3156178987595
 14
-79.5555641858437
 24
18.3156178987595
 33
0.0
 34
0.0
53
90
  0
DIMENSION
  8
2D_DIM
  2
*D1
  3
ROUTEDIM
  1
18.316
 10
-79.5555641858437
 20
18.3156178987595
 30
0.0
 11
-79.5555641858437
 21
9.15780894937973
 31
0
 13
-79.5555641858437
 23
0
 14
-79.5555641858437
 24
18.3156178987595
 50
90.0
53
0
 33
0.0
 34
0.0
  0
TEXT
  8
ITEMNUMBER
 62
     1
 10
-7.5
 20
-5
 30
0.0
 40
0.5
  1
T31106.24
  0
TEXT
  8
DESCRIPTION
 62
     1
 10
-7.5
 20
-6
 30
0.0
 40
0.5
  1
P2B
  0
TEXT
  8
FILENAME
 62
     1
 10
-7.5
 20
-7
 30
0.0
 40
0.5
  1
5600AE6W
  0
TEXT
  8
MATERIALNAME
 62
     1
 10
-7.5
 20
-8
 30
0.0
 40
0.5
  1
AB1826SEI-PF/4x10
  0
TEXT
  8
Qty
 62
     1
 10
-7.5
 20
-9
 30
0.0
 40
0.5
  1
1
  0
TEXT
  8
RUNFIELD
 62
     1
 10
8
 20
-1
 30
0.0
 40
0.5
  1
Mirrored
  0
ENDSEC
  0
EOF
