  0
SECTION
  2
TABLES
  0
TABLE
  2
DIMSTYLE
 70
     2
  0
DIMSTYLE
  2
BOARDERDIM
 70
     0
  3

  4

  5
_NONE
  6
_NONE
  7
_NONE
 40
1
 41
0.1
 42
0.0625
 43
0.38
 44
0.18
 45
0.00
 46
0.0
 47
0.0
 48
0.0
140
0.5
141
0.09
142
0.0
143
25.399999999999999
144
1.0
145
0.5
146
1.0
147
0.09
 71
     1
 72
     0
 73
     1
 74
     0
 75
     0
 76
     0
 77
     2
 78
     0
170
     0
171
     2
172
     0
173
     0
174
     1
175
      0
176
5
177
5
178
     1
271
3
272
3
  0
ENDTAB
  0
TABLE
  2
DIMSTYLE
 70
     2
  0
DIMSTYLE
  2
VDRILLDIM
 70
     0
  3

  4

  5
_NONE
  6
_NONE
  7
_NONE
 40
1
 41
0.1
 42
0.0625
 43
0.38
 44
0.18
 45
0.00
 46
0.0
 47
0.0
 48
0.0
140
0.5
141
0.09
142
0.0
143
25.399999999999999
144
1.0
145
0.5
146
1.0
147
0.09
 71
     1
 72
     0
 73
     1
 74
     0
 75
     0
 76
     0
 77
     2
 78
     0
170
     0
171
     2
172
     0
173
     0
174
     1
175
      0
176
5
177
5
178
     1
271
3
272
3
  0
ENDTAB
  0
TABLE
  2
DIMSTYLE
 70
     2
  0
DIMSTYLE
  2
HDRILLDIM
 70
     0
  3

  4

  5
_NONE
  6
_NONE
  7
_NONE
 40
1
 41
0.1
 42
0.0625
 43
0.38
 44
0.18
 45
0.00
 46
0.0
 47
0.0
 48
0.0
140
0.5
141
0.09
142
0.0
143
25.399999999999999
144
1.0
145
0.5
146
1.0
147
0.09
 71
     1
 72
     0
 73
     1
 74
     0
 75
     0
 76
     0
 77
     2
 78
     0
170
     0
171
     2
172
     0
173
     0
174
     1
175
      0
176
5
177
5
178
     1
271
3
272
3
  0
ENDTAB
  0
TABLE
  2
DIMSTYLE
 70
     2
  0
DIMSTYLE
  2
ROUTEDIM
 70
     0
  3

  4

  5
_NONE
  6
_NONE
  7
_NONE
 40
1
 41
0.1
 42
0.0625
 43
0.38
 44
0.18
 45
0.00
 46
0.0
 47
0.0
 48
0.0
140
0.5
141
0.09
142
0.0
143
25.399999999999999
144
1.0
145
0.5
146
1.0
147
0.09
 71
     1
 72
     0
 73
     1
 74
     0
 75
     0
 76
     0
 77
     2
 78
     0
170
     0
171
     2
172
     0
173
     0
174
     1
175
      0
176
5
177
5
178
     1
271
3
272
3
  0
ENDTAB
  0
TABLE
  2
DIMSTYLE
 70
     2
  0
DIMSTYLE
  2
SAWDIM
 70
     0
  3

  4

  5
_NONE
  6
_NONE
  7
_NONE
 40
1
 41
0.1
 42
0.0625
 43
0.38
 44
0.18
 45
0.00
 46
0.0
 47
0.0
 48
0.0
140
0.5
141
0.09
142
0.0
143
25.399999999999999
144
1.0
145
0.5
146
1.0
147
0.09
 71
     1
 72
     0
 73
     1
 74
     0
 75
     0
 76
     0
 77
     2
 78
     0
170
     0
171
     2
172
     0
173
     0
174
     1
175
      0
176
5
177
5
178
     1
271
3
272
3
  0
ENDTAB
  0
TABLE
  2
VPORT
 70
     1
  0
VPORT
  2
*ACTIVE
 70
     0
 10
0.0
 20
0.0
 11
1.0
 21
1.0
 12
0.0
 22
0.0
 13
0.0
 23
0.0
 14
1.0
 24
1.0
 15
0.0
 25
0.0
 16
0.0
 26
0.0
 36
1.0
 17
0.0
 27
0.0
 37
0.0
 40
84
 41
2.0
 42
50.0
 43
0.0
 44
0.0
 50
0.0
 51
0.0
 71
     0
 72
   100
 73
     1
 74
     0
 75
     1
 76
     0
 77
     0
 78
     0
  0
ENDTAB
  0
ENDSEC
  0
SECTION
  2
ENTITIES
  0
POLYLINE
  8
BORDER_Z0P04
 62
     7
 66
     1
 10
0.0
 20
0.0
 30
0.0
 70
     1
  0
VERTEX
  8
BORDER_Z0P04
 62
     7
 10
0.0
 20
0.0
 30
0.0
  0
VERTEX
  8
BORDER_Z0P04
 62
     7
 10
0.0
 20
1.2746
 30
0.0
  0
VERTEX
  8
BORDER_Z0P04
 62
     7
 10
3.3946
 20
1.2746
 30
0.0
  0
VERTEX
  8
BORDER_Z0P04
 62
     7
 10
3.3946
 20
0.0
 30
0.0
  0
SEQEND
  8
BORDER_Z0P04
 62
     7
  0
POLYLINE
  8
ROUTE_Z0P25LT130RAMP
 62
     3
 66
     1
 10
0.0
 20
0.0
 30
0.0
 70
     0
  0
VERTEX
  8
ROUTE_Z0P25LT130RAMP
 62
     3
 10
3.50158
 20
1.73739
 30
0.0
  0
VERTEX
  8
ROUTE_Z0P25LT130RAMP
 62
     3
 10
3.417132
 20
1.372022
 30
0.0
 42
0.0171157739889054
  0
VERTEX
  8
ROUTE_Z0P25LT130RAMP
 62
     3
 10
3.145046
 20
-3.40000000000895E-05
 30
0.0
 42
-0.0137557269208772
  0
VERTEX
  8
ROUTE_Z0P25LT130RAMP
 62
     3
 10
-0.09161
 20
1.314696
 30
0.0
  0
VERTEX
  8
ROUTE_Z0P25LT130RAMP
 62
     3
 10
-0.435372
 20
1.464538
 30
0.0
  0
SEQEND
  8
ROUTE_Z0P25LT130RAMP
 62
     3
  0
DIMENSION
  8
2D_DIM
  2
*D1
  3
BOARDERDIM
  1
3.395
 10
3.3946
 20
6.2746
 30
0.0
 11
1.6973
 21
6.2746
 31
0.0
 13
0
 23
1.2746
 14
3.3946
 24
1.2746
 33
0.0
 34
0.0
53
0
  0
DIMENSION
  8
2D_DIM
  2
*D1
  3
BOARDERDIM
  1
1.275
 10
-5
 20
1.2746
 30
0.0
 11
-5
 21
0.6373
 31
0
 13
0.0
 23
0
 14
0.0
 24
1.2746
 50
90.0
53
0
 33
0.0
 34
0.0
  0
DIMENSION
  8
2D_DIM
  2
*D1
  3
ROUTEDIM
  1
-0.435
 10
-0.435372
 20
3.7746
 30
0.0
 11
-0.217686
 21
3.7746
 31
0.0
 13
0
 23
1.2746
 14
-0.435372
 24
1.2746
 33
0.0
 34
0.0
53
90
  0
DIMENSION
  8
2D_DIM
  2
*D1
  3
ROUTEDIM
  1
0.344
 10
-0.09161
 20
3.7746
 30
0.0
 11
-0.045805
 21
3.7746
 31
0.0
 13
-0.435372
 23
1.2746
 14
-0.09161
 24
1.2746
 33
0.0
 34
0.0
53
90
  0
DIMENSION
  8
2D_DIM
  2
*D1
  3
ROUTEDIM
  1
3.237
 10
3.145046
 20
3.7746
 30
0.0
 11
1.572523
 21
3.7746
 31
0.0
 13
-0.09161
 23
1.2746
 14
3.145046
 24
1.2746
 33
0.0
 34
0.0
53
90
  0
DIMENSION
  8
2D_DIM
  2
*D1
  3
ROUTEDIM
  1
0.272
 10
3.417132
 20
3.7746
 30
0.0
 11
1.708566
 21
3.7746
 31
0.0
 13
3.145046
 23
1.2746
 14
3.417132
 24
1.2746
 33
0.0
 34
0.0
53
90
  0
DIMENSION
  8
2D_DIM
  2
*D1
  3
ROUTEDIM
  1
0.084
 10
3.50158
 20
3.7746
 30
0.0
 11
1.75079
 21
3.7746
 31
0.0
 13
3.417132
 23
1.2746
 14
3.50158
 24
1.2746
 33
0.0
 34
0.0
53
90
  0
DIMENSION
  8
2D_DIM
  2
*D1
  3
ROUTEDIM
  1
-0.107
 10
3.3946
 20
3.7746
 30
0.0
 11
1.6973
 21
3.7746
 31
0.0
 13
3.50158
 23
1.2746
 14
3.3946
 24
1.2746
 33
0.0
 34
0.0
53
90
  0
DIMENSION
  8
2D_DIM
  2
*D1
  3
ROUTEDIM
  1
0
 10
-2.5
 20
-3.40000000000895E-05
 30
0.0
 11
-2.5
 21
-1.70000000000448E-05
 31
0
 13
0.0
 23
0
 14
0.0
 24
-3.40000000000895E-05
 50
90.0
53
0
 33
0.0
 34
0.0
  0
DIMENSION
  8
2D_DIM
  2
*D1
  3
ROUTEDIM
  1
1.315
 10
-2.5
 20
1.314696
 30
0.0
 11
-2.5
 21
0.657348
 31
0
 13
0.0
 23
-3.40000000000895E-05
 14
0.0
 24
1.314696
 50
90.0
53
0
 33
0.0
 34
0.0
  0
DIMENSION
  8
2D_DIM
  2
*D1
  3
ROUTEDIM
  1
0.057
 10
-2.5
 20
1.372022
 30
0.0
 11
-2.5
 21
0.686011
 31
0
 13
0.0
 23
1.314696
 14
0.0
 24
1.372022
 50
90.0
53
0
 33
0.0
 34
0.0
  0
DIMENSION
  8
2D_DIM
  2
*D1
  3
ROUTEDIM
  1
0.093
 10
-2.5
 20
1.464538
 30
0.0
 11
-2.5
 21
0.732269
 31
0
 13
0.0
 23
1.372022
 14
0.0
 24
1.464538
 50
90.0
53
0
 33
0.0
 34
0.0
  0
DIMENSION
  8
2D_DIM
  2
*D1
  3
ROUTEDIM
  1
0.273
 10
-2.5
 20
1.73739
 30
0.0
 11
-2.5
 21
0.868695
 31
0
 13
0.0
 23
1.464538
 14
0.0
 24
1.73739
 50
90.0
53
0
 33
0.0
 34
0.0
  0
DIMENSION
  8
2D_DIM
  2
*D1
  3
ROUTEDIM
  1
0.463
 10
-2.5
 20
1.2746
 30
0.0
 11
-2.5
 21
0.6373
 31
0
 13
0.0
 23
1.73739
 14
0.0
 24
1.2746
 50
90.0
53
0
 33
0.0
 34
0.0
  0
DIMENSION
  8
2D_DIM
  2
*D1
  3
ROUTEDIM
  1
23.316
 10
23.316029538902
 20
-3.2870412343255
 30
0.0
 11
11.658014769451
 21
-3.2870412343255
 31
0.0
 13
0
 23
-3.2870412343255
 14
23.316029538902
 24
-3.2870412343255
 33
0.0
 34
0.0
53
90
  0
DIMENSION
  8
2D_DIM
  2
*D1
  3
ROUTEDIM
  1
3.287
 10
23.316029538902
 20
-3.2870412343255
 30
0.0
 11
23.316029538902
 21
-1.64352061716275
 31
0
 13
23.316029538902
 23
0
 14
23.316029538902
 24
-3.2870412343255
 50
90.0
53
0
 33
0.0
 34
0.0
  0
DIMENSION
  8
2D_DIM
  2
*D1
  3
ROUTEDIM
  1
25.416
 10
25.4164265250363
 20
59.4699909650194
 30
0.0
 11
12.7082132625182
 21
59.4699909650194
 31
0.0
 13
0
 23
59.4699909650194
 14
25.4164265250363
 24
59.4699909650194
 33
0.0
 34
0.0
53
90
  0
DIMENSION
  8
2D_DIM
  2
*D1
  3
ROUTEDIM
  1
59.47
 10
25.4164265250363
 20
59.4699909650194
 30
0.0
 11
25.4164265250363
 21
29.7349954825097
 31
0
 13
25.4164265250363
 23
0
 14
25.4164265250363
 24
59.4699909650194
 50
90.0
53
0
 33
0.0
 34
0.0
  0
TEXT
  8
ITEMNUMBER
 62
     1
 10
-7.5
 20
-5
 30
0.0
 40
0.5
  1
T31106.22
  0
TEXT
  8
DESCRIPTION
 62
     1
 10
-7.5
 20
-6
 30
0.0
 40
0.5
  1
P3B
  0
TEXT
  8
FILENAME
 62
     1
 10
-7.5
 20
-7
 30
0.0
 40
0.5
  1
5600AE2Q
  0
TEXT
  8
MATERIALNAME
 62
     1
 10
-7.5
 20
-8
 30
0.0
 40
0.5
  1
AB1860SEI-PF/4x10
  0
TEXT
  8
Qty
 62
     1
 10
-7.5
 20
-9
 30
0.0
 40
0.5
  1
2
  0
TEXT
  8
RUNFIELD
 62
     1
 10
8
 20
-1
 30
0.0
 40
0.5
  1
Mirrored
  0
ENDSEC
  0
EOF
