  0
SECTION
  2
TABLES
  0
TABLE
  2
DIMSTYLE
 70
     2
  0
DIMSTYLE
  2
BOARDERDIM
 70
     0
  3

  4

  5
_NONE
  6
_NONE
  7
_NONE
 40
1
 41
0.1
 42
0.0625
 43
0.38
 44
0.18
 45
0.00
 46
0.0
 47
0.0
 48
0.0
140
0.5
141
0.09
142
0.0
143
25.399999999999999
144
1.0
145
0.5
146
1.0
147
0.09
 71
     1
 72
     0
 73
     1
 74
     0
 75
     0
 76
     0
 77
     2
 78
     0
170
     0
171
     2
172
     0
173
     0
174
     1
175
      0
176
5
177
5
178
     1
271
3
272
3
  0
ENDTAB
  0
TABLE
  2
DIMSTYLE
 70
     2
  0
DIMSTYLE
  2
VDRILLDIM
 70
     0
  3

  4

  5
_NONE
  6
_NONE
  7
_NONE
 40
1
 41
0.1
 42
0.0625
 43
0.38
 44
0.18
 45
0.00
 46
0.0
 47
0.0
 48
0.0
140
0.5
141
0.09
142
0.0
143
25.399999999999999
144
1.0
145
0.5
146
1.0
147
0.09
 71
     1
 72
     0
 73
     1
 74
     0
 75
     0
 76
     0
 77
     2
 78
     0
170
     0
171
     2
172
     0
173
     0
174
     1
175
      0
176
5
177
5
178
     1
271
3
272
3
  0
ENDTAB
  0
TABLE
  2
DIMSTYLE
 70
     2
  0
DIMSTYLE
  2
HDRILLDIM
 70
     0
  3

  4

  5
_NONE
  6
_NONE
  7
_NONE
 40
1
 41
0.1
 42
0.0625
 43
0.38
 44
0.18
 45
0.00
 46
0.0
 47
0.0
 48
0.0
140
0.5
141
0.09
142
0.0
143
25.399999999999999
144
1.0
145
0.5
146
1.0
147
0.09
 71
     1
 72
     0
 73
     1
 74
     0
 75
     0
 76
     0
 77
     2
 78
     0
170
     0
171
     2
172
     0
173
     0
174
     1
175
      0
176
5
177
5
178
     1
271
3
272
3
  0
ENDTAB
  0
TABLE
  2
DIMSTYLE
 70
     2
  0
DIMSTYLE
  2
ROUTEDIM
 70
     0
  3

  4

  5
_NONE
  6
_NONE
  7
_NONE
 40
1
 41
0.1
 42
0.0625
 43
0.38
 44
0.18
 45
0.00
 46
0.0
 47
0.0
 48
0.0
140
0.5
141
0.09
142
0.0
143
25.399999999999999
144
1.0
145
0.5
146
1.0
147
0.09
 71
     1
 72
     0
 73
     1
 74
     0
 75
     0
 76
     0
 77
     2
 78
     0
170
     0
171
     2
172
     0
173
     0
174
     1
175
      0
176
5
177
5
178
     1
271
3
272
3
  0
ENDTAB
  0
TABLE
  2
DIMSTYLE
 70
     2
  0
DIMSTYLE
  2
SAWDIM
 70
     0
  3

  4

  5
_NONE
  6
_NONE
  7
_NONE
 40
1
 41
0.1
 42
0.0625
 43
0.38
 44
0.18
 45
0.00
 46
0.0
 47
0.0
 48
0.0
140
0.5
141
0.09
142
0.0
143
25.399999999999999
144
1.0
145
0.5
146
1.0
147
0.09
 71
     1
 72
     0
 73
     1
 74
     0
 75
     0
 76
     0
 77
     2
 78
     0
170
     0
171
     2
172
     0
173
     0
174
     1
175
      0
176
5
177
5
178
     1
271
3
272
3
  0
ENDTAB
  0
TABLE
  2
VPORT
 70
     1
  0
VPORT
  2
*ACTIVE
 70
     0
 10
0.0
 20
0.0
 11
1.0
 21
1.0
 12
0.0
 22
0.0
 13
0.0
 23
0.0
 14
1.0
 24
1.0
 15
0.0
 25
0.0
 16
0.0
 26
0.0
 36
1.0
 17
0.0
 27
0.0
 37
0.0
 40
84
 41
2.0
 42
50.0
 43
0.0
 44
0.0
 50
0.0
 51
0.0
 71
     0
 72
   100
 73
     1
 74
     0
 75
     1
 76
     0
 77
     0
 78
     0
  0
ENDTAB
  0
ENDSEC
  0
SECTION
  2
ENTITIES
  0
POLYLINE
  8
BORDER_Z0P04
 62
     7
 66
     1
 10
0.0
 20
0.0
 30
0.0
 70
     1
  0
VERTEX
  8
BORDER_Z0P04
 62
     7
 10
0.0
 20
0.0
 30
0.0
  0
VERTEX
  8
BORDER_Z0P04
 62
     7
 10
0.0
 20
27.3532
 30
0.0
  0
VERTEX
  8
BORDER_Z0P04
 62
     7
 10
3.0728
 20
27.3532
 30
0.0
  0
VERTEX
  8
BORDER_Z0P04
 62
     7
 10
3.0728
 20
0.0
 30
0.0
  0
SEQEND
  8
BORDER_Z0P04
 62
     7
  0
POLYLINE
  8
ROUTE_Z0P25LT130RAMP
 62
     3
 66
     1
 10
0.0
 20
0.0
 30
0.0
 70
     0
  0
VERTEX
  8
ROUTE_Z0P25LT130RAMP
 62
     3
 10
0.774031
 20
13.332176
 30
0.0
 42
0.414213562373095
  0
VERTEX
  8
ROUTE_Z0P25LT130RAMP
 62
     3
 10
1.07391
 20
13.632295
 30
0.0
 42
0.0391296068477475
  0
VERTEX
  8
ROUTE_Z0P25LT130RAMP
 62
     3
 10
0
 20
27.263703
 30
0.0
  0
VERTEX
  8
ROUTE_Z0P25LT130RAMP
 62
     3
 10
0.880431
 20
27.3532
 30
0.0
 42
0.0475331314128426
  0
VERTEX
  8
ROUTE_Z0P25LT130RAMP
 62
     3
 10
2.092941
 20
26.81175
 30
0.0
 42
-0.0747284811259183
  0
VERTEX
  8
ROUTE_Z0P25LT130RAMP
 62
     3
 10
2.066826
 20
0.209018
 30
0.0
  0
VERTEX
  8
ROUTE_Z0P25LT130RAMP
 62
     3
 10
0.010916
 20
3.20000000009202E-05
 30
0.0
 42
0.0391296068477475
  0
VERTEX
  8
ROUTE_Z0P25LT130RAMP
 62
     3
 10
1.07391
 20
13.632295
 30
0.0
  0
SEQEND
  8
ROUTE_Z0P25LT130RAMP
 62
     3
  0
DIMENSION
  8
2D_DIM
  2
*D1
  3
BOARDERDIM
  1
3.073
 10
3.0728
 20
32.3532
 30
0.0
 11
1.5364
 21
32.3532
 31
0.0
 13
0
 23
27.3532
 14
3.0728
 24
27.3532
 33
0.0
 34
0.0
53
0
  0
DIMENSION
  8
2D_DIM
  2
*D1
  3
BOARDERDIM
  1
27.353
 10
-5
 20
27.3532
 30
0.0
 11
-5
 21
13.6766
 31
0
 13
0.0
 23
0
 14
0.0
 24
27.3532
 50
90.0
53
0
 33
0.0
 34
0.0
  0
DIMENSION
  8
2D_DIM
  2
*D1
  3
ROUTEDIM
  1
0
 10
0
 20
29.8532
 30
0.0
 11
0
 21
29.8532
 31
0.0
 13
0
 23
27.3532
 14
0
 24
27.3532
 33
0.0
 34
0.0
53
90
  0
DIMENSION
  8
2D_DIM
  2
*D1
  3
ROUTEDIM
  1
0.011
 10
0.010916
 20
29.8532
 30
0.0
 11
0.005458
 21
29.8532
 31
0.0
 13
0
 23
27.3532
 14
0.010916
 24
27.3532
 33
0.0
 34
0.0
53
90
  0
DIMENSION
  8
2D_DIM
  2
*D1
  3
ROUTEDIM
  1
0.763
 10
0.774031
 20
29.8532
 30
0.0
 11
0.3870155
 21
29.8532
 31
0.0
 13
0.010916
 23
27.3532
 14
0.774031
 24
27.3532
 33
0.0
 34
0.0
53
90
  0
DIMENSION
  8
2D_DIM
  2
*D1
  3
ROUTEDIM
  1
0.106
 10
0.880431
 20
29.8532
 30
0.0
 11
0.4402155
 21
29.8532
 31
0.0
 13
0.774031
 23
27.3532
 14
0.880431
 24
27.3532
 33
0.0
 34
0.0
53
90
  0
DIMENSION
  8
2D_DIM
  2
*D1
  3
ROUTEDIM
  1
0.193
 10
1.07391
 20
29.8532
 30
0.0
 11
0.536955
 21
29.8532
 31
0.0
 13
0.880431
 23
27.3532
 14
1.07391
 24
27.3532
 33
0.0
 34
0.0
53
90
  0
DIMENSION
  8
2D_DIM
  2
*D1
  3
ROUTEDIM
  1
0.993
 10
2.066826
 20
29.8532
 30
0.0
 11
1.033413
 21
29.8532
 31
0.0
 13
1.07391
 23
27.3532
 14
2.066826
 24
27.3532
 33
0.0
 34
0.0
53
90
  0
DIMENSION
  8
2D_DIM
  2
*D1
  3
ROUTEDIM
  1
0.026
 10
2.092941
 20
29.8532
 30
0.0
 11
1.0464705
 21
29.8532
 31
0.0
 13
2.066826
 23
27.3532
 14
2.092941
 24
27.3532
 33
0.0
 34
0.0
53
90
  0
DIMENSION
  8
2D_DIM
  2
*D1
  3
ROUTEDIM
  1
0.98
 10
3.0728
 20
29.8532
 30
0.0
 11
1.5364
 21
29.8532
 31
0.0
 13
2.092941
 23
27.3532
 14
3.0728
 24
27.3532
 33
0.0
 34
0.0
53
90
  0
DIMENSION
  8
2D_DIM
  2
*D1
  3
ROUTEDIM
  1
-0
 10
-2.5
 20
3.20000000009202E-05
 30
0.0
 11
-2.5
 21
1.60000000004601E-05
 31
0
 13
0.0
 23
0
 14
0.0
 24
3.20000000009202E-05
 50
90.0
53
0
 33
0.0
 34
0.0
  0
DIMENSION
  8
2D_DIM
  2
*D1
  3
ROUTEDIM
  1
0.209
 10
-2.5
 20
0.209018
 30
0.0
 11
-2.5
 21
0.104509
 31
0
 13
0.0
 23
3.20000000009202E-05
 14
0.0
 24
0.209018
 50
90.0
53
0
 33
0.0
 34
0.0
  0
DIMENSION
  8
2D_DIM
  2
*D1
  3
ROUTEDIM
  1
13.123
 10
-2.5
 20
13.332176
 30
0.0
 11
-2.5
 21
6.666088
 31
0
 13
0.0
 23
0.209018
 14
0.0
 24
13.332176
 50
90.0
53
0
 33
0.0
 34
0.0
  0
DIMENSION
  8
2D_DIM
  2
*D1
  3
ROUTEDIM
  1
0.3
 10
-2.5
 20
13.632295
 30
0.0
 11
-2.5
 21
6.8161475
 31
0
 13
0.0
 23
13.332176
 14
0.0
 24
13.632295
 50
90.0
53
0
 33
0.0
 34
0.0
  0
DIMENSION
  8
2D_DIM
  2
*D1
  3
ROUTEDIM
  1
13.179
 10
-2.5
 20
26.81175
 30
0.0
 11
-2.5
 21
13.405875
 31
0
 13
0.0
 23
13.632295
 14
0.0
 24
26.81175
 50
90.0
53
0
 33
0.0
 34
0.0
  0
DIMENSION
  8
2D_DIM
  2
*D1
  3
ROUTEDIM
  1
0.452
 10
-2.5
 20
27.263703
 30
0.0
 11
-2.5
 21
13.6318515
 31
0
 13
0.0
 23
26.81175
 14
0.0
 24
27.263703
 50
90.0
53
0
 33
0.0
 34
0.0
  0
DIMENSION
  8
2D_DIM
  2
*D1
  3
ROUTEDIM
  1
0.089
 10
-2.5
 20
27.3532
 30
0.0
 11
-2.5
 21
13.6766
 31
0
 13
0.0
 23
27.263703
 14
0.0
 24
27.3532
 50
90.0
53
0
 33
0.0
 34
0.0
  0
DIMENSION
  8
2D_DIM
  2
*D1
  3
ROUTEDIM
  1
0
 10
-2.5
 20
27.3532
 30
0.0
 11
-2.5
 21
13.6766
 31
0
 13
0.0
 23
27.3532
 14
0.0
 24
27.3532
 50
90.0
53
0
 33
0.0
 34
0.0
  0
DIMENSION
  8
2D_DIM
  2
*D1
  3
ROUTEDIM
  1
0.774
 10
0.773911
 20
13.632175
 30
0.0
 11
0.3869555
 21
13.632175
 31
0.0
 13
0
 23
13.632175
 14
0.773911
 24
13.632175
 33
0.0
 34
0.0
53
90
  0
DIMENSION
  8
2D_DIM
  2
*D1
  3
ROUTEDIM
  1
13.632
 10
0.773911
 20
13.632175
 30
0.0
 11
0.773911
 21
6.8160875
 31
0
 13
0.773911
 23
0
 14
0.773911
 24
13.632175
 50
90.0
53
0
 33
0.0
 34
0.0
  0
DIMENSION
  8
2D_DIM
  2
*D1
  3
ROUTEDIM
  1
-86.421
 10
-86.4210909110717
 20
13.5972675800059
 30
0.0
 11
-43.2105454555359
 21
13.5972675800059
 31
0.0
 13
0
 23
13.5972675800059
 14
-86.4210909110717
 24
13.5972675800059
 33
0.0
 34
0.0
53
90
  0
DIMENSION
  8
2D_DIM
  2
*D1
  3
ROUTEDIM
  1
13.597
 10
-86.4210909110717
 20
13.5972675800059
 30
0.0
 11
-86.4210909110717
 21
6.79863379000295
 31
0
 13
-86.4210909110717
 23
0
 14
-86.4210909110717
 24
13.5972675800059
 50
90.0
53
0
 33
0.0
 34
0.0
  0
DIMENSION
  8
2D_DIM
  2
*D1
  3
ROUTEDIM
  1
4.328
 10
4.32800232284943
 20
33.4452498723209
 30
0.0
 11
2.16400116142471
 21
33.4452498723209
 31
0.0
 13
0
 23
33.4452498723209
 14
4.32800232284943
 24
33.4452498723209
 33
0.0
 34
0.0
53
90
  0
DIMENSION
  8
2D_DIM
  2
*D1
  3
ROUTEDIM
  1
33.445
 10
4.32800232284943
 20
33.4452498723209
 30
0.0
 11
4.32800232284943
 21
16.7226249361605
 31
0
 13
4.32800232284943
 23
0
 14
4.32800232284943
 24
33.4452498723209
 50
90.0
53
0
 33
0.0
 34
0.0
  0
DIMENSION
  8
2D_DIM
  2
*D1
  3
ROUTEDIM
  1
-86.421
 10
-86.4210894365453
 20
13.5972624043773
 30
0.0
 11
-43.2105447182727
 21
13.5972624043773
 31
0.0
 13
0
 23
13.5972624043773
 14
-86.4210894365453
 24
13.5972624043773
 33
0.0
 34
0.0
53
90
  0
DIMENSION
  8
2D_DIM
  2
*D1
  3
ROUTEDIM
  1
13.597
 10
-86.4210894365453
 20
13.5972624043773
 30
0.0
 11
-86.4210894365453
 21
6.79863120218866
 31
0
 13
-86.4210894365453
 23
0
 14
-86.4210894365453
 24
13.5972624043773
 50
90.0
53
0
 33
0.0
 34
0.0
  0
DIMENSION
  8
2D_DIM
  2
*D1
  3
ROUTEDIM
  1
-86.421
 10
-86.4210871626981
 20
13.597259117943
 30
0.0
 11
-43.2105435813491
 21
13.597259117943
 31
0.0
 13
0
 23
13.597259117943
 14
-86.4210871626981
 24
13.597259117943
 33
0.0
 34
0.0
53
90
  0
DIMENSION
  8
2D_DIM
  2
*D1
  3
ROUTEDIM
  1
13.597
 10
-86.4210871626981
 20
13.597259117943
 30
0.0
 11
-86.4210871626981
 21
6.79862955897152
 31
0
 13
-86.4210871626981
 23
0
 14
-86.4210871626981
 24
13.597259117943
 50
90.0
53
0
 33
0.0
 34
0.0
  0
TEXT
  8
ITEMNUMBER
 62
     1
 10
-7.5
 20
-5
 30
0.0
 40
0.5
  1
T31106.24
  0
TEXT
  8
DESCRIPTION
 62
     1
 10
-7.5
 20
-6
 30
0.0
 40
0.5
  1
P3A
  0
TEXT
  8
FILENAME
 62
     1
 10
-7.5
 20
-7
 30
0.0
 40
0.5
  1
5600AE72
  0
TEXT
  8
MATERIALNAME
 62
     1
 10
-7.5
 20
-8
 30
0.0
 40
0.5
  1
AB1826SEI-PF/4x10
  0
TEXT
  8
Qty
 62
     1
 10
-7.5
 20
-9
 30
0.0
 40
0.5
  1
1
  0
TEXT
  8
RUNFIELD
 62
     1
 10
8
 20
-1
 30
0.0
 40
0.5
  1
Mirrored
  0
ENDSEC
  0
EOF
