  0
SECTION
  2
TABLES
  0
TABLE
  2
DIMSTYLE
 70
     2
  0
DIMSTYLE
  2
BOARDERDIM
 70
     0
  3

  4

  5
_NONE
  6
_NONE
  7
_NONE
 40
1
 41
0.1
 42
0.0625
 43
0.38
 44
0.18
 45
0.00
 46
0.0
 47
0.0
 48
0.0
140
0.5
141
0.09
142
0.0
143
25.399999999999999
144
1.0
145
0.5
146
1.0
147
0.09
 71
     1
 72
     0
 73
     1
 74
     0
 75
     0
 76
     0
 77
     2
 78
     0
170
     0
171
     2
172
     0
173
     0
174
     1
175
      0
176
5
177
5
178
     1
271
3
272
3
  0
ENDTAB
  0
TABLE
  2
DIMSTYLE
 70
     2
  0
DIMSTYLE
  2
VDRILLDIM
 70
     0
  3

  4

  5
_NONE
  6
_NONE
  7
_NONE
 40
1
 41
0.1
 42
0.0625
 43
0.38
 44
0.18
 45
0.00
 46
0.0
 47
0.0
 48
0.0
140
0.5
141
0.09
142
0.0
143
25.399999999999999
144
1.0
145
0.5
146
1.0
147
0.09
 71
     1
 72
     0
 73
     1
 74
     0
 75
     0
 76
     0
 77
     2
 78
     0
170
     0
171
     2
172
     0
173
     0
174
     1
175
      0
176
5
177
5
178
     1
271
3
272
3
  0
ENDTAB
  0
TABLE
  2
DIMSTYLE
 70
     2
  0
DIMSTYLE
  2
HDRILLDIM
 70
     0
  3

  4

  5
_NONE
  6
_NONE
  7
_NONE
 40
1
 41
0.1
 42
0.0625
 43
0.38
 44
0.18
 45
0.00
 46
0.0
 47
0.0
 48
0.0
140
0.5
141
0.09
142
0.0
143
25.399999999999999
144
1.0
145
0.5
146
1.0
147
0.09
 71
     1
 72
     0
 73
     1
 74
     0
 75
     0
 76
     0
 77
     2
 78
     0
170
     0
171
     2
172
     0
173
     0
174
     1
175
      0
176
5
177
5
178
     1
271
3
272
3
  0
ENDTAB
  0
TABLE
  2
DIMSTYLE
 70
     2
  0
DIMSTYLE
  2
ROUTEDIM
 70
     0
  3

  4

  5
_NONE
  6
_NONE
  7
_NONE
 40
1
 41
0.1
 42
0.0625
 43
0.38
 44
0.18
 45
0.00
 46
0.0
 47
0.0
 48
0.0
140
0.5
141
0.09
142
0.0
143
25.399999999999999
144
1.0
145
0.5
146
1.0
147
0.09
 71
     1
 72
     0
 73
     1
 74
     0
 75
     0
 76
     0
 77
     2
 78
     0
170
     0
171
     2
172
     0
173
     0
174
     1
175
      0
176
5
177
5
178
     1
271
3
272
3
  0
ENDTAB
  0
TABLE
  2
DIMSTYLE
 70
     2
  0
DIMSTYLE
  2
SAWDIM
 70
     0
  3

  4

  5
_NONE
  6
_NONE
  7
_NONE
 40
1
 41
0.1
 42
0.0625
 43
0.38
 44
0.18
 45
0.00
 46
0.0
 47
0.0
 48
0.0
140
0.5
141
0.09
142
0.0
143
25.399999999999999
144
1.0
145
0.5
146
1.0
147
0.09
 71
     1
 72
     0
 73
     1
 74
     0
 75
     0
 76
     0
 77
     2
 78
     0
170
     0
171
     2
172
     0
173
     0
174
     1
175
      0
176
5
177
5
178
     1
271
3
272
3
  0
ENDTAB
  0
TABLE
  2
VPORT
 70
     1
  0
VPORT
  2
*ACTIVE
 70
     0
 10
0.0
 20
0.0
 11
1.0
 21
1.0
 12
0.0
 22
0.0
 13
0.0
 23
0.0
 14
1.0
 24
1.0
 15
0.0
 25
0.0
 16
0.0
 26
0.0
 36
1.0
 17
0.0
 27
0.0
 37
0.0
 40
84
 41
2.0
 42
50.0
 43
0.0
 44
0.0
 50
0.0
 51
0.0
 71
     0
 72
   100
 73
     1
 74
     0
 75
     1
 76
     0
 77
     0
 78
     0
  0
ENDTAB
  0
ENDSEC
  0
SECTION
  2
ENTITIES
  0
POLYLINE
  8
BORDER_Z0P04
 62
     7
 66
     1
 10
0.0
 20
0.0
 30
0.0
 70
     1
  0
VERTEX
  8
BORDER_Z0P04
 62
     7
 10
0.0
 20
0.0
 30
0.0
  0
VERTEX
  8
BORDER_Z0P04
 62
     7
 10
0.0
 20
43.6413
 30
0.0
  0
VERTEX
  8
BORDER_Z0P04
 62
     7
 10
16.0637
 20
43.6413
 30
0.0
  0
VERTEX
  8
BORDER_Z0P04
 62
     7
 10
16.0637
 20
0.0
 30
0.0
  0
SEQEND
  8
BORDER_Z0P04
 62
     7
  0
POLYLINE
  8
ROUTE_Z0P25LT130RAMP
 62
     3
 66
     1
 10
0.0
 20
0.0
 30
0.0
 70
     0
  0
VERTEX
  8
ROUTE_Z0P25LT130RAMP
 62
     3
 10
15.111338
 20
16.617675
 30
0.0
 42
0.414213562373095
  0
VERTEX
  8
ROUTE_Z0P25LT130RAMP
 62
     3
 10
14.737188
 20
16.417645
 30
0.0
 42
-0.169409313864018
  0
VERTEX
  8
ROUTE_Z0P25LT130RAMP
 62
     3
 10
2.765165
 20
-2.89999999978363E-05
 30
0.0
  0
VERTEX
  8
ROUTE_Z0P25LT130RAMP
 62
     3
 10
0.123867
 20
2.463828
 30
0.0
 42
0.249459435231508
  0
VERTEX
  8
ROUTE_Z0P25LT130RAMP
 62
     3
 10
12.585952
 20
24.954062
 30
0.0
  0
VERTEX
  8
ROUTE_Z0P25LT130RAMP
 62
     3
 10
0
 20
36.694499
 30
0.0
  0
VERTEX
  8
ROUTE_Z0P25LT130RAMP
 62
     3
 10
6.48012
 20
43.6413
 30
0.0
  0
VERTEX
  8
ROUTE_Z0P25LT130RAMP
 62
     3
 10
13.900311
 20
36.719592
 30
0.0
 42
-0.169409313864018
  0
VERTEX
  8
ROUTE_Z0P25LT130RAMP
 62
     3
 10
14.737188
 20
16.417645
 30
0.0
  0
SEQEND
  8
ROUTE_Z0P25LT130RAMP
 62
     3
  0
DIMENSION
  8
2D_DIM
  2
*D1
  3
BOARDERDIM
  1
16.064
 10
16.0637
 20
48.6413
 30
0.0
 11
8.03185
 21
48.6413
 31
0.0
 13
0
 23
43.6413
 14
16.0637
 24
43.6413
 33
0.0
 34
0.0
53
0
  0
DIMENSION
  8
2D_DIM
  2
*D1
  3
BOARDERDIM
  1
43.641
 10
-5
 20
43.6413
 30
0.0
 11
-5
 21
21.82065
 31
0
 13
0.0
 23
0
 14
0.0
 24
43.6413
 50
90.0
53
0
 33
0.0
 34
0.0
  0
DIMENSION
  8
2D_DIM
  2
*D1
  3
ROUTEDIM
  1
0
 10
0
 20
46.1413
 30
0.0
 11
0
 21
46.1413
 31
0.0
 13
0
 23
43.6413
 14
0
 24
43.6413
 33
0.0
 34
0.0
53
90
  0
DIMENSION
  8
2D_DIM
  2
*D1
  3
ROUTEDIM
  1
0.124
 10
0.123867
 20
46.1413
 30
0.0
 11
0.0619335
 21
46.1413
 31
0.0
 13
0
 23
43.6413
 14
0.123867
 24
43.6413
 33
0.0
 34
0.0
53
90
  0
DIMENSION
  8
2D_DIM
  2
*D1
  3
ROUTEDIM
  1
2.641
 10
2.765165
 20
46.1413
 30
0.0
 11
1.3825825
 21
46.1413
 31
0.0
 13
0.123867
 23
43.6413
 14
2.765165
 24
43.6413
 33
0.0
 34
0.0
53
90
  0
DIMENSION
  8
2D_DIM
  2
*D1
  3
ROUTEDIM
  1
3.715
 10
6.48012
 20
46.1413
 30
0.0
 11
3.24006
 21
46.1413
 31
0.0
 13
2.765165
 23
43.6413
 14
6.48012
 24
43.6413
 33
0.0
 34
0.0
53
90
  0
DIMENSION
  8
2D_DIM
  2
*D1
  3
ROUTEDIM
  1
6.106
 10
12.585952
 20
46.1413
 30
0.0
 11
6.292976
 21
46.1413
 31
0.0
 13
6.48012
 23
43.6413
 14
12.585952
 24
43.6413
 33
0.0
 34
0.0
53
90
  0
DIMENSION
  8
2D_DIM
  2
*D1
  3
ROUTEDIM
  1
1.314
 10
13.900311
 20
46.1413
 30
0.0
 11
6.9501555
 21
46.1413
 31
0.0
 13
12.585952
 23
43.6413
 14
13.900311
 24
43.6413
 33
0.0
 34
0.0
53
90
  0
DIMENSION
  8
2D_DIM
  2
*D1
  3
ROUTEDIM
  1
0.837
 10
14.737188
 20
46.1413
 30
0.0
 11
7.368594
 21
46.1413
 31
0.0
 13
13.900311
 23
43.6413
 14
14.737188
 24
43.6413
 33
0.0
 34
0.0
53
90
  0
DIMENSION
  8
2D_DIM
  2
*D1
  3
ROUTEDIM
  1
0.374
 10
15.111338
 20
46.1413
 30
0.0
 11
7.555669
 21
46.1413
 31
0.0
 13
14.737188
 23
43.6413
 14
15.111338
 24
43.6413
 33
0.0
 34
0.0
53
90
  0
DIMENSION
  8
2D_DIM
  2
*D1
  3
ROUTEDIM
  1
0.952
 10
16.0637
 20
46.1413
 30
0.0
 11
8.03185
 21
46.1413
 31
0.0
 13
15.111338
 23
43.6413
 14
16.0637
 24
43.6413
 33
0.0
 34
0.0
53
90
  0
DIMENSION
  8
2D_DIM
  2
*D1
  3
ROUTEDIM
  1
0
 10
-2.5
 20
-2.89999999978363E-05
 30
0.0
 11
-2.5
 21
-1.44999999989181E-05
 31
0
 13
0.0
 23
0
 14
0.0
 24
-2.89999999978363E-05
 50
90.0
53
0
 33
0.0
 34
0.0
  0
DIMENSION
  8
2D_DIM
  2
*D1
  3
ROUTEDIM
  1
2.464
 10
-2.5
 20
2.463828
 30
0.0
 11
-2.5
 21
1.231914
 31
0
 13
0.0
 23
-2.89999999978363E-05
 14
0.0
 24
2.463828
 50
90.0
53
0
 33
0.0
 34
0.0
  0
DIMENSION
  8
2D_DIM
  2
*D1
  3
ROUTEDIM
  1
13.954
 10
-2.5
 20
16.417645
 30
0.0
 11
-2.5
 21
8.2088225
 31
0
 13
0.0
 23
2.463828
 14
0.0
 24
16.417645
 50
90.0
53
0
 33
0.0
 34
0.0
  0
DIMENSION
  8
2D_DIM
  2
*D1
  3
ROUTEDIM
  1
0.2
 10
-2.5
 20
16.617675
 30
0.0
 11
-2.5
 21
8.3088375
 31
0
 13
0.0
 23
16.417645
 14
0.0
 24
16.617675
 50
90.0
53
0
 33
0.0
 34
0.0
  0
DIMENSION
  8
2D_DIM
  2
*D1
  3
ROUTEDIM
  1
8.336
 10
-2.5
 20
24.954062
 30
0.0
 11
-2.5
 21
12.477031
 31
0
 13
0.0
 23
16.617675
 14
0.0
 24
24.954062
 50
90.0
53
0
 33
0.0
 34
0.0
  0
DIMENSION
  8
2D_DIM
  2
*D1
  3
ROUTEDIM
  1
11.74
 10
-2.5
 20
36.694499
 30
0.0
 11
-2.5
 21
18.3472495
 31
0
 13
0.0
 23
24.954062
 14
0.0
 24
36.694499
 50
90.0
53
0
 33
0.0
 34
0.0
  0
DIMENSION
  8
2D_DIM
  2
*D1
  3
ROUTEDIM
  1
0.025
 10
-2.5
 20
36.719592
 30
0.0
 11
-2.5
 21
18.359796
 31
0
 13
0.0
 23
36.694499
 14
0.0
 24
36.719592
 50
90.0
53
0
 33
0.0
 34
0.0
  0
DIMENSION
  8
2D_DIM
  2
*D1
  3
ROUTEDIM
  1
6.922
 10
-2.5
 20
43.6413
 30
0.0
 11
-2.5
 21
21.82065
 31
0
 13
0.0
 23
36.719592
 14
0.0
 24
43.6413
 50
90.0
53
0
 33
0.0
 34
0.0
  0
DIMENSION
  8
2D_DIM
  2
*D1
  3
ROUTEDIM
  1
0
 10
-2.5
 20
43.6413
 30
0.0
 11
-2.5
 21
21.82065
 31
0
 13
0.0
 23
43.6413
 14
0.0
 24
43.6413
 50
90.0
53
0
 33
0.0
 34
0.0
  0
DIMENSION
  8
2D_DIM
  2
*D1
  3
ROUTEDIM
  1
15.024
 10
15.024278
 20
16.330585
 30
0.0
 11
7.512139
 21
16.330585
 31
0.0
 13
0
 23
16.330585
 14
15.024278
 24
16.330585
 33
0.0
 34
0.0
53
90
  0
DIMENSION
  8
2D_DIM
  2
*D1
  3
ROUTEDIM
  1
16.331
 10
15.024278
 20
16.330585
 30
0.0
 11
15.024278
 21
8.1652925
 31
0
 13
15.024278
 23
0
 14
15.024278
 24
16.330585
 50
90.0
53
0
 33
0.0
 34
0.0
  0
DIMENSION
  8
2D_DIM
  2
*D1
  3
ROUTEDIM
  1
-14.781
 10
-14.7813175890341
 20
25.3690683682641
 30
0.0
 11
-7.39065879451705
 21
25.3690683682641
 31
0.0
 13
0
 23
25.3690683682641
 14
-14.7813175890341
 24
25.3690683682641
 33
0.0
 34
0.0
53
90
  0
DIMENSION
  8
2D_DIM
  2
*D1
  3
ROUTEDIM
  1
25.369
 10
-14.7813175890341
 20
25.3690683682641
 30
0.0
 11
-14.7813175890341
 21
12.6845341841321
 31
0
 13
-14.7813175890341
 23
0
 14
-14.7813175890341
 24
25.3690683682641
 50
90.0
53
0
 33
0.0
 34
0.0
  0
DIMENSION
  8
2D_DIM
  2
*D1
  3
ROUTEDIM
  1
-14.781
 10
-14.7814593224676
 20
25.420838475939
 30
0.0
 11
-7.3907296612338
 21
25.420838475939
 31
0.0
 13
0
 23
25.420838475939
 14
-14.7814593224676
 24
25.420838475939
 33
0.0
 34
0.0
53
90
  0
DIMENSION
  8
2D_DIM
  2
*D1
  3
ROUTEDIM
  1
25.421
 10
-14.7814593224676
 20
25.420838475939
 30
0.0
 11
-14.7814593224676
 21
12.7104192379695
 31
0
 13
-14.7814593224676
 23
0
 14
-14.7814593224676
 24
25.420838475939
 50
90.0
53
0
 33
0.0
 34
0.0
  0
DIMENSION
  8
2D_DIM
  2
*D1
  3
ROUTEDIM
  1
-14.781
 10
-14.7813195946466
 20
25.3690695836463
 30
0.0
 11
-7.39065979732332
 21
25.3690695836463
 31
0.0
 13
0
 23
25.3690695836463
 14
-14.7813195946466
 24
25.3690695836463
 33
0.0
 34
0.0
53
90
  0
DIMENSION
  8
2D_DIM
  2
*D1
  3
ROUTEDIM
  1
25.369
 10
-14.7813195946466
 20
25.3690695836463
 30
0.0
 11
-14.7813195946466
 21
12.6845347918231
 31
0
 13
-14.7813195946466
 23
0
 14
-14.7813195946466
 24
25.3690695836463
 50
90.0
53
0
 33
0.0
 34
0.0
  0
TEXT
  8
ITEMNUMBER
 62
     1
 10
-7.5
 20
-5
 30
0.0
 40
0.5
  1
T31106.22
  0
TEXT
  8
DESCRIPTION
 62
     1
 10
-7.5
 20
-6
 30
0.0
 40
0.5
  1
P1B
  0
TEXT
  8
FILENAME
 62
     1
 10
-7.5
 20
-7
 30
0.0
 40
0.5
  1
5600AE18
  0
TEXT
  8
MATERIALNAME
 62
     1
 10
-7.5
 20
-8
 30
0.0
 40
0.5
  1
AB1860SEI-PF/4x10
  0
TEXT
  8
Qty
 62
     1
 10
-7.5
 20
-9
 30
0.0
 40
0.5
  1
1
  0
TEXT
  8
RUNFIELD
 62
     1
 10
8
 20
-1
 30
0.0
 40
0.5
  1
Mirrored
  0
ENDSEC
  0
EOF
