  0
SECTION
  2
TABLES
  0
TABLE
  2
DIMSTYLE
 70
     2
  0
DIMSTYLE
  2
BOARDERDIM
 70
     0
  3

  4

  5
_NONE
  6
_NONE
  7
_NONE
 40
1
 41
0.1
 42
0.0625
 43
0.38
 44
0.18
 45
0.00
 46
0.0
 47
0.0
 48
0.0
140
0.5
141
0.09
142
0.0
143
25.399999999999999
144
1.0
145
0.5
146
1.0
147
0.09
 71
     1
 72
     0
 73
     1
 74
     0
 75
     0
 76
     0
 77
     2
 78
     0
170
     0
171
     2
172
     0
173
     0
174
     1
175
      0
176
5
177
5
178
     1
271
3
272
3
  0
ENDTAB
  0
TABLE
  2
DIMSTYLE
 70
     2
  0
DIMSTYLE
  2
VDRILLDIM
 70
     0
  3

  4

  5
_NONE
  6
_NONE
  7
_NONE
 40
1
 41
0.1
 42
0.0625
 43
0.38
 44
0.18
 45
0.00
 46
0.0
 47
0.0
 48
0.0
140
0.5
141
0.09
142
0.0
143
25.399999999999999
144
1.0
145
0.5
146
1.0
147
0.09
 71
     1
 72
     0
 73
     1
 74
     0
 75
     0
 76
     0
 77
     2
 78
     0
170
     0
171
     2
172
     0
173
     0
174
     1
175
      0
176
5
177
5
178
     1
271
3
272
3
  0
ENDTAB
  0
TABLE
  2
DIMSTYLE
 70
     2
  0
DIMSTYLE
  2
HDRILLDIM
 70
     0
  3

  4

  5
_NONE
  6
_NONE
  7
_NONE
 40
1
 41
0.1
 42
0.0625
 43
0.38
 44
0.18
 45
0.00
 46
0.0
 47
0.0
 48
0.0
140
0.5
141
0.09
142
0.0
143
25.399999999999999
144
1.0
145
0.5
146
1.0
147
0.09
 71
     1
 72
     0
 73
     1
 74
     0
 75
     0
 76
     0
 77
     2
 78
     0
170
     0
171
     2
172
     0
173
     0
174
     1
175
      0
176
5
177
5
178
     1
271
3
272
3
  0
ENDTAB
  0
TABLE
  2
DIMSTYLE
 70
     2
  0
DIMSTYLE
  2
ROUTEDIM
 70
     0
  3

  4

  5
_NONE
  6
_NONE
  7
_NONE
 40
1
 41
0.1
 42
0.0625
 43
0.38
 44
0.18
 45
0.00
 46
0.0
 47
0.0
 48
0.0
140
0.5
141
0.09
142
0.0
143
25.399999999999999
144
1.0
145
0.5
146
1.0
147
0.09
 71
     1
 72
     0
 73
     1
 74
     0
 75
     0
 76
     0
 77
     2
 78
     0
170
     0
171
     2
172
     0
173
     0
174
     1
175
      0
176
5
177
5
178
     1
271
3
272
3
  0
ENDTAB
  0
TABLE
  2
DIMSTYLE
 70
     2
  0
DIMSTYLE
  2
SAWDIM
 70
     0
  3

  4

  5
_NONE
  6
_NONE
  7
_NONE
 40
1
 41
0.1
 42
0.0625
 43
0.38
 44
0.18
 45
0.00
 46
0.0
 47
0.0
 48
0.0
140
0.5
141
0.09
142
0.0
143
25.399999999999999
144
1.0
145
0.5
146
1.0
147
0.09
 71
     1
 72
     0
 73
     1
 74
     0
 75
     0
 76
     0
 77
     2
 78
     0
170
     0
171
     2
172
     0
173
     0
174
     1
175
      0
176
5
177
5
178
     1
271
3
272
3
  0
ENDTAB
  0
TABLE
  2
VPORT
 70
     1
  0
VPORT
  2
*ACTIVE
 70
     0
 10
0.0
 20
0.0
 11
1.0
 21
1.0
 12
0.0
 22
0.0
 13
0.0
 23
0.0
 14
1.0
 24
1.0
 15
0.0
 25
0.0
 16
0.0
 26
0.0
 36
1.0
 17
0.0
 27
0.0
 37
0.0
 40
84
 41
2.0
 42
50.0
 43
0.0
 44
0.0
 50
0.0
 51
0.0
 71
     0
 72
   100
 73
     1
 74
     0
 75
     1
 76
     0
 77
     0
 78
     0
  0
ENDTAB
  0
ENDSEC
  0
SECTION
  2
ENTITIES
  0
POLYLINE
  8
BORDER_Z0P75
 62
     7
 66
     1
 10
0.0
 20
0.0
 30
0.0
 70
     1
  0
VERTEX
  8
BORDER_Z0P75
 62
     7
 10
0.0
 20
0.0
 30
0.0
  0
VERTEX
  8
BORDER_Z0P75
 62
     7
 10
0.0
 20
35
 30
0.0
  0
VERTEX
  8
BORDER_Z0P75
 62
     7
 10
29.0625
 20
35
 30
0.0
  0
VERTEX
  8
BORDER_Z0P75
 62
     7
 10
29.0625
 20
0.0
 30
0.0
  0
SEQEND
  8
BORDER_Z0P75
 62
     7
  0
CIRCLE
  8
VBORE_Z0P4921
 62
     3
 10
11.5625
 20
1.19734
 30
0.0
 40
0.15748
  0
CIRCLE
  8
VBORE_Z0P4921
 62
     3
 10
11.5625
 20
4.82015333333333
 30
0.0
 40
0.15748
  0
CIRCLE
  8
VBORE_Z0P4921
 62
     3
 10
11.5625
 20
8.44296666666667
 30
0.0
 40
0.15748
  0
CIRCLE
  8
VBORE_Z0P4921
 62
     3
 10
11.5625
 20
12.06578
 30
0.0
 40
0.15748
  0
CIRCLE
  8
VBORE_Z0P4921
 62
     3
 10
11.5625
 20
15.6885933333333
 30
0.0
 40
0.15748
  0
CIRCLE
  8
VBORE_Z0P4921
 62
     3
 10
11.5625
 20
19.3114066666667
 30
0.0
 40
0.15748
  0
CIRCLE
  8
VBORE_Z0P4921
 62
     3
 10
11.5625
 20
22.93422
 30
0.0
 40
0.15748
  0
CIRCLE
  8
VBORE_Z0P4921
 62
     3
 10
11.5625
 20
26.5570333333333
 30
0.0
 40
0.15748
  0
CIRCLE
  8
VBORE_Z0P4921
 62
     3
 10
11.5625
 20
30.1798466666667
 30
0.0
 40
0.15748
  0
CIRCLE
  8
VBORE_Z0P4921
 62
     3
 10
11.5625
 20
33.80266
 30
0.0
 40
0.15748
  0
DIMENSION
  8
2D_DIM
  2
*D1
  3
BOARDERDIM
  1
29.062
 10
29.0625
 20
40
 30
0.0
 11
14.53125
 21
40
 31
0.0
 13
0
 23
35
 14
29.0625
 24
35
 33
0.0
 34
0.0
53
0
  0
DIMENSION
  8
2D_DIM
  2
*D1
  3
BOARDERDIM
  1
35
 10
-5
 20
35
 30
0.0
 11
-5
 21
17.5
 31
0
 13
0.0
 23
0
 14
0.0
 24
35
 50
90.0
53
0
 33
0.0
 34
0.0
  0
DIMENSION
  8
2D_DIM
  2
*D1
  3
VDRILLDIM
  1
11.562
 10
11.5625
 20
-2.5
 30
0.0
 11
5.78125
 21
-2.5
 31
0.0
 13
0
 23
0.0
 14
11.5625
 24
0.0
 33
0.0
 34
0.0
53
90
  0
DIMENSION
  8
2D_DIM
  2
*D1
  3
VDRILLDIM
  1
17.5
 10
29.0625
 20
-2.5
 30
0.0
 11
14.53125
 21
-2.5
 31
0.0
 13
11.5625
 23
0.0
 14
29.0625
 24
0.0
 33
0.0
 34
0.0
53
90
  0
DIMENSION
  8
2D_DIM
  2
*D1
  3
VDRILLDIM
  1
1.197
 10
-2.5
 20
1.19734
 30
0.0
 11
-2.5
 21
0.59867
 31
0
 13
0.0
 23
0
 14
0.0
 24
1.19734
 50
90.0
53
0
 33
0.0
 34
0.0
  0
DIMENSION
  8
2D_DIM
  2
*D1
  3
VDRILLDIM
  1
3.623
 10
-2.5
 20
4.82015333333333
 30
0.0
 11
-2.5
 21
2.41007666666667
 31
0
 13
0.0
 23
1.19734
 14
0.0
 24
4.82015333333333
 50
90.0
53
0
 33
0.0
 34
0.0
  0
DIMENSION
  8
2D_DIM
  2
*D1
  3
VDRILLDIM
  1
3.623
 10
-2.5
 20
8.44296666666667
 30
0.0
 11
-2.5
 21
4.22148333333334
 31
0
 13
0.0
 23
4.82015333333333
 14
0.0
 24
8.44296666666667
 50
90.0
53
0
 33
0.0
 34
0.0
  0
DIMENSION
  8
2D_DIM
  2
*D1
  3
VDRILLDIM
  1
3.623
 10
-2.5
 20
12.06578
 30
0.0
 11
-2.5
 21
6.03289
 31
0
 13
0.0
 23
8.44296666666667
 14
0.0
 24
12.06578
 50
90.0
53
0
 33
0.0
 34
0.0
  0
DIMENSION
  8
2D_DIM
  2
*D1
  3
VDRILLDIM
  1
3.623
 10
-2.5
 20
15.6885933333333
 30
0.0
 11
-2.5
 21
7.84429666666665
 31
0
 13
0.0
 23
12.06578
 14
0.0
 24
15.6885933333333
 50
90.0
53
0
 33
0.0
 34
0.0
  0
DIMENSION
  8
2D_DIM
  2
*D1
  3
VDRILLDIM
  1
3.623
 10
-2.5
 20
19.3114066666667
 30
0.0
 11
-2.5
 21
9.65570333333335
 31
0
 13
0.0
 23
15.6885933333333
 14
0.0
 24
19.3114066666667
 50
90.0
53
0
 33
0.0
 34
0.0
  0
DIMENSION
  8
2D_DIM
  2
*D1
  3
VDRILLDIM
  1
3.623
 10
-2.5
 20
22.93422
 30
0.0
 11
-2.5
 21
11.46711
 31
0
 13
0.0
 23
19.3114066666667
 14
0.0
 24
22.93422
 50
90.0
53
0
 33
0.0
 34
0.0
  0
DIMENSION
  8
2D_DIM
  2
*D1
  3
VDRILLDIM
  1
3.623
 10
-2.5
 20
26.5570333333333
 30
0.0
 11
-2.5
 21
13.2785166666667
 31
0
 13
0.0
 23
22.93422
 14
0.0
 24
26.5570333333333
 50
90.0
53
0
 33
0.0
 34
0.0
  0
DIMENSION
  8
2D_DIM
  2
*D1
  3
VDRILLDIM
  1
3.623
 10
-2.5
 20
30.1798466666667
 30
0.0
 11
-2.5
 21
15.0899233333333
 31
0
 13
0.0
 23
26.5570333333333
 14
0.0
 24
30.1798466666667
 50
90.0
53
0
 33
0.0
 34
0.0
  0
DIMENSION
  8
2D_DIM
  2
*D1
  3
VDRILLDIM
  1
3.623
 10
-2.5
 20
33.80266
 30
0.0
 11
-2.5
 21
16.90133
 31
0
 13
0.0
 23
30.1798466666667
 14
0.0
 24
33.80266
 50
90.0
53
0
 33
0.0
 34
0.0
  0
DIMENSION
  8
2D_DIM
  2
*D1
  3
VDRILLDIM
  1
1.197
 10
-2.5
 20
35
 30
0.0
 11
-2.5
 21
17.5
 31
0
 13
0.0
 23
33.80266
 14
0.0
 24
35
 50
90.0
53
0
 33
0.0
 34
0.0
  0
TEXT
  8
ITEMNUMBER
 62
     1
 10
-7.5
 20
-5
 30
0.0
 40
0.5
  1
11.02
  0
TEXT
  8
DESCRIPTION
 62
     1
 10
-7.5
 20
-6
 30
0.0
 40
0.5
  1
Upper Open Thick Back
  0
TEXT
  8
FILENAME
 62
     1
 10
-7.5
 20
-7
 30
0.0
 40
0.5
  1
5600AA2W
  0
TEXT
  8
MATERIALNAME
 62
     1
 10
-7.5
 20
-8
 30
0.0
 40
0.5
  1
AB425SEI-PF/11-16MDF/WHCL/NAF/4x10
  0
TEXT
  8
Qty
 62
     1
 10
-7.5
 20
-9
 30
0.0
 40
0.5
  1
1
  0
TEXT
  8
RUNFIELD
 62
     1
 10
8
 20
-1
 30
0.0
 40
0.5
  1
Mirrored
  0
ENDSEC
  0
EOF
