  0
SECTION
  2
TABLES
  0
TABLE
  2
DIMSTYLE
 70
     2
  0
DIMSTYLE
  2
BOARDERDIM
 70
     0
  3

  4

  5
_NONE
  6
_NONE
  7
_NONE
 40
1
 41
12.0
 42
0.0625
 43
0.38
 44
0.18
 45
0.00
 46
0.0
 47
0.0
 48
0.0
140
12.0
141
0.09
142
0.0
143
25.399999999999999
144
1.0
145
0.5
146
1.0
147
0.09
 71
     1
 72
     0
 73
     1
 74
     0
 75
     0
 76
     0
 77
     2
 78
     0
170
     0
171
     2
172
     0
173
     0
174
     1
175
      0
176
5
177
5
178
     1
271
3
272
3
  0
ENDTAB
  0
TABLE
  2
DIMSTYLE
 70
     2
  0
DIMSTYLE
  2
VDRILLDIM
 70
     0
  3

  4

  5
_NONE
  6
_NONE
  7
_NONE
 40
1
 41
12.0
 42
0.0625
 43
0.38
 44
0.18
 45
0.00
 46
0.0
 47
0.0
 48
0.0
140
12.0
141
0.09
142
0.0
143
25.399999999999999
144
1.0
145
0.5
146
1.0
147
0.09
 71
     1
 72
     0
 73
     1
 74
     0
 75
     0
 76
     0
 77
     2
 78
     0
170
     0
171
     2
172
     0
173
     0
174
     1
175
      0
176
5
177
5
178
     1
271
3
272
3
  0
ENDTAB
  0
TABLE
  2
DIMSTYLE
 70
     2
  0
DIMSTYLE
  2
HDRILLDIM
 70
     0
  3

  4

  5
_NONE
  6
_NONE
  7
_NONE
 40
1
 41
12.0
 42
0.0625
 43
0.38
 44
0.18
 45
0.00
 46
0.0
 47
0.0
 48
0.0
140
12.0
141
0.09
142
0.0
143
25.399999999999999
144
1.0
145
0.5
146
1.0
147
0.09
 71
     1
 72
     0
 73
     1
 74
     0
 75
     0
 76
     0
 77
     2
 78
     0
170
     0
171
     2
172
     0
173
     0
174
     1
175
      0
176
5
177
5
178
     1
271
3
272
3
  0
ENDTAB
  0
TABLE
  2
DIMSTYLE
 70
     2
  0
DIMSTYLE
  2
ROUTEDIM
 70
     0
  3

  4

  5
_NONE
  6
_NONE
  7
_NONE
 40
1
 41
12.0
 42
0.0625
 43
0.38
 44
0.18
 45
0.00
 46
0.0
 47
0.0
 48
0.0
140
12.0
141
0.09
142
0.0
143
25.399999999999999
144
1.0
145
0.5
146
1.0
147
0.09
 71
     1
 72
     0
 73
     1
 74
     0
 75
     0
 76
     0
 77
     2
 78
     0
170
     0
171
     2
172
     0
173
     0
174
     1
175
      0
176
5
177
5
178
     1
271
3
272
3
  0
ENDTAB
  0
TABLE
  2
DIMSTYLE
 70
     2
  0
DIMSTYLE
  2
SAWDIM
 70
     0
  3

  4

  5
_NONE
  6
_NONE
  7
_NONE
 40
1
 41
12.0
 42
0.0625
 43
0.38
 44
0.18
 45
0.00
 46
0.0
 47
0.0
 48
0.0
140
12.0
141
0.09
142
0.0
143
25.399999999999999
144
1.0
145
0.5
146
1.0
147
0.09
 71
     1
 72
     0
 73
     1
 74
     0
 75
     0
 76
     0
 77
     2
 78
     0
170
     0
171
     2
172
     0
173
     0
174
     1
175
      0
176
5
177
5
178
     1
271
3
272
3
  0
ENDTAB
  0
TABLE
  2
VPORT
 70
     1
  0
VPORT
  2
*ACTIVE
 70
     0
 10
0.0
 20
0.0
 11
1.0
 21
1.0
 12
320.35
 22
232.50
 13
0.0
 23
0.0
 14
1.0
 24
1.0
 15
0.0
 25
0.0
 16
0.0
 26
0.0
 36
1.0
 17
0.0
 27
0.0
 37
0.0
 40
1625.04
 41
1.73
 42
50.0
 43
0.0
 44
0.0
 50
0.0
 51
0.0
 71
     0
 72
   100
 73
     1
 74
     0
 75
     1
 76
     0
 77
     0
 78
     0
  0
ENDTAB
  0
ENDSEC
  0
SECTION
  2
ENTITIES
  0
POLYLINE
  8
BORDER_Z19P0
 62
     7
 66
     1
 10
0.0
 20
0.0
 30
0.0
 70
     1
  0
VERTEX
  8
BORDER_Z19P0
 62
     7
 10
0.0
 20
0.0
 30
0.0
  0
VERTEX
  8
BORDER_Z19P0
 62
     7
 10
0.0
 20
610
 30
0.0
  0
VERTEX
  8
BORDER_Z19P0
 62
     7
 10
462
 20
610
 30
0.0
  0
VERTEX
  8
BORDER_Z19P0
 62
     7
 10
462
 20
0.0
 30
0.0
  0
SEQEND
  8
BORDER_Z19P0
 62
     7
  0
POLYLINE
  8
HBORE_Z11P0
 62
     4
 66
     1
 10
0.0
 20
0.0
 30
0.0
 70
     1
  0
VERTEX
  8
HBORE_Z11P0
 62
     4
 10
0
 20
579
 30
0.0
  0
VERTEX
  8
HBORE_Z11P0
 62
     4
 10
20
 20
579
 30
0.0
  0
VERTEX
  8
HBORE_Z11P0
 62
     4
 10
20
 20
571
 30
0.0
  0
VERTEX
  8
HBORE_Z11P0
 62
     4
 10
0
 20
571
 30
0.0
  0
SEQEND
  8
HBORE_Z11P0
 62
     4
  0
POLYLINE
  8
HBORE_Z11P0
 62
     4
 66
     1
 10
0.0
 20
0.0
 30
0.0
 70
     1
  0
VERTEX
  8
HBORE_Z11P0
 62
     4
 10
0
 20
387
 30
0.0
  0
VERTEX
  8
HBORE_Z11P0
 62
     4
 10
20
 20
387
 30
0.0
  0
VERTEX
  8
HBORE_Z11P0
 62
     4
 10
20
 20
379
 30
0.0
  0
VERTEX
  8
HBORE_Z11P0
 62
     4
 10
0
 20
379
 30
0.0
  0
SEQEND
  8
HBORE_Z11P0
 62
     4
  0
POLYLINE
  8
HBORE_Z11P0
 62
     4
 66
     1
 10
0.0
 20
0.0
 30
0.0
 70
     1
  0
VERTEX
  8
HBORE_Z11P0
 62
     4
 10
0
 20
195
 30
0.0
  0
VERTEX
  8
HBORE_Z11P0
 62
     4
 10
20
 20
195
 30
0.0
  0
VERTEX
  8
HBORE_Z11P0
 62
     4
 10
20
 20
187
 30
0.0
  0
VERTEX
  8
HBORE_Z11P0
 62
     4
 10
0
 20
187
 30
0.0
  0
SEQEND
  8
HBORE_Z11P0
 62
     4
  0
POLYLINE
  8
HBORE_Z11P0
 62
     4
 66
     1
 10
0.0
 20
0.0
 30
0.0
 70
     1
  0
VERTEX
  8
HBORE_Z11P0
 62
     4
 10
0
 20
68
 30
0.0
  0
VERTEX
  8
HBORE_Z11P0
 62
     4
 10
20
 20
68
 30
0.0
  0
VERTEX
  8
HBORE_Z11P0
 62
     4
 10
20
 20
60
 30
0.0
  0
VERTEX
  8
HBORE_Z11P0
 62
     4
 10
0
 20
60
 30
0.0
  0
SEQEND
  8
HBORE_Z11P0
 62
     4
  0
POLYLINE
  8
HBORE_Z11P0
 62
     4
 66
     1
 10
0.0
 20
0.0
 30
0.0
 70
     1
  0
VERTEX
  8
HBORE_Z11P0
 62
     4
 10
462
 20
579
 30
0.0
  0
VERTEX
  8
HBORE_Z11P0
 62
     4
 10
442
 20
579
 30
0.0
  0
VERTEX
  8
HBORE_Z11P0
 62
     4
 10
442
 20
571
 30
0.0
  0
VERTEX
  8
HBORE_Z11P0
 62
     4
 10
462
 20
571
 30
0.0
  0
SEQEND
  8
HBORE_Z11P0
 62
     4
  0
POLYLINE
  8
HBORE_Z11P0
 62
     4
 66
     1
 10
0.0
 20
0.0
 30
0.0
 70
     1
  0
VERTEX
  8
HBORE_Z11P0
 62
     4
 10
462
 20
387
 30
0.0
  0
VERTEX
  8
HBORE_Z11P0
 62
     4
 10
442
 20
387
 30
0.0
  0
VERTEX
  8
HBORE_Z11P0
 62
     4
 10
442
 20
379
 30
0.0
  0
VERTEX
  8
HBORE_Z11P0
 62
     4
 10
462
 20
379
 30
0.0
  0
SEQEND
  8
HBORE_Z11P0
 62
     4
  0
POLYLINE
  8
HBORE_Z11P0
 62
     4
 66
     1
 10
0.0
 20
0.0
 30
0.0
 70
     1
  0
VERTEX
  8
HBORE_Z11P0
 62
     4
 10
462
 20
195
 30
0.0
  0
VERTEX
  8
HBORE_Z11P0
 62
     4
 10
442
 20
195
 30
0.0
  0
VERTEX
  8
HBORE_Z11P0
 62
     4
 10
442
 20
187
 30
0.0
  0
VERTEX
  8
HBORE_Z11P0
 62
     4
 10
462
 20
187
 30
0.0
  0
SEQEND
  8
HBORE_Z11P0
 62
     4
  0
POLYLINE
  8
HBORE_Z11P0
 62
     4
 66
     1
 10
0.0
 20
0.0
 30
0.0
 70
     1
  0
VERTEX
  8
HBORE_Z11P0
 62
     4
 10
462
 20
68
 30
0.0
  0
VERTEX
  8
HBORE_Z11P0
 62
     4
 10
442
 20
68
 30
0.0
  0
VERTEX
  8
HBORE_Z11P0
 62
     4
 10
442
 20
60
 30
0.0
  0
VERTEX
  8
HBORE_Z11P0
 62
     4
 10
462
 20
60
 30
0.0
  0
SEQEND
  8
HBORE_Z11P0
 62
     4
  0
POLYLINE
  8
ROUTE_Z6P85LT109
 62
     3
 66
     1
 10
0.0
 20
0.0
 30
0.0
 70
     0
  0
VERTEX
  8
ROUTE_Z6P85LT109
 62
     3
 10
-12.35
 20
25.3499999999999
 30
0.0
  0
VERTEX
  8
ROUTE_Z6P85LT109
 62
     3
 10
474.35
 20
25.35
 30
0.0
  0
SEQEND
  8
ROUTE_Z6P85LT109
 62
     3
  0
DIMENSION
  8
2D_DIM
  2
*D1
  3
BOARDERDIM
  1
462
 10
462
 20
802
 30
0.0
 11
231
 21
802
 31
0.0
 13
0
 23
610
 14
462
 24
610
 33
0.0
 34
0.0
53
0
  0
DIMENSION
  8
2D_DIM
  2
*D1
  3
BOARDERDIM
  1
610
 10
-192
 20
610
 30
0.0
 11
-192
 21
305
 31
0
 13
0.0
 23
0
 14
0.0
 24
610
 50
90.0
53
0
 33
0.0
 34
0.0
  0
DIMENSION
  8
2D_DIM
  2
*D1
  3
HDRILLDIM
  1
64
 10
526
 20
64
 30
0.0
 11
526
 21
32
 31
0
 13
462
 23
0
 14
462
 24
64
 50
90.0
53
0
 33
0.0
 34
0.0
  0
DIMENSION
  8
2D_DIM
  2
*D1
  3
HDRILLDIM
  1
127
 10
526
 20
191
 30
0.0
 11
526
 21
95.5
 31
0
 13
462
 23
64
 14
462
 24
191
 50
90.0
53
0
 33
0.0
 34
0.0
  0
DIMENSION
  8
2D_DIM
  2
*D1
  3
HDRILLDIM
  1
192
 10
526
 20
383
 30
0.0
 11
526
 21
191.5
 31
0
 13
462
 23
191
 14
462
 24
383
 50
90.0
53
0
 33
0.0
 34
0.0
  0
DIMENSION
  8
2D_DIM
  2
*D1
  3
HDRILLDIM
  1
192
 10
526
 20
575
 30
0.0
 11
526
 21
287.5
 31
0
 13
462
 23
383
 14
462
 24
575
 50
90.0
53
0
 33
0.0
 34
0.0
  0
DIMENSION
  8
2D_DIM
  2
*D1
  3
HDRILLDIM
  1
35
 10
526
 20
610
 30
0.0
 11
526
 21
305
 31
0
 13
462
 23
575
 14
462
 24
610
 50
90.0
53
0
 33
0.0
 34
0.0
  0
DIMENSION
  8
2D_DIM
  2
*D1
  3
HDRILLDIM
  1
64
 10
-64
 20
64
 30
0.0
 11
-64
 21
32
 31
0
 13
0.0
 23
0
 14
0.0
 24
64
 50
90.0
53
0
 33
0.0
 34
0.0
  0
DIMENSION
  8
2D_DIM
  2
*D1
  3
HDRILLDIM
  1
127
 10
-64
 20
191
 30
0.0
 11
-64
 21
95.5
 31
0
 13
0.0
 23
64
 14
0.0
 24
191
 50
90.0
53
0
 33
0.0
 34
0.0
  0
DIMENSION
  8
2D_DIM
  2
*D1
  3
HDRILLDIM
  1
192
 10
-64
 20
383
 30
0.0
 11
-64
 21
191.5
 31
0
 13
0.0
 23
191
 14
0.0
 24
383
 50
90.0
53
0
 33
0.0
 34
0.0
  0
DIMENSION
  8
2D_DIM
  2
*D1
  3
HDRILLDIM
  1
192
 10
-64
 20
575
 30
0.0
 11
-64
 21
287.5
 31
0
 13
0.0
 23
383
 14
0.0
 24
575
 50
90.0
53
0
 33
0.0
 34
0.0
  0
DIMENSION
  8
2D_DIM
  2
*D1
  3
HDRILLDIM
  1
35
 10
-64
 20
610
 30
0.0
 11
-64
 21
305
 31
0
 13
0.0
 23
575
 14
0.0
 24
610
 50
90.0
53
0
 33
0.0
 34
0.0
  0
DIMENSION
  8
2D_DIM
  2
*D1
  3
ROUTEDIM
  1
-12.35
 10
-12.35
 20
738
 30
0.0
 11
-6.175
 21
738
 31
0.0
 13
0
 23
610
 14
-12.35
 24
610
 33
0.0
 34
0.0
53
90
  0
DIMENSION
  8
2D_DIM
  2
*D1
  3
ROUTEDIM
  1
486.7
 10
474.35
 20
738
 30
0.0
 11
237.175
 21
738
 31
0.0
 13
-12.35
 23
610
 14
474.35
 24
610
 33
0.0
 34
0.0
53
90
  0
DIMENSION
  8
2D_DIM
  2
*D1
  3
ROUTEDIM
  1
-12.35
 10
462
 20
738
 30
0.0
 11
231
 21
738
 31
0.0
 13
474.35
 23
610
 14
462
 24
610
 33
0.0
 34
0.0
53
90
  0
DIMENSION
  8
2D_DIM
  2
*D1
  3
ROUTEDIM
  1
25.35
 10
-128
 20
25.3499999999999
 30
0.0
 11
-128
 21
12.6749999999999
 31
0
 13
0.0
 23
0
 14
0.0
 24
25.3499999999999
 50
90.0
53
0
 33
0.0
 34
0.0
  0
DIMENSION
  8
2D_DIM
  2
*D1
  3
ROUTEDIM
  1
584.65
 10
-128
 20
610
 30
0.0
 11
-128
 21
305
 31
0
 13
0.0
 23
25.3499999999999
 14
0.0
 24
610
 50
90.0
53
0
 33
0.0
 34
0.0
  0
TEXT
  8
ITEMNUMBER
 62
     1
 10
-192
 20
-79
 30
0.0
 40
12.0
  1
1.56
  0
TEXT
  8
DESCRIPTION
 62
     1
 10
-192
 20
-104
 30
0.0
 40
12.0
  1
Base Bottom
  0
TEXT
  8
FILENAME
 62
     1
 10
-192
 20
-129
 30
0.0
 40
12.0
  1
6606H77Q
  0
TEXT
  8
MATERIALNAME
 62
     1
 10
-192
 20
-154
 30
0.0
 40
12.0
  1
MDF34
  0
TEXT
  8
MATERIALCODE
 62
     1
 10
-192
 20
-179
 30
0.0
 40
12.0
  1
|T104-D
  0
TEXT
  8
BOTTOMEB
 62
     1
 10
-192
 20
-204
 30
0.0
 40
12.0
  1
0.1mm 2134-30 - &
  0
TEXT
  8
BOTTOMEBTHICKNESS
 62
     1
 10
-192
 20
-229
 30
0.0
 40
12.0
  1
0.1
  0
TEXT
  8
FORTHSYMBOL
 62
     1
 10
231
 20
610.125
 30
0.0
 40
12.0
  1
&
  0
TEXT
  8
Qty
 62
     1
 10
-192
 20
-254
 30
0.0
 40
12.0
  1
1
  0
TEXT
  8
RUNFIELD
 62
     1
 10
200
 20
-25
 30
0.0
 40
12.0
  1
Mirrored
  0
ENDSEC
  0
EOF
