  0
SECTION
  2
TABLES
  0
TABLE
  2
DIMSTYLE
 70
     2
  0
DIMSTYLE
  2
BOARDERDIM
 70
     0
  3

  4

  5
_NONE
  6
_NONE
  7
_NONE
 40
1
 41
12.0
 42
0.0625
 43
0.38
 44
0.18
 45
0.00
 46
0.0
 47
0.0
 48
0.0
140
12.0
141
0.09
142
0.0
143
25.399999999999999
144
1.0
145
0.5
146
1.0
147
0.09
 71
     1
 72
     0
 73
     1
 74
     0
 75
     0
 76
     0
 77
     2
 78
     0
170
     0
171
     2
172
     0
173
     0
174
     1
175
      0
176
5
177
5
178
     1
271
3
272
3
  0
ENDTAB
  0
TABLE
  2
DIMSTYLE
 70
     2
  0
DIMSTYLE
  2
VDRILLDIM
 70
     0
  3

  4

  5
_NONE
  6
_NONE
  7
_NONE
 40
1
 41
12.0
 42
0.0625
 43
0.38
 44
0.18
 45
0.00
 46
0.0
 47
0.0
 48
0.0
140
12.0
141
0.09
142
0.0
143
25.399999999999999
144
1.0
145
0.5
146
1.0
147
0.09
 71
     1
 72
     0
 73
     1
 74
     0
 75
     0
 76
     0
 77
     2
 78
     0
170
     0
171
     2
172
     0
173
     0
174
     1
175
      0
176
5
177
5
178
     1
271
3
272
3
  0
ENDTAB
  0
TABLE
  2
DIMSTYLE
 70
     2
  0
DIMSTYLE
  2
HDRILLDIM
 70
     0
  3

  4

  5
_NONE
  6
_NONE
  7
_NONE
 40
1
 41
12.0
 42
0.0625
 43
0.38
 44
0.18
 45
0.00
 46
0.0
 47
0.0
 48
0.0
140
12.0
141
0.09
142
0.0
143
25.399999999999999
144
1.0
145
0.5
146
1.0
147
0.09
 71
     1
 72
     0
 73
     1
 74
     0
 75
     0
 76
     0
 77
     2
 78
     0
170
     0
171
     2
172
     0
173
     0
174
     1
175
      0
176
5
177
5
178
     1
271
3
272
3
  0
ENDTAB
  0
TABLE
  2
DIMSTYLE
 70
     2
  0
DIMSTYLE
  2
ROUTEDIM
 70
     0
  3

  4

  5
_NONE
  6
_NONE
  7
_NONE
 40
1
 41
12.0
 42
0.0625
 43
0.38
 44
0.18
 45
0.00
 46
0.0
 47
0.0
 48
0.0
140
12.0
141
0.09
142
0.0
143
25.399999999999999
144
1.0
145
0.5
146
1.0
147
0.09
 71
     1
 72
     0
 73
     1
 74
     0
 75
     0
 76
     0
 77
     2
 78
     0
170
     0
171
     2
172
     0
173
     0
174
     1
175
      0
176
5
177
5
178
     1
271
3
272
3
  0
ENDTAB
  0
TABLE
  2
DIMSTYLE
 70
     2
  0
DIMSTYLE
  2
SAWDIM
 70
     0
  3

  4

  5
_NONE
  6
_NONE
  7
_NONE
 40
1
 41
12.0
 42
0.0625
 43
0.38
 44
0.18
 45
0.00
 46
0.0
 47
0.0
 48
0.0
140
12.0
141
0.09
142
0.0
143
25.399999999999999
144
1.0
145
0.5
146
1.0
147
0.09
 71
     1
 72
     0
 73
     1
 74
     0
 75
     0
 76
     0
 77
     2
 78
     0
170
     0
171
     2
172
     0
173
     0
174
     1
175
      0
176
5
177
5
178
     1
271
3
272
3
  0
ENDTAB
  0
TABLE
  2
VPORT
 70
     1
  0
VPORT
  2
*ACTIVE
 70
     0
 10
0.0
 20
0.0
 11
1.0
 21
1.0
 12
320.35
 22
232.50
 13
0.0
 23
0.0
 14
1.0
 24
1.0
 15
0.0
 25
0.0
 16
0.0
 26
0.0
 36
1.0
 17
0.0
 27
0.0
 37
0.0
 40
1625.04
 41
1.73
 42
50.0
 43
0.0
 44
0.0
 50
0.0
 51
0.0
 71
     0
 72
   100
 73
     1
 74
     0
 75
     1
 76
     0
 77
     0
 78
     0
  0
ENDTAB
  0
ENDSEC
  0
SECTION
  2
ENTITIES
  0
POLYLINE
  8
BORDER_Z19P0
 62
     7
 66
     1
 10
0.0
 20
0.0
 30
0.0
 70
     1
  0
VERTEX
  8
BORDER_Z19P0
 62
     7
 10
0.0
 20
0.0
 30
0.0
  0
VERTEX
  8
BORDER_Z19P0
 62
     7
 10
0.0
 20
474.7
 30
0.0
  0
VERTEX
  8
BORDER_Z19P0
 62
     7
 10
767.35
 20
474.7
 30
0.0
  0
VERTEX
  8
BORDER_Z19P0
 62
     7
 10
767.35
 20
0.0
 30
0.0
  0
SEQEND
  8
BORDER_Z19P0
 62
     7
  0
CIRCLE
  8
VBORE_Z19P0
 62
     3
 10
759.35
 20
70.35
 30
0.0
 40
1.5
  0
CIRCLE
  8
VBORE_Z19P0
 62
     3
 10
759.35
 20
237.35
 30
0.0
 40
1.5
  0
CIRCLE
  8
VBORE_Z19P0
 62
     3
 10
759.35
 20
404.35
 30
0.0
 40
1.5
  0
POLYLINE
  8
ROUTE_Z9P5RT109
 62
     3
 66
     1
 10
0.0
 20
0.0
 30
0.0
 70
     0
  0
VERTEX
  8
ROUTE_Z9P5RT109
 62
     3
 10
-6
 20
6.35000000000002
 30
0.0
  0
VERTEX
  8
ROUTE_Z9P5RT109
 62
     3
 10
773.35
 20
6.35000000000002
 30
0.0
  0
SEQEND
  8
ROUTE_Z9P5RT109
 62
     3
  0
POLYLINE
  8
ROUTE_Z9P5RT109
 62
     3
 66
     1
 10
0.0
 20
0.0
 30
0.0
 70
     0
  0
VERTEX
  8
ROUTE_Z9P5RT109
 62
     3
 10
773.35
 20
468.35
 30
0.0
  0
VERTEX
  8
ROUTE_Z9P5RT109
 62
     3
 10
-6
 20
468.35
 30
0.0
  0
SEQEND
  8
ROUTE_Z9P5RT109
 62
     3
  0
POLYLINE
  8
ROUTE_Z9P5RT109
 62
     3
 66
     1
 10
0.0
 20
0.0
 30
0.0
 70
     0
  0
VERTEX
  8
ROUTE_Z9P5RT109
 62
     3
 10
6.35
 20
480.7
 30
0.0
  0
VERTEX
  8
ROUTE_Z9P5RT109
 62
     3
 10
6.35
 20
-6
 30
0.0
  0
SEQEND
  8
ROUTE_Z9P5RT109
 62
     3
  0
DIMENSION
  8
2D_DIM
  2
*D1
  3
BOARDERDIM
  1
767.35
 10
767.35
 20
666.7
 30
0.0
 11
383.675
 21
666.7
 31
0.0
 13
0
 23
474.7
 14
767.35
 24
474.7
 33
0.0
 34
0.0
53
0
  0
DIMENSION
  8
2D_DIM
  2
*D1
  3
BOARDERDIM
  1
474.7
 10
-192
 20
474.7
 30
0.0
 11
-192
 21
237.35
 31
0
 13
0.0
 23
0
 14
0.0
 24
474.7
 50
90.0
53
0
 33
0.0
 34
0.0
  0
DIMENSION
  8
2D_DIM
  2
*D1
  3
VDRILLDIM
  1
759.35
 10
759.35
 20
-64
 30
0.0
 11
379.675
 21
-64
 31
0.0
 13
0
 23
0.0
 14
759.35
 24
0.0
 33
0.0
 34
0.0
53
90
  0
DIMENSION
  8
2D_DIM
  2
*D1
  3
VDRILLDIM
  1
8
 10
767.35
 20
-64
 30
0.0
 11
383.675
 21
-64
 31
0.0
 13
759.35
 23
0.0
 14
767.35
 24
0.0
 33
0.0
 34
0.0
53
90
  0
DIMENSION
  8
2D_DIM
  2
*D1
  3
VDRILLDIM
  1
70.35
 10
831.35
 20
70.35
 30
0.0
 11
831.35
 21
35.175
 31
0
 13
767.35
 23
0
 14
767.35
 24
70.35
 50
90.0
53
0
 33
0.0
 34
0.0
  0
DIMENSION
  8
2D_DIM
  2
*D1
  3
VDRILLDIM
  1
167
 10
831.35
 20
237.35
 30
0.0
 11
831.35
 21
118.675
 31
0
 13
767.35
 23
70.35
 14
767.35
 24
237.35
 50
90.0
53
0
 33
0.0
 34
0.0
  0
DIMENSION
  8
2D_DIM
  2
*D1
  3
VDRILLDIM
  1
167
 10
831.35
 20
404.35
 30
0.0
 11
831.35
 21
202.175
 31
0
 13
767.35
 23
237.35
 14
767.35
 24
404.35
 50
90.0
53
0
 33
0.0
 34
0.0
  0
DIMENSION
  8
2D_DIM
  2
*D1
  3
VDRILLDIM
  1
70.35
 10
831.35
 20
474.7
 30
0.0
 11
831.35
 21
237.35
 31
0
 13
767.35
 23
404.35
 14
767.35
 24
474.7
 50
90.0
53
0
 33
0.0
 34
0.0
  0
DIMENSION
  8
2D_DIM
  2
*D1
  3
ROUTEDIM
  1
-6
 10
-6
 20
602.7
 30
0.0
 11
-3
 21
602.7
 31
0.0
 13
0
 23
474.7
 14
-6
 24
474.7
 33
0.0
 34
0.0
53
90
  0
DIMENSION
  8
2D_DIM
  2
*D1
  3
ROUTEDIM
  1
12.35
 10
6.35
 20
602.7
 30
0.0
 11
3.175
 21
602.7
 31
0.0
 13
-6
 23
474.7
 14
6.35
 24
474.7
 33
0.0
 34
0.0
53
90
  0
DIMENSION
  8
2D_DIM
  2
*D1
  3
ROUTEDIM
  1
767
 10
773.35
 20
602.7
 30
0.0
 11
386.675
 21
602.7
 31
0.0
 13
6.35
 23
474.7
 14
773.35
 24
474.7
 33
0.0
 34
0.0
53
90
  0
DIMENSION
  8
2D_DIM
  2
*D1
  3
ROUTEDIM
  1
-6
 10
767.35
 20
602.7
 30
0.0
 11
383.675
 21
602.7
 31
0.0
 13
773.35
 23
474.7
 14
767.35
 24
474.7
 33
0.0
 34
0.0
53
90
  0
DIMENSION
  8
2D_DIM
  2
*D1
  3
ROUTEDIM
  1
6
 10
-128
 20
-6
 30
0.0
 11
-128
 21
-3
 31
0
 13
0.0
 23
0
 14
0.0
 24
-6
 50
90.0
53
0
 33
0.0
 34
0.0
  0
DIMENSION
  8
2D_DIM
  2
*D1
  3
ROUTEDIM
  1
12.35
 10
-128
 20
6.35000000000002
 30
0.0
 11
-128
 21
3.17500000000001
 31
0
 13
0.0
 23
-6
 14
0.0
 24
6.35000000000002
 50
90.0
53
0
 33
0.0
 34
0.0
  0
DIMENSION
  8
2D_DIM
  2
*D1
  3
ROUTEDIM
  1
462
 10
-128
 20
468.35
 30
0.0
 11
-128
 21
234.175
 31
0
 13
0.0
 23
6.35000000000002
 14
0.0
 24
468.35
 50
90.0
53
0
 33
0.0
 34
0.0
  0
DIMENSION
  8
2D_DIM
  2
*D1
  3
ROUTEDIM
  1
12.35
 10
-128
 20
480.7
 30
0.0
 11
-128
 21
240.35
 31
0
 13
0.0
 23
468.35
 14
0.0
 24
480.7
 50
90.0
53
0
 33
0.0
 34
0.0
  0
DIMENSION
  8
2D_DIM
  2
*D1
  3
ROUTEDIM
  1
6
 10
-128
 20
474.7
 30
0.0
 11
-128
 21
237.35
 31
0
 13
0.0
 23
480.7
 14
0.0
 24
474.7
 50
90.0
53
0
 33
0.0
 34
0.0
  0
TEXT
  8
ITEMNUMBER
 62
     1
 10
-192
 20
-79
 30
0.0
 40
12.0
  1
1.56
  0
TEXT
  8
DESCRIPTION
 62
     1
 10
-192
 20
-104
 30
0.0
 40
12.0
  1
Base Thick Back
  0
TEXT
  8
FILENAME
 62
     1
 10
-192
 20
-129
 30
0.0
 40
12.0
  1
6606H788
  0
TEXT
  8
MATERIALNAME
 62
     1
 10
-192
 20
-154
 30
0.0
 40
12.0
  1
VENPB34_RC-WO_1S
  0
TEXT
  8
Qty
 62
     1
 10
-192
 20
-179
 30
0.0
 40
12.0
  1
1
  0
TEXT
  8
RUNFIELD
 62
     1
 10
200
 20
-25
 30
0.0
 40
12.0
  1
Normal
  0
ENDSEC
  0
EOF
