  0
SECTION
  2
TABLES
  0
TABLE
  2
DIMSTYLE
 70
     2
  0
DIMSTYLE
  2
BOARDERDIM
 70
     0
  3

  4

  5
_NONE
  6
_NONE
  7
_NONE
 40
1
 41
12.0
 42
0.0625
 43
0.38
 44
0.18
 45
0.00
 46
0.0
 47
0.0
 48
0.0
140
12.0
141
0.09
142
0.0
143
25.399999999999999
144
1.0
145
0.5
146
1.0
147
0.09
 71
     1
 72
     0
 73
     1
 74
     0
 75
     0
 76
     0
 77
     2
 78
     0
170
     0
171
     2
172
     0
173
     0
174
     1
175
      0
176
5
177
5
178
     1
271
3
272
3
  0
ENDTAB
  0
TABLE
  2
DIMSTYLE
 70
     2
  0
DIMSTYLE
  2
VDRILLDIM
 70
     0
  3

  4

  5
_NONE
  6
_NONE
  7
_NONE
 40
1
 41
12.0
 42
0.0625
 43
0.38
 44
0.18
 45
0.00
 46
0.0
 47
0.0
 48
0.0
140
12.0
141
0.09
142
0.0
143
25.399999999999999
144
1.0
145
0.5
146
1.0
147
0.09
 71
     1
 72
     0
 73
     1
 74
     0
 75
     0
 76
     0
 77
     2
 78
     0
170
     0
171
     2
172
     0
173
     0
174
     1
175
      0
176
5
177
5
178
     1
271
3
272
3
  0
ENDTAB
  0
TABLE
  2
DIMSTYLE
 70
     2
  0
DIMSTYLE
  2
HDRILLDIM
 70
     0
  3

  4

  5
_NONE
  6
_NONE
  7
_NONE
 40
1
 41
12.0
 42
0.0625
 43
0.38
 44
0.18
 45
0.00
 46
0.0
 47
0.0
 48
0.0
140
12.0
141
0.09
142
0.0
143
25.399999999999999
144
1.0
145
0.5
146
1.0
147
0.09
 71
     1
 72
     0
 73
     1
 74
     0
 75
     0
 76
     0
 77
     2
 78
     0
170
     0
171
     2
172
     0
173
     0
174
     1
175
      0
176
5
177
5
178
     1
271
3
272
3
  0
ENDTAB
  0
TABLE
  2
DIMSTYLE
 70
     2
  0
DIMSTYLE
  2
ROUTEDIM
 70
     0
  3

  4

  5
_NONE
  6
_NONE
  7
_NONE
 40
1
 41
12.0
 42
0.0625
 43
0.38
 44
0.18
 45
0.00
 46
0.0
 47
0.0
 48
0.0
140
12.0
141
0.09
142
0.0
143
25.399999999999999
144
1.0
145
0.5
146
1.0
147
0.09
 71
     1
 72
     0
 73
     1
 74
     0
 75
     0
 76
     0
 77
     2
 78
     0
170
     0
171
     2
172
     0
173
     0
174
     1
175
      0
176
5
177
5
178
     1
271
3
272
3
  0
ENDTAB
  0
TABLE
  2
DIMSTYLE
 70
     2
  0
DIMSTYLE
  2
SAWDIM
 70
     0
  3

  4

  5
_NONE
  6
_NONE
  7
_NONE
 40
1
 41
12.0
 42
0.0625
 43
0.38
 44
0.18
 45
0.00
 46
0.0
 47
0.0
 48
0.0
140
12.0
141
0.09
142
0.0
143
25.399999999999999
144
1.0
145
0.5
146
1.0
147
0.09
 71
     1
 72
     0
 73
     1
 74
     0
 75
     0
 76
     0
 77
     2
 78
     0
170
     0
171
     2
172
     0
173
     0
174
     1
175
      0
176
5
177
5
178
     1
271
3
272
3
  0
ENDTAB
  0
TABLE
  2
VPORT
 70
     1
  0
VPORT
  2
*ACTIVE
 70
     0
 10
0.0
 20
0.0
 11
1.0
 21
1.0
 12
320.35
 22
232.50
 13
0.0
 23
0.0
 14
1.0
 24
1.0
 15
0.0
 25
0.0
 16
0.0
 26
0.0
 36
1.0
 17
0.0
 27
0.0
 37
0.0
 40
1625.04
 41
1.73
 42
50.0
 43
0.0
 44
0.0
 50
0.0
 51
0.0
 71
     0
 72
   100
 73
     1
 74
     0
 75
     1
 76
     0
 77
     0
 78
     0
  0
ENDTAB
  0
ENDSEC
  0
SECTION
  2
ENTITIES
  0
POLYLINE
  8
BORDER_Z19P0
 62
     7
 66
     1
 10
0.0
 20
0.0
 30
0.0
 70
     1
  0
VERTEX
  8
BORDER_Z19P0
 62
     7
 10
0.0
 20
0.0
 30
0.0
  0
VERTEX
  8
BORDER_Z19P0
 62
     7
 10
0.0
 20
610
 30
0.0
  0
VERTEX
  8
BORDER_Z19P0
 62
     7
 10
780
 20
610
 30
0.0
  0
VERTEX
  8
BORDER_Z19P0
 62
     7
 10
780
 20
0.0
 30
0.0
  0
SEQEND
  8
BORDER_Z19P0
 62
     7
  0
CIRCLE
  8
VBORE_Z13P0
 62
     3
 10
8
 20
575
 30
0.0
 40
4
  0
CIRCLE
  8
VBORE_Z13P0
 62
     3
 10
8.00000000000001
 20
383
 30
0.0
 40
4
  0
CIRCLE
  8
VBORE_Z13P0
 62
     3
 10
8.00000000000003
 20
191
 30
0.0
 40
4
  0
CIRCLE
  8
VBORE_Z13P0
 62
     3
 10
8.00000000000003
 20
64
 30
0.0
 40
4
  0
CIRCLE
  8
VBORE_Z13P0
 62
     3
 10
772
 20
575
 30
0.0
 40
4
  0
CIRCLE
  8
VBORE_Z13P0
 62
     3
 10
772
 20
543
 30
0.0
 40
4
  0
CIRCLE
  8
VBORE_Z13P0
 62
     3
 10
772
 20
92.35
 30
0.0
 40
4
  0
CIRCLE
  8
VBORE_Z13P0
 62
     3
 10
772
 20
60.35
 30
0.0
 40
4
  0
CIRCLE
  8
VBORE_Z13P5
 62
     3
 10
300
 20
573
 30
0.0
 40
2.5
  0
CIRCLE
  8
VBORE_Z13P5
 62
     3
 10
300
 20
541
 30
0.0
 40
2.5
  0
CIRCLE
  8
VBORE_Z13P5
 62
     3
 10
300
 20
329
 30
0.0
 40
2.5
  0
CIRCLE
  8
VBORE_Z13P5
 62
     3
 10
300
 20
285
 30
0.0
 40
2.5
  0
CIRCLE
  8
VBORE_Z13P5
 62
     3
 10
300
 20
221
 30
0.0
 40
2.5
  0
CIRCLE
  8
VBORE_Z13P5
 62
     3
 10
59
 20
573
 30
0.0
 40
2.5
  0
CIRCLE
  8
VBORE_Z13P5
 62
     3
 10
59
 20
541
 30
0.0
 40
2.5
  0
CIRCLE
  8
VBORE_Z13P5
 62
     3
 10
59
 20
329
 30
0.0
 40
2.5
  0
CIRCLE
  8
VBORE_Z13P5
 62
     3
 10
59
 20
285
 30
0.0
 40
2.5
  0
CIRCLE
  8
VBORE_Z13P5
 62
     3
 10
59
 20
221
 30
0.0
 40
2.5
  0
POLYLINE
  8
ROUTE_Z6P85LT109
 62
     3
 66
     1
 10
0.0
 20
0.0
 30
0.0
 70
     0
  0
VERTEX
  8
ROUTE_Z6P85LT109
 62
     3
 10
6.64999999999998
 20
25.3499999999999
 30
0.0
  0
VERTEX
  8
ROUTE_Z6P85LT109
 62
     3
 10
786
 20
25.35
 30
0.0
  0
SEQEND
  8
ROUTE_Z6P85LT109
 62
     3
  0
DIMENSION
  8
2D_DIM
  2
*D1
  3
BOARDERDIM
  1
780
 10
780
 20
802
 30
0.0
 11
390
 21
802
 31
0.0
 13
0
 23
610
 14
780
 24
610
 33
0.0
 34
0.0
53
0
  0
DIMENSION
  8
2D_DIM
  2
*D1
  3
BOARDERDIM
  1
610
 10
-192
 20
610
 30
0.0
 11
-192
 21
305
 31
0
 13
0.0
 23
0
 14
0.0
 24
610
 50
90.0
53
0
 33
0.0
 34
0.0
  0
DIMENSION
  8
2D_DIM
  2
*D1
  3
VDRILLDIM
  1
8
 10
8
 20
674
 30
0.0
 11
4
 21
674
 31
0.0
 13
0
 23
610
 14
8
 24
610
 33
0.0
 34
0.0
53
90
  0
DIMENSION
  8
2D_DIM
  2
*D1
  3
VDRILLDIM
  1
772
 10
780
 20
674
 30
0.0
 11
390
 21
674
 31
0.0
 13
8
 23
610
 14
780
 24
610
 33
0.0
 34
0.0
53
90
  0
DIMENSION
  8
2D_DIM
  2
*D1
  3
VDRILLDIM
  1
59
 10
59
 20
-64
 30
0.0
 11
29.5
 21
-64
 31
0.0
 13
0
 23
0.0
 14
59
 24
0.0
 33
0.0
 34
0.0
53
90
  0
DIMENSION
  8
2D_DIM
  2
*D1
  3
VDRILLDIM
  1
241
 10
300
 20
-64
 30
0.0
 11
150
 21
-64
 31
0.0
 13
59
 23
0.0
 14
300
 24
0.0
 33
0.0
 34
0.0
53
90
  0
DIMENSION
  8
2D_DIM
  2
*D1
  3
VDRILLDIM
  1
472
 10
772
 20
-64
 30
0.0
 11
386
 21
-64
 31
0.0
 13
300
 23
0.0
 14
772
 24
0.0
 33
0.0
 34
0.0
53
90
  0
DIMENSION
  8
2D_DIM
  2
*D1
  3
VDRILLDIM
  1
8
 10
780
 20
-64
 30
0.0
 11
390
 21
-64
 31
0.0
 13
772
 23
0.0
 14
780
 24
0.0
 33
0.0
 34
0.0
53
90
  0
DIMENSION
  8
2D_DIM
  2
*D1
  3
VDRILLDIM
  1
64
 10
-64
 20
64
 30
0.0
 11
-64
 21
32
 31
0
 13
0.0
 23
0
 14
0.0
 24
64
 50
90.0
53
0
 33
0.0
 34
0.0
  0
DIMENSION
  8
2D_DIM
  2
*D1
  3
VDRILLDIM
  1
127
 10
-64
 20
191
 30
0.0
 11
-64
 21
95.5
 31
0
 13
0.0
 23
64
 14
0.0
 24
191
 50
90.0
53
0
 33
0.0
 34
0.0
  0
DIMENSION
  8
2D_DIM
  2
*D1
  3
VDRILLDIM
  1
30
 10
-64
 20
221
 30
0.0
 11
-64
 21
110.5
 31
0
 13
0.0
 23
191
 14
0.0
 24
221
 50
90.0
53
0
 33
0.0
 34
0.0
  0
DIMENSION
  8
2D_DIM
  2
*D1
  3
VDRILLDIM
  1
64
 10
-64
 20
285
 30
0.0
 11
-64
 21
142.5
 31
0
 13
0.0
 23
221
 14
0.0
 24
285
 50
90.0
53
0
 33
0.0
 34
0.0
  0
DIMENSION
  8
2D_DIM
  2
*D1
  3
VDRILLDIM
  1
44
 10
-64
 20
329
 30
0.0
 11
-64
 21
164.5
 31
0
 13
0.0
 23
285
 14
0.0
 24
329
 50
90.0
53
0
 33
0.0
 34
0.0
  0
DIMENSION
  8
2D_DIM
  2
*D1
  3
VDRILLDIM
  1
54
 10
-64
 20
383
 30
0.0
 11
-64
 21
191.5
 31
0
 13
0.0
 23
329
 14
0.0
 24
383
 50
90.0
53
0
 33
0.0
 34
0.0
  0
DIMENSION
  8
2D_DIM
  2
*D1
  3
VDRILLDIM
  1
158
 10
-64
 20
541
 30
0.0
 11
-64
 21
270.5
 31
0
 13
0.0
 23
383
 14
0.0
 24
541
 50
90.0
53
0
 33
0.0
 34
0.0
  0
DIMENSION
  8
2D_DIM
  2
*D1
  3
VDRILLDIM
  1
32
 10
-64
 20
573
 30
0.0
 11
-64
 21
286.5
 31
0
 13
0.0
 23
541
 14
0.0
 24
573
 50
90.0
53
0
 33
0.0
 34
0.0
  0
DIMENSION
  8
2D_DIM
  2
*D1
  3
VDRILLDIM
  1
2
 10
-64
 20
575
 30
0.0
 11
-64
 21
287.5
 31
0
 13
0.0
 23
573
 14
0.0
 24
575
 50
90.0
53
0
 33
0.0
 34
0.0
  0
DIMENSION
  8
2D_DIM
  2
*D1
  3
VDRILLDIM
  1
35
 10
-64
 20
610
 30
0.0
 11
-64
 21
305
 31
0
 13
0.0
 23
575
 14
0.0
 24
610
 50
90.0
53
0
 33
0.0
 34
0.0
  0
DIMENSION
  8
2D_DIM
  2
*D1
  3
VDRILLDIM
  1
60.35
 10
844
 20
60.35
 30
0.0
 11
844
 21
30.175
 31
0
 13
780
 23
0
 14
780
 24
60.35
 50
90.0
53
0
 33
0.0
 34
0.0
  0
DIMENSION
  8
2D_DIM
  2
*D1
  3
VDRILLDIM
  1
32
 10
844
 20
92.35
 30
0.0
 11
844
 21
46.175
 31
0
 13
780
 23
60.35
 14
780
 24
92.35
 50
90.0
53
0
 33
0.0
 34
0.0
  0
DIMENSION
  8
2D_DIM
  2
*D1
  3
VDRILLDIM
  1
450.65
 10
844
 20
543
 30
0.0
 11
844
 21
271.5
 31
0
 13
780
 23
92.35
 14
780
 24
543
 50
90.0
53
0
 33
0.0
 34
0.0
  0
DIMENSION
  8
2D_DIM
  2
*D1
  3
VDRILLDIM
  1
67
 10
844
 20
610
 30
0.0
 11
844
 21
305
 31
0
 13
780
 23
543
 14
780
 24
610
 50
90.0
53
0
 33
0.0
 34
0.0
  0
DIMENSION
  8
2D_DIM
  2
*D1
  3
ROUTEDIM
  1
6.65
 10
6.64999999999998
 20
738
 30
0.0
 11
3.32499999999999
 21
738
 31
0.0
 13
0
 23
610
 14
6.64999999999998
 24
610
 33
0.0
 34
0.0
53
90
  0
DIMENSION
  8
2D_DIM
  2
*D1
  3
ROUTEDIM
  1
779.35
 10
786
 20
738
 30
0.0
 11
393
 21
738
 31
0.0
 13
6.64999999999998
 23
610
 14
786
 24
610
 33
0.0
 34
0.0
53
90
  0
DIMENSION
  8
2D_DIM
  2
*D1
  3
ROUTEDIM
  1
-6
 10
780
 20
738
 30
0.0
 11
390
 21
738
 31
0.0
 13
786
 23
610
 14
780
 24
610
 33
0.0
 34
0.0
53
90
  0
DIMENSION
  8
2D_DIM
  2
*D1
  3
ROUTEDIM
  1
25.35
 10
-128
 20
25.3499999999999
 30
0.0
 11
-128
 21
12.6749999999999
 31
0
 13
0.0
 23
0
 14
0.0
 24
25.3499999999999
 50
90.0
53
0
 33
0.0
 34
0.0
  0
DIMENSION
  8
2D_DIM
  2
*D1
  3
ROUTEDIM
  1
584.65
 10
-128
 20
610
 30
0.0
 11
-128
 21
305
 31
0
 13
0.0
 23
25.3499999999999
 14
0.0
 24
610
 50
90.0
53
0
 33
0.0
 34
0.0
  0
TEXT
  8
ITEMNUMBER
 62
     1
 10
-192
 20
-79
 30
0.0
 40
12.0
  1
1.56
  0
TEXT
  8
DESCRIPTION
 62
     1
 10
-192
 20
-104
 30
0.0
 40
12.0
  1
Base Left Side
  0
TEXT
  8
FILENAME
 62
     1
 10
-192
 20
-129
 30
0.0
 40
12.0
  1
6606H77E
  0
TEXT
  8
MATERIALNAME
 62
     1
 10
-192
 20
-154
 30
0.0
 40
12.0
  1
MDF34
  0
TEXT
  8
MATERIALCODE
 62
     1
 10
-192
 20
-179
 30
0.0
 40
12.0
  1
|T104-D
  0
TEXT
  8
BOTTOMEB
 62
     1
 10
-192
 20
-204
 30
0.0
 40
12.0
  1
0.1mm 2134-30 - &
  0
TEXT
  8
BOTTOMEBTHICKNESS
 62
     1
 10
-192
 20
-229
 30
0.0
 40
12.0
  1
0.1
  0
TEXT
  8
FORTHSYMBOL
 62
     1
 10
390
 20
610.125
 30
0.0
 40
12.0
  1
&
  0
TEXT
  8
Qty
 62
     1
 10
-192
 20
-254
 30
0.0
 40
12.0
  1
1
  0
TEXT
  8
RUNFIELD
 62
     1
 10
200
 20
-25
 30
0.0
 40
12.0
  1
Normal
  0
ENDSEC
  0
EOF
