  0
SECTION
  2
TABLES
  0
TABLE
  2
DIMSTYLE
 70
     2
  0
DIMSTYLE
  2
BOARDERDIM
 70
     0
  3

  4

  5
_NONE
  6
_NONE
  7
_NONE
 40
1
 41
12.0
 42
0.0625
 43
0.38
 44
0.18
 45
0.00
 46
0.0
 47
0.0
 48
0.0
140
12.0
141
0.09
142
0.0
143
25.399999999999999
144
1.0
145
0.5
146
1.0
147
0.09
 71
     1
 72
     0
 73
     1
 74
     0
 75
     0
 76
     0
 77
     2
 78
     0
170
     0
171
     2
172
     0
173
     0
174
     1
175
      0
176
5
177
5
178
     1
271
3
272
3
  0
ENDTAB
  0
TABLE
  2
DIMSTYLE
 70
     2
  0
DIMSTYLE
  2
VDRILLDIM
 70
     0
  3

  4

  5
_NONE
  6
_NONE
  7
_NONE
 40
1
 41
12.0
 42
0.0625
 43
0.38
 44
0.18
 45
0.00
 46
0.0
 47
0.0
 48
0.0
140
12.0
141
0.09
142
0.0
143
25.399999999999999
144
1.0
145
0.5
146
1.0
147
0.09
 71
     1
 72
     0
 73
     1
 74
     0
 75
     0
 76
     0
 77
     2
 78
     0
170
     0
171
     2
172
     0
173
     0
174
     1
175
      0
176
5
177
5
178
     1
271
3
272
3
  0
ENDTAB
  0
TABLE
  2
DIMSTYLE
 70
     2
  0
DIMSTYLE
  2
HDRILLDIM
 70
     0
  3

  4

  5
_NONE
  6
_NONE
  7
_NONE
 40
1
 41
12.0
 42
0.0625
 43
0.38
 44
0.18
 45
0.00
 46
0.0
 47
0.0
 48
0.0
140
12.0
141
0.09
142
0.0
143
25.399999999999999
144
1.0
145
0.5
146
1.0
147
0.09
 71
     1
 72
     0
 73
     1
 74
     0
 75
     0
 76
     0
 77
     2
 78
     0
170
     0
171
     2
172
     0
173
     0
174
     1
175
      0
176
5
177
5
178
     1
271
3
272
3
  0
ENDTAB
  0
TABLE
  2
DIMSTYLE
 70
     2
  0
DIMSTYLE
  2
ROUTEDIM
 70
     0
  3

  4

  5
_NONE
  6
_NONE
  7
_NONE
 40
1
 41
12.0
 42
0.0625
 43
0.38
 44
0.18
 45
0.00
 46
0.0
 47
0.0
 48
0.0
140
12.0
141
0.09
142
0.0
143
25.399999999999999
144
1.0
145
0.5
146
1.0
147
0.09
 71
     1
 72
     0
 73
     1
 74
     0
 75
     0
 76
     0
 77
     2
 78
     0
170
     0
171
     2
172
     0
173
     0
174
     1
175
      0
176
5
177
5
178
     1
271
3
272
3
  0
ENDTAB
  0
TABLE
  2
DIMSTYLE
 70
     2
  0
DIMSTYLE
  2
SAWDIM
 70
     0
  3

  4

  5
_NONE
  6
_NONE
  7
_NONE
 40
1
 41
12.0
 42
0.0625
 43
0.38
 44
0.18
 45
0.00
 46
0.0
 47
0.0
 48
0.0
140
12.0
141
0.09
142
0.0
143
25.399999999999999
144
1.0
145
0.5
146
1.0
147
0.09
 71
     1
 72
     0
 73
     1
 74
     0
 75
     0
 76
     0
 77
     2
 78
     0
170
     0
171
     2
172
     0
173
     0
174
     1
175
      0
176
5
177
5
178
     1
271
3
272
3
  0
ENDTAB
  0
TABLE
  2
VPORT
 70
     1
  0
VPORT
  2
*ACTIVE
 70
     0
 10
0.0
 20
0.0
 11
1.0
 21
1.0
 12
320.35
 22
232.50
 13
0.0
 23
0.0
 14
1.0
 24
1.0
 15
0.0
 25
0.0
 16
0.0
 26
0.0
 36
1.0
 17
0.0
 27
0.0
 37
0.0
 40
1625.04
 41
1.73
 42
50.0
 43
0.0
 44
0.0
 50
0.0
 51
0.0
 71
     0
 72
   100
 73
     1
 74
     0
 75
     1
 76
     0
 77
     0
 78
     0
  0
ENDTAB
  0
ENDSEC
  0
SECTION
  2
ENTITIES
  0
POLYLINE
  8
BORDER_Z19P0
 62
     7
 66
     1
 10
0.0
 20
0.0
 30
0.0
 70
     1
  0
VERTEX
  8
BORDER_Z19P0
 62
     7
 10
0.0
 20
0.0
 30
0.0
  0
VERTEX
  8
BORDER_Z19P0
 62
     7
 10
0.0
 20
441
 30
0.0
  0
VERTEX
  8
BORDER_Z19P0
 62
     7
 10
538
 20
441
 30
0.0
  0
VERTEX
  8
BORDER_Z19P0
 62
     7
 10
538
 20
0.0
 30
0.0
  0
SEQEND
  8
BORDER_Z19P0
 62
     7
  0
CIRCLE
  8
VBORE_Z14P0
 62
     3
 10
527
 20
366.5
 30
0.0
 40
1.5
  0
CIRCLE
  8
VBORE_Z14P0
 62
     3
 10
527
 20
74.5000000000001
 30
0.0
 40
1.5
  0
CIRCLE
  8
VBORE_Z14P0
 62
     3
 10
527
 20
220.5
 30
0.0
 40
1.5
  0
POLYLINE
  8
ROUTE_Z3RT106
 62
     3
 66
     1
 10
0.0
 20
0.0
 30
0.0
 70
     0
  0
VERTEX
  8
ROUTE_Z3RT106
 62
     3
 10
557.5
 20
441
 30
0.0
  0
VERTEX
  8
ROUTE_Z3RT106
 62
     3
 10
-7.5
 20
441
 30
0.0
  0
SEQEND
  8
ROUTE_Z3RT106
 62
     3
  0
POLYLINE
  8
ROUTE_Z3LT106
 62
     3
 66
     1
 10
0.0
 20
0.0
 30
0.0
 70
     0
  0
VERTEX
  8
ROUTE_Z3LT106
 62
     3
 10
557.5
 20
5.6843418860808E-14
 30
0.0
  0
VERTEX
  8
ROUTE_Z3LT106
 62
     3
 10
-7.5
 20
1.13686837721616E-13
 30
0.0
  0
SEQEND
  8
ROUTE_Z3LT106
 62
     3
  0
DIMENSION
  8
2D_DIM
  2
*D1
  3
BOARDERDIM
  1
538
 10
538
 20
633
 30
0.0
 11
269
 21
633
 31
0.0
 13
0
 23
441
 14
538
 24
441
 33
0.0
 34
0.0
53
0
  0
DIMENSION
  8
2D_DIM
  2
*D1
  3
BOARDERDIM
  1
441
 10
-192
 20
441
 30
0.0
 11
-192
 21
220.5
 31
0
 13
0.0
 23
0
 14
0.0
 24
441
 50
90.0
53
0
 33
0.0
 34
0.0
  0
DIMENSION
  8
2D_DIM
  2
*D1
  3
VDRILLDIM
  1
527
 10
527
 20
-64
 30
0.0
 11
263.5
 21
-64
 31
0.0
 13
0
 23
0.0
 14
527
 24
0.0
 33
0.0
 34
0.0
53
90
  0
DIMENSION
  8
2D_DIM
  2
*D1
  3
VDRILLDIM
  1
11
 10
538
 20
-64
 30
0.0
 11
269
 21
-64
 31
0.0
 13
527
 23
0.0
 14
538
 24
0.0
 33
0.0
 34
0.0
53
90
  0
DIMENSION
  8
2D_DIM
  2
*D1
  3
VDRILLDIM
  1
74.5
 10
602
 20
74.5000000000001
 30
0.0
 11
602
 21
37.25
 31
0
 13
538
 23
0
 14
538
 24
74.5000000000001
 50
90.0
53
0
 33
0.0
 34
0.0
  0
DIMENSION
  8
2D_DIM
  2
*D1
  3
VDRILLDIM
  1
146
 10
602
 20
220.5
 30
0.0
 11
602
 21
110.25
 31
0
 13
538
 23
74.5000000000001
 14
538
 24
220.5
 50
90.0
53
0
 33
0.0
 34
0.0
  0
DIMENSION
  8
2D_DIM
  2
*D1
  3
VDRILLDIM
  1
146
 10
602
 20
366.5
 30
0.0
 11
602
 21
183.25
 31
0
 13
538
 23
220.5
 14
538
 24
366.5
 50
90.0
53
0
 33
0.0
 34
0.0
  0
DIMENSION
  8
2D_DIM
  2
*D1
  3
VDRILLDIM
  1
74.5
 10
602
 20
441
 30
0.0
 11
602
 21
220.5
 31
0
 13
538
 23
366.5
 14
538
 24
441
 50
90.0
53
0
 33
0.0
 34
0.0
  0
DIMENSION
  8
2D_DIM
  2
*D1
  3
ROUTEDIM
  1
-7.5
 10
-7.5
 20
569
 30
0.0
 11
-3.75
 21
569
 31
0.0
 13
0
 23
441
 14
-7.5
 24
441
 33
0.0
 34
0.0
53
90
  0
DIMENSION
  8
2D_DIM
  2
*D1
  3
ROUTEDIM
  1
565
 10
557.5
 20
569
 30
0.0
 11
278.75
 21
569
 31
0.0
 13
-7.5
 23
441
 14
557.5
 24
441
 33
0.0
 34
0.0
53
90
  0
DIMENSION
  8
2D_DIM
  2
*D1
  3
ROUTEDIM
  1
-19.5
 10
538
 20
569
 30
0.0
 11
269
 21
569
 31
0.0
 13
557.5
 23
441
 14
538
 24
441
 33
0.0
 34
0.0
53
90
  0
DIMENSION
  8
2D_DIM
  2
*D1
  3
ROUTEDIM
  1
-0
 10
-128
 20
5.6843418860808E-14
 30
0.0
 11
-128
 21
2.8421709430404E-14
 31
0
 13
0.0
 23
0
 14
0.0
 24
5.6843418860808E-14
 50
90.0
53
0
 33
0.0
 34
0.0
  0
DIMENSION
  8
2D_DIM
  2
*D1
  3
ROUTEDIM
  1
441
 10
-128
 20
441
 30
0.0
 11
-128
 21
220.5
 31
0
 13
0.0
 23
5.6843418860808E-14
 14
0.0
 24
441
 50
90.0
53
0
 33
0.0
 34
0.0
  0
DIMENSION
  8
2D_DIM
  2
*D1
  3
ROUTEDIM
  1
0
 10
-128
 20
441
 30
0.0
 11
-128
 21
220.5
 31
0
 13
0.0
 23
441
 14
0.0
 24
441
 50
90.0
53
0
 33
0.0
 34
0.0
  0
TEXT
  8
ITEMNUMBER
 62
     1
 10
-192
 20
-79
 30
0.0
 40
12.0
  1
1.56
  0
TEXT
  8
DESCRIPTION
 62
     1
 10
-192
 20
-104
 30
0.0
 40
12.0
  1
Grass Vionaro Drawer Bottom
  0
TEXT
  8
FILENAME
 62
     1
 10
-192
 20
-129
 30
0.0
 40
12.0
  1
06H78Q06
  0
TEXT
  8
MATERIALNAME
 62
     1
 10
-192
 20
-154
 30
0.0
 40
12.0
  1
MDF34
  0
TEXT
  8
MATERIALCODE
 62
     1
 10
-192
 20
-179
 30
0.0
 40
12.0
  1
|T104-D
  0
TEXT
  8
Qty
 62
     1
 10
-192
 20
-204
 30
0.0
 40
12.0
  1
1
  0
TEXT
  8
RUNFIELD
 62
     1
 10
200
 20
-25
 30
0.0
 40
12.0
  1
Mirrored
  0
ENDSEC
  0
EOF
