  0
SECTION
  2
TABLES
  0
TABLE
  2
DIMSTYLE
 70
     2
  0
DIMSTYLE
  2
BOARDERDIM
 70
     0
  3

  4

  5
_NONE
  6
_NONE
  7
_NONE
 40
1
 41
12.0
 42
0.0625
 43
0.38
 44
0.18
 45
0.00
 46
0.0
 47
0.0
 48
0.0
140
12.0
141
0.09
142
0.0
143
25.399999999999999
144
1.0
145
0.5
146
1.0
147
0.09
 71
     1
 72
     0
 73
     1
 74
     0
 75
     0
 76
     0
 77
     2
 78
     0
170
     0
171
     2
172
     0
173
     0
174
     1
175
      0
176
5
177
5
178
     1
271
3
272
3
  0
ENDTAB
  0
TABLE
  2
DIMSTYLE
 70
     2
  0
DIMSTYLE
  2
VDRILLDIM
 70
     0
  3

  4

  5
_NONE
  6
_NONE
  7
_NONE
 40
1
 41
12.0
 42
0.0625
 43
0.38
 44
0.18
 45
0.00
 46
0.0
 47
0.0
 48
0.0
140
12.0
141
0.09
142
0.0
143
25.399999999999999
144
1.0
145
0.5
146
1.0
147
0.09
 71
     1
 72
     0
 73
     1
 74
     0
 75
     0
 76
     0
 77
     2
 78
     0
170
     0
171
     2
172
     0
173
     0
174
     1
175
      0
176
5
177
5
178
     1
271
3
272
3
  0
ENDTAB
  0
TABLE
  2
DIMSTYLE
 70
     2
  0
DIMSTYLE
  2
HDRILLDIM
 70
     0
  3

  4

  5
_NONE
  6
_NONE
  7
_NONE
 40
1
 41
12.0
 42
0.0625
 43
0.38
 44
0.18
 45
0.00
 46
0.0
 47
0.0
 48
0.0
140
12.0
141
0.09
142
0.0
143
25.399999999999999
144
1.0
145
0.5
146
1.0
147
0.09
 71
     1
 72
     0
 73
     1
 74
     0
 75
     0
 76
     0
 77
     2
 78
     0
170
     0
171
     2
172
     0
173
     0
174
     1
175
      0
176
5
177
5
178
     1
271
3
272
3
  0
ENDTAB
  0
TABLE
  2
DIMSTYLE
 70
     2
  0
DIMSTYLE
  2
ROUTEDIM
 70
     0
  3

  4

  5
_NONE
  6
_NONE
  7
_NONE
 40
1
 41
12.0
 42
0.0625
 43
0.38
 44
0.18
 45
0.00
 46
0.0
 47
0.0
 48
0.0
140
12.0
141
0.09
142
0.0
143
25.399999999999999
144
1.0
145
0.5
146
1.0
147
0.09
 71
     1
 72
     0
 73
     1
 74
     0
 75
     0
 76
     0
 77
     2
 78
     0
170
     0
171
     2
172
     0
173
     0
174
     1
175
      0
176
5
177
5
178
     1
271
3
272
3
  0
ENDTAB
  0
TABLE
  2
DIMSTYLE
 70
     2
  0
DIMSTYLE
  2
SAWDIM
 70
     0
  3

  4

  5
_NONE
  6
_NONE
  7
_NONE
 40
1
 41
12.0
 42
0.0625
 43
0.38
 44
0.18
 45
0.00
 46
0.0
 47
0.0
 48
0.0
140
12.0
141
0.09
142
0.0
143
25.399999999999999
144
1.0
145
0.5
146
1.0
147
0.09
 71
     1
 72
     0
 73
     1
 74
     0
 75
     0
 76
     0
 77
     2
 78
     0
170
     0
171
     2
172
     0
173
     0
174
     1
175
      0
176
5
177
5
178
     1
271
3
272
3
  0
ENDTAB
  0
TABLE
  2
VPORT
 70
     1
  0
VPORT
  2
*ACTIVE
 70
     0
 10
0.0
 20
0.0
 11
1.0
 21
1.0
 12
320.35
 22
232.50
 13
0.0
 23
0.0
 14
1.0
 24
1.0
 15
0.0
 25
0.0
 16
0.0
 26
0.0
 36
1.0
 17
0.0
 27
0.0
 37
0.0
 40
1625.04
 41
1.73
 42
50.0
 43
0.0
 44
0.0
 50
0.0
 51
0.0
 71
     0
 72
   100
 73
     1
 74
     0
 75
     1
 76
     0
 77
     0
 78
     0
  0
ENDTAB
  0
ENDSEC
  0
SECTION
  2
ENTITIES
  0
POLYLINE
  8
BORDER_Z19P0
 62
     7
 66
     1
 10
0.0
 20
0.0
 30
0.0
 70
     1
  0
VERTEX
  8
BORDER_Z19P0
 62
     7
 10
0.0
 20
0.0
 30
0.0
  0
VERTEX
  8
BORDER_Z19P0
 62
     7
 10
0.0
 20
102
 30
0.0
  0
VERTEX
  8
BORDER_Z19P0
 62
     7
 10
462
 20
102
 30
0.0
  0
VERTEX
  8
BORDER_Z19P0
 62
     7
 10
462
 20
0.0
 30
0.0
  0
SEQEND
  8
BORDER_Z19P0
 62
     7
  0
POLYLINE
  8
HBORE_Z11P0
 62
     4
 66
     1
 10
0.0
 20
0.0
 30
0.0
 70
     1
  0
VERTEX
  8
HBORE_Z11P0
 62
     4
 10
0
 20
71
 30
0.0
  0
VERTEX
  8
HBORE_Z11P0
 62
     4
 10
20
 20
71
 30
0.0
  0
VERTEX
  8
HBORE_Z11P0
 62
     4
 10
20
 20
63
 30
0.0
  0
VERTEX
  8
HBORE_Z11P0
 62
     4
 10
0
 20
63
 30
0.0
  0
SEQEND
  8
HBORE_Z11P0
 62
     4
  0
POLYLINE
  8
HBORE_Z11P0
 62
     4
 66
     1
 10
0.0
 20
0.0
 30
0.0
 70
     1
  0
VERTEX
  8
HBORE_Z11P0
 62
     4
 10
0
 20
39
 30
0.0
  0
VERTEX
  8
HBORE_Z11P0
 62
     4
 10
20
 20
39
 30
0.0
  0
VERTEX
  8
HBORE_Z11P0
 62
     4
 10
20
 20
31
 30
0.0
  0
VERTEX
  8
HBORE_Z11P0
 62
     4
 10
0
 20
31
 30
0.0
  0
SEQEND
  8
HBORE_Z11P0
 62
     4
  0
POLYLINE
  8
HBORE_Z11P0
 62
     4
 66
     1
 10
0.0
 20
0.0
 30
0.0
 70
     1
  0
VERTEX
  8
HBORE_Z11P0
 62
     4
 10
462
 20
71
 30
0.0
  0
VERTEX
  8
HBORE_Z11P0
 62
     4
 10
442
 20
71
 30
0.0
  0
VERTEX
  8
HBORE_Z11P0
 62
     4
 10
442
 20
63
 30
0.0
  0
VERTEX
  8
HBORE_Z11P0
 62
     4
 10
462
 20
63
 30
0.0
  0
SEQEND
  8
HBORE_Z11P0
 62
     4
  0
POLYLINE
  8
HBORE_Z11P0
 62
     4
 66
     1
 10
0.0
 20
0.0
 30
0.0
 70
     1
  0
VERTEX
  8
HBORE_Z11P0
 62
     4
 10
462
 20
39
 30
0.0
  0
VERTEX
  8
HBORE_Z11P0
 62
     4
 10
442
 20
39
 30
0.0
  0
VERTEX
  8
HBORE_Z11P0
 62
     4
 10
442
 20
31
 30
0.0
  0
VERTEX
  8
HBORE_Z11P0
 62
     4
 10
462
 20
31
 30
0.0
  0
SEQEND
  8
HBORE_Z11P0
 62
     4
  0
DIMENSION
  8
2D_DIM
  2
*D1
  3
BOARDERDIM
  1
462
 10
462
 20
230
 30
0.0
 11
231
 21
230
 31
0.0
 13
0
 23
102
 14
462
 24
102
 33
0.0
 34
0.0
53
0
  0
DIMENSION
  8
2D_DIM
  2
*D1
  3
BOARDERDIM
  1
102
 10
-128
 20
102
 30
0.0
 11
-128
 21
51
 31
0
 13
0.0
 23
0
 14
0.0
 24
102
 50
90.0
53
0
 33
0.0
 34
0.0
  0
DIMENSION
  8
2D_DIM
  2
*D1
  3
HDRILLDIM
  1
35
 10
-64
 20
35
 30
0.0
 11
-64
 21
17.5
 31
0
 13
0.0
 23
0
 14
0.0
 24
35
 50
90.0
53
0
 33
0.0
 34
0.0
  0
DIMENSION
  8
2D_DIM
  2
*D1
  3
HDRILLDIM
  1
32
 10
-64
 20
67
 30
0.0
 11
-64
 21
33.5
 31
0
 13
0.0
 23
35
 14
0.0
 24
67
 50
90.0
53
0
 33
0.0
 34
0.0
  0
DIMENSION
  8
2D_DIM
  2
*D1
  3
HDRILLDIM
  1
35
 10
-64
 20
102
 30
0.0
 11
-64
 21
51
 31
0
 13
0.0
 23
67
 14
0.0
 24
102
 50
90.0
53
0
 33
0.0
 34
0.0
  0
DIMENSION
  8
2D_DIM
  2
*D1
  3
HDRILLDIM
  1
35
 10
526
 20
35
 30
0.0
 11
526
 21
17.5
 31
0
 13
462
 23
0
 14
462
 24
35
 50
90.0
53
0
 33
0.0
 34
0.0
  0
DIMENSION
  8
2D_DIM
  2
*D1
  3
HDRILLDIM
  1
32
 10
526
 20
67
 30
0.0
 11
526
 21
33.5
 31
0
 13
462
 23
35
 14
462
 24
67
 50
90.0
53
0
 33
0.0
 34
0.0
  0
DIMENSION
  8
2D_DIM
  2
*D1
  3
HDRILLDIM
  1
35
 10
526
 20
102
 30
0.0
 11
526
 21
51
 31
0
 13
462
 23
67
 14
462
 24
102
 50
90.0
53
0
 33
0.0
 34
0.0
  0
TEXT
  8
ITEMNUMBER
 62
     1
 10
-192
 20
-78
 30
0.0
 40
12.0
  1
1.56
  0
TEXT
  8
DESCRIPTION
 62
     1
 10
-192
 20
-103
 30
0.0
 40
12.0
  1
Base Rear Rail
  0
TEXT
  8
FILENAME
 62
     1
 10
-192
 20
-128
 30
0.0
 40
12.0
  1
6606H782
  0
TEXT
  8
MATERIALNAME
 62
     1
 10
-192
 20
-153
 30
0.0
 40
12.0
  1
MDF34
  0
TEXT
  8
MATERIALCODE
 62
     1
 10
-192
 20
-178
 30
0.0
 40
12.0
  1
|T104-D
  0
TEXT
  8
BOTTOMEB
 62
     1
 10
-192
 20
-203
 30
0.0
 40
12.0
  1
0.1mm 2134-30 - &
  0
TEXT
  8
BOTTOMEBTHICKNESS
 62
     1
 10
-192
 20
-228
 30
0.0
 40
12.0
  1
0.1
  0
TEXT
  8
FORTHSYMBOL
 62
     1
 10
231
 20
102.125
 30
0.0
 40
12.0
  1
&
  0
TEXT
  8
Qty
 62
     1
 10
-192
 20
-253
 30
0.0
 40
12.0
  1
1
  0
ENDSEC
  0
EOF
