  0
SECTION
  2
TABLES
  0
TABLE
  2
DIMSTYLE
 70
     2
  0
DIMSTYLE
  2
BOARDERDIM
 70
     0
  3

  4

  5
_NONE
  6
_NONE
  7
_NONE
 40
1
 41
12.0
 42
0.0625
 43
0.38
 44
0.18
 45
0.00
 46
0.0
 47
0.0
 48
0.0
140
12.0
141
0.09
142
0.0
143
25.399999999999999
144
1.0
145
0.5
146
1.0
147
0.09
 71
     1
 72
     0
 73
     1
 74
     0
 75
     0
 76
     0
 77
     2
 78
     0
170
     0
171
     2
172
     0
173
     0
174
     1
175
      0
176
5
177
5
178
     1
271
3
272
3
  0
ENDTAB
  0
TABLE
  2
DIMSTYLE
 70
     2
  0
DIMSTYLE
  2
VDRILLDIM
 70
     0
  3

  4

  5
_NONE
  6
_NONE
  7
_NONE
 40
1
 41
12.0
 42
0.0625
 43
0.38
 44
0.18
 45
0.00
 46
0.0
 47
0.0
 48
0.0
140
12.0
141
0.09
142
0.0
143
25.399999999999999
144
1.0
145
0.5
146
1.0
147
0.09
 71
     1
 72
     0
 73
     1
 74
     0
 75
     0
 76
     0
 77
     2
 78
     0
170
     0
171
     2
172
     0
173
     0
174
     1
175
      0
176
5
177
5
178
     1
271
3
272
3
  0
ENDTAB
  0
TABLE
  2
DIMSTYLE
 70
     2
  0
DIMSTYLE
  2
HDRILLDIM
 70
     0
  3

  4

  5
_NONE
  6
_NONE
  7
_NONE
 40
1
 41
12.0
 42
0.0625
 43
0.38
 44
0.18
 45
0.00
 46
0.0
 47
0.0
 48
0.0
140
12.0
141
0.09
142
0.0
143
25.399999999999999
144
1.0
145
0.5
146
1.0
147
0.09
 71
     1
 72
     0
 73
     1
 74
     0
 75
     0
 76
     0
 77
     2
 78
     0
170
     0
171
     2
172
     0
173
     0
174
     1
175
      0
176
5
177
5
178
     1
271
3
272
3
  0
ENDTAB
  0
TABLE
  2
DIMSTYLE
 70
     2
  0
DIMSTYLE
  2
ROUTEDIM
 70
     0
  3

  4

  5
_NONE
  6
_NONE
  7
_NONE
 40
1
 41
12.0
 42
0.0625
 43
0.38
 44
0.18
 45
0.00
 46
0.0
 47
0.0
 48
0.0
140
12.0
141
0.09
142
0.0
143
25.399999999999999
144
1.0
145
0.5
146
1.0
147
0.09
 71
     1
 72
     0
 73
     1
 74
     0
 75
     0
 76
     0
 77
     2
 78
     0
170
     0
171
     2
172
     0
173
     0
174
     1
175
      0
176
5
177
5
178
     1
271
3
272
3
  0
ENDTAB
  0
TABLE
  2
DIMSTYLE
 70
     2
  0
DIMSTYLE
  2
SAWDIM
 70
     0
  3

  4

  5
_NONE
  6
_NONE
  7
_NONE
 40
1
 41
12.0
 42
0.0625
 43
0.38
 44
0.18
 45
0.00
 46
0.0
 47
0.0
 48
0.0
140
12.0
141
0.09
142
0.0
143
25.399999999999999
144
1.0
145
0.5
146
1.0
147
0.09
 71
     1
 72
     0
 73
     1
 74
     0
 75
     0
 76
     0
 77
     2
 78
     0
170
     0
171
     2
172
     0
173
     0
174
     1
175
      0
176
5
177
5
178
     1
271
3
272
3
  0
ENDTAB
  0
TABLE
  2
VPORT
 70
     1
  0
VPORT
  2
*ACTIVE
 70
     0
 10
0.0
 20
0.0
 11
1.0
 21
1.0
 12
320.35
 22
232.50
 13
0.0
 23
0.0
 14
1.0
 24
1.0
 15
0.0
 25
0.0
 16
0.0
 26
0.0
 36
1.0
 17
0.0
 27
0.0
 37
0.0
 40
1625.04
 41
1.73
 42
50.0
 43
0.0
 44
0.0
 50
0.0
 51
0.0
 71
     0
 72
   100
 73
     1
 74
     0
 75
     1
 76
     0
 77
     0
 78
     0
  0
ENDTAB
  0
ENDSEC
  0
SECTION
  2
ENTITIES
  0
POLYLINE
  8
BORDER_Z19P0
 62
     7
 66
     1
 10
0.0
 20
0.0
 30
0.0
 70
     1
  0
VERTEX
  8
BORDER_Z19P0
 62
     7
 10
0.0
 20
0.0
 30
0.0
  0
VERTEX
  8
BORDER_Z19P0
 62
     7
 10
0.0
 20
610
 30
0.0
  0
VERTEX
  8
BORDER_Z19P0
 62
     7
 10
120
 20
610
 30
0.0
  0
VERTEX
  8
BORDER_Z19P0
 62
     7
 10
120
 20
0.0
 30
0.0
  0
SEQEND
  8
BORDER_Z19P0
 62
     7
  0
POLYLINE
  8
ROUTE_Z19P5RT104
 62
     3
 66
     1
 10
0.0
 20
0.0
 30
0.0
 70
     0
  0
VERTEX
  8
ROUTE_Z19P5RT104
 62
     3
 10
127.5
 20
609.9
 30
0.0
  0
VERTEX
  8
ROUTE_Z19P5RT104
 62
     3
 10
120
 20
609.9
 30
0.0
  0
VERTEX
  8
ROUTE_Z19P5RT104
 62
     3
 10
119.04
 20
609.9
 30
0.0
 42
0.414213562373095
  0
VERTEX
  8
ROUTE_Z19P5RT104
 62
     3
 10
0.1
 20
490.96
 30
0.0
  0
VERTEX
  8
ROUTE_Z19P5RT104
 62
     3
 10
0.1
 20
0
 30
0.0
  0
VERTEX
  8
ROUTE_Z19P5RT104
 62
     3
 10
0.1
 20
-7.5
 30
0.0
  0
SEQEND
  8
ROUTE_Z19P5RT104
 62
     3
  0
DIMENSION
  8
2D_DIM
  2
*D1
  3
BOARDERDIM
  1
120
 10
120
 20
738
 30
0.0
 11
60
 21
738
 31
0.0
 13
0
 23
610
 14
120
 24
610
 33
0.0
 34
0.0
53
0
  0
DIMENSION
  8
2D_DIM
  2
*D1
  3
BOARDERDIM
  1
610
 10
-128
 20
610
 30
0.0
 11
-128
 21
305
 31
0
 13
0.0
 23
0
 14
0.0
 24
610
 50
90.0
53
0
 33
0.0
 34
0.0
  0
DIMENSION
  8
2D_DIM
  2
*D1
  3
ROUTEDIM
  1
0.1
 10
0.1
 20
674
 30
0.0
 11
0.05
 21
674
 31
0.0
 13
0
 23
610
 14
0.1
 24
610
 33
0.0
 34
0.0
53
90
  0
DIMENSION
  8
2D_DIM
  2
*D1
  3
ROUTEDIM
  1
118.94
 10
119.04
 20
674
 30
0.0
 11
59.52
 21
674
 31
0.0
 13
0.1
 23
610
 14
119.04
 24
610
 33
0.0
 34
0.0
53
90
  0
DIMENSION
  8
2D_DIM
  2
*D1
  3
ROUTEDIM
  1
0.96
 10
120
 20
674
 30
0.0
 11
60
 21
674
 31
0.0
 13
119.04
 23
610
 14
120
 24
610
 33
0.0
 34
0.0
53
90
  0
DIMENSION
  8
2D_DIM
  2
*D1
  3
ROUTEDIM
  1
7.5
 10
127.5
 20
674
 30
0.0
 11
63.75
 21
674
 31
0.0
 13
120
 23
610
 14
127.5
 24
610
 33
0.0
 34
0.0
53
90
  0
DIMENSION
  8
2D_DIM
  2
*D1
  3
ROUTEDIM
  1
-7.5
 10
120
 20
674
 30
0.0
 11
60
 21
674
 31
0.0
 13
127.5
 23
610
 14
120
 24
610
 33
0.0
 34
0.0
53
90
  0
DIMENSION
  8
2D_DIM
  2
*D1
  3
ROUTEDIM
  1
7.5
 10
-64
 20
-7.5
 30
0.0
 11
-64
 21
-3.75
 31
0
 13
0.0
 23
0
 14
0.0
 24
-7.5
 50
90.0
53
0
 33
0.0
 34
0.0
  0
DIMENSION
  8
2D_DIM
  2
*D1
  3
ROUTEDIM
  1
7.5
 10
-64
 20
0
 30
0.0
 11
-64
 21
0
 31
0
 13
0.0
 23
-7.5
 14
0.0
 24
0
 50
90.0
53
0
 33
0.0
 34
0.0
  0
DIMENSION
  8
2D_DIM
  2
*D1
  3
ROUTEDIM
  1
490.96
 10
-64
 20
490.96
 30
0.0
 11
-64
 21
245.48
 31
0
 13
0.0
 23
0
 14
0.0
 24
490.96
 50
90.0
53
0
 33
0.0
 34
0.0
  0
DIMENSION
  8
2D_DIM
  2
*D1
  3
ROUTEDIM
  1
118.94
 10
-64
 20
609.9
 30
0.0
 11
-64
 21
304.95
 31
0
 13
0.0
 23
490.96
 14
0.0
 24
609.9
 50
90.0
53
0
 33
0.0
 34
0.0
  0
DIMENSION
  8
2D_DIM
  2
*D1
  3
ROUTEDIM
  1
0.1
 10
-64
 20
610
 30
0.0
 11
-64
 21
305
 31
0
 13
0.0
 23
609.9
 14
0.0
 24
610
 50
90.0
53
0
 33
0.0
 34
0.0
  0
DIMENSION
  8
2D_DIM
  2
*D1
  3
ROUTEDIM
  1
119.04
 10
119.04
 20
490.96
 30
0.0
 11
59.52
 21
490.96
 31
0.0
 13
0
 23
490.96
 14
119.04
 24
490.96
 33
0.0
 34
0.0
53
90
  0
DIMENSION
  8
2D_DIM
  2
*D1
  3
ROUTEDIM
  1
490.96
 10
119.04
 20
490.96
 30
0.0
 11
119.04
 21
245.48
 31
0
 13
119.04
 23
0
 14
119.04
 24
490.96
 50
90.0
53
0
 33
0.0
 34
0.0
  0
TEXT
  8
ITEMNUMBER
 62
     1
 10
-192
 20
-78
 30
0.0
 40
12.0
  1
1.57
  0
TEXT
  8
DESCRIPTION
 62
     1
 10
-192
 20
-103
 30
0.0
 40
12.0
  1
Base Open Overlay Bottom
  0
TEXT
  8
FILENAME
 62
     1
 10
-192
 20
-128
 30
0.0
 40
12.0
  1
6606HLPF
  0
TEXT
  8
MATERIALNAME
 62
     1
 10
-192
 20
-153
 30
0.0
 40
12.0
  1
MDF34
  0
TEXT
  8
MATERIALCODE
 62
     1
 10
-192
 20
-178
 30
0.0
 40
12.0
  1
|T104-D
  0
TEXT
  8
LEFTEB
 62
     1
 10
-192
 20
-203
 30
0.0
 40
12.0
  1
0.1mm 2134-30 - @
  0
TEXT
  8
LEFTEBTHICKNESS
 62
     1
 10
-192
 20
-228
 30
0.0
 40
12.0
  1
0.1
  0
TEXT
  8
FIRSTSYMBOL
 62
     1
 10
120.125
 20
305
 30
0.0
 40
12.0
  1
@
  0
TEXT
  8
TOPEB
 62
     1
 10
-192
 20
-253
 30
0.0
 40
12.0
  1
0.1mm 2134-30 - @
  0
TEXT
  8
TOPEBTHICKNESS
 62
     1
 10
-192
 20
-278
 30
0.0
 40
12.0
  1
0.1
  0
TEXT
  8
SECONDSYMBOL
 62
     1
 10
60
 20
-0.5
 30
0.0
 40
12.0
  1
@
  0
TEXT
  8
RIGHTEB
 62
     1
 10
-192
 20
-303
 30
0.0
 40
12.0
  1
0.1mm 2134-30 - @
  0
TEXT
  8
RIGHTEBTHICKNESS
 62
     1
 10
-192
 20
-328
 30
0.0
 40
12.0
  1
0.1
  0
TEXT
  8
THRIDSYMBOL
 62
     1
 10
-0.5
 20
305
 30
0.0
 40
12.0
  1
@
  0
TEXT
  8
BOTTOMEB
 62
     1
 10
-192
 20
-353
 30
0.0
 40
12.0
  1
0.1mm 2134-30 - @
  0
TEXT
  8
BOTTOMEBTHICKNESS
 62
     1
 10
-192
 20
-378
 30
0.0
 40
12.0
  1
0.1
  0
TEXT
  8
FORTHSYMBOL
 62
     1
 10
60
 20
610.125
 30
0.0
 40
12.0
  1
@
  0
TEXT
  8
Qty
 62
     1
 10
-192
 20
-403
 30
0.0
 40
12.0
  1
1
  0
TEXT
  8
RUNFIELD
 62
     1
 10
200
 20
-25
 30
0.0
 40
12.0
  1
Normal
  0
ENDSEC
  0
EOF
