  0
SECTION
  2
TABLES
  0
TABLE
  2
DIMSTYLE
 70
     2
  0
DIMSTYLE
  2
BOARDERDIM
 70
     0
  3

  4

  5
_NONE
  6
_NONE
  7
_NONE
 40
1
 41
0.1
 42
0.0625
 43
0.38
 44
0.18
 45
0.00
 46
0.0
 47
0.0
 48
0.0
140
0.5
141
0.09
142
0.0
143
25.399999999999999
144
1.0
145
0.5
146
1.0
147
0.09
 71
     1
 72
     0
 73
     1
 74
     0
 75
     0
 76
     0
 77
     2
 78
     0
170
     0
171
     2
172
     0
173
     0
174
     1
175
      0
176
5
177
5
178
     1
271
3
272
3
  0
ENDTAB
  0
TABLE
  2
DIMSTYLE
 70
     2
  0
DIMSTYLE
  2
VDRILLDIM
 70
     0
  3

  4

  5
_NONE
  6
_NONE
  7
_NONE
 40
1
 41
0.1
 42
0.0625
 43
0.38
 44
0.18
 45
0.00
 46
0.0
 47
0.0
 48
0.0
140
0.5
141
0.09
142
0.0
143
25.399999999999999
144
1.0
145
0.5
146
1.0
147
0.09
 71
     1
 72
     0
 73
     1
 74
     0
 75
     0
 76
     0
 77
     2
 78
     0
170
     0
171
     2
172
     0
173
     0
174
     1
175
      0
176
5
177
5
178
     1
271
3
272
3
  0
ENDTAB
  0
TABLE
  2
DIMSTYLE
 70
     2
  0
DIMSTYLE
  2
HDRILLDIM
 70
     0
  3

  4

  5
_NONE
  6
_NONE
  7
_NONE
 40
1
 41
0.1
 42
0.0625
 43
0.38
 44
0.18
 45
0.00
 46
0.0
 47
0.0
 48
0.0
140
0.5
141
0.09
142
0.0
143
25.399999999999999
144
1.0
145
0.5
146
1.0
147
0.09
 71
     1
 72
     0
 73
     1
 74
     0
 75
     0
 76
     0
 77
     2
 78
     0
170
     0
171
     2
172
     0
173
     0
174
     1
175
      0
176
5
177
5
178
     1
271
3
272
3
  0
ENDTAB
  0
TABLE
  2
DIMSTYLE
 70
     2
  0
DIMSTYLE
  2
ROUTEDIM
 70
     0
  3

  4

  5
_NONE
  6
_NONE
  7
_NONE
 40
1
 41
0.1
 42
0.0625
 43
0.38
 44
0.18
 45
0.00
 46
0.0
 47
0.0
 48
0.0
140
0.5
141
0.09
142
0.0
143
25.399999999999999
144
1.0
145
0.5
146
1.0
147
0.09
 71
     1
 72
     0
 73
     1
 74
     0
 75
     0
 76
     0
 77
     2
 78
     0
170
     0
171
     2
172
     0
173
     0
174
     1
175
      0
176
5
177
5
178
     1
271
3
272
3
  0
ENDTAB
  0
TABLE
  2
DIMSTYLE
 70
     2
  0
DIMSTYLE
  2
SAWDIM
 70
     0
  3

  4

  5
_NONE
  6
_NONE
  7
_NONE
 40
1
 41
0.1
 42
0.0625
 43
0.38
 44
0.18
 45
0.00
 46
0.0
 47
0.0
 48
0.0
140
0.5
141
0.09
142
0.0
143
25.399999999999999
144
1.0
145
0.5
146
1.0
147
0.09
 71
     1
 72
     0
 73
     1
 74
     0
 75
     0
 76
     0
 77
     2
 78
     0
170
     0
171
     2
172
     0
173
     0
174
     1
175
      0
176
5
177
5
178
     1
271
3
272
3
  0
ENDTAB
  0
TABLE
  2
VPORT
 70
     1
  0
VPORT
  2
*ACTIVE
 70
     0
 10
0.0
 20
0.0
 11
1.0
 21
1.0
 12
0.0
 22
0.0
 13
0.0
 23
0.0
 14
1.0
 24
1.0
 15
0.0
 25
0.0
 16
0.0
 26
0.0
 36
1.0
 17
0.0
 27
0.0
 37
0.0
 40
84
 41
2.0
 42
50.0
 43
0.0
 44
0.0
 50
0.0
 51
0.0
 71
     0
 72
   100
 73
     1
 74
     0
 75
     1
 76
     0
 77
     0
 78
     0
  0
ENDTAB
  0
ENDSEC
  0
SECTION
  2
ENTITIES
  0
POLYLINE
  8
BORDER_Z0P75
 62
     7
 66
     1
 10
0.0
 20
0.0
 30
0.0
 70
     1
  0
VERTEX
  8
BORDER_Z0P75
 62
     7
 10
0.0
 20
0.0
 30
0.0
  0
VERTEX
  8
BORDER_Z0P75
 62
     7
 10
0.0
 20
25.125
 30
0.0
  0
VERTEX
  8
BORDER_Z0P75
 62
     7
 10
48
 20
25.125
 30
0.0
  0
VERTEX
  8
BORDER_Z0P75
 62
     7
 10
48
 20
0.0
 30
0.0
  0
SEQEND
  8
BORDER_Z0P75
 62
     7
  0
POLYLINE
  8
ROUTE_Z0P375LT130RAMP
 62
     3
 66
     1
 10
0.0
 20
0.0
 30
0.0
 70
     0
  0
VERTEX
  8
ROUTE_Z0P375LT130RAMP
 62
     3
 10
27.922537
 20
-0.0497520000000016
 30
0.0
  0
VERTEX
  8
ROUTE_Z0P375LT130RAMP
 62
     3
 10
28.422537
 20
-0.0497590000000017
 30
0.0
  0
VERTEX
  8
ROUTE_Z0P375LT130RAMP
 62
     3
 10
34.770434
 20
-0.0498429999999992
 30
0.0
  0
VERTEX
  8
ROUTE_Z0P375LT130RAMP
 62
     3
 10
34.701714
 20
0.8125
 30
0.0
  0
VERTEX
  8
ROUTE_Z0P375LT130RAMP
 62
     3
 10
22.173317
 20
0.8125
 30
0.0
  0
VERTEX
  8
ROUTE_Z0P375LT130RAMP
 62
     3
 10
22.07464
 20
-0.0496750000000006
 30
0.0
  0
VERTEX
  8
ROUTE_Z0P375LT130RAMP
 62
     3
 10
28.422537
 20
-0.0497590000000017
 30
0.0
  0
SEQEND
  8
ROUTE_Z0P375LT130RAMP
 62
     3
  0
DIMENSION
  8
2D_DIM
  2
*D1
  3
BOARDERDIM
  1
48
 10
48
 20
30.125
 30
0.0
 11
24
 21
30.125
 31
0.0
 13
0
 23
25.125
 14
48
 24
25.125
 33
0.0
 34
0.0
53
0
  0
DIMENSION
  8
2D_DIM
  2
*D1
  3
BOARDERDIM
  1
25.125
 10
-5
 20
25.125
 30
0.0
 11
-5
 21
12.5625
 31
0
 13
0.0
 23
0
 14
0.0
 24
25.125
 50
90.0
53
0
 33
0.0
 34
0.0
  0
DIMENSION
  8
2D_DIM
  2
*D1
  3
ROUTEDIM
  1
22.075
 10
22.07464
 20
27.625
 30
0.0
 11
11.03732
 21
27.625
 31
0.0
 13
0
 23
25.125
 14
22.07464
 24
25.125
 33
0.0
 34
0.0
53
90
  0
DIMENSION
  8
2D_DIM
  2
*D1
  3
ROUTEDIM
  1
0.099
 10
22.173317
 20
27.625
 30
0.0
 11
11.0866585
 21
27.625
 31
0.0
 13
22.07464
 23
25.125
 14
22.173317
 24
25.125
 33
0.0
 34
0.0
53
90
  0
DIMENSION
  8
2D_DIM
  2
*D1
  3
ROUTEDIM
  1
5.749
 10
27.922537
 20
27.625
 30
0.0
 11
13.9612685
 21
27.625
 31
0.0
 13
22.173317
 23
25.125
 14
27.922537
 24
25.125
 33
0.0
 34
0.0
53
90
  0
DIMENSION
  8
2D_DIM
  2
*D1
  3
ROUTEDIM
  1
0.5
 10
28.422537
 20
27.625
 30
0.0
 11
14.2112685
 21
27.625
 31
0.0
 13
27.922537
 23
25.125
 14
28.422537
 24
25.125
 33
0.0
 34
0.0
53
90
  0
DIMENSION
  8
2D_DIM
  2
*D1
  3
ROUTEDIM
  1
6.279
 10
34.701714
 20
27.625
 30
0.0
 11
17.350857
 21
27.625
 31
0.0
 13
28.422537
 23
25.125
 14
34.701714
 24
25.125
 33
0.0
 34
0.0
53
90
  0
DIMENSION
  8
2D_DIM
  2
*D1
  3
ROUTEDIM
  1
0.069
 10
34.770434
 20
27.625
 30
0.0
 11
17.385217
 21
27.625
 31
0.0
 13
34.701714
 23
25.125
 14
34.770434
 24
25.125
 33
0.0
 34
0.0
53
90
  0
DIMENSION
  8
2D_DIM
  2
*D1
  3
ROUTEDIM
  1
13.23
 10
48
 20
27.625
 30
0.0
 11
24
 21
27.625
 31
0.0
 13
34.770434
 23
25.125
 14
48
 24
25.125
 33
0.0
 34
0.0
53
90
  0
DIMENSION
  8
2D_DIM
  2
*D1
  3
ROUTEDIM
  1
0.05
 10
-2.5
 20
-0.0498429999999992
 30
0.0
 11
-2.5
 21
-0.0249214999999996
 31
0
 13
0.0
 23
0
 14
0.0
 24
-0.0498429999999992
 50
90.0
53
0
 33
0.0
 34
0.0
  0
DIMENSION
  8
2D_DIM
  2
*D1
  3
ROUTEDIM
  1
-0
 10
-2.5
 20
-0.0497590000000017
 30
0.0
 11
-2.5
 21
-0.0248795000000008
 31
0
 13
0.0
 23
-0.0498429999999992
 14
0.0
 24
-0.0497590000000017
 50
90.0
53
0
 33
0.0
 34
0.0
  0
DIMENSION
  8
2D_DIM
  2
*D1
  3
ROUTEDIM
  1
-0
 10
-2.5
 20
-0.0497520000000016
 30
0.0
 11
-2.5
 21
-0.0248760000000008
 31
0
 13
0.0
 23
-0.0497590000000017
 14
0.0
 24
-0.0497520000000016
 50
90.0
53
0
 33
0.0
 34
0.0
  0
DIMENSION
  8
2D_DIM
  2
*D1
  3
ROUTEDIM
  1
-0
 10
-2.5
 20
-0.0496750000000006
 30
0.0
 11
-2.5
 21
-0.0248375000000003
 31
0
 13
0.0
 23
-0.0497520000000016
 14
0.0
 24
-0.0496750000000006
 50
90.0
53
0
 33
0.0
 34
0.0
  0
DIMENSION
  8
2D_DIM
  2
*D1
  3
ROUTEDIM
  1
0.862
 10
-2.5
 20
0.8125
 30
0.0
 11
-2.5
 21
0.40625
 31
0
 13
0.0
 23
-0.0496750000000006
 14
0.0
 24
0.8125
 50
90.0
53
0
 33
0.0
 34
0.0
  0
DIMENSION
  8
2D_DIM
  2
*D1
  3
ROUTEDIM
  1
24.312
 10
-2.5
 20
25.125
 30
0.0
 11
-2.5
 21
12.5625
 31
0
 13
0.0
 23
0.8125
 14
0.0
 24
25.125
 50
90.0
53
0
 33
0.0
 34
0.0
  0
TEXT
  8
ITEMNUMBER
 62
     1
 10
-7.5
 20
-5
 30
0.0
 40
0.5
  1
M3100.04
  0
TEXT
  8
DESCRIPTION
 62
     1
 10
-7.5
 20
-6
 30
0.0
 40
0.5
  1
P2A
  0
TEXT
  8
FILENAME
 62
     1
 10
-7.5
 20
-7
 30
0.0
 40
0.5
  1
5600ADKR
  0
TEXT
  8
MATERIALNAME
 62
     1
 10
-7.5
 20
-8
 30
0.0
 40
0.5
  1
MDF/3-4/4x8
  0
TEXT
  8
Qty
 62
     1
 10
-7.5
 20
-9
 30
0.0
 40
0.5
  1
1
  0
TEXT
  8
COMMENT
 62
     1
 10
-7.5
 20
-9
 30
0.0
 40
0.5
  1
A machining operation has been identified but none of the SMA Routers in your Primary ToolFile have a qualifying diameter   
  0
TEXT
  8
RUNFIELD
 62
     1
 10
8
 20
-1
 30
0.0
 40
0.5
  1
Normal
  0
ENDSEC
  0
EOF
